G75*
%MOIN*%
%OFA0B0*%
%FSLAX24Y24*%
%IPPOS*%
%LPD*%
%AMOC8*
5,1,8,0,0,1.08239X$1,22.5*
%
%ADD10C,0.0157*%
%ADD11C,0.0295*%
%ADD12C,0.0276*%
%ADD13C,0.0256*%
D10*
X007817Y009284D02*
X007975Y009284D01*
X007975Y008772D01*
X007817Y008772D01*
X007817Y009284D01*
X007817Y008928D02*
X007975Y008928D01*
X007975Y009084D02*
X007817Y009084D01*
X007817Y009240D02*
X007975Y009240D01*
X008250Y009284D02*
X008408Y009284D01*
X008408Y008772D01*
X008250Y008772D01*
X008250Y009284D01*
X008250Y008928D02*
X008408Y008928D01*
X008408Y009084D02*
X008250Y009084D01*
X008250Y009240D02*
X008408Y009240D01*
X008683Y009284D02*
X008841Y009284D01*
X008841Y008772D01*
X008683Y008772D01*
X008683Y009284D01*
X008683Y008928D02*
X008841Y008928D01*
X008841Y009084D02*
X008683Y009084D01*
X008683Y009240D02*
X008841Y009240D01*
X009116Y009284D02*
X009274Y009284D01*
X009274Y008772D01*
X009116Y008772D01*
X009116Y009284D01*
X009116Y008928D02*
X009274Y008928D01*
X009274Y009084D02*
X009116Y009084D01*
X009116Y009240D02*
X009274Y009240D01*
X009549Y009284D02*
X009707Y009284D01*
X009707Y008772D01*
X009549Y008772D01*
X009549Y009284D01*
X009549Y008928D02*
X009707Y008928D01*
X009707Y009084D02*
X009549Y009084D01*
X009549Y009240D02*
X009707Y009240D01*
X009982Y009284D02*
X010140Y009284D01*
X010140Y008772D01*
X009982Y008772D01*
X009982Y009284D01*
X009982Y008928D02*
X010140Y008928D01*
X010140Y009084D02*
X009982Y009084D01*
X009982Y009240D02*
X010140Y009240D01*
X010415Y009284D02*
X010573Y009284D01*
X010573Y008772D01*
X010415Y008772D01*
X010415Y009284D01*
X010415Y008928D02*
X010573Y008928D01*
X010573Y009084D02*
X010415Y009084D01*
X010415Y009240D02*
X010573Y009240D01*
X010848Y008772D02*
X011006Y008772D01*
X010848Y008772D02*
X010848Y009284D01*
X011006Y009284D01*
X011006Y008772D01*
X011006Y008928D02*
X010848Y008928D01*
X010848Y009084D02*
X011006Y009084D01*
X011006Y009240D02*
X010848Y009240D01*
D11*
X012138Y009228D02*
X012512Y009228D01*
X012512Y008932D01*
X012138Y008932D01*
X012138Y009228D01*
X012138Y009226D02*
X012512Y009226D01*
X012512Y003420D02*
X012216Y003420D01*
X012512Y003420D02*
X012512Y003046D01*
X012216Y003046D01*
X012216Y003420D01*
X012216Y003340D02*
X012512Y003340D01*
X007509Y009228D02*
X007173Y009228D01*
X007509Y009228D02*
X007509Y008932D01*
X007173Y008932D01*
X007173Y009228D01*
X007173Y009226D02*
X007509Y009226D01*
X007197Y003420D02*
X006901Y003420D01*
X007197Y003420D02*
X007197Y003046D01*
X006901Y003046D01*
X006901Y003420D01*
X006901Y003340D02*
X007197Y003340D01*
D12*
X007124Y005654D02*
X006810Y005654D01*
X007124Y005654D02*
X007124Y005380D01*
X006810Y005380D01*
X006810Y005654D01*
D13*
X006800Y008558D02*
X007134Y008558D01*
X007134Y008302D01*
X006800Y008302D01*
X006800Y008558D01*
X006800Y008557D02*
X007134Y008557D01*
M02*
