G75*
%MOIN*%
%OFA0B0*%
%FSLAX24Y24*%
%IPPOS*%
%LPD*%
%AMOC8*
5,1,8,0,0,1.08239X$1,22.5*
%
%ADD10C,0.0039*%
%ADD11C,0.0050*%
%ADD12C,0.0020*%
%ADD13C,0.0080*%
%ADD14C,0.0060*%
%ADD15C,0.0010*%
%ADD16C,0.0059*%
%ADD17C,0.0030*%
%ADD18R,0.0236X0.0591*%
%ADD19C,0.0079*%
%ADD20C,0.0256*%
%ADD21C,0.0040*%
D10*
X003494Y005664D02*
X003140Y006019D01*
X002608Y006137D02*
X002608Y005822D01*
X002018Y005822D01*
X002018Y006137D01*
X002608Y006137D01*
X002608Y006530D02*
X002608Y006845D01*
X002018Y006845D01*
X002018Y006530D01*
X002608Y006530D01*
X002608Y007318D02*
X002018Y007318D01*
X002018Y007633D01*
X002608Y007633D01*
X002608Y007318D01*
X002746Y007593D02*
X002589Y007751D01*
X002352Y007751D01*
X002156Y008341D02*
X001959Y008341D01*
X001919Y008302D01*
X002037Y008715D02*
X002352Y008715D01*
X002352Y009306D01*
X002037Y009306D01*
X002037Y008715D01*
X002431Y008715D02*
X002431Y009306D01*
X002746Y009306D01*
X002746Y008715D01*
X002431Y008715D01*
X002470Y009326D02*
X002470Y009404D01*
X002274Y009601D01*
X002037Y009601D01*
X002274Y009916D02*
X002431Y010074D01*
X002431Y010625D01*
X002392Y010664D01*
X002372Y010664D02*
X001782Y010664D01*
X001782Y010979D01*
X002372Y010979D01*
X002372Y010664D01*
X002372Y010585D02*
X001782Y010585D01*
X001782Y010270D01*
X002372Y010270D01*
X002372Y010585D01*
X002372Y011137D02*
X001782Y011137D01*
X001782Y011452D01*
X002372Y011452D01*
X002372Y011137D01*
X002392Y011373D02*
X002904Y011373D01*
X002982Y011452D01*
X002746Y011845D02*
X002785Y011885D01*
X002864Y011885D01*
X002746Y011845D02*
X002589Y011688D01*
X002392Y011688D01*
X002372Y011845D02*
X001782Y011845D01*
X001782Y011530D01*
X002372Y011530D01*
X002372Y011845D01*
X002372Y011924D02*
X002372Y012239D01*
X001782Y012239D01*
X001782Y011924D01*
X002372Y011924D01*
X002392Y012003D02*
X002628Y012003D01*
X002785Y012160D01*
X002864Y012160D01*
X002904Y012711D02*
X002943Y012711D01*
X002904Y012711D02*
X002746Y012869D01*
X003140Y013755D02*
X004006Y013755D01*
X004006Y014188D01*
X003140Y014188D01*
X003140Y013755D01*
X003140Y014050D02*
X003022Y014168D01*
X003022Y014759D01*
X003140Y014739D02*
X004006Y014739D01*
X004006Y014306D01*
X003140Y014306D01*
X003140Y014739D01*
X003037Y015261D02*
X003159Y015383D01*
X003159Y016418D01*
X003037Y016540D01*
X001904Y016540D01*
X001782Y016418D01*
X001782Y015383D01*
X001904Y015261D01*
X003037Y015261D01*
X003100Y016491D02*
X003415Y016806D01*
X004360Y018381D02*
X005148Y018381D01*
X005148Y019837D01*
X005305Y019837D01*
X005305Y019719D01*
X006014Y019719D01*
X006014Y020940D01*
X005305Y020940D01*
X005305Y019837D01*
X005148Y019837D02*
X005148Y020034D01*
X004360Y020034D01*
X004360Y018381D01*
X004459Y018381D02*
X005049Y018381D01*
X005049Y018066D01*
X004459Y018066D01*
X004459Y018381D01*
X004459Y018459D02*
X005049Y018459D01*
X005049Y018774D01*
X004459Y018774D01*
X004459Y018459D01*
X004459Y018853D02*
X005049Y018853D01*
X005049Y019168D01*
X004459Y019168D01*
X004459Y018853D01*
X004459Y019247D02*
X005049Y019247D01*
X005049Y019562D01*
X004459Y019562D01*
X004459Y019247D01*
X004459Y019641D02*
X005049Y019641D01*
X005049Y019956D01*
X004459Y019956D01*
X004459Y019641D01*
X004380Y019956D02*
X003789Y019956D01*
X003789Y020270D01*
X004380Y020270D01*
X004380Y019956D01*
X004400Y020231D02*
X004715Y020231D01*
X004439Y020369D02*
X004439Y020959D01*
X004124Y020959D01*
X004124Y020369D01*
X004439Y020369D01*
X004400Y020743D02*
X004715Y020743D01*
X005305Y021058D02*
X006014Y021058D01*
X006014Y021806D01*
X005305Y021806D01*
X005305Y021333D01*
X005305Y021058D01*
X005305Y021333D02*
X004006Y021333D01*
X003573Y020900D01*
X003376Y020900D01*
X003297Y020822D01*
X003297Y020625D01*
X003691Y020625D01*
X003691Y019837D01*
X002825Y019837D01*
X002825Y020625D01*
X003297Y020625D01*
X003219Y020605D02*
X003219Y021196D01*
X002904Y021196D01*
X002904Y020605D01*
X003219Y020605D01*
X003219Y020526D02*
X003219Y019936D01*
X002904Y019936D01*
X002904Y020526D01*
X003219Y020526D01*
X003297Y020526D02*
X003297Y019936D01*
X003612Y019936D01*
X003612Y020526D01*
X003297Y020526D01*
X003297Y020999D02*
X003297Y021589D01*
X003612Y021589D01*
X003612Y020999D01*
X003297Y020999D01*
X003061Y021215D02*
X003061Y021294D01*
X002963Y021727D02*
X003553Y021727D01*
X003553Y022042D01*
X002963Y022042D01*
X002963Y021727D01*
X002845Y021727D02*
X002845Y022042D01*
X002254Y022042D01*
X002254Y021727D01*
X002845Y021727D01*
X002825Y021550D02*
X002825Y020959D01*
X002510Y020959D01*
X002510Y021550D01*
X002825Y021550D01*
X002589Y021570D02*
X002510Y021648D01*
X002037Y021648D01*
X002077Y021550D02*
X002077Y020959D01*
X002392Y020959D01*
X002392Y021550D01*
X002077Y021550D01*
X002077Y021058D02*
X002037Y021058D01*
X001919Y020940D01*
X001919Y020861D01*
X001683Y019877D02*
X002470Y019877D01*
X002470Y018538D01*
X001801Y018538D01*
X001801Y018420D01*
X001722Y018420D01*
X001722Y017475D01*
X002392Y017475D01*
X002392Y018420D01*
X001801Y018420D01*
X001801Y018538D02*
X001683Y018538D01*
X001683Y019877D01*
X001782Y019759D02*
X002372Y019759D01*
X002372Y019444D01*
X001782Y019444D01*
X001782Y019759D01*
X001782Y019365D02*
X002372Y019365D01*
X002372Y019050D01*
X001782Y019050D01*
X001782Y019365D01*
X001782Y018971D02*
X002372Y018971D01*
X002372Y018656D01*
X001782Y018656D01*
X001782Y018971D01*
X003612Y021491D02*
X004006Y021491D01*
X004262Y021727D02*
X003671Y021727D01*
X003671Y022042D01*
X004262Y022042D01*
X004262Y021727D01*
X003967Y021137D02*
X003848Y021019D01*
X003848Y020979D01*
X003730Y020959D02*
X003730Y020369D01*
X004045Y020369D01*
X004045Y020959D01*
X003730Y020959D01*
X003494Y022042D02*
X003494Y022160D01*
X002510Y022160D02*
X002510Y022042D01*
X005226Y019621D02*
X005226Y019188D01*
X006093Y019188D01*
X006093Y019621D01*
X005226Y019621D01*
X005226Y019148D02*
X006093Y019148D01*
X006093Y018715D01*
X005226Y018715D01*
X005226Y019148D01*
X004813Y017889D02*
X005797Y017889D01*
X005797Y016904D01*
X004813Y016904D01*
X004813Y017889D01*
X005915Y017475D02*
X005915Y017160D01*
X006506Y017160D01*
X006506Y017475D01*
X005915Y017475D01*
X006604Y018046D02*
X006604Y018637D01*
X006919Y018637D01*
X006919Y018046D01*
X006604Y018046D01*
X006998Y018046D02*
X006998Y018637D01*
X007313Y018637D01*
X007313Y018046D01*
X006998Y018046D01*
X008159Y018774D02*
X008750Y018774D01*
X008750Y019089D01*
X008159Y019089D01*
X008159Y018774D01*
X008159Y019168D02*
X008750Y019168D01*
X008750Y019483D01*
X008159Y019483D01*
X008159Y019168D01*
X008514Y019877D02*
X007372Y019877D01*
X007372Y020664D01*
X008514Y020664D01*
X008514Y019877D01*
X008652Y020999D02*
X008337Y020999D01*
X008337Y021589D01*
X008652Y021589D01*
X008652Y020999D01*
X008671Y021648D02*
X008671Y021963D01*
X008081Y021963D01*
X008081Y021648D01*
X008671Y021648D01*
X008671Y022042D02*
X008671Y022357D01*
X008081Y022357D01*
X008081Y022042D01*
X008671Y022042D01*
X008730Y022416D02*
X008415Y022416D01*
X008415Y023007D01*
X008730Y023007D01*
X008730Y022416D01*
X008809Y022416D02*
X008809Y023007D01*
X009124Y023007D01*
X009124Y022416D01*
X008809Y022416D01*
X009892Y022377D02*
X009892Y022318D01*
X009892Y022377D02*
X013711Y022377D01*
X013711Y022318D01*
X014183Y022475D02*
X014183Y022160D01*
X014774Y022160D01*
X014774Y022475D01*
X014183Y022475D01*
X014183Y021845D02*
X014183Y021530D01*
X014774Y021530D01*
X014774Y021845D01*
X014183Y021845D01*
X014242Y020093D02*
X014242Y019503D01*
X014557Y019503D01*
X014557Y020093D01*
X014242Y020093D01*
X014183Y019365D02*
X014183Y018499D01*
X014616Y018499D01*
X014616Y019365D01*
X014183Y019365D01*
X013711Y018499D02*
X013711Y018400D01*
X009892Y018400D01*
X009892Y018499D01*
X009872Y017456D02*
X009872Y016865D01*
X010187Y016865D01*
X010187Y017456D01*
X009872Y017456D01*
X010384Y016097D02*
X010423Y016058D01*
X010423Y016019D01*
X010266Y015999D02*
X010266Y015408D01*
X010581Y015408D01*
X010581Y015999D01*
X010266Y015999D01*
X010659Y015999D02*
X010659Y015408D01*
X010974Y015408D01*
X010974Y015999D01*
X010659Y015999D01*
X010738Y016137D02*
X010817Y016058D01*
X010817Y016019D01*
X011309Y016009D02*
X011309Y015694D01*
X011900Y015694D01*
X011900Y016009D01*
X011309Y016009D01*
X011309Y015576D02*
X011309Y015261D01*
X011900Y015261D01*
X011900Y015576D01*
X011309Y015576D01*
X011978Y014719D02*
X012569Y014719D01*
X012569Y014404D01*
X011978Y014404D01*
X011978Y014719D01*
X011978Y014286D02*
X012569Y014286D01*
X012569Y013971D01*
X011978Y013971D01*
X011978Y014286D01*
X012648Y014286D02*
X012648Y013971D01*
X013238Y013971D01*
X013238Y014286D01*
X012648Y014286D01*
X012589Y014562D02*
X012864Y014562D01*
X012195Y012180D02*
X011880Y012180D01*
X011880Y011589D01*
X012195Y011589D01*
X012195Y012180D01*
X012333Y011491D02*
X011742Y011491D01*
X011742Y011176D01*
X012333Y011176D01*
X012333Y011491D01*
X012234Y010172D02*
X012234Y009581D01*
X012549Y009581D01*
X012549Y010172D01*
X012234Y010172D01*
X011919Y010172D02*
X011604Y010172D01*
X011604Y009581D01*
X011919Y009581D01*
X011919Y010172D01*
X012628Y009463D02*
X013494Y009463D01*
X013494Y009030D01*
X012628Y009030D01*
X012628Y009463D01*
X012667Y009581D02*
X012667Y010172D01*
X012982Y010172D01*
X012982Y009581D01*
X012667Y009581D01*
X013179Y009581D02*
X013179Y010172D01*
X013494Y010172D01*
X013494Y009581D01*
X013179Y009581D01*
X013494Y008912D02*
X012628Y008912D01*
X012628Y008479D01*
X013494Y008479D01*
X013494Y008912D01*
X013494Y008361D02*
X012628Y008361D01*
X012628Y007928D01*
X013494Y007928D01*
X013494Y008361D01*
X013494Y007810D02*
X012628Y007810D01*
X012628Y007377D01*
X013494Y007377D01*
X013494Y007810D01*
X012530Y007751D02*
X012530Y007436D01*
X011939Y007436D01*
X011939Y007751D01*
X012530Y007751D01*
X011919Y007436D02*
X011880Y007396D01*
X011841Y007396D01*
X010994Y008459D02*
X010994Y008774D01*
X010404Y008774D01*
X010404Y008459D01*
X010994Y008459D01*
X010738Y008873D02*
X010738Y009463D01*
X010423Y009463D01*
X010423Y008873D01*
X010738Y008873D01*
X010305Y008873D02*
X010305Y009463D01*
X009990Y009463D01*
X009990Y008873D01*
X010305Y008873D01*
X009557Y009798D02*
X009557Y010389D01*
X009242Y010389D01*
X009242Y009798D01*
X009557Y009798D01*
X009282Y009601D02*
X009282Y009011D01*
X008967Y009011D01*
X008967Y009601D01*
X009282Y009601D01*
X009104Y007751D02*
X008514Y007751D01*
X008514Y007436D01*
X009104Y007436D01*
X009104Y007751D01*
X009045Y007436D02*
X009321Y007160D01*
X009459Y007160D02*
X009459Y007475D01*
X010049Y007475D01*
X010049Y007160D01*
X009459Y007160D01*
X009990Y007593D02*
X009872Y007711D01*
X009990Y007593D02*
X010148Y007593D01*
X010148Y007278D02*
X010069Y007278D01*
X008396Y007318D02*
X008396Y007003D01*
X007805Y007003D01*
X007805Y007318D01*
X008396Y007318D01*
X008396Y007436D02*
X007805Y007436D01*
X007805Y007751D01*
X008396Y007751D01*
X008396Y007436D01*
X007825Y007751D02*
X007707Y007869D01*
X007274Y007869D01*
X007234Y008085D02*
X007549Y008085D01*
X007549Y008676D01*
X007234Y008676D01*
X007234Y008085D01*
X007392Y007652D02*
X007392Y007062D01*
X007707Y007062D01*
X007707Y007652D01*
X007392Y007652D01*
X006998Y008893D02*
X006998Y010231D01*
X006250Y010231D01*
X006250Y008893D01*
X006407Y008893D01*
X006407Y008459D01*
X006211Y008263D01*
X005423Y008263D01*
X005423Y006609D01*
X006211Y006609D01*
X006211Y008263D01*
X006112Y008184D02*
X005522Y008184D01*
X005522Y007869D01*
X006112Y007869D01*
X006112Y008184D01*
X006112Y007790D02*
X005522Y007790D01*
X005522Y007475D01*
X006112Y007475D01*
X006112Y007790D01*
X006211Y007534D02*
X006211Y006944D01*
X006526Y006944D01*
X006526Y007534D01*
X006211Y007534D01*
X006112Y007396D02*
X005522Y007396D01*
X005522Y007081D01*
X006112Y007081D01*
X006112Y007396D01*
X006112Y007003D02*
X005522Y007003D01*
X005522Y006688D01*
X006112Y006688D01*
X006112Y007003D01*
X005482Y006609D02*
X005482Y006294D01*
X004892Y006294D01*
X004892Y006609D01*
X005482Y006609D01*
X005482Y006215D02*
X004892Y006215D01*
X004892Y005900D01*
X005482Y005900D01*
X005482Y006215D01*
X005482Y005822D02*
X004892Y005822D01*
X004892Y005507D01*
X005482Y005507D01*
X005482Y005822D01*
X005482Y005349D02*
X004892Y005349D01*
X004892Y005034D01*
X005482Y005034D01*
X005482Y005349D01*
X005502Y004936D02*
X005187Y004936D01*
X005187Y004345D01*
X005502Y004345D01*
X005502Y004936D01*
X005108Y004936D02*
X005108Y004345D01*
X004793Y004345D01*
X004793Y004936D01*
X005108Y004936D01*
X004872Y005192D02*
X004793Y005192D01*
X004793Y004207D01*
X004833Y004247D01*
X004793Y004207D02*
X004754Y004247D01*
X004911Y004247D02*
X004951Y004207D01*
X004990Y004247D01*
X004951Y004207D02*
X004951Y004326D01*
X005305Y004247D02*
X005345Y004207D01*
X005384Y004247D01*
X005345Y004207D02*
X005345Y004326D01*
X004793Y005192D02*
X004793Y005664D01*
X004872Y005664D01*
X004793Y005664D02*
X004793Y006058D01*
X004872Y006058D01*
X004793Y006058D02*
X004793Y006412D01*
X004872Y006412D01*
X004793Y006412D02*
X004754Y006412D01*
X004734Y006550D02*
X004734Y006235D01*
X004144Y006235D01*
X004144Y006550D01*
X004734Y006550D01*
X004715Y006156D02*
X004400Y006156D01*
X004400Y005566D01*
X004715Y005566D01*
X004715Y006156D01*
X004341Y006137D02*
X004341Y005822D01*
X003750Y005822D01*
X003750Y006137D01*
X004341Y006137D01*
X004085Y006235D02*
X004085Y006826D01*
X003770Y006826D01*
X003770Y006235D01*
X004085Y006235D01*
X004400Y005487D02*
X004400Y004896D01*
X004715Y004896D01*
X004715Y005487D01*
X004400Y005487D01*
X004439Y004877D02*
X004439Y004207D01*
X004478Y004247D01*
X004439Y004207D02*
X004400Y004247D01*
X003356Y007672D02*
X002766Y007672D01*
X002766Y007987D01*
X003356Y007987D01*
X003356Y007672D01*
X003986Y008932D02*
X004577Y008932D01*
X004577Y009247D01*
X003986Y009247D01*
X003986Y008932D01*
X004459Y009483D02*
X005049Y009483D01*
X005049Y009798D01*
X004459Y009798D01*
X004459Y009483D01*
X004695Y009247D02*
X005285Y009247D01*
X005285Y008932D01*
X004695Y008932D01*
X004695Y009247D01*
X004951Y009247D02*
X005148Y009444D01*
X005226Y009444D01*
X005069Y009719D02*
X005187Y009837D01*
X005345Y009837D01*
X005108Y010034D02*
X005187Y010113D01*
X005108Y010034D02*
X005069Y010034D01*
X005049Y009877D02*
X004459Y009877D01*
X004459Y010192D01*
X005049Y010192D01*
X005049Y009877D01*
X005049Y010270D02*
X004459Y010270D01*
X004459Y010585D01*
X005049Y010585D01*
X005049Y010270D01*
X005069Y010467D02*
X005305Y010467D01*
X005148Y010782D02*
X005266Y010900D01*
X005266Y010979D01*
X005325Y010979D02*
X004734Y010979D01*
X004734Y011294D01*
X005325Y011294D01*
X005325Y010979D01*
X005423Y010959D02*
X006289Y010959D01*
X006289Y011393D01*
X005423Y011393D01*
X005423Y010959D01*
X005325Y011373D02*
X004734Y011373D01*
X004734Y011688D01*
X005325Y011688D01*
X005325Y011373D01*
X005423Y011432D02*
X006289Y011432D01*
X006289Y011865D01*
X005423Y011865D01*
X005423Y011432D01*
X005817Y010881D02*
X005817Y010290D01*
X006132Y010290D01*
X006132Y010881D01*
X005817Y010881D01*
X005817Y012259D02*
X005817Y012849D01*
X006132Y012849D01*
X006132Y012259D01*
X005817Y012259D01*
X005596Y012898D02*
X005719Y013020D01*
X005719Y014056D01*
X005596Y014178D01*
X004463Y014178D01*
X004341Y014056D01*
X004341Y013020D01*
X004463Y012898D01*
X005596Y012898D01*
X006014Y013341D02*
X006014Y013971D01*
X006801Y013971D01*
X006801Y013341D01*
X006014Y013341D01*
X005837Y014168D02*
X006427Y014168D01*
X006427Y014483D01*
X005837Y014483D01*
X005837Y014168D01*
X005837Y014601D02*
X006427Y014601D01*
X006427Y014916D01*
X005837Y014916D01*
X005837Y014601D01*
X005837Y015034D02*
X006427Y015034D01*
X006427Y015349D01*
X005837Y015349D01*
X005837Y015034D01*
X005699Y015448D02*
X005699Y016038D01*
X006014Y016038D01*
X006014Y015448D01*
X005699Y015448D01*
X006329Y015349D02*
X006329Y015743D01*
X006900Y015782D02*
X006900Y015467D01*
X007490Y015467D01*
X007490Y015782D01*
X006900Y015782D01*
X007018Y015389D02*
X007608Y015389D01*
X007608Y015074D01*
X007018Y015074D01*
X007018Y015389D01*
X007628Y015349D02*
X007746Y015467D01*
X007785Y015467D01*
X008396Y015625D02*
X008986Y015625D01*
X008986Y015940D01*
X008396Y015940D01*
X008396Y015625D01*
X012333Y017475D02*
X012923Y017475D01*
X012923Y017790D01*
X012333Y017790D01*
X012333Y017475D01*
X006998Y008893D02*
X006407Y008893D01*
X006073Y008932D02*
X005482Y008932D01*
X005482Y009247D01*
X006073Y009247D01*
X006073Y008932D01*
X005817Y008873D02*
X005817Y008282D01*
X005502Y008282D01*
X005502Y008873D01*
X005817Y008873D01*
X004715Y011570D02*
X004400Y011570D01*
X004006Y014601D02*
X004085Y014680D01*
X004085Y014759D01*
D11*
X004695Y015093D02*
X004695Y014267D01*
X005522Y014267D01*
X005522Y015093D01*
X004695Y015093D01*
X004675Y015192D02*
X004675Y016452D01*
X005384Y016452D01*
X005384Y015192D01*
X004675Y015192D01*
X004242Y013617D02*
X004242Y012908D01*
X002982Y012908D01*
X002982Y013617D01*
X004242Y013617D01*
X004478Y012593D02*
X005738Y012593D01*
X005738Y011885D01*
X004478Y011885D01*
X004478Y012593D01*
X004203Y011255D02*
X003967Y011255D01*
X004203Y011255D02*
X004203Y011019D01*
X004203Y009916D02*
X004203Y009680D01*
X003967Y009680D01*
X003868Y008656D02*
X003691Y008656D01*
X003691Y008479D01*
X003691Y007259D02*
X003691Y007081D01*
X003868Y007081D01*
X005085Y007081D02*
X005266Y007263D01*
X005541Y006333D02*
X005541Y005074D01*
X006250Y005074D01*
X006250Y006333D01*
X005541Y006333D01*
X005266Y008479D02*
X005266Y008656D01*
X005089Y008656D01*
X002884Y009680D02*
X002628Y009936D01*
X002628Y011019D02*
X002628Y011255D01*
X002864Y011255D01*
X002982Y016648D02*
X001722Y016648D01*
X001722Y017357D01*
X002982Y017357D01*
X002982Y016648D01*
X002864Y018026D02*
X002628Y018026D01*
X002628Y018263D01*
X002628Y019365D02*
X002628Y019601D01*
X002864Y019601D01*
X003947Y019601D02*
X004203Y019345D01*
X004203Y018263D02*
X004203Y018026D01*
X003967Y018026D01*
X012509Y018893D02*
X012511Y018926D01*
X012517Y018958D01*
X012526Y018989D01*
X012539Y019019D01*
X012556Y019047D01*
X012576Y019073D01*
X012599Y019097D01*
X012624Y019117D01*
X012652Y019135D01*
X012681Y019149D01*
X012712Y019159D01*
X012744Y019166D01*
X012777Y019169D01*
X012810Y019168D01*
X012842Y019163D01*
X012873Y019154D01*
X012904Y019142D01*
X012932Y019126D01*
X012959Y019107D01*
X012983Y019085D01*
X013004Y019060D01*
X013023Y019033D01*
X013038Y019004D01*
X013049Y018974D01*
X013057Y018942D01*
X013061Y018909D01*
X013061Y018877D01*
X013057Y018844D01*
X013049Y018812D01*
X013038Y018782D01*
X013023Y018753D01*
X013004Y018726D01*
X012983Y018701D01*
X012959Y018679D01*
X012932Y018660D01*
X012904Y018644D01*
X012873Y018632D01*
X012842Y018623D01*
X012810Y018618D01*
X012777Y018617D01*
X012744Y018620D01*
X012712Y018627D01*
X012681Y018637D01*
X012652Y018651D01*
X012624Y018669D01*
X012599Y018689D01*
X012576Y018713D01*
X012556Y018739D01*
X012539Y018767D01*
X012526Y018797D01*
X012517Y018828D01*
X012511Y018860D01*
X012509Y018893D01*
D12*
X012930Y017741D02*
X013039Y017741D01*
X013075Y017705D01*
X013075Y017633D01*
X013039Y017597D01*
X012930Y017597D01*
X012930Y017525D02*
X012930Y017741D01*
X013002Y017597D02*
X013075Y017525D01*
X013148Y017525D02*
X013292Y017525D01*
X013220Y017525D02*
X013220Y017741D01*
X013148Y017669D01*
X013365Y017705D02*
X013365Y017561D01*
X013510Y017705D01*
X013510Y017561D01*
X013474Y017525D01*
X013401Y017525D01*
X013365Y017561D01*
X013365Y017705D02*
X013401Y017741D01*
X013474Y017741D01*
X013510Y017705D01*
X014173Y018194D02*
X014318Y018194D01*
X014391Y018194D02*
X014391Y018410D01*
X014535Y018410D01*
X014608Y018410D02*
X014717Y018410D01*
X014753Y018374D01*
X014753Y018230D01*
X014717Y018194D01*
X014608Y018194D01*
X014608Y018410D01*
X014463Y018302D02*
X014391Y018302D01*
X014391Y018194D02*
X014535Y018194D01*
X014826Y018230D02*
X014862Y018194D01*
X014934Y018194D01*
X014970Y018230D01*
X014970Y018302D01*
X014934Y018338D01*
X014898Y018338D01*
X014826Y018302D01*
X014826Y018410D01*
X014970Y018410D01*
X014862Y019431D02*
X014646Y019431D01*
X014646Y019539D01*
X014682Y019575D01*
X014754Y019575D01*
X014790Y019539D01*
X014790Y019431D01*
X014790Y019503D02*
X014862Y019575D01*
X014862Y019649D02*
X014862Y019793D01*
X014862Y019721D02*
X014646Y019721D01*
X014718Y019649D01*
X014718Y019866D02*
X014646Y019938D01*
X014862Y019938D01*
X014862Y019866D02*
X014862Y020010D01*
X014839Y021321D02*
X014983Y021321D01*
X015020Y021357D01*
X015020Y021429D01*
X014983Y021465D01*
X015020Y021538D02*
X014875Y021683D01*
X014839Y021683D01*
X014803Y021647D01*
X014803Y021574D01*
X014839Y021538D01*
X014839Y021465D02*
X014803Y021429D01*
X014803Y021357D01*
X014839Y021321D01*
X015020Y021538D02*
X015020Y021683D01*
X014983Y021756D02*
X015020Y021792D01*
X015020Y021864D01*
X014983Y021900D01*
X014947Y021900D01*
X014911Y021864D01*
X014911Y021756D01*
X014983Y021756D01*
X014911Y021756D02*
X014839Y021828D01*
X014803Y021900D01*
X014803Y022090D02*
X014803Y022198D01*
X014839Y022234D01*
X014911Y022234D01*
X014947Y022198D01*
X014947Y022090D01*
X014947Y022162D02*
X015020Y022234D01*
X014983Y022307D02*
X015020Y022343D01*
X015020Y022415D01*
X014983Y022451D01*
X014839Y022451D01*
X014803Y022415D01*
X014803Y022343D01*
X014839Y022307D01*
X014875Y022307D01*
X014911Y022343D01*
X014911Y022451D01*
X014803Y022090D02*
X015020Y022090D01*
X014173Y018410D02*
X014173Y018194D01*
X013282Y016481D02*
X013282Y016265D01*
X013210Y016265D02*
X013354Y016265D01*
X013210Y016409D02*
X013282Y016481D01*
X013137Y016445D02*
X013137Y016301D01*
X013100Y016265D01*
X013028Y016265D01*
X012992Y016301D01*
X012992Y016445D01*
X013028Y016481D01*
X013100Y016481D01*
X013137Y016445D01*
X013064Y016337D02*
X013137Y016265D01*
X012548Y015933D02*
X012548Y015897D01*
X012512Y015861D01*
X012440Y015861D01*
X012404Y015897D01*
X012404Y015933D01*
X012440Y015969D01*
X012512Y015969D01*
X012548Y015933D01*
X012512Y015861D02*
X012548Y015825D01*
X012548Y015789D01*
X012512Y015753D01*
X012440Y015753D01*
X012404Y015789D01*
X012404Y015825D01*
X012440Y015861D01*
X012330Y015825D02*
X012330Y015789D01*
X012294Y015753D01*
X012222Y015753D01*
X012186Y015789D01*
X012113Y015789D02*
X012077Y015753D01*
X012005Y015753D01*
X011969Y015789D01*
X011969Y015933D01*
X012005Y015969D01*
X012077Y015969D01*
X012113Y015933D01*
X012186Y015933D02*
X012222Y015969D01*
X012294Y015969D01*
X012330Y015933D01*
X012330Y015897D01*
X012294Y015861D01*
X012330Y015825D01*
X012294Y015861D02*
X012258Y015861D01*
X012222Y015546D02*
X012186Y015510D01*
X012222Y015546D02*
X012294Y015546D01*
X012330Y015510D01*
X012330Y015474D01*
X012294Y015438D01*
X012330Y015402D01*
X012330Y015366D01*
X012294Y015330D01*
X012222Y015330D01*
X012186Y015366D01*
X012113Y015366D02*
X012077Y015330D01*
X012005Y015330D01*
X011969Y015366D01*
X011969Y015510D01*
X012005Y015546D01*
X012077Y015546D01*
X012113Y015510D01*
X012258Y015438D02*
X012294Y015438D01*
X012404Y015438D02*
X012476Y015510D01*
X012548Y015546D01*
X012512Y015438D02*
X012404Y015438D01*
X012404Y015366D01*
X012440Y015330D01*
X012512Y015330D01*
X012548Y015366D01*
X012548Y015402D01*
X012512Y015438D01*
X012950Y014670D02*
X012914Y014634D01*
X012914Y014490D01*
X012950Y014454D01*
X013022Y014454D01*
X013058Y014490D01*
X013131Y014490D02*
X013167Y014454D01*
X013239Y014454D01*
X013275Y014490D01*
X013275Y014526D01*
X013239Y014562D01*
X013203Y014562D01*
X013239Y014562D02*
X013275Y014598D01*
X013275Y014634D01*
X013239Y014670D01*
X013167Y014670D01*
X013131Y014634D01*
X013058Y014634D02*
X013022Y014670D01*
X012950Y014670D01*
X013349Y014670D02*
X013493Y014670D01*
X013493Y014634D01*
X013349Y014490D01*
X013349Y014454D01*
X013260Y013883D02*
X013152Y013775D01*
X013296Y013775D01*
X013260Y013883D02*
X013260Y013666D01*
X013078Y013775D02*
X012934Y013775D01*
X013042Y013883D01*
X013042Y013666D01*
X012861Y013702D02*
X012825Y013666D01*
X012753Y013666D01*
X012717Y013702D01*
X012717Y013847D01*
X012753Y013883D01*
X012825Y013883D01*
X012861Y013847D01*
X012548Y013847D02*
X012548Y013702D01*
X012512Y013666D01*
X012440Y013666D01*
X012404Y013702D01*
X012330Y013702D02*
X012294Y013666D01*
X012222Y013666D01*
X012186Y013702D01*
X012113Y013702D02*
X012077Y013666D01*
X012005Y013666D01*
X011969Y013702D01*
X011969Y013847D01*
X012005Y013883D01*
X012077Y013883D01*
X012113Y013847D01*
X012186Y013847D02*
X012222Y013883D01*
X012294Y013883D01*
X012330Y013847D01*
X012330Y013811D01*
X012294Y013775D01*
X012330Y013738D01*
X012330Y013702D01*
X012294Y013775D02*
X012258Y013775D01*
X012404Y013811D02*
X012440Y013775D01*
X012548Y013775D01*
X012548Y013847D02*
X012512Y013883D01*
X012440Y013883D01*
X012404Y013847D01*
X012404Y013811D01*
X012500Y012159D02*
X012500Y012015D01*
X012500Y012087D02*
X012283Y012087D01*
X012356Y012015D01*
X012392Y011941D02*
X012464Y011941D01*
X012500Y011905D01*
X012500Y011833D01*
X012464Y011797D01*
X012392Y011797D02*
X012356Y011869D01*
X012356Y011905D01*
X012392Y011941D01*
X012283Y011941D02*
X012283Y011797D01*
X012392Y011797D01*
X012464Y011724D02*
X012500Y011688D01*
X012500Y011616D01*
X012464Y011580D01*
X012320Y011580D01*
X012283Y011616D01*
X012283Y011688D01*
X012320Y011724D01*
X012438Y011442D02*
X012402Y011406D01*
X012402Y011261D01*
X012438Y011225D01*
X012510Y011225D01*
X012546Y011261D01*
X012619Y011261D02*
X012655Y011225D01*
X012727Y011225D01*
X012764Y011261D01*
X012764Y011297D01*
X012727Y011334D01*
X012691Y011334D01*
X012727Y011334D02*
X012764Y011370D01*
X012764Y011406D01*
X012727Y011442D01*
X012655Y011442D01*
X012619Y011406D01*
X012546Y011406D02*
X012510Y011442D01*
X012438Y011442D01*
X012837Y011334D02*
X012981Y011334D01*
X012945Y011442D02*
X012837Y011334D01*
X012945Y011442D02*
X012945Y011225D01*
X012933Y010820D02*
X012933Y010676D01*
X012933Y010748D02*
X012717Y010748D01*
X012789Y010676D01*
X012789Y010603D02*
X012825Y010567D01*
X012861Y010603D01*
X012897Y010603D01*
X012933Y010567D01*
X012933Y010495D01*
X012897Y010459D01*
X012933Y010385D02*
X012861Y010313D01*
X012861Y010349D02*
X012861Y010241D01*
X012933Y010241D02*
X012717Y010241D01*
X012717Y010349D01*
X012753Y010385D01*
X012825Y010385D01*
X012861Y010349D01*
X012753Y010459D02*
X012717Y010495D01*
X012717Y010567D01*
X012753Y010603D01*
X012789Y010603D01*
X012825Y010567D02*
X012825Y010531D01*
X012500Y010567D02*
X012500Y010495D01*
X012464Y010459D01*
X012500Y010385D02*
X012428Y010313D01*
X012428Y010349D02*
X012428Y010241D01*
X012500Y010241D02*
X012283Y010241D01*
X012283Y010349D01*
X012320Y010385D01*
X012392Y010385D01*
X012428Y010349D01*
X012320Y010459D02*
X012283Y010495D01*
X012283Y010567D01*
X012320Y010603D01*
X012356Y010603D01*
X012392Y010567D01*
X012428Y010603D01*
X012464Y010603D01*
X012500Y010567D01*
X012392Y010567D02*
X012392Y010531D01*
X012320Y010676D02*
X012283Y010712D01*
X012283Y010784D01*
X012320Y010820D01*
X012356Y010820D01*
X012500Y010676D01*
X012500Y010820D01*
X011472Y010753D02*
X011302Y010753D01*
X011302Y010625D01*
X011387Y010668D01*
X011429Y010668D01*
X011472Y010625D01*
X011472Y010540D01*
X011429Y010497D01*
X011344Y010497D01*
X011302Y010540D01*
X011218Y010540D02*
X011176Y010497D01*
X011090Y010497D01*
X011048Y010540D01*
X011048Y010710D01*
X011090Y010753D01*
X011176Y010753D01*
X011218Y010710D01*
X010964Y010753D02*
X010879Y010753D01*
X010921Y010753D02*
X010921Y010497D01*
X010879Y010497D02*
X010964Y010497D01*
X011299Y010154D02*
X011335Y010190D01*
X011371Y010190D01*
X011407Y010154D01*
X011443Y010190D01*
X011480Y010190D01*
X011516Y010154D01*
X011516Y010082D01*
X011480Y010046D01*
X011480Y009973D02*
X011516Y009937D01*
X011516Y009865D01*
X011480Y009829D01*
X011516Y009755D02*
X011443Y009683D01*
X011443Y009719D02*
X011443Y009611D01*
X011516Y009611D02*
X011299Y009611D01*
X011299Y009719D01*
X011335Y009755D01*
X011407Y009755D01*
X011443Y009719D01*
X011335Y009829D02*
X011299Y009865D01*
X011299Y009937D01*
X011335Y009973D01*
X011371Y009973D01*
X011407Y009937D01*
X011443Y009973D01*
X011480Y009973D01*
X011407Y009937D02*
X011407Y009901D01*
X011335Y010046D02*
X011299Y010082D01*
X011299Y010154D01*
X011407Y010154D02*
X011407Y010118D01*
X011007Y009442D02*
X010863Y009442D01*
X010827Y009406D01*
X010827Y009334D01*
X010863Y009298D01*
X010899Y009298D01*
X010935Y009334D01*
X010935Y009442D01*
X011007Y009442D02*
X011043Y009406D01*
X011043Y009334D01*
X011007Y009298D01*
X011007Y009225D02*
X011043Y009189D01*
X011043Y009117D01*
X011007Y009081D01*
X011043Y009007D02*
X010971Y008935D01*
X010971Y008971D02*
X010971Y008863D01*
X011043Y008863D02*
X010827Y008863D01*
X010827Y008971D01*
X010863Y009007D01*
X010935Y009007D01*
X010971Y008971D01*
X010863Y009081D02*
X010827Y009117D01*
X010827Y009189D01*
X010863Y009225D01*
X010899Y009225D01*
X010935Y009189D01*
X010971Y009225D01*
X011007Y009225D01*
X010935Y009189D02*
X010935Y009153D01*
X010983Y008371D02*
X010947Y008335D01*
X010983Y008371D02*
X011055Y008371D01*
X011091Y008335D01*
X011091Y008299D01*
X010947Y008154D01*
X011091Y008154D01*
X010874Y008154D02*
X010729Y008154D01*
X010874Y008299D01*
X010874Y008335D01*
X010838Y008371D01*
X010766Y008371D01*
X010729Y008335D01*
X010656Y008335D02*
X010656Y008263D01*
X010620Y008227D01*
X010512Y008227D01*
X010584Y008227D02*
X010656Y008154D01*
X010512Y008154D02*
X010512Y008371D01*
X010620Y008371D01*
X010656Y008335D01*
X010523Y007702D02*
X010451Y007702D01*
X010415Y007666D01*
X010341Y007666D02*
X010341Y007521D01*
X010305Y007485D01*
X010233Y007485D01*
X010197Y007521D01*
X010197Y007666D01*
X010233Y007702D01*
X010305Y007702D01*
X010341Y007666D01*
X010269Y007557D02*
X010341Y007485D01*
X010415Y007485D02*
X010559Y007629D01*
X010559Y007666D01*
X010523Y007702D01*
X010559Y007485D02*
X010415Y007485D01*
X010523Y007387D02*
X010415Y007278D01*
X010559Y007278D01*
X010632Y007206D02*
X010668Y007170D01*
X010740Y007170D01*
X010776Y007206D01*
X010776Y007242D01*
X010740Y007278D01*
X010704Y007278D01*
X010740Y007278D02*
X010776Y007315D01*
X010776Y007351D01*
X010740Y007387D01*
X010668Y007387D01*
X010632Y007351D01*
X010523Y007387D02*
X010523Y007170D01*
X010341Y007206D02*
X010305Y007170D01*
X010233Y007170D01*
X010197Y007206D01*
X010197Y007351D01*
X010233Y007387D01*
X010305Y007387D01*
X010341Y007351D01*
X009795Y007111D02*
X009795Y006895D01*
X009831Y007003D02*
X009687Y007003D01*
X009795Y007111D01*
X009614Y007111D02*
X009470Y007111D01*
X009470Y007003D01*
X009542Y007039D01*
X009578Y007039D01*
X009614Y007003D01*
X009614Y006931D01*
X009578Y006895D01*
X009506Y006895D01*
X009470Y006931D01*
X009396Y006931D02*
X009360Y006895D01*
X009288Y006895D01*
X009252Y006931D01*
X009252Y007075D01*
X009288Y007111D01*
X009360Y007111D01*
X009396Y007075D01*
X009044Y007052D02*
X008900Y007052D01*
X009044Y007196D01*
X009044Y007232D01*
X009008Y007269D01*
X008936Y007269D01*
X008900Y007232D01*
X008827Y007160D02*
X008682Y007160D01*
X008790Y007269D01*
X008790Y007052D01*
X008609Y007088D02*
X008573Y007052D01*
X008501Y007052D01*
X008465Y007088D01*
X008465Y007232D01*
X008501Y007269D01*
X008573Y007269D01*
X008609Y007232D01*
X008641Y008548D02*
X008569Y008548D01*
X008533Y008584D01*
X008677Y008729D01*
X008677Y008584D01*
X008641Y008548D01*
X008533Y008584D02*
X008533Y008729D01*
X008569Y008765D01*
X008641Y008765D01*
X008677Y008729D01*
X008460Y008548D02*
X008315Y008548D01*
X008388Y008548D02*
X008388Y008765D01*
X008315Y008692D01*
X008242Y008729D02*
X008206Y008765D01*
X008134Y008765D01*
X008098Y008729D01*
X008098Y008584D01*
X008134Y008548D01*
X008206Y008548D01*
X008242Y008584D01*
X008025Y008548D02*
X007953Y008548D01*
X007989Y008548D02*
X007989Y008765D01*
X007953Y008765D02*
X008025Y008765D01*
X008697Y009473D02*
X008661Y009509D01*
X008661Y009582D01*
X008697Y009618D01*
X008661Y009691D02*
X008770Y009691D01*
X008734Y009763D01*
X008734Y009799D01*
X008770Y009835D01*
X008842Y009835D01*
X008878Y009799D01*
X008878Y009727D01*
X008842Y009691D01*
X008842Y009618D02*
X008878Y009582D01*
X008878Y009509D01*
X008842Y009473D01*
X008697Y009473D01*
X008661Y009691D02*
X008661Y009835D01*
X008697Y009908D02*
X008661Y009944D01*
X008661Y010017D01*
X008697Y010053D01*
X008734Y010053D01*
X008770Y010017D01*
X008806Y010053D01*
X008842Y010053D01*
X008878Y010017D01*
X008878Y009944D01*
X008842Y009908D01*
X008770Y009981D02*
X008770Y010017D01*
X009626Y009959D02*
X009734Y009959D01*
X009770Y009995D01*
X009770Y010067D01*
X009734Y010103D01*
X009626Y010103D01*
X009626Y009887D01*
X009698Y009959D02*
X009770Y009887D01*
X009844Y009887D02*
X009988Y009887D01*
X009916Y009887D02*
X009916Y010103D01*
X009844Y010031D01*
X010061Y010067D02*
X010097Y010103D01*
X010169Y010103D01*
X010205Y010067D01*
X010205Y010031D01*
X010061Y009887D01*
X010205Y009887D01*
X009865Y009442D02*
X009901Y009406D01*
X009901Y009334D01*
X009865Y009298D01*
X009721Y009442D01*
X009865Y009442D01*
X009865Y009298D02*
X009721Y009298D01*
X009685Y009334D01*
X009685Y009406D01*
X009721Y009442D01*
X009793Y009225D02*
X009793Y009081D01*
X009685Y009189D01*
X009901Y009189D01*
X009901Y009007D02*
X009829Y008935D01*
X009829Y008971D02*
X009829Y008863D01*
X009901Y008863D02*
X009685Y008863D01*
X009685Y008971D01*
X009721Y009007D01*
X009793Y009007D01*
X009829Y008971D01*
X011159Y007505D02*
X011159Y007288D01*
X011159Y007360D02*
X011267Y007360D01*
X011303Y007397D01*
X011303Y007469D01*
X011267Y007505D01*
X011159Y007505D01*
X011231Y007360D02*
X011303Y007288D01*
X011376Y007324D02*
X011412Y007288D01*
X011484Y007288D01*
X011520Y007324D01*
X011520Y007360D01*
X011484Y007397D01*
X011448Y007397D01*
X011484Y007397D02*
X011520Y007433D01*
X011520Y007469D01*
X011484Y007505D01*
X011412Y007505D01*
X011376Y007469D01*
X011594Y007397D02*
X011738Y007397D01*
X011702Y007505D02*
X011594Y007397D01*
X011702Y007505D02*
X011702Y007288D01*
X013465Y010241D02*
X013465Y010349D01*
X013501Y010385D01*
X013573Y010385D01*
X013609Y010349D01*
X013609Y010241D01*
X013681Y010241D02*
X013465Y010241D01*
X013609Y010313D02*
X013681Y010385D01*
X013573Y010459D02*
X013573Y010603D01*
X013501Y010676D02*
X013465Y010712D01*
X013465Y010784D01*
X013501Y010820D01*
X013537Y010820D01*
X013681Y010676D01*
X013681Y010820D01*
X013681Y010567D02*
X013465Y010567D01*
X013573Y010459D01*
X010653Y016107D02*
X010508Y016107D01*
X010472Y016143D01*
X010472Y016215D01*
X010508Y016252D01*
X010472Y016325D02*
X010472Y016469D01*
X010508Y016469D01*
X010653Y016325D01*
X010689Y016325D01*
X010653Y016252D02*
X010689Y016215D01*
X010689Y016143D01*
X010653Y016107D01*
X010374Y016143D02*
X010374Y016215D01*
X010338Y016252D01*
X010338Y016325D02*
X010374Y016325D01*
X010338Y016325D02*
X010194Y016469D01*
X010157Y016469D01*
X010157Y016325D01*
X010194Y016252D02*
X010157Y016215D01*
X010157Y016143D01*
X010194Y016107D01*
X010338Y016107D01*
X010374Y016143D01*
X010374Y016542D02*
X010230Y016687D01*
X010194Y016687D01*
X010157Y016650D01*
X010157Y016578D01*
X010194Y016542D01*
X010312Y016911D02*
X010456Y016911D01*
X010492Y016947D01*
X010492Y017020D01*
X010456Y017056D01*
X010456Y017129D02*
X010492Y017129D01*
X010456Y017129D02*
X010312Y017273D01*
X010276Y017273D01*
X010276Y017129D01*
X010312Y017056D02*
X010276Y017020D01*
X010276Y016947D01*
X010312Y016911D01*
X010374Y016687D02*
X010374Y016542D01*
X010472Y016578D02*
X010472Y016650D01*
X010508Y016687D01*
X010545Y016687D01*
X010581Y016650D01*
X010617Y016687D01*
X010653Y016687D01*
X010689Y016650D01*
X010689Y016578D01*
X010653Y016542D01*
X010581Y016614D02*
X010581Y016650D01*
X010508Y016542D02*
X010472Y016578D01*
X010456Y017346D02*
X010492Y017346D01*
X010456Y017346D02*
X010312Y017491D01*
X010276Y017491D01*
X010276Y017346D01*
X009599Y015891D02*
X009635Y015855D01*
X009635Y015818D01*
X009599Y015782D01*
X009526Y015782D01*
X009490Y015818D01*
X009490Y015855D01*
X009526Y015891D01*
X009599Y015891D01*
X009599Y015782D02*
X009635Y015746D01*
X009635Y015710D01*
X009599Y015674D01*
X009526Y015674D01*
X009490Y015710D01*
X009490Y015746D01*
X009526Y015782D01*
X009417Y015855D02*
X009273Y015710D01*
X009273Y015674D01*
X009200Y015710D02*
X009163Y015674D01*
X009091Y015674D01*
X009055Y015710D01*
X009055Y015855D01*
X009091Y015891D01*
X009163Y015891D01*
X009200Y015855D01*
X009273Y015891D02*
X009417Y015891D01*
X009417Y015855D01*
X008375Y015576D02*
X008303Y015540D01*
X008230Y015467D01*
X008339Y015467D01*
X008375Y015431D01*
X008375Y015395D01*
X008339Y015359D01*
X008267Y015359D01*
X008230Y015395D01*
X008230Y015467D01*
X008157Y015359D02*
X008013Y015359D01*
X008085Y015359D02*
X008085Y015576D01*
X008013Y015503D01*
X007940Y015540D02*
X007940Y015467D01*
X007904Y015431D01*
X007795Y015431D01*
X007795Y015359D02*
X007795Y015576D01*
X007904Y015576D01*
X007940Y015540D01*
X007868Y015431D02*
X007940Y015359D01*
X007551Y015871D02*
X007479Y015871D01*
X007443Y015907D01*
X007443Y015979D02*
X007515Y016015D01*
X007551Y016015D01*
X007587Y015979D01*
X007587Y015907D01*
X007551Y015871D01*
X007443Y015979D02*
X007443Y016087D01*
X007587Y016087D01*
X007370Y015871D02*
X007226Y015871D01*
X007298Y015871D02*
X007298Y016087D01*
X007226Y016015D01*
X007152Y015979D02*
X007116Y015943D01*
X007008Y015943D01*
X007008Y015871D02*
X007008Y016087D01*
X007116Y016087D01*
X007152Y016051D01*
X007152Y015979D01*
X007080Y015943D02*
X007152Y015871D01*
X006800Y015900D02*
X006692Y015900D01*
X006656Y015937D01*
X006656Y015973D01*
X006692Y016009D01*
X006764Y016009D01*
X006800Y015973D01*
X006800Y015828D01*
X006764Y015792D01*
X006692Y015792D01*
X006656Y015828D01*
X006582Y015792D02*
X006438Y015792D01*
X006510Y015792D02*
X006510Y016009D01*
X006438Y015937D01*
X006365Y015973D02*
X006365Y015900D01*
X006329Y015864D01*
X006221Y015864D01*
X006221Y015792D02*
X006221Y016009D01*
X006329Y016009D01*
X006365Y015973D01*
X006293Y015864D02*
X006365Y015792D01*
X005964Y016107D02*
X005748Y016107D01*
X005748Y016215D01*
X005784Y016252D01*
X005856Y016252D01*
X005892Y016215D01*
X005892Y016107D01*
X005892Y016179D02*
X005964Y016252D01*
X005964Y016325D02*
X005964Y016469D01*
X005964Y016397D02*
X005748Y016397D01*
X005820Y016325D01*
X005820Y016542D02*
X005784Y016542D01*
X005748Y016578D01*
X005748Y016650D01*
X005784Y016687D01*
X005820Y016687D01*
X005856Y016650D01*
X005856Y016578D01*
X005820Y016542D01*
X005856Y016578D02*
X005892Y016542D01*
X005928Y016542D01*
X005964Y016578D01*
X005964Y016650D01*
X005928Y016687D01*
X005892Y016687D01*
X005856Y016650D01*
X005540Y016685D02*
X005540Y016721D01*
X005504Y016757D01*
X005432Y016757D01*
X005396Y016721D01*
X005323Y016757D02*
X005178Y016757D01*
X005178Y016649D01*
X005250Y016685D01*
X005287Y016685D01*
X005323Y016649D01*
X005323Y016576D01*
X005287Y016540D01*
X005214Y016540D01*
X005178Y016576D01*
X005105Y016576D02*
X005069Y016540D01*
X004997Y016540D01*
X004961Y016576D01*
X004961Y016721D01*
X004997Y016757D01*
X005069Y016757D01*
X005105Y016721D01*
X005396Y016540D02*
X005540Y016685D01*
X005540Y016540D02*
X005396Y016540D01*
X004705Y016866D02*
X004705Y016938D01*
X004705Y016902D02*
X004488Y016902D01*
X004488Y016866D02*
X004488Y016938D01*
X004524Y017011D02*
X004669Y017011D01*
X004705Y017047D01*
X004705Y017119D01*
X004669Y017155D01*
X004669Y017228D02*
X004705Y017264D01*
X004705Y017337D01*
X004669Y017373D01*
X004632Y017373D01*
X004596Y017337D01*
X004596Y017300D01*
X004596Y017337D02*
X004560Y017373D01*
X004524Y017373D01*
X004488Y017337D01*
X004488Y017264D01*
X004524Y017228D01*
X004524Y017155D02*
X004488Y017119D01*
X004488Y017047D01*
X004524Y017011D01*
X004350Y016982D02*
X004350Y017126D01*
X004350Y017054D02*
X004134Y017054D01*
X004206Y016982D01*
X004170Y016908D02*
X004134Y016872D01*
X004134Y016800D01*
X004170Y016764D01*
X004314Y016764D01*
X004350Y016800D01*
X004350Y016872D01*
X004314Y016908D01*
X004350Y016691D02*
X004350Y016619D01*
X004350Y016655D02*
X004134Y016655D01*
X004134Y016619D02*
X004134Y016691D01*
X004044Y016754D02*
X004008Y016717D01*
X003936Y016717D01*
X003900Y016754D01*
X003827Y016717D02*
X003682Y016717D01*
X003754Y016717D02*
X003754Y016934D01*
X003682Y016862D01*
X003609Y016717D02*
X003465Y016717D01*
X003465Y016934D01*
X003287Y016885D02*
X003251Y016921D01*
X003287Y016885D02*
X003287Y016813D01*
X003251Y016777D01*
X003107Y016777D01*
X003071Y016813D01*
X003071Y016885D01*
X003107Y016921D01*
X003179Y016994D02*
X003179Y017138D01*
X003179Y017212D02*
X003179Y017320D01*
X003215Y017356D01*
X003251Y017356D01*
X003287Y017320D01*
X003287Y017248D01*
X003251Y017212D01*
X003179Y017212D01*
X003107Y017284D01*
X003071Y017356D01*
X003071Y017102D02*
X003179Y016994D01*
X003287Y017102D02*
X003071Y017102D01*
X003858Y017299D02*
X003858Y017371D01*
X003858Y017335D02*
X004075Y017335D01*
X004075Y017299D02*
X004075Y017371D01*
X004134Y017343D02*
X004170Y017271D01*
X004242Y017199D01*
X004242Y017307D01*
X004278Y017343D01*
X004314Y017343D01*
X004350Y017307D01*
X004350Y017235D01*
X004314Y017199D01*
X004242Y017199D01*
X004039Y017444D02*
X004075Y017480D01*
X004075Y017552D01*
X004039Y017588D01*
X004075Y017661D02*
X003930Y017806D01*
X003894Y017806D01*
X003858Y017770D01*
X003858Y017697D01*
X003894Y017661D01*
X003894Y017588D02*
X003858Y017552D01*
X003858Y017480D01*
X003894Y017444D01*
X004039Y017444D01*
X004075Y017661D02*
X004075Y017806D01*
X004008Y016934D02*
X003936Y016934D01*
X003900Y016898D01*
X003972Y016826D02*
X004008Y016826D01*
X004044Y016790D01*
X004044Y016754D01*
X004008Y016826D02*
X004044Y016862D01*
X004044Y016898D01*
X004008Y016934D01*
X005154Y018115D02*
X005226Y018115D01*
X005263Y018151D01*
X005336Y018115D02*
X005480Y018115D01*
X005408Y018115D02*
X005408Y018332D01*
X005336Y018259D01*
X005263Y018295D02*
X005226Y018332D01*
X005154Y018332D01*
X005118Y018295D01*
X005118Y018151D01*
X005154Y018115D01*
X005553Y018151D02*
X005589Y018115D01*
X005661Y018115D01*
X005698Y018151D01*
X005698Y018295D01*
X005661Y018332D01*
X005589Y018332D01*
X005553Y018295D01*
X005553Y018259D01*
X005589Y018223D01*
X005698Y018223D01*
X006142Y018706D02*
X006142Y018922D01*
X006142Y018706D02*
X006286Y018706D01*
X006359Y018706D02*
X006504Y018706D01*
X006577Y018706D02*
X006577Y018922D01*
X006685Y018922D01*
X006721Y018886D01*
X006721Y018742D01*
X006685Y018706D01*
X006577Y018706D01*
X006432Y018814D02*
X006359Y018814D01*
X006359Y018922D02*
X006359Y018706D01*
X006359Y018922D02*
X006504Y018922D01*
X006504Y019257D02*
X006359Y019257D01*
X006359Y019473D01*
X006504Y019473D01*
X006577Y019473D02*
X006577Y019257D01*
X006685Y019257D01*
X006721Y019293D01*
X006721Y019437D01*
X006685Y019473D01*
X006577Y019473D01*
X006432Y019365D02*
X006359Y019365D01*
X006286Y019257D02*
X006142Y019257D01*
X006142Y019473D01*
X005898Y019808D02*
X005934Y019844D01*
X005934Y019880D01*
X005898Y019916D01*
X005826Y019916D01*
X005790Y019952D01*
X005790Y019988D01*
X005826Y020024D01*
X005898Y020024D01*
X005934Y019988D01*
X005934Y019952D01*
X005898Y019916D01*
X005826Y019916D02*
X005790Y019880D01*
X005790Y019844D01*
X005826Y019808D01*
X005898Y019808D01*
X005716Y019808D02*
X005572Y019808D01*
X005644Y019808D02*
X005644Y020024D01*
X005572Y019952D01*
X005499Y019988D02*
X005463Y020024D01*
X005391Y020024D01*
X005355Y019988D01*
X005355Y019844D01*
X005391Y019808D01*
X005463Y019808D01*
X005499Y019844D01*
X005433Y020084D02*
X005433Y020300D01*
X005541Y020300D01*
X005578Y020264D01*
X005578Y020192D01*
X005541Y020156D01*
X005433Y020156D01*
X005505Y020156D02*
X005578Y020084D01*
X005651Y020120D02*
X005687Y020084D01*
X005759Y020084D01*
X005795Y020120D01*
X005795Y020192D01*
X005759Y020228D01*
X005723Y020228D01*
X005651Y020192D01*
X005651Y020300D01*
X005795Y020300D01*
X005759Y020359D02*
X005795Y020395D01*
X005795Y020431D01*
X005759Y020467D01*
X005651Y020467D01*
X005651Y020395D01*
X005687Y020359D01*
X005759Y020359D01*
X005651Y020467D02*
X005723Y020540D01*
X005795Y020576D01*
X005759Y020635D02*
X005759Y020851D01*
X005651Y020743D01*
X005795Y020743D01*
X005578Y020743D02*
X005578Y020815D01*
X005541Y020851D01*
X005433Y020851D01*
X005433Y020635D01*
X005433Y020576D02*
X005541Y020576D01*
X005578Y020540D01*
X005578Y020467D01*
X005541Y020431D01*
X005433Y020431D01*
X005433Y020359D02*
X005433Y020576D01*
X005433Y020707D02*
X005541Y020707D01*
X005578Y020743D01*
X005505Y020707D02*
X005578Y020635D01*
X005505Y020431D02*
X005578Y020359D01*
X005126Y020303D02*
X005126Y020267D01*
X005090Y020231D01*
X005018Y020231D01*
X004981Y020267D01*
X004981Y020303D01*
X005018Y020339D01*
X005090Y020339D01*
X005126Y020303D01*
X005090Y020231D02*
X005126Y020195D01*
X005126Y020159D01*
X005090Y020123D01*
X005018Y020123D01*
X004981Y020159D01*
X004981Y020195D01*
X005018Y020231D01*
X005023Y020376D02*
X004879Y020376D01*
X004843Y020412D01*
X004843Y020484D01*
X004879Y020520D01*
X004915Y020593D02*
X004843Y020666D01*
X005059Y020666D01*
X005059Y020738D02*
X005059Y020593D01*
X005023Y020520D02*
X005059Y020484D01*
X005059Y020412D01*
X005023Y020376D01*
X004764Y020339D02*
X004764Y020123D01*
X004908Y020123D01*
X004879Y020811D02*
X004843Y020847D01*
X004843Y020919D01*
X004879Y020955D01*
X004915Y020955D01*
X005059Y020811D01*
X005059Y020955D01*
X005394Y021183D02*
X005430Y021147D01*
X005574Y021147D01*
X005610Y021183D01*
X005610Y021255D01*
X005574Y021291D01*
X005610Y021364D02*
X005610Y021508D01*
X005610Y021436D02*
X005394Y021436D01*
X005466Y021364D01*
X005430Y021291D02*
X005394Y021255D01*
X005394Y021183D01*
X005709Y021183D02*
X005745Y021147D01*
X005889Y021147D01*
X005925Y021183D01*
X005925Y021255D01*
X005889Y021291D01*
X005925Y021364D02*
X005925Y021508D01*
X005925Y021436D02*
X005709Y021436D01*
X005781Y021364D01*
X005745Y021291D02*
X005709Y021255D01*
X005709Y021183D01*
X005745Y021582D02*
X005709Y021618D01*
X005709Y021690D01*
X005745Y021726D01*
X005781Y021726D01*
X005817Y021690D01*
X005853Y021726D01*
X005889Y021726D01*
X005925Y021690D01*
X005925Y021618D01*
X005889Y021582D01*
X005817Y021654D02*
X005817Y021690D01*
X005610Y021690D02*
X005394Y021690D01*
X005502Y021582D01*
X005502Y021726D01*
X004848Y021773D02*
X004812Y021737D01*
X004740Y021737D01*
X004704Y021773D01*
X004704Y021845D01*
X004812Y021845D01*
X004848Y021809D01*
X004848Y021773D01*
X004704Y021845D02*
X004776Y021918D01*
X004848Y021954D01*
X004631Y021737D02*
X004486Y021737D01*
X004559Y021737D02*
X004559Y021954D01*
X004486Y021881D01*
X004413Y021918D02*
X004377Y021954D01*
X004305Y021954D01*
X004269Y021918D01*
X004269Y021773D01*
X004305Y021737D01*
X004377Y021737D01*
X004413Y021773D01*
X004417Y021639D02*
X004417Y021603D01*
X004273Y021458D01*
X004273Y021422D01*
X004200Y021422D02*
X004055Y021422D01*
X004055Y021639D01*
X004055Y021284D02*
X004055Y021068D01*
X004200Y021068D01*
X004273Y021104D02*
X004309Y021068D01*
X004381Y021068D01*
X004417Y021104D01*
X004417Y021248D01*
X004381Y021284D01*
X004309Y021284D01*
X004273Y021248D01*
X004273Y021212D01*
X004309Y021176D01*
X004417Y021176D01*
X004417Y021639D02*
X004273Y021639D01*
X003602Y022210D02*
X003602Y022354D01*
X003602Y022427D02*
X003602Y022571D01*
X003602Y022499D02*
X003386Y022499D01*
X003458Y022427D01*
X003422Y022645D02*
X003386Y022681D01*
X003386Y022753D01*
X003422Y022789D01*
X003566Y022645D01*
X003602Y022681D01*
X003602Y022753D01*
X003566Y022789D01*
X003422Y022789D01*
X003422Y022645D02*
X003566Y022645D01*
X003602Y022210D02*
X003386Y022210D01*
X003133Y021705D02*
X003097Y021705D01*
X003061Y021669D01*
X003061Y021561D01*
X003133Y021561D01*
X003169Y021597D01*
X003169Y021669D01*
X003133Y021705D01*
X002989Y021633D02*
X003061Y021561D01*
X002989Y021633D02*
X002953Y021705D01*
X003169Y021488D02*
X003169Y021343D01*
X002953Y021343D01*
X002582Y022210D02*
X002618Y022246D01*
X002618Y022318D01*
X002582Y022354D01*
X002618Y022427D02*
X002618Y022571D01*
X002618Y022499D02*
X002402Y022499D01*
X002474Y022427D01*
X002438Y022354D02*
X002402Y022318D01*
X002402Y022246D01*
X002438Y022210D01*
X002582Y022210D01*
X002582Y022645D02*
X002618Y022645D01*
X002582Y022645D02*
X002438Y022789D01*
X002402Y022789D01*
X002402Y022645D01*
X001952Y021844D02*
X001988Y021808D01*
X001988Y021736D01*
X001952Y021700D01*
X001880Y021700D02*
X001844Y021772D01*
X001844Y021808D01*
X001880Y021844D01*
X001952Y021844D01*
X001880Y021700D02*
X001772Y021700D01*
X001772Y021844D01*
X001772Y021554D02*
X001988Y021554D01*
X001988Y021482D02*
X001988Y021627D01*
X001844Y021482D02*
X001772Y021554D01*
X001808Y021409D02*
X001772Y021373D01*
X001772Y021301D01*
X001808Y021265D01*
X001952Y021265D01*
X001988Y021301D01*
X001988Y021373D01*
X001952Y021409D01*
X001919Y020758D02*
X001919Y020614D01*
X001811Y020722D01*
X002027Y020722D01*
X002027Y020541D02*
X002027Y020397D01*
X001883Y020541D01*
X001847Y020541D01*
X001811Y020505D01*
X001811Y020433D01*
X001847Y020397D01*
X001847Y020323D02*
X001811Y020287D01*
X001811Y020215D01*
X001847Y020179D01*
X001991Y020179D01*
X002027Y020215D01*
X002027Y020287D01*
X001991Y020323D01*
X002025Y018332D02*
X001989Y018295D01*
X002025Y018332D02*
X002098Y018332D01*
X002134Y018295D01*
X002134Y018259D01*
X001989Y018115D01*
X002134Y018115D01*
X002098Y018056D02*
X002025Y018056D01*
X001989Y018020D01*
X001916Y018020D02*
X001880Y018056D01*
X001808Y018056D01*
X001772Y018020D01*
X001772Y017876D01*
X001808Y017840D01*
X001880Y017840D01*
X001916Y017876D01*
X001989Y017840D02*
X002134Y017984D01*
X002134Y018020D01*
X002098Y018056D01*
X002207Y018020D02*
X002207Y017876D01*
X002351Y018020D01*
X002351Y017876D01*
X002315Y017840D01*
X002243Y017840D01*
X002207Y017876D01*
X002134Y017840D02*
X001989Y017840D01*
X002025Y017780D02*
X001989Y017744D01*
X002025Y017780D02*
X002098Y017780D01*
X002134Y017744D01*
X002134Y017708D01*
X001989Y017564D01*
X002134Y017564D01*
X002207Y017564D02*
X002351Y017564D01*
X002279Y017564D02*
X002279Y017780D01*
X002207Y017708D01*
X002207Y018020D02*
X002243Y018056D01*
X002315Y018056D01*
X002351Y018020D01*
X002351Y018115D02*
X002207Y018115D01*
X002351Y018259D01*
X002351Y018295D01*
X002315Y018332D01*
X002243Y018332D01*
X002207Y018295D01*
X001916Y018295D02*
X001880Y018332D01*
X001808Y018332D01*
X001772Y018295D01*
X001772Y018151D01*
X001808Y018115D01*
X001880Y018115D01*
X001916Y018151D01*
X001880Y017780D02*
X001808Y017780D01*
X001772Y017744D01*
X001772Y017600D01*
X001808Y017564D01*
X001880Y017564D01*
X001916Y017600D01*
X001916Y017744D02*
X001880Y017780D01*
X002835Y015024D02*
X002943Y015024D01*
X002979Y014988D01*
X002979Y014916D01*
X002943Y014880D01*
X002835Y014880D01*
X002907Y014880D02*
X002979Y014808D01*
X003052Y014808D02*
X003197Y014952D01*
X003197Y014988D01*
X003161Y015024D01*
X003088Y015024D01*
X003052Y014988D01*
X003052Y014808D02*
X003197Y014808D01*
X003270Y014844D02*
X003414Y014988D01*
X003414Y014844D01*
X003378Y014808D01*
X003306Y014808D01*
X003270Y014844D01*
X003270Y014988D01*
X003306Y015024D01*
X003378Y015024D01*
X003414Y014988D01*
X003740Y015024D02*
X003740Y014808D01*
X003740Y014880D02*
X003849Y014880D01*
X003885Y014916D01*
X003885Y014988D01*
X003849Y015024D01*
X003740Y015024D01*
X003812Y014880D02*
X003885Y014808D01*
X003958Y014808D02*
X004102Y014952D01*
X004102Y014988D01*
X004066Y015024D01*
X003994Y015024D01*
X003958Y014988D01*
X003958Y014808D02*
X004102Y014808D01*
X004175Y014808D02*
X004320Y014808D01*
X004247Y014808D02*
X004247Y015024D01*
X004175Y014952D01*
X004288Y014735D02*
X004252Y014699D01*
X004252Y014627D01*
X004288Y014591D01*
X004324Y014591D01*
X004360Y014627D01*
X004360Y014735D01*
X004432Y014735D02*
X004288Y014735D01*
X004432Y014735D02*
X004468Y014699D01*
X004468Y014627D01*
X004432Y014591D01*
X004432Y014517D02*
X004468Y014481D01*
X004468Y014409D01*
X004432Y014373D01*
X004288Y014373D01*
X004252Y014409D01*
X004252Y014481D01*
X004288Y014517D01*
X004252Y014300D02*
X004252Y014228D01*
X004252Y014264D02*
X004468Y014264D01*
X004468Y014228D02*
X004468Y014300D01*
X004100Y012820D02*
X003956Y012820D01*
X003847Y012820D02*
X003738Y012712D01*
X003883Y012712D01*
X003956Y012639D02*
X003956Y012603D01*
X003956Y012639D02*
X004100Y012784D01*
X004100Y012820D01*
X004209Y012631D02*
X004173Y012595D01*
X004173Y012523D01*
X004209Y012487D01*
X004245Y012487D01*
X004281Y012523D01*
X004281Y012631D01*
X004209Y012631D02*
X004354Y012631D01*
X004390Y012595D01*
X004390Y012523D01*
X004354Y012487D01*
X004281Y012414D02*
X004281Y012270D01*
X004173Y012378D01*
X004390Y012378D01*
X004354Y012196D02*
X004390Y012160D01*
X004390Y012088D01*
X004354Y012052D01*
X004209Y012052D01*
X004173Y012088D01*
X004173Y012160D01*
X004209Y012196D01*
X003996Y011968D02*
X003996Y011824D01*
X003996Y011896D02*
X003780Y011896D01*
X003852Y011824D01*
X003816Y011751D02*
X003780Y011715D01*
X003780Y011643D01*
X003816Y011607D01*
X003960Y011607D01*
X003996Y011643D01*
X003996Y011715D01*
X003960Y011751D01*
X003996Y011534D02*
X003996Y011462D01*
X003996Y011498D02*
X003780Y011498D01*
X003780Y011462D02*
X003780Y011534D01*
X003510Y011537D02*
X003510Y011609D01*
X003474Y011645D01*
X003437Y011645D01*
X003365Y011609D01*
X003365Y011717D01*
X003510Y011717D01*
X003417Y011777D02*
X003417Y011993D01*
X003309Y011885D01*
X003453Y011885D01*
X003417Y012052D02*
X003345Y012052D01*
X003309Y012088D01*
X003236Y012052D02*
X003092Y012052D01*
X003164Y012052D02*
X003164Y012269D01*
X003092Y012196D01*
X003018Y012160D02*
X002982Y012124D01*
X002874Y012124D01*
X002874Y012052D02*
X002874Y012269D01*
X002982Y012269D01*
X003018Y012232D01*
X003018Y012160D01*
X002946Y012124D02*
X003018Y012052D01*
X002982Y011993D02*
X003018Y011957D01*
X003018Y011885D01*
X002982Y011849D01*
X002874Y011849D01*
X002946Y011849D02*
X003018Y011777D01*
X003039Y011717D02*
X002966Y011717D01*
X002930Y011681D01*
X002930Y011537D01*
X002966Y011501D01*
X003039Y011501D01*
X003075Y011537D01*
X003148Y011609D02*
X003292Y011609D01*
X003365Y011537D02*
X003401Y011501D01*
X003474Y011501D01*
X003510Y011537D01*
X003256Y011501D02*
X003256Y011717D01*
X003148Y011609D01*
X003075Y011681D02*
X003039Y011717D01*
X003092Y011777D02*
X003236Y011777D01*
X003164Y011777D02*
X003164Y011993D01*
X003092Y011921D01*
X002982Y011993D02*
X002874Y011993D01*
X002874Y011777D01*
X003309Y012232D02*
X003345Y012269D01*
X003417Y012269D01*
X003453Y012232D01*
X003453Y012196D01*
X003417Y012160D01*
X003453Y012124D01*
X003453Y012088D01*
X003417Y012052D01*
X003417Y012160D02*
X003381Y012160D01*
X003315Y012603D02*
X003315Y012639D01*
X003460Y012784D01*
X003460Y012820D01*
X003315Y012820D01*
X003242Y012784D02*
X003206Y012820D01*
X003134Y012820D01*
X003098Y012784D01*
X003098Y012639D01*
X003134Y012603D01*
X003206Y012603D01*
X003242Y012639D01*
X003025Y012603D02*
X002953Y012603D01*
X002989Y012603D02*
X002989Y012820D01*
X002953Y012820D02*
X003025Y012820D01*
X003521Y012784D02*
X003521Y012639D01*
X003557Y012603D01*
X003629Y012603D01*
X003665Y012639D01*
X003665Y012784D02*
X003629Y012820D01*
X003557Y012820D01*
X003521Y012784D01*
X003847Y012820D02*
X003847Y012603D01*
X004170Y011743D02*
X004134Y011707D01*
X004134Y011634D01*
X004170Y011598D01*
X004170Y011525D02*
X004242Y011525D01*
X004278Y011489D01*
X004278Y011381D01*
X004278Y011453D02*
X004350Y011525D01*
X004350Y011598D02*
X004206Y011743D01*
X004170Y011743D01*
X004350Y011743D02*
X004350Y011598D01*
X004170Y011525D02*
X004134Y011489D01*
X004134Y011381D01*
X004350Y011381D01*
X004723Y010891D02*
X004831Y010891D01*
X004867Y010855D01*
X004867Y010782D01*
X004831Y010746D01*
X004723Y010746D01*
X004795Y010746D02*
X004867Y010674D01*
X004940Y010710D02*
X004976Y010674D01*
X005048Y010674D01*
X005084Y010710D01*
X005084Y010746D01*
X005048Y010782D01*
X005012Y010782D01*
X005048Y010782D02*
X005084Y010818D01*
X005084Y010855D01*
X005048Y010891D01*
X004976Y010891D01*
X004940Y010855D01*
X004723Y010891D02*
X004723Y010674D01*
X005197Y010303D02*
X005197Y010159D01*
X005233Y010123D01*
X005305Y010123D01*
X005341Y010159D01*
X005415Y010123D02*
X005559Y010123D01*
X005487Y010123D02*
X005487Y010339D01*
X005415Y010267D01*
X005341Y010303D02*
X005305Y010339D01*
X005233Y010339D01*
X005197Y010303D01*
X005355Y010474D02*
X005391Y010438D01*
X005463Y010438D01*
X005499Y010474D01*
X005572Y010474D02*
X005608Y010438D01*
X005680Y010438D01*
X005716Y010474D01*
X005716Y010618D01*
X005680Y010654D01*
X005608Y010654D01*
X005572Y010618D01*
X005572Y010582D01*
X005608Y010546D01*
X005716Y010546D01*
X005740Y010339D02*
X005776Y010303D01*
X005632Y010159D01*
X005668Y010123D01*
X005740Y010123D01*
X005776Y010159D01*
X005776Y010303D01*
X005740Y010339D02*
X005668Y010339D01*
X005632Y010303D01*
X005632Y010159D01*
X005355Y010474D02*
X005355Y010618D01*
X005391Y010654D01*
X005463Y010654D01*
X005499Y010618D01*
X005502Y009867D02*
X005430Y009867D01*
X005394Y009831D01*
X005394Y009687D01*
X005430Y009651D01*
X005502Y009651D01*
X005538Y009687D01*
X005611Y009651D02*
X005756Y009651D01*
X005684Y009651D02*
X005684Y009867D01*
X005611Y009795D01*
X005538Y009831D02*
X005502Y009867D01*
X005529Y009552D02*
X005601Y009552D01*
X005638Y009516D01*
X005638Y009480D01*
X005601Y009444D01*
X005638Y009408D01*
X005638Y009372D01*
X005601Y009336D01*
X005529Y009336D01*
X005493Y009372D01*
X005420Y009336D02*
X005276Y009336D01*
X005276Y009552D01*
X005493Y009516D02*
X005529Y009552D01*
X005565Y009444D02*
X005601Y009444D01*
X005788Y009516D02*
X005788Y009372D01*
X005824Y009336D01*
X005896Y009336D01*
X005932Y009372D01*
X006005Y009444D02*
X006149Y009444D01*
X006113Y009552D02*
X006005Y009444D01*
X005932Y009516D02*
X005896Y009552D01*
X005824Y009552D01*
X005788Y009516D01*
X005829Y009651D02*
X005973Y009651D01*
X005901Y009651D02*
X005901Y009867D01*
X005829Y009795D01*
X006113Y009552D02*
X006113Y009336D01*
X006339Y009329D02*
X006447Y009329D01*
X006483Y009365D01*
X006483Y009437D01*
X006447Y009473D01*
X006339Y009473D01*
X006339Y009257D01*
X006375Y009198D02*
X006339Y009162D01*
X006339Y009017D01*
X006375Y008981D01*
X006447Y008981D01*
X006483Y009017D01*
X006556Y009017D02*
X006592Y008981D01*
X006664Y008981D01*
X006701Y009017D01*
X006701Y009053D01*
X006664Y009089D01*
X006556Y009089D01*
X006556Y009017D01*
X006556Y009089D02*
X006628Y009162D01*
X006701Y009198D01*
X006701Y009257D02*
X006556Y009257D01*
X006701Y009401D01*
X006701Y009437D01*
X006664Y009473D01*
X006592Y009473D01*
X006556Y009437D01*
X006411Y009329D02*
X006483Y009257D01*
X006447Y009198D02*
X006375Y009198D01*
X006447Y009198D02*
X006483Y009162D01*
X006774Y009126D02*
X006846Y009198D01*
X006846Y008981D01*
X006774Y008981D02*
X006918Y008981D01*
X006882Y009257D02*
X006810Y009257D01*
X006774Y009293D01*
X006810Y009365D02*
X006918Y009365D01*
X006918Y009293D02*
X006918Y009437D01*
X006882Y009473D01*
X006810Y009473D01*
X006774Y009437D01*
X006774Y009401D01*
X006810Y009365D01*
X006882Y009257D02*
X006918Y009293D01*
X006882Y009651D02*
X006882Y009867D01*
X006774Y009759D01*
X006918Y009759D01*
X006743Y009926D02*
X006671Y009926D01*
X006635Y009962D01*
X006635Y010034D02*
X006707Y010070D01*
X006743Y010070D01*
X006779Y010034D01*
X006779Y009962D01*
X006743Y009926D01*
X006664Y009867D02*
X006592Y009867D01*
X006556Y009831D01*
X006483Y009831D02*
X006483Y009759D01*
X006447Y009723D01*
X006339Y009723D01*
X006411Y009723D02*
X006483Y009651D01*
X006556Y009651D02*
X006701Y009795D01*
X006701Y009831D01*
X006664Y009867D01*
X006562Y009962D02*
X006526Y009926D01*
X006454Y009926D01*
X006417Y009962D01*
X006417Y010106D01*
X006454Y010143D01*
X006526Y010143D01*
X006562Y010106D01*
X006635Y010143D02*
X006635Y010034D01*
X006635Y010143D02*
X006779Y010143D01*
X006437Y010357D02*
X006220Y010357D01*
X006220Y010465D01*
X006257Y010502D01*
X006329Y010502D01*
X006365Y010465D01*
X006365Y010357D01*
X006365Y010429D02*
X006437Y010502D01*
X006437Y010575D02*
X006437Y010719D01*
X006437Y010647D02*
X006220Y010647D01*
X006293Y010575D01*
X006339Y011107D02*
X006483Y011107D01*
X006556Y011107D02*
X006701Y011107D01*
X006774Y011107D02*
X006774Y011324D01*
X006882Y011324D01*
X006918Y011288D01*
X006918Y011143D01*
X006882Y011107D01*
X006774Y011107D01*
X006628Y011215D02*
X006556Y011215D01*
X006556Y011107D02*
X006556Y011324D01*
X006701Y011324D01*
X006701Y011540D02*
X006556Y011540D01*
X006556Y011757D01*
X006701Y011757D01*
X006774Y011757D02*
X006774Y011540D01*
X006882Y011540D01*
X006918Y011576D01*
X006918Y011721D01*
X006882Y011757D01*
X006774Y011757D01*
X006628Y011649D02*
X006556Y011649D01*
X006483Y011540D02*
X006339Y011540D01*
X006339Y011757D01*
X006339Y011324D02*
X006339Y011107D01*
X006991Y011107D02*
X007136Y011252D01*
X007136Y011288D01*
X007099Y011324D01*
X007027Y011324D01*
X006991Y011288D01*
X006991Y011107D02*
X007136Y011107D01*
X007136Y011540D02*
X006991Y011540D01*
X007063Y011540D02*
X007063Y011757D01*
X006991Y011685D01*
X006693Y012363D02*
X006693Y012507D01*
X006693Y012435D02*
X006909Y012435D01*
X006873Y012581D02*
X006729Y012581D01*
X006693Y012617D01*
X006693Y012689D01*
X006729Y012725D01*
X006693Y012798D02*
X006909Y012942D01*
X006873Y013016D02*
X006909Y013052D01*
X006909Y013124D01*
X006873Y013160D01*
X006729Y013160D01*
X006693Y013124D01*
X006693Y013052D01*
X006729Y013016D01*
X006873Y013016D01*
X006693Y012942D02*
X006909Y012798D01*
X006873Y012725D02*
X006909Y012689D01*
X006909Y012617D01*
X006873Y012581D01*
X006437Y012575D02*
X006437Y012503D01*
X006401Y012466D01*
X006329Y012466D02*
X006293Y012539D01*
X006293Y012575D01*
X006329Y012611D01*
X006401Y012611D01*
X006437Y012575D01*
X006401Y012684D02*
X006257Y012828D01*
X006401Y012828D01*
X006437Y012792D01*
X006437Y012720D01*
X006401Y012684D01*
X006257Y012684D01*
X006220Y012720D01*
X006220Y012792D01*
X006257Y012828D01*
X006331Y012977D02*
X006331Y013194D01*
X006223Y013086D01*
X006367Y013086D01*
X006149Y012977D02*
X006005Y012977D01*
X006077Y012977D02*
X006077Y013194D01*
X006005Y013122D01*
X005932Y012977D02*
X005788Y012977D01*
X005788Y013194D01*
X006220Y012611D02*
X006220Y012466D01*
X006329Y012466D01*
X006401Y012393D02*
X006437Y012357D01*
X006437Y012285D01*
X006401Y012249D01*
X006257Y012249D01*
X006220Y012285D01*
X006220Y012357D01*
X006257Y012393D01*
X006532Y014217D02*
X006604Y014217D01*
X006641Y014254D01*
X006714Y014326D02*
X006858Y014326D01*
X006931Y014362D02*
X006931Y014398D01*
X006967Y014434D01*
X007039Y014434D01*
X007076Y014398D01*
X007076Y014362D01*
X007039Y014326D01*
X006967Y014326D01*
X006931Y014362D01*
X006967Y014326D02*
X006931Y014290D01*
X006931Y014254D01*
X006967Y014217D01*
X007039Y014217D01*
X007076Y014254D01*
X007076Y014290D01*
X007039Y014326D01*
X006869Y014651D02*
X006869Y014687D01*
X007014Y014831D01*
X007014Y014867D01*
X006869Y014867D01*
X006724Y014867D02*
X006724Y014651D01*
X006652Y014651D02*
X006796Y014651D01*
X006652Y014795D02*
X006724Y014867D01*
X006579Y014831D02*
X006579Y014759D01*
X006542Y014723D01*
X006434Y014723D01*
X006506Y014723D02*
X006579Y014651D01*
X006434Y014651D02*
X006434Y014867D01*
X006542Y014867D01*
X006579Y014831D01*
X006604Y014434D02*
X006532Y014434D01*
X006496Y014398D01*
X006496Y014254D01*
X006532Y014217D01*
X006641Y014398D02*
X006604Y014434D01*
X006714Y014326D02*
X006822Y014434D01*
X006822Y014217D01*
X007520Y016422D02*
X007520Y016494D01*
X007520Y016458D02*
X007736Y016458D01*
X007736Y016422D02*
X007736Y016494D01*
X007700Y016567D02*
X007736Y016603D01*
X007736Y016675D01*
X007700Y016711D01*
X007736Y016785D02*
X007736Y016929D01*
X007736Y016857D02*
X007520Y016857D01*
X007592Y016785D01*
X007556Y016711D02*
X007520Y016675D01*
X007520Y016603D01*
X007556Y016567D01*
X007700Y016567D01*
X007700Y017002D02*
X007736Y017038D01*
X007736Y017110D01*
X007700Y017146D01*
X007628Y017146D01*
X007592Y017110D01*
X007592Y017074D01*
X007628Y017002D01*
X007520Y017002D01*
X007520Y017146D01*
X007546Y018076D02*
X007546Y018184D01*
X007510Y018220D01*
X007438Y018220D01*
X007402Y018184D01*
X007402Y018076D01*
X007618Y018076D01*
X007546Y018148D02*
X007618Y018220D01*
X007618Y018293D02*
X007582Y018293D01*
X007438Y018438D01*
X007402Y018438D01*
X007402Y018293D01*
X007835Y018506D02*
X007871Y018469D01*
X007943Y018469D01*
X007979Y018506D01*
X008052Y018506D02*
X008052Y018469D01*
X008052Y018506D02*
X008197Y018650D01*
X008197Y018686D01*
X008052Y018686D01*
X007979Y018650D02*
X007943Y018686D01*
X007871Y018686D01*
X007835Y018650D01*
X007835Y018506D01*
X008270Y018506D02*
X008306Y018469D01*
X008378Y018469D01*
X008414Y018506D01*
X008414Y018542D01*
X008378Y018578D01*
X008270Y018578D01*
X008270Y018506D01*
X008270Y018578D02*
X008342Y018650D01*
X008414Y018686D01*
X008819Y019217D02*
X008819Y019434D01*
X008927Y019434D01*
X008963Y019398D01*
X008963Y019326D01*
X008927Y019290D01*
X008819Y019290D01*
X008891Y019290D02*
X008963Y019217D01*
X009037Y019254D02*
X009073Y019217D01*
X009145Y019217D01*
X009181Y019254D01*
X009181Y019290D01*
X009145Y019326D01*
X009109Y019326D01*
X009145Y019326D02*
X009181Y019362D01*
X009181Y019398D01*
X009145Y019434D01*
X009073Y019434D01*
X009037Y019398D01*
X009254Y019434D02*
X009254Y019326D01*
X009326Y019362D01*
X009362Y019362D01*
X009398Y019326D01*
X009398Y019254D01*
X009362Y019217D01*
X009290Y019217D01*
X009254Y019254D01*
X009254Y019434D02*
X009398Y019434D01*
X008234Y021107D02*
X008090Y021107D01*
X008234Y021252D01*
X008234Y021288D01*
X008198Y021324D01*
X008126Y021324D01*
X008090Y021288D01*
X008017Y021107D02*
X007872Y021107D01*
X007872Y021324D01*
X007850Y021698D02*
X007814Y021734D01*
X007850Y021698D02*
X007922Y021698D01*
X007958Y021734D01*
X007958Y021806D01*
X007922Y021842D01*
X007886Y021842D01*
X007814Y021806D01*
X007814Y021914D01*
X007958Y021914D01*
X007922Y022091D02*
X007922Y022308D01*
X007814Y022200D01*
X007958Y022200D01*
X007741Y022272D02*
X007597Y022128D01*
X007597Y022091D01*
X007523Y022128D02*
X007487Y022091D01*
X007415Y022091D01*
X007379Y022128D01*
X007379Y022272D01*
X007415Y022308D01*
X007487Y022308D01*
X007523Y022272D01*
X007597Y022308D02*
X007741Y022308D01*
X007741Y022272D01*
X007741Y021914D02*
X007597Y021914D01*
X007523Y021878D02*
X007487Y021914D01*
X007415Y021914D01*
X007379Y021878D01*
X007379Y021734D01*
X007415Y021698D01*
X007487Y021698D01*
X007523Y021734D01*
X007597Y021734D02*
X007597Y021698D01*
X007597Y021734D02*
X007741Y021878D01*
X007741Y021914D01*
X007616Y020969D02*
X007543Y020969D01*
X007507Y020933D01*
X007507Y020789D01*
X007543Y020753D01*
X007616Y020753D01*
X007652Y020789D01*
X007725Y020789D02*
X007761Y020753D01*
X007833Y020753D01*
X007869Y020789D01*
X007869Y020825D01*
X007833Y020861D01*
X007725Y020861D01*
X007725Y020789D01*
X007725Y020861D02*
X007797Y020933D01*
X007869Y020969D01*
X007652Y020933D02*
X007616Y020969D01*
X007435Y020969D02*
X007362Y020969D01*
X007398Y020969D02*
X007398Y020753D01*
X007362Y020753D02*
X007435Y020753D01*
X006903Y019473D02*
X006794Y019365D01*
X006939Y019365D01*
X006903Y019257D02*
X006903Y019473D01*
X006903Y018922D02*
X006830Y018922D01*
X006794Y018886D01*
X006867Y018814D02*
X006903Y018814D01*
X006939Y018778D01*
X006939Y018742D01*
X006903Y018706D01*
X006830Y018706D01*
X006794Y018742D01*
X006903Y018814D02*
X006939Y018850D01*
X006939Y018886D01*
X006903Y018922D01*
X006480Y018438D02*
X006516Y018401D01*
X006516Y018329D01*
X006480Y018293D01*
X006443Y018293D01*
X006407Y018329D01*
X006407Y018401D01*
X006443Y018438D01*
X006480Y018438D01*
X006407Y018401D02*
X006371Y018438D01*
X006335Y018438D01*
X006299Y018401D01*
X006299Y018329D01*
X006335Y018293D01*
X006371Y018293D01*
X006407Y018329D01*
X006407Y018220D02*
X006443Y018184D01*
X006443Y018076D01*
X006443Y018148D02*
X006516Y018220D01*
X006407Y018220D02*
X006335Y018220D01*
X006299Y018184D01*
X006299Y018076D01*
X006516Y018076D01*
X006575Y017631D02*
X006575Y017487D01*
X006683Y017487D01*
X006647Y017559D01*
X006647Y017595D01*
X006683Y017631D01*
X006755Y017631D01*
X006791Y017595D01*
X006791Y017523D01*
X006755Y017487D01*
X006791Y017414D02*
X006791Y017270D01*
X006647Y017414D01*
X006611Y017414D01*
X006575Y017378D01*
X006575Y017306D01*
X006611Y017270D01*
X006611Y017196D02*
X006575Y017160D01*
X006575Y017088D01*
X006611Y017052D01*
X006755Y017052D01*
X006791Y017088D01*
X006791Y017160D01*
X006755Y017196D01*
X008110Y023076D02*
X008110Y023292D01*
X008219Y023292D01*
X008255Y023256D01*
X008255Y023184D01*
X008219Y023148D01*
X008110Y023148D01*
X008183Y023148D02*
X008255Y023076D01*
X008328Y023112D02*
X008364Y023076D01*
X008436Y023076D01*
X008472Y023112D01*
X008472Y023148D01*
X008436Y023184D01*
X008400Y023184D01*
X008436Y023184D02*
X008472Y023220D01*
X008472Y023256D01*
X008436Y023292D01*
X008364Y023292D01*
X008328Y023256D01*
X008545Y023184D02*
X008654Y023184D01*
X008690Y023148D01*
X008690Y023112D01*
X008654Y023076D01*
X008581Y023076D01*
X008545Y023112D01*
X008545Y023184D01*
X008618Y023256D01*
X008690Y023292D01*
X008858Y023292D02*
X008858Y023076D01*
X009003Y023076D01*
X009076Y023076D02*
X009220Y023076D01*
X009148Y023076D02*
X009148Y023292D01*
X009076Y023220D01*
X009293Y023184D02*
X009366Y023220D01*
X009402Y023220D01*
X009438Y023184D01*
X009438Y023112D01*
X009402Y023076D01*
X009330Y023076D01*
X009293Y023112D01*
X009293Y023184D02*
X009293Y023292D01*
X009438Y023292D01*
X002835Y015024D02*
X002835Y014808D01*
X002094Y010182D02*
X001950Y010182D01*
X001877Y010146D02*
X001841Y010182D01*
X001769Y010182D01*
X001732Y010146D01*
X001732Y010002D01*
X001769Y009966D01*
X001841Y009966D01*
X001877Y010002D01*
X001950Y010002D02*
X001950Y009966D01*
X001950Y010002D02*
X002094Y010146D01*
X002094Y010182D01*
X002114Y009906D02*
X002042Y009906D01*
X002006Y009870D01*
X002006Y009726D01*
X002042Y009690D01*
X002114Y009690D01*
X002150Y009726D01*
X002224Y009726D02*
X002224Y009762D01*
X002260Y009798D01*
X002332Y009798D01*
X002368Y009762D01*
X002368Y009726D01*
X002332Y009690D01*
X002260Y009690D01*
X002224Y009726D01*
X002260Y009798D02*
X002224Y009834D01*
X002224Y009870D01*
X002260Y009906D01*
X002332Y009906D01*
X002368Y009870D01*
X002368Y009834D01*
X002332Y009798D01*
X002150Y009870D02*
X002114Y009906D01*
X001949Y009800D02*
X001949Y009728D01*
X001913Y009692D01*
X001877Y009692D01*
X001840Y009728D01*
X001840Y009800D01*
X001877Y009836D01*
X001913Y009836D01*
X001949Y009800D01*
X001840Y009800D02*
X001804Y009836D01*
X001768Y009836D01*
X001732Y009800D01*
X001732Y009728D01*
X001768Y009692D01*
X001804Y009692D01*
X001840Y009728D01*
X001877Y009619D02*
X001840Y009583D01*
X001840Y009474D01*
X001913Y009474D01*
X001949Y009510D01*
X001949Y009583D01*
X001913Y009619D01*
X001877Y009619D01*
X001768Y009546D02*
X001840Y009474D01*
X001768Y009546D02*
X001732Y009619D01*
X001768Y009401D02*
X001732Y009365D01*
X001732Y009293D01*
X001768Y009257D01*
X001913Y009257D01*
X001949Y009293D01*
X001949Y009365D01*
X001913Y009401D01*
X001913Y009088D02*
X001768Y009088D01*
X001732Y009052D01*
X001732Y008980D01*
X001768Y008944D01*
X001804Y008944D01*
X001840Y008980D01*
X001840Y009088D01*
X001913Y009088D02*
X001949Y009052D01*
X001949Y008980D01*
X001913Y008944D01*
X001913Y008871D02*
X001877Y008871D01*
X001840Y008835D01*
X001840Y008726D01*
X001913Y008726D01*
X001949Y008762D01*
X001949Y008835D01*
X001913Y008871D01*
X001768Y008798D02*
X001840Y008726D01*
X001768Y008798D02*
X001732Y008871D01*
X001768Y008653D02*
X001732Y008617D01*
X001732Y008545D01*
X001768Y008509D01*
X001913Y008509D01*
X001949Y008545D01*
X001949Y008617D01*
X001913Y008653D01*
X001988Y008239D02*
X001988Y008094D01*
X001988Y008167D02*
X001772Y008167D01*
X001844Y008094D01*
X001988Y008021D02*
X001988Y007877D01*
X001988Y007949D02*
X001772Y007949D01*
X001844Y007877D01*
X001988Y007804D02*
X001988Y007659D01*
X001772Y007659D01*
X002008Y007761D02*
X002152Y007761D01*
X002226Y007761D02*
X002370Y007761D01*
X002298Y007761D02*
X002298Y007977D01*
X002226Y007905D01*
X002008Y007977D02*
X002008Y007761D01*
X002083Y007229D02*
X002047Y007193D01*
X002047Y007049D01*
X002083Y007013D01*
X002156Y007013D01*
X002192Y007049D01*
X002265Y007049D02*
X002301Y007013D01*
X002373Y007013D01*
X002409Y007049D01*
X002409Y007121D01*
X002373Y007157D01*
X002337Y007157D01*
X002265Y007121D01*
X002265Y007229D01*
X002409Y007229D01*
X002482Y007193D02*
X002482Y007157D01*
X002518Y007121D01*
X002627Y007121D01*
X002627Y007193D02*
X002591Y007229D01*
X002518Y007229D01*
X002482Y007193D01*
X002482Y007049D02*
X002518Y007013D01*
X002591Y007013D01*
X002627Y007049D01*
X002627Y007193D01*
X002192Y007193D02*
X002156Y007229D01*
X002083Y007229D01*
X002162Y006442D02*
X002126Y006406D01*
X002126Y006261D01*
X002162Y006225D01*
X002234Y006225D01*
X002270Y006261D01*
X002344Y006261D02*
X002344Y006334D01*
X002452Y006334D01*
X002488Y006297D01*
X002488Y006261D01*
X002452Y006225D01*
X002380Y006225D01*
X002344Y006261D01*
X002344Y006334D02*
X002416Y006406D01*
X002488Y006442D01*
X002270Y006406D02*
X002234Y006442D01*
X002162Y006442D01*
X002398Y005680D02*
X002543Y005535D01*
X002579Y005571D01*
X002579Y005644D01*
X002543Y005680D01*
X002398Y005680D01*
X002362Y005644D01*
X002362Y005571D01*
X002398Y005535D01*
X002543Y005535D01*
X002543Y005462D02*
X002506Y005462D01*
X002470Y005426D01*
X002470Y005318D01*
X002543Y005318D01*
X002579Y005354D01*
X002579Y005426D01*
X002543Y005462D01*
X002398Y005390D02*
X002470Y005318D01*
X002398Y005390D02*
X002362Y005462D01*
X002398Y005245D02*
X002362Y005209D01*
X002362Y005136D01*
X002398Y005100D01*
X002543Y005100D01*
X002579Y005136D01*
X002579Y005209D01*
X002543Y005245D01*
X003386Y005200D02*
X003602Y005200D01*
X003602Y005344D01*
X003494Y005417D02*
X003494Y005562D01*
X003386Y005525D02*
X003494Y005417D01*
X003602Y005525D02*
X003386Y005525D01*
X003465Y005792D02*
X003465Y005900D01*
X003501Y005937D01*
X003573Y005937D01*
X003609Y005900D01*
X003609Y005792D01*
X003681Y005792D02*
X003465Y005792D01*
X003609Y005864D02*
X003681Y005937D01*
X003681Y006010D02*
X003537Y006154D01*
X003501Y006154D01*
X003465Y006118D01*
X003465Y006046D01*
X003501Y006010D01*
X003501Y006227D02*
X003537Y006227D01*
X003573Y006263D01*
X003573Y006336D01*
X003609Y006372D01*
X003645Y006372D01*
X003681Y006336D01*
X003681Y006263D01*
X003645Y006227D01*
X003609Y006227D01*
X003573Y006263D01*
X003573Y006336D02*
X003537Y006372D01*
X003501Y006372D01*
X003465Y006336D01*
X003465Y006263D01*
X003501Y006227D01*
X003501Y006462D02*
X003645Y006462D01*
X003681Y006498D01*
X003681Y006570D01*
X003645Y006606D01*
X003645Y006679D02*
X003681Y006715D01*
X003681Y006787D01*
X003645Y006823D01*
X003609Y006823D01*
X003573Y006787D01*
X003573Y006679D01*
X003645Y006679D01*
X003573Y006679D02*
X003501Y006751D01*
X003465Y006823D01*
X003573Y006897D02*
X003501Y006969D01*
X003465Y007041D01*
X003573Y007005D02*
X003573Y006897D01*
X003645Y006897D01*
X003681Y006933D01*
X003681Y007005D01*
X003645Y007041D01*
X003609Y007041D01*
X003573Y007005D01*
X003409Y007210D02*
X003445Y007246D01*
X003445Y007318D01*
X003409Y007354D01*
X003445Y007427D02*
X003300Y007571D01*
X003264Y007571D01*
X003228Y007535D01*
X003228Y007463D01*
X003264Y007427D01*
X003264Y007354D02*
X003228Y007318D01*
X003228Y007246D01*
X003264Y007210D01*
X003409Y007210D01*
X003445Y007427D02*
X003445Y007571D01*
X003445Y007987D02*
X003445Y008059D01*
X003445Y008023D02*
X003228Y008023D01*
X003228Y007987D02*
X003228Y008059D01*
X003264Y008132D02*
X003409Y008132D01*
X003445Y008168D01*
X003445Y008240D01*
X003409Y008276D01*
X003445Y008349D02*
X003445Y008494D01*
X003445Y008422D02*
X003228Y008422D01*
X003300Y008349D01*
X003264Y008276D02*
X003228Y008240D01*
X003228Y008168D01*
X003264Y008132D01*
X003264Y008567D02*
X003228Y008603D01*
X003228Y008675D01*
X003264Y008711D01*
X003300Y008711D01*
X003337Y008675D01*
X003373Y008711D01*
X003409Y008711D01*
X003445Y008675D01*
X003445Y008603D01*
X003409Y008567D01*
X003337Y008639D02*
X003337Y008675D01*
X003333Y008981D02*
X003189Y008981D01*
X003189Y009198D01*
X003407Y009198D02*
X003407Y009089D01*
X003479Y009126D01*
X003515Y009126D01*
X003551Y009089D01*
X003551Y009017D01*
X003515Y008981D01*
X003443Y008981D01*
X003407Y009017D01*
X003407Y009198D02*
X003551Y009198D01*
X003935Y009332D02*
X003971Y009296D01*
X004043Y009296D01*
X004080Y009332D01*
X004153Y009332D02*
X004189Y009296D01*
X004261Y009296D01*
X004297Y009332D01*
X004297Y009368D01*
X004261Y009404D01*
X004225Y009404D01*
X004261Y009404D02*
X004297Y009440D01*
X004297Y009477D01*
X004261Y009513D01*
X004189Y009513D01*
X004153Y009477D01*
X004080Y009477D02*
X004043Y009513D01*
X003971Y009513D01*
X003935Y009477D01*
X003935Y009332D01*
X003501Y006606D02*
X003465Y006570D01*
X003465Y006498D01*
X003501Y006462D01*
X003681Y006154D02*
X003681Y006010D01*
X005942Y008391D02*
X006086Y008391D01*
X006122Y008427D01*
X006122Y008499D01*
X006086Y008535D01*
X006122Y008608D02*
X006122Y008752D01*
X006122Y008680D02*
X005905Y008680D01*
X005978Y008608D01*
X005942Y008535D02*
X005905Y008499D01*
X005905Y008427D01*
X005942Y008391D01*
X006631Y007941D02*
X006631Y007797D01*
X006667Y007761D01*
X006739Y007761D01*
X006775Y007797D01*
X006849Y007869D02*
X006993Y007869D01*
X007066Y007905D02*
X007138Y007977D01*
X007138Y007761D01*
X007066Y007761D02*
X007210Y007761D01*
X007195Y007671D02*
X007159Y007635D01*
X007159Y007599D01*
X007195Y007527D01*
X007087Y007527D01*
X007087Y007671D01*
X007195Y007671D02*
X007267Y007671D01*
X007303Y007635D01*
X007303Y007563D01*
X007267Y007527D01*
X007303Y007453D02*
X007303Y007309D01*
X007159Y007453D01*
X007123Y007453D01*
X007087Y007417D01*
X007087Y007345D01*
X007123Y007309D01*
X007123Y007236D02*
X007195Y007236D01*
X007231Y007200D01*
X007231Y007091D01*
X007303Y007091D02*
X007087Y007091D01*
X007087Y007200D01*
X007123Y007236D01*
X007231Y007164D02*
X007303Y007236D01*
X006831Y007234D02*
X006831Y007090D01*
X006686Y007234D01*
X006650Y007234D01*
X006614Y007198D01*
X006614Y007126D01*
X006650Y007090D01*
X006650Y007016D02*
X006614Y006980D01*
X006614Y006908D01*
X006650Y006872D01*
X006794Y006872D01*
X006831Y006908D01*
X006831Y006980D01*
X006794Y007016D01*
X006794Y007307D02*
X006831Y007343D01*
X006831Y007415D01*
X006794Y007451D01*
X006758Y007451D01*
X006722Y007415D01*
X006722Y007379D01*
X006722Y007415D02*
X006686Y007451D01*
X006650Y007451D01*
X006614Y007415D01*
X006614Y007343D01*
X006650Y007307D01*
X006957Y007761D02*
X006957Y007977D01*
X006849Y007869D01*
X006775Y007941D02*
X006739Y007977D01*
X006667Y007977D01*
X006631Y007941D01*
X006929Y008089D02*
X006965Y008053D01*
X007109Y008053D01*
X007146Y008089D01*
X007146Y008161D01*
X007109Y008197D01*
X007037Y008271D02*
X006929Y008379D01*
X007146Y008379D01*
X007037Y008415D02*
X007037Y008271D01*
X006965Y008197D02*
X006929Y008161D01*
X006929Y008089D01*
X006965Y008488D02*
X006929Y008524D01*
X006929Y008596D01*
X006965Y008632D01*
X007109Y008488D01*
X007146Y008524D01*
X007146Y008596D01*
X007109Y008632D01*
X006965Y008632D01*
X006965Y008488D02*
X007109Y008488D01*
X006701Y009651D02*
X006556Y009651D01*
X006483Y009831D02*
X006447Y009867D01*
X006339Y009867D01*
X006339Y009651D01*
X006329Y004946D02*
X006257Y004946D01*
X006221Y004910D01*
X006221Y004765D01*
X006257Y004729D01*
X006329Y004729D01*
X006365Y004765D01*
X006438Y004765D02*
X006438Y004837D01*
X006546Y004837D01*
X006582Y004801D01*
X006582Y004765D01*
X006546Y004729D01*
X006474Y004729D01*
X006438Y004765D01*
X006438Y004837D02*
X006510Y004910D01*
X006582Y004946D01*
X006656Y004910D02*
X006692Y004946D01*
X006764Y004946D01*
X006800Y004910D01*
X006800Y004874D01*
X006656Y004729D01*
X006800Y004729D01*
X006365Y004910D02*
X006329Y004946D01*
D13*
X006467Y004522D02*
X013514Y004522D01*
X013514Y004326D01*
X013474Y004286D01*
X006506Y004286D01*
X006467Y004326D01*
X006467Y004522D01*
X006821Y005152D02*
X006821Y006452D01*
X013159Y006452D01*
X013159Y005152D01*
X006821Y005152D01*
X007037Y005113D02*
X007037Y004562D01*
X007372Y005211D02*
X007372Y006097D01*
X007373Y006106D01*
X007378Y006115D01*
X007384Y006121D01*
X007393Y006126D01*
X007402Y006127D01*
X007411Y006126D01*
X007420Y006121D01*
X007426Y006115D01*
X007431Y006106D01*
X007432Y006097D01*
X007431Y006097D02*
X007431Y005211D01*
X005789Y010995D02*
X005789Y011176D01*
X005911Y011268D01*
X005789Y011357D02*
X005789Y011176D01*
X005795Y011166D02*
X005911Y011090D01*
X005789Y011467D02*
X005789Y011648D01*
X005911Y011740D01*
X005789Y011830D02*
X005789Y011648D01*
X005795Y011638D02*
X005911Y011562D01*
X002864Y012889D02*
X002864Y014581D01*
X001762Y014581D01*
X001762Y012889D01*
X002864Y012889D01*
X005593Y018751D02*
X005593Y018932D01*
X005715Y019024D01*
X005593Y019113D02*
X005593Y018932D01*
X005599Y018922D02*
X005715Y018846D01*
X005593Y019223D02*
X005593Y019404D01*
X005715Y019496D01*
X005593Y019585D02*
X005593Y019404D01*
X005599Y019394D02*
X005715Y019318D01*
X005004Y022605D02*
X004504Y022605D01*
X004254Y022855D01*
X004254Y023355D01*
X004504Y023605D01*
X005004Y023605D01*
X005254Y023355D01*
X005254Y022855D01*
X005004Y022605D01*
X008120Y017948D02*
X007982Y017810D01*
X007982Y017811D02*
X007982Y016373D01*
X009557Y016373D01*
X009557Y017948D01*
X008119Y017948D01*
X011150Y022605D02*
X010900Y022855D01*
X010900Y023355D01*
X011150Y023605D01*
X011650Y023605D01*
X011900Y023355D01*
X012150Y023605D01*
X012650Y023605D01*
X012900Y023355D01*
X013150Y023605D01*
X013650Y023605D01*
X013900Y023355D01*
X014150Y023605D01*
X014650Y023605D01*
X014900Y023355D01*
X014900Y022855D01*
X014650Y022605D01*
X014150Y022605D01*
X013900Y022855D01*
X013650Y022605D01*
X013150Y022605D01*
X012900Y022855D01*
X012650Y022605D01*
X012150Y022605D01*
X011900Y022855D01*
X011650Y022605D01*
X011150Y022605D01*
X014219Y018999D02*
X014400Y018999D01*
X014492Y018877D01*
X014581Y018999D02*
X014400Y018999D01*
X014390Y018993D02*
X014314Y018877D01*
X014150Y016337D02*
X014650Y016337D01*
X014900Y016087D01*
X014900Y015587D01*
X014650Y015337D01*
X014900Y015087D01*
X014900Y014587D01*
X014650Y014337D01*
X014900Y014087D01*
X014900Y013587D01*
X014650Y013337D01*
X014900Y013087D01*
X014900Y012587D01*
X014650Y012337D01*
X014900Y012087D01*
X014900Y011587D01*
X014650Y011337D01*
X014900Y011087D01*
X014900Y010587D01*
X014650Y010337D01*
X014900Y010087D01*
X014900Y009587D01*
X014650Y009337D01*
X014900Y009087D01*
X014900Y008587D01*
X014650Y008337D01*
X014900Y008087D01*
X014900Y007587D01*
X014650Y007337D01*
X014900Y007087D01*
X014900Y006587D01*
X014650Y006337D01*
X014900Y006087D01*
X014900Y005587D01*
X014650Y005337D01*
X014900Y005087D01*
X014900Y004587D01*
X014650Y004337D01*
X014150Y004337D01*
X013900Y004587D01*
X013900Y005087D01*
X014150Y005337D01*
X013900Y005587D01*
X013900Y006087D01*
X014150Y006337D01*
X013900Y006587D01*
X013900Y007087D01*
X014150Y007337D01*
X013900Y007587D01*
X013900Y008087D01*
X014150Y008337D01*
X013900Y008587D01*
X013900Y009087D01*
X014150Y009337D01*
X013900Y009587D01*
X013900Y010087D01*
X014150Y010337D01*
X013900Y010587D01*
X013900Y011087D01*
X014150Y011337D01*
X013900Y011587D01*
X013900Y012087D01*
X014150Y012337D01*
X013900Y012587D01*
X013900Y013087D01*
X014150Y013337D01*
X013900Y013587D01*
X013900Y014087D01*
X014150Y014337D01*
X013900Y014587D01*
X013900Y015087D01*
X014150Y015337D01*
X013900Y015587D01*
X013900Y016087D01*
X014150Y016337D01*
X013128Y009428D02*
X013128Y009247D01*
X013006Y009155D01*
X013128Y009066D02*
X013128Y009247D01*
X013122Y009257D02*
X013006Y009333D01*
X013128Y008877D02*
X013128Y008696D01*
X013006Y008604D01*
X013128Y008515D02*
X013128Y008696D01*
X013122Y008706D02*
X013006Y008782D01*
X013128Y008326D02*
X013128Y008144D01*
X013006Y008052D01*
X013128Y007963D02*
X013128Y008144D01*
X013122Y008154D02*
X013006Y008230D01*
X013128Y007774D02*
X013128Y007593D01*
X013006Y007501D01*
X013128Y007412D02*
X013128Y007593D01*
X013122Y007603D02*
X013006Y007679D01*
X012608Y006097D02*
X012608Y005211D01*
X012549Y005211D02*
X012549Y006097D01*
X012550Y006106D01*
X012555Y006115D01*
X012561Y006121D01*
X012570Y006126D01*
X012579Y006127D01*
X012588Y006126D01*
X012597Y006121D01*
X012603Y006115D01*
X012608Y006106D01*
X012609Y006097D01*
X012943Y005113D02*
X012943Y004562D01*
D14*
X008848Y008316D02*
X008848Y008996D01*
X007668Y008996D01*
X007668Y008316D01*
X008848Y008316D01*
X008848Y008556D02*
X008848Y008756D01*
X008388Y008316D02*
X008128Y008316D01*
X007668Y008556D02*
X007668Y008756D01*
X004517Y015232D02*
X003337Y015232D01*
X003337Y016412D01*
X004517Y016412D01*
X004517Y015232D01*
X003547Y015022D02*
X003530Y015020D01*
X003514Y015015D01*
X003500Y015007D01*
X003488Y014996D01*
X003478Y014982D01*
X003471Y014967D01*
X003467Y014950D01*
X003467Y014934D01*
X003471Y014917D01*
X003478Y014902D01*
X003488Y014888D01*
X003500Y014877D01*
X003514Y014869D01*
X003530Y014864D01*
X003547Y014862D01*
X003564Y014864D01*
X003580Y014869D01*
X003594Y014877D01*
X003606Y014888D01*
X003616Y014902D01*
X003623Y014917D01*
X003627Y014934D01*
X003627Y014950D01*
X003623Y014967D01*
X003616Y014982D01*
X003606Y014996D01*
X003594Y015007D01*
X003580Y015015D01*
X003564Y015020D01*
X003547Y015022D01*
X002785Y020270D02*
X002785Y020507D01*
X002313Y020507D02*
X002313Y020270D01*
X014128Y021012D02*
X014128Y021262D01*
X014130Y021279D01*
X014134Y021296D01*
X014141Y021312D01*
X014151Y021326D01*
X014164Y021339D01*
X014178Y021349D01*
X014194Y021356D01*
X014211Y021360D01*
X014228Y021362D01*
X014728Y021362D01*
X014745Y021360D01*
X014762Y021356D01*
X014778Y021349D01*
X014792Y021339D01*
X014805Y021326D01*
X014815Y021312D01*
X014822Y021296D01*
X014826Y021279D01*
X014828Y021262D01*
X014828Y021012D01*
X014826Y020995D01*
X014822Y020978D01*
X014815Y020962D01*
X014805Y020948D01*
X014792Y020935D01*
X014778Y020925D01*
X014762Y020918D01*
X014745Y020914D01*
X014728Y020912D01*
X014228Y020912D01*
X014211Y020914D01*
X014194Y020918D01*
X014178Y020925D01*
X014164Y020935D01*
X014151Y020948D01*
X014141Y020962D01*
X014134Y020978D01*
X014130Y020995D01*
X014128Y021012D01*
D15*
X002767Y020450D02*
X002742Y020475D01*
X002692Y020475D01*
X002667Y020450D01*
X002767Y020450D02*
X002767Y020425D01*
X002667Y020325D01*
X002767Y020325D01*
X002620Y020325D02*
X002520Y020325D01*
X002472Y020325D02*
X002372Y020325D01*
X002372Y020475D01*
X002520Y020425D02*
X002570Y020475D01*
X002570Y020325D01*
D16*
X000440Y000367D02*
X000677Y000130D01*
X001024Y000412D01*
X001092Y000373D01*
X001163Y000340D01*
X001361Y000818D01*
X001296Y000851D01*
X001239Y000894D01*
X001189Y000947D01*
X001149Y001007D01*
X001119Y001073D01*
X001101Y001143D01*
X001095Y001215D01*
X001103Y001296D01*
X001125Y001373D01*
X001162Y001445D01*
X001211Y001509D01*
X001271Y001563D01*
X001341Y001604D01*
X001417Y001632D01*
X001496Y001645D01*
X001577Y001643D01*
X001656Y001626D01*
X001730Y001594D01*
X001797Y001549D01*
X001855Y001493D01*
X001901Y001426D01*
X001934Y001353D01*
X001952Y001274D01*
X001956Y001193D01*
X001944Y001113D01*
X001918Y001037D01*
X001877Y000967D01*
X001825Y000906D01*
X001762Y000855D01*
X001690Y000818D01*
X001888Y000340D01*
X001959Y000373D01*
X002028Y000412D01*
X002374Y000130D01*
X002611Y000367D01*
X002329Y000713D01*
X002379Y000805D01*
X002420Y000902D01*
X002449Y001002D01*
X002893Y001047D01*
X002893Y001383D01*
X002449Y001428D01*
X002420Y001529D01*
X002379Y001626D01*
X002329Y001717D01*
X002611Y002064D01*
X002374Y002301D01*
X002028Y002019D01*
X001936Y002069D01*
X001839Y002109D01*
X001739Y002138D01*
X001694Y002583D01*
X001358Y002583D01*
X001312Y002138D01*
X001212Y002109D01*
X001115Y002069D01*
X001024Y002019D01*
X000677Y002301D01*
X000440Y002064D01*
X000722Y001717D01*
X000672Y001626D01*
X000632Y001529D01*
X000603Y001428D01*
X000158Y001383D01*
X000158Y001047D01*
X000603Y001002D01*
X000632Y000902D01*
X000672Y000805D01*
X000722Y000713D01*
X000440Y000367D01*
X000457Y000388D02*
X000994Y000388D01*
X001066Y000388D02*
X001183Y000388D01*
X001207Y000445D02*
X000504Y000445D01*
X000550Y000503D02*
X001230Y000503D01*
X001254Y000560D02*
X000597Y000560D01*
X000644Y000618D02*
X001278Y000618D01*
X001302Y000675D02*
X000691Y000675D01*
X000711Y000733D02*
X001326Y000733D01*
X001350Y000791D02*
X000680Y000791D01*
X000654Y000848D02*
X001302Y000848D01*
X001228Y000906D02*
X000631Y000906D01*
X000614Y000963D02*
X001178Y000963D01*
X001143Y001021D02*
X000420Y001021D01*
X000158Y001078D02*
X001118Y001078D01*
X001103Y001136D02*
X000158Y001136D01*
X000158Y001193D02*
X001097Y001193D01*
X001098Y001251D02*
X000158Y001251D01*
X000158Y001309D02*
X001106Y001309D01*
X001123Y001366D02*
X000158Y001366D01*
X000555Y001424D02*
X001151Y001424D01*
X001189Y001481D02*
X000618Y001481D01*
X000636Y001539D02*
X001244Y001539D01*
X001327Y001596D02*
X000660Y001596D01*
X000687Y001654D02*
X002364Y001654D01*
X002392Y001596D02*
X001725Y001596D01*
X001808Y001539D02*
X002415Y001539D01*
X002433Y001481D02*
X001863Y001481D01*
X001902Y001424D02*
X002496Y001424D01*
X002631Y001021D02*
X001908Y001021D01*
X001932Y001078D02*
X002893Y001078D01*
X002893Y001136D02*
X001947Y001136D01*
X001956Y001193D02*
X002893Y001193D01*
X002893Y001251D02*
X001953Y001251D01*
X001944Y001309D02*
X002893Y001309D01*
X002893Y001366D02*
X001928Y001366D01*
X001874Y000963D02*
X002437Y000963D01*
X002421Y000906D02*
X001825Y000906D01*
X001748Y000848D02*
X002397Y000848D01*
X002372Y000791D02*
X001702Y000791D01*
X001725Y000733D02*
X002340Y000733D01*
X002360Y000675D02*
X001749Y000675D01*
X001773Y000618D02*
X002407Y000618D01*
X002454Y000560D02*
X001797Y000560D01*
X001821Y000503D02*
X002501Y000503D01*
X002548Y000445D02*
X001845Y000445D01*
X001868Y000388D02*
X001985Y000388D01*
X002057Y000388D02*
X002595Y000388D01*
X002575Y000330D02*
X002128Y000330D01*
X002199Y000273D02*
X002517Y000273D01*
X002459Y000215D02*
X002269Y000215D01*
X002340Y000157D02*
X002402Y000157D01*
X002332Y001711D02*
X000719Y001711D01*
X000680Y001769D02*
X002371Y001769D01*
X002418Y001827D02*
X000633Y001827D01*
X000586Y001884D02*
X002465Y001884D01*
X002512Y001942D02*
X000539Y001942D01*
X000492Y001999D02*
X002559Y001999D01*
X002606Y002057D02*
X002074Y002057D01*
X002145Y002114D02*
X002561Y002114D01*
X002503Y002172D02*
X002215Y002172D01*
X002286Y002229D02*
X002446Y002229D01*
X002388Y002287D02*
X002357Y002287D01*
X001959Y002057D02*
X001093Y002057D01*
X000977Y002057D02*
X000445Y002057D01*
X000490Y002114D02*
X000906Y002114D01*
X000836Y002172D02*
X000548Y002172D01*
X000605Y002229D02*
X000765Y002229D01*
X000695Y002287D02*
X000663Y002287D01*
X001229Y002114D02*
X001822Y002114D01*
X001735Y002172D02*
X001316Y002172D01*
X001322Y002229D02*
X001729Y002229D01*
X001724Y002287D02*
X001328Y002287D01*
X001333Y002345D02*
X001718Y002345D01*
X001712Y002402D02*
X001339Y002402D01*
X001345Y002460D02*
X001706Y002460D01*
X001700Y002517D02*
X001351Y002517D01*
X001357Y002575D02*
X001694Y002575D01*
X000923Y000330D02*
X000477Y000330D01*
X000534Y000273D02*
X000853Y000273D01*
X000782Y000215D02*
X000592Y000215D01*
X000649Y000157D02*
X000711Y000157D01*
X007608Y010861D02*
X007608Y014798D01*
X011545Y014798D01*
X011545Y010861D01*
X007608Y010861D01*
X009336Y008783D02*
X009336Y007663D01*
X009856Y007663D01*
X009856Y008783D01*
X009336Y008783D01*
X012368Y016207D02*
X012368Y017327D01*
X012888Y017327D01*
X012888Y016207D01*
X012368Y016207D01*
X005080Y017013D02*
X005082Y017023D01*
X005087Y017032D01*
X005096Y017038D01*
X005105Y017041D01*
X005116Y017040D01*
X005125Y017035D01*
X005132Y017028D01*
X005136Y017018D01*
X005136Y017008D01*
X005132Y016998D01*
X005125Y016991D01*
X005116Y016986D01*
X005105Y016985D01*
X005096Y016988D01*
X005087Y016994D01*
X005082Y017003D01*
X005080Y017013D01*
D17*
X011404Y009350D02*
X011404Y009065D01*
X011594Y009065D01*
X011694Y009065D02*
X011884Y009065D01*
X011984Y009065D02*
X011984Y009350D01*
X012127Y009350D01*
X012174Y009303D01*
X012174Y009113D01*
X012127Y009065D01*
X011984Y009065D01*
X011984Y008838D02*
X012127Y008838D01*
X012174Y008791D01*
X012174Y008601D01*
X012127Y008553D01*
X011984Y008553D01*
X011984Y008838D01*
X011884Y008838D02*
X011694Y008838D01*
X011694Y008553D01*
X011884Y008553D01*
X011789Y008696D02*
X011694Y008696D01*
X011594Y008553D02*
X011404Y008553D01*
X011404Y008838D01*
X011694Y009065D02*
X011694Y009350D01*
X011884Y009350D01*
X011789Y009208D02*
X011694Y009208D01*
X012274Y009208D02*
X012274Y009113D01*
X012322Y009065D01*
X012417Y009065D01*
X012464Y009113D01*
X012464Y009160D01*
X012417Y009208D01*
X012274Y009208D01*
X012369Y009303D01*
X012464Y009350D01*
X012464Y008838D02*
X012274Y008838D01*
X012464Y008838D02*
X012464Y008791D01*
X012274Y008601D01*
X012274Y008553D01*
X012322Y008287D02*
X012417Y008287D01*
X012464Y008240D01*
X012464Y008192D01*
X012417Y008145D01*
X012322Y008145D01*
X012274Y008192D01*
X012274Y008240D01*
X012322Y008287D01*
X012322Y008145D02*
X012274Y008097D01*
X012274Y008050D01*
X012322Y008002D01*
X012417Y008002D01*
X012464Y008050D01*
X012464Y008097D01*
X012417Y008145D01*
X012174Y008050D02*
X012174Y008240D01*
X012127Y008287D01*
X011984Y008287D01*
X011984Y008002D01*
X012127Y008002D01*
X012174Y008050D01*
X011884Y008002D02*
X011694Y008002D01*
X011694Y008287D01*
X011884Y008287D01*
X011789Y008145D02*
X011694Y008145D01*
X011594Y008002D02*
X011404Y008002D01*
X011404Y008287D01*
X012349Y007264D02*
X012349Y006978D01*
X012539Y006978D01*
X012639Y006978D02*
X012829Y006978D01*
X012929Y006978D02*
X013072Y006978D01*
X013119Y007026D01*
X013119Y007216D01*
X013072Y007264D01*
X012929Y007264D01*
X012929Y006978D01*
X012734Y007121D02*
X012639Y007121D01*
X012639Y007264D02*
X012639Y006978D01*
X012639Y007264D02*
X012829Y007264D01*
X013219Y007216D02*
X013219Y007169D01*
X013267Y007121D01*
X013409Y007121D01*
X013409Y007216D02*
X013362Y007264D01*
X013267Y007264D01*
X013219Y007216D01*
X013219Y007026D02*
X013267Y006978D01*
X013362Y006978D01*
X013409Y007026D01*
X013409Y007216D01*
X013030Y018750D02*
X012969Y018811D01*
X012848Y018811D01*
X012908Y018871D01*
X012908Y018932D01*
X012848Y018993D01*
X012726Y018993D01*
X012726Y018811D02*
X012848Y018811D01*
X012908Y019475D02*
X012544Y019475D01*
X012666Y019475D02*
X012666Y019657D01*
X012726Y019718D01*
X012848Y019718D01*
X012908Y019657D01*
X012908Y019475D01*
X012908Y019838D02*
X012908Y019959D01*
X012908Y019898D02*
X012544Y019898D01*
X012544Y019838D01*
X012726Y020079D02*
X012848Y020079D01*
X012908Y020140D01*
X012908Y020261D01*
X012848Y020322D01*
X012726Y020322D01*
X012666Y020261D01*
X012666Y020140D01*
X012726Y020079D01*
X012666Y020442D02*
X012908Y020684D01*
X012908Y020442D02*
X012666Y020684D01*
X011904Y020810D02*
X011844Y020810D01*
X011601Y021053D01*
X011540Y021053D01*
X011540Y020810D01*
X011722Y020690D02*
X011722Y020448D01*
X011540Y020328D02*
X011904Y020085D01*
X011904Y019965D02*
X011662Y019965D01*
X011540Y019844D01*
X011662Y019723D01*
X011904Y019723D01*
X011904Y019603D02*
X011540Y019603D01*
X011662Y019482D01*
X011540Y019360D01*
X011904Y019360D01*
X011722Y019723D02*
X011722Y019965D01*
X011540Y020085D02*
X011904Y020328D01*
X011904Y021173D02*
X011540Y021416D01*
X011601Y021535D02*
X011540Y021596D01*
X011540Y021717D01*
X011601Y021778D01*
X011662Y021778D01*
X011722Y021717D01*
X011722Y021596D01*
X011662Y021535D01*
X011601Y021535D01*
X011722Y021596D02*
X011783Y021535D01*
X011844Y021535D01*
X011904Y021596D01*
X011904Y021717D01*
X011844Y021778D01*
X011783Y021778D01*
X011722Y021717D01*
D18*
X006577Y021328D03*
D19*
X011743Y011019D02*
X011745Y011031D01*
X011750Y011042D01*
X011759Y011051D01*
X011770Y011056D01*
X011782Y011058D01*
X011794Y011056D01*
X011805Y011051D01*
X011814Y011042D01*
X011819Y011031D01*
X011821Y011019D01*
X011819Y011007D01*
X011814Y010996D01*
X011805Y010987D01*
X011794Y010982D01*
X011782Y010980D01*
X011770Y010982D01*
X011759Y010987D01*
X011750Y010996D01*
X011745Y011007D01*
X011743Y011019D01*
D20*
X002569Y014375D03*
D21*
X007628Y005369D02*
X007726Y005231D01*
X007726Y005211D01*
X007530Y005211D01*
X007530Y005231D01*
X007628Y005369D01*
X007622Y005361D02*
X007634Y005361D01*
X007661Y005322D02*
X007595Y005322D01*
X007567Y005284D02*
X007689Y005284D01*
X007716Y005245D02*
X007540Y005245D01*
X007608Y004483D02*
X007608Y004326D01*
X007707Y004424D01*
X007707Y004483D01*
X012274Y004483D02*
X012274Y004424D01*
X012372Y004326D01*
X012372Y004483D01*
M02*
