G75*
%MOIN*%
%OFA0B0*%
%FSLAX24Y24*%
%IPPOS*%
%LPD*%
%AMOC8*
5,1,8,0,0,1.08239X$1,22.5*
%
%ADD10R,0.0079X0.0157*%
%ADD11C,0.0320*%
%ADD12R,0.0600X0.1600*%
%ADD13R,0.0157X0.0236*%
%ADD14R,0.0236X0.0157*%
%ADD15R,0.0740X0.0740*%
%ADD16C,0.0740*%
%ADD17R,0.1969X0.2756*%
%ADD18C,0.0318*%
%ADD19R,0.0591X0.0531*%
%ADD20R,0.0551X0.0394*%
%ADD21R,0.0394X0.0512*%
%ADD22R,0.0295X0.0591*%
%ADD23R,0.0315X0.0230*%
%ADD24C,0.0236*%
%ADD25R,0.0276X0.0512*%
%ADD26R,0.0230X0.0315*%
%ADD27C,0.0238*%
%ADD28C,0.0079*%
%ADD29C,0.0197*%
%ADD30C,0.0118*%
%ADD31C,0.0157*%
D10*
X009282Y016227D03*
D11*
X003671Y016011D03*
X003671Y016523D03*
X003159Y016523D03*
X003159Y016011D03*
X003159Y008176D03*
X003159Y007664D03*
X003671Y007664D03*
X003671Y008176D03*
D12*
X003978Y002428D03*
X001978Y002428D03*
X001986Y020420D03*
X003986Y020420D03*
D13*
X010640Y011031D03*
X010640Y010597D03*
X010640Y010164D03*
X010640Y009771D03*
X010640Y009377D03*
X010994Y009377D03*
X010994Y009771D03*
X010994Y010164D03*
X010994Y010597D03*
X010994Y011031D03*
X010089Y009889D03*
X009734Y009889D03*
X009419Y009889D03*
X009065Y009889D03*
X009065Y010322D03*
X009419Y010322D03*
X009419Y009456D03*
X009065Y009456D03*
X007018Y009534D03*
X006663Y009534D03*
D14*
X008809Y011321D03*
X008809Y011675D03*
X009257Y011675D03*
X009257Y011321D03*
D15*
X014400Y020558D03*
D16*
X013400Y020558D03*
X012400Y020558D03*
X011400Y020558D03*
X014400Y013290D03*
X014400Y012290D03*
X014400Y011290D03*
X014400Y010290D03*
X014400Y009290D03*
X014400Y008290D03*
X014400Y007290D03*
X014400Y006290D03*
X014400Y005290D03*
X014400Y004290D03*
X014400Y003290D03*
X014400Y002290D03*
X004754Y020558D03*
D17*
X004242Y018550D03*
X012510Y018550D03*
D18*
X004768Y005611D03*
X004478Y005322D03*
X004189Y005611D03*
X004189Y005032D03*
X004768Y005032D03*
D19*
X007795Y002438D03*
X013169Y002832D03*
D20*
X013228Y004023D03*
D21*
X013002Y008845D03*
D22*
X012470Y008865D03*
X012037Y008865D03*
X011604Y008865D03*
X011171Y008865D03*
X010738Y008865D03*
X010305Y008865D03*
X009872Y008865D03*
X009439Y008865D03*
D23*
X009282Y016070D03*
X009282Y016385D03*
X009282Y016700D03*
D24*
X010325Y016818D02*
X011623Y016818D01*
X011623Y016110D01*
X010325Y016110D01*
X010325Y016818D01*
X010325Y016345D02*
X011623Y016345D01*
X011623Y016580D02*
X010325Y016580D01*
X010325Y016815D02*
X011623Y016815D01*
X013278Y016818D02*
X014576Y016818D01*
X014576Y016110D01*
X013278Y016110D01*
X013278Y016818D01*
X013278Y016345D02*
X014576Y016345D01*
X014576Y016580D02*
X013278Y016580D01*
X013278Y016815D02*
X014576Y016815D01*
X003986Y016818D02*
X002688Y016818D01*
X003986Y016818D02*
X003986Y016110D01*
X002688Y016110D01*
X002688Y016818D01*
X002688Y016345D02*
X003986Y016345D01*
X003986Y016580D02*
X002688Y016580D01*
X002688Y016815D02*
X003986Y016815D01*
X001880Y014002D02*
X001880Y012704D01*
X001880Y014002D02*
X002588Y014002D01*
X002588Y012704D01*
X001880Y012704D01*
X001880Y012939D02*
X002588Y012939D01*
X002588Y013174D02*
X001880Y013174D01*
X001880Y013409D02*
X002588Y013409D01*
X002588Y013644D02*
X001880Y013644D01*
X001880Y013879D02*
X002588Y013879D01*
D25*
X002569Y010086D03*
X001900Y010086D03*
D26*
X010529Y017881D03*
X010869Y017881D03*
D27*
X011171Y017527D03*
X011171Y017133D03*
X011959Y016385D03*
X012195Y016857D03*
X011329Y015676D03*
X010974Y015282D03*
X010659Y014889D03*
X009951Y015046D03*
X010305Y015637D03*
X010817Y015794D03*
X011880Y014574D03*
X011447Y014180D03*
X011782Y014042D03*
X012274Y014239D03*
X013258Y014849D03*
X013455Y015558D03*
X014006Y014928D03*
X013770Y014259D03*
X013376Y013590D03*
X012785Y012172D03*
X012156Y012881D03*
X011762Y012458D03*
X011431Y012527D03*
X010817Y012684D03*
X010502Y012684D03*
X010069Y013038D03*
X009833Y012842D03*
X009951Y012566D03*
X009557Y013747D03*
X008809Y012881D03*
X007785Y012684D03*
X007195Y012330D03*
X007037Y012015D03*
X007274Y011779D03*
X007077Y011542D03*
X007392Y011306D03*
X007077Y011070D03*
X007431Y010509D03*
X007352Y009534D03*
X007352Y009219D03*
X007234Y008944D03*
X007352Y008668D03*
X007234Y008393D03*
X007510Y007763D03*
X007707Y007487D03*
X007392Y007330D03*
X008022Y008078D03*
X008337Y008117D03*
X008652Y008117D03*
X008730Y007645D03*
X008415Y007645D03*
X008415Y006660D03*
X009085Y006031D03*
X008415Y005676D03*
X007746Y005912D03*
X006565Y005952D03*
X006565Y006306D03*
X006447Y007015D03*
X005935Y007605D03*
X005620Y007448D03*
X005305Y007448D03*
X005266Y007133D03*
X005226Y008078D03*
X005502Y008235D03*
X005994Y009534D03*
X005030Y010991D03*
X004321Y010243D03*
X003848Y009928D03*
X003533Y009849D03*
X003219Y009849D03*
X002776Y010568D03*
X002549Y011109D03*
X002589Y011857D03*
X002274Y011857D03*
X001959Y011385D03*
X001959Y010991D03*
X002549Y009613D03*
X002549Y009298D03*
X002549Y008983D03*
X002864Y008983D03*
X002274Y007566D03*
X002352Y007251D03*
X002195Y006936D03*
X002589Y006936D03*
X002707Y007251D03*
X003376Y006542D03*
X004282Y007054D03*
X004557Y008511D03*
X004557Y008826D03*
X004163Y011306D03*
X004203Y011621D03*
X003888Y012369D03*
X005108Y012290D03*
X005108Y011975D03*
X005541Y012881D03*
X006171Y013117D03*
X006486Y013117D03*
X006801Y012763D03*
X006368Y013747D03*
X006329Y014062D03*
X006033Y014338D03*
X006616Y014377D03*
X006919Y014534D03*
X006919Y014849D03*
X006998Y015322D03*
X007470Y015361D03*
X007392Y014968D03*
X007628Y015991D03*
X007943Y016385D03*
X007549Y016503D03*
X007195Y016306D03*
X006919Y016503D03*
X006959Y017054D03*
X007156Y017330D03*
X007156Y017645D03*
X006604Y017172D03*
X006250Y017172D03*
X006211Y016031D03*
X005915Y015873D03*
X005620Y016031D03*
X005226Y015991D03*
X004557Y015361D03*
X004282Y015204D03*
X003652Y015007D03*
X003415Y014692D03*
X003100Y015086D03*
X002707Y015086D03*
X002628Y015440D03*
X002313Y015637D03*
X001998Y015794D03*
X001998Y015440D03*
X001998Y015086D03*
X002470Y013353D03*
X004518Y014259D03*
X004833Y014101D03*
X005187Y014731D03*
X006014Y015204D03*
X006998Y014062D03*
X007904Y013747D03*
X008533Y015873D03*
X008927Y016385D03*
X009360Y015755D03*
X009360Y017034D03*
X009006Y017527D03*
X009203Y017763D03*
X009360Y018038D03*
X009360Y018393D03*
X009360Y018747D03*
X008848Y019101D03*
X009045Y019377D03*
X009360Y019456D03*
X009518Y020086D03*
X009321Y020873D03*
X009911Y020873D03*
X010463Y020873D03*
X010620Y020322D03*
X010266Y020086D03*
X010502Y019574D03*
X010502Y018747D03*
X010502Y018314D03*
X011211Y018471D03*
X011211Y018944D03*
X011171Y019771D03*
X008809Y018747D03*
X008809Y018393D03*
X008691Y018078D03*
X008691Y017448D03*
X008337Y017133D03*
X007982Y017133D03*
X007628Y017133D03*
X008140Y018432D03*
X008140Y018944D03*
X008100Y020125D03*
X008100Y020873D03*
X008730Y020873D03*
X004675Y019889D03*
X004675Y019534D03*
X004675Y019062D03*
X004675Y018708D03*
X004675Y018353D03*
X004675Y017881D03*
X004282Y016936D03*
X003455Y018196D03*
X002628Y017054D03*
X002077Y017448D03*
X001880Y018590D03*
X001880Y019456D03*
X008809Y011050D03*
X008809Y010666D03*
X008809Y010282D03*
X008809Y009899D03*
X008809Y009515D03*
X009705Y009515D03*
X010217Y009515D03*
X010345Y009899D03*
X010345Y010282D03*
X010345Y010666D03*
X010345Y011050D03*
X009961Y011050D03*
X009577Y011050D03*
X009193Y011050D03*
X010817Y013747D03*
X010817Y014062D03*
X011711Y011424D03*
X012195Y010952D03*
X012431Y010519D03*
X012510Y010991D03*
X012037Y010125D03*
X012037Y009810D03*
X011752Y010282D03*
X012392Y009731D03*
X012392Y009377D03*
X012746Y009377D03*
X012746Y009731D03*
X013455Y009338D03*
X013455Y008432D03*
X013258Y008117D03*
X012667Y008353D03*
X012234Y008353D03*
X011959Y008117D03*
X012510Y007527D03*
X012746Y007290D03*
X013455Y007408D03*
X013494Y007015D03*
X013533Y005322D03*
X012470Y004456D03*
X011801Y004495D03*
X011447Y004613D03*
X011565Y005086D03*
X011565Y005440D03*
X011053Y005243D03*
X011053Y004928D03*
X010817Y004495D03*
X010817Y003786D03*
X010187Y003511D03*
X009341Y003786D03*
X009006Y003786D03*
X009124Y004495D03*
X008809Y004495D03*
X008494Y004495D03*
X008258Y003786D03*
X007943Y003786D03*
X008100Y003314D03*
X007530Y003284D03*
X007530Y002940D03*
X007195Y002448D03*
X006801Y002448D03*
X006447Y002527D03*
X006329Y002212D03*
X006329Y001897D03*
X006447Y002881D03*
X005974Y003944D03*
X005656Y003912D03*
X005226Y004259D03*
X004911Y004259D03*
X004282Y004259D03*
X003337Y004180D03*
X003337Y004534D03*
X003337Y003826D03*
X003337Y003471D03*
X004557Y001857D03*
X004636Y002172D03*
X006368Y004180D03*
X006762Y004180D03*
X007077Y004180D03*
X007667Y004534D03*
X006565Y005282D03*
X006565Y005597D03*
X009045Y002212D03*
X009341Y002527D03*
X009911Y002251D03*
X011093Y002251D03*
X011644Y002979D03*
X012037Y003117D03*
X012037Y002645D03*
X012510Y002645D03*
X012510Y003314D03*
X010502Y006227D03*
X010502Y006700D03*
X010620Y007015D03*
X010187Y007054D03*
X009872Y007015D03*
X009793Y006660D03*
X009734Y007723D03*
X009585Y005078D03*
X011880Y006818D03*
X011880Y007172D03*
X013494Y010952D03*
X013652Y012054D03*
X014596Y014416D03*
X014596Y015479D03*
X014675Y017684D03*
X014636Y018196D03*
X014675Y019456D03*
X014360Y019456D03*
X012825Y015558D03*
X002431Y005322D03*
X001880Y005243D03*
X001880Y005597D03*
X001998Y005912D03*
X001880Y004889D03*
X001880Y004534D03*
X001880Y004180D03*
X001880Y003826D03*
X001880Y003471D03*
D28*
X001743Y001681D02*
X001743Y005915D01*
X001767Y005892D01*
X001780Y005879D01*
X001780Y005822D01*
X001908Y005694D01*
X002089Y005694D01*
X002216Y005822D01*
X002216Y006003D01*
X002089Y006131D01*
X002032Y006131D01*
X002019Y006144D01*
X002019Y009751D01*
X002070Y009751D01*
X002116Y009797D01*
X002116Y010374D01*
X002070Y010420D01*
X001743Y010420D01*
X001743Y012562D01*
X001798Y012507D01*
X002670Y012507D01*
X002785Y012622D01*
X002785Y014084D01*
X002670Y014200D01*
X001798Y014200D01*
X001743Y014144D01*
X001743Y021167D01*
X005187Y021167D01*
X005187Y017408D01*
X006998Y017408D01*
X006998Y018235D01*
X007864Y018235D01*
X007864Y021167D01*
X015009Y021167D01*
X015009Y017158D01*
X014954Y017213D01*
X014558Y017609D01*
X014558Y017838D01*
X014697Y017977D01*
X014726Y017977D01*
X014854Y018105D01*
X014854Y018286D01*
X014726Y018414D01*
X014545Y018414D01*
X014417Y018286D01*
X014417Y018257D01*
X014162Y018002D01*
X014162Y017445D01*
X014674Y016933D01*
X014674Y016034D01*
X014633Y015992D01*
X014121Y015992D01*
X013197Y015068D01*
X013167Y015068D01*
X013039Y014940D01*
X013039Y014759D01*
X013167Y014631D01*
X013348Y014631D01*
X013476Y014759D01*
X013476Y014788D01*
X014285Y015596D01*
X014797Y015596D01*
X014912Y015712D01*
X015009Y015809D01*
X015009Y007665D01*
X014969Y007705D01*
X014733Y007941D01*
X014685Y007941D01*
X014780Y008036D01*
X014848Y008201D01*
X014848Y008380D01*
X014780Y008545D01*
X014654Y008671D01*
X014489Y008739D01*
X014310Y008739D01*
X014195Y008691D01*
X014027Y008860D01*
X014027Y009029D01*
X014145Y008910D01*
X014310Y008842D01*
X014489Y008842D01*
X014654Y008910D01*
X014780Y009036D01*
X014848Y009201D01*
X014848Y009380D01*
X014780Y009545D01*
X014654Y009671D01*
X014489Y009739D01*
X014310Y009739D01*
X014145Y009671D01*
X014145Y009670D01*
X012685Y011130D01*
X012680Y011130D01*
X012658Y011152D01*
X013971Y011152D01*
X014019Y011036D01*
X014145Y010910D01*
X014310Y010842D01*
X014489Y010842D01*
X014654Y010910D01*
X014780Y011036D01*
X014848Y011201D01*
X014848Y011380D01*
X014780Y011545D01*
X014654Y011671D01*
X014489Y011739D01*
X014310Y011739D01*
X014145Y011671D01*
X014019Y011545D01*
X013971Y011429D01*
X013735Y011429D01*
X014195Y011889D01*
X014310Y011842D01*
X014489Y011842D01*
X014654Y011910D01*
X014780Y012036D01*
X014848Y012201D01*
X014848Y012380D01*
X014780Y012545D01*
X014654Y012671D01*
X014489Y012739D01*
X014310Y012739D01*
X014145Y012671D01*
X014019Y012545D01*
X013951Y012380D01*
X013951Y012201D01*
X013999Y012086D01*
X013515Y011602D01*
X012098Y011602D01*
X011695Y011199D01*
X011625Y011129D01*
X011625Y011642D01*
X012056Y012073D01*
X012137Y012154D01*
X012137Y012623D01*
X011782Y012978D01*
X011701Y013059D01*
X010366Y013059D01*
X010287Y012981D01*
X010287Y013129D01*
X010159Y013257D01*
X010047Y013257D01*
X009754Y013549D01*
X010302Y013549D01*
X010501Y013350D01*
X010617Y013234D01*
X011017Y013234D01*
X011332Y013549D01*
X011568Y013549D01*
X011684Y013665D01*
X011843Y013824D01*
X011872Y013824D01*
X012000Y013952D01*
X012000Y014133D01*
X011872Y014261D01*
X011691Y014261D01*
X011563Y014133D01*
X011563Y014104D01*
X011404Y013945D01*
X011168Y013945D01*
X011052Y013829D01*
X010853Y013630D01*
X010781Y013630D01*
X010466Y013945D01*
X009668Y013945D01*
X009648Y013965D01*
X009467Y013965D01*
X009446Y013945D01*
X008015Y013945D01*
X007994Y013965D01*
X007813Y013965D01*
X007792Y013945D01*
X007190Y013945D01*
X007216Y013972D01*
X007216Y014152D01*
X007089Y014280D01*
X006908Y014280D01*
X006887Y014260D01*
X006527Y014260D01*
X006527Y014731D01*
X006547Y014711D01*
X006701Y014557D01*
X006701Y014444D01*
X006829Y014316D01*
X007010Y014316D01*
X007138Y014444D01*
X007138Y014625D01*
X007071Y014692D01*
X007138Y014759D01*
X007138Y014940D01*
X007137Y014941D01*
X007137Y015026D01*
X007173Y014990D01*
X007173Y014877D01*
X007301Y014749D01*
X007482Y014749D01*
X007610Y014877D01*
X007610Y015058D01*
X007525Y015143D01*
X007561Y015143D01*
X007689Y015271D01*
X007689Y015383D01*
X008040Y015734D01*
X008363Y015734D01*
X008443Y015655D01*
X008624Y015655D01*
X008752Y015783D01*
X008752Y015964D01*
X008624Y016091D01*
X008443Y016091D01*
X008363Y016012D01*
X007925Y016012D01*
X007493Y015580D01*
X007380Y015580D01*
X007373Y015573D01*
X007373Y015655D01*
X007292Y015736D01*
X006507Y016521D01*
X006426Y016602D01*
X004811Y016602D01*
X004500Y016914D01*
X004500Y017026D01*
X004372Y017154D01*
X004191Y017154D01*
X004063Y017026D01*
X004063Y016846D01*
X004191Y016718D01*
X004304Y016718D01*
X004696Y016325D01*
X005364Y016325D01*
X005249Y016210D01*
X005136Y016210D01*
X005008Y016082D01*
X005008Y015901D01*
X005136Y015773D01*
X005317Y015773D01*
X005445Y015901D01*
X005445Y016013D01*
X005599Y016167D01*
X006039Y016167D01*
X005992Y016121D01*
X005992Y016091D01*
X005825Y016091D01*
X005697Y015964D01*
X005697Y015783D01*
X005825Y015655D01*
X006006Y015655D01*
X006131Y015780D01*
X006131Y014173D01*
X006110Y014152D01*
X006110Y014088D01*
X005405Y014793D01*
X005405Y014822D01*
X005277Y014950D01*
X005248Y014950D01*
X004776Y015423D01*
X004776Y015452D01*
X004648Y015580D01*
X004618Y015580D01*
X004479Y015719D01*
X004363Y015835D01*
X002946Y015835D01*
X002904Y015876D01*
X002789Y015992D01*
X002671Y015992D01*
X002275Y016388D01*
X002275Y017337D01*
X002295Y017357D01*
X002295Y017538D01*
X002167Y017666D01*
X001986Y017666D01*
X001858Y017538D01*
X001858Y017357D01*
X001879Y017337D01*
X001879Y016224D01*
X001995Y016108D01*
X002248Y015855D01*
X002223Y015855D01*
X002095Y015727D01*
X002095Y015546D01*
X002174Y015467D01*
X002174Y014871D01*
X002256Y014789D01*
X002883Y014162D01*
X002883Y011326D01*
X002727Y011482D01*
X002727Y011687D01*
X002807Y011767D01*
X002807Y011948D01*
X002679Y012076D01*
X002498Y012076D01*
X002370Y011948D01*
X002370Y011767D01*
X002450Y011687D01*
X002450Y011367D01*
X002489Y011328D01*
X002459Y011328D01*
X002331Y011200D01*
X002331Y011171D01*
X002273Y011112D01*
X002273Y010358D01*
X002352Y010278D01*
X002352Y009797D01*
X002398Y009751D01*
X002686Y009751D01*
X002686Y009556D01*
X002767Y009474D01*
X002767Y009474D01*
X002884Y009358D01*
X002728Y009358D01*
X002647Y009277D01*
X002571Y009202D01*
X002459Y009202D01*
X002331Y009074D01*
X002019Y009074D01*
X002019Y008997D02*
X002331Y008997D01*
X002331Y009074D02*
X002331Y008893D01*
X002459Y008765D01*
X002607Y008765D01*
X002214Y008371D01*
X002214Y007784D01*
X002183Y007784D01*
X002055Y007656D01*
X002055Y007475D01*
X002162Y007369D01*
X002134Y007341D01*
X002134Y007161D01*
X002262Y007033D01*
X002443Y007033D01*
X002530Y007119D01*
X002616Y007033D01*
X002797Y007033D01*
X002925Y007161D01*
X002925Y007341D01*
X002845Y007421D01*
X002845Y008138D01*
X003000Y008293D01*
X004185Y008293D01*
X004851Y007627D01*
X004933Y007545D01*
X005717Y007545D01*
X005717Y007515D01*
X005845Y007387D01*
X005914Y007387D01*
X005914Y006836D01*
X005796Y006718D01*
X005796Y005458D01*
X004773Y004434D01*
X004773Y004429D01*
X004693Y004349D01*
X004693Y004168D01*
X004821Y004040D01*
X004930Y004040D01*
X004655Y003765D01*
X004655Y002391D01*
X004545Y002391D01*
X004417Y002263D01*
X004417Y002082D01*
X004545Y001954D01*
X004726Y001954D01*
X004854Y002082D01*
X004854Y002194D01*
X004932Y002272D01*
X004932Y003650D01*
X005284Y004002D01*
X005365Y004083D01*
X005365Y004089D01*
X005445Y004168D01*
X005445Y004349D01*
X005381Y004414D01*
X005796Y004829D01*
X005796Y004075D01*
X005756Y004034D01*
X005756Y003853D01*
X005884Y003725D01*
X006065Y003725D01*
X006193Y003853D01*
X006193Y004034D01*
X006153Y004075D01*
X006153Y004815D01*
X006363Y005026D01*
X006467Y005130D01*
X006467Y006095D01*
X006474Y006088D01*
X006587Y006088D01*
X007292Y005382D01*
X007292Y004273D01*
X007167Y004399D01*
X006986Y004399D01*
X006919Y004332D01*
X006852Y004399D01*
X006671Y004399D01*
X006543Y004271D01*
X006543Y004090D01*
X006671Y003962D01*
X006784Y003962D01*
X007135Y003611D01*
X007135Y003138D01*
X007311Y002962D01*
X007311Y002849D01*
X007382Y002778D01*
X007370Y002758D01*
X007361Y002722D01*
X007361Y002477D01*
X007756Y002477D01*
X007756Y002399D01*
X007361Y002399D01*
X007361Y002154D01*
X007361Y002154D01*
X006662Y002154D01*
X006547Y002268D01*
X006547Y002302D01*
X006419Y002430D01*
X006238Y002430D01*
X006110Y002302D01*
X006110Y002121D01*
X006177Y002054D01*
X006110Y001987D01*
X006110Y001806D01*
X006235Y001681D01*
X001743Y001681D01*
X001743Y001736D02*
X006180Y001736D01*
X006110Y001813D02*
X001743Y001813D01*
X001743Y001891D02*
X006110Y001891D01*
X006110Y001968D02*
X004740Y001968D01*
X004818Y002045D02*
X006168Y002045D01*
X006110Y002122D02*
X004854Y002122D01*
X004859Y002200D02*
X006110Y002200D01*
X006110Y002277D02*
X004932Y002277D01*
X004932Y002354D02*
X006162Y002354D01*
X006329Y002212D02*
X006407Y002212D01*
X006604Y002015D01*
X008140Y002015D01*
X008415Y002290D01*
X008415Y003314D01*
X007943Y003786D01*
X007943Y003865D01*
X008100Y004023D01*
X008100Y004849D01*
X008455Y005204D01*
X008691Y005204D01*
X010187Y006700D01*
X010187Y007054D01*
X010148Y007330D02*
X009872Y007054D01*
X009872Y007015D01*
X009823Y007251D02*
X010059Y007487D01*
X011959Y007487D01*
X013809Y005597D01*
X013809Y003881D01*
X014400Y003290D01*
X014716Y002972D02*
X015009Y002972D01*
X015009Y002895D02*
X014617Y002895D01*
X014654Y002910D02*
X014489Y002842D01*
X014310Y002842D01*
X014145Y002910D01*
X014019Y003036D01*
X013951Y003201D01*
X013951Y003380D01*
X013999Y003495D01*
X013670Y003823D01*
X013670Y005150D01*
X013624Y005103D01*
X013443Y005103D01*
X013315Y005231D01*
X013315Y005412D01*
X013379Y005477D01*
X011902Y006954D01*
X011789Y006954D01*
X011662Y007082D01*
X011662Y007263D01*
X011747Y007348D01*
X010837Y007348D01*
X010953Y007232D01*
X011034Y007151D01*
X011034Y006445D01*
X010956Y006367D01*
X010956Y004665D01*
X011035Y004586D01*
X011035Y004426D01*
X011228Y004619D01*
X011228Y004704D01*
X011356Y004832D01*
X011537Y004832D01*
X011665Y004704D01*
X011665Y004523D01*
X011537Y004395D01*
X011452Y004395D01*
X011212Y004154D01*
X011119Y004061D01*
X010700Y004061D01*
X010700Y003978D01*
X010726Y004005D01*
X010907Y004005D01*
X011035Y003877D01*
X011035Y003764D01*
X011602Y003198D01*
X011734Y003198D01*
X011862Y003070D01*
X011862Y002889D01*
X011734Y002761D01*
X011689Y002761D01*
X011962Y002488D01*
X012758Y002488D01*
X012744Y002512D01*
X012735Y002548D01*
X012735Y002792D01*
X013130Y002792D01*
X013130Y002871D01*
X012735Y002871D01*
X012735Y003116D01*
X012744Y003151D01*
X012763Y003183D01*
X012788Y003209D01*
X012820Y003227D01*
X012856Y003237D01*
X013130Y003237D01*
X013130Y002871D01*
X013209Y002871D01*
X013604Y002871D01*
X013604Y003116D01*
X013594Y003151D01*
X013576Y003183D01*
X013550Y003209D01*
X013518Y003227D01*
X013483Y003237D01*
X013209Y003237D01*
X013209Y002871D01*
X013209Y002792D01*
X013604Y002792D01*
X013604Y002548D01*
X013594Y002512D01*
X013581Y002488D01*
X013996Y002488D01*
X014019Y002545D01*
X014145Y002671D01*
X014310Y002739D01*
X014489Y002739D01*
X014654Y002671D01*
X014780Y002545D01*
X014848Y002380D01*
X014848Y002201D01*
X014780Y002036D01*
X014654Y001910D01*
X014489Y001842D01*
X014310Y001842D01*
X014145Y001910D01*
X014019Y002036D01*
X013996Y002093D01*
X011798Y002093D01*
X011682Y002208D01*
X011682Y002208D01*
X010420Y003471D01*
X010420Y003471D01*
X010304Y003586D01*
X010304Y006116D01*
X010288Y006132D01*
X008948Y004792D01*
X008948Y004665D01*
X009027Y004586D01*
X009027Y004405D01*
X008900Y004277D01*
X008719Y004277D01*
X008591Y004405D01*
X008591Y004586D01*
X008670Y004665D01*
X008670Y004868D01*
X008552Y004868D01*
X008397Y004713D01*
X008397Y003957D01*
X008476Y003877D01*
X008476Y003764D01*
X008630Y003610D01*
X008630Y003610D01*
X008712Y003529D01*
X008712Y002154D01*
X008630Y002073D01*
X008276Y001719D01*
X006460Y001719D01*
X006422Y001681D01*
X015009Y001681D01*
X015009Y006703D01*
X014969Y006663D01*
X014801Y006495D01*
X014848Y006380D01*
X014848Y006201D01*
X014780Y006036D01*
X014654Y005910D01*
X014489Y005842D01*
X014310Y005842D01*
X014145Y005910D01*
X014019Y006036D01*
X013951Y006201D01*
X013951Y006362D01*
X013516Y006796D01*
X013404Y006796D01*
X013276Y006924D01*
X013276Y007105D01*
X013404Y007233D01*
X013585Y007233D01*
X013713Y007105D01*
X013713Y006993D01*
X014090Y006615D01*
X014145Y006671D01*
X014310Y006739D01*
X014489Y006739D01*
X014604Y006691D01*
X014773Y006860D01*
X014773Y007029D01*
X014654Y006910D01*
X014489Y006842D01*
X014310Y006842D01*
X014145Y006910D01*
X014019Y007036D01*
X013951Y007201D01*
X013951Y007380D01*
X013999Y007495D01*
X013830Y007663D01*
X012183Y007663D01*
X014162Y005678D01*
X014310Y005739D01*
X014489Y005739D01*
X014654Y005671D01*
X014780Y005545D01*
X014848Y005380D01*
X014848Y005201D01*
X014780Y005036D01*
X014654Y004910D01*
X014489Y004842D01*
X014310Y004842D01*
X014145Y004910D01*
X014019Y005036D01*
X013951Y005201D01*
X013951Y005380D01*
X013985Y005462D01*
X013948Y005500D01*
X013948Y004526D01*
X013964Y004557D01*
X014011Y004622D01*
X014068Y004679D01*
X014133Y004726D01*
X014204Y004762D01*
X014280Y004787D01*
X014360Y004800D01*
X014360Y004800D01*
X014360Y004330D01*
X014439Y004330D01*
X014439Y004800D01*
X014440Y004800D01*
X014519Y004787D01*
X014595Y004762D01*
X014667Y004726D01*
X014731Y004679D01*
X014788Y004622D01*
X014835Y004557D01*
X014872Y004486D01*
X014896Y004410D01*
X014909Y004330D01*
X014909Y004330D01*
X014439Y004330D01*
X014439Y004251D01*
X014909Y004251D01*
X014909Y004250D01*
X014896Y004171D01*
X014872Y004095D01*
X014835Y004023D01*
X014788Y003959D01*
X014731Y003902D01*
X014667Y003855D01*
X014595Y003818D01*
X014519Y003794D01*
X014440Y003781D01*
X014439Y003781D01*
X014439Y004251D01*
X014360Y004251D01*
X014360Y003781D01*
X014360Y003781D01*
X014280Y003794D01*
X014204Y003818D01*
X014133Y003855D01*
X014068Y003902D01*
X014011Y003959D01*
X013964Y004023D01*
X013948Y004055D01*
X013948Y003938D01*
X014195Y003691D01*
X014310Y003739D01*
X014489Y003739D01*
X014654Y003671D01*
X014780Y003545D01*
X014848Y003380D01*
X014848Y003201D01*
X014780Y003036D01*
X014654Y002910D01*
X014785Y003049D02*
X015009Y003049D01*
X015009Y003127D02*
X014817Y003127D01*
X014848Y003204D02*
X015009Y003204D01*
X015009Y003281D02*
X014848Y003281D01*
X014848Y003358D02*
X015009Y003358D01*
X015009Y003435D02*
X014825Y003435D01*
X014793Y003513D02*
X015009Y003513D01*
X015009Y003590D02*
X014735Y003590D01*
X014657Y003667D02*
X015009Y003667D01*
X015009Y003744D02*
X014142Y003744D01*
X014197Y003822D02*
X014065Y003822D01*
X014072Y003899D02*
X013987Y003899D01*
X013998Y003976D02*
X013948Y003976D01*
X013948Y004053D02*
X013949Y004053D01*
X013749Y003744D02*
X013618Y003744D01*
X013615Y003740D02*
X013634Y003772D01*
X013643Y003807D01*
X013643Y003983D01*
X013268Y003983D01*
X013268Y004062D01*
X013643Y004062D01*
X013643Y004238D01*
X013634Y004273D01*
X013615Y004305D01*
X013590Y004331D01*
X013558Y004349D01*
X013522Y004359D01*
X013268Y004359D01*
X013268Y004062D01*
X013189Y004062D01*
X013189Y004359D01*
X012934Y004359D01*
X012899Y004349D01*
X012867Y004331D01*
X012841Y004305D01*
X012823Y004273D01*
X012813Y004238D01*
X012813Y004062D01*
X013189Y004062D01*
X013189Y003983D01*
X013268Y003983D01*
X013268Y003686D01*
X013522Y003686D01*
X013558Y003696D01*
X013590Y003714D01*
X013615Y003740D01*
X013643Y003822D02*
X013672Y003822D01*
X013670Y003899D02*
X013643Y003899D01*
X013643Y003976D02*
X013670Y003976D01*
X013670Y004053D02*
X013268Y004053D01*
X013268Y003976D02*
X013189Y003976D01*
X013189Y003983D02*
X013189Y003686D01*
X012934Y003686D01*
X012899Y003696D01*
X012867Y003714D01*
X012841Y003740D01*
X012823Y003772D01*
X012813Y003807D01*
X012813Y003983D01*
X013189Y003983D01*
X013189Y004053D02*
X010700Y004053D01*
X010936Y003976D02*
X012813Y003976D01*
X012813Y003899D02*
X011013Y003899D01*
X011035Y003822D02*
X012813Y003822D01*
X012839Y003744D02*
X011055Y003744D01*
X011132Y003667D02*
X013827Y003667D01*
X013904Y003590D02*
X011210Y003590D01*
X011287Y003513D02*
X013981Y003513D01*
X013974Y003435D02*
X011364Y003435D01*
X011441Y003358D02*
X013951Y003358D01*
X013951Y003281D02*
X011519Y003281D01*
X011596Y003204D02*
X012783Y003204D01*
X012738Y003127D02*
X011805Y003127D01*
X011862Y003049D02*
X012735Y003049D01*
X012735Y002972D02*
X011862Y002972D01*
X011862Y002895D02*
X012735Y002895D01*
X012735Y002740D02*
X011710Y002740D01*
X011787Y002663D02*
X012735Y002663D01*
X012735Y002586D02*
X011864Y002586D01*
X011941Y002509D02*
X012746Y002509D01*
X013130Y002818D02*
X011791Y002818D01*
X011644Y002979D02*
X011624Y002979D01*
X010817Y003786D01*
X010455Y003435D02*
X009479Y003435D01*
X009479Y003358D02*
X010532Y003358D01*
X010610Y003281D02*
X009479Y003281D01*
X009479Y003204D02*
X010687Y003204D01*
X010764Y003127D02*
X009479Y003127D01*
X009479Y003049D02*
X010841Y003049D01*
X010919Y002972D02*
X009479Y002972D01*
X009479Y002895D02*
X010996Y002895D01*
X011073Y002818D02*
X009479Y002818D01*
X009479Y002740D02*
X011150Y002740D01*
X011228Y002663D02*
X009513Y002663D01*
X009479Y002697D02*
X009479Y003616D01*
X009559Y003696D01*
X009559Y003877D01*
X009431Y004005D01*
X009250Y004005D01*
X009122Y003877D01*
X009122Y003696D01*
X009202Y003616D01*
X009202Y002697D01*
X009122Y002617D01*
X009122Y002436D01*
X009250Y002308D01*
X009431Y002308D01*
X009559Y002436D01*
X009559Y002617D01*
X009479Y002697D01*
X009559Y002586D02*
X011305Y002586D01*
X011382Y002509D02*
X009559Y002509D01*
X009554Y002431D02*
X011459Y002431D01*
X011536Y002354D02*
X009477Y002354D01*
X009341Y002527D02*
X009341Y003786D01*
X009559Y003822D02*
X010304Y003822D01*
X010304Y003899D02*
X009537Y003899D01*
X009460Y003976D02*
X010304Y003976D01*
X010304Y004053D02*
X008397Y004053D01*
X008397Y003976D02*
X009221Y003976D01*
X009144Y003899D02*
X008454Y003899D01*
X008476Y003822D02*
X009122Y003822D01*
X009122Y003744D02*
X008496Y003744D01*
X008573Y003667D02*
X009151Y003667D01*
X009202Y003590D02*
X008651Y003590D01*
X008712Y003513D02*
X009202Y003513D01*
X009202Y003435D02*
X008712Y003435D01*
X008712Y003358D02*
X009202Y003358D01*
X009202Y003281D02*
X008712Y003281D01*
X008712Y003204D02*
X009202Y003204D01*
X009202Y003127D02*
X008712Y003127D01*
X008712Y003049D02*
X009202Y003049D01*
X009202Y002972D02*
X008712Y002972D01*
X008712Y002895D02*
X009202Y002895D01*
X009202Y002818D02*
X008712Y002818D01*
X008712Y002740D02*
X009202Y002740D01*
X009168Y002663D02*
X008712Y002663D01*
X008712Y002586D02*
X009122Y002586D01*
X009122Y002509D02*
X008712Y002509D01*
X008712Y002431D02*
X009127Y002431D01*
X009204Y002354D02*
X008712Y002354D01*
X008712Y002277D02*
X011614Y002277D01*
X011691Y002200D02*
X008712Y002200D01*
X008680Y002122D02*
X011768Y002122D01*
X013130Y002895D02*
X013209Y002895D01*
X013209Y002972D02*
X013130Y002972D01*
X013130Y003049D02*
X013209Y003049D01*
X013209Y003127D02*
X013130Y003127D01*
X013130Y003204D02*
X013209Y003204D01*
X013209Y002818D02*
X015009Y002818D01*
X015009Y002740D02*
X013604Y002740D01*
X013604Y002663D02*
X014138Y002663D01*
X014060Y002586D02*
X013604Y002586D01*
X013592Y002509D02*
X014004Y002509D01*
X014182Y002895D02*
X013604Y002895D01*
X013604Y002972D02*
X014083Y002972D01*
X014014Y003049D02*
X013604Y003049D01*
X013601Y003127D02*
X013982Y003127D01*
X013951Y003204D02*
X013555Y003204D01*
X013268Y003744D02*
X013189Y003744D01*
X013189Y003822D02*
X013268Y003822D01*
X013268Y003899D02*
X013189Y003899D01*
X013189Y004131D02*
X013268Y004131D01*
X013268Y004208D02*
X013189Y004208D01*
X013189Y004285D02*
X013268Y004285D01*
X012830Y004285D02*
X011343Y004285D01*
X011420Y004362D02*
X013670Y004362D01*
X013670Y004285D02*
X013627Y004285D01*
X013643Y004208D02*
X013670Y004208D01*
X013670Y004131D02*
X013643Y004131D01*
X013670Y004440D02*
X011582Y004440D01*
X011659Y004517D02*
X013670Y004517D01*
X013670Y004594D02*
X011665Y004594D01*
X011665Y004671D02*
X013670Y004671D01*
X013670Y004749D02*
X011620Y004749D01*
X011543Y004826D02*
X013670Y004826D01*
X013670Y004903D02*
X010956Y004903D01*
X010956Y004826D02*
X011351Y004826D01*
X011273Y004749D02*
X010956Y004749D01*
X010956Y004671D02*
X011228Y004671D01*
X011204Y004594D02*
X011027Y004594D01*
X011035Y004517D02*
X011126Y004517D01*
X011049Y004440D02*
X011035Y004440D01*
X011266Y004208D02*
X012813Y004208D01*
X012813Y004131D02*
X011188Y004131D01*
X010817Y004495D02*
X010817Y006424D01*
X010896Y006503D01*
X010896Y007094D01*
X010659Y007330D01*
X010148Y007330D01*
X009823Y007251D02*
X007943Y007251D01*
X007707Y007487D01*
X007729Y007269D02*
X007616Y007269D01*
X007488Y007397D01*
X007488Y007544D01*
X007419Y007544D01*
X007291Y007672D01*
X007291Y007853D01*
X007298Y007860D01*
X006977Y007860D01*
X006349Y007233D01*
X006349Y007226D01*
X006356Y007233D01*
X006537Y007233D01*
X006558Y007213D01*
X007785Y007213D01*
X007729Y007269D01*
X007777Y007220D02*
X006550Y007220D01*
X006414Y007297D02*
X007588Y007297D01*
X007510Y007375D02*
X006491Y007375D01*
X006568Y007452D02*
X007488Y007452D01*
X007488Y007529D02*
X006646Y007529D01*
X006723Y007606D02*
X007357Y007606D01*
X007291Y007684D02*
X006800Y007684D01*
X006877Y007761D02*
X007291Y007761D01*
X007291Y007838D02*
X006955Y007838D01*
X006919Y007999D02*
X007392Y007999D01*
X007746Y008353D01*
X007746Y009849D01*
X007195Y010401D01*
X007195Y010637D01*
X007313Y010755D01*
X007667Y010755D01*
X007943Y011031D01*
X007943Y011542D01*
X008415Y012015D01*
X010384Y012015D01*
X010817Y012448D01*
X010817Y012684D01*
X010956Y012514D02*
X011035Y012594D01*
X011035Y012775D01*
X011028Y012782D01*
X011586Y012782D01*
X011692Y012676D01*
X011671Y012676D01*
X011543Y012548D01*
X011543Y012367D01*
X011671Y012239D01*
X011829Y012239D01*
X011347Y011757D01*
X011347Y010146D01*
X011429Y010065D01*
X011741Y009753D01*
X011822Y009671D01*
X011867Y009671D01*
X011947Y009592D01*
X012128Y009592D01*
X012256Y009720D01*
X012256Y009901D01*
X012189Y009968D01*
X012256Y010035D01*
X012256Y010215D01*
X012176Y010295D01*
X012176Y010694D01*
X012137Y010733D01*
X012217Y010733D01*
X012253Y010697D01*
X012277Y010673D01*
X012213Y010609D01*
X012213Y010428D01*
X012341Y010300D01*
X012522Y010300D01*
X012586Y010365D01*
X013592Y009359D01*
X013592Y008138D01*
X013789Y007941D01*
X013391Y007941D01*
X013476Y008027D01*
X013476Y008208D01*
X013348Y008336D01*
X013167Y008336D01*
X013088Y008256D01*
X012129Y008256D01*
X012049Y008336D01*
X012019Y008336D01*
X012095Y008411D01*
X012175Y008491D01*
X012218Y008491D01*
X012254Y008527D01*
X012290Y008491D01*
X012651Y008491D01*
X012683Y008523D01*
X012694Y008504D01*
X012720Y008478D01*
X012751Y008460D01*
X012787Y008450D01*
X012963Y008450D01*
X012963Y008806D01*
X013041Y008806D01*
X013041Y008450D01*
X013217Y008450D01*
X013253Y008460D01*
X013284Y008478D01*
X013310Y008504D01*
X013329Y008536D01*
X013338Y008571D01*
X013338Y008806D01*
X013041Y008806D01*
X013041Y008885D01*
X012963Y008885D01*
X012963Y009241D01*
X012787Y009241D01*
X012751Y009231D01*
X012720Y009213D01*
X012697Y009190D01*
X012697Y009193D01*
X012651Y009239D01*
X012290Y009239D01*
X012254Y009203D01*
X012218Y009239D01*
X011867Y009239D01*
X011864Y009246D01*
X011838Y009272D01*
X011806Y009290D01*
X011770Y009300D01*
X011639Y009300D01*
X011639Y008900D01*
X011570Y008900D01*
X011570Y009300D01*
X011438Y009300D01*
X011403Y009290D01*
X011371Y009272D01*
X011345Y009246D01*
X011341Y009239D01*
X011212Y009239D01*
X011212Y009241D01*
X011212Y009377D01*
X011212Y009513D01*
X011203Y009549D01*
X011188Y009574D01*
X011203Y009599D01*
X011212Y009634D01*
X011212Y009771D01*
X011212Y009907D01*
X011203Y009943D01*
X011188Y009968D01*
X011203Y009992D01*
X011212Y010028D01*
X011212Y010164D01*
X010994Y010164D01*
X010994Y010164D01*
X010994Y010028D01*
X010994Y009771D01*
X010994Y009771D01*
X010994Y010164D01*
X010994Y010164D01*
X011212Y010164D01*
X011212Y010301D01*
X011203Y010336D01*
X011184Y010368D01*
X011172Y010381D01*
X011184Y010394D01*
X011203Y010426D01*
X011212Y010461D01*
X011212Y010597D01*
X010994Y010597D01*
X010994Y010597D01*
X010994Y010340D01*
X010994Y010164D01*
X010994Y010164D01*
X010994Y010597D01*
X010994Y010597D01*
X011212Y010597D01*
X011212Y010734D01*
X011203Y010769D01*
X011184Y010801D01*
X011158Y010827D01*
X011127Y010845D01*
X011119Y010847D01*
X011152Y010880D01*
X011152Y011181D01*
X011133Y011200D01*
X011133Y011226D01*
X011052Y011307D01*
X010953Y011405D01*
X010405Y011405D01*
X010324Y011324D01*
X010268Y011269D01*
X010254Y011269D01*
X010126Y011141D01*
X010126Y010960D01*
X010222Y010864D01*
X009391Y010864D01*
X009391Y010939D01*
X009411Y010960D01*
X009411Y011045D01*
X009415Y011049D01*
X009415Y011171D01*
X009454Y011210D01*
X009454Y011432D01*
X009421Y011465D01*
X009429Y011467D01*
X009461Y011485D01*
X009487Y011511D01*
X009505Y011543D01*
X009514Y011578D01*
X009514Y011675D01*
X009257Y011675D01*
X009257Y011675D01*
X009514Y011675D01*
X009514Y011772D01*
X009505Y011808D01*
X009487Y011840D01*
X009461Y011865D01*
X009442Y011876D01*
X010441Y011876D01*
X010874Y012309D01*
X010956Y012390D01*
X010956Y012514D01*
X010956Y012473D02*
X011543Y012473D01*
X011545Y012550D02*
X010992Y012550D01*
X011035Y012627D02*
X011622Y012627D01*
X011663Y012704D02*
X011035Y012704D01*
X010956Y012395D02*
X011543Y012395D01*
X011592Y012318D02*
X010883Y012318D01*
X010806Y012241D02*
X011670Y012241D01*
X011754Y012164D02*
X010729Y012164D01*
X010652Y012086D02*
X011677Y012086D01*
X011599Y012009D02*
X010574Y012009D01*
X010497Y011932D02*
X011522Y011932D01*
X011445Y011855D02*
X009471Y011855D01*
X009513Y011777D02*
X011368Y011777D01*
X011347Y011700D02*
X009514Y011700D01*
X009514Y011623D02*
X011347Y011623D01*
X011347Y011546D02*
X009506Y011546D01*
X009432Y011468D02*
X011347Y011468D01*
X011347Y011391D02*
X010967Y011391D01*
X011045Y011314D02*
X011347Y011314D01*
X011347Y011237D02*
X011122Y011237D01*
X011152Y011160D02*
X011347Y011160D01*
X011347Y011082D02*
X011152Y011082D01*
X011152Y011005D02*
X011347Y011005D01*
X011347Y010928D02*
X011152Y010928D01*
X011122Y010851D02*
X011347Y010851D01*
X011347Y010773D02*
X011200Y010773D01*
X011212Y010696D02*
X011347Y010696D01*
X011347Y010619D02*
X011212Y010619D01*
X011212Y010542D02*
X011347Y010542D01*
X011347Y010464D02*
X011212Y010464D01*
X011178Y010387D02*
X011347Y010387D01*
X011347Y010310D02*
X011210Y010310D01*
X011212Y010233D02*
X011347Y010233D01*
X011347Y010155D02*
X011212Y010155D01*
X011212Y010078D02*
X011416Y010078D01*
X011429Y010065D02*
X011429Y010065D01*
X011493Y010001D02*
X011205Y010001D01*
X011208Y009924D02*
X011570Y009924D01*
X011647Y009846D02*
X011212Y009846D01*
X011212Y009771D02*
X010994Y009771D01*
X010994Y009771D01*
X011212Y009771D01*
X011212Y009769D02*
X011725Y009769D01*
X011802Y009692D02*
X011212Y009692D01*
X011207Y009615D02*
X011924Y009615D01*
X011880Y009810D02*
X012037Y009810D01*
X011880Y009810D02*
X011486Y010204D01*
X011486Y011700D01*
X011998Y012212D01*
X011998Y012566D01*
X011644Y012920D01*
X010423Y012920D01*
X010226Y012723D01*
X010226Y012487D01*
X010069Y012330D01*
X008258Y012330D01*
X007628Y011700D01*
X007628Y011188D01*
X007510Y011070D01*
X007077Y011070D01*
X005226Y009219D01*
X004400Y009219D01*
X004242Y009062D01*
X003140Y009062D01*
X002982Y009219D01*
X002785Y009219D01*
X002549Y008983D01*
X002381Y008842D02*
X002019Y008842D01*
X002019Y008765D02*
X002459Y008765D01*
X002530Y008688D02*
X002019Y008688D01*
X002019Y008611D02*
X002453Y008611D01*
X002376Y008533D02*
X002019Y008533D01*
X002019Y008456D02*
X002298Y008456D01*
X002221Y008379D02*
X002019Y008379D01*
X002019Y008302D02*
X002214Y008302D01*
X002214Y008224D02*
X002019Y008224D01*
X002019Y008147D02*
X002214Y008147D01*
X002214Y008070D02*
X002019Y008070D01*
X002019Y007993D02*
X002214Y007993D01*
X002214Y007915D02*
X002019Y007915D01*
X002019Y007838D02*
X002214Y007838D01*
X002160Y007761D02*
X002019Y007761D01*
X002019Y007684D02*
X002082Y007684D01*
X002055Y007606D02*
X002019Y007606D01*
X002019Y007529D02*
X002055Y007529D01*
X002079Y007452D02*
X002019Y007452D01*
X002019Y007375D02*
X002156Y007375D01*
X002134Y007297D02*
X002019Y007297D01*
X002019Y007220D02*
X002134Y007220D01*
X002151Y007143D02*
X002019Y007143D01*
X002019Y007066D02*
X002229Y007066D01*
X002352Y007251D02*
X002510Y007408D01*
X002510Y008235D01*
X002864Y008590D01*
X004478Y008590D01*
X004557Y008511D01*
X004478Y008747D02*
X004557Y008826D01*
X004478Y008747D02*
X002785Y008747D01*
X002352Y008314D01*
X002352Y007645D01*
X002274Y007566D01*
X002476Y007066D02*
X002583Y007066D01*
X002707Y007251D02*
X002707Y008196D01*
X002943Y008432D01*
X004242Y008432D01*
X004990Y007684D01*
X005856Y007684D01*
X005935Y007605D01*
X006053Y007605D01*
X006841Y008393D01*
X007234Y008393D01*
X007313Y008156D02*
X007589Y008432D01*
X007589Y009771D01*
X007037Y010322D01*
X007037Y010716D01*
X007234Y010912D01*
X007589Y010912D01*
X007785Y011109D01*
X007785Y011621D01*
X008337Y012172D01*
X010187Y012172D01*
X010502Y012487D01*
X010502Y012684D01*
X010320Y013013D02*
X010287Y013013D01*
X010287Y013091D02*
X013930Y013091D01*
X013928Y013095D02*
X013964Y013023D01*
X014011Y012959D01*
X014068Y012902D01*
X014133Y012855D01*
X014204Y012818D01*
X014280Y012794D01*
X014360Y012781D01*
X014360Y013251D01*
X013890Y013251D01*
X013890Y013250D01*
X013903Y013171D01*
X013928Y013095D01*
X013904Y013168D02*
X010248Y013168D01*
X010171Y013245D02*
X010606Y013245D01*
X010529Y013322D02*
X009981Y013322D01*
X009904Y013399D02*
X010452Y013399D01*
X010374Y013477D02*
X009827Y013477D01*
X009596Y013511D02*
X010069Y013038D01*
X009833Y012842D02*
X009321Y013353D01*
X005974Y013353D01*
X004360Y014968D01*
X004203Y014968D01*
X004045Y015125D01*
X004045Y015164D01*
X003809Y015401D01*
X003022Y015401D01*
X002707Y015086D01*
X002470Y015007D02*
X002470Y015282D01*
X002628Y015440D01*
X002313Y015637D02*
X002313Y014928D01*
X003022Y014219D01*
X003022Y010243D01*
X002825Y010046D01*
X002825Y009613D01*
X003219Y009219D01*
X004163Y009219D01*
X004321Y009377D01*
X004990Y009377D01*
X006841Y011198D01*
X006949Y011306D01*
X007392Y011306D01*
X007077Y011542D02*
X006949Y011542D01*
X006919Y011513D01*
X004951Y009534D01*
X004242Y009534D01*
X004085Y009377D01*
X003297Y009377D01*
X002982Y009692D01*
X002982Y009968D01*
X003179Y010164D01*
X003179Y014298D01*
X002470Y015007D01*
X002174Y015022D02*
X001743Y015022D01*
X001743Y015099D02*
X002174Y015099D01*
X002174Y015176D02*
X001743Y015176D01*
X001743Y015253D02*
X002174Y015253D01*
X002174Y015330D02*
X001743Y015330D01*
X001743Y015408D02*
X002174Y015408D01*
X002156Y015485D02*
X001743Y015485D01*
X001743Y015562D02*
X002095Y015562D01*
X002095Y015639D02*
X001743Y015639D01*
X001743Y015717D02*
X002095Y015717D01*
X002161Y015794D02*
X001743Y015794D01*
X001743Y015871D02*
X002232Y015871D01*
X002155Y015948D02*
X001743Y015948D01*
X001743Y016026D02*
X002078Y016026D01*
X002000Y016103D02*
X001743Y016103D01*
X001743Y016180D02*
X001923Y016180D01*
X001879Y016257D02*
X001743Y016257D01*
X001743Y016335D02*
X001879Y016335D01*
X001879Y016412D02*
X001743Y016412D01*
X001743Y016489D02*
X001879Y016489D01*
X001879Y016566D02*
X001743Y016566D01*
X001743Y016644D02*
X001879Y016644D01*
X001879Y016721D02*
X001743Y016721D01*
X001743Y016798D02*
X001879Y016798D01*
X001879Y016875D02*
X001743Y016875D01*
X001743Y016953D02*
X001879Y016953D01*
X001879Y017030D02*
X001743Y017030D01*
X001743Y017107D02*
X001879Y017107D01*
X001879Y017184D02*
X001743Y017184D01*
X001743Y017261D02*
X001879Y017261D01*
X001877Y017339D02*
X001743Y017339D01*
X001743Y017416D02*
X001858Y017416D01*
X001858Y017493D02*
X001743Y017493D01*
X001743Y017570D02*
X001891Y017570D01*
X001968Y017648D02*
X001743Y017648D01*
X001743Y017725D02*
X005187Y017725D01*
X005187Y017802D02*
X001743Y017802D01*
X001743Y017879D02*
X005187Y017879D01*
X005187Y017957D02*
X001743Y017957D01*
X001743Y018034D02*
X005187Y018034D01*
X005187Y018111D02*
X001743Y018111D01*
X001743Y018188D02*
X005187Y018188D01*
X005187Y018266D02*
X001743Y018266D01*
X001743Y018343D02*
X005187Y018343D01*
X005187Y018420D02*
X001743Y018420D01*
X001743Y018497D02*
X005187Y018497D01*
X005187Y018575D02*
X001743Y018575D01*
X001743Y018652D02*
X005187Y018652D01*
X005187Y018729D02*
X001743Y018729D01*
X001743Y018806D02*
X005187Y018806D01*
X005187Y018884D02*
X001743Y018884D01*
X001743Y018961D02*
X005187Y018961D01*
X005187Y019038D02*
X001743Y019038D01*
X001743Y019115D02*
X005187Y019115D01*
X005187Y019193D02*
X001743Y019193D01*
X001743Y019270D02*
X005187Y019270D01*
X005187Y019347D02*
X001743Y019347D01*
X001743Y019424D02*
X005187Y019424D01*
X005187Y019501D02*
X001743Y019501D01*
X001743Y019579D02*
X005187Y019579D01*
X005187Y019656D02*
X001743Y019656D01*
X001743Y019733D02*
X005187Y019733D01*
X005187Y019810D02*
X001743Y019810D01*
X001743Y019888D02*
X005187Y019888D01*
X005187Y019965D02*
X001743Y019965D01*
X001743Y020042D02*
X005187Y020042D01*
X005187Y020119D02*
X001743Y020119D01*
X001743Y020197D02*
X005187Y020197D01*
X005187Y020274D02*
X001743Y020274D01*
X001743Y020351D02*
X005187Y020351D01*
X005187Y020428D02*
X001743Y020428D01*
X001743Y020506D02*
X005187Y020506D01*
X005187Y020583D02*
X001743Y020583D01*
X001743Y020660D02*
X005187Y020660D01*
X005187Y020737D02*
X001743Y020737D01*
X001743Y020815D02*
X005187Y020815D01*
X005187Y020892D02*
X001743Y020892D01*
X001743Y020969D02*
X005187Y020969D01*
X005187Y021046D02*
X001743Y021046D01*
X001743Y021124D02*
X005187Y021124D01*
X006998Y018188D02*
X008001Y018188D01*
X008001Y018155D02*
X008001Y018262D01*
X007921Y018342D01*
X007921Y018523D01*
X008049Y018651D01*
X008230Y018651D01*
X008358Y018523D01*
X008358Y018342D01*
X008279Y018262D01*
X008279Y018040D01*
X008121Y017882D01*
X008121Y017303D01*
X008201Y017223D01*
X008201Y017042D01*
X008174Y017016D01*
X008648Y017016D01*
X009596Y017963D01*
X009711Y018079D01*
X010343Y018079D01*
X010381Y018117D01*
X010676Y018117D01*
X010699Y018095D01*
X010721Y018117D01*
X011016Y018117D01*
X011055Y018079D01*
X011447Y018079D01*
X011447Y019908D01*
X010838Y019908D01*
X010642Y020103D01*
X010530Y020103D01*
X010402Y020231D01*
X010402Y020412D01*
X010530Y020540D01*
X010711Y020540D01*
X010839Y020412D01*
X010839Y020300D01*
X010953Y020185D01*
X011138Y020185D01*
X011019Y020304D01*
X010951Y020469D01*
X010951Y020647D01*
X011019Y020812D01*
X011145Y020938D01*
X011310Y021007D01*
X011489Y021007D01*
X011654Y020938D01*
X011780Y020812D01*
X011848Y020647D01*
X011848Y020469D01*
X011780Y020304D01*
X011661Y020185D01*
X012138Y020185D01*
X012019Y020304D01*
X011951Y020469D01*
X011951Y020647D01*
X012019Y020812D01*
X012145Y020938D01*
X012310Y021007D01*
X012489Y021007D01*
X012654Y020938D01*
X012780Y020812D01*
X012848Y020647D01*
X012848Y020469D01*
X012780Y020304D01*
X012661Y020185D01*
X013052Y020185D01*
X013011Y020226D01*
X012964Y020291D01*
X012928Y020363D01*
X012903Y020439D01*
X012890Y020518D01*
X012890Y020519D01*
X013360Y020519D01*
X013360Y020597D01*
X012890Y020597D01*
X012890Y020598D01*
X012903Y020677D01*
X012928Y020754D01*
X012964Y020825D01*
X013011Y020890D01*
X013068Y020947D01*
X013133Y020994D01*
X013204Y021030D01*
X013280Y021055D01*
X013360Y021067D01*
X013360Y021067D01*
X013360Y020597D01*
X013439Y020597D01*
X013909Y020597D01*
X013909Y020598D01*
X013896Y020677D01*
X013872Y020754D01*
X013835Y020825D01*
X013788Y020890D01*
X013731Y020947D01*
X013667Y020994D01*
X013595Y021030D01*
X013519Y021055D01*
X013440Y021067D01*
X013439Y021067D01*
X013439Y020597D01*
X013439Y020519D01*
X013909Y020519D01*
X013909Y020518D01*
X013896Y020439D01*
X013872Y020363D01*
X013835Y020291D01*
X013788Y020226D01*
X013747Y020185D01*
X013827Y020185D01*
X014338Y019674D01*
X014451Y019674D01*
X014579Y019546D01*
X014579Y019365D01*
X014451Y019237D01*
X014270Y019237D01*
X014142Y019365D01*
X014142Y019478D01*
X013712Y019908D01*
X013573Y019908D01*
X013573Y017140D01*
X013527Y017094D01*
X011493Y017094D01*
X011447Y017140D01*
X011447Y017683D01*
X011055Y017683D01*
X011016Y017645D01*
X010721Y017645D01*
X010699Y017667D01*
X010676Y017645D01*
X010381Y017645D01*
X010343Y017683D01*
X009875Y017683D01*
X009445Y017253D01*
X009451Y017253D01*
X009579Y017125D01*
X009579Y016944D01*
X009500Y016865D01*
X009518Y016847D01*
X009518Y016552D01*
X009508Y016542D01*
X009518Y016532D01*
X009518Y016237D01*
X009508Y016227D01*
X009518Y016217D01*
X009518Y015922D01*
X009510Y015914D01*
X009579Y015845D01*
X009579Y015664D01*
X009451Y015536D01*
X009270Y015536D01*
X009142Y015664D01*
X009142Y015845D01*
X009143Y015846D01*
X009143Y015876D01*
X009091Y015876D01*
X009045Y015922D01*
X009045Y016194D01*
X009018Y016166D01*
X008837Y016166D01*
X008709Y016294D01*
X008709Y016475D01*
X008837Y016603D01*
X009018Y016603D01*
X009045Y016576D01*
X009045Y016847D01*
X009091Y016894D01*
X009143Y016894D01*
X009143Y016943D01*
X009142Y016944D01*
X009142Y016950D01*
X008812Y016620D01*
X007316Y016620D01*
X007138Y016442D01*
X007138Y016412D01*
X007010Y016285D01*
X006829Y016285D01*
X006701Y016412D01*
X006701Y016593D01*
X006829Y016721D01*
X006858Y016721D01*
X007036Y016900D01*
X007152Y017016D01*
X007791Y017016D01*
X007764Y017042D01*
X007764Y017223D01*
X007844Y017303D01*
X007844Y017997D01*
X008001Y018155D01*
X007957Y018111D02*
X006998Y018111D01*
X006998Y018034D02*
X007880Y018034D01*
X007844Y017957D02*
X006998Y017957D01*
X006998Y017879D02*
X007844Y017879D01*
X007844Y017802D02*
X006998Y017802D01*
X006998Y017725D02*
X007844Y017725D01*
X007844Y017648D02*
X006998Y017648D01*
X006998Y017570D02*
X007844Y017570D01*
X007844Y017493D02*
X006998Y017493D01*
X006998Y017416D02*
X007844Y017416D01*
X007844Y017339D02*
X002277Y017339D01*
X002275Y017261D02*
X007802Y017261D01*
X007764Y017184D02*
X002275Y017184D01*
X002275Y017107D02*
X004144Y017107D01*
X004066Y017030D02*
X002275Y017030D01*
X002275Y016953D02*
X004063Y016953D01*
X004063Y016875D02*
X002275Y016875D01*
X002275Y016798D02*
X004111Y016798D01*
X004188Y016721D02*
X002275Y016721D01*
X002275Y016644D02*
X004378Y016644D01*
X004455Y016566D02*
X002275Y016566D01*
X002275Y016489D02*
X004532Y016489D01*
X004609Y016412D02*
X002275Y016412D01*
X002328Y016335D02*
X004687Y016335D01*
X004754Y016464D02*
X004282Y016936D01*
X004500Y016953D02*
X007089Y016953D01*
X007012Y016875D02*
X004538Y016875D01*
X004616Y016798D02*
X006935Y016798D01*
X006828Y016721D02*
X004693Y016721D01*
X004770Y016644D02*
X006751Y016644D01*
X006701Y016566D02*
X006462Y016566D01*
X006539Y016489D02*
X006701Y016489D01*
X006702Y016412D02*
X006616Y016412D01*
X006693Y016335D02*
X006779Y016335D01*
X006771Y016257D02*
X008746Y016257D01*
X008709Y016335D02*
X007060Y016335D01*
X007137Y016412D02*
X008709Y016412D01*
X008723Y016489D02*
X007185Y016489D01*
X007262Y016566D02*
X008800Y016566D01*
X008836Y016644D02*
X009045Y016644D01*
X009045Y016721D02*
X008913Y016721D01*
X008990Y016798D02*
X009045Y016798D01*
X009067Y016875D02*
X009073Y016875D01*
X009282Y016956D02*
X009360Y017034D01*
X009282Y016956D02*
X009282Y016700D01*
X009518Y016721D02*
X014674Y016721D01*
X014674Y016798D02*
X009518Y016798D01*
X009510Y016875D02*
X014674Y016875D01*
X014655Y016953D02*
X009579Y016953D01*
X009579Y017030D02*
X014577Y017030D01*
X014500Y017107D02*
X013540Y017107D01*
X013573Y017184D02*
X014423Y017184D01*
X014346Y017261D02*
X013573Y017261D01*
X013573Y017339D02*
X014268Y017339D01*
X014191Y017416D02*
X013573Y017416D01*
X013573Y017493D02*
X014162Y017493D01*
X014162Y017570D02*
X013573Y017570D01*
X013573Y017648D02*
X014162Y017648D01*
X014162Y017725D02*
X013573Y017725D01*
X013573Y017802D02*
X014162Y017802D01*
X014162Y017879D02*
X013573Y017879D01*
X013573Y017957D02*
X014162Y017957D01*
X014194Y018034D02*
X013573Y018034D01*
X013573Y018111D02*
X014271Y018111D01*
X014349Y018188D02*
X013573Y018188D01*
X013573Y018266D02*
X014417Y018266D01*
X014474Y018343D02*
X013573Y018343D01*
X013573Y018420D02*
X015009Y018420D01*
X015009Y018343D02*
X014798Y018343D01*
X014854Y018266D02*
X015009Y018266D01*
X015009Y018188D02*
X014854Y018188D01*
X014854Y018111D02*
X015009Y018111D01*
X015009Y018034D02*
X014783Y018034D01*
X014676Y017957D02*
X015009Y017957D01*
X015009Y017879D02*
X014599Y017879D01*
X014558Y017802D02*
X015009Y017802D01*
X015009Y017725D02*
X014558Y017725D01*
X014558Y017648D02*
X015009Y017648D01*
X015009Y017570D02*
X014596Y017570D01*
X014673Y017493D02*
X015009Y017493D01*
X015009Y017416D02*
X014751Y017416D01*
X014828Y017339D02*
X015009Y017339D01*
X015009Y017261D02*
X014905Y017261D01*
X014982Y017184D02*
X015009Y017184D01*
X014674Y016644D02*
X009518Y016644D01*
X009518Y016566D02*
X014674Y016566D01*
X014674Y016489D02*
X009518Y016489D01*
X009518Y016412D02*
X014674Y016412D01*
X014674Y016335D02*
X009518Y016335D01*
X009518Y016257D02*
X014674Y016257D01*
X014674Y016180D02*
X009518Y016180D01*
X009518Y016103D02*
X014674Y016103D01*
X014666Y016026D02*
X009518Y016026D01*
X009518Y015948D02*
X014077Y015948D01*
X014000Y015871D02*
X009553Y015871D01*
X009579Y015794D02*
X013923Y015794D01*
X013845Y015717D02*
X009579Y015717D01*
X009554Y015639D02*
X013768Y015639D01*
X013691Y015562D02*
X009476Y015562D01*
X009360Y015755D02*
X009282Y015834D01*
X009282Y016070D01*
X009045Y016103D02*
X006925Y016103D01*
X006848Y016180D02*
X008823Y016180D01*
X008690Y016026D02*
X009045Y016026D01*
X009045Y015948D02*
X008752Y015948D01*
X008752Y015871D02*
X009143Y015871D01*
X009142Y015794D02*
X008752Y015794D01*
X008686Y015717D02*
X009142Y015717D01*
X009167Y015639D02*
X007945Y015639D01*
X007868Y015562D02*
X009244Y015562D01*
X009045Y016180D02*
X009031Y016180D01*
X008927Y016385D02*
X009282Y016385D01*
X009579Y017107D02*
X011479Y017107D01*
X011447Y017184D02*
X009519Y017184D01*
X009454Y017261D02*
X011447Y017261D01*
X011447Y017339D02*
X009531Y017339D01*
X009608Y017416D02*
X011447Y017416D01*
X011447Y017493D02*
X009685Y017493D01*
X009763Y017570D02*
X011447Y017570D01*
X011447Y017648D02*
X011019Y017648D01*
X010718Y017648D02*
X010679Y017648D01*
X010378Y017648D02*
X009840Y017648D01*
X009589Y017957D02*
X008195Y017957D01*
X008121Y017879D02*
X009512Y017879D01*
X009435Y017802D02*
X008121Y017802D01*
X008121Y017725D02*
X009358Y017725D01*
X009280Y017648D02*
X008121Y017648D01*
X008121Y017570D02*
X009203Y017570D01*
X009126Y017493D02*
X008121Y017493D01*
X008121Y017416D02*
X009049Y017416D01*
X008971Y017339D02*
X008121Y017339D01*
X008163Y017261D02*
X008894Y017261D01*
X008817Y017184D02*
X008201Y017184D01*
X008201Y017107D02*
X008740Y017107D01*
X008662Y017030D02*
X008188Y017030D01*
X007982Y017133D02*
X007982Y017940D01*
X008140Y018097D01*
X008140Y018432D01*
X008358Y018420D02*
X011447Y018420D01*
X011447Y018343D02*
X008358Y018343D01*
X008282Y018266D02*
X011447Y018266D01*
X011447Y018188D02*
X008279Y018188D01*
X008279Y018111D02*
X010375Y018111D01*
X010682Y018111D02*
X010715Y018111D01*
X011022Y018111D02*
X011447Y018111D01*
X011447Y018497D02*
X008358Y018497D01*
X008306Y018575D02*
X011447Y018575D01*
X011447Y018652D02*
X007864Y018652D01*
X007864Y018729D02*
X011447Y018729D01*
X011447Y018806D02*
X007864Y018806D01*
X007864Y018884D02*
X011447Y018884D01*
X011447Y018961D02*
X007864Y018961D01*
X007864Y019038D02*
X011447Y019038D01*
X011447Y019115D02*
X007864Y019115D01*
X007864Y019193D02*
X011447Y019193D01*
X011447Y019270D02*
X007864Y019270D01*
X007864Y019347D02*
X011447Y019347D01*
X011447Y019424D02*
X007864Y019424D01*
X007864Y019501D02*
X011447Y019501D01*
X011447Y019579D02*
X007864Y019579D01*
X007864Y019656D02*
X011447Y019656D01*
X011447Y019733D02*
X007864Y019733D01*
X007864Y019810D02*
X011447Y019810D01*
X011447Y019888D02*
X007864Y019888D01*
X007864Y019965D02*
X010781Y019965D01*
X010704Y020042D02*
X007864Y020042D01*
X007864Y020119D02*
X010514Y020119D01*
X010436Y020197D02*
X007864Y020197D01*
X007864Y020274D02*
X010402Y020274D01*
X010402Y020351D02*
X007864Y020351D01*
X007864Y020428D02*
X010418Y020428D01*
X010495Y020506D02*
X007864Y020506D01*
X007864Y020583D02*
X010951Y020583D01*
X010956Y020660D02*
X007864Y020660D01*
X007864Y020737D02*
X010988Y020737D01*
X011021Y020815D02*
X007864Y020815D01*
X007864Y020892D02*
X011099Y020892D01*
X011219Y020969D02*
X007864Y020969D01*
X007864Y021046D02*
X013254Y021046D01*
X013360Y021046D02*
X013439Y021046D01*
X013439Y020969D02*
X013360Y020969D01*
X013360Y020892D02*
X013439Y020892D01*
X013439Y020815D02*
X013360Y020815D01*
X013360Y020737D02*
X013439Y020737D01*
X013439Y020660D02*
X013360Y020660D01*
X013360Y020583D02*
X012848Y020583D01*
X012843Y020660D02*
X012900Y020660D01*
X012922Y020737D02*
X012811Y020737D01*
X012778Y020815D02*
X012959Y020815D01*
X013013Y020892D02*
X012701Y020892D01*
X012580Y020969D02*
X013099Y020969D01*
X012892Y020506D02*
X012848Y020506D01*
X012832Y020428D02*
X012906Y020428D01*
X012933Y020351D02*
X012800Y020351D01*
X012750Y020274D02*
X012976Y020274D01*
X013041Y020197D02*
X012673Y020197D01*
X012219Y020969D02*
X011580Y020969D01*
X011701Y020892D02*
X012099Y020892D01*
X012021Y020815D02*
X011778Y020815D01*
X011811Y020737D02*
X011988Y020737D01*
X011956Y020660D02*
X011843Y020660D01*
X011848Y020583D02*
X011951Y020583D01*
X011951Y020506D02*
X011848Y020506D01*
X011832Y020428D02*
X011968Y020428D01*
X012000Y020351D02*
X011800Y020351D01*
X011750Y020274D02*
X012049Y020274D01*
X012126Y020197D02*
X011673Y020197D01*
X011126Y020197D02*
X010942Y020197D01*
X010864Y020274D02*
X011049Y020274D01*
X011000Y020351D02*
X010839Y020351D01*
X010822Y020428D02*
X010968Y020428D01*
X010951Y020506D02*
X010745Y020506D01*
X010620Y020322D02*
X010896Y020046D01*
X013770Y020046D01*
X014360Y019456D01*
X014579Y019424D02*
X015009Y019424D01*
X015009Y019347D02*
X014560Y019347D01*
X014483Y019270D02*
X015009Y019270D01*
X015009Y019193D02*
X013573Y019193D01*
X013573Y019270D02*
X014237Y019270D01*
X014160Y019347D02*
X013573Y019347D01*
X013573Y019424D02*
X014142Y019424D01*
X014118Y019501D02*
X013573Y019501D01*
X013573Y019579D02*
X014041Y019579D01*
X013964Y019656D02*
X013573Y019656D01*
X013573Y019733D02*
X013887Y019733D01*
X013809Y019810D02*
X013573Y019810D01*
X013573Y019888D02*
X013732Y019888D01*
X013893Y020119D02*
X013987Y020119D01*
X013997Y020109D02*
X013951Y020155D01*
X013951Y020961D01*
X013997Y021007D01*
X014802Y021007D01*
X014848Y020961D01*
X014848Y020155D01*
X014802Y020109D01*
X013997Y020109D01*
X013970Y020042D02*
X015009Y020042D01*
X015009Y019965D02*
X014047Y019965D01*
X014124Y019888D02*
X015009Y019888D01*
X015009Y019810D02*
X014202Y019810D01*
X014279Y019733D02*
X015009Y019733D01*
X015009Y019656D02*
X014469Y019656D01*
X014546Y019579D02*
X015009Y019579D01*
X015009Y019501D02*
X014579Y019501D01*
X014812Y020119D02*
X015009Y020119D01*
X015009Y020197D02*
X014848Y020197D01*
X014848Y020274D02*
X015009Y020274D01*
X015009Y020351D02*
X014848Y020351D01*
X014848Y020428D02*
X015009Y020428D01*
X015009Y020506D02*
X014848Y020506D01*
X014848Y020583D02*
X015009Y020583D01*
X015009Y020660D02*
X014848Y020660D01*
X014848Y020737D02*
X015009Y020737D01*
X015009Y020815D02*
X014848Y020815D01*
X014848Y020892D02*
X015009Y020892D01*
X015009Y020969D02*
X014840Y020969D01*
X015009Y021046D02*
X013545Y021046D01*
X013701Y020969D02*
X013959Y020969D01*
X013951Y020892D02*
X013786Y020892D01*
X013841Y020815D02*
X013951Y020815D01*
X013951Y020737D02*
X013877Y020737D01*
X013899Y020660D02*
X013951Y020660D01*
X013951Y020583D02*
X013439Y020583D01*
X013866Y020351D02*
X013951Y020351D01*
X013951Y020274D02*
X013823Y020274D01*
X013759Y020197D02*
X013951Y020197D01*
X013951Y020428D02*
X013893Y020428D01*
X013907Y020506D02*
X013951Y020506D01*
X013573Y019115D02*
X015009Y019115D01*
X015009Y019038D02*
X013573Y019038D01*
X013573Y018961D02*
X015009Y018961D01*
X015009Y018884D02*
X013573Y018884D01*
X013573Y018806D02*
X015009Y018806D01*
X015009Y018729D02*
X013573Y018729D01*
X013573Y018652D02*
X015009Y018652D01*
X015009Y018575D02*
X013573Y018575D01*
X013573Y018497D02*
X015009Y018497D01*
X015009Y021124D02*
X007864Y021124D01*
X007864Y018575D02*
X007973Y018575D01*
X007921Y018497D02*
X007864Y018497D01*
X007864Y018420D02*
X007921Y018420D01*
X007921Y018343D02*
X007864Y018343D01*
X007864Y018266D02*
X007997Y018266D01*
X008272Y018034D02*
X009667Y018034D01*
X008377Y016026D02*
X007002Y016026D01*
X007080Y015948D02*
X007861Y015948D01*
X007784Y015871D02*
X007157Y015871D01*
X007234Y015794D02*
X007707Y015794D01*
X007630Y015717D02*
X007311Y015717D01*
X007373Y015639D02*
X007553Y015639D01*
X007713Y015408D02*
X013536Y015408D01*
X013459Y015330D02*
X007689Y015330D01*
X007671Y015253D02*
X013382Y015253D01*
X013305Y015176D02*
X007594Y015176D01*
X007569Y015099D02*
X013228Y015099D01*
X013121Y015022D02*
X007610Y015022D01*
X007610Y014944D02*
X013044Y014944D01*
X013039Y014867D02*
X007600Y014867D01*
X007523Y014790D02*
X011787Y014790D01*
X011789Y014792D02*
X011710Y014713D01*
X007091Y014713D01*
X007127Y014635D02*
X011194Y014635D01*
X011190Y014631D02*
X010839Y014280D01*
X010726Y014280D01*
X010599Y014152D01*
X010599Y013972D01*
X010726Y013844D01*
X010907Y013844D01*
X011035Y013972D01*
X011035Y014084D01*
X011386Y014435D01*
X011710Y014435D01*
X011789Y014355D01*
X011970Y014355D01*
X012098Y014483D01*
X012098Y014664D01*
X011970Y014792D01*
X011789Y014792D01*
X011710Y014713D02*
X011271Y014713D01*
X011190Y014631D01*
X011117Y014558D02*
X007138Y014558D01*
X007138Y014481D02*
X011040Y014481D01*
X010962Y014404D02*
X007097Y014404D01*
X007020Y014326D02*
X010885Y014326D01*
X010695Y014249D02*
X007120Y014249D01*
X007197Y014172D02*
X010618Y014172D01*
X010599Y014095D02*
X007216Y014095D01*
X007216Y014017D02*
X010599Y014017D01*
X010630Y013940D02*
X010470Y013940D01*
X010548Y013863D02*
X010707Y013863D01*
X010625Y013786D02*
X011009Y013786D01*
X011086Y013863D02*
X010927Y013863D01*
X011004Y013940D02*
X011163Y013940D01*
X011035Y014017D02*
X011477Y014017D01*
X011554Y014095D02*
X011046Y014095D01*
X011123Y014172D02*
X011602Y014172D01*
X011679Y014249D02*
X011200Y014249D01*
X011278Y014326D02*
X015009Y014326D01*
X015009Y014249D02*
X011884Y014249D01*
X011961Y014172D02*
X015009Y014172D01*
X015009Y014095D02*
X012000Y014095D01*
X012000Y014017D02*
X015009Y014017D01*
X015009Y013940D02*
X011988Y013940D01*
X011911Y013863D02*
X015009Y013863D01*
X015009Y013786D02*
X014524Y013786D01*
X014519Y013787D02*
X014440Y013800D01*
X014439Y013800D01*
X014439Y013330D01*
X014360Y013330D01*
X014360Y013800D01*
X014360Y013800D01*
X014280Y013787D01*
X014204Y013762D01*
X014133Y013726D01*
X014068Y013679D01*
X014011Y013622D01*
X013964Y013557D01*
X013928Y013486D01*
X013903Y013410D01*
X013890Y013330D01*
X014360Y013330D01*
X014360Y013251D01*
X014439Y013251D01*
X014439Y013330D01*
X014909Y013330D01*
X014909Y013330D01*
X014896Y013410D01*
X014872Y013486D01*
X014835Y013557D01*
X014788Y013622D01*
X014731Y013679D01*
X014667Y013726D01*
X014595Y013762D01*
X014519Y013787D01*
X014439Y013786D02*
X014360Y013786D01*
X014360Y013708D02*
X014439Y013708D01*
X014439Y013631D02*
X014360Y013631D01*
X014360Y013554D02*
X014439Y013554D01*
X014439Y013477D02*
X014360Y013477D01*
X014360Y013399D02*
X014439Y013399D01*
X014439Y013322D02*
X015009Y013322D01*
X015009Y013245D02*
X014908Y013245D01*
X014909Y013250D02*
X014909Y013251D01*
X014439Y013251D01*
X014439Y012781D01*
X014440Y012781D01*
X014519Y012794D01*
X014595Y012818D01*
X014667Y012855D01*
X014731Y012902D01*
X014788Y012959D01*
X014835Y013023D01*
X014872Y013095D01*
X014896Y013171D01*
X014909Y013250D01*
X014895Y013168D02*
X015009Y013168D01*
X015009Y013091D02*
X014869Y013091D01*
X014828Y013013D02*
X015009Y013013D01*
X015009Y012936D02*
X014766Y012936D01*
X014672Y012859D02*
X015009Y012859D01*
X015009Y012782D02*
X014443Y012782D01*
X014439Y012782D02*
X014360Y012782D01*
X014360Y012781D02*
X014360Y012781D01*
X014356Y012782D02*
X011979Y012782D01*
X011901Y012859D02*
X014127Y012859D01*
X014034Y012936D02*
X011824Y012936D01*
X011747Y013013D02*
X013971Y013013D01*
X013891Y013245D02*
X011028Y013245D01*
X011105Y013322D02*
X014360Y013322D01*
X014360Y013245D02*
X014439Y013245D01*
X014439Y013168D02*
X014360Y013168D01*
X014360Y013091D02*
X014439Y013091D01*
X014439Y013013D02*
X014360Y013013D01*
X014360Y012936D02*
X014439Y012936D01*
X014439Y012859D02*
X014360Y012859D01*
X014226Y012704D02*
X012056Y012704D01*
X012133Y012627D02*
X014102Y012627D01*
X014024Y012550D02*
X012137Y012550D01*
X012137Y012473D02*
X013989Y012473D01*
X013957Y012395D02*
X012137Y012395D01*
X012137Y012318D02*
X013951Y012318D01*
X013951Y012241D02*
X012137Y012241D01*
X012137Y012164D02*
X013966Y012164D01*
X013998Y012086D02*
X012069Y012086D01*
X011992Y012009D02*
X013922Y012009D01*
X013845Y011932D02*
X011915Y011932D01*
X011837Y011855D02*
X013768Y011855D01*
X013690Y011777D02*
X011760Y011777D01*
X011683Y011700D02*
X013613Y011700D01*
X013536Y011623D02*
X011625Y011623D01*
X011625Y011546D02*
X012041Y011546D01*
X011964Y011468D02*
X011625Y011468D01*
X011625Y011391D02*
X011887Y011391D01*
X011810Y011314D02*
X011625Y011314D01*
X011625Y011237D02*
X011732Y011237D01*
X011655Y011160D02*
X011625Y011160D01*
X011752Y011060D02*
X011752Y010282D01*
X012037Y010125D02*
X012037Y010637D01*
X011919Y010755D01*
X011919Y010991D01*
X012219Y011290D01*
X014400Y011290D01*
X014583Y011700D02*
X015009Y011700D01*
X015009Y011623D02*
X014702Y011623D01*
X014779Y011546D02*
X015009Y011546D01*
X015009Y011468D02*
X014812Y011468D01*
X014844Y011391D02*
X015009Y011391D01*
X015009Y011314D02*
X014848Y011314D01*
X014848Y011237D02*
X015009Y011237D01*
X015009Y011160D02*
X014831Y011160D01*
X014799Y011082D02*
X015009Y011082D01*
X015009Y011005D02*
X014749Y011005D01*
X014672Y010928D02*
X015009Y010928D01*
X015009Y010851D02*
X014510Y010851D01*
X014519Y010787D02*
X014440Y010800D01*
X014439Y010800D01*
X014439Y010330D01*
X014360Y010330D01*
X014360Y010800D01*
X014360Y010800D01*
X014280Y010787D01*
X014204Y010762D01*
X014133Y010726D01*
X014068Y010679D01*
X014011Y010622D01*
X013964Y010557D01*
X013928Y010486D01*
X013903Y010410D01*
X013890Y010330D01*
X014360Y010330D01*
X014360Y010251D01*
X013890Y010251D01*
X013890Y010250D01*
X013903Y010171D01*
X013928Y010095D01*
X013964Y010023D01*
X014011Y009959D01*
X014068Y009902D01*
X014133Y009855D01*
X014204Y009818D01*
X014280Y009794D01*
X014360Y009781D01*
X014360Y010251D01*
X014439Y010251D01*
X014439Y010330D01*
X014909Y010330D01*
X014909Y010330D01*
X014896Y010410D01*
X014872Y010486D01*
X014835Y010557D01*
X014788Y010622D01*
X014731Y010679D01*
X014667Y010726D01*
X014595Y010762D01*
X014519Y010787D01*
X014562Y010773D02*
X015009Y010773D01*
X015009Y010696D02*
X014708Y010696D01*
X014791Y010619D02*
X015009Y010619D01*
X015009Y010542D02*
X014843Y010542D01*
X014879Y010464D02*
X015009Y010464D01*
X015009Y010387D02*
X014900Y010387D01*
X015009Y010310D02*
X014439Y010310D01*
X014439Y010251D02*
X014909Y010251D01*
X014909Y010250D01*
X014896Y010171D01*
X014872Y010095D01*
X014835Y010023D01*
X014788Y009959D01*
X014731Y009902D01*
X014667Y009855D01*
X014595Y009818D01*
X014519Y009794D01*
X014440Y009781D01*
X014439Y009781D01*
X014439Y010251D01*
X014439Y010233D02*
X014360Y010233D01*
X014360Y010310D02*
X013505Y010310D01*
X013428Y010387D02*
X013899Y010387D01*
X013890Y010330D02*
X013890Y010330D01*
X013893Y010233D02*
X013583Y010233D01*
X013660Y010155D02*
X013908Y010155D01*
X013936Y010078D02*
X013737Y010078D01*
X013814Y010001D02*
X013980Y010001D01*
X014046Y009924D02*
X013892Y009924D01*
X013969Y009846D02*
X014149Y009846D01*
X014046Y009769D02*
X015009Y009769D01*
X015009Y009692D02*
X014603Y009692D01*
X014710Y009615D02*
X015009Y009615D01*
X015009Y009537D02*
X014783Y009537D01*
X014815Y009460D02*
X015009Y009460D01*
X015009Y009383D02*
X014847Y009383D01*
X014848Y009306D02*
X015009Y009306D01*
X015009Y009228D02*
X014848Y009228D01*
X014828Y009151D02*
X015009Y009151D01*
X015009Y009074D02*
X014796Y009074D01*
X014741Y008997D02*
X015009Y008997D01*
X015009Y008920D02*
X014663Y008920D01*
X014491Y008842D02*
X015009Y008842D01*
X015009Y008765D02*
X014121Y008765D01*
X014044Y008842D02*
X014309Y008842D01*
X014136Y008920D02*
X014027Y008920D01*
X014027Y008997D02*
X014059Y008997D01*
X013888Y008802D02*
X014400Y008290D01*
X014714Y008611D02*
X015009Y008611D01*
X015009Y008688D02*
X014613Y008688D01*
X014785Y008533D02*
X015009Y008533D01*
X015009Y008456D02*
X014817Y008456D01*
X014848Y008379D02*
X015009Y008379D01*
X015009Y008302D02*
X014848Y008302D01*
X014848Y008224D02*
X015009Y008224D01*
X015009Y008147D02*
X014826Y008147D01*
X014794Y008070D02*
X015009Y008070D01*
X015009Y007993D02*
X014737Y007993D01*
X014758Y007915D02*
X015009Y007915D01*
X015009Y007838D02*
X014835Y007838D01*
X014913Y007761D02*
X015009Y007761D01*
X015009Y007684D02*
X014990Y007684D01*
X014911Y007566D02*
X014911Y006802D01*
X014400Y006290D01*
X014219Y006290D01*
X013494Y007015D01*
X013276Y006989D02*
X012856Y006989D01*
X012779Y007066D02*
X013276Y007066D01*
X013313Y007143D02*
X012702Y007143D01*
X012625Y007220D02*
X013391Y007220D01*
X013598Y007220D02*
X013951Y007220D01*
X013951Y007297D02*
X012548Y007297D01*
X012471Y007375D02*
X013951Y007375D01*
X013981Y007452D02*
X012394Y007452D01*
X012317Y007529D02*
X013965Y007529D01*
X013887Y007606D02*
X012240Y007606D01*
X012006Y007645D02*
X014282Y005361D01*
X014352Y005290D01*
X014400Y005290D01*
X014724Y004980D02*
X015009Y004980D01*
X015009Y004903D02*
X014637Y004903D01*
X014622Y004749D02*
X015009Y004749D01*
X015009Y004826D02*
X013948Y004826D01*
X013948Y004903D02*
X014162Y004903D01*
X014075Y004980D02*
X013948Y004980D01*
X013948Y005058D02*
X014010Y005058D01*
X013978Y005135D02*
X013948Y005135D01*
X013948Y005212D02*
X013951Y005212D01*
X013948Y005289D02*
X013951Y005289D01*
X013948Y005366D02*
X013951Y005366D01*
X013948Y005444D02*
X013977Y005444D01*
X014087Y005753D02*
X015009Y005753D01*
X015009Y005830D02*
X014010Y005830D01*
X013933Y005907D02*
X014152Y005907D01*
X014071Y005984D02*
X013856Y005984D01*
X013779Y006062D02*
X014009Y006062D01*
X013977Y006139D02*
X013702Y006139D01*
X013625Y006216D02*
X013951Y006216D01*
X013951Y006293D02*
X013548Y006293D01*
X013471Y006371D02*
X013942Y006371D01*
X013865Y006448D02*
X013395Y006448D01*
X013318Y006525D02*
X013788Y006525D01*
X013710Y006602D02*
X013241Y006602D01*
X013164Y006680D02*
X013633Y006680D01*
X013556Y006757D02*
X013087Y006757D01*
X013010Y006834D02*
X013366Y006834D01*
X013289Y006911D02*
X012933Y006911D01*
X012563Y006293D02*
X010956Y006293D01*
X010956Y006216D02*
X012640Y006216D01*
X012717Y006139D02*
X010956Y006139D01*
X010956Y006062D02*
X012794Y006062D01*
X012872Y005984D02*
X010956Y005984D01*
X010956Y005907D02*
X012949Y005907D01*
X013026Y005830D02*
X010956Y005830D01*
X010956Y005753D02*
X013103Y005753D01*
X013181Y005675D02*
X010956Y005675D01*
X010956Y005598D02*
X013258Y005598D01*
X013335Y005521D02*
X010956Y005521D01*
X010956Y005444D02*
X013346Y005444D01*
X013315Y005366D02*
X010956Y005366D01*
X010956Y005289D02*
X013315Y005289D01*
X013334Y005212D02*
X010956Y005212D01*
X010956Y005135D02*
X013412Y005135D01*
X013533Y005322D02*
X013533Y005519D01*
X011880Y007172D01*
X011662Y007143D02*
X011034Y007143D01*
X011034Y007066D02*
X011678Y007066D01*
X011755Y006989D02*
X011034Y006989D01*
X011034Y006911D02*
X011945Y006911D01*
X012022Y006834D02*
X011034Y006834D01*
X011034Y006757D02*
X012099Y006757D01*
X012176Y006680D02*
X011034Y006680D01*
X011034Y006602D02*
X012254Y006602D01*
X012331Y006525D02*
X011034Y006525D01*
X011034Y006448D02*
X012408Y006448D01*
X012485Y006371D02*
X010960Y006371D01*
X010738Y006582D02*
X010620Y006464D01*
X010423Y006464D01*
X008809Y004849D01*
X008809Y004495D01*
X008591Y004517D02*
X008397Y004517D01*
X008397Y004594D02*
X008599Y004594D01*
X008670Y004671D02*
X008397Y004671D01*
X008432Y004749D02*
X008670Y004749D01*
X008670Y004826D02*
X008509Y004826D01*
X008494Y005007D02*
X008258Y004771D01*
X008258Y003786D01*
X008573Y003471D01*
X008573Y002212D01*
X008219Y001857D01*
X006368Y001857D01*
X006329Y001897D01*
X006616Y002200D02*
X007361Y002200D01*
X007361Y002277D02*
X006547Y002277D01*
X006495Y002354D02*
X007361Y002354D01*
X007361Y002509D02*
X004932Y002509D01*
X004932Y002586D02*
X007361Y002586D01*
X007361Y002663D02*
X004932Y002663D01*
X004932Y002740D02*
X007366Y002740D01*
X007343Y002818D02*
X004932Y002818D01*
X004932Y002895D02*
X007311Y002895D01*
X007301Y002972D02*
X004932Y002972D01*
X004932Y003049D02*
X007224Y003049D01*
X007147Y003127D02*
X004932Y003127D01*
X004932Y003204D02*
X007135Y003204D01*
X007135Y003281D02*
X004932Y003281D01*
X004932Y003358D02*
X007135Y003358D01*
X007135Y003435D02*
X004932Y003435D01*
X004932Y003513D02*
X007135Y003513D01*
X007135Y003590D02*
X004932Y003590D01*
X004949Y003667D02*
X007079Y003667D01*
X007001Y003744D02*
X006084Y003744D01*
X006161Y003822D02*
X006924Y003822D01*
X006847Y003899D02*
X006193Y003899D01*
X006193Y003976D02*
X006657Y003976D01*
X006580Y004053D02*
X006174Y004053D01*
X006153Y004131D02*
X006543Y004131D01*
X006543Y004208D02*
X006153Y004208D01*
X006153Y004285D02*
X006558Y004285D01*
X006635Y004362D02*
X006153Y004362D01*
X006153Y004440D02*
X007292Y004440D01*
X007292Y004517D02*
X006153Y004517D01*
X006153Y004594D02*
X007292Y004594D01*
X007292Y004671D02*
X006153Y004671D01*
X006153Y004749D02*
X007292Y004749D01*
X007292Y004826D02*
X006163Y004826D01*
X006241Y004903D02*
X007292Y004903D01*
X007292Y004980D02*
X006318Y004980D01*
X006395Y005058D02*
X007292Y005058D01*
X007292Y005135D02*
X006467Y005135D01*
X006467Y005212D02*
X007292Y005212D01*
X007292Y005289D02*
X006467Y005289D01*
X006467Y005366D02*
X007292Y005366D01*
X007231Y005444D02*
X006467Y005444D01*
X006467Y005521D02*
X007154Y005521D01*
X007077Y005598D02*
X006467Y005598D01*
X006467Y005675D02*
X006999Y005675D01*
X006922Y005753D02*
X006467Y005753D01*
X006467Y005830D02*
X006845Y005830D01*
X006768Y005907D02*
X006467Y005907D01*
X006467Y005984D02*
X006690Y005984D01*
X006613Y006062D02*
X006467Y006062D01*
X006565Y006306D02*
X007431Y005440D01*
X007431Y003983D01*
X008100Y003314D01*
X008277Y003181D02*
X008191Y003096D01*
X008010Y003096D01*
X007882Y003224D01*
X007882Y003336D01*
X007668Y003550D01*
X007668Y003455D01*
X007748Y003375D01*
X007748Y003194D01*
X007666Y003112D01*
X007748Y003030D01*
X007748Y002849D01*
X007742Y002843D01*
X007756Y002843D01*
X007756Y002477D01*
X007835Y002477D01*
X008230Y002477D01*
X008230Y002722D01*
X008220Y002758D01*
X008202Y002789D01*
X008176Y002815D01*
X008144Y002834D01*
X008109Y002843D01*
X007835Y002843D01*
X007835Y002477D01*
X007835Y002399D01*
X008230Y002399D01*
X008230Y002301D01*
X008277Y002348D01*
X008277Y003181D01*
X008277Y003127D02*
X008222Y003127D01*
X008277Y003049D02*
X007729Y003049D01*
X007748Y002972D02*
X008277Y002972D01*
X008277Y002895D02*
X007748Y002895D01*
X007756Y002818D02*
X007835Y002818D01*
X007835Y002740D02*
X007756Y002740D01*
X007756Y002663D02*
X007835Y002663D01*
X007835Y002586D02*
X007756Y002586D01*
X007756Y002509D02*
X007835Y002509D01*
X007835Y002431D02*
X008277Y002431D01*
X008277Y002354D02*
X008230Y002354D01*
X008230Y002509D02*
X008277Y002509D01*
X008277Y002586D02*
X008230Y002586D01*
X008230Y002663D02*
X008277Y002663D01*
X008277Y002740D02*
X008225Y002740D01*
X008277Y002818D02*
X008172Y002818D01*
X007979Y003127D02*
X007680Y003127D01*
X007748Y003204D02*
X007902Y003204D01*
X007882Y003281D02*
X007748Y003281D01*
X007748Y003358D02*
X007860Y003358D01*
X007783Y003435D02*
X007687Y003435D01*
X007668Y003513D02*
X007705Y003513D01*
X007530Y003649D02*
X007530Y003284D01*
X007530Y003649D02*
X007077Y004101D01*
X007077Y004180D01*
X007203Y004362D02*
X007292Y004362D01*
X007281Y004285D02*
X007292Y004285D01*
X007570Y004285D02*
X007962Y004285D01*
X007962Y004208D02*
X007570Y004208D01*
X007570Y004131D02*
X007962Y004131D01*
X007962Y004080D02*
X007886Y004005D01*
X007852Y004005D01*
X007729Y003881D01*
X007570Y004041D01*
X007570Y004323D01*
X007577Y004316D01*
X007758Y004316D01*
X007886Y004444D01*
X007886Y004625D01*
X007806Y004705D01*
X007806Y004871D01*
X008393Y005458D01*
X008506Y005458D01*
X008634Y005586D01*
X008634Y005767D01*
X008506Y005895D01*
X008325Y005895D01*
X008197Y005767D01*
X008197Y005654D01*
X007570Y005027D01*
X007570Y005497D01*
X007489Y005579D01*
X006783Y006284D01*
X006783Y006397D01*
X006655Y006525D01*
X006602Y006525D01*
X006625Y006547D01*
X006625Y006817D01*
X009278Y006817D01*
X009517Y006579D01*
X009633Y006463D01*
X009682Y006463D01*
X009703Y006442D01*
X009733Y006442D01*
X008633Y005342D01*
X008397Y005342D01*
X008316Y005261D01*
X008043Y004988D01*
X007962Y004907D01*
X007962Y004080D01*
X007935Y004053D02*
X007570Y004053D01*
X007634Y003976D02*
X007824Y003976D01*
X007747Y003899D02*
X007712Y003899D01*
X007804Y004362D02*
X007962Y004362D01*
X007962Y004440D02*
X007881Y004440D01*
X007886Y004517D02*
X007962Y004517D01*
X007962Y004594D02*
X007886Y004594D01*
X007839Y004671D02*
X007962Y004671D01*
X007962Y004749D02*
X007806Y004749D01*
X007806Y004826D02*
X007962Y004826D01*
X007962Y004903D02*
X007838Y004903D01*
X007916Y004980D02*
X008035Y004980D01*
X007993Y005058D02*
X008112Y005058D01*
X008070Y005135D02*
X008190Y005135D01*
X008147Y005212D02*
X008267Y005212D01*
X008225Y005289D02*
X008344Y005289D01*
X008302Y005366D02*
X008657Y005366D01*
X008735Y005444D02*
X008379Y005444D01*
X008415Y005676D02*
X007667Y004928D01*
X007667Y004534D01*
X007600Y005058D02*
X007570Y005058D01*
X007570Y005135D02*
X007678Y005135D01*
X007755Y005212D02*
X007570Y005212D01*
X007570Y005289D02*
X007832Y005289D01*
X007909Y005366D02*
X007570Y005366D01*
X007570Y005444D02*
X007987Y005444D01*
X008064Y005521D02*
X007546Y005521D01*
X007469Y005598D02*
X008141Y005598D01*
X008197Y005675D02*
X007392Y005675D01*
X007315Y005753D02*
X008197Y005753D01*
X008260Y005830D02*
X007237Y005830D01*
X007160Y005907D02*
X009198Y005907D01*
X009121Y005830D02*
X008571Y005830D01*
X008634Y005753D02*
X009044Y005753D01*
X008966Y005675D02*
X008634Y005675D01*
X008634Y005598D02*
X008889Y005598D01*
X008812Y005521D02*
X008569Y005521D01*
X008494Y005007D02*
X008730Y005007D01*
X010423Y006700D01*
X010502Y006700D01*
X010738Y006582D02*
X010738Y006897D01*
X010620Y007015D01*
X010888Y007297D02*
X011696Y007297D01*
X011662Y007220D02*
X010965Y007220D01*
X010974Y007960D02*
X011447Y008432D01*
X011919Y008432D01*
X012037Y008550D01*
X012037Y008865D01*
X012140Y008456D02*
X012765Y008456D01*
X012963Y008456D02*
X013041Y008456D01*
X013041Y008533D02*
X012963Y008533D01*
X012963Y008611D02*
X013041Y008611D01*
X013041Y008688D02*
X012963Y008688D01*
X012963Y008765D02*
X013041Y008765D01*
X013041Y008842D02*
X013592Y008842D01*
X013592Y008765D02*
X013338Y008765D01*
X013338Y008688D02*
X013592Y008688D01*
X013592Y008611D02*
X013338Y008611D01*
X013327Y008533D02*
X013592Y008533D01*
X013592Y008456D02*
X013239Y008456D01*
X013133Y008302D02*
X012083Y008302D01*
X012062Y008379D02*
X013592Y008379D01*
X013592Y008302D02*
X013382Y008302D01*
X013460Y008224D02*
X013592Y008224D01*
X013592Y008147D02*
X013476Y008147D01*
X013476Y008070D02*
X013660Y008070D01*
X013737Y007993D02*
X013442Y007993D01*
X013258Y008117D02*
X011959Y008117D01*
X012006Y007645D02*
X009990Y007645D01*
X009754Y007408D01*
X008179Y007408D01*
X007864Y007723D01*
X007549Y007723D01*
X007510Y007763D01*
X007666Y007915D02*
X007875Y007915D01*
X007922Y007862D02*
X007719Y007862D01*
X007600Y007981D01*
X007570Y007981D01*
X007804Y008215D01*
X007885Y008296D01*
X007885Y009907D01*
X007501Y010290D01*
X007522Y010290D01*
X007542Y010311D01*
X008655Y010311D01*
X008792Y010448D01*
X008847Y010448D01*
X008847Y010322D01*
X009065Y010322D01*
X009065Y010322D01*
X008847Y010322D01*
X008847Y010185D01*
X008856Y010150D01*
X008875Y010118D01*
X008888Y010105D01*
X008875Y010092D01*
X008856Y010061D01*
X008847Y010025D01*
X008847Y009889D01*
X009065Y009889D01*
X009065Y009889D01*
X009065Y010146D01*
X009065Y010322D01*
X009065Y010322D01*
X009065Y009889D01*
X009065Y009889D01*
X008847Y009889D01*
X008847Y009752D01*
X008856Y009717D01*
X008875Y009685D01*
X008888Y009672D01*
X008875Y009659D01*
X008856Y009628D01*
X008847Y009592D01*
X008847Y009456D01*
X009065Y009456D01*
X009065Y009456D01*
X009065Y009889D01*
X009065Y009889D01*
X009065Y009713D01*
X009065Y009456D01*
X009065Y009456D01*
X008847Y009456D01*
X008847Y009319D01*
X008856Y009284D01*
X008875Y009252D01*
X008901Y009226D01*
X008932Y009208D01*
X008968Y009198D01*
X009065Y009198D01*
X009162Y009198D01*
X009198Y009208D01*
X009229Y009226D01*
X009255Y009252D01*
X009274Y009284D01*
X009276Y009291D01*
X009308Y009259D01*
X009531Y009259D01*
X009569Y009297D01*
X009613Y009297D01*
X009614Y009296D01*
X009795Y009296D01*
X009855Y009356D01*
X009918Y009356D01*
X010154Y009593D01*
X010247Y009685D01*
X010247Y009687D01*
X010254Y009680D01*
X010435Y009680D01*
X010481Y009727D01*
X010481Y009282D01*
X010474Y009239D01*
X010125Y009239D01*
X010089Y009203D01*
X010052Y009239D01*
X009692Y009239D01*
X009656Y009203D01*
X009619Y009239D01*
X009259Y009239D01*
X009213Y009193D01*
X009213Y008571D01*
X008555Y008571D01*
X008473Y008490D01*
X008319Y008336D01*
X008246Y008336D01*
X008159Y008249D01*
X008112Y008296D01*
X007931Y008296D01*
X007803Y008168D01*
X007803Y007987D01*
X007931Y007859D01*
X008044Y007859D01*
X008080Y007823D01*
X008161Y007742D01*
X008519Y007742D01*
X008512Y007735D01*
X008512Y007554D01*
X008519Y007547D01*
X008237Y007547D01*
X007922Y007862D01*
X007946Y007838D02*
X008065Y007838D01*
X008023Y007761D02*
X008142Y007761D01*
X008100Y007684D02*
X008512Y007684D01*
X008512Y007606D02*
X008177Y007606D01*
X008219Y007881D02*
X008730Y007881D01*
X008967Y008117D01*
X010778Y008117D01*
X011171Y008511D01*
X011171Y008865D01*
X011570Y008920D02*
X011639Y008920D01*
X011639Y008997D02*
X011570Y008997D01*
X011570Y009074D02*
X011639Y009074D01*
X011639Y009151D02*
X011570Y009151D01*
X011570Y009228D02*
X011639Y009228D01*
X011212Y009306D02*
X013592Y009306D01*
X013592Y009228D02*
X013257Y009228D01*
X013253Y009231D02*
X013217Y009241D01*
X013041Y009241D01*
X013041Y008885D01*
X013338Y008885D01*
X013338Y009120D01*
X013329Y009155D01*
X013310Y009187D01*
X013284Y009213D01*
X013253Y009231D01*
X013330Y009151D02*
X013592Y009151D01*
X013592Y009074D02*
X013338Y009074D01*
X013338Y008997D02*
X013592Y008997D01*
X013592Y008920D02*
X013338Y008920D01*
X013041Y008920D02*
X012963Y008920D01*
X012963Y008997D02*
X013041Y008997D01*
X013041Y009074D02*
X012963Y009074D01*
X012963Y009151D02*
X013041Y009151D01*
X013041Y009228D02*
X012963Y009228D01*
X012747Y009228D02*
X012661Y009228D01*
X012280Y009228D02*
X012228Y009228D01*
X012151Y009615D02*
X013336Y009615D01*
X013259Y009692D02*
X012228Y009692D01*
X012256Y009769D02*
X013181Y009769D01*
X013104Y009846D02*
X012256Y009846D01*
X012233Y009924D02*
X013027Y009924D01*
X012950Y010001D02*
X012222Y010001D01*
X012256Y010078D02*
X012872Y010078D01*
X012795Y010155D02*
X012256Y010155D01*
X012239Y010233D02*
X012718Y010233D01*
X012641Y010310D02*
X012531Y010310D01*
X012628Y010519D02*
X012431Y010519D01*
X012628Y010519D02*
X013730Y009416D01*
X013730Y008196D01*
X014124Y007802D01*
X014675Y007802D01*
X014911Y007566D01*
X014773Y006989D02*
X014732Y006989D01*
X014773Y006911D02*
X014655Y006911D01*
X014747Y006834D02*
X013871Y006834D01*
X013948Y006757D02*
X014670Y006757D01*
X014831Y006525D02*
X015009Y006525D01*
X015009Y006448D02*
X014820Y006448D01*
X014848Y006371D02*
X015009Y006371D01*
X015009Y006293D02*
X014848Y006293D01*
X014848Y006216D02*
X015009Y006216D01*
X015009Y006139D02*
X014823Y006139D01*
X014791Y006062D02*
X015009Y006062D01*
X015009Y005984D02*
X014728Y005984D01*
X014647Y005907D02*
X015009Y005907D01*
X015009Y005675D02*
X014643Y005675D01*
X014726Y005598D02*
X015009Y005598D01*
X015009Y005521D02*
X014790Y005521D01*
X014822Y005444D02*
X015009Y005444D01*
X015009Y005366D02*
X014848Y005366D01*
X014848Y005289D02*
X015009Y005289D01*
X015009Y005212D02*
X014848Y005212D01*
X014821Y005135D02*
X015009Y005135D01*
X015009Y005058D02*
X014789Y005058D01*
X014739Y004671D02*
X015009Y004671D01*
X015009Y004594D02*
X014809Y004594D01*
X014856Y004517D02*
X015009Y004517D01*
X015009Y004440D02*
X014887Y004440D01*
X014904Y004362D02*
X015009Y004362D01*
X015009Y004285D02*
X014439Y004285D01*
X014439Y004208D02*
X014360Y004208D01*
X014360Y004131D02*
X014439Y004131D01*
X014439Y004053D02*
X014360Y004053D01*
X014360Y003976D02*
X014439Y003976D01*
X014439Y003899D02*
X014360Y003899D01*
X014360Y003822D02*
X014439Y003822D01*
X014602Y003822D02*
X015009Y003822D01*
X015009Y003899D02*
X014727Y003899D01*
X014801Y003976D02*
X015009Y003976D01*
X015009Y004053D02*
X014851Y004053D01*
X014883Y004131D02*
X015009Y004131D01*
X015009Y004208D02*
X014902Y004208D01*
X014439Y004362D02*
X014360Y004362D01*
X014360Y004440D02*
X014439Y004440D01*
X014439Y004517D02*
X014360Y004517D01*
X014360Y004594D02*
X014439Y004594D01*
X014439Y004671D02*
X014360Y004671D01*
X014360Y004749D02*
X014439Y004749D01*
X014177Y004749D02*
X013948Y004749D01*
X013948Y004671D02*
X014060Y004671D01*
X013991Y004594D02*
X013948Y004594D01*
X013670Y004980D02*
X010956Y004980D01*
X010956Y005058D02*
X013670Y005058D01*
X013670Y005135D02*
X013655Y005135D01*
X014026Y006680D02*
X014167Y006680D01*
X014144Y006911D02*
X013794Y006911D01*
X013717Y006989D02*
X014067Y006989D01*
X014007Y007066D02*
X013713Y007066D01*
X013675Y007143D02*
X013975Y007143D01*
X014400Y007290D02*
X013888Y007802D01*
X009813Y007802D01*
X009734Y007723D01*
X010069Y008275D02*
X010305Y008511D01*
X010305Y008865D01*
X010114Y009228D02*
X010063Y009228D01*
X009945Y009383D02*
X010481Y009383D01*
X010481Y009460D02*
X010022Y009460D01*
X010099Y009537D02*
X010481Y009537D01*
X010481Y009615D02*
X010176Y009615D01*
X010447Y009692D02*
X010481Y009692D01*
X010481Y009306D02*
X009805Y009306D01*
X009681Y009228D02*
X009630Y009228D01*
X009872Y008865D02*
X009872Y008511D01*
X009793Y008432D01*
X008612Y008432D01*
X008337Y008156D01*
X008337Y008117D01*
X008212Y008302D02*
X007885Y008302D01*
X007885Y008379D02*
X008363Y008379D01*
X008440Y008456D02*
X007885Y008456D01*
X007885Y008533D02*
X008517Y008533D01*
X008809Y008275D02*
X008652Y008117D01*
X008809Y008275D02*
X010069Y008275D01*
X010974Y007960D02*
X009045Y007960D01*
X008730Y007645D01*
X008219Y007881D02*
X008022Y008078D01*
X007859Y008224D02*
X007813Y008224D01*
X007803Y008147D02*
X007736Y008147D01*
X007803Y008070D02*
X007659Y008070D01*
X007582Y007993D02*
X007803Y007993D01*
X007885Y008611D02*
X009213Y008611D01*
X009213Y008688D02*
X007885Y008688D01*
X007885Y008765D02*
X009213Y008765D01*
X009213Y008842D02*
X007885Y008842D01*
X007885Y008920D02*
X009213Y008920D01*
X009213Y008997D02*
X007885Y008997D01*
X007885Y009074D02*
X009213Y009074D01*
X009213Y009151D02*
X007885Y009151D01*
X007885Y009228D02*
X008898Y009228D01*
X008850Y009306D02*
X007885Y009306D01*
X007885Y009383D02*
X008847Y009383D01*
X008847Y009460D02*
X007885Y009460D01*
X007885Y009537D02*
X008847Y009537D01*
X008853Y009615D02*
X007885Y009615D01*
X007885Y009692D02*
X008871Y009692D01*
X008847Y009769D02*
X007885Y009769D01*
X007885Y009846D02*
X008847Y009846D01*
X008847Y009924D02*
X007868Y009924D01*
X007791Y010001D02*
X008847Y010001D01*
X008866Y010078D02*
X007714Y010078D01*
X007636Y010155D02*
X008855Y010155D01*
X008847Y010233D02*
X007559Y010233D01*
X007541Y010310D02*
X008847Y010310D01*
X008847Y010387D02*
X008731Y010387D01*
X008558Y010773D02*
X007882Y010773D01*
X007815Y010707D02*
X008082Y010973D01*
X008082Y011088D01*
X008082Y011485D01*
X008473Y011876D01*
X008624Y011876D01*
X008605Y011865D01*
X008579Y011840D01*
X008561Y011808D01*
X008552Y011772D01*
X008552Y011675D01*
X008552Y011578D01*
X008561Y011543D01*
X008579Y011511D01*
X008605Y011485D01*
X008637Y011467D01*
X008645Y011465D01*
X008612Y011432D01*
X008612Y011210D01*
X008636Y011186D01*
X008591Y011141D01*
X008591Y010960D01*
X008686Y010864D01*
X008648Y010864D01*
X008533Y010748D01*
X008491Y010707D01*
X007815Y010707D01*
X007959Y010851D02*
X008635Y010851D01*
X008623Y010928D02*
X008036Y010928D01*
X008082Y011005D02*
X008591Y011005D01*
X008591Y011082D02*
X008082Y011082D01*
X008082Y011160D02*
X008609Y011160D01*
X008612Y011237D02*
X008082Y011237D01*
X008082Y011314D02*
X008612Y011314D01*
X008612Y011391D02*
X008082Y011391D01*
X008082Y011468D02*
X008634Y011468D01*
X008560Y011546D02*
X008143Y011546D01*
X008220Y011623D02*
X008552Y011623D01*
X008552Y011675D02*
X008809Y011675D01*
X008809Y011675D01*
X008809Y011675D01*
X008999Y011675D01*
X009257Y011675D01*
X009257Y011675D01*
X008809Y011675D01*
X008552Y011675D01*
X008552Y011700D02*
X008297Y011700D01*
X008374Y011777D02*
X008553Y011777D01*
X008595Y011855D02*
X008451Y011855D01*
X008050Y012318D02*
X007413Y012318D01*
X007413Y012241D02*
X007973Y012241D01*
X007896Y012164D02*
X007338Y012164D01*
X007285Y012111D02*
X007413Y012239D01*
X007413Y012420D01*
X007285Y012548D01*
X007104Y012548D01*
X007025Y012468D01*
X006931Y012468D01*
X006849Y012387D01*
X006822Y012359D01*
X004579Y010146D01*
X003940Y010146D01*
X003939Y010147D01*
X003790Y010147D01*
X003790Y012158D01*
X003797Y012151D01*
X003978Y012151D01*
X004106Y012279D01*
X004106Y012308D01*
X004482Y012683D01*
X005430Y012683D01*
X005451Y012662D01*
X005632Y012662D01*
X005760Y012790D01*
X005760Y012971D01*
X005632Y013099D01*
X005451Y013099D01*
X005430Y013079D01*
X004318Y013079D01*
X004202Y012963D01*
X003827Y012588D01*
X003797Y012588D01*
X003790Y012581D01*
X003790Y014595D01*
X003945Y014750D01*
X004027Y014831D01*
X004027Y014948D01*
X004064Y014910D01*
X004145Y014829D01*
X004303Y014829D01*
X005917Y013215D01*
X005960Y013215D01*
X005953Y013208D01*
X005953Y013027D01*
X005973Y013006D01*
X005973Y012215D01*
X004968Y011210D01*
X004939Y011210D01*
X004811Y011082D01*
X004811Y010901D01*
X004939Y010773D01*
X005120Y010773D01*
X005248Y010901D01*
X005248Y010930D01*
X006369Y012051D01*
X006369Y013006D01*
X006390Y013027D01*
X006390Y013208D01*
X006383Y013215D01*
X009263Y013215D01*
X009614Y012864D01*
X009614Y012751D01*
X009732Y012633D01*
X009732Y012626D01*
X008197Y012626D01*
X008082Y012742D01*
X008000Y012823D01*
X007956Y012823D01*
X007876Y012902D01*
X007695Y012902D01*
X007567Y012775D01*
X007567Y012594D01*
X007695Y012466D01*
X007876Y012466D01*
X007921Y012510D01*
X008081Y012349D01*
X007570Y011839D01*
X007492Y011760D01*
X007492Y011869D01*
X007364Y011997D01*
X007256Y011997D01*
X007256Y012105D01*
X007250Y012111D01*
X007285Y012111D01*
X007256Y012086D02*
X007818Y012086D01*
X007741Y012009D02*
X007256Y012009D01*
X007429Y011932D02*
X007664Y011932D01*
X007587Y011855D02*
X007492Y011855D01*
X007492Y011777D02*
X007509Y011777D01*
X007274Y011779D02*
X006890Y011779D01*
X006860Y011749D01*
X004892Y009692D01*
X004163Y009692D01*
X004006Y009534D01*
X003455Y009534D01*
X003219Y009771D01*
X003219Y009849D01*
X003337Y009968D01*
X003337Y014416D01*
X003179Y014574D01*
X003179Y014810D01*
X003376Y015007D01*
X003652Y015007D01*
X003888Y015125D02*
X003770Y015243D01*
X003258Y015243D01*
X003100Y015086D01*
X003415Y014692D02*
X003494Y014613D01*
X003494Y009889D01*
X003533Y009849D01*
X003691Y009692D01*
X003927Y009692D01*
X004085Y009849D01*
X004754Y009849D01*
X006919Y012015D01*
X007037Y012015D01*
X006998Y012015D01*
X006919Y012261D02*
X006988Y012330D01*
X007195Y012330D01*
X007361Y012473D02*
X007688Y012473D01*
X007611Y012550D02*
X006369Y012550D01*
X006369Y012627D02*
X007567Y012627D01*
X007567Y012704D02*
X006369Y012704D01*
X006369Y012782D02*
X007574Y012782D01*
X007651Y012859D02*
X006369Y012859D01*
X006369Y012936D02*
X009542Y012936D01*
X009614Y012859D02*
X007920Y012859D01*
X008042Y012782D02*
X009614Y012782D01*
X009661Y012704D02*
X008119Y012704D01*
X008196Y012627D02*
X009732Y012627D01*
X009872Y012487D02*
X009951Y012566D01*
X009872Y012487D02*
X008140Y012487D01*
X007943Y012684D01*
X007785Y012684D01*
X007883Y012473D02*
X007958Y012473D01*
X008035Y012395D02*
X007413Y012395D01*
X007029Y012473D02*
X006369Y012473D01*
X006369Y012395D02*
X006858Y012395D01*
X006780Y012318D02*
X006369Y012318D01*
X006369Y012241D02*
X006702Y012241D01*
X006623Y012164D02*
X006369Y012164D01*
X006369Y012086D02*
X006545Y012086D01*
X006467Y012009D02*
X006327Y012009D01*
X006389Y011932D02*
X006250Y011932D01*
X006310Y011855D02*
X006173Y011855D01*
X006232Y011777D02*
X006096Y011777D01*
X006154Y011700D02*
X006018Y011700D01*
X006076Y011623D02*
X005941Y011623D01*
X005997Y011546D02*
X005864Y011546D01*
X005919Y011468D02*
X005787Y011468D01*
X005841Y011391D02*
X005709Y011391D01*
X005763Y011314D02*
X005632Y011314D01*
X005684Y011237D02*
X005555Y011237D01*
X005606Y011160D02*
X005478Y011160D01*
X005528Y011082D02*
X005400Y011082D01*
X005450Y011005D02*
X005323Y011005D01*
X005371Y010928D02*
X005248Y010928D01*
X005293Y010851D02*
X005198Y010851D01*
X005215Y010773D02*
X005121Y010773D01*
X005137Y010696D02*
X003790Y010696D01*
X003790Y010619D02*
X005058Y010619D01*
X004980Y010542D02*
X003790Y010542D01*
X003790Y010464D02*
X004902Y010464D01*
X004824Y010387D02*
X003790Y010387D01*
X003790Y010310D02*
X004745Y010310D01*
X004667Y010233D02*
X003790Y010233D01*
X003790Y010155D02*
X004589Y010155D01*
X004636Y010007D02*
X006919Y012261D01*
X006376Y013013D02*
X009465Y013013D01*
X009388Y013091D02*
X006390Y013091D01*
X006390Y013168D02*
X009310Y013168D01*
X009596Y013511D02*
X006053Y013511D01*
X004360Y015204D01*
X004282Y015204D01*
X004030Y014944D02*
X004027Y014944D01*
X004027Y014867D02*
X004107Y014867D01*
X003985Y014790D02*
X004342Y014790D01*
X004419Y014713D02*
X003908Y014713D01*
X003831Y014635D02*
X004496Y014635D01*
X004573Y014558D02*
X003790Y014558D01*
X003790Y014481D02*
X004651Y014481D01*
X004728Y014404D02*
X003790Y014404D01*
X003790Y014326D02*
X004805Y014326D01*
X004882Y014249D02*
X003790Y014249D01*
X003790Y014172D02*
X004960Y014172D01*
X005037Y014095D02*
X003790Y014095D01*
X003790Y014017D02*
X005114Y014017D01*
X005191Y013940D02*
X003790Y013940D01*
X003790Y013863D02*
X005269Y013863D01*
X005346Y013786D02*
X003790Y013786D01*
X003790Y013708D02*
X005423Y013708D01*
X005500Y013631D02*
X003790Y013631D01*
X003790Y013554D02*
X005578Y013554D01*
X005655Y013477D02*
X003790Y013477D01*
X003790Y013399D02*
X005732Y013399D01*
X005809Y013322D02*
X003790Y013322D01*
X003790Y013245D02*
X005887Y013245D01*
X005953Y013168D02*
X003790Y013168D01*
X003790Y013091D02*
X005442Y013091D01*
X005641Y013091D02*
X005953Y013091D01*
X005966Y013013D02*
X005718Y013013D01*
X005760Y012936D02*
X005973Y012936D01*
X005973Y012859D02*
X005760Y012859D01*
X005751Y012782D02*
X005973Y012782D01*
X005973Y012704D02*
X005674Y012704D01*
X005973Y012627D02*
X004426Y012627D01*
X004348Y012550D02*
X005973Y012550D01*
X005973Y012473D02*
X004271Y012473D01*
X004194Y012395D02*
X005973Y012395D01*
X005973Y012318D02*
X004117Y012318D01*
X004068Y012241D02*
X005973Y012241D01*
X005922Y012164D02*
X003991Y012164D01*
X003790Y012086D02*
X005845Y012086D01*
X005768Y012009D02*
X003790Y012009D01*
X003790Y011932D02*
X005691Y011932D01*
X005613Y011855D02*
X003790Y011855D01*
X003790Y011777D02*
X005536Y011777D01*
X005459Y011700D02*
X003790Y011700D01*
X003790Y011623D02*
X005382Y011623D01*
X005304Y011546D02*
X003790Y011546D01*
X003790Y011468D02*
X005227Y011468D01*
X005150Y011391D02*
X003790Y011391D01*
X003790Y011314D02*
X005073Y011314D01*
X004995Y011237D02*
X003790Y011237D01*
X003790Y011160D02*
X004889Y011160D01*
X004812Y011082D02*
X003790Y011082D01*
X003790Y011005D02*
X004811Y011005D01*
X004811Y010928D02*
X003790Y010928D01*
X003790Y010851D02*
X004861Y010851D01*
X004938Y010773D02*
X003790Y010773D01*
X003652Y010086D02*
X003652Y014653D01*
X003888Y014889D01*
X003888Y015125D01*
X004404Y015794D02*
X005115Y015794D01*
X005037Y015871D02*
X002910Y015871D01*
X002832Y015948D02*
X005008Y015948D01*
X005008Y016026D02*
X002637Y016026D01*
X002560Y016103D02*
X005029Y016103D01*
X005106Y016180D02*
X002482Y016180D01*
X002405Y016257D02*
X005296Y016257D01*
X005457Y016026D02*
X005759Y016026D01*
X005697Y015948D02*
X005445Y015948D01*
X005415Y015871D02*
X005697Y015871D01*
X005697Y015794D02*
X005338Y015794D01*
X005226Y015991D02*
X005541Y016306D01*
X006289Y016306D01*
X006604Y015991D01*
X006604Y014849D01*
X006919Y014534D01*
X006741Y014404D02*
X006527Y014404D01*
X006527Y014481D02*
X006701Y014481D01*
X006699Y014558D02*
X006527Y014558D01*
X006527Y014635D02*
X006622Y014635D01*
X006545Y014713D02*
X006527Y014713D01*
X006527Y014326D02*
X006818Y014326D01*
X006919Y014849D02*
X006998Y014928D01*
X006998Y015322D01*
X007137Y015022D02*
X007142Y015022D01*
X007137Y014944D02*
X007173Y014944D01*
X007183Y014867D02*
X007138Y014867D01*
X007138Y014790D02*
X007261Y014790D01*
X007392Y014968D02*
X007234Y015125D01*
X007234Y015597D01*
X006368Y016464D01*
X004754Y016464D01*
X004497Y017030D02*
X007776Y017030D01*
X007764Y017107D02*
X004419Y017107D01*
X005187Y017416D02*
X002295Y017416D01*
X002295Y017493D02*
X005187Y017493D01*
X005187Y017570D02*
X002263Y017570D01*
X002186Y017648D02*
X005187Y017648D01*
X005534Y016103D02*
X005992Y016103D01*
X006068Y015717D02*
X006131Y015717D01*
X006131Y015639D02*
X004559Y015639D01*
X004481Y015717D02*
X005763Y015717D01*
X006131Y015562D02*
X004665Y015562D01*
X004742Y015485D02*
X006131Y015485D01*
X006131Y015408D02*
X004790Y015408D01*
X004868Y015330D02*
X006131Y015330D01*
X006131Y015253D02*
X004945Y015253D01*
X005022Y015176D02*
X006131Y015176D01*
X006131Y015099D02*
X005099Y015099D01*
X005177Y015022D02*
X006131Y015022D01*
X006131Y014944D02*
X005283Y014944D01*
X005360Y014867D02*
X006131Y014867D01*
X006131Y014790D02*
X005408Y014790D01*
X005485Y014713D02*
X006131Y014713D01*
X006131Y014635D02*
X005563Y014635D01*
X005640Y014558D02*
X006131Y014558D01*
X006131Y014481D02*
X005717Y014481D01*
X005794Y014404D02*
X006131Y014404D01*
X006131Y014326D02*
X005872Y014326D01*
X005949Y014249D02*
X006131Y014249D01*
X006130Y014172D02*
X006026Y014172D01*
X006103Y014095D02*
X006110Y014095D01*
X007470Y015361D02*
X007982Y015873D01*
X008533Y015873D01*
X008381Y015717D02*
X008022Y015717D01*
X007790Y015485D02*
X013614Y015485D01*
X013864Y015176D02*
X015009Y015176D01*
X015009Y015099D02*
X013787Y015099D01*
X013710Y015022D02*
X015009Y015022D01*
X015009Y014944D02*
X013632Y014944D01*
X013555Y014867D02*
X015009Y014867D01*
X015009Y014790D02*
X013478Y014790D01*
X013430Y014713D02*
X015009Y014713D01*
X015009Y014635D02*
X013353Y014635D01*
X013163Y014635D02*
X012098Y014635D01*
X012098Y014558D02*
X015009Y014558D01*
X015009Y014481D02*
X012096Y014481D01*
X012019Y014404D02*
X015009Y014404D01*
X015009Y013708D02*
X014691Y013708D01*
X014779Y013631D02*
X015009Y013631D01*
X015009Y013554D02*
X014837Y013554D01*
X014875Y013477D02*
X015009Y013477D01*
X015009Y013399D02*
X014898Y013399D01*
X015009Y012704D02*
X014573Y012704D01*
X014698Y012627D02*
X015009Y012627D01*
X015009Y012550D02*
X014775Y012550D01*
X014810Y012473D02*
X015009Y012473D01*
X015009Y012395D02*
X014842Y012395D01*
X014848Y012318D02*
X015009Y012318D01*
X015009Y012241D02*
X014848Y012241D01*
X014833Y012164D02*
X015009Y012164D01*
X015009Y012086D02*
X014801Y012086D01*
X014753Y012009D02*
X015009Y012009D01*
X015009Y011932D02*
X014676Y011932D01*
X014520Y011855D02*
X015009Y011855D01*
X015009Y011777D02*
X014083Y011777D01*
X014006Y011700D02*
X014216Y011700D01*
X014098Y011623D02*
X013928Y011623D01*
X013851Y011546D02*
X014020Y011546D01*
X013988Y011468D02*
X013774Y011468D01*
X014000Y011082D02*
X012733Y011082D01*
X012810Y011005D02*
X014050Y011005D01*
X014128Y010928D02*
X012888Y010928D01*
X012965Y010851D02*
X014289Y010851D01*
X014238Y010773D02*
X013042Y010773D01*
X013119Y010696D02*
X014091Y010696D01*
X014009Y010619D02*
X013196Y010619D01*
X013274Y010542D02*
X013956Y010542D01*
X013921Y010464D02*
X013351Y010464D01*
X013413Y009537D02*
X011206Y009537D01*
X011212Y009460D02*
X013490Y009460D01*
X013567Y009383D02*
X011212Y009383D01*
X011212Y009377D02*
X010994Y009377D01*
X010994Y009771D01*
X010994Y009771D01*
X010994Y009634D01*
X010994Y009377D01*
X010994Y009377D01*
X010994Y009377D01*
X011212Y009377D01*
X010994Y009383D02*
X010994Y009383D01*
X010994Y009460D02*
X010994Y009460D01*
X010994Y009537D02*
X010994Y009537D01*
X010994Y009615D02*
X010994Y009615D01*
X010994Y009692D02*
X010994Y009692D01*
X010994Y009769D02*
X010994Y009769D01*
X010994Y009846D02*
X010994Y009846D01*
X010994Y009924D02*
X010994Y009924D01*
X010994Y010001D02*
X010994Y010001D01*
X010994Y010078D02*
X010994Y010078D01*
X010994Y010155D02*
X010994Y010155D01*
X010994Y010233D02*
X010994Y010233D01*
X010994Y010310D02*
X010994Y010310D01*
X010994Y010387D02*
X010994Y010387D01*
X010994Y010464D02*
X010994Y010464D01*
X010994Y010542D02*
X010994Y010542D01*
X010994Y011031D02*
X010994Y011168D01*
X010896Y011267D01*
X010463Y011267D01*
X010345Y011149D01*
X010345Y011050D01*
X010126Y011082D02*
X009415Y011082D01*
X009411Y011005D02*
X010126Y011005D01*
X010158Y010928D02*
X009391Y010928D01*
X009415Y011160D02*
X010145Y011160D01*
X010222Y011237D02*
X009454Y011237D01*
X009454Y011314D02*
X010314Y011314D01*
X010391Y011391D02*
X009454Y011391D01*
X009578Y010469D02*
X010233Y010469D01*
X010254Y010448D01*
X010339Y010448D01*
X010348Y010439D01*
X010481Y010439D01*
X010481Y010071D01*
X010435Y010117D01*
X010254Y010117D01*
X010211Y010074D01*
X010200Y010086D01*
X009977Y010086D01*
X009945Y010053D01*
X009943Y010061D01*
X009925Y010092D01*
X009899Y010118D01*
X009867Y010137D01*
X009831Y010146D01*
X009734Y010146D01*
X009637Y010146D01*
X009602Y010137D01*
X009578Y010123D01*
X009578Y010469D01*
X009578Y010464D02*
X010238Y010464D01*
X010481Y010387D02*
X009578Y010387D01*
X009578Y010310D02*
X010481Y010310D01*
X010481Y010233D02*
X009578Y010233D01*
X009578Y010155D02*
X010481Y010155D01*
X010474Y010078D02*
X010481Y010078D01*
X010215Y010078D02*
X010207Y010078D01*
X009970Y010078D02*
X009933Y010078D01*
X009734Y010078D02*
X009734Y010078D01*
X009734Y010146D02*
X009734Y009889D01*
X009734Y009889D01*
X009734Y010146D01*
X009734Y010001D02*
X009734Y010001D01*
X009734Y009924D02*
X009734Y009924D01*
X009248Y009228D02*
X009232Y009228D01*
X009065Y009228D02*
X009065Y009228D01*
X009065Y009198D02*
X009065Y009456D01*
X009065Y009456D01*
X009065Y009198D01*
X009065Y009306D02*
X009065Y009306D01*
X009065Y009383D02*
X009065Y009383D01*
X009065Y009460D02*
X009065Y009460D01*
X009065Y009537D02*
X009065Y009537D01*
X009065Y009615D02*
X009065Y009615D01*
X009065Y009692D02*
X009065Y009692D01*
X009065Y009769D02*
X009065Y009769D01*
X009065Y009846D02*
X009065Y009846D01*
X009065Y009924D02*
X009065Y009924D01*
X009065Y010001D02*
X009065Y010001D01*
X009065Y010078D02*
X009065Y010078D01*
X009065Y010155D02*
X009065Y010155D01*
X009065Y010233D02*
X009065Y010233D01*
X009065Y010310D02*
X009065Y010310D01*
X007410Y009753D02*
X007262Y009753D01*
X007182Y009673D01*
X007175Y009673D01*
X007175Y009685D01*
X007129Y009731D01*
X006906Y009731D01*
X006874Y009699D01*
X006872Y009706D01*
X006854Y009738D01*
X006828Y009764D01*
X006796Y009782D01*
X006760Y009792D01*
X006663Y009792D01*
X006566Y009792D01*
X006531Y009782D01*
X006499Y009764D01*
X006473Y009738D01*
X006455Y009706D01*
X006445Y009671D01*
X006445Y009534D01*
X006445Y009398D01*
X006455Y009363D01*
X006473Y009331D01*
X006499Y009305D01*
X006531Y009286D01*
X006566Y009277D01*
X006663Y009277D01*
X006663Y009534D01*
X006663Y009534D01*
X006445Y009534D01*
X006663Y009534D01*
X006663Y009534D01*
X006663Y009277D01*
X006760Y009277D01*
X006796Y009286D01*
X006828Y009305D01*
X006854Y009331D01*
X006872Y009363D01*
X006874Y009370D01*
X006893Y009350D01*
X006820Y009277D01*
X005917Y008374D01*
X005672Y008374D01*
X005592Y008454D01*
X005412Y008454D01*
X005284Y008326D01*
X005284Y008296D01*
X005136Y008296D01*
X005013Y008173D01*
X004932Y008253D01*
X004932Y009001D01*
X004853Y009081D01*
X005284Y009081D01*
X005365Y009162D01*
X006899Y010696D01*
X006899Y010264D01*
X007410Y009753D01*
X007394Y009769D02*
X006819Y009769D01*
X006663Y009769D02*
X006663Y009769D01*
X006663Y009792D02*
X006663Y009534D01*
X006663Y009534D01*
X006663Y009792D01*
X006663Y009692D02*
X006663Y009692D01*
X006663Y009615D02*
X006663Y009615D01*
X006663Y009537D02*
X006663Y009537D01*
X006663Y009460D02*
X006663Y009460D01*
X006663Y009383D02*
X006663Y009383D01*
X006663Y009306D02*
X006663Y009306D01*
X006771Y009228D02*
X005432Y009228D01*
X005365Y009162D02*
X005365Y009162D01*
X005354Y009151D02*
X006694Y009151D01*
X006617Y009074D02*
X004859Y009074D01*
X004932Y008997D02*
X006540Y008997D01*
X006463Y008920D02*
X004932Y008920D01*
X004932Y008842D02*
X006385Y008842D01*
X006308Y008765D02*
X004932Y008765D01*
X004932Y008688D02*
X006231Y008688D01*
X006154Y008611D02*
X004932Y008611D01*
X004932Y008533D02*
X006076Y008533D01*
X005999Y008456D02*
X004932Y008456D01*
X004932Y008379D02*
X005337Y008379D01*
X005284Y008302D02*
X004932Y008302D01*
X004961Y008224D02*
X005064Y008224D01*
X005226Y008078D02*
X005305Y007999D01*
X005620Y007999D01*
X005699Y008078D01*
X006053Y008078D01*
X006919Y008944D01*
X007234Y008944D01*
X007352Y009219D02*
X006959Y009219D01*
X005974Y008235D01*
X005502Y008235D01*
X005667Y008379D02*
X005922Y008379D01*
X005778Y007920D02*
X005699Y007842D01*
X005148Y007842D01*
X004793Y008196D01*
X004793Y008944D01*
X004675Y009062D01*
X004478Y009062D01*
X004321Y008905D01*
X002943Y008905D01*
X002864Y008983D01*
X002598Y009228D02*
X002019Y009228D01*
X002019Y009151D02*
X002408Y009151D01*
X002331Y008920D02*
X002019Y008920D01*
X002019Y009306D02*
X002675Y009306D01*
X002782Y009460D02*
X002019Y009460D01*
X002019Y009383D02*
X002859Y009383D01*
X002704Y009537D02*
X002019Y009537D01*
X002019Y009615D02*
X002686Y009615D01*
X002686Y009692D02*
X002019Y009692D01*
X002088Y009769D02*
X002380Y009769D01*
X002352Y009846D02*
X002116Y009846D01*
X002116Y009924D02*
X002352Y009924D01*
X002352Y010001D02*
X002116Y010001D01*
X002116Y010078D02*
X002352Y010078D01*
X002352Y010155D02*
X002116Y010155D01*
X002116Y010233D02*
X002352Y010233D01*
X002321Y010310D02*
X002116Y010310D01*
X002103Y010387D02*
X002273Y010387D01*
X002273Y010464D02*
X001743Y010464D01*
X001743Y010542D02*
X002273Y010542D01*
X002273Y010619D02*
X001743Y010619D01*
X001743Y010696D02*
X002273Y010696D01*
X002273Y010773D02*
X001743Y010773D01*
X001743Y010851D02*
X002273Y010851D01*
X002273Y010928D02*
X001743Y010928D01*
X001743Y011005D02*
X002273Y011005D01*
X002273Y011082D02*
X001743Y011082D01*
X001743Y011160D02*
X002320Y011160D01*
X002368Y011237D02*
X001743Y011237D01*
X001743Y011314D02*
X002445Y011314D01*
X002450Y011391D02*
X001743Y011391D01*
X001743Y011468D02*
X002450Y011468D01*
X002450Y011546D02*
X001743Y011546D01*
X001743Y011623D02*
X002450Y011623D01*
X002437Y011700D02*
X001743Y011700D01*
X001743Y011777D02*
X002370Y011777D01*
X002370Y011855D02*
X001743Y011855D01*
X001743Y011932D02*
X002370Y011932D01*
X002432Y012009D02*
X001743Y012009D01*
X001743Y012086D02*
X002883Y012086D01*
X002883Y012009D02*
X002746Y012009D01*
X002807Y011932D02*
X002883Y011932D01*
X002883Y011855D02*
X002807Y011855D01*
X002807Y011777D02*
X002883Y011777D01*
X002883Y011700D02*
X002740Y011700D01*
X002727Y011623D02*
X002883Y011623D01*
X002883Y011546D02*
X002727Y011546D01*
X002741Y011468D02*
X002883Y011468D01*
X002883Y011391D02*
X002818Y011391D01*
X002785Y011227D02*
X002589Y011424D01*
X002589Y011857D01*
X002883Y012164D02*
X001743Y012164D01*
X001743Y012241D02*
X002883Y012241D01*
X002883Y012318D02*
X001743Y012318D01*
X001743Y012395D02*
X002883Y012395D01*
X002883Y012473D02*
X001743Y012473D01*
X001743Y012550D02*
X001755Y012550D01*
X002713Y012550D02*
X002883Y012550D01*
X002883Y012627D02*
X002785Y012627D01*
X002785Y012704D02*
X002883Y012704D01*
X002883Y012782D02*
X002785Y012782D01*
X002785Y012859D02*
X002883Y012859D01*
X002883Y012936D02*
X002785Y012936D01*
X002785Y013013D02*
X002883Y013013D01*
X002883Y013091D02*
X002785Y013091D01*
X002785Y013168D02*
X002883Y013168D01*
X002883Y013245D02*
X002785Y013245D01*
X002785Y013322D02*
X002883Y013322D01*
X002883Y013399D02*
X002785Y013399D01*
X002785Y013477D02*
X002883Y013477D01*
X002883Y013554D02*
X002785Y013554D01*
X002785Y013631D02*
X002883Y013631D01*
X002883Y013708D02*
X002785Y013708D01*
X002785Y013786D02*
X002883Y013786D01*
X002883Y013863D02*
X002785Y013863D01*
X002785Y013940D02*
X002883Y013940D01*
X002883Y014017D02*
X002785Y014017D01*
X002775Y014095D02*
X002883Y014095D01*
X002873Y014172D02*
X002698Y014172D01*
X002796Y014249D02*
X001743Y014249D01*
X001743Y014172D02*
X001770Y014172D01*
X001743Y014326D02*
X002719Y014326D01*
X002641Y014404D02*
X001743Y014404D01*
X001743Y014481D02*
X002564Y014481D01*
X002487Y014558D02*
X001743Y014558D01*
X001743Y014635D02*
X002410Y014635D01*
X002332Y014713D02*
X001743Y014713D01*
X001743Y014790D02*
X002255Y014790D01*
X002178Y014867D02*
X001743Y014867D01*
X001743Y014944D02*
X002174Y014944D01*
X001995Y016108D02*
X001995Y016108D01*
X003790Y013013D02*
X004252Y013013D01*
X004175Y012936D02*
X003790Y012936D01*
X003790Y012859D02*
X004098Y012859D01*
X004021Y012782D02*
X003790Y012782D01*
X003790Y012704D02*
X003943Y012704D01*
X003866Y012627D02*
X003790Y012627D01*
X002785Y011227D02*
X002785Y010578D01*
X002776Y010568D01*
X003652Y010086D02*
X003809Y009928D01*
X003848Y009928D01*
X003927Y010007D01*
X004636Y010007D01*
X005509Y009306D02*
X006498Y009306D01*
X006449Y009383D02*
X005586Y009383D01*
X005663Y009460D02*
X006445Y009460D01*
X006445Y009537D02*
X005741Y009537D01*
X005818Y009615D02*
X006445Y009615D01*
X006451Y009692D02*
X005895Y009692D01*
X005972Y009769D02*
X006508Y009769D01*
X006281Y010078D02*
X007085Y010078D01*
X007162Y010001D02*
X006204Y010001D01*
X006127Y009924D02*
X007239Y009924D01*
X007317Y009846D02*
X006050Y009846D01*
X006358Y010155D02*
X007008Y010155D01*
X006930Y010233D02*
X006436Y010233D01*
X006513Y010310D02*
X006899Y010310D01*
X006899Y010387D02*
X006590Y010387D01*
X006667Y010464D02*
X006899Y010464D01*
X006899Y010542D02*
X006745Y010542D01*
X006822Y010619D02*
X006899Y010619D01*
X007168Y009692D02*
X007201Y009692D01*
X007352Y009534D02*
X007018Y009534D01*
X006849Y009306D02*
X006829Y009306D01*
X006880Y008668D02*
X007352Y008668D01*
X006880Y008668D02*
X006132Y007920D01*
X005778Y007920D01*
X005717Y007529D02*
X004420Y007529D01*
X004420Y007545D02*
X003987Y007978D01*
X003906Y008059D01*
X003437Y008059D01*
X003358Y007980D01*
X003277Y007899D01*
X003277Y007545D01*
X003237Y007505D01*
X003237Y006712D01*
X003158Y006633D01*
X003158Y006452D01*
X003286Y006324D01*
X003466Y006324D01*
X003594Y006452D01*
X003594Y006633D01*
X003515Y006712D01*
X003515Y007390D01*
X003554Y007430D01*
X003554Y007782D01*
X003791Y007782D01*
X004143Y007430D01*
X004143Y007224D01*
X004063Y007145D01*
X004063Y006964D01*
X004191Y006836D01*
X004372Y006836D01*
X004432Y006896D01*
X005253Y006896D01*
X005271Y006914D01*
X005356Y006914D01*
X005484Y007042D01*
X005484Y007223D01*
X005356Y007351D01*
X005175Y007351D01*
X005047Y007223D01*
X005047Y007213D01*
X004432Y007213D01*
X004420Y007224D01*
X004420Y007545D01*
X004358Y007606D02*
X004872Y007606D01*
X004794Y007684D02*
X004281Y007684D01*
X004204Y007761D02*
X004717Y007761D01*
X004640Y007838D02*
X004127Y007838D01*
X004050Y007915D02*
X004563Y007915D01*
X004485Y007993D02*
X003972Y007993D01*
X003848Y007920D02*
X003494Y007920D01*
X003415Y007842D01*
X003415Y007487D01*
X003376Y007448D01*
X003376Y006542D01*
X003594Y006525D02*
X005796Y006525D01*
X005796Y006448D02*
X003590Y006448D01*
X003513Y006371D02*
X005796Y006371D01*
X005796Y006293D02*
X002019Y006293D01*
X002019Y006216D02*
X005796Y006216D01*
X005796Y006139D02*
X002023Y006139D01*
X002158Y006062D02*
X005796Y006062D01*
X005796Y005984D02*
X002216Y005984D01*
X002216Y005907D02*
X005796Y005907D01*
X005796Y005830D02*
X002216Y005830D01*
X002147Y005753D02*
X005796Y005753D01*
X005796Y005675D02*
X001743Y005675D01*
X001743Y005598D02*
X005796Y005598D01*
X005796Y005521D02*
X001743Y005521D01*
X001743Y005444D02*
X005782Y005444D01*
X005705Y005366D02*
X001743Y005366D01*
X001743Y005289D02*
X005627Y005289D01*
X005550Y005212D02*
X001743Y005212D01*
X001743Y005135D02*
X005473Y005135D01*
X005396Y005058D02*
X001743Y005058D01*
X001743Y004980D02*
X005319Y004980D01*
X005241Y004903D02*
X001743Y004903D01*
X001743Y004826D02*
X005164Y004826D01*
X005087Y004749D02*
X001743Y004749D01*
X001743Y004671D02*
X005010Y004671D01*
X004932Y004594D02*
X001743Y004594D01*
X001743Y004517D02*
X004855Y004517D01*
X004778Y004440D02*
X001743Y004440D01*
X001743Y004362D02*
X004706Y004362D01*
X004693Y004285D02*
X001743Y004285D01*
X001743Y004208D02*
X004693Y004208D01*
X004731Y004131D02*
X001743Y004131D01*
X001743Y004053D02*
X004808Y004053D01*
X004866Y003976D02*
X001743Y003976D01*
X001743Y003899D02*
X004788Y003899D01*
X004711Y003822D02*
X001743Y003822D01*
X001743Y003744D02*
X004655Y003744D01*
X004655Y003667D02*
X001743Y003667D01*
X001743Y003590D02*
X004655Y003590D01*
X004655Y003513D02*
X001743Y003513D01*
X001743Y003435D02*
X004655Y003435D01*
X004655Y003358D02*
X001743Y003358D01*
X001743Y003281D02*
X004655Y003281D01*
X004655Y003204D02*
X001743Y003204D01*
X001743Y003127D02*
X004655Y003127D01*
X004655Y003049D02*
X001743Y003049D01*
X001743Y002972D02*
X004655Y002972D01*
X004655Y002895D02*
X001743Y002895D01*
X001743Y002818D02*
X004655Y002818D01*
X004655Y002740D02*
X001743Y002740D01*
X001743Y002663D02*
X004655Y002663D01*
X004655Y002586D02*
X001743Y002586D01*
X001743Y002509D02*
X004655Y002509D01*
X004655Y002431D02*
X001743Y002431D01*
X001743Y002354D02*
X004509Y002354D01*
X004432Y002277D02*
X001743Y002277D01*
X001743Y002200D02*
X004417Y002200D01*
X004417Y002122D02*
X001743Y002122D01*
X001743Y002045D02*
X004454Y002045D01*
X004531Y001968D02*
X001743Y001968D01*
X001743Y005753D02*
X001849Y005753D01*
X001780Y005830D02*
X001743Y005830D01*
X001767Y005892D02*
X001767Y005892D01*
X001751Y005907D02*
X001743Y005907D01*
X002019Y006371D02*
X003239Y006371D01*
X003162Y006448D02*
X002019Y006448D01*
X002019Y006525D02*
X003158Y006525D01*
X003158Y006602D02*
X002019Y006602D01*
X002019Y006680D02*
X003204Y006680D01*
X003237Y006757D02*
X002019Y006757D01*
X002019Y006834D02*
X003237Y006834D01*
X003237Y006911D02*
X002019Y006911D01*
X002019Y006989D02*
X003237Y006989D01*
X003237Y007066D02*
X002830Y007066D01*
X002908Y007143D02*
X003237Y007143D01*
X003237Y007220D02*
X002925Y007220D01*
X002925Y007297D02*
X003237Y007297D01*
X003237Y007375D02*
X002892Y007375D01*
X002845Y007452D02*
X003237Y007452D01*
X003261Y007529D02*
X002845Y007529D01*
X002845Y007606D02*
X003277Y007606D01*
X003277Y007684D02*
X002845Y007684D01*
X002845Y007761D02*
X003277Y007761D01*
X003277Y007838D02*
X002845Y007838D01*
X002845Y007915D02*
X003293Y007915D01*
X003370Y007993D02*
X002845Y007993D01*
X002845Y008070D02*
X004408Y008070D01*
X004331Y008147D02*
X002854Y008147D01*
X002931Y008224D02*
X004254Y008224D01*
X003848Y007920D02*
X004282Y007487D01*
X004282Y007054D01*
X004424Y007220D02*
X005047Y007220D01*
X005121Y007297D02*
X004420Y007297D01*
X004420Y007375D02*
X005914Y007375D01*
X005914Y007297D02*
X005410Y007297D01*
X005484Y007220D02*
X005914Y007220D01*
X005914Y007143D02*
X005484Y007143D01*
X005484Y007066D02*
X005914Y007066D01*
X005914Y006989D02*
X005430Y006989D01*
X005268Y006911D02*
X005914Y006911D01*
X005912Y006834D02*
X003515Y006834D01*
X003515Y006757D02*
X005835Y006757D01*
X005796Y006680D02*
X003548Y006680D01*
X003594Y006602D02*
X005796Y006602D01*
X005935Y006660D02*
X006053Y006779D01*
X006053Y007369D01*
X006841Y008156D01*
X007313Y008156D01*
X006919Y007999D02*
X006211Y007290D01*
X006211Y006700D01*
X006093Y006582D01*
X006093Y005322D01*
X005226Y004456D01*
X005226Y004259D01*
X005226Y004141D01*
X004793Y003708D01*
X004793Y002330D01*
X004636Y002172D01*
X004932Y002431D02*
X007756Y002431D01*
X007530Y002940D02*
X007274Y003196D01*
X007274Y003668D01*
X006762Y004180D01*
X006888Y004362D02*
X006950Y004362D01*
X005796Y004362D02*
X005432Y004362D01*
X005445Y004285D02*
X005796Y004285D01*
X005796Y004208D02*
X005445Y004208D01*
X005407Y004131D02*
X005796Y004131D01*
X005775Y004053D02*
X005335Y004053D01*
X005258Y003976D02*
X005756Y003976D01*
X005756Y003899D02*
X005181Y003899D01*
X005104Y003822D02*
X005788Y003822D01*
X005865Y003744D02*
X005026Y003744D01*
X004911Y004259D02*
X004911Y004377D01*
X005935Y005401D01*
X005935Y006660D01*
X005780Y007452D02*
X004420Y007452D01*
X004143Y007375D02*
X003515Y007375D01*
X003515Y007297D02*
X004143Y007297D01*
X004139Y007220D02*
X003515Y007220D01*
X003515Y007143D02*
X004063Y007143D01*
X004063Y007066D02*
X003515Y007066D01*
X003515Y006989D02*
X004063Y006989D01*
X004115Y006911D02*
X003515Y006911D01*
X003554Y007452D02*
X004121Y007452D01*
X004043Y007529D02*
X003554Y007529D01*
X003554Y007606D02*
X003966Y007606D01*
X003889Y007684D02*
X003554Y007684D01*
X003554Y007761D02*
X003812Y007761D01*
X005793Y004826D02*
X005796Y004826D01*
X005796Y004749D02*
X005715Y004749D01*
X005638Y004671D02*
X005796Y004671D01*
X005796Y004594D02*
X005561Y004594D01*
X005484Y004517D02*
X005796Y004517D01*
X005796Y004440D02*
X005406Y004440D01*
X006851Y006216D02*
X009507Y006216D01*
X009430Y006139D02*
X006928Y006139D01*
X007006Y006062D02*
X009353Y006062D01*
X009275Y005984D02*
X007083Y005984D01*
X006783Y006293D02*
X009584Y006293D01*
X009662Y006371D02*
X006783Y006371D01*
X006732Y006448D02*
X009697Y006448D01*
X009570Y006525D02*
X006603Y006525D01*
X006625Y006602D02*
X009493Y006602D01*
X009416Y006680D02*
X006625Y006680D01*
X006625Y006757D02*
X009338Y006757D01*
X010063Y005907D02*
X010304Y005907D01*
X010304Y005830D02*
X009986Y005830D01*
X009909Y005753D02*
X010304Y005753D01*
X010304Y005675D02*
X009831Y005675D01*
X009754Y005598D02*
X010304Y005598D01*
X010304Y005521D02*
X009677Y005521D01*
X009600Y005444D02*
X010304Y005444D01*
X010304Y005366D02*
X009522Y005366D01*
X009445Y005289D02*
X010304Y005289D01*
X010304Y005212D02*
X009368Y005212D01*
X009291Y005135D02*
X010304Y005135D01*
X010304Y005058D02*
X009213Y005058D01*
X009136Y004980D02*
X010304Y004980D01*
X010304Y004903D02*
X009059Y004903D01*
X008982Y004826D02*
X010304Y004826D01*
X010304Y004749D02*
X008948Y004749D01*
X008948Y004671D02*
X010304Y004671D01*
X010304Y004594D02*
X009019Y004594D01*
X009027Y004517D02*
X010304Y004517D01*
X010304Y004440D02*
X009027Y004440D01*
X008985Y004362D02*
X010304Y004362D01*
X010304Y004285D02*
X008908Y004285D01*
X008710Y004285D02*
X008397Y004285D01*
X008397Y004208D02*
X010304Y004208D01*
X010304Y004131D02*
X008397Y004131D01*
X008397Y004362D02*
X008633Y004362D01*
X008591Y004440D02*
X008397Y004440D01*
X009559Y003744D02*
X010304Y003744D01*
X010304Y003667D02*
X009530Y003667D01*
X009479Y003590D02*
X010304Y003590D01*
X010378Y003513D02*
X009479Y003513D01*
X008603Y002045D02*
X014015Y002045D01*
X014087Y001968D02*
X008525Y001968D01*
X008448Y001891D02*
X014192Y001891D01*
X014607Y001891D02*
X015009Y001891D01*
X015009Y001968D02*
X014712Y001968D01*
X014784Y002045D02*
X015009Y002045D01*
X015009Y002122D02*
X014816Y002122D01*
X014848Y002200D02*
X015009Y002200D01*
X015009Y002277D02*
X014848Y002277D01*
X014848Y002354D02*
X015009Y002354D01*
X015009Y002431D02*
X014827Y002431D01*
X014795Y002509D02*
X015009Y002509D01*
X015009Y002586D02*
X014739Y002586D01*
X014662Y002663D02*
X015009Y002663D01*
X015009Y001813D02*
X008371Y001813D01*
X008294Y001736D02*
X015009Y001736D01*
X015009Y006602D02*
X014908Y006602D01*
X014985Y006680D02*
X015009Y006680D01*
X013888Y008802D02*
X013888Y009495D01*
X012628Y010755D01*
X012392Y010755D01*
X012195Y010952D01*
X012174Y010696D02*
X012254Y010696D01*
X012222Y010619D02*
X012176Y010619D01*
X012176Y010542D02*
X012213Y010542D01*
X012213Y010464D02*
X012176Y010464D01*
X012176Y010387D02*
X012254Y010387D01*
X012331Y010310D02*
X012176Y010310D01*
X012510Y010991D02*
X012628Y010991D01*
X014329Y009290D01*
X014400Y009290D01*
X014197Y009692D02*
X014123Y009692D01*
X014360Y009781D02*
X014360Y009781D01*
X014360Y009846D02*
X014439Y009846D01*
X014439Y009924D02*
X014360Y009924D01*
X014360Y010001D02*
X014439Y010001D01*
X014439Y010078D02*
X014360Y010078D01*
X014360Y010155D02*
X014439Y010155D01*
X014439Y010387D02*
X014360Y010387D01*
X014360Y010464D02*
X014439Y010464D01*
X014439Y010542D02*
X014360Y010542D01*
X014360Y010619D02*
X014439Y010619D01*
X014439Y010696D02*
X014360Y010696D01*
X014360Y010773D02*
X014439Y010773D01*
X014906Y010233D02*
X015009Y010233D01*
X015009Y010155D02*
X014891Y010155D01*
X014863Y010078D02*
X015009Y010078D01*
X015009Y010001D02*
X014819Y010001D01*
X014753Y009924D02*
X015009Y009924D01*
X015009Y009846D02*
X014650Y009846D01*
X013573Y011464D02*
X014400Y012290D01*
X014279Y011855D02*
X014160Y011855D01*
X013573Y011464D02*
X012156Y011464D01*
X011752Y011060D01*
X011182Y013399D02*
X013901Y013399D01*
X013890Y013330D02*
X013890Y013330D01*
X013925Y013477D02*
X011259Y013477D01*
X011573Y013554D02*
X013962Y013554D01*
X014020Y013631D02*
X011650Y013631D01*
X011727Y013708D02*
X014108Y013708D01*
X014276Y013786D02*
X011805Y013786D01*
X011741Y014404D02*
X011355Y014404D01*
X011329Y014574D02*
X011880Y014574D01*
X011973Y014790D02*
X013039Y014790D01*
X013086Y014713D02*
X012050Y014713D01*
X011329Y014574D02*
X010817Y014062D01*
X010702Y013708D02*
X010932Y013708D01*
X010854Y013631D02*
X010779Y013631D01*
X013941Y015253D02*
X015009Y015253D01*
X015009Y015330D02*
X014019Y015330D01*
X014096Y015408D02*
X015009Y015408D01*
X015009Y015485D02*
X014173Y015485D01*
X014250Y015562D02*
X015009Y015562D01*
X015009Y015639D02*
X014839Y015639D01*
X014917Y015717D02*
X015009Y015717D01*
X015009Y015794D02*
X014994Y015794D01*
X010304Y006062D02*
X010218Y006062D01*
X010140Y005984D02*
X010304Y005984D01*
X010778Y004534D02*
X010817Y004495D01*
D29*
X010502Y004219D02*
X010502Y003668D01*
X011880Y002290D01*
X014400Y002290D01*
X010502Y004219D02*
X010502Y006227D01*
X009793Y006660D02*
X009715Y006660D01*
X009360Y007015D01*
X006447Y007015D01*
X007431Y010509D02*
X008573Y010509D01*
X008730Y010666D01*
X008809Y010666D01*
X009193Y010666D01*
X009193Y011050D01*
X009193Y010666D02*
X009419Y010666D01*
X010345Y010666D01*
X010699Y013432D02*
X010935Y013432D01*
X011250Y013747D01*
X011486Y013747D01*
X011782Y014042D01*
X010699Y013432D02*
X010384Y013747D01*
X009557Y013747D01*
X007904Y013747D01*
X006368Y013747D01*
X006171Y013747D01*
X005187Y014731D01*
X004557Y015361D01*
X004282Y015637D01*
X002864Y015637D01*
X002707Y015794D01*
X002589Y015794D01*
X002077Y016306D01*
X002077Y017448D01*
X002234Y013353D02*
X002470Y013353D01*
X003888Y012369D02*
X004400Y012881D01*
X005541Y012881D01*
X006171Y013117D02*
X006171Y012133D01*
X005030Y010991D01*
X006329Y014062D02*
X006329Y015912D01*
X006211Y016031D01*
X006919Y016503D02*
X007234Y016818D01*
X008730Y016818D01*
X009793Y017881D01*
X010529Y017881D01*
X010869Y017881D02*
X012510Y017881D01*
X012510Y018550D01*
X014360Y017920D02*
X014360Y017527D01*
X014872Y017015D01*
X014872Y015952D01*
X014715Y015794D01*
X014203Y015794D01*
X013258Y014849D01*
X014360Y017920D02*
X014636Y018196D01*
X006998Y014062D02*
X006329Y014062D01*
X002549Y011109D02*
X002470Y011031D01*
X002470Y010440D01*
X002569Y010342D01*
X002569Y010086D01*
D30*
X004282Y007054D02*
X005187Y007054D01*
X005266Y007133D01*
X008809Y011050D02*
X008809Y011321D01*
X009257Y011321D02*
X009257Y011114D01*
X009193Y011050D01*
X009419Y010666D02*
X009419Y010322D01*
X009419Y009889D01*
X009419Y009456D02*
X009646Y009456D01*
X009705Y009515D01*
X009852Y009515D01*
X010089Y009751D01*
X010089Y009889D01*
X010335Y009889D01*
X010345Y009899D01*
X010640Y009899D01*
X010640Y009771D01*
X010640Y009377D01*
X010640Y009269D01*
X010738Y009131D01*
X010738Y008865D01*
X010640Y009899D02*
X010640Y010164D01*
X010640Y010597D01*
X010640Y011031D01*
X010640Y010597D02*
X010413Y010597D01*
X010345Y010666D01*
X010374Y009899D02*
X010345Y009899D01*
X011447Y004613D02*
X011053Y004219D01*
X010502Y004219D01*
D31*
X006447Y006621D02*
X006447Y007015D01*
X006447Y006621D02*
X006289Y006464D01*
X006289Y005204D01*
X005974Y004889D01*
X005974Y003944D01*
X001998Y005912D02*
X001841Y006070D01*
X001841Y010027D01*
X001900Y010086D01*
X010089Y009899D02*
X010089Y009889D01*
M02*
