%
M48
M72
T01C0.0118
T02C0.0120
T03C0.0197
T04C0.0400
%
T01
X1242Y2229
X1242Y2780
X1242Y3410
X1675Y3922
X1990Y4316
X2778Y3489
X2817Y3961
X2778Y2977
X3762Y2898
X3762Y3725
X3762Y4394
X4313Y5930
X4589Y6678
X4116Y7387
X3880Y7977
X3644Y8213
X3408Y8450
X3486Y8922
X3014Y9040
X3014Y8568
X2541Y8725
X2226Y8883
X2345Y9198
X2345Y9513
X1872Y8883
X2148Y8410
X2069Y8095
X1321Y8961
X1242Y10103
X1518Y10300
X2030Y11442
X1596Y11835
X1282Y11835
X2305Y12308
X2817Y13843
X2817Y14158
X2606Y14932
X2896Y15221
X3185Y14932
X3185Y15511
X2606Y15511
X2108Y14394
X1715Y14237
X1203Y14237
X1242Y16639
X1242Y17032
X1242Y17426
X3014Y16954
X3447Y18095
X4352Y18056
X4470Y17032
X5061Y15772
X5179Y14591
X4845Y14591
X4707Y13607
X4352Y12544
X4274Y12032
X4549Y11599
X4864Y12190
X5730Y11087
X6085Y11087
X6439Y11087
X5730Y10536
X5730Y10221
X5415Y9631
X5691Y9473
X5848Y8371
X6478Y9316
X6754Y9158
X7187Y9591
X7659Y9906
X8014Y10064
X8014Y9591
X7620Y10497
X7305Y10497
X7069Y10221
X6636Y9946
X7345Y11560
X7345Y11875
X7069Y12741
X6518Y12741
X5967Y12741
X6045Y13725
X6439Y13725
X6833Y13725
X7226Y14513
X7620Y14828
X7384Y15064
X7463Y16127
X7463Y16442
X8014Y17623
X7581Y17741
X7108Y18253
X6675Y18410
X6439Y18725
X6163Y18410
X5888Y18095
X5573Y17780
X5927Y18843
X7187Y18843
X8486Y19788
X8526Y18607
X9313Y18607
X9982Y18607
X10494Y17662
X10494Y17347
X10219Y17190
X10376Y16639
X10297Y16009
X10337Y15064
X10927Y15064
X11321Y15576
X11754Y15654
X11990Y15418
X11990Y14749
X12738Y13489
X12738Y12859
X12856Y12308
X12502Y11757
X12030Y11678
X11596Y11678
X11242Y11087
X10927Y11087
X11085Y10339
X11085Y10024
X10494Y9591
X10100Y9670
X9274Y10379
X9116Y10103
X8683Y11245
X8053Y13607
X8841Y13883
X9431Y14749
X9904Y14040
X10219Y13804
X10888Y14040
X11675Y13253
X11990Y13253
X10730Y12426
X12541Y10556
X12896Y10103
X12266Y9906
X12266Y9591
X11793Y9394
X11360Y8765
X11557Y7977
X11085Y7623
X11085Y7308
X11085Y6993
X11085Y6678
X11085Y6363
X11045Y5182
X11085Y4473
X10337Y4276
X9904Y4158
X9785Y3804
X10140Y3804
X10140Y3450
X10219Y2544
X9904Y2544
X9904Y2072
X9352Y2544
X9037Y2544
X8801Y2347
X8565Y2544
X8093Y2544
X7856Y2269
X7305Y2269
X7226Y1835
X7226Y1481
X8014Y1166
X9431Y1166
X10573Y1166
X10770Y1599
X11085Y1757
X11557Y1914
X11360Y2387
X11085Y2544
X10691Y2544
X11636Y2544
X11833Y3410
X12069Y4394
X12541Y3765
X13014Y4631
X12699Y5103
X12069Y5418
X12699Y7269
X13171Y7741
X13014Y8568
X13014Y9316
X12266Y8568
X13014Y11048
X13014Y11599
X14116Y12820
X13919Y14552
X13329Y14788
X13171Y15418
X13171Y16520
X14156Y15891
X12817Y19119
X12817Y19513
X9431Y16875
X9470Y16402
X9431Y16028
X8250Y15851
X6478Y16087
X6478Y16481
X3841Y14237
X3841Y13804
X3801Y12741
X3801Y12308
X3801Y11796
X3919Y10772
X4037Y9946
X3722Y9946
X3486Y9709
X4352Y9946
X4943Y10418
X3880Y8450
X3565Y6639
X5022Y5379
X5494Y6481
X5809Y6599
X5415Y6954
X5415Y7269
X6518Y7269
X8093Y7288
X8093Y6904
X8093Y6520
X8476Y6520
X8860Y6520
X9372Y6520
X9628Y6904
X9628Y7288
X9628Y7672
X9500Y8056
X9116Y8056
X8476Y8056
X8093Y8056
X7974Y5064
X7659Y5064
X7305Y4670
X7463Y4237
X7305Y3922
X6911Y5024
X6360Y4276
X6360Y3961
X5927Y3056
X5573Y3056
X5061Y3056
X4904Y1914
X4707Y1442
X5888Y1284
X8368Y4080
X8841Y4080
X8841Y3607
X9313Y4001
X8998Y5103
X8683Y5103
X11636Y1166
X12738Y1166
X2030Y6717
X1518Y6717
X1478Y7032
X1203Y7190
X1282Y7505
X1282Y7820
X1518Y6087
T02
X2522Y7170
X3033Y7170
X3033Y7682
X2522Y7682
X2522Y10438
X2522Y10950
X3033Y10950
X3033Y10438
T03
X5415Y15772
X5376Y16993
X8014Y12446
T04
X9037Y19355
X10037Y19355
X11037Y19355
X12037Y19355
X13683Y12087
X13683Y11087
X13683Y10087
X13683Y9087
X13683Y8087
X13683Y7087
X13683Y6087
X13683Y5087
X13683Y4087
X13683Y3087
X13683Y2087
X13683Y1087
X4313Y19355
M30
