%
M48
M72
T01C0.0118
T02C0.0120
T03C0.0400
%
T01
X1880Y3471
X1880Y3826
X1880Y4180
X1880Y4534
X1880Y4889
X1880Y5243
X1880Y5597
X1998Y5912
X2431Y5322
X3337Y4534
X3337Y4180
X3337Y3826
X3337Y3471
X4282Y4259
X4911Y4259
X5226Y4259
X5656Y3912
X5974Y3944
X6368Y4180
X6762Y4180
X7077Y4180
X7667Y4534
X7943Y3786
X8258Y3786
X8100Y3314
X7530Y3284
X7530Y2940
X7195Y2448
X6801Y2448
X6447Y2527
X6329Y2212
X6329Y1897
X6447Y2881
X6565Y5282
X6565Y5597
X6565Y5952
X6565Y6306
X6447Y7015
X5935Y7605
X5620Y7448
X5305Y7448
X5266Y7133
X5226Y8078
X5502Y8235
X5994Y9534
X5030Y10991
X4321Y10243
X3848Y9928
X3533Y9849
X3219Y9849
X2776Y10568
X2549Y11109
X2589Y11857
X2274Y11857
X1959Y11385
X1959Y10991
X2549Y9613
X2549Y9298
X2549Y8983
X2864Y8983
X2274Y7566
X2352Y7251
X2195Y6936
X2589Y6936
X2707Y7251
X3376Y6542
X4189Y5611
X4478Y5322
X4189Y5032
X4768Y5032
X4768Y5611
X4282Y7054
X4557Y8511
X4557Y8826
X4163Y11306
X4203Y11621
X3888Y12369
X5108Y12290
X5108Y11975
X5541Y12881
X6171Y13117
X6486Y13117
X6801Y12763
X7195Y12330
X7037Y12015
X7274Y11779
X7077Y11542
X7392Y11306
X7077Y11070
X7431Y10509
X7352Y9534
X7352Y9219
X7234Y8944
X7352Y8668
X7234Y8393
X7510Y7763
X7707Y7487
X7392Y7330
X8022Y8078
X8337Y8117
X8652Y8117
X8730Y7645
X8415Y7645
X8415Y6660
X9085Y6031
X8415Y5676
X7746Y5912
X8494Y4495
X8809Y4495
X9124Y4495
X9006Y3786
X9341Y3786
X10187Y3511
X10817Y3786
X10817Y4495
X11053Y4928
X11053Y5243
X11565Y5086
X11565Y5440
X11447Y4613
X11801Y4495
X12470Y4456
X12510Y3314
X12510Y2645
X12037Y2645
X12037Y3117
X11644Y2979
X11093Y2251
X9911Y2251
X9341Y2527
X9045Y2212
X9585Y5078
X10502Y6227
X10502Y6700
X10620Y7015
X10187Y7054
X9872Y7015
X9793Y6660
X9734Y7723
X9705Y9515
X10217Y9515
X10345Y9899
X10345Y10282
X10345Y10666
X10345Y11050
X9961Y11050
X9577Y11050
X9193Y11050
X8809Y11050
X8809Y10666
X8809Y10282
X8809Y9899
X8809Y9515
X9951Y12566
X9833Y12842
X10069Y13038
X10502Y12684
X10817Y12684
X11431Y12527
X11762Y12458
X12156Y12881
X12785Y12172
X13652Y12054
X13494Y10952
X12510Y10991
X12431Y10519
X12195Y10952
X11711Y11424
X11752Y10282
X12037Y10125
X12037Y9810
X12392Y9731
X12392Y9377
X12746Y9377
X12746Y9731
X13455Y9338
X13455Y8432
X13258Y8117
X12667Y8353
X12234Y8353
X11959Y8117
X12510Y7527
X12746Y7290
X13455Y7408
X13494Y7015
X13533Y5322
X11880Y6818
X11880Y7172
X8809Y12881
X9557Y13747
X9951Y15046
X10305Y15637
X10817Y15794
X10974Y15282
X10659Y14889
X10817Y14062
X10817Y13747
X11447Y14180
X11782Y14042
X12274Y14239
X11880Y14574
X11329Y15676
X11959Y16385
X12195Y16857
X11171Y17133
X11171Y17527
X11211Y18471
X11211Y18944
X11171Y19771
X10620Y20322
X10266Y20086
X10502Y19574
X10502Y18747
X10502Y18314
X9360Y18393
X9360Y18747
X8848Y19101
X9045Y19377
X9360Y19456
X9518Y20086
X9321Y20873
X9911Y20873
X10463Y20873
X8730Y20873
X8100Y20873
X8100Y20125
X8140Y18944
X8140Y18432
X8691Y18078
X8809Y18393
X8809Y18747
X9360Y18038
X9203Y17763
X9006Y17527
X9360Y17034
X8927Y16385
X8533Y15873
X7943Y16385
X7628Y15991
X7549Y16503
X7195Y16306
X6919Y16503
X6959Y17054
X7156Y17330
X7156Y17645
X6604Y17172
X6250Y17172
X6211Y16031
X5915Y15873
X5620Y16031
X5226Y15991
X4557Y15361
X4282Y15204
X3652Y15007
X3415Y14692
X3100Y15086
X2707Y15086
X2628Y15440
X2313Y15637
X1998Y15794
X1998Y15440
X1998Y15086
X2470Y13353
X4518Y14259
X4833Y14101
X5187Y14731
X6033Y14338
X6329Y14062
X6368Y13747
X6616Y14377
X6919Y14534
X6919Y14849
X6998Y15322
X7470Y15361
X7392Y14968
X6998Y14062
X7904Y13747
X7785Y12684
X6014Y15204
X4282Y16936
X4675Y17881
X4675Y18353
X4675Y18708
X4675Y19062
X4675Y19534
X4675Y19889
X3455Y18196
X2628Y17054
X2077Y17448
X1880Y18590
X1880Y19456
X7628Y17133
X7982Y17133
X8337Y17133
X8691Y17448
X9360Y15755
X12825Y15558
X13258Y14849
X13455Y15558
X14006Y14928
X13770Y14259
X13376Y13590
X14596Y14416
X14596Y15479
X14675Y17684
X14636Y18196
X14675Y19456
X14360Y19456
X4636Y2172
X4557Y1857
T02
X3671Y7664
X3671Y8176
X3159Y8176
X3159Y7664
X3159Y16011
X3159Y16523
X3671Y16523
X3671Y16011
T03
X4754Y20558
X11400Y20558
X12400Y20558
X13400Y20558
X14400Y20558
X14400Y13290
X14400Y12290
X14400Y11290
X14400Y10290
X14400Y9290
X14400Y8290
X14400Y7290
X14400Y6290
X14400Y5290
X14400Y4290
X14400Y3290
X14400Y2290
M30
