G75*
%MOIN*%
%OFA0B0*%
%FSLAX24Y24*%
%IPPOS*%
%LPD*%
%AMOC8*
5,1,8,0,0,1.08239X$1,22.5*
%
%ADD10R,0.0098X0.0276*%
%ADD11R,0.0276X0.0098*%
%ADD12R,0.1024X0.1024*%
%ADD13R,0.0236X0.0157*%
%ADD14R,0.0157X0.0236*%
%ADD15R,0.0197X0.0354*%
%ADD16R,0.0197X0.0138*%
%ADD17R,0.0709X0.0276*%
%ADD18R,0.0709X0.0315*%
%ADD19R,0.0787X0.0394*%
%ADD20C,0.0118*%
%ADD21R,0.0300X0.1000*%
%ADD22R,0.0350X0.0100*%
%ADD23R,0.0150X0.0175*%
%ADD24R,0.0141X0.0141*%
%ADD25R,0.0212X0.0212*%
%ADD26R,0.0472X0.0138*%
%ADD27R,0.0433X0.0591*%
%ADD28R,0.1000X0.0300*%
%ADD29R,0.0100X0.0350*%
%ADD30R,0.0175X0.0150*%
%ADD31R,0.0315X0.0098*%
%ADD32R,0.0630X0.0906*%
%ADD33R,0.0102X0.0208*%
%ADD34R,0.0208X0.0102*%
%ADD35R,0.1063X0.1063*%
%ADD36R,0.0591X0.0433*%
%ADD37R,0.0354X0.0197*%
%ADD38R,0.0276X0.0512*%
%ADD39R,0.0106X0.0106*%
%ADD40R,0.0195X0.0126*%
%ADD41R,0.0195X0.0252*%
%ADD42R,0.0118X0.0315*%
%ADD43R,0.0787X0.0748*%
%ADD44R,0.0945X0.0866*%
%ADD45R,0.0512X0.0335*%
%ADD46R,0.0140X0.0240*%
%ADD47R,0.0630X0.0390*%
%ADD48R,0.0240X0.0140*%
%ADD49R,0.0390X0.0630*%
%ADD50R,0.0520X0.0220*%
%ADD51R,0.0512X0.0276*%
%ADD52R,0.0157X0.0315*%
%ADD53R,0.0110X0.0323*%
%ADD54R,0.0384X0.0098*%
%ADD55R,0.1122X0.0642*%
%ADD56R,0.0220X0.0520*%
%ADD57R,0.0472X0.0374*%
D10*
X002379Y006639D03*
X002576Y006639D03*
X002773Y006639D03*
X002970Y006639D03*
X003166Y006639D03*
X003166Y008213D03*
X002970Y008213D03*
X002773Y008213D03*
X002576Y008213D03*
X002379Y008213D03*
X002379Y009906D03*
X002576Y009906D03*
X002773Y009906D03*
X002970Y009906D03*
X003166Y009906D03*
X003166Y011481D03*
X002970Y011481D03*
X002773Y011481D03*
X002576Y011481D03*
X002379Y011481D03*
D11*
X001985Y011087D03*
X001985Y010891D03*
X001985Y010694D03*
X001985Y010497D03*
X001985Y010300D03*
X003560Y010300D03*
X003560Y010497D03*
X003560Y010694D03*
X003560Y010891D03*
X003560Y011087D03*
X003560Y007820D03*
X003560Y007623D03*
X003560Y007426D03*
X003560Y007229D03*
X003560Y007032D03*
X001985Y007032D03*
X001985Y007229D03*
X001985Y007426D03*
X001985Y007623D03*
X001985Y007820D03*
D12*
X002773Y007426D03*
X002773Y010694D03*
D13*
X003009Y012406D03*
X003009Y012761D03*
X003009Y013076D03*
X003009Y013430D03*
X003403Y013430D03*
X003403Y013745D03*
X003403Y014099D03*
X003796Y013430D03*
X003796Y013076D03*
X003403Y013076D03*
X003403Y012761D03*
X003403Y012406D03*
X003560Y016343D03*
X003560Y016698D03*
X003954Y016698D03*
X003954Y016343D03*
X004348Y016343D03*
X004348Y016698D03*
X004741Y016698D03*
X004741Y016343D03*
X006710Y019296D03*
X006710Y019650D03*
X007182Y019650D03*
X007182Y019296D03*
X007576Y019296D03*
X007576Y019650D03*
X008088Y019650D03*
X008088Y019296D03*
X008009Y017288D03*
X008009Y016934D03*
X007615Y016934D03*
X007615Y017288D03*
X008245Y015398D03*
X008245Y015044D03*
X011749Y014217D03*
X011749Y013863D03*
X012143Y013863D03*
X012143Y014217D03*
X012537Y014217D03*
X012537Y013863D03*
X012930Y013863D03*
X012930Y014217D03*
X013324Y014217D03*
X013324Y013863D03*
X013718Y013863D03*
X013718Y014217D03*
X014111Y014217D03*
X014111Y013863D03*
X008796Y009965D03*
X008796Y009611D03*
X008403Y009611D03*
X008403Y009965D03*
X006159Y007288D03*
X006159Y006934D03*
X005765Y006934D03*
X005765Y007288D03*
X006474Y005871D03*
X006474Y005517D03*
X006316Y004650D03*
X006316Y004296D03*
X004348Y005477D03*
X004348Y005831D03*
X003166Y005871D03*
X003166Y005556D03*
X003166Y005202D03*
X003166Y006225D03*
X001985Y006284D03*
X001985Y005930D03*
X001237Y005831D03*
X001237Y006186D03*
X002261Y003902D03*
X002261Y003548D03*
X002261Y003233D03*
X002261Y002879D03*
X002261Y002564D03*
X002261Y002209D03*
X002773Y002209D03*
X002773Y002564D03*
X003166Y002564D03*
X003166Y002209D03*
X008954Y003686D03*
X008954Y004040D03*
X012064Y004729D03*
X012064Y005083D03*
X001867Y016776D03*
X001867Y017131D03*
X001867Y017800D03*
X001867Y018154D03*
X001474Y018154D03*
X001474Y017800D03*
D14*
X001533Y002229D03*
X001887Y002229D03*
X001887Y002780D03*
X001533Y002780D03*
X001533Y003410D03*
X001887Y003410D03*
X001572Y004316D03*
X001218Y004316D03*
X002399Y005536D03*
X002399Y005930D03*
X002753Y005930D03*
X002753Y005536D03*
X003678Y004749D03*
X004033Y004749D03*
X004485Y004749D03*
X004840Y004749D03*
X004722Y005891D03*
X005076Y005891D03*
X005076Y006284D03*
X004722Y006284D03*
X004289Y006678D03*
X004289Y007072D03*
X004603Y007072D03*
X004958Y007072D03*
X003934Y007072D03*
X003934Y006678D03*
X005686Y009473D03*
X006040Y009473D03*
X004289Y010103D03*
X004289Y010497D03*
X004289Y010969D03*
X004289Y011363D03*
X003934Y011363D03*
X003934Y010969D03*
X003934Y010497D03*
X003934Y010103D03*
X003383Y012032D03*
X003029Y012032D03*
X002438Y014001D03*
X002084Y014001D03*
X001611Y013883D03*
X001257Y013883D03*
X001257Y013489D03*
X001611Y013489D03*
X001611Y013095D03*
X001257Y013095D03*
X001257Y012623D03*
X001611Y012623D03*
X001611Y012229D03*
X001257Y012229D03*
X001257Y011402D03*
X001611Y011402D03*
X001611Y011009D03*
X001257Y011009D03*
X001257Y010615D03*
X001611Y010615D03*
X001611Y008017D03*
X001257Y008017D03*
X001257Y007623D03*
X001611Y007623D03*
X004210Y001914D03*
X004564Y001914D03*
X008226Y003686D03*
X008580Y003686D03*
X008580Y004394D03*
X008895Y004394D03*
X008895Y004788D03*
X009249Y004788D03*
X009249Y004394D03*
X008226Y004394D03*
X010509Y003410D03*
X010863Y003410D03*
X011178Y003410D03*
X011533Y003410D03*
X012517Y003331D03*
X012871Y003331D03*
X011729Y005182D03*
X011729Y005576D03*
X011729Y005969D03*
X011729Y006363D03*
X011729Y006757D03*
X011375Y006757D03*
X011375Y006363D03*
X011375Y005969D03*
X011375Y005576D03*
X011375Y005182D03*
X011375Y007308D03*
X011375Y007820D03*
X011729Y007820D03*
X011729Y007308D03*
X011533Y009237D03*
X011178Y009237D03*
X011178Y009631D03*
X011533Y009631D03*
X010391Y010143D03*
X010037Y010143D03*
X010037Y010694D03*
X010391Y010694D03*
X010391Y011087D03*
X010391Y011481D03*
X010037Y011481D03*
X010037Y011087D03*
X010037Y013489D03*
X010391Y013489D03*
X010548Y014119D03*
X010194Y014119D03*
X007911Y014119D03*
X007556Y014119D03*
X007556Y014513D03*
X007911Y014513D03*
X007084Y014906D03*
X007084Y015300D03*
X006729Y015300D03*
X006729Y014906D03*
X007399Y012741D03*
X007753Y012741D03*
X004525Y014513D03*
X004170Y014513D03*
X002792Y016324D03*
X002792Y016717D03*
X003147Y016717D03*
X003147Y017308D03*
X002792Y017308D03*
X002792Y017702D03*
X003147Y017702D03*
X003147Y018095D03*
X002792Y018095D03*
X001887Y017465D03*
X001533Y017465D03*
X001533Y016402D03*
X001887Y016402D03*
X001611Y015812D03*
X001257Y015812D03*
X001257Y015379D03*
X001611Y015379D03*
X001611Y014985D03*
X001257Y014985D03*
X001257Y014591D03*
X001611Y014591D03*
X002438Y016324D03*
X004289Y019158D03*
X004643Y019158D03*
X004643Y019631D03*
X004289Y019631D03*
D15*
X005273Y017387D03*
X005863Y017387D03*
X004131Y017111D03*
X003540Y017111D03*
X004643Y011087D03*
X004643Y010576D03*
X005233Y010576D03*
X005233Y011087D03*
X001808Y005339D03*
X001808Y004828D03*
X001218Y004828D03*
X001218Y005339D03*
X010706Y013489D03*
X011296Y013489D03*
X012084Y007820D03*
X012674Y007820D03*
X012674Y006875D03*
X012674Y006363D03*
X012674Y005851D03*
X012084Y005851D03*
X012084Y006363D03*
X012084Y006875D03*
D16*
X005027Y001471D03*
X005027Y001215D03*
X005027Y000959D03*
X005027Y000704D03*
X004220Y000704D03*
X004220Y000959D03*
X004220Y001215D03*
X004220Y001471D03*
D17*
X008855Y014749D03*
X008855Y018174D03*
X012596Y018174D03*
X012596Y014749D03*
D18*
X012596Y015162D03*
X012596Y015595D03*
X012596Y016028D03*
X012596Y016461D03*
X012596Y016894D03*
X012596Y017328D03*
X012596Y017761D03*
X008855Y017761D03*
X008855Y017328D03*
X008855Y016894D03*
X008855Y016461D03*
X008855Y016028D03*
X008855Y015595D03*
X008855Y015162D03*
D19*
X013875Y016963D03*
X013875Y019759D03*
D20*
X010647Y009080D03*
X010647Y008824D03*
X010647Y008568D03*
X010647Y008312D03*
X010647Y008056D03*
X010647Y007800D03*
X010647Y007544D03*
X010647Y007288D03*
X010647Y007032D03*
X010647Y006776D03*
X010647Y006520D03*
X010647Y006265D03*
X010647Y006009D03*
X010647Y005753D03*
X010391Y005753D03*
X010391Y006009D03*
X010391Y006265D03*
X010391Y006520D03*
X010135Y006520D03*
X010135Y006265D03*
X010135Y006009D03*
X010135Y005753D03*
X009879Y005753D03*
X009879Y006009D03*
X009879Y006265D03*
X009879Y006520D03*
X009879Y006776D03*
X010135Y006776D03*
X010391Y006776D03*
X010391Y007032D03*
X010135Y007032D03*
X010135Y007288D03*
X010391Y007288D03*
X010391Y007544D03*
X010391Y007800D03*
X010391Y008056D03*
X010135Y008056D03*
X010135Y007800D03*
X010135Y007544D03*
X009879Y007544D03*
X009879Y007288D03*
X009879Y007032D03*
X009879Y007800D03*
X009879Y008056D03*
X009879Y008312D03*
X009879Y008568D03*
X009879Y008824D03*
X009879Y009080D03*
X009623Y009080D03*
X009623Y008824D03*
X009623Y008568D03*
X009623Y008312D03*
X009367Y008312D03*
X009111Y008312D03*
X009111Y008568D03*
X009111Y008824D03*
X009111Y009080D03*
X009367Y009080D03*
X009367Y008824D03*
X009367Y008568D03*
X008855Y008568D03*
X008855Y008824D03*
X008855Y009080D03*
X008600Y009080D03*
X008600Y008824D03*
X008600Y008568D03*
X008600Y008312D03*
X008855Y008312D03*
X008855Y007800D03*
X008855Y007544D03*
X008855Y007288D03*
X008855Y007032D03*
X008600Y007032D03*
X008600Y007288D03*
X008600Y007544D03*
X008600Y007800D03*
X008344Y007800D03*
X008344Y007544D03*
X008344Y007288D03*
X008344Y007032D03*
X008344Y006776D03*
X008600Y006776D03*
X008855Y006776D03*
X009111Y006776D03*
X009367Y006776D03*
X009367Y007032D03*
X009111Y007032D03*
X009111Y007288D03*
X009111Y007544D03*
X009111Y007800D03*
X009367Y007800D03*
X009367Y007544D03*
X009367Y007288D03*
X009367Y006265D03*
X009111Y006265D03*
X009111Y006009D03*
X009111Y005753D03*
X009367Y005753D03*
X009367Y006009D03*
X009623Y006009D03*
X009623Y006265D03*
X009623Y005753D03*
X009623Y005497D03*
X009367Y005497D03*
X009111Y005497D03*
X008855Y005497D03*
X008600Y005497D03*
X008600Y005753D03*
X008600Y006009D03*
X008600Y006265D03*
X008855Y006265D03*
X008855Y006009D03*
X008855Y005753D03*
X008344Y005753D03*
X008344Y006009D03*
X008344Y006265D03*
X008088Y006265D03*
X008088Y006009D03*
X008088Y005753D03*
X008088Y005497D03*
X008344Y005497D03*
X007832Y005497D03*
X007832Y005753D03*
X007832Y006009D03*
X007832Y006265D03*
X007832Y006520D03*
X007832Y006776D03*
X007576Y006776D03*
X007576Y006520D03*
X007576Y006265D03*
X007576Y006009D03*
X007576Y005753D03*
X007320Y005753D03*
X007320Y006009D03*
X007320Y006265D03*
X007320Y006520D03*
X007064Y006520D03*
X007064Y006265D03*
X007064Y006009D03*
X007064Y005753D03*
X007064Y005497D03*
X007320Y005497D03*
X007576Y005497D03*
X007320Y006776D03*
X007064Y006776D03*
X007064Y007032D03*
X007320Y007032D03*
X007320Y007288D03*
X007064Y007288D03*
X007064Y007544D03*
X007064Y007800D03*
X007064Y008056D03*
X007320Y008056D03*
X007320Y007800D03*
X007320Y007544D03*
X007576Y007544D03*
X007576Y007288D03*
X007576Y007032D03*
X007832Y007032D03*
X007832Y007288D03*
X007832Y007544D03*
X007832Y007800D03*
X007832Y008056D03*
X007832Y008312D03*
X007832Y008568D03*
X007832Y008824D03*
X007832Y009080D03*
X008088Y009080D03*
X008344Y009080D03*
X008344Y008824D03*
X008088Y008824D03*
X008088Y008568D03*
X008344Y008568D03*
X008344Y008312D03*
X008088Y008312D03*
X007576Y008312D03*
X007576Y008568D03*
X007576Y008824D03*
X007576Y009080D03*
X007320Y009080D03*
X007064Y009080D03*
X007064Y008824D03*
X007320Y008824D03*
X007320Y008568D03*
X007064Y008568D03*
X007064Y008312D03*
X007320Y008312D03*
X007576Y008056D03*
X007576Y007800D03*
X009879Y005497D03*
X010135Y005497D03*
X010391Y005497D03*
X010647Y005497D03*
X010391Y008312D03*
X010391Y008568D03*
X010391Y008824D03*
X010391Y009080D03*
X010135Y009080D03*
X010135Y008824D03*
X010135Y008568D03*
X010135Y008312D03*
D21*
X009178Y011245D03*
X008178Y011245D03*
X004848Y018056D03*
X003848Y018056D03*
D22*
X003973Y017506D03*
X004723Y017506D03*
X004723Y018606D03*
X003973Y018606D03*
X008303Y011795D03*
X009053Y011795D03*
X009053Y010695D03*
X008303Y010695D03*
D23*
X008403Y010832D03*
X008953Y010832D03*
X008953Y011657D03*
X008403Y011657D03*
X004623Y017643D03*
X004073Y017643D03*
X004073Y018468D03*
X004623Y018468D03*
D24*
G36*
X004800Y018556D02*
X004898Y018654D01*
X004996Y018556D01*
X004898Y018458D01*
X004800Y018556D01*
G37*
G36*
X004800Y017556D02*
X004898Y017654D01*
X004996Y017556D01*
X004898Y017458D01*
X004800Y017556D01*
G37*
G36*
X003895Y017556D02*
X003797Y017458D01*
X003699Y017556D01*
X003797Y017654D01*
X003895Y017556D01*
G37*
G36*
X003895Y018556D02*
X003797Y018458D01*
X003699Y018556D01*
X003797Y018654D01*
X003895Y018556D01*
G37*
G36*
X004202Y014059D02*
X004104Y014157D01*
X004202Y014255D01*
X004300Y014157D01*
X004202Y014059D01*
G37*
G36*
X004202Y013155D02*
X004300Y013057D01*
X004202Y012959D01*
X004104Y013057D01*
X004202Y013155D01*
G37*
G36*
X005202Y013155D02*
X005300Y013057D01*
X005202Y012959D01*
X005104Y013057D01*
X005202Y013155D01*
G37*
G36*
X005202Y014059D02*
X005104Y014157D01*
X005202Y014255D01*
X005300Y014157D01*
X005202Y014059D01*
G37*
G36*
X008226Y011745D02*
X008128Y011647D01*
X008030Y011745D01*
X008128Y011843D01*
X008226Y011745D01*
G37*
G36*
X008226Y010745D02*
X008128Y010647D01*
X008030Y010745D01*
X008128Y010843D01*
X008226Y010745D01*
G37*
G36*
X009131Y010745D02*
X009229Y010843D01*
X009327Y010745D01*
X009229Y010647D01*
X009131Y010745D01*
G37*
G36*
X009131Y011745D02*
X009229Y011843D01*
X009327Y011745D01*
X009229Y011647D01*
X009131Y011745D01*
G37*
G36*
X010225Y011974D02*
X010323Y011876D01*
X010225Y011778D01*
X010127Y011876D01*
X010225Y011974D01*
G37*
G36*
X010225Y012878D02*
X010127Y012976D01*
X010225Y013074D01*
X010323Y012976D01*
X010225Y012878D01*
G37*
G36*
X011226Y012878D02*
X011128Y012976D01*
X011226Y013074D01*
X011324Y012976D01*
X011226Y012878D01*
G37*
G36*
X011226Y011974D02*
X011324Y011876D01*
X011226Y011778D01*
X011128Y011876D01*
X011226Y011974D01*
G37*
D25*
G36*
X011050Y012225D02*
X011199Y012076D01*
X011050Y011927D01*
X010901Y012076D01*
X011050Y012225D01*
G37*
G36*
X011050Y012627D02*
X010901Y012776D01*
X011050Y012925D01*
X011199Y012776D01*
X011050Y012627D01*
G37*
G36*
X010402Y012627D02*
X010253Y012776D01*
X010402Y012925D01*
X010551Y012776D01*
X010402Y012627D01*
G37*
G36*
X010402Y012225D02*
X010551Y012076D01*
X010402Y011927D01*
X010253Y012076D01*
X010402Y012225D01*
G37*
G36*
X008879Y011569D02*
X009028Y011718D01*
X009177Y011569D01*
X009028Y011420D01*
X008879Y011569D01*
G37*
G36*
X008879Y010921D02*
X009028Y011070D01*
X009177Y010921D01*
X009028Y010772D01*
X008879Y010921D01*
G37*
G36*
X008477Y010921D02*
X008328Y010772D01*
X008179Y010921D01*
X008328Y011070D01*
X008477Y010921D01*
G37*
G36*
X008477Y011569D02*
X008328Y011420D01*
X008179Y011569D01*
X008328Y011718D01*
X008477Y011569D01*
G37*
G36*
X005026Y013406D02*
X005175Y013257D01*
X005026Y013108D01*
X004877Y013257D01*
X005026Y013406D01*
G37*
G36*
X005026Y013808D02*
X004877Y013957D01*
X005026Y014106D01*
X005175Y013957D01*
X005026Y013808D01*
G37*
G36*
X004378Y013808D02*
X004229Y013957D01*
X004378Y014106D01*
X004527Y013957D01*
X004378Y013808D01*
G37*
G36*
X004378Y013406D02*
X004527Y013257D01*
X004378Y013108D01*
X004229Y013257D01*
X004378Y013406D01*
G37*
G36*
X004549Y017732D02*
X004698Y017881D01*
X004847Y017732D01*
X004698Y017583D01*
X004549Y017732D01*
G37*
G36*
X004549Y018380D02*
X004698Y018529D01*
X004847Y018380D01*
X004698Y018231D01*
X004549Y018380D01*
G37*
G36*
X004147Y018380D02*
X003998Y018231D01*
X003849Y018380D01*
X003998Y018529D01*
X004147Y018380D01*
G37*
G36*
X004147Y017732D02*
X003998Y017583D01*
X003849Y017732D01*
X003998Y017881D01*
X004147Y017732D01*
G37*
D26*
X005401Y018066D03*
X005401Y018322D03*
X005401Y018578D03*
X005401Y018833D03*
X007704Y018833D03*
X007704Y018578D03*
X007704Y018322D03*
X007704Y018066D03*
D27*
X007044Y017387D03*
X006375Y017387D03*
X006060Y019513D03*
X005391Y019513D03*
X005509Y015103D03*
X004840Y015103D03*
X004170Y015103D03*
X006178Y015103D03*
X005430Y012209D03*
X004761Y012209D03*
X008462Y012426D03*
X009131Y012426D03*
D28*
X010726Y012926D03*
X010726Y011926D03*
X004702Y013107D03*
X004702Y014107D03*
D29*
X005252Y013982D03*
X005252Y013232D03*
X004152Y013232D03*
X004152Y013982D03*
X010176Y012801D03*
X010176Y012051D03*
X011276Y012051D03*
X011276Y012801D03*
D30*
X011138Y012701D03*
X011138Y012151D03*
X010313Y012151D03*
X010313Y012701D03*
X005114Y013332D03*
X005114Y013882D03*
X004289Y013882D03*
X004289Y013332D03*
D31*
X005883Y015891D03*
X005883Y016087D03*
X005883Y016284D03*
X005883Y016481D03*
X005883Y016678D03*
X007064Y016678D03*
X007064Y016481D03*
X007064Y016284D03*
X007064Y016087D03*
X007064Y015891D03*
D32*
X006474Y016284D03*
D33*
X003383Y015955D03*
X003186Y015955D03*
X002989Y015955D03*
X002792Y015955D03*
X002596Y015955D03*
X002399Y015955D03*
X002399Y014487D03*
X002596Y014487D03*
X002792Y014487D03*
X002989Y014487D03*
X003186Y014487D03*
X003383Y014487D03*
D34*
X003625Y014729D03*
X003625Y014926D03*
X003625Y015123D03*
X003625Y015320D03*
X003625Y015517D03*
X003625Y015713D03*
X002157Y015713D03*
X002157Y015517D03*
X002157Y015320D03*
X002157Y015123D03*
X002157Y014926D03*
X002157Y014729D03*
D35*
X002891Y015221D03*
D36*
X002261Y013430D03*
X002261Y012761D03*
X006198Y012288D03*
X006198Y011619D03*
X011867Y012131D03*
X011867Y012800D03*
X012025Y011225D03*
X012025Y010556D03*
D37*
X005371Y016068D03*
X005371Y016658D03*
X002340Y016698D03*
X002340Y017288D03*
X002340Y017643D03*
X002340Y018233D03*
D38*
X004052Y015851D03*
X004722Y015851D03*
X002635Y012032D03*
X001966Y012032D03*
D39*
X013422Y015487D03*
X013422Y015664D03*
X013718Y015487D03*
X014013Y015487D03*
X014013Y015664D03*
X014013Y016164D03*
X014013Y016373D03*
X013422Y016373D03*
X013422Y016164D03*
D40*
X013718Y016133D03*
X013718Y016337D03*
D41*
X013718Y015763D03*
D42*
X011533Y002938D03*
X011336Y002938D03*
X011139Y002938D03*
X010942Y002938D03*
X010745Y002938D03*
X010548Y002938D03*
X010351Y002938D03*
X010155Y002938D03*
X009958Y002938D03*
X009761Y002938D03*
X009564Y002938D03*
X009367Y002938D03*
X009170Y002938D03*
X008974Y002938D03*
X008777Y002938D03*
X008580Y002938D03*
X008383Y002938D03*
X008186Y002938D03*
X007989Y002938D03*
X007792Y002938D03*
X007596Y002938D03*
X007399Y002938D03*
X007202Y002938D03*
X007005Y002938D03*
D43*
X006040Y002308D03*
X012497Y002308D03*
D44*
X012497Y002308D03*
X006040Y002308D03*
D45*
X006257Y001707D03*
X012281Y001707D03*
D46*
X011340Y010677D03*
X011080Y010677D03*
X010820Y010677D03*
X010820Y011497D03*
X011080Y011497D03*
X011340Y011497D03*
D47*
X011080Y011087D03*
D48*
X007750Y011457D03*
X007750Y011717D03*
X007750Y011977D03*
X006930Y011977D03*
X006930Y011717D03*
X006930Y011457D03*
D49*
X007340Y011717D03*
D50*
X010610Y004686D03*
X010610Y003946D03*
X011550Y003946D03*
X011550Y004316D03*
X011550Y004686D03*
X007770Y004568D03*
X007770Y003828D03*
X006830Y003828D03*
X006830Y004198D03*
X006830Y004568D03*
D51*
X003757Y005477D03*
X003757Y006146D03*
D52*
X002792Y005024D03*
X002537Y005024D03*
X002281Y005024D03*
X002281Y004316D03*
X002537Y004316D03*
X002792Y004316D03*
D53*
X005844Y013131D03*
X006040Y013131D03*
X006237Y013131D03*
X006434Y013131D03*
X006631Y013131D03*
X006828Y013131D03*
X007025Y013131D03*
X007025Y014320D03*
X006828Y014320D03*
X006631Y014320D03*
X006434Y014320D03*
X006237Y014320D03*
X006040Y014320D03*
X005844Y014320D03*
D54*
X005681Y013997D03*
X005681Y013816D03*
X005681Y013635D03*
X005681Y013454D03*
X007187Y013454D03*
X007187Y013635D03*
X007187Y013816D03*
X007187Y013997D03*
D55*
X006434Y013725D03*
D56*
X008466Y014077D03*
X009206Y014077D03*
X009206Y013137D03*
X008836Y013137D03*
X008466Y013137D03*
D57*
X004544Y004227D03*
X004544Y003459D03*
X003521Y003459D03*
X003521Y004227D03*
M02*
