G75*
%MOIN*%
%OFA0B0*%
%FSLAX24Y24*%
%IPPOS*%
%LPD*%
%AMOC8*
5,1,8,0,0,1.08239X$1,22.5*
%
%ADD10R,0.0640X0.1640*%
%ADD11R,0.0276X0.0197*%
%ADD12R,0.0780X0.0780*%
%ADD13C,0.0780*%
%ADD14R,0.2009X0.2796*%
%ADD15C,0.0246*%
%ADD16R,0.0060X0.0720*%
%ADD17R,0.0270X0.0355*%
%ADD18C,0.0177*%
%ADD19C,0.0315*%
%ADD20C,0.0296*%
%ADD21C,0.0276*%
%ADD22R,0.0355X0.0270*%
%ADD23R,0.0720X0.0060*%
D10*
X001242Y001206D03*
X003242Y001206D03*
X003262Y019217D03*
X001262Y019217D03*
D11*
X009431Y015398D03*
X009431Y015044D03*
D12*
X009037Y019355D03*
D13*
X010037Y019355D03*
X011037Y019355D03*
X012037Y019355D03*
X013683Y012087D03*
X013683Y011087D03*
X013683Y010087D03*
X013683Y009087D03*
X013683Y008087D03*
X013683Y007087D03*
X013683Y006087D03*
X013683Y005087D03*
X013683Y004087D03*
X013683Y003087D03*
X013683Y002087D03*
X013683Y001087D03*
X004313Y019355D03*
D14*
X003526Y017367D03*
X011793Y017367D03*
D15*
X012822Y014892D02*
X014150Y014892D01*
X012822Y014892D02*
X012822Y015630D01*
X014150Y015630D01*
X014150Y014892D01*
X014150Y015137D02*
X012822Y015137D01*
X012822Y015382D02*
X014150Y015382D01*
X014150Y015627D02*
X012822Y015627D01*
X007575Y019144D02*
X006247Y019144D01*
X006247Y019882D01*
X007575Y019882D01*
X007575Y019144D01*
X007575Y019389D02*
X006247Y019389D01*
X006247Y019634D02*
X007575Y019634D01*
X007575Y019879D02*
X006247Y019879D01*
X002497Y015630D02*
X001169Y015630D01*
X002497Y015630D02*
X002497Y014892D01*
X001169Y014892D01*
X001169Y015630D01*
X001169Y015137D02*
X002497Y015137D01*
X002497Y015382D02*
X001169Y015382D01*
X001169Y015627D02*
X002497Y015627D01*
D16*
X009510Y018056D03*
D17*
X009340Y018056D03*
X009680Y018056D03*
X004392Y009394D03*
X004077Y009394D03*
X003762Y009394D03*
D18*
X007807Y009294D02*
X007985Y009294D01*
X007985Y008762D01*
X007807Y008762D01*
X007807Y009294D01*
X007807Y008938D02*
X007985Y008938D01*
X007985Y009114D02*
X007807Y009114D01*
X007807Y009290D02*
X007985Y009290D01*
X008240Y009294D02*
X008418Y009294D01*
X008418Y008762D01*
X008240Y008762D01*
X008240Y009294D01*
X008240Y008938D02*
X008418Y008938D01*
X008418Y009114D02*
X008240Y009114D01*
X008240Y009290D02*
X008418Y009290D01*
X008673Y009294D02*
X008851Y009294D01*
X008851Y008762D01*
X008673Y008762D01*
X008673Y009294D01*
X008673Y008938D02*
X008851Y008938D01*
X008851Y009114D02*
X008673Y009114D01*
X008673Y009290D02*
X008851Y009290D01*
X009106Y009294D02*
X009284Y009294D01*
X009284Y008762D01*
X009106Y008762D01*
X009106Y009294D01*
X009106Y008938D02*
X009284Y008938D01*
X009284Y009114D02*
X009106Y009114D01*
X009106Y009290D02*
X009284Y009290D01*
X009539Y009294D02*
X009717Y009294D01*
X009717Y008762D01*
X009539Y008762D01*
X009539Y009294D01*
X009539Y008938D02*
X009717Y008938D01*
X009717Y009114D02*
X009539Y009114D01*
X009539Y009290D02*
X009717Y009290D01*
X009972Y009294D02*
X010150Y009294D01*
X010150Y008762D01*
X009972Y008762D01*
X009972Y009294D01*
X009972Y008938D02*
X010150Y008938D01*
X010150Y009114D02*
X009972Y009114D01*
X009972Y009290D02*
X010150Y009290D01*
X010405Y009294D02*
X010583Y009294D01*
X010583Y008762D01*
X010405Y008762D01*
X010405Y009294D01*
X010405Y008938D02*
X010583Y008938D01*
X010583Y009114D02*
X010405Y009114D01*
X010405Y009290D02*
X010583Y009290D01*
X010838Y008762D02*
X011016Y008762D01*
X010838Y008762D02*
X010838Y009294D01*
X011016Y009294D01*
X011016Y008762D01*
X011016Y008938D02*
X010838Y008938D01*
X010838Y009114D02*
X011016Y009114D01*
X011016Y009290D02*
X010838Y009290D01*
D19*
X012128Y009238D02*
X012522Y009238D01*
X012522Y008922D01*
X012128Y008922D01*
X012128Y009238D01*
X012128Y009236D02*
X012522Y009236D01*
X012522Y003430D02*
X012206Y003430D01*
X012522Y003430D02*
X012522Y003036D01*
X012206Y003036D01*
X012206Y003430D01*
X012206Y003350D02*
X012522Y003350D01*
X007519Y009238D02*
X007163Y009238D01*
X007519Y009238D02*
X007519Y008922D01*
X007163Y008922D01*
X007163Y009238D01*
X007163Y009236D02*
X007519Y009236D01*
X007207Y003430D02*
X006891Y003430D01*
X007207Y003430D02*
X007207Y003036D01*
X006891Y003036D01*
X006891Y003430D01*
X006891Y003350D02*
X007207Y003350D01*
D20*
X007134Y005664D02*
X006800Y005664D01*
X007134Y005664D02*
X007134Y005370D01*
X006800Y005370D01*
X006800Y005664D01*
D21*
X006790Y008568D02*
X007144Y008568D01*
X007144Y008292D01*
X006790Y008292D01*
X006790Y008568D01*
X006790Y008567D02*
X007144Y008567D01*
D22*
X009352Y006179D03*
X009352Y005839D03*
X006754Y004631D03*
X006754Y004316D03*
X006754Y004001D03*
X001675Y007623D03*
X001675Y007938D03*
X001675Y008253D03*
D23*
X009352Y006009D03*
M02*
