%
M48
M72
T01C0.0118
T02C0.0120
T03C0.0400
%
T01
X1880Y6019
X1880Y6373
X1880Y6727
X1880Y7081
X1880Y7436
X1880Y7790
X1880Y8144
X1998Y8459
X2431Y7869
X3337Y7081
X3337Y6727
X3337Y6373
X3337Y6019
X4282Y6806
X4189Y7580
X4478Y7869
X4189Y8158
X4768Y8158
X4768Y7580
X4911Y6806
X5226Y6806
X5656Y6459
X5974Y6491
X6368Y6727
X6762Y6727
X7077Y6727
X7530Y5831
X7530Y5487
X8100Y5861
X7943Y6333
X8258Y6333
X9006Y6333
X9341Y6333
X9085Y7042
X9585Y7822
X9388Y8767
X9596Y9011
X9537Y9562
X9872Y9562
X10187Y9601
X10502Y9601
X10817Y9601
X10384Y8302
X11053Y7790
X11053Y7475
X10817Y7042
X10817Y6333
X10148Y6097
X9341Y5074
X9045Y4759
X9911Y4798
X11093Y4798
X11644Y5526
X12037Y5664
X12037Y5192
X12510Y5192
X12510Y5861
X12510Y7042
X12864Y7042
X13219Y7042
X12431Y8144
X12156Y8341
X11998Y8026
X11801Y8381
X11801Y8696
X11801Y9050
X12156Y9050
X12156Y8696
X11644Y7987
X11644Y7593
X11447Y7160
X11801Y7042
X12156Y7042
X11762Y9444
X11683Y10625
X11998Y10625
X12195Y10900
X12825Y12200
X13100Y11963
X13494Y11570
X13494Y11176
X13061Y10861
X13337Y10585
X12037Y12357
X11841Y12672
X12156Y12830
X12431Y13066
X12510Y13538
X12904Y13578
X13258Y13026
X13494Y12790
X13691Y13578
X13533Y14444
X13297Y15310
X13376Y16137
X13770Y16806
X14006Y17475
X13455Y18105
X13258Y17396
X12825Y18105
X12274Y16786
X11880Y17121
X11782Y16589
X11447Y16727
X10974Y17830
X10659Y17436
X10305Y18184
X10817Y18341
X11329Y18223
X11959Y18932
X12195Y19404
X11171Y19680
X11171Y20074
X11211Y21019
X11211Y21491
X11171Y22318
X10620Y22869
X10266Y22633
X10502Y22121
X10502Y21294
X10502Y20861
X9360Y20940
X9360Y20585
X9203Y20310
X9006Y20074
X8691Y19995
X8337Y19680
X7982Y19680
X7628Y19680
X7549Y19050
X7195Y18853
X6919Y19050
X6959Y19601
X7156Y19877
X7156Y20192
X6604Y19719
X6250Y19719
X6211Y18578
X5915Y18420
X5620Y18578
X5226Y18538
X4557Y17908
X4282Y17751
X4518Y16806
X4833Y16648
X5187Y17278
X6033Y16885
X6329Y16609
X6368Y16294
X6616Y16924
X6919Y17081
X6919Y17396
X6998Y17869
X7470Y17908
X7392Y17515
X6998Y16609
X6486Y15664
X6171Y15664
X5541Y15428
X5108Y14837
X5108Y14522
X5030Y13538
X4321Y12790
X3848Y12475
X3533Y12396
X3219Y12396
X2776Y13115
X2549Y13656
X2589Y14404
X2274Y14404
X1959Y13932
X1959Y13578
X1959Y13223
X2549Y12160
X2549Y11845
X2549Y11530
X2864Y11530
X2274Y10113
X2352Y9798
X2195Y9483
X2589Y9483
X2707Y9798
X3376Y9089
X4282Y9601
X5266Y9680
X5305Y9995
X5620Y9995
X5935Y10152
X5502Y10782
X5226Y10625
X4557Y11058
X4557Y11373
X5994Y12081
X7077Y13617
X7392Y13853
X7077Y14089
X7274Y14326
X7037Y14562
X7195Y14877
X6801Y15310
X7785Y15231
X7904Y16294
X8809Y15428
X9557Y16294
X10069Y15585
X9833Y15389
X9951Y15113
X10502Y15231
X10817Y15231
X11431Y15074
X11722Y14641
X11762Y15005
X12274Y15152
X12785Y14719
X12746Y15900
X11711Y13971
X12195Y13499
X10345Y13597
X10345Y13213
X10345Y12830
X10345Y12446
X9961Y12062
X9577Y12062
X9193Y12062
X8809Y12062
X8809Y12446
X8809Y12830
X8809Y13213
X8809Y13597
X9193Y13597
X9577Y13597
X9961Y13597
X10817Y16294
X10817Y16609
X9990Y17633
X9360Y18302
X8927Y18932
X8533Y18420
X7943Y18932
X7628Y18538
X8691Y20625
X8809Y20940
X8809Y21294
X8848Y21648
X9045Y21924
X9360Y22003
X9360Y21294
X9518Y22633
X9321Y23420
X9911Y23420
X10463Y23420
X8730Y23420
X8100Y23420
X8100Y22672
X8140Y21491
X8140Y20979
X9360Y19581
X6014Y17751
X4282Y19483
X4675Y20428
X4675Y20900
X4675Y21255
X4675Y21609
X4675Y22081
X4675Y22436
X3455Y20743
X2628Y19601
X2077Y19995
X1880Y20940
X1880Y21294
X1880Y21648
X1880Y22003
X1998Y18341
X1998Y17987
X1998Y17633
X2313Y18184
X2628Y17987
X2707Y17633
X3100Y17633
X3415Y17239
X3652Y17554
X2470Y15900
X3888Y14916
X4203Y14168
X4163Y13853
X6447Y9562
X6565Y8853
X6565Y8499
X6565Y8144
X6565Y7830
X7431Y7869
X7411Y9089
X7372Y9877
X7667Y10034
X7431Y10310
X7234Y10940
X7352Y11215
X7234Y11491
X7352Y11767
X7352Y12081
X7431Y13056
X8209Y10664
X7963Y10467
X8219Y10192
X8494Y10369
X8652Y10664
X8809Y10192
X9085Y10389
X9734Y10270
X8258Y8578
X8258Y8066
X6447Y5428
X6447Y5074
X6093Y4877
X5738Y4877
X5738Y4522
X4636Y4719
X4557Y4404
X14596Y16963
X14596Y18026
X14675Y20231
X14636Y20743
X14675Y22003
X14360Y22003
T02
X3671Y19070
X3671Y18558
X3159Y18558
X3159Y19070
X3159Y10723
X3159Y10211
X3671Y10211
X3671Y10723
T03
X4754Y23105
X11400Y23105
X12400Y23105
X13400Y23105
X14400Y23105
X14400Y15837
X14400Y14837
X14400Y13837
X14400Y12837
X14400Y11837
X14400Y10837
X14400Y9837
X14400Y8837
X14400Y7837
X14400Y6837
X14400Y5837
X14400Y4837
M30
