G75*
%MOIN*%
%OFA0B0*%
%FSLAX24Y24*%
%IPPOS*%
%LPD*%
%AMOC8*
5,1,8,0,0,1.08239X$1,22.5*
%
%ADD10C,0.0039*%
%ADD11C,0.0020*%
%ADD12C,0.0059*%
%ADD13C,0.0030*%
%ADD14C,0.0079*%
%ADD15C,0.0050*%
%ADD16C,0.0394*%
%ADD17C,0.0080*%
%ADD18C,0.0060*%
D10*
X004754Y001779D02*
X004754Y002133D01*
X005423Y002133D01*
X005423Y001779D01*
X004754Y001779D01*
X004951Y002212D02*
X004951Y002881D01*
X005305Y002881D01*
X005305Y002212D01*
X004951Y002212D01*
X004951Y002960D02*
X004951Y003629D01*
X005305Y003629D01*
X005305Y002960D01*
X004951Y002960D01*
X005384Y003432D02*
X005384Y004101D01*
X005738Y004101D01*
X005738Y003432D01*
X005384Y003432D01*
X005502Y003353D02*
X005502Y002999D01*
X006171Y002999D01*
X006171Y003353D01*
X005502Y003353D01*
X005817Y003432D02*
X005817Y004101D01*
X006171Y004101D01*
X006171Y003432D01*
X005817Y003432D01*
X005502Y002920D02*
X005502Y002566D01*
X006171Y002566D01*
X006171Y002920D01*
X005502Y002920D01*
X005502Y002487D02*
X005502Y002133D01*
X006171Y002133D01*
X006171Y002487D01*
X005502Y002487D01*
X005502Y002054D02*
X005502Y001700D01*
X006171Y001700D01*
X006171Y002054D01*
X005502Y002054D01*
X008947Y009298D02*
X008947Y009613D01*
X009537Y009613D01*
X009537Y009298D01*
X008947Y009298D01*
X008947Y009731D02*
X008947Y010046D01*
X009537Y010046D01*
X009537Y009731D01*
X008947Y009731D01*
X008927Y009810D02*
X008848Y009731D01*
X008730Y009731D01*
X008730Y010125D02*
X008848Y010125D01*
X008927Y010204D01*
X008947Y010164D02*
X008947Y010479D01*
X009537Y010479D01*
X009537Y010164D01*
X008947Y010164D01*
X009616Y010046D02*
X009616Y009731D01*
X010207Y009731D01*
X010207Y010046D01*
X009616Y010046D01*
X010522Y010007D02*
X011112Y010007D01*
X011112Y010322D01*
X010522Y010322D01*
X010522Y010007D01*
X010522Y009928D02*
X011112Y009928D01*
X011112Y009613D01*
X010522Y009613D01*
X010522Y009928D01*
X010522Y009534D02*
X011112Y009534D01*
X011112Y009219D01*
X010522Y009219D01*
X010522Y009534D01*
X010522Y010440D02*
X011112Y010440D01*
X011112Y010755D01*
X010522Y010755D01*
X010522Y010440D01*
X010522Y010873D02*
X010522Y011188D01*
X011112Y011188D01*
X011112Y010873D01*
X010522Y010873D01*
X009414Y011203D02*
X009414Y011793D01*
X009099Y011793D01*
X009099Y011203D01*
X009414Y011203D01*
X008967Y011203D02*
X008967Y011793D01*
X008652Y011793D01*
X008652Y011203D01*
X008967Y011203D01*
X007136Y009692D02*
X007136Y009377D01*
X006545Y009377D01*
X006545Y009692D01*
X007136Y009692D01*
X002746Y009790D02*
X001722Y009790D01*
X001722Y010381D01*
X002746Y010381D01*
X002746Y009790D01*
D11*
X002601Y010489D02*
X002601Y010706D01*
X002493Y010706D01*
X002457Y010670D01*
X002457Y010598D01*
X002493Y010561D01*
X002601Y010561D01*
X002529Y010561D02*
X002457Y010489D01*
X002384Y010598D02*
X002239Y010598D01*
X002166Y010670D02*
X002130Y010706D01*
X002058Y010706D01*
X002022Y010670D01*
X002022Y010634D01*
X002058Y010598D01*
X002022Y010561D01*
X002022Y010525D01*
X002058Y010489D01*
X002130Y010489D01*
X002166Y010525D01*
X002094Y010598D02*
X002058Y010598D01*
X002275Y010706D02*
X002384Y010598D01*
X002275Y010706D02*
X002275Y010489D01*
X002190Y012261D02*
X002118Y012261D01*
X002082Y012297D01*
X002009Y012297D02*
X001973Y012261D01*
X001900Y012261D01*
X001864Y012297D01*
X001864Y012441D02*
X001900Y012477D01*
X001973Y012477D01*
X002009Y012441D01*
X002009Y012297D01*
X002082Y012441D02*
X002118Y012477D01*
X002190Y012477D01*
X002226Y012441D01*
X002226Y012297D01*
X002190Y012261D01*
X002299Y012333D02*
X002299Y012477D01*
X002299Y012333D02*
X002372Y012261D01*
X002444Y012333D01*
X002444Y012477D01*
X002734Y012441D02*
X002734Y012369D01*
X002771Y012333D01*
X002879Y012333D01*
X002879Y012261D02*
X002879Y012477D01*
X002771Y012477D01*
X002734Y012441D01*
X002807Y012333D02*
X002734Y012261D01*
X002952Y012261D02*
X002952Y012405D01*
X003024Y012477D01*
X003096Y012405D01*
X003096Y012261D01*
X003169Y012261D02*
X003314Y012261D01*
X003314Y012477D01*
X003387Y012441D02*
X003387Y012297D01*
X003423Y012261D01*
X003495Y012261D01*
X003531Y012297D01*
X003531Y012441D01*
X003495Y012477D01*
X003423Y012477D01*
X003387Y012441D01*
X003605Y012441D02*
X003641Y012477D01*
X003713Y012477D01*
X003749Y012441D01*
X003749Y012405D01*
X003713Y012369D01*
X003641Y012369D01*
X003605Y012333D01*
X003605Y012297D01*
X003641Y012261D01*
X003713Y012261D01*
X003749Y012297D01*
X003096Y012369D02*
X002952Y012369D01*
X006527Y009997D02*
X006527Y009961D01*
X006671Y009817D01*
X006671Y009781D01*
X006744Y009781D02*
X006889Y009781D01*
X006744Y009925D01*
X006744Y009961D01*
X006780Y009997D01*
X006853Y009997D01*
X006889Y009961D01*
X006962Y009961D02*
X006998Y009997D01*
X007070Y009997D01*
X007106Y009961D01*
X007106Y009817D01*
X007070Y009781D01*
X006998Y009781D01*
X006962Y009817D01*
X006671Y009997D02*
X006527Y009997D01*
X008102Y010053D02*
X008138Y010017D01*
X008210Y010017D01*
X008246Y010053D01*
X008319Y010053D02*
X008355Y010017D01*
X008427Y010017D01*
X008463Y010053D01*
X008537Y010053D02*
X008573Y010017D01*
X008645Y010017D01*
X008681Y010053D01*
X008681Y010197D01*
X008645Y010233D01*
X008573Y010233D01*
X008537Y010197D01*
X008463Y010197D02*
X008427Y010233D01*
X008355Y010233D01*
X008319Y010197D01*
X008319Y010161D01*
X008355Y010125D01*
X008319Y010089D01*
X008319Y010053D01*
X008355Y010125D02*
X008391Y010125D01*
X008246Y010197D02*
X008210Y010233D01*
X008138Y010233D01*
X008102Y010197D01*
X008102Y010161D01*
X008138Y010125D01*
X008102Y010089D01*
X008102Y010053D01*
X008138Y010125D02*
X008174Y010125D01*
X008210Y009840D02*
X008246Y009804D01*
X008246Y009767D01*
X008210Y009731D01*
X008102Y009731D01*
X008102Y009659D02*
X008102Y009804D01*
X008138Y009840D01*
X008210Y009840D01*
X008319Y009804D02*
X008355Y009840D01*
X008427Y009840D01*
X008463Y009804D01*
X008537Y009804D02*
X008573Y009840D01*
X008645Y009840D01*
X008681Y009804D01*
X008681Y009659D01*
X008645Y009623D01*
X008573Y009623D01*
X008537Y009659D01*
X008463Y009623D02*
X008319Y009767D01*
X008319Y009804D01*
X008246Y009659D02*
X008210Y009623D01*
X008138Y009623D01*
X008102Y009659D01*
X008319Y009623D02*
X008463Y009623D01*
X008407Y009328D02*
X008335Y009328D01*
X008299Y009292D01*
X008443Y009147D01*
X008407Y009111D01*
X008335Y009111D01*
X008299Y009147D01*
X008299Y009292D01*
X008407Y009328D02*
X008443Y009292D01*
X008443Y009147D01*
X008516Y009147D02*
X008552Y009111D01*
X008624Y009111D01*
X008660Y009147D01*
X008734Y009147D02*
X008770Y009111D01*
X008842Y009111D01*
X008878Y009147D01*
X008878Y009292D01*
X008842Y009328D01*
X008770Y009328D01*
X008734Y009292D01*
X008660Y009292D02*
X008624Y009328D01*
X008552Y009328D01*
X008516Y009292D01*
X008516Y009256D01*
X008552Y009220D01*
X008516Y009184D01*
X008516Y009147D01*
X008552Y009220D02*
X008588Y009220D01*
X009673Y010135D02*
X009673Y010351D01*
X009781Y010243D01*
X009637Y010243D01*
X009855Y010207D02*
X009855Y010171D01*
X009891Y010135D01*
X009963Y010135D01*
X009999Y010171D01*
X010072Y010171D02*
X010108Y010135D01*
X010180Y010135D01*
X010216Y010171D01*
X010216Y010315D01*
X010180Y010351D01*
X010108Y010351D01*
X010072Y010315D01*
X009999Y010315D02*
X009963Y010351D01*
X009891Y010351D01*
X009855Y010315D01*
X009855Y010279D01*
X009891Y010243D01*
X009855Y010207D01*
X009891Y010243D02*
X009927Y010243D01*
X009683Y011193D02*
X009539Y011193D01*
X009503Y011229D01*
X009503Y011301D01*
X009539Y011337D01*
X009539Y011411D02*
X009503Y011447D01*
X009503Y011519D01*
X009539Y011555D01*
X009575Y011555D01*
X009611Y011519D01*
X009611Y011483D01*
X009611Y011519D02*
X009647Y011555D01*
X009683Y011555D01*
X009720Y011519D01*
X009720Y011447D01*
X009683Y011411D01*
X009683Y011337D02*
X009720Y011301D01*
X009720Y011229D01*
X009683Y011193D01*
X009683Y011628D02*
X009720Y011664D01*
X009720Y011736D01*
X009683Y011772D01*
X009647Y011772D01*
X009503Y011628D01*
X009503Y011772D01*
X008563Y011736D02*
X008563Y011664D01*
X008527Y011628D01*
X008491Y011628D01*
X008455Y011664D01*
X008455Y011736D01*
X008419Y011772D01*
X008383Y011772D01*
X008347Y011736D01*
X008347Y011664D01*
X008383Y011628D01*
X008419Y011628D01*
X008455Y011664D01*
X008455Y011736D02*
X008491Y011772D01*
X008527Y011772D01*
X008563Y011736D01*
X008527Y011555D02*
X008563Y011519D01*
X008563Y011447D01*
X008527Y011411D01*
X008527Y011337D02*
X008563Y011301D01*
X008563Y011229D01*
X008527Y011193D01*
X008383Y011193D01*
X008347Y011229D01*
X008347Y011301D01*
X008383Y011337D01*
X008347Y011411D02*
X008491Y011555D01*
X008527Y011555D01*
X008347Y011555D02*
X008347Y011411D01*
X008293Y013836D02*
X008185Y013836D01*
X008185Y013944D01*
X008221Y013980D01*
X008293Y013980D01*
X008293Y013908D02*
X008185Y013908D01*
X008112Y013980D02*
X008076Y013980D01*
X008076Y013836D01*
X008112Y013836D02*
X008040Y013836D01*
X007967Y013836D02*
X007895Y013836D01*
X007931Y013836D02*
X007931Y014052D01*
X007967Y014052D01*
X008076Y014052D02*
X008076Y014088D01*
X008112Y014190D02*
X008112Y014334D01*
X008112Y014262D02*
X008040Y014334D01*
X008004Y014334D01*
X008185Y014298D02*
X008185Y014226D01*
X008221Y014190D01*
X008293Y014190D01*
X008329Y014226D01*
X008329Y014298D01*
X008293Y014334D01*
X008221Y014334D01*
X008185Y014298D01*
X008149Y014544D02*
X008257Y014544D01*
X008257Y014761D01*
X008149Y014761D01*
X008113Y014725D01*
X008113Y014689D01*
X008149Y014653D01*
X008257Y014653D01*
X008149Y014653D02*
X008113Y014617D01*
X008113Y014581D01*
X008149Y014544D01*
X008039Y014544D02*
X007967Y014544D01*
X008003Y014544D02*
X008003Y014761D01*
X008039Y014761D02*
X007967Y014761D01*
X007894Y014689D02*
X007822Y014761D01*
X007750Y014689D01*
X007750Y014544D01*
X007677Y014581D02*
X007641Y014544D01*
X007569Y014544D01*
X007533Y014581D01*
X007533Y014617D01*
X007569Y014653D01*
X007641Y014653D01*
X007677Y014689D01*
X007677Y014725D01*
X007641Y014761D01*
X007569Y014761D01*
X007533Y014725D01*
X007750Y014653D02*
X007894Y014653D01*
X007894Y014689D02*
X007894Y014544D01*
X007713Y014407D02*
X007641Y014334D01*
X007569Y014407D01*
X007569Y014190D01*
X007496Y014190D02*
X007496Y014334D01*
X007423Y014407D01*
X007351Y014334D01*
X007351Y014190D01*
X007278Y014190D02*
X007134Y014407D01*
X007061Y014370D02*
X007061Y014334D01*
X007025Y014298D01*
X006952Y014298D01*
X006916Y014262D01*
X006916Y014226D01*
X006952Y014190D01*
X007025Y014190D01*
X007061Y014226D01*
X007061Y014262D01*
X007025Y014298D01*
X006952Y014298D02*
X006916Y014334D01*
X006916Y014370D01*
X006952Y014407D01*
X007025Y014407D01*
X007061Y014370D01*
X007134Y014190D02*
X007278Y014407D01*
X007351Y014298D02*
X007496Y014298D01*
X007713Y014190D02*
X007713Y014407D01*
X007604Y014052D02*
X007604Y013836D01*
X007496Y013836D01*
X007460Y013872D01*
X007460Y013944D01*
X007496Y013980D01*
X007604Y013980D01*
X007678Y013944D02*
X007678Y013836D01*
X007786Y013836D01*
X007822Y013872D01*
X007786Y013908D01*
X007678Y013908D01*
X007678Y013944D02*
X007714Y013980D01*
X007786Y013980D01*
X007387Y014052D02*
X007351Y014052D01*
X007351Y013836D01*
X007387Y013836D02*
X007315Y013836D01*
X007242Y013872D02*
X007206Y013836D01*
X007134Y013836D01*
X007098Y013908D02*
X007242Y013908D01*
X007242Y013944D02*
X007206Y013980D01*
X007134Y013980D01*
X007098Y013944D01*
X007098Y013908D01*
X007242Y013872D02*
X007242Y013944D01*
X006843Y014190D02*
X006771Y014262D01*
X006699Y014190D01*
X006699Y014407D01*
X006843Y014407D02*
X006843Y014190D01*
X008293Y013908D02*
X008329Y013872D01*
X008293Y013836D01*
X008403Y013980D02*
X008475Y013836D01*
X008547Y013980D01*
X008620Y013944D02*
X008620Y013836D01*
X008728Y013836D01*
X008764Y013872D01*
X008728Y013908D01*
X008620Y013908D01*
X008620Y013944D02*
X008656Y013980D01*
X008728Y013980D01*
X008764Y014190D02*
X008692Y014262D01*
X008620Y014190D01*
X008620Y014407D01*
X008764Y014407D02*
X008764Y014190D01*
X008838Y014370D02*
X008982Y014226D01*
X008982Y014190D01*
X009055Y014190D02*
X009199Y014407D01*
X009273Y014334D02*
X009273Y014190D01*
X009199Y014190D02*
X009055Y014407D01*
X008982Y014407D02*
X008838Y014407D01*
X008838Y014370D01*
X008909Y014544D02*
X008909Y014761D01*
X008837Y014689D01*
X008765Y014761D01*
X008765Y014544D01*
X008692Y014544D02*
X008692Y014761D01*
X008584Y014761D01*
X008548Y014725D01*
X008548Y014653D01*
X008584Y014617D01*
X008692Y014617D01*
X008983Y014653D02*
X009127Y014653D01*
X009127Y014689D02*
X009055Y014761D01*
X008983Y014689D01*
X008983Y014544D01*
X009127Y014544D02*
X009127Y014689D01*
X009200Y014761D02*
X009344Y014761D01*
X009344Y014544D01*
X009200Y014544D01*
X009272Y014653D02*
X009344Y014653D01*
X009418Y014653D02*
X009454Y014617D01*
X009562Y014617D01*
X009490Y014617D02*
X009418Y014544D01*
X009418Y014653D02*
X009418Y014725D01*
X009454Y014761D01*
X009562Y014761D01*
X009562Y014544D01*
X009635Y014653D02*
X009635Y014725D01*
X009671Y014761D01*
X009779Y014761D01*
X009779Y014544D01*
X009779Y014617D02*
X009671Y014617D01*
X009635Y014653D01*
X009634Y014407D02*
X009562Y014334D01*
X009490Y014407D01*
X009490Y014190D01*
X009417Y014190D02*
X009417Y014334D01*
X009345Y014407D01*
X009273Y014334D01*
X009273Y014298D02*
X009417Y014298D01*
X009634Y014190D02*
X009634Y014407D01*
X009925Y014334D02*
X009925Y014154D01*
X009961Y014118D01*
X009997Y014118D01*
X010033Y014190D02*
X009925Y014190D01*
X010033Y014190D02*
X010069Y014226D01*
X010069Y014334D01*
X010178Y014407D02*
X010178Y014190D01*
X010214Y014190D02*
X010142Y014190D01*
X010288Y014190D02*
X010288Y014298D01*
X010324Y014334D01*
X010432Y014334D01*
X010432Y014190D01*
X010505Y014226D02*
X010505Y014298D01*
X010541Y014334D01*
X010613Y014334D01*
X010649Y014298D01*
X010649Y014226D01*
X010613Y014190D01*
X010541Y014190D01*
X010505Y014226D01*
X010649Y014052D02*
X010649Y013836D01*
X010649Y013944D02*
X010613Y013980D01*
X010541Y013980D01*
X010505Y013944D01*
X010505Y013836D01*
X010432Y013872D02*
X010396Y013836D01*
X010288Y013836D01*
X010288Y013944D01*
X010324Y013980D01*
X010396Y013980D01*
X010396Y013908D02*
X010288Y013908D01*
X010214Y013944D02*
X010178Y013980D01*
X010070Y013980D01*
X010106Y013908D02*
X010178Y013908D01*
X010214Y013944D01*
X010214Y013836D02*
X010106Y013836D01*
X010070Y013872D01*
X010106Y013908D01*
X010396Y013908D02*
X010432Y013872D01*
X010214Y014407D02*
X010178Y014407D01*
X010178Y014544D02*
X010214Y014581D01*
X010178Y014544D02*
X010106Y014544D01*
X010070Y014581D01*
X010070Y014617D01*
X010106Y014653D01*
X010178Y014653D01*
X010214Y014689D01*
X010214Y014725D01*
X010178Y014761D01*
X010106Y014761D01*
X010070Y014725D01*
X010288Y014725D02*
X010288Y014653D01*
X010324Y014617D01*
X010432Y014617D01*
X010432Y014544D02*
X010432Y014761D01*
X010324Y014761D01*
X010288Y014725D01*
X010505Y014725D02*
X010541Y014761D01*
X010613Y014761D01*
X010649Y014725D01*
X010649Y014581D01*
X010613Y014544D01*
X010541Y014544D01*
X010505Y014581D01*
X010505Y014653D01*
X010577Y014653D01*
X011167Y014699D02*
X011167Y014843D01*
X011203Y014879D01*
X011311Y014879D01*
X011311Y014663D01*
X011203Y014663D01*
X011167Y014699D01*
X011384Y014663D02*
X011384Y014879D01*
X011528Y014879D02*
X011384Y014663D01*
X011528Y014663D02*
X011528Y014879D01*
X011602Y014843D02*
X011638Y014879D01*
X011710Y014879D01*
X011746Y014843D01*
X011746Y014699D01*
X011710Y014663D01*
X011638Y014663D01*
X011602Y014699D01*
X011602Y014771D01*
X011674Y014771D01*
X012037Y014771D02*
X012073Y014735D01*
X012181Y014735D01*
X012109Y014735D02*
X012037Y014663D01*
X012037Y014771D02*
X012037Y014843D01*
X012073Y014879D01*
X012181Y014879D01*
X012181Y014663D01*
X012254Y014663D02*
X012254Y014807D01*
X012326Y014879D01*
X012399Y014807D01*
X012399Y014663D01*
X012472Y014663D02*
X012616Y014663D01*
X012616Y014879D01*
X012689Y014843D02*
X012689Y014699D01*
X012725Y014663D01*
X012797Y014663D01*
X012834Y014699D01*
X012834Y014843D01*
X012797Y014879D01*
X012725Y014879D01*
X012689Y014843D01*
X012907Y014843D02*
X012943Y014879D01*
X013015Y014879D01*
X013051Y014843D01*
X013051Y014807D01*
X013015Y014771D01*
X012943Y014771D01*
X012907Y014735D01*
X012907Y014699D01*
X012943Y014663D01*
X013015Y014663D01*
X013051Y014699D01*
X012399Y014771D02*
X012254Y014771D01*
X009823Y015506D02*
X009679Y015506D01*
X009606Y015578D01*
X009679Y015650D01*
X009823Y015650D01*
X009787Y015724D02*
X009643Y015724D01*
X009606Y015760D01*
X009606Y015832D01*
X009643Y015868D01*
X009643Y015941D02*
X009606Y015977D01*
X009606Y016049D01*
X009643Y016085D01*
X009787Y016085D02*
X009823Y016049D01*
X009823Y015977D01*
X009787Y015941D01*
X009643Y015941D01*
X009787Y015868D02*
X009823Y015832D01*
X009823Y015760D01*
X009787Y015724D01*
X009787Y016592D02*
X009643Y016592D01*
X009606Y016628D01*
X009606Y016700D01*
X009643Y016736D01*
X009715Y016736D01*
X009715Y016664D01*
X009787Y016736D02*
X009823Y016700D01*
X009823Y016628D01*
X009787Y016592D01*
X009823Y016809D02*
X009823Y016917D01*
X009787Y016953D01*
X009715Y016953D01*
X009679Y016917D01*
X009679Y016809D01*
X009606Y016809D02*
X009823Y016809D01*
X009787Y017027D02*
X009751Y017027D01*
X009715Y017063D01*
X009715Y017135D01*
X009679Y017171D01*
X009643Y017171D01*
X009606Y017135D01*
X009606Y017063D01*
X009643Y017027D01*
X009787Y017027D02*
X009823Y017063D01*
X009823Y017135D01*
X009787Y017171D01*
X009823Y017462D02*
X009823Y017570D01*
X009787Y017606D01*
X009751Y017606D01*
X009715Y017570D01*
X009715Y017462D01*
X009823Y017462D02*
X009606Y017462D01*
X009606Y017570D01*
X009643Y017606D01*
X009679Y017606D01*
X009715Y017570D01*
X009823Y017679D02*
X009823Y017751D01*
X009823Y017715D02*
X009606Y017715D01*
X009606Y017679D02*
X009606Y017751D01*
X009606Y017824D02*
X009751Y017824D01*
X009823Y017896D01*
X009751Y017969D01*
X009606Y017969D01*
X009643Y018042D02*
X009606Y018078D01*
X009606Y018150D01*
X009643Y018186D01*
X009679Y018186D01*
X009715Y018150D01*
X009715Y018078D01*
X009751Y018042D01*
X009787Y018042D01*
X009823Y018078D01*
X009823Y018150D01*
X009787Y018186D01*
X009715Y017969D02*
X009715Y017824D01*
X010788Y018242D02*
X010824Y018206D01*
X010788Y018242D02*
X010788Y018314D01*
X010824Y018350D01*
X010860Y018350D01*
X010896Y018314D01*
X010896Y018242D01*
X010932Y018206D01*
X010968Y018206D01*
X011004Y018242D01*
X011004Y018314D01*
X010968Y018350D01*
X011004Y018423D02*
X010788Y018423D01*
X010860Y018496D01*
X010788Y018568D01*
X011004Y018568D01*
X011004Y018641D02*
X011004Y018713D01*
X011004Y018677D02*
X010788Y018677D01*
X010788Y018641D02*
X010788Y018713D01*
X010788Y018858D02*
X011004Y018858D01*
X011004Y018786D02*
X011004Y018930D01*
X010968Y019003D02*
X011004Y019039D01*
X011004Y019112D01*
X010968Y019148D01*
X011004Y019221D02*
X010788Y019221D01*
X010824Y019148D02*
X010788Y019112D01*
X010788Y019039D01*
X010824Y019003D01*
X010968Y019003D01*
X010896Y019221D02*
X010896Y019365D01*
X011004Y019365D02*
X010788Y019365D01*
X010824Y019656D02*
X010788Y019692D01*
X010788Y019764D01*
X010824Y019800D01*
X010968Y019800D01*
X011004Y019764D01*
X011004Y019692D01*
X010968Y019656D01*
X010824Y019656D01*
X010788Y019873D02*
X011004Y019873D01*
X010788Y020018D01*
X011004Y020018D01*
X010059Y020174D02*
X009987Y020174D01*
X010023Y020174D02*
X010023Y020391D01*
X010059Y020391D02*
X009987Y020391D01*
X009914Y020355D02*
X009878Y020391D01*
X009806Y020391D01*
X009770Y020355D01*
X009770Y020319D01*
X009914Y020174D01*
X009770Y020174D01*
X009696Y020210D02*
X009696Y020355D01*
X009660Y020391D01*
X009588Y020391D01*
X009552Y020355D01*
X009552Y020210D02*
X009588Y020174D01*
X009660Y020174D01*
X009696Y020210D01*
X009660Y020529D02*
X009588Y020529D01*
X009552Y020565D01*
X009660Y020529D02*
X009696Y020565D01*
X009696Y020709D01*
X009660Y020745D01*
X009588Y020745D01*
X009552Y020709D01*
X009770Y020709D02*
X009806Y020745D01*
X009878Y020745D01*
X009914Y020709D01*
X009987Y020745D02*
X010059Y020745D01*
X010023Y020745D02*
X010023Y020529D01*
X010059Y020529D02*
X009987Y020529D01*
X009914Y020529D02*
X009770Y020673D01*
X009770Y020709D01*
X009770Y020529D02*
X009914Y020529D01*
X009261Y020565D02*
X009225Y020529D01*
X009153Y020529D01*
X009117Y020565D01*
X009117Y020601D01*
X009153Y020637D01*
X009225Y020637D01*
X009261Y020673D01*
X009261Y020709D01*
X009225Y020745D01*
X009153Y020745D01*
X009117Y020709D01*
X009044Y020745D02*
X008936Y020745D01*
X008900Y020709D01*
X008900Y020565D01*
X008936Y020529D01*
X009044Y020529D01*
X009044Y020745D01*
X009008Y020391D02*
X008936Y020391D01*
X008900Y020355D01*
X008826Y020391D02*
X008826Y020174D01*
X008682Y020174D01*
X008682Y020529D02*
X008682Y020673D01*
X008754Y020745D01*
X008826Y020673D01*
X008826Y020529D01*
X008826Y020637D02*
X008682Y020637D01*
X008900Y020210D02*
X008936Y020174D01*
X009008Y020174D01*
X009044Y020210D01*
X009044Y020355D01*
X009008Y020391D01*
X009117Y020355D02*
X009153Y020391D01*
X009225Y020391D01*
X009261Y020355D01*
X009261Y020319D01*
X009225Y020283D01*
X009153Y020283D01*
X009117Y020247D01*
X009117Y020210D01*
X009153Y020174D01*
X009225Y020174D01*
X009261Y020210D01*
X009345Y014052D02*
X009273Y013980D01*
X009273Y013836D01*
X009199Y013872D02*
X009163Y013836D01*
X009091Y013836D01*
X009055Y013872D01*
X009055Y013908D01*
X009091Y013944D01*
X009163Y013944D01*
X009199Y013980D01*
X009199Y014016D01*
X009163Y014052D01*
X009091Y014052D01*
X009055Y014016D01*
X009273Y013944D02*
X009417Y013944D01*
X009417Y013980D02*
X009345Y014052D01*
X009417Y013980D02*
X009417Y013836D01*
X009490Y013836D02*
X009562Y013836D01*
X009526Y013836D02*
X009526Y014052D01*
X009562Y014052D02*
X009490Y014052D01*
X009635Y014016D02*
X009635Y013980D01*
X009671Y013944D01*
X009779Y013944D01*
X009671Y013944D02*
X009635Y013908D01*
X009635Y013872D01*
X009671Y013836D01*
X009779Y013836D01*
X009779Y014052D01*
X009671Y014052D01*
X009635Y014016D01*
X011307Y011139D02*
X011307Y010922D01*
X011379Y010922D02*
X011235Y010922D01*
X011379Y011067D02*
X011307Y011139D01*
X011452Y011031D02*
X011596Y011031D01*
X011488Y011139D01*
X011488Y010922D01*
X011670Y010922D02*
X011742Y010995D01*
X011706Y010995D02*
X011814Y010995D01*
X011814Y010922D02*
X011814Y011139D01*
X011706Y011139D01*
X011670Y011103D01*
X011670Y011031D01*
X011706Y010995D01*
X011706Y010706D02*
X011778Y010706D01*
X011814Y010670D01*
X011814Y010525D01*
X011778Y010489D01*
X011706Y010489D01*
X011670Y010525D01*
X011596Y010525D02*
X011560Y010489D01*
X011488Y010489D01*
X011452Y010525D01*
X011452Y010561D01*
X011488Y010598D01*
X011524Y010598D01*
X011488Y010598D02*
X011452Y010634D01*
X011452Y010670D01*
X011488Y010706D01*
X011560Y010706D01*
X011596Y010670D01*
X011670Y010670D02*
X011706Y010706D01*
X011379Y010634D02*
X011307Y010706D01*
X011307Y010489D01*
X011379Y010489D02*
X011235Y010489D01*
X011235Y010273D02*
X011379Y010273D01*
X011379Y010164D01*
X011307Y010201D01*
X011271Y010201D01*
X011235Y010164D01*
X011235Y010092D01*
X011271Y010056D01*
X011343Y010056D01*
X011379Y010092D01*
X011452Y010092D02*
X011488Y010056D01*
X011560Y010056D01*
X011596Y010092D01*
X011670Y010092D02*
X011706Y010056D01*
X011778Y010056D01*
X011814Y010092D01*
X011814Y010237D01*
X011778Y010273D01*
X011706Y010273D01*
X011670Y010237D01*
X011596Y010237D02*
X011560Y010273D01*
X011488Y010273D01*
X011452Y010237D01*
X011452Y010201D01*
X011488Y010164D01*
X011452Y010128D01*
X011452Y010092D01*
X011488Y010164D02*
X011524Y010164D01*
X011452Y009840D02*
X011452Y009804D01*
X011596Y009659D01*
X011596Y009623D01*
X011670Y009659D02*
X011706Y009623D01*
X011778Y009623D01*
X011814Y009659D01*
X011814Y009804D01*
X011778Y009840D01*
X011706Y009840D01*
X011670Y009804D01*
X011596Y009840D02*
X011452Y009840D01*
X011379Y009767D02*
X011307Y009840D01*
X011307Y009623D01*
X011379Y009623D02*
X011235Y009623D01*
X011271Y009446D02*
X011235Y009410D01*
X011379Y009266D01*
X011343Y009229D01*
X011271Y009229D01*
X011235Y009266D01*
X011235Y009410D01*
X011271Y009446D02*
X011343Y009446D01*
X011379Y009410D01*
X011379Y009266D01*
X011452Y009410D02*
X011596Y009266D01*
X011596Y009229D01*
X011670Y009266D02*
X011706Y009229D01*
X011778Y009229D01*
X011814Y009266D01*
X011814Y009410D01*
X011778Y009446D01*
X011706Y009446D01*
X011670Y009410D01*
X011596Y009446D02*
X011452Y009446D01*
X011452Y009410D01*
X013622Y009156D02*
X013839Y009012D01*
X013803Y008939D02*
X013730Y008939D01*
X013694Y008903D01*
X013694Y008794D01*
X013622Y008794D02*
X013839Y008794D01*
X013839Y008903D01*
X013803Y008939D01*
X013694Y008867D02*
X013622Y008939D01*
X013622Y009012D02*
X013839Y009156D01*
X013839Y008408D02*
X013622Y008264D01*
X013622Y008408D02*
X013839Y008264D01*
X013839Y008191D02*
X013839Y008046D01*
X013839Y008119D02*
X013622Y008119D01*
X006102Y004061D02*
X006066Y004061D01*
X005922Y003916D01*
X005886Y003916D01*
X005922Y003843D02*
X005886Y003807D01*
X005886Y003735D01*
X005922Y003699D01*
X005886Y003626D02*
X005958Y003554D01*
X005958Y003590D02*
X005958Y003481D01*
X005886Y003481D02*
X006102Y003481D01*
X006102Y003590D01*
X006066Y003626D01*
X005994Y003626D01*
X005958Y003590D01*
X006066Y003699D02*
X006102Y003735D01*
X006102Y003807D01*
X006066Y003843D01*
X006030Y003843D01*
X005994Y003807D01*
X005958Y003843D01*
X005922Y003843D01*
X005994Y003807D02*
X005994Y003771D01*
X006102Y003916D02*
X006102Y004061D01*
X005669Y003963D02*
X005561Y003854D01*
X005561Y003999D01*
X005453Y003963D02*
X005669Y003963D01*
X005669Y003781D02*
X005633Y003709D01*
X005561Y003637D01*
X005561Y003745D01*
X005525Y003781D01*
X005489Y003781D01*
X005453Y003745D01*
X005453Y003673D01*
X005489Y003637D01*
X005561Y003637D01*
X005489Y003564D02*
X005453Y003528D01*
X005453Y003456D01*
X005489Y003419D01*
X005633Y003419D01*
X005669Y003456D01*
X005669Y003528D01*
X005633Y003564D01*
X005585Y003284D02*
X005585Y003248D01*
X005729Y003104D01*
X005729Y003068D01*
X005802Y003068D02*
X005947Y003068D01*
X005802Y003212D01*
X005802Y003248D01*
X005838Y003284D01*
X005911Y003284D01*
X005947Y003248D01*
X006020Y003248D02*
X006020Y003176D01*
X006056Y003140D01*
X006164Y003140D01*
X006164Y003068D02*
X006164Y003284D01*
X006056Y003284D01*
X006020Y003248D01*
X006092Y003140D02*
X006020Y003068D01*
X006056Y002851D02*
X006020Y002815D01*
X006020Y002743D01*
X006056Y002707D01*
X006164Y002707D01*
X006092Y002707D02*
X006020Y002635D01*
X005947Y002635D02*
X005802Y002779D01*
X005802Y002815D01*
X005838Y002851D01*
X005911Y002851D01*
X005947Y002815D01*
X006056Y002851D02*
X006164Y002851D01*
X006164Y002635D01*
X006122Y002418D02*
X006014Y002418D01*
X005978Y002382D01*
X005978Y002310D01*
X006014Y002274D01*
X006122Y002274D01*
X006122Y002202D02*
X006122Y002418D01*
X006050Y002274D02*
X005978Y002202D01*
X005904Y002238D02*
X005868Y002202D01*
X005796Y002202D01*
X005760Y002238D01*
X005760Y002274D01*
X005796Y002310D01*
X005832Y002310D01*
X005796Y002310D02*
X005760Y002346D01*
X005760Y002382D01*
X005796Y002418D01*
X005868Y002418D01*
X005904Y002382D01*
X005687Y002382D02*
X005687Y002346D01*
X005651Y002310D01*
X005579Y002310D01*
X005543Y002274D01*
X005543Y002238D01*
X005579Y002202D01*
X005651Y002202D01*
X005687Y002238D01*
X005687Y002274D01*
X005651Y002310D01*
X005579Y002310D02*
X005543Y002346D01*
X005543Y002382D01*
X005579Y002418D01*
X005651Y002418D01*
X005687Y002382D01*
X005693Y002635D02*
X005621Y002635D01*
X005585Y002671D01*
X005585Y002707D01*
X005621Y002743D01*
X005729Y002743D01*
X005729Y002671D01*
X005693Y002635D01*
X005802Y002635D02*
X005947Y002635D01*
X005729Y002743D02*
X005657Y002815D01*
X005585Y002851D01*
X005236Y002762D02*
X005200Y002798D01*
X005056Y002654D01*
X005020Y002690D01*
X005020Y002762D01*
X005056Y002798D01*
X005200Y002798D01*
X005236Y002762D02*
X005236Y002690D01*
X005200Y002654D01*
X005056Y002654D01*
X005056Y002580D02*
X005020Y002544D01*
X005020Y002472D01*
X005056Y002436D01*
X005020Y002363D02*
X005092Y002291D01*
X005092Y002327D02*
X005092Y002219D01*
X005020Y002219D02*
X005236Y002219D01*
X005236Y002327D01*
X005200Y002363D01*
X005128Y002363D01*
X005092Y002327D01*
X005200Y002436D02*
X005236Y002472D01*
X005236Y002544D01*
X005200Y002580D01*
X005164Y002580D01*
X005128Y002544D01*
X005092Y002580D01*
X005056Y002580D01*
X005128Y002544D02*
X005128Y002508D01*
X005054Y002064D02*
X005127Y002028D01*
X005199Y001956D01*
X005090Y001956D01*
X005054Y001920D01*
X005054Y001884D01*
X005090Y001848D01*
X005163Y001848D01*
X005199Y001884D01*
X005199Y001956D01*
X005272Y002028D02*
X005308Y002064D01*
X005380Y002064D01*
X005416Y002028D01*
X005416Y001884D01*
X005380Y001848D01*
X005308Y001848D01*
X005272Y001884D01*
X004981Y001884D02*
X004945Y001848D01*
X004873Y001848D01*
X004837Y001884D01*
X004837Y001956D01*
X004873Y001992D01*
X004909Y001992D01*
X004981Y001956D01*
X004981Y002064D01*
X004837Y002064D01*
X005056Y002967D02*
X005020Y003003D01*
X005020Y003075D01*
X005056Y003111D01*
X005056Y003184D02*
X005020Y003220D01*
X005020Y003292D01*
X005056Y003329D01*
X005092Y003329D01*
X005128Y003292D01*
X005128Y003184D01*
X005056Y003184D01*
X005128Y003184D02*
X005200Y003256D01*
X005236Y003329D01*
X005236Y003402D02*
X005236Y003546D01*
X005200Y003546D01*
X005056Y003402D01*
X005020Y003402D01*
X005200Y003111D02*
X005236Y003075D01*
X005236Y003003D01*
X005200Y002967D01*
X005056Y002967D01*
X005585Y003284D02*
X005729Y003284D01*
X005780Y001985D02*
X005852Y001949D01*
X005924Y001877D01*
X005816Y001877D01*
X005780Y001841D01*
X005780Y001805D01*
X005816Y001769D01*
X005888Y001769D01*
X005924Y001805D01*
X005924Y001877D01*
X005997Y001805D02*
X006033Y001769D01*
X006106Y001769D01*
X006142Y001805D01*
X006142Y001949D01*
X006106Y001985D01*
X006033Y001985D01*
X005997Y001949D01*
X005707Y001949D02*
X005671Y001985D01*
X005598Y001985D01*
X005562Y001949D01*
X005562Y001913D01*
X005598Y001877D01*
X005562Y001841D01*
X005562Y001805D01*
X005598Y001769D01*
X005671Y001769D01*
X005707Y001805D01*
X005634Y001877D02*
X005598Y001877D01*
X002543Y017576D02*
X002507Y017576D01*
X002471Y017612D01*
X002471Y017684D01*
X002435Y017720D01*
X002398Y017720D01*
X002362Y017684D01*
X002362Y017612D01*
X002398Y017576D01*
X002543Y017576D02*
X002579Y017612D01*
X002579Y017684D01*
X002543Y017720D01*
X002543Y017793D02*
X002398Y017793D01*
X002362Y017830D01*
X002362Y017902D01*
X002398Y017938D01*
X002543Y017938D01*
X002579Y017902D01*
X002579Y017830D01*
X002543Y017793D01*
X002579Y018011D02*
X002362Y018011D01*
X002362Y018155D01*
X002362Y018228D02*
X002507Y018228D01*
X002579Y018301D01*
X002507Y018373D01*
X002362Y018373D01*
X002362Y018446D02*
X002579Y018446D01*
X002579Y018554D01*
X002543Y018590D01*
X002471Y018590D01*
X002435Y018554D01*
X002435Y018446D01*
X002435Y018518D02*
X002362Y018590D01*
X002471Y018373D02*
X002471Y018228D01*
X002543Y018881D02*
X002398Y018881D01*
X002362Y018917D01*
X002362Y018989D01*
X002398Y019025D01*
X002471Y019025D01*
X002471Y018953D01*
X002543Y018881D02*
X002579Y018917D01*
X002579Y018989D01*
X002543Y019025D01*
X002579Y019099D02*
X002362Y019243D01*
X002579Y019243D01*
X002579Y019316D02*
X002362Y019316D01*
X002362Y019424D01*
X002398Y019460D01*
X002543Y019460D01*
X002579Y019424D01*
X002579Y019316D01*
X002579Y019099D02*
X002362Y019099D01*
X014055Y019130D02*
X014055Y019238D01*
X014091Y019274D01*
X014236Y019274D01*
X014272Y019238D01*
X014272Y019130D01*
X014055Y019130D01*
X014055Y019057D02*
X014272Y019057D01*
X014410Y019021D02*
X014446Y019057D01*
X014410Y019021D02*
X014410Y018949D01*
X014446Y018913D01*
X014590Y018913D01*
X014626Y018949D01*
X014626Y019021D01*
X014590Y019057D01*
X014590Y019130D02*
X014446Y019130D01*
X014410Y019166D01*
X014410Y019238D01*
X014446Y019274D01*
X014590Y019274D02*
X014626Y019238D01*
X014626Y019166D01*
X014590Y019130D01*
X014626Y018839D02*
X014482Y018839D01*
X014410Y018767D01*
X014482Y018695D01*
X014626Y018695D01*
X014272Y018731D02*
X014236Y018695D01*
X014091Y018695D01*
X014055Y018731D01*
X014055Y018803D01*
X014091Y018839D01*
X014163Y018839D01*
X014163Y018767D01*
X014236Y018839D02*
X014272Y018803D01*
X014272Y018731D01*
X014272Y018913D02*
X014055Y018913D01*
X014055Y019057D02*
X014272Y018913D01*
D12*
X010738Y014889D02*
X008730Y014889D01*
X008730Y015558D01*
X009085Y015912D01*
X008730Y014889D02*
X006604Y014889D01*
X006604Y013590D01*
X010738Y013590D01*
X010738Y014889D01*
D13*
X012813Y012433D02*
X012813Y012386D01*
X013003Y012195D01*
X013003Y012148D01*
X013103Y012195D02*
X013103Y012386D01*
X013150Y012433D01*
X013293Y012433D01*
X013293Y012148D01*
X013150Y012148D01*
X013103Y012195D01*
X013003Y012433D02*
X012813Y012433D01*
X013393Y012433D02*
X013583Y012433D01*
X013583Y012148D01*
X013393Y012148D01*
X013488Y012290D02*
X013583Y012290D01*
X013683Y012148D02*
X013873Y012148D01*
X013873Y012433D01*
X013825Y013132D02*
X013730Y013132D01*
X013683Y013180D01*
X013683Y013275D01*
X013778Y013275D01*
X013873Y013370D02*
X013873Y013180D01*
X013825Y013132D01*
X013583Y013132D02*
X013583Y013417D01*
X013393Y013132D01*
X013393Y013417D01*
X013293Y013417D02*
X013150Y013417D01*
X013103Y013370D01*
X013103Y013180D01*
X013150Y013132D01*
X013293Y013132D01*
X013293Y013417D01*
X013683Y013370D02*
X013730Y013417D01*
X013825Y013417D01*
X013873Y013370D01*
X013873Y011409D02*
X013873Y011124D01*
X013683Y011124D01*
X013583Y011124D02*
X013393Y011124D01*
X013293Y011124D02*
X013150Y011124D01*
X013103Y011172D01*
X013103Y011362D01*
X013150Y011409D01*
X013293Y011409D01*
X013293Y011124D01*
X013488Y011267D02*
X013583Y011267D01*
X013583Y011409D02*
X013583Y011124D01*
X013583Y011409D02*
X013393Y011409D01*
X013003Y011267D02*
X013003Y011172D01*
X012955Y011124D01*
X012860Y011124D01*
X012813Y011172D01*
X012813Y011219D01*
X012860Y011267D01*
X013003Y011267D01*
X012908Y011362D01*
X012813Y011409D01*
X013150Y010425D02*
X013293Y010425D01*
X013293Y010140D01*
X013150Y010140D01*
X013103Y010188D01*
X013103Y010378D01*
X013150Y010425D01*
X013393Y010425D02*
X013393Y010140D01*
X013583Y010425D01*
X013583Y010140D01*
X013683Y010188D02*
X013683Y010283D01*
X013778Y010283D01*
X013873Y010378D02*
X013873Y010188D01*
X013825Y010140D01*
X013730Y010140D01*
X013683Y010188D01*
X013683Y010378D02*
X013730Y010425D01*
X013825Y010425D01*
X013873Y010378D01*
X013873Y009677D02*
X013873Y009440D01*
X013825Y009392D01*
X013730Y009392D01*
X013683Y009440D01*
X013683Y009677D01*
X013583Y009582D02*
X013488Y009677D01*
X013393Y009582D01*
X013393Y009392D01*
X013293Y009392D02*
X013293Y009677D01*
X013150Y009677D01*
X013103Y009630D01*
X013103Y009535D01*
X013150Y009487D01*
X013293Y009487D01*
X013198Y009487D02*
X013103Y009392D01*
X012908Y009392D02*
X012908Y009677D01*
X013003Y009677D02*
X012813Y009677D01*
X013393Y009535D02*
X013583Y009535D01*
X013583Y009582D02*
X013583Y009392D01*
X013627Y006036D02*
X013627Y005846D01*
X013912Y005846D01*
X013912Y006036D01*
X013770Y005941D02*
X013770Y005846D01*
X013865Y005746D02*
X013912Y005699D01*
X013912Y005604D01*
X013865Y005556D01*
X013675Y005556D01*
X013627Y005604D01*
X013627Y005699D01*
X013675Y005746D01*
X013627Y005456D02*
X013817Y005456D01*
X013912Y005361D01*
X013817Y005266D01*
X013627Y005266D01*
X013770Y005266D02*
X013770Y005456D01*
X013912Y005166D02*
X013912Y004976D01*
X013627Y004976D01*
X013627Y004876D02*
X013722Y004781D01*
X013722Y004829D02*
X013722Y004686D01*
X013627Y004686D02*
X013912Y004686D01*
X013912Y004829D01*
X013865Y004876D01*
X013770Y004876D01*
X013722Y004829D01*
X013770Y004976D02*
X013770Y005071D01*
X013912Y004586D02*
X013912Y004396D01*
X013627Y004396D01*
X013627Y004586D01*
X013770Y004491D02*
X013770Y004396D01*
X013912Y004296D02*
X013912Y004106D01*
X013912Y004201D02*
X013627Y004201D01*
X013627Y004006D02*
X013912Y004006D01*
X013912Y003816D02*
X013627Y004006D01*
X013627Y003816D02*
X013912Y003816D01*
X013912Y003718D02*
X013912Y003623D01*
X013912Y003670D02*
X013627Y003670D01*
X013627Y003623D02*
X013627Y003718D01*
X013675Y003233D02*
X013865Y003233D01*
X013912Y003185D01*
X013912Y003043D01*
X013627Y003043D01*
X013627Y003185D01*
X013675Y003233D01*
X013627Y002943D02*
X013912Y002943D01*
X013912Y002753D02*
X013627Y002753D01*
X013722Y002848D01*
X013627Y002943D01*
X013675Y002653D02*
X013627Y002605D01*
X013627Y002510D01*
X013675Y002463D01*
X013770Y002510D02*
X013770Y002605D01*
X013722Y002653D01*
X013675Y002653D01*
X013770Y002510D02*
X013817Y002463D01*
X013865Y002463D01*
X013912Y002510D01*
X013912Y002605D01*
X013865Y002653D01*
X003125Y002672D02*
X002840Y002672D01*
X002840Y002719D02*
X002840Y002624D01*
X002887Y002524D02*
X003077Y002524D01*
X003125Y002477D01*
X003125Y002334D01*
X002840Y002334D01*
X002840Y002477D01*
X002887Y002524D01*
X002840Y002234D02*
X003030Y002234D01*
X003125Y002139D01*
X003030Y002044D01*
X002840Y002044D01*
X002840Y001944D02*
X002935Y001849D01*
X002935Y001897D02*
X002935Y001754D01*
X002840Y001754D02*
X003125Y001754D01*
X003125Y001897D01*
X003077Y001944D01*
X002982Y001944D01*
X002935Y001897D01*
X002982Y002044D02*
X002982Y002234D01*
X003125Y002624D02*
X003125Y002719D01*
X003077Y002818D02*
X002887Y002818D01*
X002840Y002865D01*
X002840Y002960D01*
X002887Y003008D01*
X003077Y003008D01*
X003125Y002960D01*
X003125Y002865D01*
X003077Y002818D01*
X003030Y003108D02*
X003125Y003203D01*
X002840Y003203D01*
X002840Y003108D02*
X002840Y003298D01*
X006352Y017778D02*
X006304Y017825D01*
X006304Y017920D01*
X006352Y017968D01*
X006447Y017968D01*
X006447Y017873D01*
X006542Y017968D02*
X006590Y017920D01*
X006590Y017825D01*
X006542Y017778D01*
X006352Y017778D01*
X006399Y018068D02*
X006399Y018210D01*
X006447Y018258D01*
X006542Y018258D01*
X006590Y018210D01*
X006590Y018068D01*
X006304Y018068D01*
X006352Y018358D02*
X006304Y018405D01*
X006304Y018500D01*
X006352Y018548D01*
X006399Y018548D01*
X006447Y018500D01*
X006447Y018405D01*
X006495Y018358D01*
X006542Y018358D01*
X006590Y018405D01*
X006590Y018500D01*
X006542Y018548D01*
X006495Y018938D02*
X006304Y018938D01*
X006447Y018938D02*
X006447Y019128D01*
X006495Y019128D02*
X006304Y019128D01*
X006304Y019228D02*
X006590Y019228D01*
X006304Y019418D01*
X006590Y019418D01*
X006590Y019518D02*
X006590Y019708D01*
X006590Y019613D02*
X006304Y019613D01*
X006304Y019808D02*
X006304Y019998D01*
X006304Y020098D02*
X006590Y020098D01*
X006304Y020288D01*
X006590Y020288D01*
X006590Y020388D02*
X006304Y020578D01*
X006590Y020578D01*
X006495Y020678D02*
X006590Y020773D01*
X006495Y020868D01*
X006304Y020868D01*
X006447Y020868D02*
X006447Y020678D01*
X006495Y020678D02*
X006304Y020678D01*
X006304Y020388D02*
X006590Y020388D01*
X006590Y019998D02*
X006590Y019808D01*
X006304Y019808D01*
X006447Y019808D02*
X006447Y019903D01*
X006495Y019128D02*
X006590Y019033D01*
X006495Y018938D01*
X003125Y019481D02*
X003125Y019623D01*
X003077Y019671D01*
X002982Y019671D01*
X002935Y019623D01*
X002935Y019481D01*
X002935Y019576D02*
X002840Y019671D01*
X002840Y019771D02*
X003030Y019771D01*
X003125Y019866D01*
X003030Y019961D01*
X002840Y019961D01*
X002840Y020061D02*
X002840Y020203D01*
X002887Y020251D01*
X003077Y020251D01*
X003125Y020203D01*
X003125Y020061D01*
X002840Y020061D01*
X002982Y019961D02*
X002982Y019771D01*
X002840Y019481D02*
X003125Y019481D01*
X003125Y020351D02*
X003125Y020446D01*
X003125Y020398D02*
X002840Y020398D01*
X002840Y020351D02*
X002840Y020446D01*
X002887Y020544D02*
X002840Y020592D01*
X002840Y020687D01*
X002887Y020734D01*
X003077Y020734D01*
X003125Y020687D01*
X003125Y020592D01*
X003077Y020544D01*
X002887Y020544D01*
X002840Y020834D02*
X003030Y021024D01*
X003077Y021024D01*
X003125Y020977D01*
X003125Y020882D01*
X003077Y020834D01*
X002840Y020834D02*
X002840Y021024D01*
D14*
X005266Y021149D02*
X007864Y021149D01*
X007864Y018235D01*
X006998Y018235D01*
X006998Y017408D01*
X005266Y017408D01*
X005266Y021149D01*
X002470Y017527D02*
X002470Y017448D01*
X002589Y017330D01*
X002904Y017015D01*
X002707Y017015D01*
X002681Y017013D01*
X002656Y017008D01*
X002632Y017000D01*
X002609Y016989D01*
X002587Y016974D01*
X002568Y016957D01*
X002551Y016938D01*
X002536Y016917D01*
X002525Y016893D01*
X002517Y016869D01*
X002512Y016844D01*
X002510Y016818D01*
X002510Y016109D01*
X002512Y016083D01*
X002517Y016058D01*
X002525Y016034D01*
X002536Y016011D01*
X002551Y015989D01*
X002568Y015970D01*
X002587Y015953D01*
X002608Y015938D01*
X002632Y015927D01*
X002656Y015919D01*
X002681Y015914D01*
X002707Y015912D01*
X003967Y015912D01*
X003993Y015914D01*
X004018Y015919D01*
X004042Y015927D01*
X004066Y015938D01*
X004087Y015953D01*
X004106Y015970D01*
X004123Y015989D01*
X004138Y016011D01*
X004149Y016034D01*
X004157Y016058D01*
X004162Y016083D01*
X004164Y016109D01*
X004163Y016109D02*
X004163Y016818D01*
X004164Y016818D02*
X004162Y016844D01*
X004157Y016869D01*
X004149Y016893D01*
X004138Y016917D01*
X004123Y016938D01*
X004106Y016957D01*
X004087Y016974D01*
X004066Y016989D01*
X004042Y017000D01*
X004018Y017008D01*
X003993Y017013D01*
X003967Y017015D01*
X002904Y017015D01*
X010148Y016818D02*
X010148Y016109D01*
X010150Y016083D01*
X010155Y016058D01*
X010163Y016034D01*
X010174Y016011D01*
X010189Y015989D01*
X010206Y015970D01*
X010225Y015953D01*
X010247Y015938D01*
X010270Y015927D01*
X010294Y015919D01*
X010319Y015914D01*
X010345Y015912D01*
X011132Y015912D01*
X011604Y015912D01*
X011630Y015914D01*
X011655Y015919D01*
X011679Y015927D01*
X011703Y015938D01*
X011724Y015953D01*
X011743Y015970D01*
X011760Y015989D01*
X011775Y016011D01*
X011786Y016034D01*
X011794Y016058D01*
X011799Y016083D01*
X011801Y016109D01*
X011801Y016818D01*
X011799Y016844D01*
X011794Y016869D01*
X011786Y016893D01*
X011775Y016917D01*
X011760Y016938D01*
X011743Y016957D01*
X011724Y016974D01*
X011703Y016989D01*
X011679Y017000D01*
X011655Y017008D01*
X011630Y017013D01*
X011604Y017015D01*
X010345Y017015D01*
X010319Y017013D01*
X010294Y017008D01*
X010270Y017000D01*
X010247Y016989D01*
X010225Y016974D01*
X010206Y016957D01*
X010189Y016938D01*
X010174Y016917D01*
X010163Y016893D01*
X010155Y016869D01*
X010150Y016844D01*
X010148Y016818D01*
X011132Y015912D02*
X011132Y015440D01*
X011604Y014968D01*
X012589Y013865D02*
X012589Y010794D01*
X015030Y010794D01*
X015030Y009790D02*
X012589Y009790D01*
X012589Y010794D01*
X012589Y009790D02*
X012589Y009259D01*
X013494Y009259D01*
X013494Y007802D01*
X013494Y001779D01*
X015030Y001779D01*
X015030Y007802D02*
X013494Y007802D01*
X012589Y013865D02*
X015030Y013865D01*
X013888Y015716D02*
X013888Y015912D01*
X014557Y015912D01*
X014583Y015914D01*
X014608Y015919D01*
X014632Y015927D01*
X014656Y015938D01*
X014677Y015953D01*
X014696Y015970D01*
X014713Y015989D01*
X014728Y016011D01*
X014739Y016034D01*
X014747Y016058D01*
X014752Y016083D01*
X014754Y016109D01*
X014754Y016818D01*
X014752Y016844D01*
X014747Y016869D01*
X014739Y016893D01*
X014728Y016917D01*
X014713Y016938D01*
X014696Y016957D01*
X014677Y016974D01*
X014656Y016989D01*
X014632Y017000D01*
X014608Y017008D01*
X014583Y017013D01*
X014557Y017015D01*
X013297Y017015D01*
X013271Y017013D01*
X013246Y017008D01*
X013222Y017000D01*
X013199Y016989D01*
X013177Y016974D01*
X013158Y016957D01*
X013141Y016938D01*
X013126Y016917D01*
X013115Y016893D01*
X013107Y016869D01*
X013102Y016844D01*
X013100Y016818D01*
X013100Y016109D01*
X013102Y016083D01*
X013107Y016058D01*
X013115Y016034D01*
X013126Y016011D01*
X013141Y015989D01*
X013158Y015970D01*
X013177Y015953D01*
X013199Y015938D01*
X013222Y015927D01*
X013246Y015919D01*
X013271Y015914D01*
X013297Y015912D01*
X013888Y015912D01*
X013888Y015716D02*
X013100Y014928D01*
X014163Y019416D02*
X014163Y019771D01*
X013730Y020204D01*
X014518Y020086D02*
X014518Y019416D01*
X012077Y020912D02*
X011919Y021070D01*
X010856Y021070D01*
X010423Y020637D01*
X010148Y020637D01*
X010148Y020282D02*
X010305Y020282D01*
X010581Y020558D01*
X010935Y020558D01*
D15*
X003258Y001621D02*
X001683Y001621D01*
X001683Y003196D01*
X001683Y004771D01*
X001683Y006345D01*
X001683Y007920D01*
X001683Y009495D01*
X001683Y011070D01*
X001683Y012645D01*
X001683Y014219D01*
X001683Y015007D01*
X013494Y015007D01*
X015069Y015007D01*
X015069Y016975D01*
X001683Y016975D01*
X001683Y015007D01*
X003258Y001621D02*
X004833Y001621D01*
X006407Y001621D01*
X007982Y001621D01*
X009557Y001621D01*
X011132Y001621D01*
X012707Y001621D01*
X014282Y001621D01*
X015069Y001621D01*
X015069Y002408D01*
X015069Y003983D01*
X015069Y005558D01*
X015069Y007133D01*
X015069Y008708D01*
X015069Y010282D01*
X015069Y011857D01*
X015069Y013432D01*
X015069Y015007D01*
D16*
X013100Y015991D02*
X011919Y015991D01*
X012510Y016582D02*
X012510Y015401D01*
X004833Y015991D02*
X003652Y015991D01*
D17*
X007618Y008944D02*
X007618Y002920D01*
X008337Y002251D02*
X009124Y002251D01*
X009124Y002901D01*
X009209Y002957D01*
X009295Y003010D01*
X009384Y003060D01*
X009474Y003107D01*
X009566Y003150D01*
X009659Y003190D01*
X009754Y003226D01*
X009850Y003259D01*
X009947Y003289D01*
X010045Y003315D01*
X010144Y003337D01*
X010244Y003355D01*
X010345Y003370D01*
X010445Y003381D01*
X010547Y003389D01*
X010648Y003393D01*
X010750Y003393D01*
X010851Y003389D01*
X010953Y003381D01*
X011053Y003370D01*
X011154Y003355D01*
X011254Y003337D01*
X011353Y003315D01*
X011451Y003289D01*
X011548Y003259D01*
X011644Y003226D01*
X011739Y003190D01*
X011832Y003150D01*
X011924Y003107D01*
X012014Y003060D01*
X012103Y003010D01*
X012189Y002957D01*
X012274Y002901D01*
X012274Y002645D01*
X012667Y002645D01*
X013346Y003275D02*
X013346Y003668D01*
X013346Y004416D02*
X013346Y008944D01*
X009124Y008944D02*
X007618Y008944D01*
D18*
X009159Y015888D02*
X009404Y015888D01*
X009421Y015890D01*
X009438Y015894D01*
X009454Y015901D01*
X009468Y015911D01*
X009481Y015924D01*
X009491Y015938D01*
X009498Y015954D01*
X009502Y015971D01*
X009504Y015988D01*
X009504Y016782D01*
X009502Y016799D01*
X009498Y016816D01*
X009491Y016832D01*
X009481Y016846D01*
X009468Y016859D01*
X009454Y016869D01*
X009438Y016876D01*
X009421Y016880D01*
X009404Y016882D01*
X009159Y016882D01*
X009142Y016880D01*
X009125Y016876D01*
X009109Y016869D01*
X009095Y016859D01*
X009082Y016846D01*
X009072Y016832D01*
X009065Y016816D01*
X009061Y016799D01*
X009059Y016782D01*
X009059Y015988D01*
X009061Y015971D01*
X009065Y015954D01*
X009072Y015938D01*
X009082Y015924D01*
X009095Y015911D01*
X009109Y015901D01*
X009125Y015894D01*
X009142Y015890D01*
X009159Y015888D01*
X010449Y017656D02*
X010949Y017656D01*
X010966Y017658D01*
X010983Y017662D01*
X010999Y017669D01*
X011013Y017679D01*
X011026Y017692D01*
X011036Y017706D01*
X011043Y017722D01*
X011047Y017739D01*
X011049Y017756D01*
X011049Y018006D01*
X011047Y018023D01*
X011043Y018040D01*
X011036Y018056D01*
X011026Y018070D01*
X011013Y018083D01*
X010999Y018093D01*
X010983Y018100D01*
X010966Y018104D01*
X010949Y018106D01*
X010449Y018106D01*
X010432Y018104D01*
X010415Y018100D01*
X010399Y018093D01*
X010385Y018083D01*
X010372Y018070D01*
X010362Y018056D01*
X010355Y018040D01*
X010351Y018023D01*
X010349Y018006D01*
X010349Y017756D01*
X010351Y017739D01*
X010355Y017722D01*
X010362Y017706D01*
X010372Y017692D01*
X010385Y017679D01*
X010399Y017669D01*
X010415Y017662D01*
X010432Y017658D01*
X010449Y017656D01*
M02*
