G75*
%MOIN*%
%OFA0B0*%
%FSLAX24Y24*%
%IPPOS*%
%LPD*%
%AMOC8*
5,1,8,0,0,1.08239X$1,22.5*
%
%ADD10R,0.0079X0.0157*%
%ADD11C,0.0320*%
%ADD12R,0.0600X0.1600*%
%ADD13R,0.0157X0.0236*%
%ADD14R,0.0236X0.0157*%
%ADD15R,0.0740X0.0740*%
%ADD16C,0.0740*%
%ADD17R,0.1969X0.2756*%
%ADD18C,0.0318*%
%ADD19R,0.0591X0.0531*%
%ADD20R,0.0551X0.0394*%
%ADD21R,0.0394X0.0512*%
%ADD22R,0.0295X0.0591*%
%ADD23R,0.0315X0.0230*%
%ADD24C,0.0236*%
%ADD25R,0.0276X0.0512*%
%ADD26R,0.0230X0.0315*%
%ADD27C,0.0238*%
%ADD28C,0.0079*%
%ADD29C,0.0197*%
%ADD30C,0.0118*%
%ADD31C,0.0157*%
D10*
X009282Y016227D03*
D11*
X003671Y016011D03*
X003671Y016523D03*
X003159Y016523D03*
X003159Y016011D03*
X003159Y008176D03*
X003159Y007664D03*
X003671Y007664D03*
X003671Y008176D03*
D12*
X003978Y002428D03*
X001978Y002428D03*
X001986Y020420D03*
X003986Y020420D03*
D13*
X010640Y011031D03*
X010640Y010597D03*
X010640Y010164D03*
X010640Y009771D03*
X010640Y009377D03*
X010994Y009377D03*
X010994Y009771D03*
X010994Y010164D03*
X010994Y010597D03*
X010994Y011031D03*
X010089Y009889D03*
X009734Y009889D03*
X009419Y009889D03*
X009065Y009889D03*
X009065Y010322D03*
X009419Y010322D03*
X007018Y009534D03*
X006663Y009534D03*
D14*
X008809Y011321D03*
X008809Y011675D03*
X009257Y011675D03*
X009257Y011321D03*
D15*
X014400Y020558D03*
D16*
X013400Y020558D03*
X012400Y020558D03*
X011400Y020558D03*
X014400Y013290D03*
X014400Y012290D03*
X014400Y011290D03*
X014400Y010290D03*
X014400Y009290D03*
X014400Y008290D03*
X014400Y007290D03*
X014400Y006290D03*
X014400Y005290D03*
X014400Y004290D03*
X014400Y003290D03*
X014400Y002290D03*
X004754Y020558D03*
D17*
X004242Y018550D03*
X012510Y018550D03*
D18*
X004768Y005611D03*
X004478Y005322D03*
X004189Y005611D03*
X004189Y005032D03*
X004768Y005032D03*
D19*
X007795Y002438D03*
X013169Y002832D03*
D20*
X013228Y004023D03*
D21*
X013002Y008845D03*
D22*
X012470Y008865D03*
X012037Y008865D03*
X011604Y008865D03*
X011171Y008865D03*
X010738Y008865D03*
X010305Y008865D03*
X009872Y008865D03*
X009439Y008865D03*
D23*
X009282Y016070D03*
X009282Y016385D03*
X009282Y016700D03*
D24*
X010325Y016818D02*
X011623Y016818D01*
X011623Y016110D01*
X010325Y016110D01*
X010325Y016818D01*
X010325Y016345D02*
X011623Y016345D01*
X011623Y016580D02*
X010325Y016580D01*
X010325Y016815D02*
X011623Y016815D01*
X013278Y016818D02*
X014576Y016818D01*
X014576Y016110D01*
X013278Y016110D01*
X013278Y016818D01*
X013278Y016345D02*
X014576Y016345D01*
X014576Y016580D02*
X013278Y016580D01*
X013278Y016815D02*
X014576Y016815D01*
X003986Y016818D02*
X002688Y016818D01*
X003986Y016818D02*
X003986Y016110D01*
X002688Y016110D01*
X002688Y016818D01*
X002688Y016345D02*
X003986Y016345D01*
X003986Y016580D02*
X002688Y016580D01*
X002688Y016815D02*
X003986Y016815D01*
X001880Y014002D02*
X001880Y012704D01*
X001880Y014002D02*
X002588Y014002D01*
X002588Y012704D01*
X001880Y012704D01*
X001880Y012939D02*
X002588Y012939D01*
X002588Y013174D02*
X001880Y013174D01*
X001880Y013409D02*
X002588Y013409D01*
X002588Y013644D02*
X001880Y013644D01*
X001880Y013879D02*
X002588Y013879D01*
D25*
X002569Y010086D03*
X001900Y010086D03*
D26*
X010529Y017881D03*
X010869Y017881D03*
D27*
X011171Y017527D03*
X011171Y017133D03*
X011959Y016385D03*
X012195Y016857D03*
X011329Y015676D03*
X010974Y015282D03*
X010659Y014889D03*
X009990Y015086D03*
X010305Y015637D03*
X010817Y015794D03*
X011880Y014574D03*
X011447Y014180D03*
X011782Y014042D03*
X012274Y014239D03*
X012746Y013353D03*
X012274Y012605D03*
X011762Y012458D03*
X011722Y012094D03*
X011431Y012527D03*
X010817Y012684D03*
X010502Y012684D03*
X010069Y013038D03*
X009833Y012842D03*
X009951Y012566D03*
X009557Y013747D03*
X008809Y012881D03*
X007785Y012684D03*
X007195Y012330D03*
X007037Y012015D03*
X007274Y011779D03*
X007077Y011542D03*
X007392Y011306D03*
X007077Y011070D03*
X007431Y010509D03*
X007352Y009534D03*
X007352Y009219D03*
X007234Y008944D03*
X007352Y008668D03*
X007234Y008393D03*
X007431Y007763D03*
X007667Y007487D03*
X007372Y007330D03*
X007411Y006542D03*
X006565Y006306D03*
X006565Y005952D03*
X006565Y005597D03*
X006565Y005282D03*
X007431Y005322D03*
X007077Y004180D03*
X006762Y004180D03*
X006368Y004180D03*
X005974Y003944D03*
X005656Y003912D03*
X005226Y004259D03*
X004911Y004259D03*
X004282Y004259D03*
X003337Y004180D03*
X003337Y004534D03*
X003337Y003826D03*
X003337Y003471D03*
X004557Y001857D03*
X004636Y002172D03*
X005738Y002330D03*
X005738Y001975D03*
X006093Y002330D03*
X006447Y002527D03*
X006447Y002881D03*
X007530Y002940D03*
X007530Y003284D03*
X007943Y003786D03*
X008258Y003786D03*
X008100Y003314D03*
X009006Y003786D03*
X009341Y003786D03*
X009085Y004495D03*
X009585Y005275D03*
X009388Y006219D03*
X009518Y006542D03*
X009537Y007015D03*
X009872Y007015D03*
X010187Y007054D03*
X010502Y007054D03*
X010817Y007054D03*
X011683Y008078D03*
X011998Y008078D03*
X012195Y008353D03*
X013061Y008353D03*
X013258Y007802D03*
X013494Y008629D03*
X013494Y009023D03*
X013337Y009338D03*
X013022Y009692D03*
X013494Y010243D03*
X013258Y010479D03*
X012904Y011031D03*
X012510Y010991D03*
X012195Y010952D03*
X012156Y010282D03*
X011841Y010125D03*
X012037Y009810D03*
X011711Y011424D03*
X012785Y012172D03*
X013297Y012763D03*
X013376Y013590D03*
X013770Y014259D03*
X014006Y014928D03*
X013455Y015558D03*
X013258Y014849D03*
X012825Y015558D03*
X014596Y015479D03*
X014596Y014416D03*
X013533Y011897D03*
X013691Y011031D03*
X010817Y013747D03*
X010817Y014062D03*
X009360Y015755D03*
X008927Y016385D03*
X008533Y015873D03*
X007943Y016385D03*
X007628Y015991D03*
X007549Y016503D03*
X007195Y016306D03*
X006919Y016503D03*
X006959Y017054D03*
X007156Y017330D03*
X007156Y017645D03*
X006604Y017172D03*
X006250Y017172D03*
X006211Y016031D03*
X005915Y015873D03*
X005620Y016031D03*
X005226Y015991D03*
X004557Y015361D03*
X004282Y015204D03*
X003652Y015007D03*
X003415Y014692D03*
X003100Y015086D03*
X002707Y015086D03*
X002628Y015440D03*
X002313Y015637D03*
X001998Y015794D03*
X001998Y015440D03*
X001998Y015086D03*
X002470Y013353D03*
X002589Y011857D03*
X002274Y011857D03*
X001959Y011385D03*
X001959Y011031D03*
X001959Y010676D03*
X002549Y011109D03*
X002776Y010568D03*
X003219Y009849D03*
X003533Y009849D03*
X003848Y009928D03*
X004321Y010243D03*
X005030Y010991D03*
X004163Y011306D03*
X004203Y011621D03*
X003888Y012369D03*
X005108Y012290D03*
X005108Y011975D03*
X005541Y012881D03*
X006171Y013117D03*
X006486Y013117D03*
X006801Y012763D03*
X006368Y013747D03*
X006329Y014062D03*
X006033Y014338D03*
X006616Y014377D03*
X006919Y014534D03*
X006919Y014849D03*
X006998Y015322D03*
X007470Y015361D03*
X007392Y014968D03*
X006998Y014062D03*
X007904Y013747D03*
X006014Y015204D03*
X005187Y014731D03*
X004833Y014101D03*
X004518Y014259D03*
X004282Y016936D03*
X004675Y017881D03*
X004675Y018353D03*
X004675Y018708D03*
X004675Y019062D03*
X004675Y019534D03*
X004675Y019889D03*
X003455Y018196D03*
X002628Y017054D03*
X002077Y017448D03*
X001880Y018393D03*
X001880Y018747D03*
X001880Y019101D03*
X001880Y019456D03*
X007628Y017133D03*
X007982Y017133D03*
X008337Y017133D03*
X008691Y017448D03*
X009006Y017527D03*
X009203Y017763D03*
X009360Y018038D03*
X009360Y018393D03*
X009360Y018747D03*
X008848Y019101D03*
X009045Y019377D03*
X009360Y019456D03*
X009518Y020086D03*
X009321Y020873D03*
X009911Y020873D03*
X010463Y020873D03*
X010620Y020322D03*
X010266Y020086D03*
X010502Y019574D03*
X010502Y018747D03*
X010502Y018314D03*
X011211Y018471D03*
X011211Y018944D03*
X011171Y019771D03*
X009360Y017034D03*
X008691Y018078D03*
X008809Y018393D03*
X008809Y018747D03*
X008140Y018944D03*
X008140Y018432D03*
X008100Y020125D03*
X008100Y020873D03*
X008730Y020873D03*
X014360Y019456D03*
X014675Y019456D03*
X014636Y018196D03*
X014675Y017684D03*
X010345Y011050D03*
X010345Y010666D03*
X010345Y010282D03*
X010345Y009899D03*
X009961Y009515D03*
X009577Y009515D03*
X009193Y009515D03*
X008809Y009515D03*
X008809Y009899D03*
X008809Y010282D03*
X008809Y010666D03*
X008809Y011050D03*
X009193Y011050D03*
X009577Y011050D03*
X009961Y011050D03*
X008652Y008117D03*
X008494Y007822D03*
X008219Y007645D03*
X007963Y007920D03*
X008209Y008117D03*
X008809Y007645D03*
X009085Y007842D03*
X009734Y007723D03*
X010384Y005755D03*
X011053Y005243D03*
X011053Y004928D03*
X010817Y004495D03*
X010817Y003786D03*
X010148Y003550D03*
X009341Y002527D03*
X009045Y002212D03*
X009911Y002251D03*
X011093Y002251D03*
X011644Y002979D03*
X012037Y003117D03*
X012037Y002645D03*
X012510Y002645D03*
X012510Y003314D03*
X012156Y004495D03*
X011801Y004495D03*
X011447Y004613D03*
X011644Y005322D03*
X011801Y005873D03*
X012156Y005873D03*
X012431Y005597D03*
X012156Y006424D03*
X011801Y006424D03*
X011762Y006897D03*
X008258Y006031D03*
X008258Y005519D03*
X006447Y007015D03*
X005935Y007605D03*
X005620Y007448D03*
X005305Y007448D03*
X005266Y007133D03*
X005226Y008078D03*
X005502Y008235D03*
X005994Y009534D03*
X004557Y008826D03*
X004557Y008511D03*
X004282Y007054D03*
X003376Y006542D03*
X002707Y007251D03*
X002589Y006936D03*
X002352Y007251D03*
X002274Y007566D03*
X002195Y006936D03*
X001998Y005912D03*
X001880Y005597D03*
X001880Y005243D03*
X001880Y004889D03*
X001880Y004534D03*
X001880Y004180D03*
X001880Y003826D03*
X001880Y003471D03*
X002431Y005322D03*
X002549Y008983D03*
X002549Y009298D03*
X002549Y009613D03*
X002864Y008983D03*
D28*
X001743Y005945D02*
X001743Y001681D01*
X015009Y001681D01*
X015009Y015838D01*
X014892Y015721D01*
X014788Y015617D01*
X014276Y015617D01*
X013476Y014817D01*
X013476Y014759D01*
X013348Y014631D01*
X013167Y014631D01*
X013039Y014759D01*
X013039Y014940D01*
X013167Y015068D01*
X013226Y015068D01*
X014129Y015971D01*
X014641Y015971D01*
X014695Y016025D01*
X014695Y016941D01*
X014183Y017453D01*
X014183Y017994D01*
X014287Y018097D01*
X014417Y018228D01*
X014417Y018286D01*
X014545Y018414D01*
X014726Y018414D01*
X014854Y018286D01*
X014854Y018105D01*
X014726Y017977D01*
X014668Y017977D01*
X014537Y017847D01*
X014537Y017600D01*
X014945Y017192D01*
X015009Y017128D01*
X015009Y021167D01*
X007864Y021167D01*
X007864Y018235D01*
X006998Y018235D01*
X006998Y017408D01*
X005187Y017408D01*
X005187Y021167D01*
X001743Y021167D01*
X001743Y014144D01*
X001798Y014200D01*
X002670Y014200D01*
X002785Y014084D01*
X002785Y012622D01*
X002670Y012507D01*
X001798Y012507D01*
X001743Y012562D01*
X001743Y010420D01*
X002070Y010420D01*
X002116Y010374D01*
X002116Y009797D01*
X002070Y009751D01*
X001998Y009751D01*
X001998Y006135D01*
X002002Y006131D01*
X002089Y006131D01*
X002216Y006003D01*
X002216Y005822D01*
X002089Y005694D01*
X001908Y005694D01*
X001780Y005822D01*
X001780Y005908D01*
X001743Y005945D01*
X001743Y005907D02*
X001780Y005907D01*
X001780Y005830D02*
X001743Y005830D01*
X001743Y005753D02*
X001849Y005753D01*
X001743Y005675D02*
X005817Y005675D01*
X005817Y005598D02*
X001743Y005598D01*
X001743Y005521D02*
X005817Y005521D01*
X005817Y005450D02*
X004845Y004477D01*
X004821Y004477D01*
X004693Y004349D01*
X004693Y004168D01*
X004821Y004040D01*
X004959Y004040D01*
X004675Y003757D01*
X004675Y002391D01*
X004545Y002391D01*
X004417Y002263D01*
X004417Y002082D01*
X004545Y001954D01*
X004726Y001954D01*
X004854Y002082D01*
X004854Y002224D01*
X004911Y002281D01*
X004911Y003659D01*
X005275Y004023D01*
X005293Y004040D01*
X005317Y004040D01*
X005445Y004168D01*
X005445Y004349D01*
X005366Y004428D01*
X005817Y004879D01*
X005817Y004095D01*
X005756Y004034D01*
X005756Y003853D01*
X005884Y003725D01*
X006065Y003725D01*
X006193Y003853D01*
X006193Y004034D01*
X006132Y004095D01*
X006132Y004824D01*
X006355Y005046D01*
X006447Y005139D01*
X006447Y006115D01*
X006474Y006088D01*
X006655Y006088D01*
X006756Y006188D01*
X007067Y006188D01*
X007589Y005667D01*
X007589Y003659D01*
X007882Y003365D01*
X007882Y003224D01*
X008010Y003096D01*
X008191Y003096D01*
X008319Y003224D01*
X008319Y003404D01*
X008191Y003532D01*
X008049Y003532D01*
X008013Y003568D01*
X008033Y003568D01*
X008100Y003635D01*
X008167Y003568D01*
X008348Y003568D01*
X008476Y003696D01*
X008476Y003838D01*
X008955Y004316D01*
X008994Y004277D01*
X009175Y004277D01*
X009303Y004405D01*
X009303Y004586D01*
X009203Y004686D01*
X009203Y005076D01*
X010699Y006572D01*
X010699Y004686D01*
X010679Y004666D01*
X010679Y005710D01*
X010602Y005787D01*
X010602Y005845D01*
X010474Y005973D01*
X010293Y005973D01*
X010165Y005845D01*
X010165Y005664D01*
X010293Y005536D01*
X010325Y005536D01*
X010325Y003595D01*
X011703Y002217D01*
X011807Y002113D01*
X013987Y002113D01*
X014019Y002036D01*
X014145Y001910D01*
X014310Y001842D01*
X014489Y001842D01*
X014654Y001910D01*
X014780Y002036D01*
X014848Y002201D01*
X014848Y002380D01*
X014780Y002545D01*
X014654Y002671D01*
X014489Y002739D01*
X014310Y002739D01*
X014145Y002671D01*
X014019Y002545D01*
X013987Y002468D01*
X013563Y002468D01*
X013576Y002480D01*
X013594Y002512D01*
X013604Y002548D01*
X013604Y002792D01*
X013209Y002792D01*
X013209Y002871D01*
X013604Y002871D01*
X013604Y003116D01*
X013594Y003151D01*
X013576Y003183D01*
X013550Y003209D01*
X013518Y003227D01*
X013483Y003237D01*
X013209Y003237D01*
X013209Y002871D01*
X013130Y002871D01*
X013130Y002792D01*
X012735Y002792D01*
X012735Y002548D01*
X012744Y002512D01*
X012763Y002480D01*
X012775Y002468D01*
X011953Y002468D01*
X011660Y002761D01*
X011734Y002761D01*
X011862Y002889D01*
X011862Y003070D01*
X011734Y003198D01*
X011573Y003198D01*
X011035Y003735D01*
X011035Y003877D01*
X010907Y004005D01*
X010726Y004005D01*
X010679Y003958D01*
X010679Y004101D01*
X011102Y004101D01*
X011171Y004171D01*
X011395Y004395D01*
X011537Y004395D01*
X011665Y004523D01*
X011665Y004704D01*
X011537Y004832D01*
X011356Y004832D01*
X011228Y004704D01*
X011228Y004562D01*
X011004Y004338D01*
X010968Y004338D01*
X011035Y004405D01*
X011035Y004586D01*
X010935Y004686D01*
X010935Y006572D01*
X011171Y006808D01*
X011171Y007182D01*
X011102Y007251D01*
X010984Y007369D01*
X011831Y007369D01*
X013691Y005509D01*
X013691Y003832D01*
X014007Y003516D01*
X013951Y003380D01*
X013951Y003201D01*
X014019Y003036D01*
X014145Y002910D01*
X014310Y002842D01*
X014489Y002842D01*
X014654Y002910D01*
X014780Y003036D01*
X014848Y003201D01*
X014848Y003380D01*
X014780Y003545D01*
X014654Y003671D01*
X014489Y003739D01*
X014310Y003739D01*
X014174Y003683D01*
X013927Y003930D01*
X013927Y004096D01*
X013928Y004095D01*
X013964Y004023D01*
X014011Y003959D01*
X014068Y003902D01*
X014133Y003855D01*
X014204Y003818D01*
X014280Y003794D01*
X014360Y003781D01*
X014360Y004251D01*
X014439Y004251D01*
X014439Y004330D01*
X014360Y004330D01*
X014360Y004800D01*
X014360Y004800D01*
X014280Y004787D01*
X014204Y004762D01*
X014133Y004726D01*
X014068Y004679D01*
X014011Y004622D01*
X013964Y004557D01*
X013928Y004486D01*
X013927Y004485D01*
X013927Y005510D01*
X013982Y005455D01*
X013951Y005380D01*
X013951Y005201D01*
X014019Y005036D01*
X014145Y004910D01*
X014310Y004842D01*
X014489Y004842D01*
X014654Y004910D01*
X014780Y005036D01*
X014848Y005201D01*
X014848Y005380D01*
X014780Y005545D01*
X014654Y005671D01*
X014489Y005739D01*
X014310Y005739D01*
X014145Y005671D01*
X014123Y005648D01*
X012094Y007684D01*
X012952Y007684D01*
X013039Y007771D01*
X013039Y007712D01*
X013140Y007611D01*
X013140Y007383D01*
X014007Y006516D01*
X013951Y006380D01*
X013951Y006201D01*
X014019Y006036D01*
X014145Y005910D01*
X014310Y005842D01*
X014489Y005842D01*
X014654Y005910D01*
X014780Y006036D01*
X014848Y006201D01*
X014848Y006380D01*
X014780Y006545D01*
X014654Y006671D01*
X014489Y006739D01*
X014310Y006739D01*
X014174Y006683D01*
X013376Y007481D01*
X013376Y007611D01*
X013476Y007712D01*
X013476Y007771D01*
X013951Y007296D01*
X013951Y007201D01*
X014019Y007036D01*
X014145Y006910D01*
X014310Y006842D01*
X014489Y006842D01*
X014654Y006910D01*
X014780Y007036D01*
X014848Y007201D01*
X014848Y007380D01*
X014780Y007545D01*
X014654Y007671D01*
X014489Y007739D01*
X014310Y007739D01*
X014145Y007671D01*
X014028Y007553D01*
X013494Y008087D01*
X013494Y008087D01*
X013425Y008156D01*
X013091Y008156D01*
X013022Y008087D01*
X012855Y007920D01*
X011102Y007920D01*
X011496Y008314D01*
X011968Y008314D01*
X012086Y008432D01*
X012145Y008491D01*
X012218Y008491D01*
X012254Y008527D01*
X012290Y008491D01*
X012651Y008491D01*
X012683Y008523D01*
X012694Y008504D01*
X012720Y008478D01*
X012751Y008460D01*
X012787Y008450D01*
X012963Y008450D01*
X012963Y008806D01*
X013041Y008806D01*
X013041Y008450D01*
X013217Y008450D01*
X013253Y008460D01*
X013284Y008478D01*
X013310Y008504D01*
X013329Y008536D01*
X013338Y008571D01*
X013338Y008806D01*
X013041Y008806D01*
X013041Y008885D01*
X012963Y008885D01*
X012963Y009241D01*
X012787Y009241D01*
X012751Y009231D01*
X012720Y009213D01*
X012697Y009190D01*
X012697Y009193D01*
X012651Y009239D01*
X012290Y009239D01*
X012254Y009203D01*
X012218Y009239D01*
X011867Y009239D01*
X011864Y009246D01*
X011838Y009272D01*
X011806Y009290D01*
X011770Y009300D01*
X011639Y009300D01*
X011639Y008900D01*
X011570Y008900D01*
X011570Y009300D01*
X011438Y009300D01*
X011403Y009290D01*
X011371Y009272D01*
X011345Y009246D01*
X011341Y009239D01*
X011212Y009239D01*
X011212Y009241D01*
X011212Y009377D01*
X011212Y009513D01*
X011203Y009549D01*
X011188Y009574D01*
X011203Y009599D01*
X011212Y009634D01*
X011212Y009771D01*
X011212Y009907D01*
X011203Y009943D01*
X011188Y009968D01*
X011203Y009992D01*
X011212Y010028D01*
X011212Y010164D01*
X010994Y010164D01*
X010994Y010164D01*
X010994Y010028D01*
X010994Y009771D01*
X010994Y009771D01*
X010994Y010164D01*
X010994Y010164D01*
X011212Y010164D01*
X011212Y010301D01*
X011203Y010336D01*
X011184Y010368D01*
X011172Y010381D01*
X011184Y010394D01*
X011203Y010426D01*
X011212Y010461D01*
X011212Y010597D01*
X010994Y010597D01*
X010994Y010597D01*
X010994Y010340D01*
X010994Y010164D01*
X010994Y010164D01*
X010994Y010597D01*
X010994Y010597D01*
X011212Y010597D01*
X011212Y010734D01*
X011203Y010769D01*
X011184Y010801D01*
X011158Y010827D01*
X011127Y010845D01*
X011119Y010847D01*
X011152Y010880D01*
X011152Y011181D01*
X011105Y011227D01*
X011102Y011227D01*
X011043Y011286D01*
X010945Y011385D01*
X010414Y011385D01*
X010345Y011316D01*
X010297Y011269D01*
X010254Y011269D01*
X010126Y011141D01*
X010126Y010960D01*
X010228Y010858D01*
X010213Y010844D01*
X009370Y010844D01*
X009370Y010918D01*
X009411Y010960D01*
X009411Y011141D01*
X009395Y011157D01*
X009395Y011163D01*
X009408Y011163D01*
X009454Y011210D01*
X009454Y011432D01*
X009421Y011465D01*
X009429Y011467D01*
X009461Y011485D01*
X009487Y011511D01*
X009505Y011543D01*
X009514Y011578D01*
X009514Y011675D01*
X009257Y011675D01*
X009257Y011675D01*
X009514Y011675D01*
X009514Y011772D01*
X009505Y011808D01*
X009487Y011840D01*
X009461Y011865D01*
X009429Y011884D01*
X009393Y011893D01*
X009257Y011893D01*
X009257Y011675D01*
X008999Y011675D01*
X008809Y011675D01*
X008552Y011675D01*
X008552Y011578D01*
X008561Y011543D01*
X008579Y011511D01*
X008605Y011485D01*
X008637Y011467D01*
X008645Y011465D01*
X008612Y011432D01*
X008612Y011210D01*
X008636Y011186D01*
X008591Y011141D01*
X008591Y010960D01*
X008692Y010858D01*
X008677Y010844D01*
X008657Y010844D01*
X008553Y010740D01*
X008499Y010686D01*
X007765Y010686D01*
X007785Y010706D01*
X008061Y010982D01*
X008061Y011493D01*
X008464Y011897D01*
X010433Y011897D01*
X010866Y012330D01*
X010935Y012399D01*
X010935Y012493D01*
X011035Y012594D01*
X011035Y012775D01*
X011008Y012802D01*
X011595Y012802D01*
X011721Y012676D01*
X011671Y012676D01*
X011543Y012548D01*
X011543Y012367D01*
X011671Y012239D01*
X011852Y012239D01*
X011880Y012267D01*
X011880Y012103D01*
X011368Y011591D01*
X011368Y010076D01*
X011437Y010007D01*
X011437Y010007D01*
X011683Y009761D01*
X011752Y009692D01*
X011212Y009692D01*
X011212Y009769D02*
X011675Y009769D01*
X011752Y009692D02*
X011847Y009692D01*
X011947Y009592D01*
X012128Y009592D01*
X012256Y009720D01*
X012256Y009901D01*
X012128Y010028D01*
X012053Y010028D01*
X012059Y010035D01*
X012059Y010070D01*
X012065Y010064D01*
X012246Y010064D01*
X012374Y010192D01*
X012374Y010373D01*
X012274Y010473D01*
X012274Y010646D01*
X012187Y010733D01*
X012246Y010733D01*
X012274Y010706D01*
X012343Y010637D01*
X012500Y010637D01*
X012549Y010588D01*
X012549Y010391D01*
X013770Y009171D01*
X013770Y008753D01*
X014007Y008516D01*
X013951Y008380D01*
X013951Y008201D01*
X014019Y008036D01*
X014145Y007910D01*
X014310Y007842D01*
X014489Y007842D01*
X014654Y007910D01*
X014780Y008036D01*
X014848Y008201D01*
X014848Y008380D01*
X014780Y008545D01*
X014654Y008671D01*
X014489Y008739D01*
X014310Y008739D01*
X014174Y008683D01*
X014006Y008851D01*
X014006Y009068D01*
X014019Y009036D01*
X014145Y008910D01*
X014310Y008842D01*
X014489Y008842D01*
X014654Y008910D01*
X014780Y009036D01*
X014848Y009201D01*
X014848Y009380D01*
X014780Y009545D01*
X014654Y009671D01*
X014489Y009739D01*
X014310Y009739D01*
X014145Y009671D01*
X014019Y009545D01*
X014004Y009507D01*
X012943Y010568D01*
X012943Y010764D01*
X012874Y010834D01*
X012728Y010979D01*
X012728Y011082D01*
X014000Y011082D01*
X014019Y011036D02*
X014145Y010910D01*
X014310Y010842D01*
X014489Y010842D01*
X014654Y010910D01*
X014780Y011036D01*
X014848Y011201D01*
X014848Y011380D01*
X014780Y011545D01*
X014654Y011671D01*
X014489Y011739D01*
X014310Y011739D01*
X014145Y011671D01*
X014019Y011545D01*
X013963Y011408D01*
X013685Y011408D01*
X013691Y011415D01*
X014174Y011898D01*
X014310Y011842D01*
X014489Y011842D01*
X014654Y011910D01*
X014780Y012036D01*
X014848Y012201D01*
X014848Y012380D01*
X014780Y012545D01*
X014654Y012671D01*
X014489Y012739D01*
X014310Y012739D01*
X014145Y012671D01*
X014019Y012545D01*
X013951Y012380D01*
X013951Y012201D01*
X014007Y012065D01*
X013524Y011582D01*
X012107Y011582D01*
X012037Y011513D01*
X012037Y011513D01*
X011752Y011227D01*
X011683Y011158D01*
X011683Y010667D01*
X011722Y010627D01*
X011722Y010316D01*
X011622Y010215D01*
X011622Y010156D01*
X011604Y010174D01*
X011604Y011493D01*
X012047Y011936D01*
X012116Y012005D01*
X012116Y012615D01*
X011762Y012969D01*
X011693Y013038D01*
X010374Y013038D01*
X010287Y012951D01*
X010287Y013129D01*
X010159Y013257D01*
X010018Y013257D01*
X009704Y013570D01*
X010310Y013570D01*
X010522Y013359D01*
X010625Y013255D01*
X011245Y013255D01*
X011348Y013359D01*
X011814Y013824D01*
X011872Y013824D01*
X012000Y013952D01*
X012000Y014133D01*
X011872Y014261D01*
X011691Y014261D01*
X011563Y014133D01*
X011563Y014074D01*
X011098Y013609D01*
X010772Y013609D01*
X010457Y013924D01*
X009689Y013924D01*
X009648Y013965D01*
X009467Y013965D01*
X009425Y013924D01*
X008035Y013924D01*
X007994Y013965D01*
X007813Y013965D01*
X007772Y013924D01*
X007169Y013924D01*
X007216Y013972D01*
X007216Y014152D01*
X007089Y014280D01*
X006908Y014280D01*
X006866Y014239D01*
X006506Y014239D01*
X006506Y014781D01*
X006555Y014731D01*
X006701Y014586D01*
X006701Y014444D01*
X006829Y014316D01*
X007010Y014316D01*
X007138Y014444D01*
X007138Y014625D01*
X007071Y014692D01*
X007138Y014759D01*
X007138Y014940D01*
X007116Y014961D01*
X007116Y015131D01*
X007116Y015131D01*
X007116Y015076D01*
X007173Y015019D01*
X007173Y014877D01*
X007301Y014749D01*
X007482Y014749D01*
X007610Y014877D01*
X007610Y015058D01*
X007525Y015143D01*
X007561Y015143D01*
X007689Y015271D01*
X007689Y015413D01*
X008031Y015755D01*
X008343Y015755D01*
X008443Y015655D01*
X008624Y015655D01*
X008752Y015783D01*
X008752Y015964D01*
X008624Y016091D01*
X008443Y016091D01*
X008343Y015991D01*
X007933Y015991D01*
X007522Y015580D01*
X007380Y015580D01*
X007352Y015552D01*
X007352Y015646D01*
X007283Y015716D01*
X006486Y016513D01*
X006417Y016582D01*
X004803Y016582D01*
X004500Y016885D01*
X004500Y017026D01*
X004372Y017154D01*
X004191Y017154D01*
X004063Y017026D01*
X004063Y016846D01*
X004191Y016718D01*
X004333Y016718D01*
X004705Y016345D01*
X005414Y016345D01*
X005278Y016210D01*
X005136Y016210D01*
X005008Y016082D01*
X005008Y015901D01*
X005136Y015773D01*
X005317Y015773D01*
X005445Y015901D01*
X005445Y016043D01*
X005590Y016188D01*
X006059Y016188D01*
X005992Y016121D01*
X005992Y016091D01*
X005825Y016091D01*
X005697Y015964D01*
X005697Y015783D01*
X005825Y015655D01*
X006006Y015655D01*
X006134Y015783D01*
X006134Y015812D01*
X006152Y015812D01*
X006152Y014194D01*
X006110Y014152D01*
X006110Y014059D01*
X005405Y014763D01*
X005405Y014822D01*
X005277Y014950D01*
X005219Y014950D01*
X004776Y015393D01*
X004776Y015452D01*
X004648Y015580D01*
X004589Y015580D01*
X004355Y015814D01*
X002938Y015814D01*
X002884Y015868D01*
X002780Y015971D01*
X002662Y015971D01*
X002254Y016379D01*
X002254Y017316D01*
X002295Y017357D01*
X002295Y017538D01*
X002167Y017666D01*
X001986Y017666D01*
X001858Y017538D01*
X001858Y017357D01*
X001900Y017316D01*
X001900Y016233D01*
X002003Y016129D01*
X002003Y016129D01*
X002277Y015855D01*
X002223Y015855D01*
X002095Y015727D01*
X002095Y015546D01*
X002195Y015446D01*
X002195Y014879D01*
X002264Y014810D01*
X002904Y014171D01*
X002904Y010749D01*
X002904Y011276D01*
X002707Y011473D01*
X002707Y011666D01*
X002807Y011767D01*
X002807Y011948D01*
X002679Y012076D01*
X002498Y012076D01*
X002370Y011948D01*
X002370Y011767D01*
X002470Y011666D01*
X002470Y011375D01*
X002518Y011328D01*
X002459Y011328D01*
X002331Y011200D01*
X002331Y011141D01*
X002293Y011104D01*
X002293Y010367D01*
X002352Y010308D01*
X002352Y009797D01*
X002398Y009751D01*
X002707Y009751D01*
X002707Y009564D01*
X002776Y009495D01*
X002933Y009338D01*
X002737Y009338D01*
X002667Y009268D01*
X002601Y009202D01*
X002459Y009202D01*
X002331Y009074D01*
X001998Y009074D01*
X001998Y008997D02*
X002331Y008997D01*
X002331Y009074D02*
X002331Y008893D01*
X002459Y008765D01*
X002636Y008765D01*
X002234Y008363D01*
X002234Y007784D01*
X002183Y007784D01*
X002055Y007656D01*
X002055Y007475D01*
X002162Y007369D01*
X002134Y007341D01*
X002134Y007161D01*
X002262Y007033D01*
X002443Y007033D01*
X002530Y007119D01*
X002616Y007033D01*
X002797Y007033D01*
X002925Y007161D01*
X002925Y007341D01*
X002825Y007442D01*
X002825Y008147D01*
X004360Y008147D01*
X004437Y008070D02*
X002825Y008070D01*
X002825Y008147D02*
X002992Y008314D01*
X004193Y008314D01*
X004872Y007635D01*
X004941Y007566D01*
X005717Y007566D01*
X005717Y007515D01*
X005845Y007387D01*
X005935Y007387D01*
X005935Y006827D01*
X005817Y006709D01*
X005817Y005450D01*
X005811Y005444D02*
X001743Y005444D01*
X001743Y005366D02*
X005734Y005366D01*
X005657Y005289D02*
X001743Y005289D01*
X001743Y005212D02*
X005579Y005212D01*
X005502Y005135D02*
X001743Y005135D01*
X001743Y005058D02*
X005425Y005058D01*
X005348Y004980D02*
X001743Y004980D01*
X001743Y004903D02*
X005270Y004903D01*
X005193Y004826D02*
X001743Y004826D01*
X001743Y004749D02*
X005116Y004749D01*
X005039Y004671D02*
X001743Y004671D01*
X001743Y004594D02*
X004961Y004594D01*
X004884Y004517D02*
X001743Y004517D01*
X001743Y004440D02*
X004783Y004440D01*
X004706Y004362D02*
X001743Y004362D01*
X001743Y004285D02*
X004693Y004285D01*
X004693Y004208D02*
X001743Y004208D01*
X001743Y004131D02*
X004731Y004131D01*
X004808Y004053D02*
X001743Y004053D01*
X001743Y003976D02*
X004895Y003976D01*
X004818Y003899D02*
X001743Y003899D01*
X001743Y003822D02*
X004740Y003822D01*
X004675Y003744D02*
X001743Y003744D01*
X001743Y003667D02*
X004675Y003667D01*
X004675Y003590D02*
X001743Y003590D01*
X001743Y003513D02*
X004675Y003513D01*
X004675Y003435D02*
X001743Y003435D01*
X001743Y003358D02*
X004675Y003358D01*
X004675Y003281D02*
X001743Y003281D01*
X001743Y003204D02*
X004675Y003204D01*
X004675Y003127D02*
X001743Y003127D01*
X001743Y003049D02*
X004675Y003049D01*
X004675Y002972D02*
X001743Y002972D01*
X001743Y002895D02*
X004675Y002895D01*
X004675Y002818D02*
X001743Y002818D01*
X001743Y002740D02*
X004675Y002740D01*
X004675Y002663D02*
X001743Y002663D01*
X001743Y002586D02*
X004675Y002586D01*
X004675Y002509D02*
X001743Y002509D01*
X001743Y002431D02*
X004675Y002431D01*
X004793Y002330D02*
X004636Y002172D01*
X004854Y002200D02*
X007361Y002200D01*
X007361Y002154D02*
X007370Y002118D01*
X007388Y002087D01*
X007414Y002061D01*
X007446Y002042D01*
X007482Y002033D01*
X007756Y002033D01*
X007756Y002399D01*
X007361Y002399D01*
X007361Y002154D01*
X007369Y002122D02*
X004854Y002122D01*
X004818Y002045D02*
X007441Y002045D01*
X007361Y002277D02*
X004907Y002277D01*
X004911Y002354D02*
X007361Y002354D01*
X007361Y002477D02*
X007756Y002477D01*
X007756Y002399D01*
X007835Y002399D01*
X007835Y002477D01*
X008230Y002477D01*
X008230Y002722D01*
X008220Y002758D01*
X008202Y002789D01*
X008176Y002815D01*
X008144Y002834D01*
X008109Y002843D01*
X007835Y002843D01*
X007835Y002477D01*
X007756Y002477D01*
X007756Y002843D01*
X007742Y002843D01*
X007748Y002849D01*
X007748Y003030D01*
X007666Y003112D01*
X007748Y003194D01*
X007748Y003375D01*
X007620Y003503D01*
X007549Y003503D01*
X007549Y003796D01*
X007480Y003865D01*
X007275Y004070D01*
X007295Y004090D01*
X007295Y004271D01*
X007167Y004399D01*
X006986Y004399D01*
X006919Y004332D01*
X006852Y004399D01*
X006671Y004399D01*
X006543Y004271D01*
X006543Y004090D01*
X006671Y003962D01*
X006813Y003962D01*
X007156Y003619D01*
X007156Y003147D01*
X007311Y002991D01*
X007311Y002849D01*
X007382Y002778D01*
X007370Y002758D01*
X007361Y002722D01*
X007361Y002477D01*
X007361Y002509D02*
X004911Y002509D01*
X004911Y002586D02*
X007361Y002586D01*
X007361Y002663D02*
X004911Y002663D01*
X004911Y002740D02*
X007366Y002740D01*
X007343Y002818D02*
X004911Y002818D01*
X004911Y002895D02*
X007311Y002895D01*
X007311Y002972D02*
X004911Y002972D01*
X004911Y003049D02*
X007253Y003049D01*
X007176Y003127D02*
X004911Y003127D01*
X004911Y003204D02*
X007156Y003204D01*
X007156Y003281D02*
X004911Y003281D01*
X004911Y003358D02*
X007156Y003358D01*
X007156Y003435D02*
X004911Y003435D01*
X004911Y003513D02*
X007156Y003513D01*
X007156Y003590D02*
X004911Y003590D01*
X004920Y003667D02*
X007108Y003667D01*
X007030Y003744D02*
X006084Y003744D01*
X006161Y003822D02*
X006953Y003822D01*
X006876Y003899D02*
X006193Y003899D01*
X006193Y003976D02*
X006657Y003976D01*
X006580Y004053D02*
X006174Y004053D01*
X006132Y004131D02*
X006543Y004131D01*
X006543Y004208D02*
X006132Y004208D01*
X006132Y004285D02*
X006558Y004285D01*
X006635Y004362D02*
X006132Y004362D01*
X006132Y004440D02*
X007589Y004440D01*
X007589Y004517D02*
X006132Y004517D01*
X006132Y004594D02*
X007589Y004594D01*
X007589Y004671D02*
X006132Y004671D01*
X006132Y004749D02*
X007589Y004749D01*
X007589Y004826D02*
X006134Y004826D01*
X006211Y004903D02*
X007589Y004903D01*
X007589Y004980D02*
X006289Y004980D01*
X006366Y005058D02*
X007589Y005058D01*
X007589Y005135D02*
X006443Y005135D01*
X006447Y005212D02*
X007589Y005212D01*
X007589Y005289D02*
X006447Y005289D01*
X006447Y005366D02*
X007589Y005366D01*
X007589Y005444D02*
X006447Y005444D01*
X006447Y005521D02*
X007589Y005521D01*
X007589Y005598D02*
X006447Y005598D01*
X006447Y005675D02*
X007580Y005675D01*
X007503Y005753D02*
X006447Y005753D01*
X006447Y005830D02*
X007425Y005830D01*
X007348Y005907D02*
X006447Y005907D01*
X006447Y005984D02*
X007271Y005984D01*
X007194Y006062D02*
X006447Y006062D01*
X006707Y006139D02*
X007116Y006139D01*
X007116Y006306D02*
X007707Y005716D01*
X007707Y003708D01*
X008100Y003314D01*
X008319Y003281D02*
X009222Y003281D01*
X009222Y003358D02*
X008319Y003358D01*
X008288Y003435D02*
X009222Y003435D01*
X009222Y003513D02*
X008211Y003513D01*
X008145Y003590D02*
X008055Y003590D01*
X007943Y003786D02*
X008691Y004534D01*
X008691Y005204D01*
X010187Y006700D01*
X010187Y007054D01*
X010049Y006883D02*
X010069Y006863D01*
X010069Y006749D01*
X008642Y005322D01*
X008573Y005253D01*
X008573Y004583D01*
X007994Y004005D01*
X007852Y004005D01*
X007825Y003977D01*
X007825Y005764D01*
X007165Y006424D01*
X006756Y006424D01*
X006655Y006525D01*
X006573Y006525D01*
X006604Y006556D01*
X006604Y006838D01*
X008972Y006838D01*
X009299Y006510D01*
X009299Y006452D01*
X009427Y006324D01*
X009608Y006324D01*
X009736Y006452D01*
X009736Y006633D01*
X009608Y006761D01*
X009550Y006761D01*
X009178Y007133D01*
X009681Y007133D01*
X009654Y007105D01*
X009654Y006924D01*
X009782Y006796D01*
X009963Y006796D01*
X010049Y006883D01*
X010069Y006834D02*
X010000Y006834D01*
X010069Y006757D02*
X009612Y006757D01*
X009689Y006680D02*
X010000Y006680D01*
X009923Y006602D02*
X009736Y006602D01*
X009736Y006525D02*
X009845Y006525D01*
X009768Y006448D02*
X009732Y006448D01*
X009691Y006371D02*
X009655Y006371D01*
X009614Y006293D02*
X007296Y006293D01*
X007373Y006216D02*
X009536Y006216D01*
X009459Y006139D02*
X007450Y006139D01*
X007528Y006062D02*
X009382Y006062D01*
X009305Y005984D02*
X007605Y005984D01*
X007682Y005907D02*
X009227Y005907D01*
X009150Y005830D02*
X007759Y005830D01*
X007825Y005753D02*
X009073Y005753D01*
X008996Y005675D02*
X007825Y005675D01*
X007825Y005598D02*
X008918Y005598D01*
X008841Y005521D02*
X007825Y005521D01*
X007825Y005444D02*
X008764Y005444D01*
X008687Y005366D02*
X007825Y005366D01*
X007825Y005289D02*
X008609Y005289D01*
X008573Y005212D02*
X007825Y005212D01*
X007825Y005135D02*
X008573Y005135D01*
X008573Y005058D02*
X007825Y005058D01*
X007825Y004980D02*
X008573Y004980D01*
X008573Y004903D02*
X007825Y004903D01*
X007825Y004826D02*
X008573Y004826D01*
X008573Y004749D02*
X007825Y004749D01*
X007825Y004671D02*
X008573Y004671D01*
X008573Y004594D02*
X007825Y004594D01*
X007825Y004517D02*
X008506Y004517D01*
X008429Y004440D02*
X007825Y004440D01*
X007825Y004362D02*
X008352Y004362D01*
X008275Y004285D02*
X007825Y004285D01*
X007825Y004208D02*
X008197Y004208D01*
X008120Y004131D02*
X007825Y004131D01*
X007825Y004053D02*
X008043Y004053D01*
X008258Y003786D02*
X008848Y004377D01*
X008848Y005125D01*
X010502Y006779D01*
X010502Y007054D01*
X010817Y007054D02*
X010817Y006857D01*
X009085Y005125D01*
X009085Y004495D01*
X009261Y004362D02*
X010325Y004362D01*
X010325Y004285D02*
X009184Y004285D01*
X009303Y004440D02*
X010325Y004440D01*
X010325Y004517D02*
X009303Y004517D01*
X009295Y004594D02*
X010325Y004594D01*
X010325Y004671D02*
X009217Y004671D01*
X009203Y004749D02*
X010325Y004749D01*
X010325Y004826D02*
X009203Y004826D01*
X009203Y004903D02*
X010325Y004903D01*
X010325Y004980D02*
X009203Y004980D01*
X009203Y005058D02*
X010325Y005058D01*
X010325Y005135D02*
X009261Y005135D01*
X009339Y005212D02*
X010325Y005212D01*
X010325Y005289D02*
X009416Y005289D01*
X009493Y005366D02*
X010325Y005366D01*
X010325Y005444D02*
X009570Y005444D01*
X009648Y005521D02*
X010325Y005521D01*
X010232Y005598D02*
X009725Y005598D01*
X009802Y005675D02*
X010165Y005675D01*
X010165Y005753D02*
X009879Y005753D01*
X009957Y005830D02*
X010165Y005830D01*
X010227Y005907D02*
X010034Y005907D01*
X010111Y005984D02*
X010699Y005984D01*
X010699Y005907D02*
X010541Y005907D01*
X010602Y005830D02*
X010699Y005830D01*
X010699Y005753D02*
X010637Y005753D01*
X010679Y005675D02*
X010699Y005675D01*
X010699Y005598D02*
X010679Y005598D01*
X010679Y005521D02*
X010699Y005521D01*
X010699Y005444D02*
X010679Y005444D01*
X010679Y005366D02*
X010699Y005366D01*
X010699Y005289D02*
X010679Y005289D01*
X010679Y005212D02*
X010699Y005212D01*
X010699Y005135D02*
X010679Y005135D01*
X010679Y005058D02*
X010699Y005058D01*
X010699Y004980D02*
X010679Y004980D01*
X010679Y004903D02*
X010699Y004903D01*
X010699Y004826D02*
X010679Y004826D01*
X010679Y004749D02*
X010699Y004749D01*
X010684Y004671D02*
X010679Y004671D01*
X010817Y004495D02*
X010817Y006621D01*
X011053Y006857D01*
X011053Y007133D01*
X010856Y007330D01*
X010148Y007330D01*
X009872Y007054D01*
X009872Y007015D01*
X009654Y006989D02*
X009322Y006989D01*
X009245Y007066D02*
X009654Y007066D01*
X009667Y006911D02*
X009399Y006911D01*
X009477Y006834D02*
X009744Y006834D01*
X009823Y007251D02*
X010059Y007487D01*
X011880Y007487D01*
X013809Y005558D01*
X013809Y003881D01*
X014400Y003290D01*
X014716Y002972D02*
X015009Y002972D01*
X015009Y002895D02*
X014617Y002895D01*
X014785Y003049D02*
X015009Y003049D01*
X015009Y003127D02*
X014817Y003127D01*
X014848Y003204D02*
X015009Y003204D01*
X015009Y003281D02*
X014848Y003281D01*
X014848Y003358D02*
X015009Y003358D01*
X015009Y003435D02*
X014825Y003435D01*
X014793Y003513D02*
X015009Y003513D01*
X015009Y003590D02*
X014735Y003590D01*
X014657Y003667D02*
X015009Y003667D01*
X015009Y003744D02*
X014113Y003744D01*
X014035Y003822D02*
X014197Y003822D01*
X014072Y003899D02*
X013958Y003899D01*
X013927Y003976D02*
X013998Y003976D01*
X013949Y004053D02*
X013927Y004053D01*
X013779Y003744D02*
X013618Y003744D01*
X013615Y003740D02*
X013634Y003772D01*
X013643Y003807D01*
X013643Y003983D01*
X013268Y003983D01*
X013268Y004062D01*
X013643Y004062D01*
X013643Y004238D01*
X013634Y004273D01*
X013615Y004305D01*
X013590Y004331D01*
X013558Y004349D01*
X013522Y004359D01*
X013268Y004359D01*
X013268Y004062D01*
X013189Y004062D01*
X013189Y004359D01*
X012934Y004359D01*
X012899Y004349D01*
X012867Y004331D01*
X012841Y004305D01*
X012823Y004273D01*
X012813Y004238D01*
X012813Y004062D01*
X013189Y004062D01*
X013189Y003983D01*
X013268Y003983D01*
X013268Y003686D01*
X013522Y003686D01*
X013558Y003696D01*
X013590Y003714D01*
X013615Y003740D01*
X013643Y003822D02*
X013701Y003822D01*
X013691Y003899D02*
X013643Y003899D01*
X013643Y003976D02*
X013691Y003976D01*
X013691Y004053D02*
X013268Y004053D01*
X013268Y003976D02*
X013189Y003976D01*
X013189Y003983D02*
X013189Y003686D01*
X012934Y003686D01*
X012899Y003696D01*
X012867Y003714D01*
X012841Y003740D01*
X012823Y003772D01*
X012813Y003807D01*
X012813Y003983D01*
X013189Y003983D01*
X013189Y004053D02*
X010679Y004053D01*
X010679Y003976D02*
X010698Y003976D01*
X010817Y003786D02*
X011624Y002979D01*
X011644Y002979D01*
X011791Y002818D02*
X013130Y002818D01*
X013130Y002871D02*
X012735Y002871D01*
X012735Y003116D01*
X012744Y003151D01*
X012763Y003183D01*
X012788Y003209D01*
X012820Y003227D01*
X012856Y003237D01*
X013130Y003237D01*
X013130Y002871D01*
X013130Y002895D02*
X013209Y002895D01*
X013209Y002972D02*
X013130Y002972D01*
X013130Y003049D02*
X013209Y003049D01*
X013209Y003127D02*
X013130Y003127D01*
X013130Y003204D02*
X013209Y003204D01*
X013209Y002818D02*
X015009Y002818D01*
X015009Y002740D02*
X013604Y002740D01*
X013604Y002663D02*
X014138Y002663D01*
X014060Y002586D02*
X013604Y002586D01*
X013592Y002509D02*
X014004Y002509D01*
X014182Y002895D02*
X013604Y002895D01*
X013604Y002972D02*
X014083Y002972D01*
X014014Y003049D02*
X013604Y003049D01*
X013601Y003127D02*
X013982Y003127D01*
X013951Y003204D02*
X013555Y003204D01*
X013856Y003667D02*
X011103Y003667D01*
X011035Y003744D02*
X012839Y003744D01*
X012813Y003822D02*
X011035Y003822D01*
X011013Y003899D02*
X012813Y003899D01*
X012813Y003976D02*
X010936Y003976D01*
X011131Y004131D02*
X012813Y004131D01*
X012813Y004208D02*
X011209Y004208D01*
X011286Y004285D02*
X012830Y004285D01*
X013189Y004285D02*
X013268Y004285D01*
X013268Y004208D02*
X013189Y004208D01*
X013189Y004131D02*
X013268Y004131D01*
X013268Y003899D02*
X013189Y003899D01*
X013189Y003822D02*
X013268Y003822D01*
X013268Y003744D02*
X013189Y003744D01*
X013643Y004131D02*
X013691Y004131D01*
X013691Y004208D02*
X013643Y004208D01*
X013627Y004285D02*
X013691Y004285D01*
X013691Y004362D02*
X011363Y004362D01*
X011582Y004440D02*
X013691Y004440D01*
X013691Y004517D02*
X011659Y004517D01*
X011665Y004594D02*
X013691Y004594D01*
X013691Y004671D02*
X011665Y004671D01*
X011620Y004749D02*
X013691Y004749D01*
X013691Y004826D02*
X011543Y004826D01*
X011351Y004826D02*
X010935Y004826D01*
X010935Y004903D02*
X013691Y004903D01*
X013691Y004980D02*
X010935Y004980D01*
X010935Y005058D02*
X013691Y005058D01*
X013691Y005135D02*
X010935Y005135D01*
X010935Y005212D02*
X013691Y005212D01*
X013691Y005289D02*
X010935Y005289D01*
X010935Y005366D02*
X013691Y005366D01*
X013691Y005444D02*
X012586Y005444D01*
X012650Y005507D02*
X012650Y005688D01*
X012549Y005788D01*
X012549Y006631D01*
X012480Y006700D01*
X012165Y007015D01*
X011953Y007015D01*
X011852Y007115D01*
X011671Y007115D01*
X011543Y006987D01*
X011543Y006806D01*
X011671Y006678D01*
X011852Y006678D01*
X011953Y006779D01*
X012067Y006779D01*
X012313Y006533D01*
X012313Y005788D01*
X012213Y005688D01*
X012213Y005507D01*
X012341Y005379D01*
X012522Y005379D01*
X012650Y005507D01*
X012650Y005521D02*
X013679Y005521D01*
X013602Y005598D02*
X012650Y005598D01*
X012650Y005675D02*
X013525Y005675D01*
X013447Y005753D02*
X012585Y005753D01*
X012549Y005830D02*
X013370Y005830D01*
X013293Y005907D02*
X012549Y005907D01*
X012549Y005984D02*
X013216Y005984D01*
X013138Y006062D02*
X012549Y006062D01*
X012549Y006139D02*
X013061Y006139D01*
X012984Y006216D02*
X012549Y006216D01*
X012549Y006293D02*
X012907Y006293D01*
X012830Y006371D02*
X012549Y006371D01*
X012549Y006448D02*
X012752Y006448D01*
X012675Y006525D02*
X012549Y006525D01*
X012549Y006602D02*
X012598Y006602D01*
X012521Y006680D02*
X012500Y006680D01*
X012443Y006757D02*
X012423Y006757D01*
X012366Y006834D02*
X012346Y006834D01*
X012289Y006911D02*
X012269Y006911D01*
X012212Y006989D02*
X012191Y006989D01*
X012134Y007066D02*
X011902Y007066D01*
X011980Y007220D02*
X011133Y007220D01*
X011171Y007143D02*
X012057Y007143D01*
X011903Y007297D02*
X011056Y007297D01*
X011171Y007066D02*
X011622Y007066D01*
X011545Y006989D02*
X011171Y006989D01*
X011171Y006911D02*
X011543Y006911D01*
X011543Y006834D02*
X011171Y006834D01*
X011120Y006757D02*
X011593Y006757D01*
X011670Y006680D02*
X011042Y006680D01*
X010965Y006602D02*
X012243Y006602D01*
X012313Y006525D02*
X010935Y006525D01*
X010935Y006448D02*
X012313Y006448D01*
X012313Y006371D02*
X010935Y006371D01*
X010935Y006293D02*
X012313Y006293D01*
X012313Y006216D02*
X010935Y006216D01*
X010935Y006139D02*
X012313Y006139D01*
X012313Y006062D02*
X010935Y006062D01*
X010935Y005984D02*
X012313Y005984D01*
X012313Y005907D02*
X010935Y005907D01*
X010935Y005830D02*
X012313Y005830D01*
X012277Y005753D02*
X010935Y005753D01*
X010935Y005675D02*
X012213Y005675D01*
X012213Y005598D02*
X010935Y005598D01*
X010935Y005521D02*
X012213Y005521D01*
X012276Y005444D02*
X010935Y005444D01*
X010699Y006062D02*
X010188Y006062D01*
X010266Y006139D02*
X010699Y006139D01*
X010699Y006216D02*
X010343Y006216D01*
X010420Y006293D02*
X010699Y006293D01*
X010699Y006371D02*
X010497Y006371D01*
X010575Y006448D02*
X010699Y006448D01*
X010699Y006525D02*
X010652Y006525D01*
X009823Y007251D02*
X007904Y007251D01*
X007667Y007487D01*
X007548Y007297D02*
X006385Y007297D01*
X006356Y007233D02*
X006329Y007206D01*
X006329Y007241D01*
X006968Y007881D01*
X007240Y007881D01*
X007213Y007853D01*
X007213Y007672D01*
X007341Y007544D01*
X007449Y007544D01*
X007449Y007397D01*
X007577Y007269D01*
X007719Y007269D01*
X007785Y007202D01*
X007796Y007192D01*
X006579Y007192D01*
X006537Y007233D01*
X006356Y007233D01*
X006343Y007220D02*
X006329Y007220D01*
X006211Y007290D02*
X006919Y007999D01*
X007392Y007999D01*
X007746Y008353D01*
X007746Y009849D01*
X007195Y010401D01*
X007195Y010637D01*
X007313Y010755D01*
X007667Y010755D01*
X007943Y011031D01*
X007943Y011542D01*
X008415Y012015D01*
X010384Y012015D01*
X010817Y012448D01*
X010817Y012684D01*
X010935Y012473D02*
X011543Y012473D01*
X011545Y012550D02*
X010992Y012550D01*
X011035Y012627D02*
X011622Y012627D01*
X011693Y012704D02*
X011035Y012704D01*
X011028Y012782D02*
X011615Y012782D01*
X011644Y012920D02*
X010423Y012920D01*
X010226Y012723D01*
X010226Y012487D01*
X010069Y012330D01*
X008258Y012330D01*
X007628Y011700D01*
X007628Y011188D01*
X007510Y011070D01*
X007077Y011070D01*
X006959Y011070D01*
X005108Y009219D01*
X004400Y009219D01*
X004242Y009062D01*
X003140Y009062D01*
X002982Y009219D01*
X002785Y009219D01*
X002549Y008983D01*
X002381Y008842D02*
X001998Y008842D01*
X001998Y008765D02*
X002459Y008765D01*
X002559Y008688D02*
X001998Y008688D01*
X001998Y008611D02*
X002482Y008611D01*
X002405Y008533D02*
X001998Y008533D01*
X001998Y008456D02*
X002327Y008456D01*
X002250Y008379D02*
X001998Y008379D01*
X001998Y008302D02*
X002234Y008302D01*
X002234Y008224D02*
X001998Y008224D01*
X001998Y008147D02*
X002234Y008147D01*
X002234Y008070D02*
X001998Y008070D01*
X001998Y007993D02*
X002234Y007993D01*
X002234Y007915D02*
X001998Y007915D01*
X001998Y007838D02*
X002234Y007838D01*
X002160Y007761D02*
X001998Y007761D01*
X001998Y007684D02*
X002082Y007684D01*
X002055Y007606D02*
X001998Y007606D01*
X001998Y007529D02*
X002055Y007529D01*
X002079Y007452D02*
X001998Y007452D01*
X001998Y007375D02*
X002156Y007375D01*
X002134Y007297D02*
X001998Y007297D01*
X001998Y007220D02*
X002134Y007220D01*
X002151Y007143D02*
X001998Y007143D01*
X001998Y007066D02*
X002229Y007066D01*
X002352Y007251D02*
X002510Y007408D01*
X002510Y008235D01*
X002864Y008590D01*
X004478Y008590D01*
X004557Y008511D01*
X004478Y008747D02*
X004557Y008826D01*
X004478Y008747D02*
X002785Y008747D01*
X002352Y008314D01*
X002352Y007645D01*
X002274Y007566D01*
X002476Y007066D02*
X002583Y007066D01*
X002707Y007251D02*
X002707Y008196D01*
X002943Y008432D01*
X004242Y008432D01*
X004990Y007684D01*
X005856Y007684D01*
X005935Y007605D01*
X006053Y007605D01*
X006841Y008393D01*
X007234Y008393D01*
X007313Y008156D02*
X007589Y008432D01*
X007589Y009771D01*
X007037Y010322D01*
X007037Y010716D01*
X007234Y010912D01*
X007589Y010912D01*
X007785Y011109D01*
X007785Y011621D01*
X008337Y012172D01*
X010187Y012172D01*
X010502Y012487D01*
X010502Y012684D01*
X010349Y013013D02*
X010287Y013013D01*
X010287Y013091D02*
X013930Y013091D01*
X013928Y013095D02*
X013964Y013023D01*
X014011Y012959D01*
X014068Y012902D01*
X014133Y012855D01*
X014204Y012818D01*
X014280Y012794D01*
X014360Y012781D01*
X014360Y013251D01*
X013890Y013251D01*
X013890Y013250D01*
X013903Y013171D01*
X013928Y013095D01*
X013904Y013168D02*
X010248Y013168D01*
X010171Y013245D02*
X013891Y013245D01*
X013890Y013330D02*
X014360Y013330D01*
X014360Y013800D01*
X014360Y013800D01*
X014280Y013787D01*
X014204Y013762D01*
X014133Y013726D01*
X014068Y013679D01*
X014011Y013622D01*
X013964Y013557D01*
X013928Y013486D01*
X013903Y013410D01*
X013890Y013330D01*
X013890Y013330D01*
X013901Y013399D02*
X011389Y013399D01*
X011348Y013359D02*
X011348Y013359D01*
X011312Y013322D02*
X014360Y013322D01*
X014360Y013330D02*
X014360Y013251D01*
X014439Y013251D01*
X014439Y013330D01*
X014360Y013330D01*
X014360Y013399D02*
X014439Y013399D01*
X014439Y013330D02*
X014439Y013800D01*
X014440Y013800D01*
X014519Y013787D01*
X014595Y013762D01*
X014667Y013726D01*
X014731Y013679D01*
X014788Y013622D01*
X014835Y013557D01*
X014872Y013486D01*
X014896Y013410D01*
X014909Y013330D01*
X014909Y013330D01*
X014439Y013330D01*
X014439Y013322D02*
X015009Y013322D01*
X015009Y013245D02*
X014908Y013245D01*
X014909Y013250D02*
X014909Y013251D01*
X014439Y013251D01*
X014439Y012781D01*
X014440Y012781D01*
X014519Y012794D01*
X014595Y012818D01*
X014667Y012855D01*
X014731Y012902D01*
X014788Y012959D01*
X014835Y013023D01*
X014872Y013095D01*
X014896Y013171D01*
X014909Y013250D01*
X014895Y013168D02*
X015009Y013168D01*
X015009Y013091D02*
X014869Y013091D01*
X014828Y013013D02*
X015009Y013013D01*
X015009Y012936D02*
X014766Y012936D01*
X014672Y012859D02*
X015009Y012859D01*
X015009Y012782D02*
X014443Y012782D01*
X014439Y012782D02*
X014360Y012782D01*
X014360Y012781D02*
X014360Y012781D01*
X014356Y012782D02*
X011949Y012782D01*
X011872Y012859D02*
X014127Y012859D01*
X014034Y012936D02*
X011795Y012936D01*
X011718Y013013D02*
X013971Y013013D01*
X014226Y012704D02*
X012027Y012704D01*
X012104Y012627D02*
X014102Y012627D01*
X014024Y012550D02*
X012116Y012550D01*
X012116Y012473D02*
X013989Y012473D01*
X013957Y012395D02*
X012116Y012395D01*
X012116Y012318D02*
X013951Y012318D01*
X013951Y012241D02*
X012116Y012241D01*
X012116Y012164D02*
X013966Y012164D01*
X013998Y012086D02*
X012116Y012086D01*
X012116Y012009D02*
X013951Y012009D01*
X013874Y011932D02*
X012043Y011932D01*
X011966Y011855D02*
X013797Y011855D01*
X013720Y011777D02*
X011888Y011777D01*
X011811Y011700D02*
X013642Y011700D01*
X013565Y011623D02*
X011734Y011623D01*
X011657Y011546D02*
X012071Y011546D01*
X011993Y011468D02*
X011604Y011468D01*
X011604Y011391D02*
X011916Y011391D01*
X011839Y011314D02*
X011604Y011314D01*
X011604Y011237D02*
X011762Y011237D01*
X011752Y011227D02*
X011752Y011227D01*
X011684Y011160D02*
X011604Y011160D01*
X011604Y011082D02*
X011683Y011082D01*
X011683Y011005D02*
X011604Y011005D01*
X011604Y010928D02*
X011683Y010928D01*
X011683Y010851D02*
X011604Y010851D01*
X011604Y010773D02*
X011683Y010773D01*
X011683Y010696D02*
X011604Y010696D01*
X011604Y010619D02*
X011722Y010619D01*
X011722Y010542D02*
X011604Y010542D01*
X011604Y010464D02*
X011722Y010464D01*
X011722Y010387D02*
X011604Y010387D01*
X011604Y010310D02*
X011717Y010310D01*
X011639Y010233D02*
X011604Y010233D01*
X011486Y010125D02*
X011486Y011542D01*
X011998Y012054D01*
X011998Y012566D01*
X011644Y012920D01*
X011543Y012395D02*
X010931Y012395D01*
X010854Y012318D02*
X011592Y012318D01*
X011670Y012241D02*
X010777Y012241D01*
X010700Y012164D02*
X011880Y012164D01*
X011880Y012241D02*
X011854Y012241D01*
X011863Y012086D02*
X010623Y012086D01*
X010545Y012009D02*
X011786Y012009D01*
X011709Y011932D02*
X010468Y011932D01*
X010343Y011314D02*
X009454Y011314D01*
X009454Y011391D02*
X011368Y011391D01*
X011368Y011314D02*
X011015Y011314D01*
X011093Y011237D02*
X011368Y011237D01*
X011368Y011160D02*
X011152Y011160D01*
X011152Y011082D02*
X011368Y011082D01*
X011368Y011005D02*
X011152Y011005D01*
X011152Y010928D02*
X011368Y010928D01*
X011368Y010851D02*
X011122Y010851D01*
X011200Y010773D02*
X011368Y010773D01*
X011368Y010696D02*
X011212Y010696D01*
X011212Y010619D02*
X011368Y010619D01*
X011368Y010542D02*
X011212Y010542D01*
X011212Y010464D02*
X011368Y010464D01*
X011368Y010387D02*
X011178Y010387D01*
X011210Y010310D02*
X011368Y010310D01*
X011368Y010233D02*
X011212Y010233D01*
X011212Y010155D02*
X011368Y010155D01*
X011368Y010078D02*
X011212Y010078D01*
X011205Y010001D02*
X011443Y010001D01*
X011521Y009924D02*
X011208Y009924D01*
X011212Y009846D02*
X011598Y009846D01*
X011801Y009810D02*
X011486Y010125D01*
X011841Y010125D02*
X011841Y010676D01*
X011801Y010716D01*
X011801Y011109D01*
X012156Y011464D01*
X013573Y011464D01*
X014400Y012290D01*
X014573Y012704D02*
X015009Y012704D01*
X015009Y012627D02*
X014698Y012627D01*
X014775Y012550D02*
X015009Y012550D01*
X015009Y012473D02*
X014810Y012473D01*
X014842Y012395D02*
X015009Y012395D01*
X015009Y012318D02*
X014848Y012318D01*
X014848Y012241D02*
X015009Y012241D01*
X015009Y012164D02*
X014833Y012164D01*
X014801Y012086D02*
X015009Y012086D01*
X015009Y012009D02*
X014753Y012009D01*
X014676Y011932D02*
X015009Y011932D01*
X015009Y011855D02*
X014520Y011855D01*
X014583Y011700D02*
X015009Y011700D01*
X015009Y011623D02*
X014702Y011623D01*
X014779Y011546D02*
X015009Y011546D01*
X015009Y011468D02*
X014812Y011468D01*
X014844Y011391D02*
X015009Y011391D01*
X015009Y011314D02*
X014848Y011314D01*
X014848Y011237D02*
X015009Y011237D01*
X015009Y011160D02*
X014831Y011160D01*
X014799Y011082D02*
X015009Y011082D01*
X015009Y011005D02*
X014749Y011005D01*
X014672Y010928D02*
X015009Y010928D01*
X015009Y010851D02*
X014510Y010851D01*
X014519Y010787D02*
X014440Y010800D01*
X014439Y010800D01*
X014439Y010330D01*
X014360Y010330D01*
X014360Y010800D01*
X014360Y010800D01*
X014280Y010787D01*
X014204Y010762D01*
X014133Y010726D01*
X014068Y010679D01*
X014011Y010622D01*
X013964Y010557D01*
X013928Y010486D01*
X013903Y010410D01*
X013890Y010330D01*
X014360Y010330D01*
X014360Y010251D01*
X013890Y010251D01*
X013890Y010250D01*
X013903Y010171D01*
X013928Y010095D01*
X013964Y010023D01*
X014011Y009959D01*
X014068Y009902D01*
X014133Y009855D01*
X014204Y009818D01*
X014280Y009794D01*
X014360Y009781D01*
X014360Y010251D01*
X014439Y010251D01*
X014439Y010330D01*
X014909Y010330D01*
X014909Y010330D01*
X014896Y010410D01*
X014872Y010486D01*
X014835Y010557D01*
X014788Y010622D01*
X014731Y010679D01*
X014667Y010726D01*
X014595Y010762D01*
X014519Y010787D01*
X014562Y010773D02*
X015009Y010773D01*
X015009Y010696D02*
X014708Y010696D01*
X014791Y010619D02*
X015009Y010619D01*
X015009Y010542D02*
X014843Y010542D01*
X014879Y010464D02*
X015009Y010464D01*
X015009Y010387D02*
X014900Y010387D01*
X015009Y010310D02*
X014439Y010310D01*
X014439Y010251D02*
X014909Y010251D01*
X014909Y010250D01*
X014896Y010171D01*
X014872Y010095D01*
X014835Y010023D01*
X014788Y009959D01*
X014731Y009902D01*
X014667Y009855D01*
X014595Y009818D01*
X014519Y009794D01*
X014440Y009781D01*
X014439Y009781D01*
X014439Y010251D01*
X014439Y010233D02*
X014360Y010233D01*
X014360Y010310D02*
X013201Y010310D01*
X013278Y010233D02*
X013893Y010233D01*
X013908Y010155D02*
X013355Y010155D01*
X013432Y010078D02*
X013936Y010078D01*
X013980Y010001D02*
X013510Y010001D01*
X013587Y009924D02*
X014046Y009924D01*
X014149Y009846D02*
X013664Y009846D01*
X013741Y009769D02*
X015009Y009769D01*
X015009Y009692D02*
X014603Y009692D01*
X014710Y009615D02*
X015009Y009615D01*
X015009Y009537D02*
X014783Y009537D01*
X014815Y009460D02*
X015009Y009460D01*
X015009Y009383D02*
X014847Y009383D01*
X014848Y009306D02*
X015009Y009306D01*
X015009Y009228D02*
X014848Y009228D01*
X014828Y009151D02*
X015009Y009151D01*
X015009Y009074D02*
X014796Y009074D01*
X014741Y008997D02*
X015009Y008997D01*
X015009Y008920D02*
X014663Y008920D01*
X014491Y008842D02*
X015009Y008842D01*
X015009Y008765D02*
X014092Y008765D01*
X014169Y008688D02*
X014187Y008688D01*
X014309Y008842D02*
X014015Y008842D01*
X014006Y008920D02*
X014136Y008920D01*
X014059Y008997D02*
X014006Y008997D01*
X013888Y008802D02*
X014400Y008290D01*
X014714Y008611D02*
X015009Y008611D01*
X015009Y008688D02*
X014613Y008688D01*
X014785Y008533D02*
X015009Y008533D01*
X015009Y008456D02*
X014817Y008456D01*
X014848Y008379D02*
X015009Y008379D01*
X015009Y008302D02*
X014848Y008302D01*
X014848Y008224D02*
X015009Y008224D01*
X015009Y008147D02*
X014826Y008147D01*
X014794Y008070D02*
X015009Y008070D01*
X015009Y007993D02*
X014737Y007993D01*
X014659Y007915D02*
X015009Y007915D01*
X015009Y007838D02*
X013743Y007838D01*
X013666Y007915D02*
X014140Y007915D01*
X014063Y007993D02*
X013589Y007993D01*
X013512Y008070D02*
X014005Y008070D01*
X013973Y008147D02*
X013434Y008147D01*
X013376Y008038D02*
X014124Y007290D01*
X014400Y007290D01*
X014718Y007606D02*
X015009Y007606D01*
X015009Y007529D02*
X014786Y007529D01*
X014818Y007452D02*
X015009Y007452D01*
X015009Y007375D02*
X014848Y007375D01*
X014848Y007297D02*
X015009Y007297D01*
X015009Y007220D02*
X014848Y007220D01*
X014824Y007143D02*
X015009Y007143D01*
X015009Y007066D02*
X014792Y007066D01*
X014732Y006989D02*
X015009Y006989D01*
X015009Y006911D02*
X014655Y006911D01*
X014633Y006680D02*
X015009Y006680D01*
X015009Y006757D02*
X014100Y006757D01*
X014023Y006834D02*
X015009Y006834D01*
X015009Y006602D02*
X014722Y006602D01*
X014788Y006525D02*
X015009Y006525D01*
X015009Y006448D02*
X014820Y006448D01*
X014848Y006371D02*
X015009Y006371D01*
X015009Y006293D02*
X014848Y006293D01*
X014848Y006216D02*
X015009Y006216D01*
X015009Y006139D02*
X014823Y006139D01*
X014791Y006062D02*
X015009Y006062D01*
X015009Y005984D02*
X014728Y005984D01*
X014647Y005907D02*
X015009Y005907D01*
X015009Y005830D02*
X013942Y005830D01*
X014019Y005753D02*
X015009Y005753D01*
X015009Y005675D02*
X014643Y005675D01*
X014726Y005598D02*
X015009Y005598D01*
X015009Y005521D02*
X014790Y005521D01*
X014822Y005444D02*
X015009Y005444D01*
X015009Y005366D02*
X014848Y005366D01*
X014848Y005289D02*
X015009Y005289D01*
X015009Y005212D02*
X014848Y005212D01*
X014821Y005135D02*
X015009Y005135D01*
X015009Y005058D02*
X014789Y005058D01*
X014724Y004980D02*
X015009Y004980D01*
X015009Y004903D02*
X014637Y004903D01*
X014595Y004762D02*
X014519Y004787D01*
X014440Y004800D01*
X014439Y004800D01*
X014439Y004330D01*
X014909Y004330D01*
X014909Y004330D01*
X014896Y004410D01*
X014872Y004486D01*
X014835Y004557D01*
X014788Y004622D01*
X014731Y004679D01*
X014667Y004726D01*
X014595Y004762D01*
X014622Y004749D02*
X015009Y004749D01*
X015009Y004826D02*
X013927Y004826D01*
X013927Y004903D02*
X014162Y004903D01*
X014075Y004980D02*
X013927Y004980D01*
X013927Y005058D02*
X014010Y005058D01*
X013978Y005135D02*
X013927Y005135D01*
X013927Y005212D02*
X013951Y005212D01*
X013951Y005289D02*
X013927Y005289D01*
X013927Y005366D02*
X013951Y005366D01*
X013927Y005444D02*
X013977Y005444D01*
X014096Y005675D02*
X014157Y005675D01*
X014152Y005907D02*
X013865Y005907D01*
X013788Y005984D02*
X014071Y005984D01*
X014009Y006062D02*
X013711Y006062D01*
X013634Y006139D02*
X013977Y006139D01*
X013951Y006216D02*
X013557Y006216D01*
X013480Y006293D02*
X013951Y006293D01*
X013951Y006371D02*
X013403Y006371D01*
X013326Y006448D02*
X013979Y006448D01*
X013998Y006525D02*
X013249Y006525D01*
X013172Y006602D02*
X013921Y006602D01*
X013843Y006680D02*
X013095Y006680D01*
X013018Y006757D02*
X013766Y006757D01*
X013689Y006834D02*
X012941Y006834D01*
X012864Y006911D02*
X013612Y006911D01*
X013534Y006989D02*
X012787Y006989D01*
X012710Y007066D02*
X013457Y007066D01*
X013380Y007143D02*
X012633Y007143D01*
X012556Y007220D02*
X013303Y007220D01*
X013225Y007297D02*
X012479Y007297D01*
X012402Y007375D02*
X013148Y007375D01*
X013140Y007452D02*
X012325Y007452D01*
X012248Y007529D02*
X013140Y007529D01*
X013140Y007606D02*
X012171Y007606D01*
X012094Y007684D02*
X013067Y007684D01*
X013039Y007761D02*
X013029Y007761D01*
X012904Y007802D02*
X013140Y008038D01*
X013376Y008038D01*
X013258Y007802D02*
X013258Y007432D01*
X014400Y006290D01*
X014144Y006911D02*
X013946Y006911D01*
X013868Y006989D02*
X014067Y006989D01*
X014007Y007066D02*
X013791Y007066D01*
X013714Y007143D02*
X013975Y007143D01*
X013951Y007220D02*
X013637Y007220D01*
X013560Y007297D02*
X013950Y007297D01*
X013873Y007375D02*
X013482Y007375D01*
X013405Y007452D02*
X013795Y007452D01*
X013718Y007529D02*
X013376Y007529D01*
X013376Y007606D02*
X013641Y007606D01*
X013564Y007684D02*
X013448Y007684D01*
X013476Y007761D02*
X013486Y007761D01*
X013820Y007761D02*
X015009Y007761D01*
X015009Y007684D02*
X014623Y007684D01*
X014177Y007684D02*
X013898Y007684D01*
X013975Y007606D02*
X014081Y007606D01*
X013951Y008224D02*
X011406Y008224D01*
X011329Y008147D02*
X013081Y008147D01*
X013004Y008070D02*
X011252Y008070D01*
X011174Y007993D02*
X012927Y007993D01*
X012904Y007802D02*
X009813Y007802D01*
X009734Y007723D01*
X009516Y007761D02*
X009303Y007761D01*
X009303Y007751D02*
X009303Y007842D01*
X009543Y007842D01*
X009516Y007814D01*
X009516Y007633D01*
X009622Y007527D01*
X008149Y007527D01*
X007834Y007842D01*
X007650Y007842D01*
X007650Y007853D01*
X007531Y007972D01*
X007795Y008235D01*
X007864Y008304D01*
X007864Y009898D01*
X007472Y010290D01*
X007522Y010290D01*
X007563Y010332D01*
X008646Y010332D01*
X008762Y010448D01*
X008847Y010448D01*
X008847Y010322D01*
X009065Y010322D01*
X009065Y010322D01*
X008847Y010322D01*
X008847Y010185D01*
X008856Y010150D01*
X008875Y010118D01*
X008888Y010105D01*
X008875Y010092D01*
X008856Y010061D01*
X008847Y010025D01*
X008847Y009889D01*
X009065Y009889D01*
X009065Y009889D01*
X009065Y010146D01*
X009065Y010322D01*
X009065Y010322D01*
X009065Y009889D01*
X009065Y009889D01*
X008847Y009889D01*
X008847Y009752D01*
X008856Y009717D01*
X008875Y009685D01*
X008901Y009659D01*
X008932Y009641D01*
X008968Y009631D01*
X009065Y009631D01*
X009162Y009631D01*
X009198Y009641D01*
X009229Y009659D01*
X009255Y009685D01*
X009274Y009717D01*
X009276Y009724D01*
X009308Y009692D01*
X009259Y009692D01*
X009308Y009692D02*
X009531Y009692D01*
X009540Y009692D01*
X009537Y009698D02*
X009544Y009685D01*
X009570Y009659D01*
X009602Y009641D01*
X009637Y009631D01*
X009734Y009631D01*
X009734Y009889D01*
X009734Y010146D01*
X009637Y010146D01*
X009602Y010137D01*
X009570Y010118D01*
X009557Y010106D01*
X009557Y010151D01*
X009577Y010171D01*
X009577Y010473D01*
X009560Y010489D01*
X010213Y010489D01*
X010254Y010448D01*
X010435Y010448D01*
X010447Y010460D01*
X010482Y010460D01*
X010482Y010447D01*
X010502Y010427D01*
X010502Y010335D01*
X010482Y010315D01*
X010482Y010070D01*
X010435Y010117D01*
X010254Y010117D01*
X010211Y010074D01*
X010200Y010086D01*
X009977Y010086D01*
X009945Y010053D01*
X009943Y010061D01*
X009925Y010092D01*
X009899Y010118D01*
X009867Y010137D01*
X009831Y010146D01*
X009734Y010146D01*
X009734Y009889D01*
X009734Y009889D01*
X009734Y009889D01*
X009734Y009631D01*
X009831Y009631D01*
X009867Y009641D01*
X009899Y009659D01*
X009925Y009685D01*
X009943Y009717D01*
X009945Y009724D01*
X009977Y009692D01*
X009928Y009692D01*
X009977Y009692D02*
X010200Y009692D01*
X010242Y009692D01*
X010254Y009680D02*
X010435Y009680D01*
X010482Y009728D01*
X010482Y009620D01*
X010502Y009600D01*
X010502Y009547D01*
X010482Y009528D01*
X010482Y009239D01*
X010125Y009239D01*
X010089Y009203D01*
X010052Y009239D01*
X009692Y009239D01*
X009656Y009203D01*
X009619Y009239D01*
X009259Y009239D01*
X009213Y009193D01*
X009213Y008550D01*
X008435Y008550D01*
X008366Y008481D01*
X008221Y008336D01*
X008118Y008336D01*
X007990Y008208D01*
X007990Y008027D01*
X008118Y007899D01*
X008276Y007899D01*
X008276Y007731D01*
X008404Y007603D01*
X008585Y007603D01*
X008685Y007704D01*
X008720Y007704D01*
X008789Y007773D01*
X008866Y007850D01*
X008866Y007751D01*
X008994Y007623D01*
X009175Y007623D01*
X009303Y007751D01*
X009303Y007838D02*
X009540Y007838D01*
X009516Y007684D02*
X009236Y007684D01*
X009085Y007842D02*
X009203Y007960D01*
X010974Y007960D01*
X011447Y008432D01*
X011919Y008432D01*
X012037Y008550D01*
X012037Y008865D01*
X012110Y008456D02*
X012765Y008456D01*
X012963Y008456D02*
X013041Y008456D01*
X013041Y008533D02*
X012963Y008533D01*
X012963Y008611D02*
X013041Y008611D01*
X013041Y008688D02*
X012963Y008688D01*
X012963Y008765D02*
X013041Y008765D01*
X013041Y008842D02*
X013770Y008842D01*
X013770Y008765D02*
X013338Y008765D01*
X013338Y008688D02*
X013835Y008688D01*
X013912Y008611D02*
X013338Y008611D01*
X013327Y008533D02*
X013990Y008533D01*
X013983Y008456D02*
X013239Y008456D01*
X013338Y008885D02*
X013041Y008885D01*
X013041Y009241D01*
X013217Y009241D01*
X013253Y009231D01*
X013284Y009213D01*
X013310Y009187D01*
X013329Y009155D01*
X013338Y009120D01*
X013338Y008885D01*
X013338Y008920D02*
X013770Y008920D01*
X013770Y008997D02*
X013338Y008997D01*
X013338Y009074D02*
X013770Y009074D01*
X013770Y009151D02*
X013330Y009151D01*
X013257Y009228D02*
X013712Y009228D01*
X013635Y009306D02*
X011212Y009306D01*
X011212Y009377D02*
X010994Y009377D01*
X010994Y009771D01*
X011212Y009771D01*
X010994Y009771D01*
X010994Y009771D01*
X010994Y009771D01*
X010994Y009513D01*
X010994Y009377D01*
X010994Y009377D01*
X011212Y009377D01*
X011212Y009383D02*
X013557Y009383D01*
X013480Y009460D02*
X011212Y009460D01*
X011206Y009537D02*
X013403Y009537D01*
X013326Y009615D02*
X012151Y009615D01*
X012228Y009692D02*
X013248Y009692D01*
X013171Y009769D02*
X012256Y009769D01*
X012256Y009846D02*
X013094Y009846D01*
X013017Y009924D02*
X012233Y009924D01*
X012155Y010001D02*
X012939Y010001D01*
X012862Y010078D02*
X012260Y010078D01*
X012337Y010155D02*
X012785Y010155D01*
X012708Y010233D02*
X012374Y010233D01*
X012374Y010310D02*
X012630Y010310D01*
X012553Y010387D02*
X012360Y010387D01*
X012283Y010464D02*
X012549Y010464D01*
X012549Y010542D02*
X012274Y010542D01*
X012274Y010619D02*
X012518Y010619D01*
X012549Y010755D02*
X012667Y010637D01*
X012667Y010440D01*
X013888Y009219D01*
X013888Y008802D01*
X013951Y008379D02*
X012033Y008379D01*
X011483Y008302D02*
X013951Y008302D01*
X014053Y009290D02*
X014400Y009290D01*
X014053Y009290D02*
X012825Y010519D01*
X012825Y010716D01*
X012549Y010991D01*
X012510Y010991D01*
X012728Y011005D02*
X014050Y011005D01*
X014019Y011036D02*
X013963Y011172D01*
X012638Y011172D01*
X012728Y011082D01*
X012650Y011160D02*
X013968Y011160D01*
X014128Y010928D02*
X012780Y010928D01*
X012857Y010851D02*
X014289Y010851D01*
X014238Y010773D02*
X012934Y010773D01*
X012943Y010696D02*
X014091Y010696D01*
X014009Y010619D02*
X012943Y010619D01*
X012969Y010542D02*
X013956Y010542D01*
X013921Y010464D02*
X013046Y010464D01*
X013123Y010387D02*
X013899Y010387D01*
X013890Y010330D02*
X013890Y010330D01*
X014360Y010387D02*
X014439Y010387D01*
X014439Y010464D02*
X014360Y010464D01*
X014360Y010542D02*
X014439Y010542D01*
X014439Y010619D02*
X014360Y010619D01*
X014360Y010696D02*
X014439Y010696D01*
X014439Y010773D02*
X014360Y010773D01*
X014400Y011290D02*
X012219Y011290D01*
X011959Y011031D01*
X011959Y010794D01*
X012156Y010597D01*
X012156Y010282D01*
X012224Y010696D02*
X012284Y010696D01*
X012392Y010755D02*
X012195Y010952D01*
X012392Y010755D02*
X012549Y010755D01*
X012037Y009810D02*
X011801Y009810D01*
X011924Y009615D02*
X011207Y009615D01*
X010994Y009615D02*
X010994Y009615D01*
X010994Y009692D02*
X010994Y009692D01*
X010994Y009769D02*
X010994Y009769D01*
X010994Y009846D02*
X010994Y009846D01*
X010994Y009924D02*
X010994Y009924D01*
X010994Y010001D02*
X010994Y010001D01*
X010994Y010078D02*
X010994Y010078D01*
X010994Y010155D02*
X010994Y010155D01*
X010994Y010233D02*
X010994Y010233D01*
X010994Y010310D02*
X010994Y010310D01*
X010994Y010387D02*
X010994Y010387D01*
X010994Y010464D02*
X010994Y010464D01*
X010994Y010542D02*
X010994Y010542D01*
X010994Y011031D02*
X010994Y011168D01*
X010896Y011267D01*
X010463Y011267D01*
X010345Y011149D01*
X010345Y011050D01*
X010126Y011082D02*
X009411Y011082D01*
X009411Y011005D02*
X010126Y011005D01*
X010158Y010928D02*
X009379Y010928D01*
X009370Y010851D02*
X010220Y010851D01*
X010145Y011160D02*
X009395Y011160D01*
X009454Y011237D02*
X010222Y011237D01*
X010238Y010464D02*
X009577Y010464D01*
X009577Y010387D02*
X010502Y010387D01*
X010482Y010310D02*
X009577Y010310D01*
X009577Y010233D02*
X010482Y010233D01*
X010482Y010155D02*
X009561Y010155D01*
X009734Y010078D02*
X009734Y010078D01*
X009734Y010001D02*
X009734Y010001D01*
X009734Y009924D02*
X009734Y009924D01*
X009734Y009846D02*
X009734Y009846D01*
X009734Y009769D02*
X009734Y009769D01*
X009734Y009692D02*
X009734Y009692D01*
X009537Y009698D02*
X009531Y009692D01*
X009630Y009228D02*
X009681Y009228D01*
X010063Y009228D02*
X010114Y009228D01*
X010482Y009306D02*
X007864Y009306D01*
X007864Y009383D02*
X010482Y009383D01*
X010482Y009460D02*
X007864Y009460D01*
X007864Y009537D02*
X010492Y009537D01*
X010488Y009615D02*
X007864Y009615D01*
X007864Y009692D02*
X008871Y009692D01*
X008847Y009769D02*
X007864Y009769D01*
X007864Y009846D02*
X008847Y009846D01*
X008847Y009924D02*
X007839Y009924D01*
X007762Y010001D02*
X008847Y010001D01*
X008866Y010078D02*
X007684Y010078D01*
X007607Y010155D02*
X008855Y010155D01*
X008847Y010233D02*
X007530Y010233D01*
X007541Y010310D02*
X008847Y010310D01*
X008847Y010387D02*
X008702Y010387D01*
X008587Y010773D02*
X007853Y010773D01*
X007776Y010696D02*
X008510Y010696D01*
X008684Y010851D02*
X007930Y010851D01*
X008007Y010928D02*
X008623Y010928D01*
X008591Y011005D02*
X008061Y011005D01*
X008061Y011082D02*
X008591Y011082D01*
X008609Y011160D02*
X008061Y011160D01*
X008061Y011237D02*
X008612Y011237D01*
X008612Y011314D02*
X008061Y011314D01*
X008061Y011391D02*
X008612Y011391D01*
X008634Y011468D02*
X008061Y011468D01*
X008113Y011546D02*
X008560Y011546D01*
X008552Y011623D02*
X008191Y011623D01*
X008268Y011700D02*
X008552Y011700D01*
X008552Y011675D02*
X008552Y011772D01*
X008561Y011808D01*
X008579Y011840D01*
X008605Y011865D01*
X008637Y011884D01*
X008673Y011893D01*
X008809Y011893D01*
X008809Y011675D01*
X008809Y011675D01*
X008809Y011675D01*
X008552Y011675D01*
X008553Y011777D02*
X008345Y011777D01*
X008422Y011855D02*
X008595Y011855D01*
X008809Y011855D02*
X008809Y011855D01*
X008809Y011893D02*
X008809Y011675D01*
X008809Y011675D01*
X009257Y011675D01*
X009257Y011675D01*
X009257Y011675D01*
X009257Y011893D01*
X009120Y011893D01*
X009085Y011884D01*
X009053Y011865D01*
X009033Y011845D01*
X009013Y011865D01*
X008981Y011884D01*
X008946Y011893D01*
X008809Y011893D01*
X008809Y011777D02*
X008809Y011777D01*
X008809Y011700D02*
X008809Y011700D01*
X009024Y011855D02*
X009042Y011855D01*
X009257Y011855D02*
X009257Y011855D01*
X009257Y011777D02*
X009257Y011777D01*
X009257Y011700D02*
X009257Y011700D01*
X009432Y011468D02*
X011368Y011468D01*
X011368Y011546D02*
X009506Y011546D01*
X009514Y011623D02*
X011400Y011623D01*
X011477Y011700D02*
X009514Y011700D01*
X009513Y011777D02*
X011554Y011777D01*
X011632Y011855D02*
X009471Y011855D01*
X009872Y012487D02*
X009951Y012566D01*
X009872Y012487D02*
X008140Y012487D01*
X007943Y012684D01*
X007785Y012684D01*
X007935Y012525D02*
X007876Y012466D01*
X007695Y012466D01*
X007567Y012594D01*
X007567Y012775D01*
X007695Y012902D01*
X007876Y012902D01*
X007976Y012802D01*
X007992Y012802D01*
X008061Y012733D01*
X008189Y012605D01*
X009732Y012605D01*
X009732Y012633D01*
X009614Y012751D01*
X009614Y012893D01*
X009272Y013235D01*
X006362Y013235D01*
X006390Y013208D01*
X006390Y013027D01*
X006348Y012985D01*
X006348Y012059D01*
X005248Y010959D01*
X005248Y010901D01*
X005120Y010773D01*
X004939Y010773D01*
X004811Y010901D01*
X004811Y011082D01*
X004939Y011210D01*
X004997Y011210D01*
X005994Y012206D01*
X005994Y012985D01*
X005953Y013027D01*
X005953Y013208D01*
X005980Y013235D01*
X005925Y013235D01*
X005856Y013304D01*
X005856Y013304D01*
X004311Y014849D01*
X004154Y014849D01*
X004006Y014997D01*
X004006Y014840D01*
X003937Y014771D01*
X003770Y014604D01*
X003770Y012560D01*
X003797Y012588D01*
X003856Y012588D01*
X004222Y012954D01*
X004326Y013058D01*
X005410Y013058D01*
X005451Y013099D01*
X005632Y013099D01*
X005760Y012971D01*
X005760Y012790D01*
X005632Y012662D01*
X005451Y012662D01*
X005410Y012704D01*
X004473Y012704D01*
X004106Y012337D01*
X004106Y012279D01*
X003978Y012151D01*
X003797Y012151D01*
X003770Y012178D01*
X003770Y010147D01*
X003939Y010147D01*
X003960Y010125D01*
X004587Y010125D01*
X006836Y012345D01*
X006870Y012379D01*
X006939Y012448D01*
X007004Y012448D01*
X007104Y012548D01*
X007285Y012548D01*
X007413Y012420D01*
X007413Y012239D01*
X007285Y012111D01*
X007250Y012111D01*
X007256Y012105D01*
X007256Y011997D01*
X007364Y011997D01*
X007492Y011869D01*
X007492Y011688D01*
X007364Y011560D01*
X007295Y011560D01*
X007295Y011518D01*
X007301Y011525D01*
X007482Y011525D01*
X007510Y011497D01*
X007510Y011749D01*
X007579Y011818D01*
X008130Y012369D01*
X008091Y012369D01*
X007935Y012525D01*
X007883Y012473D02*
X007987Y012473D01*
X008065Y012395D02*
X007413Y012395D01*
X007413Y012318D02*
X008079Y012318D01*
X008002Y012241D02*
X007413Y012241D01*
X007338Y012164D02*
X007925Y012164D01*
X007848Y012086D02*
X007256Y012086D01*
X007256Y012009D02*
X007770Y012009D01*
X007693Y011932D02*
X007429Y011932D01*
X007492Y011855D02*
X007616Y011855D01*
X007539Y011777D02*
X007492Y011777D01*
X007492Y011700D02*
X007510Y011700D01*
X007510Y011623D02*
X007427Y011623D01*
X007510Y011546D02*
X007295Y011546D01*
X007077Y011542D02*
X006949Y011542D01*
X006919Y011513D01*
X004951Y009534D01*
X004242Y009534D01*
X004085Y009377D01*
X003297Y009377D01*
X002982Y009692D01*
X002982Y009968D01*
X003179Y010164D01*
X003179Y014298D01*
X002470Y015007D01*
X002470Y015282D01*
X002628Y015440D01*
X002707Y015086D02*
X003022Y015401D01*
X003809Y015401D01*
X004045Y015164D01*
X004045Y015125D01*
X004203Y014968D01*
X004360Y014968D01*
X005974Y013353D01*
X009321Y013353D01*
X009833Y012842D01*
X009614Y012859D02*
X007920Y012859D01*
X008012Y012782D02*
X009614Y012782D01*
X009661Y012704D02*
X008090Y012704D01*
X008167Y012627D02*
X009732Y012627D01*
X009571Y012936D02*
X006348Y012936D01*
X006348Y012859D02*
X007651Y012859D01*
X007574Y012782D02*
X006348Y012782D01*
X006348Y012704D02*
X007567Y012704D01*
X007567Y012627D02*
X006348Y012627D01*
X006348Y012550D02*
X007611Y012550D01*
X007688Y012473D02*
X007361Y012473D01*
X007195Y012330D02*
X006988Y012330D01*
X006919Y012261D01*
X004636Y010007D01*
X003927Y010007D01*
X003848Y009928D01*
X003809Y009928D01*
X003652Y010086D01*
X003652Y014653D01*
X003888Y014889D01*
X003888Y015125D01*
X003770Y015243D01*
X003258Y015243D01*
X003100Y015086D01*
X003179Y014810D02*
X003376Y015007D01*
X003652Y015007D01*
X003879Y014713D02*
X004448Y014713D01*
X004371Y014790D02*
X003956Y014790D01*
X004006Y014867D02*
X004136Y014867D01*
X004059Y014944D02*
X004006Y014944D01*
X003801Y014635D02*
X004525Y014635D01*
X004603Y014558D02*
X003770Y014558D01*
X003770Y014481D02*
X004680Y014481D01*
X004757Y014404D02*
X003770Y014404D01*
X003770Y014326D02*
X004834Y014326D01*
X004912Y014249D02*
X003770Y014249D01*
X003770Y014172D02*
X004989Y014172D01*
X005066Y014095D02*
X003770Y014095D01*
X003770Y014017D02*
X005143Y014017D01*
X005221Y013940D02*
X003770Y013940D01*
X003770Y013863D02*
X005298Y013863D01*
X005375Y013786D02*
X003770Y013786D01*
X003770Y013708D02*
X005452Y013708D01*
X005530Y013631D02*
X003770Y013631D01*
X003770Y013554D02*
X005607Y013554D01*
X005684Y013477D02*
X003770Y013477D01*
X003770Y013399D02*
X005761Y013399D01*
X005839Y013322D02*
X003770Y013322D01*
X003770Y013245D02*
X005916Y013245D01*
X005953Y013168D02*
X003770Y013168D01*
X003770Y013091D02*
X005442Y013091D01*
X005641Y013091D02*
X005953Y013091D01*
X005966Y013013D02*
X005718Y013013D01*
X005760Y012936D02*
X005994Y012936D01*
X005994Y012859D02*
X005760Y012859D01*
X005751Y012782D02*
X005994Y012782D01*
X005994Y012704D02*
X005674Y012704D01*
X005994Y012627D02*
X004396Y012627D01*
X004319Y012550D02*
X005994Y012550D01*
X005994Y012473D02*
X004242Y012473D01*
X004165Y012395D02*
X005994Y012395D01*
X005994Y012318D02*
X004106Y012318D01*
X004068Y012241D02*
X005994Y012241D01*
X005951Y012164D02*
X003991Y012164D01*
X003784Y012164D02*
X003770Y012164D01*
X003770Y012086D02*
X005874Y012086D01*
X005797Y012009D02*
X003770Y012009D01*
X003770Y011932D02*
X005720Y011932D01*
X005643Y011855D02*
X003770Y011855D01*
X003770Y011777D02*
X005565Y011777D01*
X005488Y011700D02*
X003770Y011700D01*
X003770Y011623D02*
X005411Y011623D01*
X005334Y011546D02*
X003770Y011546D01*
X003770Y011468D02*
X005256Y011468D01*
X005179Y011391D02*
X003770Y011391D01*
X003770Y011314D02*
X005102Y011314D01*
X005025Y011237D02*
X003770Y011237D01*
X003770Y011160D02*
X004889Y011160D01*
X004812Y011082D02*
X003770Y011082D01*
X003770Y011005D02*
X004811Y011005D01*
X004811Y010928D02*
X003770Y010928D01*
X003770Y010851D02*
X004861Y010851D01*
X004938Y010773D02*
X003770Y010773D01*
X003770Y010696D02*
X005166Y010696D01*
X005121Y010773D02*
X005244Y010773D01*
X005198Y010851D02*
X005322Y010851D01*
X005248Y010928D02*
X005401Y010928D01*
X005479Y011005D02*
X005294Y011005D01*
X005371Y011082D02*
X005557Y011082D01*
X005635Y011160D02*
X005448Y011160D01*
X005526Y011237D02*
X005714Y011237D01*
X005792Y011314D02*
X005603Y011314D01*
X005680Y011391D02*
X005870Y011391D01*
X005948Y011468D02*
X005757Y011468D01*
X005835Y011546D02*
X006027Y011546D01*
X006105Y011623D02*
X005912Y011623D01*
X005989Y011700D02*
X006183Y011700D01*
X006261Y011777D02*
X006066Y011777D01*
X006144Y011855D02*
X006340Y011855D01*
X006418Y011932D02*
X006221Y011932D01*
X006298Y012009D02*
X006496Y012009D01*
X006574Y012086D02*
X006348Y012086D01*
X006348Y012164D02*
X006653Y012164D01*
X006731Y012241D02*
X006348Y012241D01*
X006348Y012318D02*
X006809Y012318D01*
X006887Y012395D02*
X006348Y012395D01*
X006348Y012473D02*
X007029Y012473D01*
X007037Y012015D02*
X006919Y012015D01*
X004754Y009849D01*
X004085Y009849D01*
X003927Y009692D01*
X003691Y009692D01*
X003533Y009849D01*
X003494Y009889D01*
X003494Y014613D01*
X003415Y014692D01*
X003179Y014574D02*
X003337Y014416D01*
X003337Y009968D01*
X003219Y009849D01*
X003219Y009771D01*
X003455Y009534D01*
X004006Y009534D01*
X004163Y009692D01*
X004892Y009692D01*
X006860Y011749D01*
X006890Y011779D01*
X007274Y011779D01*
X007037Y012015D02*
X006998Y012015D01*
X006949Y011306D02*
X005020Y009377D01*
X004321Y009377D01*
X004163Y009219D01*
X003219Y009219D01*
X002825Y009613D01*
X002825Y010046D01*
X003022Y010243D01*
X003022Y014219D01*
X002313Y014928D01*
X002313Y015637D01*
X002161Y015794D02*
X001743Y015794D01*
X001743Y015871D02*
X002261Y015871D01*
X002184Y015948D02*
X001743Y015948D01*
X001743Y016026D02*
X002107Y016026D01*
X002029Y016103D02*
X001743Y016103D01*
X001743Y016180D02*
X001952Y016180D01*
X001900Y016257D02*
X001743Y016257D01*
X001743Y016335D02*
X001900Y016335D01*
X001900Y016412D02*
X001743Y016412D01*
X001743Y016489D02*
X001900Y016489D01*
X001900Y016566D02*
X001743Y016566D01*
X001743Y016644D02*
X001900Y016644D01*
X001900Y016721D02*
X001743Y016721D01*
X001743Y016798D02*
X001900Y016798D01*
X001900Y016875D02*
X001743Y016875D01*
X001743Y016953D02*
X001900Y016953D01*
X001900Y017030D02*
X001743Y017030D01*
X001743Y017107D02*
X001900Y017107D01*
X001900Y017184D02*
X001743Y017184D01*
X001743Y017261D02*
X001900Y017261D01*
X001877Y017339D02*
X001743Y017339D01*
X001743Y017416D02*
X001858Y017416D01*
X001858Y017493D02*
X001743Y017493D01*
X001743Y017570D02*
X001891Y017570D01*
X001968Y017648D02*
X001743Y017648D01*
X001743Y017725D02*
X005187Y017725D01*
X005187Y017802D02*
X001743Y017802D01*
X001743Y017879D02*
X005187Y017879D01*
X005187Y017957D02*
X001743Y017957D01*
X001743Y018034D02*
X005187Y018034D01*
X005187Y018111D02*
X001743Y018111D01*
X001743Y018188D02*
X005187Y018188D01*
X005187Y018266D02*
X001743Y018266D01*
X001743Y018343D02*
X005187Y018343D01*
X005187Y018420D02*
X001743Y018420D01*
X001743Y018497D02*
X005187Y018497D01*
X005187Y018575D02*
X001743Y018575D01*
X001743Y018652D02*
X005187Y018652D01*
X005187Y018729D02*
X001743Y018729D01*
X001743Y018806D02*
X005187Y018806D01*
X005187Y018884D02*
X001743Y018884D01*
X001743Y018961D02*
X005187Y018961D01*
X005187Y019038D02*
X001743Y019038D01*
X001743Y019115D02*
X005187Y019115D01*
X005187Y019193D02*
X001743Y019193D01*
X001743Y019270D02*
X005187Y019270D01*
X005187Y019347D02*
X001743Y019347D01*
X001743Y019424D02*
X005187Y019424D01*
X005187Y019501D02*
X001743Y019501D01*
X001743Y019579D02*
X005187Y019579D01*
X005187Y019656D02*
X001743Y019656D01*
X001743Y019733D02*
X005187Y019733D01*
X005187Y019810D02*
X001743Y019810D01*
X001743Y019888D02*
X005187Y019888D01*
X005187Y019965D02*
X001743Y019965D01*
X001743Y020042D02*
X005187Y020042D01*
X005187Y020119D02*
X001743Y020119D01*
X001743Y020197D02*
X005187Y020197D01*
X005187Y020274D02*
X001743Y020274D01*
X001743Y020351D02*
X005187Y020351D01*
X005187Y020428D02*
X001743Y020428D01*
X001743Y020506D02*
X005187Y020506D01*
X005187Y020583D02*
X001743Y020583D01*
X001743Y020660D02*
X005187Y020660D01*
X005187Y020737D02*
X001743Y020737D01*
X001743Y020815D02*
X005187Y020815D01*
X005187Y020892D02*
X001743Y020892D01*
X001743Y020969D02*
X005187Y020969D01*
X005187Y021046D02*
X001743Y021046D01*
X001743Y021124D02*
X005187Y021124D01*
X006998Y018188D02*
X008022Y018188D01*
X008022Y018146D02*
X008022Y018241D01*
X007921Y018342D01*
X007921Y018523D01*
X008049Y018651D01*
X008230Y018651D01*
X008358Y018523D01*
X008358Y018342D01*
X008258Y018241D01*
X008258Y018049D01*
X008100Y017891D01*
X008100Y017324D01*
X008201Y017223D01*
X008201Y017042D01*
X008153Y016995D01*
X008657Y016995D01*
X009616Y017954D01*
X009720Y018058D01*
X010335Y018058D01*
X010335Y018071D01*
X010381Y018117D01*
X010676Y018117D01*
X010699Y018095D01*
X010721Y018117D01*
X011016Y018117D01*
X011063Y018071D01*
X011063Y018058D01*
X011447Y018058D01*
X011447Y019928D01*
X010847Y019928D01*
X010671Y020103D01*
X010530Y020103D01*
X010402Y020231D01*
X010402Y020412D01*
X010530Y020540D01*
X010711Y020540D01*
X010839Y020412D01*
X010839Y020270D01*
X010945Y020164D01*
X011177Y020164D01*
X011145Y020178D01*
X011019Y020304D01*
X010951Y020469D01*
X010951Y020647D01*
X011019Y020812D01*
X011145Y020938D01*
X011310Y021007D01*
X011489Y021007D01*
X011654Y020938D01*
X011780Y020812D01*
X011848Y020647D01*
X011848Y020469D01*
X011780Y020304D01*
X011654Y020178D01*
X011622Y020164D01*
X012177Y020164D01*
X012145Y020178D01*
X012019Y020304D01*
X011951Y020469D01*
X011951Y020647D01*
X012019Y020812D01*
X012145Y020938D01*
X012310Y021007D01*
X012489Y021007D01*
X012654Y020938D01*
X012780Y020812D01*
X012848Y020647D01*
X012848Y020469D01*
X012780Y020304D01*
X012654Y020178D01*
X012622Y020164D01*
X013075Y020164D01*
X013068Y020170D01*
X013011Y020226D01*
X012964Y020291D01*
X012928Y020363D01*
X012903Y020439D01*
X012890Y020518D01*
X012890Y020519D01*
X013360Y020519D01*
X013360Y020597D01*
X012890Y020597D01*
X012890Y020598D01*
X012903Y020677D01*
X012928Y020754D01*
X012964Y020825D01*
X013011Y020890D01*
X013068Y020947D01*
X013133Y020994D01*
X013204Y021030D01*
X013280Y021055D01*
X013360Y021067D01*
X013360Y021067D01*
X013360Y020597D01*
X013439Y020597D01*
X013909Y020597D01*
X013909Y020598D01*
X013896Y020677D01*
X013872Y020754D01*
X013835Y020825D01*
X013788Y020890D01*
X013731Y020947D01*
X013667Y020994D01*
X013595Y021030D01*
X013519Y021055D01*
X013440Y021067D01*
X013439Y021067D01*
X013439Y020597D01*
X013439Y020519D01*
X013909Y020519D01*
X013909Y020518D01*
X013896Y020439D01*
X013872Y020363D01*
X013835Y020291D01*
X013788Y020226D01*
X013731Y020170D01*
X013724Y020164D01*
X013819Y020164D01*
X013888Y020095D01*
X014309Y019674D01*
X014451Y019674D01*
X014579Y019546D01*
X014579Y019365D01*
X014451Y019237D01*
X014270Y019237D01*
X014142Y019365D01*
X014142Y019507D01*
X013721Y019928D01*
X013573Y019928D01*
X013573Y017140D01*
X013527Y017094D01*
X011493Y017094D01*
X011447Y017140D01*
X011447Y017704D01*
X011063Y017704D01*
X011063Y017691D01*
X011016Y017645D01*
X010721Y017645D01*
X010699Y017667D01*
X010676Y017645D01*
X010381Y017645D01*
X010335Y017691D01*
X010335Y017704D01*
X009867Y017704D01*
X009416Y017253D01*
X009451Y017253D01*
X009579Y017125D01*
X009579Y016944D01*
X009500Y016865D01*
X009518Y016847D01*
X009518Y016552D01*
X009508Y016542D01*
X009518Y016532D01*
X009518Y016237D01*
X009508Y016227D01*
X009518Y016217D01*
X009518Y015922D01*
X009510Y015914D01*
X009579Y015845D01*
X009579Y015664D01*
X009451Y015536D01*
X009270Y015536D01*
X009142Y015664D01*
X009142Y015845D01*
X009163Y015867D01*
X009163Y015876D01*
X009091Y015876D01*
X009045Y015922D01*
X009045Y016194D01*
X009018Y016166D01*
X008837Y016166D01*
X008709Y016294D01*
X008709Y016475D01*
X008837Y016603D01*
X009018Y016603D01*
X009045Y016576D01*
X009045Y016847D01*
X009091Y016894D01*
X009163Y016894D01*
X009163Y016922D01*
X009142Y016944D01*
X009142Y016979D01*
X008804Y016641D01*
X007308Y016641D01*
X007138Y016471D01*
X007138Y016412D01*
X007010Y016285D01*
X006829Y016285D01*
X006701Y016412D01*
X006701Y016593D01*
X006829Y016721D01*
X006887Y016721D01*
X007057Y016891D01*
X007161Y016995D01*
X007811Y016995D01*
X007764Y017042D01*
X007764Y017223D01*
X007864Y017324D01*
X007864Y017989D01*
X008022Y018146D01*
X007986Y018111D02*
X006998Y018111D01*
X006998Y018034D02*
X007909Y018034D01*
X007864Y017957D02*
X006998Y017957D01*
X006998Y017879D02*
X007864Y017879D01*
X007864Y017802D02*
X006998Y017802D01*
X006998Y017725D02*
X007864Y017725D01*
X007864Y017648D02*
X006998Y017648D01*
X006998Y017570D02*
X007864Y017570D01*
X007864Y017493D02*
X006998Y017493D01*
X006998Y017416D02*
X007864Y017416D01*
X007864Y017339D02*
X002277Y017339D01*
X002295Y017416D02*
X005187Y017416D01*
X005187Y017493D02*
X002295Y017493D01*
X002263Y017570D02*
X005187Y017570D01*
X005187Y017648D02*
X002186Y017648D01*
X002254Y017261D02*
X007802Y017261D01*
X007764Y017184D02*
X002254Y017184D01*
X002254Y017107D02*
X004144Y017107D01*
X004066Y017030D02*
X002254Y017030D01*
X002254Y016953D02*
X004063Y016953D01*
X004063Y016875D02*
X002254Y016875D01*
X002254Y016798D02*
X004111Y016798D01*
X004188Y016721D02*
X002254Y016721D01*
X002254Y016644D02*
X004407Y016644D01*
X004484Y016566D02*
X002254Y016566D01*
X002254Y016489D02*
X004561Y016489D01*
X004639Y016412D02*
X002254Y016412D01*
X002299Y016335D02*
X005403Y016335D01*
X005326Y016257D02*
X002376Y016257D01*
X002453Y016180D02*
X005106Y016180D01*
X005029Y016103D02*
X002531Y016103D01*
X002608Y016026D02*
X005008Y016026D01*
X005008Y015948D02*
X002803Y015948D01*
X002880Y015871D02*
X005037Y015871D01*
X005115Y015794D02*
X004375Y015794D01*
X004452Y015717D02*
X005763Y015717D01*
X005697Y015794D02*
X005338Y015794D01*
X005415Y015871D02*
X005697Y015871D01*
X005697Y015948D02*
X005445Y015948D01*
X005445Y016026D02*
X005759Y016026D01*
X005582Y016180D02*
X006051Y016180D01*
X005992Y016103D02*
X005505Y016103D01*
X005541Y016306D02*
X005226Y015991D01*
X005541Y016306D02*
X006289Y016306D01*
X006604Y015991D01*
X006604Y014849D01*
X006919Y014534D01*
X007138Y014558D02*
X011146Y014558D01*
X011211Y014623D02*
X010868Y014280D01*
X010726Y014280D01*
X010599Y014152D01*
X010599Y013972D01*
X010726Y013844D01*
X010907Y013844D01*
X011035Y013972D01*
X011035Y014113D01*
X011378Y014456D01*
X011689Y014456D01*
X011789Y014355D01*
X011970Y014355D01*
X012098Y014483D01*
X012098Y014664D01*
X011970Y014792D01*
X011789Y014792D01*
X011689Y014692D01*
X011280Y014692D01*
X011211Y014623D01*
X011223Y014635D02*
X007127Y014635D01*
X007091Y014713D02*
X011710Y014713D01*
X011787Y014790D02*
X007523Y014790D01*
X007600Y014867D02*
X013039Y014867D01*
X013039Y014790D02*
X011973Y014790D01*
X012050Y014713D02*
X013086Y014713D01*
X013163Y014635D02*
X012098Y014635D01*
X012098Y014558D02*
X015009Y014558D01*
X015009Y014481D02*
X012096Y014481D01*
X012019Y014404D02*
X015009Y014404D01*
X015009Y014326D02*
X011248Y014326D01*
X011171Y014249D02*
X011679Y014249D01*
X011602Y014172D02*
X011094Y014172D01*
X011035Y014095D02*
X011563Y014095D01*
X011506Y014017D02*
X011035Y014017D01*
X011004Y013940D02*
X011429Y013940D01*
X011352Y013863D02*
X010927Y013863D01*
X010707Y013863D02*
X010519Y013863D01*
X010596Y013786D02*
X011274Y013786D01*
X011197Y013708D02*
X010673Y013708D01*
X010750Y013631D02*
X011120Y013631D01*
X010817Y014062D02*
X011329Y014574D01*
X011880Y014574D01*
X011741Y014404D02*
X011326Y014404D01*
X011069Y014481D02*
X007138Y014481D01*
X007097Y014404D02*
X010992Y014404D01*
X010914Y014326D02*
X007020Y014326D01*
X007120Y014249D02*
X010695Y014249D01*
X010618Y014172D02*
X007197Y014172D01*
X007216Y014095D02*
X010599Y014095D01*
X010599Y014017D02*
X007216Y014017D01*
X007185Y013940D02*
X007788Y013940D01*
X008019Y013940D02*
X009441Y013940D01*
X009673Y013940D02*
X010630Y013940D01*
X010326Y013554D02*
X009720Y013554D01*
X009798Y013477D02*
X010404Y013477D01*
X010481Y013399D02*
X009875Y013399D01*
X009952Y013322D02*
X010558Y013322D01*
X010069Y013038D02*
X009596Y013511D01*
X006053Y013511D01*
X004360Y015204D01*
X004282Y015204D01*
X004529Y015639D02*
X006152Y015639D01*
X006152Y015562D02*
X004665Y015562D01*
X004742Y015485D02*
X006152Y015485D01*
X006152Y015408D02*
X004776Y015408D01*
X004838Y015330D02*
X006152Y015330D01*
X006152Y015253D02*
X004916Y015253D01*
X004993Y015176D02*
X006152Y015176D01*
X006152Y015099D02*
X005070Y015099D01*
X005147Y015022D02*
X006152Y015022D01*
X006152Y014944D02*
X005283Y014944D01*
X005360Y014867D02*
X006152Y014867D01*
X006152Y014790D02*
X005405Y014790D01*
X005456Y014713D02*
X006152Y014713D01*
X006152Y014635D02*
X005534Y014635D01*
X005611Y014558D02*
X006152Y014558D01*
X006152Y014481D02*
X005688Y014481D01*
X005765Y014404D02*
X006152Y014404D01*
X006152Y014326D02*
X005843Y014326D01*
X005920Y014249D02*
X006152Y014249D01*
X006130Y014172D02*
X005997Y014172D01*
X006074Y014095D02*
X006110Y014095D01*
X006506Y014249D02*
X006876Y014249D01*
X006818Y014326D02*
X006506Y014326D01*
X006506Y014404D02*
X006741Y014404D01*
X006701Y014481D02*
X006506Y014481D01*
X006506Y014558D02*
X006701Y014558D01*
X006651Y014635D02*
X006506Y014635D01*
X006506Y014713D02*
X006574Y014713D01*
X006919Y014849D02*
X006998Y014928D01*
X006998Y015322D01*
X007116Y015099D02*
X007116Y015099D01*
X007116Y015022D02*
X007171Y015022D01*
X007173Y014944D02*
X007133Y014944D01*
X007138Y014867D02*
X007183Y014867D01*
X007138Y014790D02*
X007261Y014790D01*
X007392Y014968D02*
X007234Y015125D01*
X007234Y015597D01*
X006368Y016464D01*
X004754Y016464D01*
X004282Y016936D01*
X004500Y016953D02*
X007118Y016953D01*
X007041Y016875D02*
X004509Y016875D01*
X004587Y016798D02*
X006964Y016798D01*
X006828Y016721D02*
X004664Y016721D01*
X004741Y016644D02*
X006751Y016644D01*
X006701Y016566D02*
X006432Y016566D01*
X006510Y016489D02*
X006701Y016489D01*
X006702Y016412D02*
X006587Y016412D01*
X006664Y016335D02*
X006779Y016335D01*
X006741Y016257D02*
X008746Y016257D01*
X008709Y016335D02*
X007060Y016335D01*
X007137Y016412D02*
X008709Y016412D01*
X008723Y016489D02*
X007156Y016489D01*
X007233Y016566D02*
X008800Y016566D01*
X008807Y016644D02*
X009045Y016644D01*
X009045Y016721D02*
X008884Y016721D01*
X008961Y016798D02*
X009045Y016798D01*
X009038Y016875D02*
X009073Y016875D01*
X009115Y016953D02*
X009142Y016953D01*
X009282Y016956D02*
X009282Y016700D01*
X009282Y016956D02*
X009360Y017034D01*
X009510Y016875D02*
X014695Y016875D01*
X014695Y016798D02*
X009518Y016798D01*
X009518Y016721D02*
X014695Y016721D01*
X014695Y016644D02*
X009518Y016644D01*
X009518Y016566D02*
X014695Y016566D01*
X014695Y016489D02*
X009518Y016489D01*
X009518Y016412D02*
X014695Y016412D01*
X014695Y016335D02*
X009518Y016335D01*
X009518Y016257D02*
X014695Y016257D01*
X014695Y016180D02*
X009518Y016180D01*
X009518Y016103D02*
X014695Y016103D01*
X014695Y016026D02*
X009518Y016026D01*
X009518Y015948D02*
X014106Y015948D01*
X014029Y015871D02*
X009553Y015871D01*
X009579Y015794D02*
X013952Y015794D01*
X013875Y015717D02*
X009579Y015717D01*
X009554Y015639D02*
X013797Y015639D01*
X013720Y015562D02*
X009476Y015562D01*
X009360Y015755D02*
X009282Y015834D01*
X009282Y016070D01*
X009163Y015871D02*
X008752Y015871D01*
X008752Y015794D02*
X009142Y015794D01*
X009142Y015717D02*
X008686Y015717D01*
X008533Y015873D02*
X007982Y015873D01*
X007470Y015361D01*
X007594Y015176D02*
X013334Y015176D01*
X013411Y015253D02*
X007671Y015253D01*
X007689Y015330D02*
X013488Y015330D01*
X013566Y015408D02*
X007689Y015408D01*
X007761Y015485D02*
X013643Y015485D01*
X013835Y015176D02*
X015009Y015176D01*
X015009Y015099D02*
X013758Y015099D01*
X013681Y015022D02*
X015009Y015022D01*
X015009Y014944D02*
X013603Y014944D01*
X013526Y014867D02*
X015009Y014867D01*
X015009Y014790D02*
X013476Y014790D01*
X013430Y014713D02*
X015009Y014713D01*
X015009Y014635D02*
X013353Y014635D01*
X013044Y014944D02*
X007610Y014944D01*
X007610Y015022D02*
X013121Y015022D01*
X013257Y015099D02*
X007569Y015099D01*
X007363Y015562D02*
X007352Y015562D01*
X007352Y015639D02*
X007582Y015639D01*
X007659Y015717D02*
X007282Y015717D01*
X007205Y015794D02*
X007736Y015794D01*
X007813Y015871D02*
X007128Y015871D01*
X007050Y015948D02*
X007891Y015948D01*
X007993Y015717D02*
X008381Y015717D01*
X008377Y016026D02*
X006973Y016026D01*
X006896Y016103D02*
X009045Y016103D01*
X009045Y016180D02*
X009031Y016180D01*
X009045Y016026D02*
X008690Y016026D01*
X008752Y015948D02*
X009045Y015948D01*
X009167Y015639D02*
X007916Y015639D01*
X007839Y015562D02*
X009244Y015562D01*
X008823Y016180D02*
X006819Y016180D01*
X006152Y015794D02*
X006134Y015794D01*
X006152Y015717D02*
X006068Y015717D01*
X004497Y017030D02*
X007776Y017030D01*
X007764Y017107D02*
X004419Y017107D01*
X002884Y015868D02*
X002884Y015868D01*
X002156Y015485D02*
X001743Y015485D01*
X001743Y015562D02*
X002095Y015562D01*
X002095Y015639D02*
X001743Y015639D01*
X001743Y015717D02*
X002095Y015717D01*
X002195Y015408D02*
X001743Y015408D01*
X001743Y015330D02*
X002195Y015330D01*
X002195Y015253D02*
X001743Y015253D01*
X001743Y015176D02*
X002195Y015176D01*
X002195Y015099D02*
X001743Y015099D01*
X001743Y015022D02*
X002195Y015022D01*
X002195Y014944D02*
X001743Y014944D01*
X001743Y014867D02*
X002207Y014867D01*
X002284Y014790D02*
X001743Y014790D01*
X001743Y014713D02*
X002362Y014713D01*
X002439Y014635D02*
X001743Y014635D01*
X001743Y014558D02*
X002516Y014558D01*
X002593Y014481D02*
X001743Y014481D01*
X001743Y014404D02*
X002671Y014404D01*
X002748Y014326D02*
X001743Y014326D01*
X001743Y014249D02*
X002825Y014249D01*
X002902Y014172D02*
X002698Y014172D01*
X002775Y014095D02*
X002904Y014095D01*
X002904Y014017D02*
X002785Y014017D01*
X002785Y013940D02*
X002904Y013940D01*
X002904Y013863D02*
X002785Y013863D01*
X002785Y013786D02*
X002904Y013786D01*
X002904Y013708D02*
X002785Y013708D01*
X002785Y013631D02*
X002904Y013631D01*
X002904Y013554D02*
X002785Y013554D01*
X002785Y013477D02*
X002904Y013477D01*
X002904Y013399D02*
X002785Y013399D01*
X002785Y013322D02*
X002904Y013322D01*
X002904Y013245D02*
X002785Y013245D01*
X002785Y013168D02*
X002904Y013168D01*
X002904Y013091D02*
X002785Y013091D01*
X002785Y013013D02*
X002904Y013013D01*
X002904Y012936D02*
X002785Y012936D01*
X002785Y012859D02*
X002904Y012859D01*
X002904Y012782D02*
X002785Y012782D01*
X002785Y012704D02*
X002904Y012704D01*
X002904Y012627D02*
X002785Y012627D01*
X002713Y012550D02*
X002904Y012550D01*
X002904Y012473D02*
X001743Y012473D01*
X001743Y012550D02*
X001755Y012550D01*
X001743Y012395D02*
X002904Y012395D01*
X002904Y012318D02*
X001743Y012318D01*
X001743Y012241D02*
X002904Y012241D01*
X002904Y012164D02*
X001743Y012164D01*
X001743Y012086D02*
X002904Y012086D01*
X002904Y012009D02*
X002746Y012009D01*
X002807Y011932D02*
X002904Y011932D01*
X002904Y011855D02*
X002807Y011855D01*
X002807Y011777D02*
X002904Y011777D01*
X002904Y011700D02*
X002740Y011700D01*
X002707Y011623D02*
X002904Y011623D01*
X002904Y011546D02*
X002707Y011546D01*
X002711Y011468D02*
X002904Y011468D01*
X002904Y011391D02*
X002789Y011391D01*
X002866Y011314D02*
X002904Y011314D01*
X002904Y011237D02*
X002904Y011237D01*
X002904Y011160D02*
X002904Y011160D01*
X002904Y011082D02*
X002904Y011082D01*
X002904Y011005D02*
X002904Y011005D01*
X002904Y010928D02*
X002904Y010928D01*
X002904Y010851D02*
X002904Y010851D01*
X002904Y010773D02*
X002904Y010773D01*
X002904Y010749D02*
X002904Y010749D01*
X002785Y010578D02*
X002785Y011227D01*
X002589Y011424D01*
X002589Y011857D01*
X002437Y011700D02*
X001743Y011700D01*
X001743Y011623D02*
X002470Y011623D01*
X002470Y011546D02*
X001743Y011546D01*
X001743Y011468D02*
X002470Y011468D01*
X002470Y011391D02*
X001743Y011391D01*
X001743Y011314D02*
X002445Y011314D01*
X002368Y011237D02*
X001743Y011237D01*
X001743Y011160D02*
X002331Y011160D01*
X002293Y011082D02*
X001743Y011082D01*
X001743Y011005D02*
X002293Y011005D01*
X002293Y010928D02*
X001743Y010928D01*
X001743Y010851D02*
X002293Y010851D01*
X002293Y010773D02*
X001743Y010773D01*
X001743Y010696D02*
X002293Y010696D01*
X002293Y010619D02*
X001743Y010619D01*
X001743Y010542D02*
X002293Y010542D01*
X002293Y010464D02*
X001743Y010464D01*
X002103Y010387D02*
X002293Y010387D01*
X002350Y010310D02*
X002116Y010310D01*
X002116Y010233D02*
X002352Y010233D01*
X002352Y010155D02*
X002116Y010155D01*
X002116Y010078D02*
X002352Y010078D01*
X002352Y010001D02*
X002116Y010001D01*
X002116Y009924D02*
X002352Y009924D01*
X002352Y009846D02*
X002116Y009846D01*
X002088Y009769D02*
X002380Y009769D01*
X002707Y009692D02*
X001998Y009692D01*
X001998Y009615D02*
X002707Y009615D01*
X002734Y009537D02*
X001998Y009537D01*
X001998Y009460D02*
X002811Y009460D01*
X002888Y009383D02*
X001998Y009383D01*
X001998Y009306D02*
X002705Y009306D01*
X002627Y009228D02*
X001998Y009228D01*
X001998Y009151D02*
X002408Y009151D01*
X002331Y008920D02*
X001998Y008920D01*
X002864Y008983D02*
X002943Y008905D01*
X004321Y008905D01*
X004478Y009062D01*
X004675Y009062D01*
X004793Y008944D01*
X004793Y008196D01*
X005148Y007842D01*
X005699Y007842D01*
X005778Y007920D01*
X006132Y007920D01*
X006880Y008668D01*
X007352Y008668D01*
X007234Y008944D02*
X006919Y008944D01*
X006053Y008078D01*
X005699Y008078D01*
X005620Y007999D01*
X005305Y007999D01*
X005226Y008078D01*
X005064Y008224D02*
X004932Y008224D01*
X004911Y008245D02*
X004911Y008993D01*
X004842Y009062D01*
X004803Y009101D01*
X005157Y009101D01*
X006947Y010891D01*
X006986Y010851D01*
X007006Y010851D01*
X006988Y010834D01*
X006919Y010764D01*
X006919Y010273D01*
X007439Y009753D01*
X007262Y009753D01*
X007175Y009666D01*
X007175Y009685D01*
X007129Y009731D01*
X006906Y009731D01*
X006874Y009699D01*
X006872Y009706D01*
X006854Y009738D01*
X006828Y009764D01*
X006796Y009782D01*
X006760Y009792D01*
X006663Y009792D01*
X006566Y009792D01*
X006531Y009782D01*
X006499Y009764D01*
X006473Y009738D01*
X006455Y009706D01*
X006445Y009671D01*
X006445Y009534D01*
X006445Y009398D01*
X006455Y009363D01*
X006473Y009331D01*
X006499Y009305D01*
X006531Y009286D01*
X006566Y009277D01*
X006663Y009277D01*
X006663Y009534D01*
X006663Y009534D01*
X006445Y009534D01*
X006663Y009534D01*
X006663Y009534D01*
X006663Y009277D01*
X006760Y009277D01*
X006796Y009286D01*
X006828Y009305D01*
X006854Y009331D01*
X006872Y009363D01*
X006874Y009370D01*
X006906Y009338D01*
X007129Y009338D01*
X007175Y009384D01*
X007175Y009403D01*
X007201Y009377D01*
X007162Y009338D01*
X006910Y009338D01*
X006841Y009268D01*
X005925Y008353D01*
X005693Y008353D01*
X005592Y008454D01*
X005412Y008454D01*
X005284Y008326D01*
X005284Y008296D01*
X005136Y008296D01*
X005008Y008168D01*
X005008Y008148D01*
X004911Y008245D01*
X004911Y008302D02*
X005284Y008302D01*
X005337Y008379D02*
X004911Y008379D01*
X004911Y008456D02*
X006028Y008456D01*
X005951Y008379D02*
X005667Y008379D01*
X005502Y008235D02*
X005974Y008235D01*
X006959Y009219D01*
X007352Y009219D01*
X007195Y009383D02*
X007174Y009383D01*
X007018Y009534D02*
X007352Y009534D01*
X007201Y009692D02*
X007168Y009692D01*
X007346Y009846D02*
X005902Y009846D01*
X005825Y009769D02*
X006508Y009769D01*
X006451Y009692D02*
X005748Y009692D01*
X005671Y009615D02*
X006445Y009615D01*
X006445Y009537D02*
X005593Y009537D01*
X005516Y009460D02*
X006445Y009460D01*
X006449Y009383D02*
X005439Y009383D01*
X005362Y009306D02*
X006498Y009306D01*
X006663Y009306D02*
X006663Y009306D01*
X006663Y009383D02*
X006663Y009383D01*
X006663Y009460D02*
X006663Y009460D01*
X006663Y009534D02*
X006663Y009792D01*
X006663Y009534D01*
X006663Y009534D01*
X006663Y009537D02*
X006663Y009537D01*
X006663Y009615D02*
X006663Y009615D01*
X006663Y009692D02*
X006663Y009692D01*
X006663Y009769D02*
X006663Y009769D01*
X006819Y009769D02*
X007423Y009769D01*
X007269Y009924D02*
X005979Y009924D01*
X006057Y010001D02*
X007191Y010001D01*
X007114Y010078D02*
X006134Y010078D01*
X006211Y010155D02*
X007037Y010155D01*
X006960Y010233D02*
X006288Y010233D01*
X006366Y010310D02*
X006919Y010310D01*
X006919Y010387D02*
X006443Y010387D01*
X006520Y010464D02*
X006919Y010464D01*
X006919Y010542D02*
X006597Y010542D01*
X006675Y010619D02*
X006919Y010619D01*
X006919Y010696D02*
X006752Y010696D01*
X006829Y010773D02*
X006928Y010773D01*
X006906Y010851D02*
X007005Y010851D01*
X006949Y011306D02*
X007392Y011306D01*
X006376Y013013D02*
X009494Y013013D01*
X009417Y013091D02*
X006390Y013091D01*
X006390Y013168D02*
X009339Y013168D01*
X009065Y010310D02*
X009065Y010310D01*
X009065Y010233D02*
X009065Y010233D01*
X009065Y010155D02*
X009065Y010155D01*
X009065Y010078D02*
X009065Y010078D01*
X009065Y010001D02*
X009065Y010001D01*
X009065Y009924D02*
X009065Y009924D01*
X009065Y009889D02*
X009065Y009631D01*
X009065Y009889D01*
X009065Y009889D01*
X009065Y009846D02*
X009065Y009846D01*
X009065Y009769D02*
X009065Y009769D01*
X009065Y009692D02*
X009065Y009692D01*
X009248Y009228D02*
X007864Y009228D01*
X007864Y009151D02*
X009213Y009151D01*
X009213Y009074D02*
X007864Y009074D01*
X007864Y008997D02*
X009213Y008997D01*
X009213Y008920D02*
X007864Y008920D01*
X007864Y008842D02*
X009213Y008842D01*
X009213Y008765D02*
X007864Y008765D01*
X007864Y008688D02*
X009213Y008688D01*
X009213Y008611D02*
X007864Y008611D01*
X007864Y008533D02*
X008418Y008533D01*
X008341Y008456D02*
X007864Y008456D01*
X007864Y008379D02*
X008264Y008379D01*
X008084Y008302D02*
X007861Y008302D01*
X007784Y008224D02*
X008007Y008224D01*
X007990Y008147D02*
X007707Y008147D01*
X007630Y008070D02*
X007990Y008070D01*
X008024Y007993D02*
X007552Y007993D01*
X007587Y007915D02*
X008101Y007915D01*
X008276Y007838D02*
X007838Y007838D01*
X007915Y007761D02*
X008276Y007761D01*
X008323Y007684D02*
X007992Y007684D01*
X008069Y007606D02*
X008401Y007606D01*
X008588Y007606D02*
X009542Y007606D01*
X009620Y007529D02*
X008147Y007529D01*
X008100Y007408D02*
X009754Y007408D01*
X009990Y007645D01*
X011967Y007645D01*
X014282Y005322D01*
X014313Y005290D01*
X014400Y005290D01*
X014360Y004749D02*
X014439Y004749D01*
X014439Y004671D02*
X014360Y004671D01*
X014360Y004594D02*
X014439Y004594D01*
X014439Y004517D02*
X014360Y004517D01*
X014360Y004440D02*
X014439Y004440D01*
X014439Y004362D02*
X014360Y004362D01*
X014439Y004285D02*
X015009Y004285D01*
X015009Y004208D02*
X014902Y004208D01*
X014896Y004171D02*
X014909Y004250D01*
X014909Y004251D01*
X014439Y004251D01*
X014439Y003781D01*
X014440Y003781D01*
X014519Y003794D01*
X014595Y003818D01*
X014667Y003855D01*
X014731Y003902D01*
X014788Y003959D01*
X014835Y004023D01*
X014872Y004095D01*
X014896Y004171D01*
X014883Y004131D02*
X015009Y004131D01*
X015009Y004053D02*
X014851Y004053D01*
X014801Y003976D02*
X015009Y003976D01*
X015009Y003899D02*
X014727Y003899D01*
X014602Y003822D02*
X015009Y003822D01*
X015009Y004362D02*
X014904Y004362D01*
X014887Y004440D02*
X015009Y004440D01*
X015009Y004517D02*
X014856Y004517D01*
X014809Y004594D02*
X015009Y004594D01*
X015009Y004671D02*
X014739Y004671D01*
X014439Y004208D02*
X014360Y004208D01*
X014360Y004131D02*
X014439Y004131D01*
X014439Y004053D02*
X014360Y004053D01*
X014360Y003976D02*
X014439Y003976D01*
X014439Y003899D02*
X014360Y003899D01*
X014360Y003822D02*
X014439Y003822D01*
X014360Y003781D02*
X014360Y003781D01*
X014006Y003513D02*
X011258Y003513D01*
X011335Y003435D02*
X013974Y003435D01*
X013951Y003358D02*
X011412Y003358D01*
X011489Y003281D02*
X013951Y003281D01*
X013933Y003590D02*
X011180Y003590D01*
X011567Y003204D02*
X012783Y003204D01*
X012738Y003127D02*
X011805Y003127D01*
X011862Y003049D02*
X012735Y003049D01*
X012735Y002972D02*
X011862Y002972D01*
X011862Y002895D02*
X012735Y002895D01*
X012735Y002740D02*
X011681Y002740D01*
X011758Y002663D02*
X012735Y002663D01*
X012735Y002586D02*
X011835Y002586D01*
X011912Y002509D02*
X012746Y002509D01*
X011797Y002122D02*
X008221Y002122D01*
X008220Y002118D02*
X008230Y002154D01*
X008230Y002399D01*
X007835Y002399D01*
X007835Y002033D01*
X008109Y002033D01*
X008144Y002042D01*
X008176Y002061D01*
X008202Y002087D01*
X008220Y002118D01*
X008230Y002200D02*
X011720Y002200D01*
X011643Y002277D02*
X008230Y002277D01*
X008230Y002354D02*
X009204Y002354D01*
X009250Y002308D02*
X009431Y002308D01*
X009559Y002436D01*
X009559Y002617D01*
X009459Y002717D01*
X009459Y003596D01*
X009559Y003696D01*
X009559Y003877D01*
X009431Y004005D01*
X009250Y004005D01*
X009122Y003877D01*
X009122Y003696D01*
X009222Y003596D01*
X009222Y002717D01*
X009122Y002617D01*
X009122Y002436D01*
X009250Y002308D01*
X009127Y002431D02*
X007835Y002431D01*
X007835Y002354D02*
X007756Y002354D01*
X007756Y002277D02*
X007835Y002277D01*
X007835Y002200D02*
X007756Y002200D01*
X007756Y002122D02*
X007835Y002122D01*
X007835Y002045D02*
X007756Y002045D01*
X007756Y002431D02*
X004911Y002431D01*
X004793Y002330D02*
X004793Y003708D01*
X005226Y004141D01*
X005226Y004259D01*
X005226Y004456D01*
X006093Y005322D01*
X006093Y006582D01*
X006211Y006700D01*
X006211Y007290D01*
X006053Y007369D02*
X006841Y008156D01*
X007313Y008156D01*
X007213Y007838D02*
X006925Y007838D01*
X006848Y007761D02*
X007213Y007761D01*
X007213Y007684D02*
X006771Y007684D01*
X006694Y007606D02*
X007279Y007606D01*
X007449Y007529D02*
X006617Y007529D01*
X006539Y007452D02*
X007449Y007452D01*
X007471Y007375D02*
X006462Y007375D01*
X006550Y007220D02*
X007767Y007220D01*
X008100Y007408D02*
X007785Y007723D01*
X007470Y007723D01*
X007431Y007763D01*
X008209Y008117D02*
X008209Y008156D01*
X008484Y008432D01*
X009793Y008432D01*
X009872Y008511D01*
X009872Y008865D01*
X010305Y008511D02*
X010069Y008275D01*
X008809Y008275D01*
X008652Y008117D01*
X008671Y007822D02*
X008494Y007822D01*
X008671Y007822D02*
X008967Y008117D01*
X010778Y008117D01*
X011171Y008511D01*
X011171Y008865D01*
X011570Y008920D02*
X011639Y008920D01*
X011639Y008997D02*
X011570Y008997D01*
X011570Y009074D02*
X011639Y009074D01*
X011639Y009151D02*
X011570Y009151D01*
X011570Y009228D02*
X011639Y009228D01*
X012228Y009228D02*
X012280Y009228D01*
X012661Y009228D02*
X012747Y009228D01*
X012963Y009228D02*
X013041Y009228D01*
X013041Y009151D02*
X012963Y009151D01*
X012963Y009074D02*
X013041Y009074D01*
X013041Y008997D02*
X012963Y008997D01*
X012963Y008920D02*
X013041Y008920D01*
X013819Y009692D02*
X014197Y009692D01*
X014089Y009615D02*
X013896Y009615D01*
X013973Y009537D02*
X014016Y009537D01*
X014360Y009781D02*
X014360Y009781D01*
X014360Y009846D02*
X014439Y009846D01*
X014439Y009924D02*
X014360Y009924D01*
X014360Y010001D02*
X014439Y010001D01*
X014439Y010078D02*
X014360Y010078D01*
X014360Y010155D02*
X014439Y010155D01*
X014650Y009846D02*
X015009Y009846D01*
X015009Y009924D02*
X014753Y009924D01*
X014819Y010001D02*
X015009Y010001D01*
X015009Y010078D02*
X014863Y010078D01*
X014891Y010155D02*
X015009Y010155D01*
X015009Y010233D02*
X014906Y010233D01*
X013988Y011468D02*
X013745Y011468D01*
X013691Y011415D02*
X013691Y011415D01*
X013822Y011546D02*
X014020Y011546D01*
X014098Y011623D02*
X013899Y011623D01*
X013976Y011700D02*
X014216Y011700D01*
X014279Y011855D02*
X014131Y011855D01*
X014054Y011777D02*
X015009Y011777D01*
X014439Y012859D02*
X014360Y012859D01*
X014360Y012936D02*
X014439Y012936D01*
X014439Y013013D02*
X014360Y013013D01*
X014360Y013091D02*
X014439Y013091D01*
X014439Y013168D02*
X014360Y013168D01*
X014360Y013245D02*
X014439Y013245D01*
X014439Y013477D02*
X014360Y013477D01*
X014360Y013554D02*
X014439Y013554D01*
X014439Y013631D02*
X014360Y013631D01*
X014360Y013708D02*
X014439Y013708D01*
X014439Y013786D02*
X014360Y013786D01*
X014276Y013786D02*
X011775Y013786D01*
X011698Y013708D02*
X014108Y013708D01*
X014020Y013631D02*
X011621Y013631D01*
X011544Y013554D02*
X013962Y013554D01*
X013925Y013477D02*
X011466Y013477D01*
X011911Y013863D02*
X015009Y013863D01*
X015009Y013940D02*
X011988Y013940D01*
X012000Y014017D02*
X015009Y014017D01*
X015009Y014095D02*
X012000Y014095D01*
X011961Y014172D02*
X015009Y014172D01*
X015009Y014249D02*
X011884Y014249D01*
X013912Y015253D02*
X015009Y015253D01*
X015009Y015330D02*
X013990Y015330D01*
X014067Y015408D02*
X015009Y015408D01*
X015009Y015485D02*
X014144Y015485D01*
X014221Y015562D02*
X015009Y015562D01*
X015009Y015639D02*
X014810Y015639D01*
X014888Y015717D02*
X015009Y015717D01*
X015009Y015794D02*
X014965Y015794D01*
X014684Y016953D02*
X009579Y016953D01*
X009579Y017030D02*
X014606Y017030D01*
X014529Y017107D02*
X013540Y017107D01*
X013573Y017184D02*
X014452Y017184D01*
X014375Y017261D02*
X013573Y017261D01*
X013573Y017339D02*
X014298Y017339D01*
X014220Y017416D02*
X013573Y017416D01*
X013573Y017493D02*
X014183Y017493D01*
X014183Y017570D02*
X013573Y017570D01*
X013573Y017648D02*
X014183Y017648D01*
X014183Y017725D02*
X013573Y017725D01*
X013573Y017802D02*
X014183Y017802D01*
X014183Y017879D02*
X013573Y017879D01*
X013573Y017957D02*
X014183Y017957D01*
X014223Y018034D02*
X013573Y018034D01*
X013573Y018111D02*
X014301Y018111D01*
X014378Y018188D02*
X013573Y018188D01*
X013573Y018266D02*
X014417Y018266D01*
X014474Y018343D02*
X013573Y018343D01*
X013573Y018420D02*
X015009Y018420D01*
X015009Y018343D02*
X014798Y018343D01*
X014854Y018266D02*
X015009Y018266D01*
X015009Y018188D02*
X014854Y018188D01*
X014854Y018111D02*
X015009Y018111D01*
X015009Y018034D02*
X014783Y018034D01*
X014647Y017957D02*
X015009Y017957D01*
X015009Y017879D02*
X014570Y017879D01*
X014537Y017802D02*
X015009Y017802D01*
X015009Y017725D02*
X014537Y017725D01*
X014537Y017648D02*
X015009Y017648D01*
X015009Y017570D02*
X014567Y017570D01*
X014644Y017493D02*
X015009Y017493D01*
X015009Y017416D02*
X014721Y017416D01*
X014799Y017339D02*
X015009Y017339D01*
X015009Y017261D02*
X014876Y017261D01*
X014953Y017184D02*
X015009Y017184D01*
X015009Y018497D02*
X013573Y018497D01*
X013573Y018575D02*
X015009Y018575D01*
X015009Y018652D02*
X013573Y018652D01*
X013573Y018729D02*
X015009Y018729D01*
X015009Y018806D02*
X013573Y018806D01*
X013573Y018884D02*
X015009Y018884D01*
X015009Y018961D02*
X013573Y018961D01*
X013573Y019038D02*
X015009Y019038D01*
X015009Y019115D02*
X013573Y019115D01*
X013573Y019193D02*
X015009Y019193D01*
X015009Y019270D02*
X014483Y019270D01*
X014560Y019347D02*
X015009Y019347D01*
X015009Y019424D02*
X014579Y019424D01*
X014579Y019501D02*
X015009Y019501D01*
X015009Y019579D02*
X014546Y019579D01*
X014469Y019656D02*
X015009Y019656D01*
X015009Y019733D02*
X014250Y019733D01*
X014173Y019810D02*
X015009Y019810D01*
X015009Y019888D02*
X014095Y019888D01*
X014018Y019965D02*
X015009Y019965D01*
X015009Y020042D02*
X013941Y020042D01*
X013997Y020109D02*
X013951Y020155D01*
X013951Y020961D01*
X013997Y021007D01*
X014802Y021007D01*
X014848Y020961D01*
X014848Y020155D01*
X014802Y020109D01*
X013997Y020109D01*
X013987Y020119D02*
X013864Y020119D01*
X013951Y020197D02*
X013759Y020197D01*
X013823Y020274D02*
X013951Y020274D01*
X013951Y020351D02*
X013866Y020351D01*
X013893Y020428D02*
X013951Y020428D01*
X013951Y020506D02*
X013907Y020506D01*
X013951Y020583D02*
X013439Y020583D01*
X013439Y020660D02*
X013360Y020660D01*
X013360Y020583D02*
X012848Y020583D01*
X012843Y020660D02*
X012900Y020660D01*
X012922Y020737D02*
X012811Y020737D01*
X012778Y020815D02*
X012959Y020815D01*
X013013Y020892D02*
X012701Y020892D01*
X012580Y020969D02*
X013099Y020969D01*
X013254Y021046D02*
X007864Y021046D01*
X007864Y020969D02*
X011219Y020969D01*
X011099Y020892D02*
X007864Y020892D01*
X007864Y020815D02*
X011021Y020815D01*
X010988Y020737D02*
X007864Y020737D01*
X007864Y020660D02*
X010956Y020660D01*
X010951Y020583D02*
X007864Y020583D01*
X007864Y020506D02*
X010495Y020506D01*
X010418Y020428D02*
X007864Y020428D01*
X007864Y020351D02*
X010402Y020351D01*
X010402Y020274D02*
X007864Y020274D01*
X007864Y020197D02*
X010436Y020197D01*
X010514Y020119D02*
X007864Y020119D01*
X007864Y020042D02*
X010733Y020042D01*
X010810Y019965D02*
X007864Y019965D01*
X007864Y019888D02*
X011447Y019888D01*
X011447Y019810D02*
X007864Y019810D01*
X007864Y019733D02*
X011447Y019733D01*
X011447Y019656D02*
X007864Y019656D01*
X007864Y019579D02*
X011447Y019579D01*
X011447Y019501D02*
X007864Y019501D01*
X007864Y019424D02*
X011447Y019424D01*
X011447Y019347D02*
X007864Y019347D01*
X007864Y019270D02*
X011447Y019270D01*
X011447Y019193D02*
X007864Y019193D01*
X007864Y019115D02*
X011447Y019115D01*
X011447Y019038D02*
X007864Y019038D01*
X007864Y018961D02*
X011447Y018961D01*
X011447Y018884D02*
X007864Y018884D01*
X007864Y018806D02*
X011447Y018806D01*
X011447Y018729D02*
X007864Y018729D01*
X007864Y018652D02*
X011447Y018652D01*
X011447Y018575D02*
X008306Y018575D01*
X008358Y018497D02*
X011447Y018497D01*
X011447Y018420D02*
X008358Y018420D01*
X008358Y018343D02*
X011447Y018343D01*
X011447Y018266D02*
X008282Y018266D01*
X008258Y018188D02*
X011447Y018188D01*
X011447Y018111D02*
X011022Y018111D01*
X010715Y018111D02*
X010682Y018111D01*
X010375Y018111D02*
X008258Y018111D01*
X008243Y018034D02*
X009696Y018034D01*
X009619Y017957D02*
X008166Y017957D01*
X008100Y017879D02*
X009541Y017879D01*
X009464Y017802D02*
X008100Y017802D01*
X008100Y017725D02*
X009387Y017725D01*
X009310Y017648D02*
X008100Y017648D01*
X008100Y017570D02*
X009232Y017570D01*
X009155Y017493D02*
X008100Y017493D01*
X008100Y017416D02*
X009078Y017416D01*
X009001Y017339D02*
X008100Y017339D01*
X008163Y017261D02*
X008923Y017261D01*
X008846Y017184D02*
X008201Y017184D01*
X008201Y017107D02*
X008769Y017107D01*
X008692Y017030D02*
X008188Y017030D01*
X007982Y017133D02*
X007982Y017940D01*
X008140Y018097D01*
X008140Y018432D01*
X007997Y018266D02*
X007864Y018266D01*
X007864Y018343D02*
X007921Y018343D01*
X007921Y018420D02*
X007864Y018420D01*
X007864Y018497D02*
X007921Y018497D01*
X007973Y018575D02*
X007864Y018575D01*
X009424Y017261D02*
X011447Y017261D01*
X011447Y017184D02*
X009519Y017184D01*
X009579Y017107D02*
X011479Y017107D01*
X011447Y017339D02*
X009502Y017339D01*
X009579Y017416D02*
X011447Y017416D01*
X011447Y017493D02*
X009656Y017493D01*
X009733Y017570D02*
X011447Y017570D01*
X011447Y017648D02*
X011019Y017648D01*
X010718Y017648D02*
X010679Y017648D01*
X010378Y017648D02*
X009811Y017648D01*
X009282Y016385D02*
X008927Y016385D01*
X010896Y020046D02*
X010620Y020322D01*
X010745Y020506D02*
X010951Y020506D01*
X010968Y020428D02*
X010822Y020428D01*
X010839Y020351D02*
X011000Y020351D01*
X011049Y020274D02*
X010839Y020274D01*
X010912Y020197D02*
X011126Y020197D01*
X010896Y020046D02*
X013770Y020046D01*
X014360Y019456D01*
X014237Y019270D02*
X013573Y019270D01*
X013573Y019347D02*
X014160Y019347D01*
X014142Y019424D02*
X013573Y019424D01*
X013573Y019501D02*
X014142Y019501D01*
X014070Y019579D02*
X013573Y019579D01*
X013573Y019656D02*
X013993Y019656D01*
X013916Y019733D02*
X013573Y019733D01*
X013573Y019810D02*
X013838Y019810D01*
X013761Y019888D02*
X013573Y019888D01*
X013041Y020197D02*
X012673Y020197D01*
X012750Y020274D02*
X012976Y020274D01*
X012933Y020351D02*
X012800Y020351D01*
X012832Y020428D02*
X012906Y020428D01*
X012892Y020506D02*
X012848Y020506D01*
X013360Y020737D02*
X013439Y020737D01*
X013439Y020815D02*
X013360Y020815D01*
X013360Y020892D02*
X013439Y020892D01*
X013439Y020969D02*
X013360Y020969D01*
X013360Y021046D02*
X013439Y021046D01*
X013545Y021046D02*
X015009Y021046D01*
X015009Y020969D02*
X014840Y020969D01*
X014848Y020892D02*
X015009Y020892D01*
X015009Y020815D02*
X014848Y020815D01*
X014848Y020737D02*
X015009Y020737D01*
X015009Y020660D02*
X014848Y020660D01*
X014848Y020583D02*
X015009Y020583D01*
X015009Y020506D02*
X014848Y020506D01*
X014848Y020428D02*
X015009Y020428D01*
X015009Y020351D02*
X014848Y020351D01*
X014848Y020274D02*
X015009Y020274D01*
X015009Y020197D02*
X014848Y020197D01*
X014812Y020119D02*
X015009Y020119D01*
X015009Y021124D02*
X007864Y021124D01*
X011580Y020969D02*
X012219Y020969D01*
X012099Y020892D02*
X011701Y020892D01*
X011778Y020815D02*
X012021Y020815D01*
X011988Y020737D02*
X011811Y020737D01*
X011843Y020660D02*
X011956Y020660D01*
X011951Y020583D02*
X011848Y020583D01*
X011848Y020506D02*
X011951Y020506D01*
X011968Y020428D02*
X011832Y020428D01*
X011800Y020351D02*
X012000Y020351D01*
X012049Y020274D02*
X011750Y020274D01*
X011673Y020197D02*
X012126Y020197D01*
X013701Y020969D02*
X013959Y020969D01*
X013951Y020892D02*
X013786Y020892D01*
X013841Y020815D02*
X013951Y020815D01*
X013951Y020737D02*
X013877Y020737D01*
X013899Y020660D02*
X013951Y020660D01*
X014524Y013786D02*
X015009Y013786D01*
X015009Y013708D02*
X014691Y013708D01*
X014779Y013631D02*
X015009Y013631D01*
X015009Y013554D02*
X014837Y013554D01*
X014875Y013477D02*
X015009Y013477D01*
X015009Y013399D02*
X014898Y013399D01*
X010994Y009537D02*
X010994Y009537D01*
X010994Y009460D02*
X010994Y009460D01*
X010994Y009383D02*
X010994Y009383D01*
X010994Y009377D02*
X010994Y009377D01*
X010482Y009692D02*
X010447Y009692D01*
X010254Y009680D02*
X010221Y009713D01*
X010200Y009692D01*
X010207Y010078D02*
X010215Y010078D01*
X009970Y010078D02*
X009933Y010078D01*
X010474Y010078D02*
X010482Y010078D01*
X010305Y008865D02*
X010305Y008511D01*
X009053Y006757D02*
X006604Y006757D01*
X006604Y006834D02*
X008975Y006834D01*
X009130Y006680D02*
X006604Y006680D01*
X006604Y006602D02*
X009207Y006602D01*
X009284Y006525D02*
X006574Y006525D01*
X006732Y006448D02*
X009303Y006448D01*
X009381Y006371D02*
X007219Y006371D01*
X007116Y006306D02*
X006565Y006306D01*
X006053Y006779D02*
X006053Y007369D01*
X005935Y007375D02*
X004400Y007375D01*
X004400Y007452D02*
X005780Y007452D01*
X005717Y007529D02*
X004400Y007529D01*
X004400Y007536D02*
X003967Y007969D01*
X003897Y008038D01*
X003445Y008038D01*
X003366Y007960D01*
X003297Y007890D01*
X003297Y007536D01*
X003258Y007497D01*
X003258Y006733D01*
X003158Y006633D01*
X003158Y006452D01*
X003286Y006324D01*
X003466Y006324D01*
X003594Y006452D01*
X003594Y006633D01*
X003494Y006733D01*
X003494Y007399D01*
X003533Y007438D01*
X003533Y007793D01*
X003543Y007802D01*
X003800Y007802D01*
X004163Y007438D01*
X004163Y007245D01*
X004063Y007145D01*
X004063Y006964D01*
X004191Y006836D01*
X004372Y006836D01*
X004453Y006916D01*
X005173Y006916D01*
X005175Y006914D01*
X005356Y006914D01*
X005484Y007042D01*
X005484Y007223D01*
X005356Y007351D01*
X005175Y007351D01*
X005047Y007223D01*
X005047Y007192D01*
X004453Y007192D01*
X004400Y007245D01*
X004400Y007536D01*
X004329Y007606D02*
X004901Y007606D01*
X004824Y007684D02*
X004252Y007684D01*
X004175Y007761D02*
X004746Y007761D01*
X004669Y007838D02*
X004098Y007838D01*
X004020Y007915D02*
X004592Y007915D01*
X004515Y007993D02*
X003943Y007993D01*
X003848Y007920D02*
X003494Y007920D01*
X003415Y007842D01*
X003415Y007487D01*
X003376Y007448D01*
X003376Y006542D01*
X003594Y006525D02*
X005817Y006525D01*
X005817Y006448D02*
X003590Y006448D01*
X003513Y006371D02*
X005817Y006371D01*
X005817Y006293D02*
X001998Y006293D01*
X001998Y006216D02*
X005817Y006216D01*
X005817Y006139D02*
X001998Y006139D01*
X002158Y006062D02*
X005817Y006062D01*
X005817Y005984D02*
X002216Y005984D01*
X002216Y005907D02*
X005817Y005907D01*
X005817Y005830D02*
X002216Y005830D01*
X002147Y005753D02*
X005817Y005753D01*
X005935Y005401D02*
X005935Y006660D01*
X006053Y006779D01*
X005935Y006834D02*
X003494Y006834D01*
X003494Y006757D02*
X005864Y006757D01*
X005817Y006680D02*
X003548Y006680D01*
X003594Y006602D02*
X005817Y006602D01*
X005935Y006911D02*
X004448Y006911D01*
X004282Y007054D02*
X004282Y007487D01*
X003848Y007920D01*
X003841Y007761D02*
X003533Y007761D01*
X003533Y007684D02*
X003918Y007684D01*
X003995Y007606D02*
X003533Y007606D01*
X003533Y007529D02*
X004072Y007529D01*
X004150Y007452D02*
X003533Y007452D01*
X003494Y007375D02*
X004163Y007375D01*
X004163Y007297D02*
X003494Y007297D01*
X003494Y007220D02*
X004139Y007220D01*
X004063Y007143D02*
X003494Y007143D01*
X003494Y007066D02*
X004063Y007066D01*
X004063Y006989D02*
X003494Y006989D01*
X003494Y006911D02*
X004115Y006911D01*
X004400Y007297D02*
X005121Y007297D01*
X005047Y007220D02*
X004424Y007220D01*
X004283Y008224D02*
X002902Y008224D01*
X002979Y008302D02*
X004206Y008302D01*
X004830Y009074D02*
X006646Y009074D01*
X006569Y008997D02*
X004907Y008997D01*
X004911Y008920D02*
X006492Y008920D01*
X006414Y008842D02*
X004911Y008842D01*
X004911Y008765D02*
X006337Y008765D01*
X006260Y008688D02*
X004911Y008688D01*
X004911Y008611D02*
X006183Y008611D01*
X006105Y008533D02*
X004911Y008533D01*
X005207Y009151D02*
X006723Y009151D01*
X006801Y009228D02*
X005284Y009228D01*
X004618Y010155D02*
X003770Y010155D01*
X003770Y010233D02*
X004696Y010233D01*
X004775Y010310D02*
X003770Y010310D01*
X003770Y010387D02*
X004853Y010387D01*
X004931Y010464D02*
X003770Y010464D01*
X003770Y010542D02*
X005009Y010542D01*
X005088Y010619D02*
X003770Y010619D01*
X002785Y010578D02*
X002776Y010568D01*
X002370Y011777D02*
X001743Y011777D01*
X001743Y011855D02*
X002370Y011855D01*
X002370Y011932D02*
X001743Y011932D01*
X001743Y012009D02*
X002432Y012009D01*
X003770Y012627D02*
X003895Y012627D01*
X003972Y012704D02*
X003770Y012704D01*
X003770Y012782D02*
X004050Y012782D01*
X004127Y012859D02*
X003770Y012859D01*
X003770Y012936D02*
X004204Y012936D01*
X004281Y013013D02*
X003770Y013013D01*
X003179Y014574D02*
X003179Y014810D01*
X001770Y014172D02*
X001743Y014172D01*
X002825Y007993D02*
X003399Y007993D01*
X003322Y007915D02*
X002825Y007915D01*
X002825Y007838D02*
X003297Y007838D01*
X003297Y007761D02*
X002825Y007761D01*
X002825Y007684D02*
X003297Y007684D01*
X003297Y007606D02*
X002825Y007606D01*
X002825Y007529D02*
X003290Y007529D01*
X003258Y007452D02*
X002825Y007452D01*
X002892Y007375D02*
X003258Y007375D01*
X003258Y007297D02*
X002925Y007297D01*
X002925Y007220D02*
X003258Y007220D01*
X003258Y007143D02*
X002908Y007143D01*
X002830Y007066D02*
X003258Y007066D01*
X003258Y006989D02*
X001998Y006989D01*
X001998Y006911D02*
X003258Y006911D01*
X003258Y006834D02*
X001998Y006834D01*
X001998Y006757D02*
X003258Y006757D01*
X003204Y006680D02*
X001998Y006680D01*
X001998Y006602D02*
X003158Y006602D01*
X003158Y006525D02*
X001998Y006525D01*
X001998Y006448D02*
X003162Y006448D01*
X003239Y006371D02*
X001998Y006371D01*
X004911Y004377D02*
X004911Y004259D01*
X004911Y004377D02*
X005935Y005401D01*
X005817Y004826D02*
X005764Y004826D01*
X005817Y004749D02*
X005686Y004749D01*
X005609Y004671D02*
X005817Y004671D01*
X005817Y004594D02*
X005532Y004594D01*
X005455Y004517D02*
X005817Y004517D01*
X005817Y004440D02*
X005377Y004440D01*
X005432Y004362D02*
X005817Y004362D01*
X005817Y004285D02*
X005445Y004285D01*
X005445Y004208D02*
X005817Y004208D01*
X005817Y004131D02*
X005407Y004131D01*
X005330Y004053D02*
X005775Y004053D01*
X005756Y003976D02*
X005229Y003976D01*
X005152Y003899D02*
X005756Y003899D01*
X005788Y003822D02*
X005074Y003822D01*
X004997Y003744D02*
X005865Y003744D01*
X006762Y004180D02*
X007274Y003668D01*
X007274Y003196D01*
X007530Y002940D01*
X007748Y002972D02*
X009222Y002972D01*
X009222Y002895D02*
X007748Y002895D01*
X007756Y002818D02*
X007835Y002818D01*
X007835Y002740D02*
X007756Y002740D01*
X007756Y002663D02*
X007835Y002663D01*
X007835Y002586D02*
X007756Y002586D01*
X007756Y002509D02*
X007835Y002509D01*
X008230Y002509D02*
X009122Y002509D01*
X009122Y002586D02*
X008230Y002586D01*
X008230Y002663D02*
X009168Y002663D01*
X009222Y002740D02*
X008225Y002740D01*
X008172Y002818D02*
X009222Y002818D01*
X009222Y003049D02*
X007729Y003049D01*
X007680Y003127D02*
X007979Y003127D01*
X007902Y003204D02*
X007748Y003204D01*
X007748Y003281D02*
X007882Y003281D01*
X007882Y003358D02*
X007748Y003358D01*
X007687Y003435D02*
X007812Y003435D01*
X007735Y003513D02*
X007549Y003513D01*
X007549Y003590D02*
X007657Y003590D01*
X007589Y003667D02*
X007549Y003667D01*
X007549Y003744D02*
X007589Y003744D01*
X007589Y003822D02*
X007524Y003822D01*
X007589Y003899D02*
X007446Y003899D01*
X007369Y003976D02*
X007589Y003976D01*
X007589Y004053D02*
X007292Y004053D01*
X007295Y004131D02*
X007589Y004131D01*
X007589Y004208D02*
X007295Y004208D01*
X007281Y004285D02*
X007589Y004285D01*
X007589Y004362D02*
X007203Y004362D01*
X007077Y004180D02*
X007077Y004101D01*
X007431Y003747D01*
X007431Y003383D01*
X007530Y003284D01*
X008222Y003127D02*
X009222Y003127D01*
X009222Y003204D02*
X008299Y003204D01*
X008370Y003590D02*
X009222Y003590D01*
X009151Y003667D02*
X008448Y003667D01*
X008476Y003744D02*
X009122Y003744D01*
X009122Y003822D02*
X008476Y003822D01*
X008537Y003899D02*
X009144Y003899D01*
X009221Y003976D02*
X008615Y003976D01*
X008692Y004053D02*
X010325Y004053D01*
X010325Y003976D02*
X009460Y003976D01*
X009537Y003899D02*
X010325Y003899D01*
X010325Y003822D02*
X009559Y003822D01*
X009559Y003744D02*
X010325Y003744D01*
X010325Y003667D02*
X009530Y003667D01*
X009459Y003590D02*
X010330Y003590D01*
X010407Y003513D02*
X009459Y003513D01*
X009459Y003435D02*
X010484Y003435D01*
X010562Y003358D02*
X009459Y003358D01*
X009459Y003281D02*
X010639Y003281D01*
X010716Y003204D02*
X009459Y003204D01*
X009459Y003127D02*
X010793Y003127D01*
X010870Y003049D02*
X009459Y003049D01*
X009459Y002972D02*
X010948Y002972D01*
X011025Y002895D02*
X009459Y002895D01*
X009459Y002818D02*
X011102Y002818D01*
X011179Y002740D02*
X009459Y002740D01*
X009513Y002663D02*
X011257Y002663D01*
X011334Y002586D02*
X009559Y002586D01*
X009559Y002509D02*
X011411Y002509D01*
X011488Y002431D02*
X009554Y002431D01*
X009477Y002354D02*
X011566Y002354D01*
X011053Y004219D02*
X010502Y004219D01*
X010325Y004208D02*
X008846Y004208D01*
X008769Y004131D02*
X010325Y004131D01*
X010950Y004671D02*
X011228Y004671D01*
X011228Y004594D02*
X011027Y004594D01*
X011035Y004517D02*
X011183Y004517D01*
X011106Y004440D02*
X011035Y004440D01*
X011029Y004362D02*
X010993Y004362D01*
X011053Y004219D02*
X011447Y004613D01*
X011273Y004749D02*
X010935Y004749D01*
X011854Y006680D02*
X012166Y006680D01*
X012089Y006757D02*
X011931Y006757D01*
X011762Y006897D02*
X012116Y006897D01*
X012431Y006582D01*
X012431Y005597D01*
X013927Y004749D02*
X014177Y004749D01*
X014060Y004671D02*
X013927Y004671D01*
X013927Y004594D02*
X013991Y004594D01*
X013943Y004517D02*
X013927Y004517D01*
X014662Y002663D02*
X015009Y002663D01*
X015009Y002586D02*
X014739Y002586D01*
X014795Y002509D02*
X015009Y002509D01*
X015009Y002431D02*
X014827Y002431D01*
X014848Y002354D02*
X015009Y002354D01*
X015009Y002277D02*
X014848Y002277D01*
X014848Y002200D02*
X015009Y002200D01*
X015009Y002122D02*
X014816Y002122D01*
X014784Y002045D02*
X015009Y002045D01*
X015009Y001968D02*
X014712Y001968D01*
X014607Y001891D02*
X015009Y001891D01*
X015009Y001813D02*
X001743Y001813D01*
X001743Y001736D02*
X015009Y001736D01*
X014192Y001891D02*
X001743Y001891D01*
X001743Y001968D02*
X004531Y001968D01*
X004454Y002045D02*
X001743Y002045D01*
X001743Y002122D02*
X004417Y002122D01*
X004417Y002200D02*
X001743Y002200D01*
X001743Y002277D02*
X004432Y002277D01*
X004509Y002354D02*
X001743Y002354D01*
X004740Y001968D02*
X014087Y001968D01*
X014015Y002045D02*
X008149Y002045D01*
X009341Y002527D02*
X009341Y003786D01*
X008986Y004285D02*
X008924Y004285D01*
X006950Y004362D02*
X006888Y004362D01*
X005935Y006989D02*
X005430Y006989D01*
X005484Y007066D02*
X005935Y007066D01*
X005935Y007143D02*
X005484Y007143D01*
X005484Y007220D02*
X005935Y007220D01*
X005935Y007297D02*
X005410Y007297D01*
X006829Y009306D02*
X006878Y009306D01*
X008665Y007684D02*
X008934Y007684D01*
X008866Y007761D02*
X008777Y007761D01*
X008855Y007838D02*
X008866Y007838D01*
D29*
X009045Y007015D02*
X009518Y006542D01*
X009045Y007015D02*
X006447Y007015D01*
X007431Y010509D02*
X008573Y010509D01*
X008730Y010666D01*
X008809Y010666D01*
X009193Y010666D01*
X009193Y011050D01*
X009193Y010666D02*
X009419Y010666D01*
X010345Y010666D01*
X010699Y013432D02*
X011171Y013432D01*
X011782Y014042D01*
X010699Y013432D02*
X010384Y013747D01*
X009557Y013747D01*
X007904Y013747D01*
X006368Y013747D01*
X006171Y013747D01*
X005187Y014731D01*
X004557Y015361D01*
X004282Y015637D01*
X002864Y015637D01*
X002707Y015794D01*
X002589Y015794D01*
X002077Y016306D01*
X002077Y017448D01*
X002234Y013353D02*
X002470Y013353D01*
X003888Y012369D02*
X004400Y012881D01*
X005541Y012881D01*
X006171Y013117D02*
X006171Y012133D01*
X005030Y010991D01*
X006329Y014062D02*
X006329Y015912D01*
X006211Y016031D01*
X006919Y016503D02*
X007234Y016818D01*
X008730Y016818D01*
X009793Y017881D01*
X010529Y017881D01*
X010869Y017881D02*
X012510Y017881D01*
X012510Y018550D01*
X014360Y017920D02*
X014360Y017527D01*
X014872Y017015D01*
X014872Y015952D01*
X014715Y015794D01*
X014203Y015794D01*
X013258Y014849D01*
X014360Y017920D02*
X014636Y018196D01*
X006998Y014062D02*
X006329Y014062D01*
X002549Y011109D02*
X002470Y011031D01*
X002470Y010440D01*
X002569Y010342D01*
X002569Y010086D01*
X010384Y005755D02*
X010502Y005637D01*
X010502Y004219D01*
X010502Y003668D01*
X011880Y002290D01*
X014400Y002290D01*
D30*
X010738Y008865D02*
X010738Y009131D01*
X010640Y009269D01*
X010640Y009377D01*
X010640Y009771D01*
X010640Y009899D01*
X010345Y009899D01*
X010098Y009899D01*
X010089Y009889D01*
X010640Y009899D02*
X010640Y010164D01*
X010640Y010597D01*
X010640Y011031D01*
X010640Y010597D02*
X010413Y010597D01*
X010345Y010666D01*
X009419Y010666D02*
X009419Y010322D01*
X009419Y009889D01*
X009193Y011050D02*
X009257Y011114D01*
X009257Y011321D01*
X008809Y011321D02*
X008809Y011050D01*
X005266Y007133D02*
X005187Y007054D01*
X004282Y007054D01*
D31*
X006289Y005204D02*
X005974Y004889D01*
X005974Y003944D01*
X006289Y005204D02*
X006289Y006464D01*
X006447Y006621D01*
X006447Y007015D01*
X001998Y005912D02*
X001841Y006070D01*
X001841Y010027D01*
X001900Y010086D01*
M02*
