G75*
%MOIN*%
%OFA0B0*%
%FSLAX24Y24*%
%IPPOS*%
%LPD*%
%AMOC8*
5,1,8,0,0,1.08239X$1,22.5*
%
%ADD10C,0.0039*%
%ADD11C,0.0050*%
%ADD12C,0.0020*%
%ADD13C,0.0080*%
%ADD14C,0.0060*%
%ADD15C,0.0010*%
%ADD16C,0.0059*%
%ADD17C,0.0030*%
%ADD18R,0.0236X0.0591*%
%ADD19C,0.0079*%
%ADD20C,0.0256*%
%ADD21C,0.0040*%
D10*
X002018Y003275D02*
X002608Y003275D01*
X002608Y003590D01*
X002018Y003590D01*
X002018Y003275D01*
X002018Y003983D02*
X002608Y003983D01*
X002608Y004298D01*
X002018Y004298D01*
X002018Y003983D01*
X002018Y004771D02*
X002608Y004771D01*
X002608Y005086D01*
X002018Y005086D01*
X002018Y004771D01*
X002766Y005125D02*
X003356Y005125D01*
X003356Y005440D01*
X002766Y005440D01*
X002766Y005125D01*
X002746Y006168D02*
X002431Y006168D01*
X002431Y006759D01*
X002746Y006759D01*
X002746Y006168D01*
X002352Y006168D02*
X002352Y006759D01*
X002037Y006759D01*
X002037Y006168D01*
X002352Y006168D01*
X002470Y006779D02*
X002470Y006857D01*
X002274Y007054D01*
X002037Y007054D01*
X002274Y007369D02*
X002431Y007527D01*
X002431Y008078D01*
X002392Y008117D01*
X002372Y008117D02*
X001782Y008117D01*
X001782Y008432D01*
X002372Y008432D01*
X002372Y008117D01*
X002372Y008038D02*
X001782Y008038D01*
X001782Y007723D01*
X002372Y007723D01*
X002372Y008038D01*
X002372Y008590D02*
X001782Y008590D01*
X001782Y008905D01*
X002372Y008905D01*
X002372Y008590D01*
X002392Y008826D02*
X002904Y008826D01*
X002982Y008905D01*
X002746Y009298D02*
X002785Y009338D01*
X002864Y009338D01*
X002746Y009298D02*
X002589Y009141D01*
X002392Y009141D01*
X002372Y009298D02*
X001782Y009298D01*
X001782Y008983D01*
X002372Y008983D01*
X002372Y009298D01*
X002372Y009377D02*
X002372Y009692D01*
X001782Y009692D01*
X001782Y009377D01*
X002372Y009377D01*
X002392Y009456D02*
X002628Y009456D01*
X002785Y009613D01*
X002864Y009613D01*
X002904Y010164D02*
X002943Y010164D01*
X002904Y010164D02*
X002746Y010322D01*
X003140Y011208D02*
X004006Y011208D01*
X004006Y011641D01*
X003140Y011641D01*
X003140Y011208D01*
X003140Y011503D02*
X003022Y011621D01*
X003022Y012212D01*
X003140Y012192D02*
X004006Y012192D01*
X004006Y011759D01*
X003140Y011759D01*
X003140Y012192D01*
X003037Y012714D02*
X003159Y012836D01*
X003159Y013871D01*
X003037Y013993D01*
X001904Y013993D01*
X001782Y013871D01*
X001782Y012836D01*
X001904Y012714D01*
X003037Y012714D01*
X003100Y013944D02*
X003415Y014259D01*
X002392Y014928D02*
X002392Y015873D01*
X001801Y015873D01*
X001801Y015991D01*
X002470Y015991D01*
X002470Y017330D01*
X001683Y017330D01*
X001683Y015991D01*
X001801Y015991D01*
X001801Y015873D02*
X001722Y015873D01*
X001722Y014928D01*
X002392Y014928D01*
X002372Y016109D02*
X001782Y016109D01*
X001782Y016424D01*
X002372Y016424D01*
X002372Y016109D01*
X002372Y016503D02*
X002372Y016818D01*
X001782Y016818D01*
X001782Y016503D01*
X002372Y016503D01*
X002372Y016897D02*
X002372Y017212D01*
X001782Y017212D01*
X001782Y016897D01*
X002372Y016897D01*
X002825Y017290D02*
X003691Y017290D01*
X003691Y018078D01*
X003297Y018078D01*
X002825Y018078D01*
X002825Y017290D01*
X002904Y017389D02*
X003219Y017389D01*
X003219Y017979D01*
X002904Y017979D01*
X002904Y017389D01*
X003297Y017389D02*
X003612Y017389D01*
X003612Y017979D01*
X003297Y017979D01*
X003297Y017389D01*
X003789Y017408D02*
X004380Y017408D01*
X004380Y017723D01*
X003789Y017723D01*
X003789Y017408D01*
X003730Y017822D02*
X003730Y018412D01*
X004045Y018412D01*
X004045Y017822D01*
X003730Y017822D01*
X003573Y018353D02*
X003376Y018353D01*
X003297Y018275D01*
X003297Y018078D01*
X003219Y018058D02*
X003219Y018649D01*
X002904Y018649D01*
X002904Y018058D01*
X003219Y018058D01*
X003297Y018452D02*
X003297Y019042D01*
X003612Y019042D01*
X003612Y018452D01*
X003297Y018452D01*
X003061Y018668D02*
X003061Y018747D01*
X002825Y019003D02*
X002825Y018412D01*
X002510Y018412D01*
X002510Y019003D01*
X002825Y019003D01*
X002845Y019180D02*
X002845Y019495D01*
X002254Y019495D01*
X002254Y019180D01*
X002845Y019180D01*
X002963Y019180D02*
X003553Y019180D01*
X003553Y019495D01*
X002963Y019495D01*
X002963Y019180D01*
X002589Y019023D02*
X002510Y019101D01*
X002037Y019101D01*
X002077Y019003D02*
X002077Y018412D01*
X002392Y018412D01*
X002392Y019003D01*
X002077Y019003D01*
X002077Y018511D02*
X002037Y018511D01*
X001919Y018393D01*
X001919Y018314D01*
X002510Y019495D02*
X002510Y019613D01*
X003494Y019613D02*
X003494Y019495D01*
X003671Y019495D02*
X003671Y019180D01*
X004262Y019180D01*
X004262Y019495D01*
X003671Y019495D01*
X003612Y018944D02*
X004006Y018944D01*
X004006Y018786D02*
X005305Y018786D01*
X005305Y018511D01*
X006014Y018511D01*
X006014Y019259D01*
X005305Y019259D01*
X005305Y018786D01*
X005305Y018393D02*
X005305Y017290D01*
X005148Y017290D01*
X005148Y017487D01*
X004360Y017487D01*
X004360Y015834D01*
X005148Y015834D01*
X005148Y017290D01*
X005049Y017408D02*
X005049Y017094D01*
X004459Y017094D01*
X004459Y017408D01*
X005049Y017408D01*
X005305Y017290D02*
X005305Y017172D01*
X006014Y017172D01*
X006014Y018393D01*
X005305Y018393D01*
X004715Y018196D02*
X004400Y018196D01*
X004439Y018412D02*
X004124Y018412D01*
X004124Y017822D01*
X004439Y017822D01*
X004439Y018412D01*
X003967Y018590D02*
X003848Y018471D01*
X003848Y018432D01*
X003573Y018353D02*
X004006Y018786D01*
X004400Y017684D02*
X004715Y017684D01*
X004459Y017015D02*
X004459Y016700D01*
X005049Y016700D01*
X005049Y017015D01*
X004459Y017015D01*
X004459Y016621D02*
X004459Y016306D01*
X005049Y016306D01*
X005049Y016621D01*
X004459Y016621D01*
X004459Y016227D02*
X005049Y016227D01*
X005049Y015912D01*
X004459Y015912D01*
X004459Y016227D01*
X004459Y015834D02*
X005049Y015834D01*
X005049Y015519D01*
X004459Y015519D01*
X004459Y015834D01*
X004813Y015342D02*
X005797Y015342D01*
X005797Y014357D01*
X004813Y014357D01*
X004813Y015342D01*
X005226Y016168D02*
X006093Y016168D01*
X006093Y016601D01*
X005226Y016601D01*
X005226Y016168D01*
X005226Y016641D02*
X006093Y016641D01*
X006093Y017074D01*
X005226Y017074D01*
X005226Y016641D01*
X005915Y014928D02*
X005915Y014613D01*
X006506Y014613D01*
X006506Y014928D01*
X005915Y014928D01*
X006604Y015499D02*
X006604Y016090D01*
X006919Y016090D01*
X006919Y015499D01*
X006604Y015499D01*
X006998Y015499D02*
X006998Y016090D01*
X007313Y016090D01*
X007313Y015499D01*
X006998Y015499D01*
X008159Y016227D02*
X008750Y016227D01*
X008750Y016542D01*
X008159Y016542D01*
X008159Y016227D01*
X008159Y016621D02*
X008750Y016621D01*
X008750Y016936D01*
X008159Y016936D01*
X008159Y016621D01*
X008514Y017330D02*
X007372Y017330D01*
X007372Y018117D01*
X008514Y018117D01*
X008514Y017330D01*
X008652Y018452D02*
X008337Y018452D01*
X008337Y019042D01*
X008652Y019042D01*
X008652Y018452D01*
X008671Y019101D02*
X008671Y019416D01*
X008081Y019416D01*
X008081Y019101D01*
X008671Y019101D01*
X008671Y019495D02*
X008671Y019810D01*
X008081Y019810D01*
X008081Y019495D01*
X008671Y019495D01*
X008730Y019869D02*
X008415Y019869D01*
X008415Y020460D01*
X008730Y020460D01*
X008730Y019869D01*
X008809Y019869D02*
X008809Y020460D01*
X009124Y020460D01*
X009124Y019869D01*
X008809Y019869D01*
X009892Y019830D02*
X009892Y019771D01*
X009892Y019830D02*
X013711Y019830D01*
X013711Y019771D01*
X014183Y019928D02*
X014183Y019613D01*
X014774Y019613D01*
X014774Y019928D01*
X014183Y019928D01*
X014183Y019298D02*
X014183Y018983D01*
X014774Y018983D01*
X014774Y019298D01*
X014183Y019298D01*
X014242Y017546D02*
X014242Y016956D01*
X014557Y016956D01*
X014557Y017546D01*
X014242Y017546D01*
X014183Y016818D02*
X014183Y015952D01*
X014616Y015952D01*
X014616Y016818D01*
X014183Y016818D01*
X013711Y015952D02*
X013711Y015853D01*
X009892Y015853D01*
X009892Y015952D01*
X009911Y014830D02*
X009911Y014239D01*
X010226Y014239D01*
X010226Y014830D01*
X009911Y014830D01*
X010817Y015204D02*
X010817Y014259D01*
X011132Y014259D01*
X011132Y014062D01*
X011211Y013983D01*
X011998Y013983D01*
X011998Y012605D01*
X011211Y012605D01*
X011211Y013983D01*
X011309Y013865D02*
X011309Y013550D01*
X011900Y013550D01*
X011900Y013865D01*
X011309Y013865D01*
X011132Y014259D02*
X011526Y014259D01*
X011526Y015204D01*
X010817Y015204D01*
X010738Y013590D02*
X010817Y013511D01*
X010817Y013471D01*
X010974Y013452D02*
X010659Y013452D01*
X010659Y012861D01*
X010974Y012861D01*
X010974Y013452D01*
X010581Y013452D02*
X010581Y012861D01*
X010266Y012861D01*
X010266Y013452D01*
X010581Y013452D01*
X010423Y013471D02*
X010423Y013511D01*
X010384Y013550D01*
X011309Y013462D02*
X011309Y013147D01*
X011900Y013147D01*
X011900Y013462D01*
X011309Y013462D01*
X011309Y013029D02*
X011309Y012714D01*
X011900Y012714D01*
X011900Y013029D01*
X011309Y013029D01*
X011978Y012172D02*
X012569Y012172D01*
X012569Y011857D01*
X011978Y011857D01*
X011978Y012172D01*
X011978Y011739D02*
X012569Y011739D01*
X012569Y011424D01*
X011978Y011424D01*
X011978Y011739D01*
X012648Y011739D02*
X012648Y011424D01*
X013238Y011424D01*
X013238Y011739D01*
X012648Y011739D01*
X012589Y012015D02*
X012864Y012015D01*
X012195Y009633D02*
X011880Y009633D01*
X011880Y009042D01*
X012195Y009042D01*
X012195Y009633D01*
X011152Y007645D02*
X010561Y007645D01*
X010561Y007330D01*
X011152Y007330D01*
X011152Y007645D01*
X011801Y006641D02*
X012667Y006641D01*
X012667Y006208D01*
X012667Y005775D01*
X011801Y005775D01*
X011801Y006208D01*
X012667Y006208D01*
X011801Y006208D01*
X011801Y006641D01*
X011801Y005991D02*
X011604Y005991D01*
X011526Y005912D01*
X011801Y005499D02*
X012667Y005499D01*
X012667Y005066D01*
X012667Y004633D01*
X011801Y004633D01*
X011801Y005066D01*
X012667Y005066D01*
X011801Y005066D01*
X011801Y005499D01*
X011801Y005243D02*
X011447Y005243D01*
X011407Y005282D01*
X010148Y005046D02*
X009990Y005046D01*
X009911Y005125D01*
X010030Y005145D02*
X009715Y005145D01*
X009715Y005735D01*
X010030Y005735D01*
X010030Y005145D01*
X010049Y004889D02*
X009459Y004889D01*
X009459Y004574D01*
X010049Y004574D01*
X010049Y004889D01*
X010069Y004731D02*
X010148Y004731D01*
X009321Y004613D02*
X009242Y004692D01*
X009262Y004692D02*
X009262Y005007D01*
X008671Y005007D01*
X008671Y004692D01*
X009262Y004692D01*
X009262Y005125D02*
X008671Y005125D01*
X008671Y005440D01*
X009262Y005440D01*
X009262Y005125D01*
X008553Y005125D02*
X008553Y005440D01*
X007963Y005440D01*
X007963Y005125D01*
X008553Y005125D01*
X008553Y005007D02*
X007963Y005007D01*
X007963Y004692D01*
X008553Y004692D01*
X008553Y005007D01*
X007982Y005440D02*
X007746Y005676D01*
X007077Y005676D01*
X007254Y005440D02*
X007254Y005125D01*
X007845Y005125D01*
X007845Y005440D01*
X007254Y005440D01*
X007234Y005204D02*
X007156Y005204D01*
X007254Y005007D02*
X007254Y004692D01*
X007845Y004692D01*
X007845Y005007D01*
X007254Y005007D01*
X006526Y004987D02*
X006526Y004397D01*
X006211Y004397D01*
X006211Y004987D01*
X006526Y004987D01*
X006112Y004928D02*
X005522Y004928D01*
X005522Y005243D01*
X006112Y005243D01*
X006112Y004928D01*
X006112Y004849D02*
X005522Y004849D01*
X005522Y004534D01*
X006112Y004534D01*
X006112Y004849D01*
X006112Y004456D02*
X005522Y004456D01*
X005522Y004141D01*
X006112Y004141D01*
X006112Y004456D01*
X006211Y004062D02*
X006211Y005716D01*
X006407Y005912D01*
X006407Y006345D01*
X006998Y006345D01*
X006998Y007684D01*
X006250Y007684D01*
X006250Y006345D01*
X006407Y006345D01*
X006073Y006385D02*
X005482Y006385D01*
X005482Y006700D01*
X006073Y006700D01*
X006073Y006385D01*
X005817Y006326D02*
X005817Y005735D01*
X005502Y005735D01*
X005502Y006326D01*
X005817Y006326D01*
X006211Y005716D02*
X005423Y005716D01*
X005423Y004062D01*
X006211Y004062D01*
X006289Y004023D02*
X006053Y003786D01*
X005482Y003747D02*
X004892Y003747D01*
X004892Y004062D01*
X005482Y004062D01*
X005482Y003747D01*
X005482Y003668D02*
X004892Y003668D01*
X004892Y003353D01*
X005482Y003353D01*
X005482Y003668D01*
X005482Y003275D02*
X004892Y003275D01*
X004892Y002960D01*
X005482Y002960D01*
X005482Y003275D01*
X005482Y002802D02*
X004892Y002802D01*
X004892Y002487D01*
X005482Y002487D01*
X005482Y002802D01*
X005561Y002448D02*
X005561Y002133D01*
X006152Y002133D01*
X006152Y002448D01*
X005561Y002448D01*
X005502Y002389D02*
X005187Y002389D01*
X005187Y001798D01*
X005502Y001798D01*
X005502Y002389D01*
X005561Y002054D02*
X005561Y001739D01*
X006152Y001739D01*
X006152Y002054D01*
X005561Y002054D01*
X005345Y001779D02*
X005345Y001660D01*
X005384Y001700D01*
X005345Y001660D02*
X005305Y001700D01*
X005108Y001798D02*
X005108Y002389D01*
X004793Y002389D01*
X004793Y001798D01*
X005108Y001798D01*
X004990Y001700D02*
X004951Y001660D01*
X004911Y001700D01*
X004951Y001660D02*
X004951Y001779D01*
X004833Y001700D02*
X004793Y001660D01*
X004754Y001700D01*
X004793Y001660D02*
X004793Y002645D01*
X004872Y002645D01*
X004793Y002645D02*
X004793Y003117D01*
X004872Y003117D01*
X004793Y003117D02*
X004793Y003511D01*
X004872Y003511D01*
X004793Y003511D02*
X004793Y003865D01*
X004872Y003865D01*
X004793Y003865D02*
X004754Y003865D01*
X004734Y004003D02*
X004734Y003688D01*
X004144Y003688D01*
X004144Y004003D01*
X004734Y004003D01*
X004715Y003609D02*
X004400Y003609D01*
X004400Y003019D01*
X004715Y003019D01*
X004715Y003609D01*
X004341Y003590D02*
X004341Y003275D01*
X003750Y003275D01*
X003750Y003590D01*
X004341Y003590D01*
X004085Y003688D02*
X004085Y004279D01*
X003770Y004279D01*
X003770Y003688D01*
X004085Y003688D01*
X004400Y002940D02*
X004400Y002349D01*
X004715Y002349D01*
X004715Y002940D01*
X004400Y002940D01*
X004439Y002330D02*
X004439Y001660D01*
X004478Y001700D01*
X004439Y001660D02*
X004400Y001700D01*
X006171Y001936D02*
X006289Y002054D01*
X006368Y002054D01*
X006171Y002369D02*
X006250Y002448D01*
X006368Y002448D01*
X006112Y005322D02*
X005522Y005322D01*
X005522Y005637D01*
X006112Y005637D01*
X006112Y005322D01*
X005285Y006385D02*
X005285Y006700D01*
X004695Y006700D01*
X004695Y006385D01*
X005285Y006385D01*
X004951Y006700D02*
X005148Y006897D01*
X005226Y006897D01*
X005049Y006936D02*
X004459Y006936D01*
X004459Y007251D01*
X005049Y007251D01*
X005049Y006936D01*
X005069Y007172D02*
X005187Y007290D01*
X005345Y007290D01*
X005108Y007487D02*
X005187Y007566D01*
X005108Y007487D02*
X005069Y007487D01*
X005049Y007330D02*
X004459Y007330D01*
X004459Y007645D01*
X005049Y007645D01*
X005049Y007330D01*
X005049Y007723D02*
X004459Y007723D01*
X004459Y008038D01*
X005049Y008038D01*
X005049Y007723D01*
X005069Y007920D02*
X005305Y007920D01*
X005148Y008235D02*
X005266Y008353D01*
X005266Y008432D01*
X005325Y008432D02*
X004734Y008432D01*
X004734Y008747D01*
X005325Y008747D01*
X005325Y008432D01*
X005423Y008412D02*
X006289Y008412D01*
X006289Y008845D01*
X005423Y008845D01*
X005423Y008412D01*
X005325Y008826D02*
X004734Y008826D01*
X004734Y009141D01*
X005325Y009141D01*
X005325Y008826D01*
X005423Y008885D02*
X006289Y008885D01*
X006289Y009318D01*
X005423Y009318D01*
X005423Y008885D01*
X005817Y008334D02*
X005817Y007743D01*
X006132Y007743D01*
X006132Y008334D01*
X005817Y008334D01*
X005817Y009712D02*
X005817Y010302D01*
X006132Y010302D01*
X006132Y009712D01*
X005817Y009712D01*
X005596Y010351D02*
X005719Y010473D01*
X005719Y011509D01*
X005596Y011631D01*
X004463Y011631D01*
X004341Y011509D01*
X004341Y010473D01*
X004463Y010351D01*
X005596Y010351D01*
X006014Y010794D02*
X006014Y011424D01*
X006801Y011424D01*
X006801Y010794D01*
X006014Y010794D01*
X005837Y011621D02*
X006427Y011621D01*
X006427Y011936D01*
X005837Y011936D01*
X005837Y011621D01*
X005837Y012054D02*
X006427Y012054D01*
X006427Y012369D01*
X005837Y012369D01*
X005837Y012054D01*
X005837Y012487D02*
X006427Y012487D01*
X006427Y012802D01*
X005837Y012802D01*
X005837Y012487D01*
X005699Y012901D02*
X005699Y013491D01*
X006014Y013491D01*
X006014Y012901D01*
X005699Y012901D01*
X006329Y012802D02*
X006329Y013196D01*
X006900Y013235D02*
X006900Y012920D01*
X007490Y012920D01*
X007490Y013235D01*
X006900Y013235D01*
X007018Y012842D02*
X007608Y012842D01*
X007608Y012527D01*
X007018Y012527D01*
X007018Y012842D01*
X007628Y012802D02*
X007746Y012920D01*
X007785Y012920D01*
X008396Y013078D02*
X008986Y013078D01*
X008986Y013393D01*
X008396Y013393D01*
X008396Y013078D01*
X008967Y007842D02*
X009557Y007842D01*
X009557Y007527D01*
X008967Y007527D01*
X008967Y007842D01*
X008967Y007448D02*
X009557Y007448D01*
X009557Y007133D01*
X008967Y007133D01*
X008967Y007448D01*
X008593Y007448D02*
X008593Y007133D01*
X008002Y007133D01*
X008002Y007448D01*
X008593Y007448D01*
X008140Y007448D02*
X008140Y007605D01*
X004577Y006700D02*
X004577Y006385D01*
X003986Y006385D01*
X003986Y006700D01*
X004577Y006700D01*
X004715Y009023D02*
X004400Y009023D01*
X004006Y012054D02*
X004085Y012133D01*
X004085Y012212D01*
X012333Y014928D02*
X012923Y014928D01*
X012923Y015243D01*
X012333Y015243D01*
X012333Y014928D01*
X012766Y006660D02*
X013356Y006660D01*
X013356Y006345D01*
X012766Y006345D01*
X012766Y006660D01*
X012766Y006227D02*
X013356Y006227D01*
X013356Y005912D01*
X012766Y005912D01*
X012766Y006227D01*
X012766Y005794D02*
X012766Y005479D01*
X013356Y005479D01*
X013356Y005794D01*
X012766Y005794D01*
X012766Y005361D02*
X013356Y005361D01*
X013356Y005046D01*
X012766Y005046D01*
X012766Y005361D01*
X012766Y004889D02*
X013356Y004889D01*
X013356Y004574D01*
X012766Y004574D01*
X012766Y004889D01*
X013376Y005086D02*
X013494Y005086D01*
X013612Y004968D01*
X013376Y005676D02*
X013455Y005755D01*
X013494Y005755D01*
X013455Y006070D02*
X013376Y006070D01*
X013455Y006070D02*
X013652Y006267D01*
X013652Y006345D01*
D11*
X012509Y016345D02*
X012511Y016378D01*
X012517Y016410D01*
X012526Y016441D01*
X012539Y016471D01*
X012556Y016499D01*
X012576Y016525D01*
X012599Y016549D01*
X012624Y016569D01*
X012652Y016587D01*
X012681Y016601D01*
X012712Y016611D01*
X012744Y016618D01*
X012777Y016621D01*
X012810Y016620D01*
X012842Y016615D01*
X012873Y016606D01*
X012904Y016594D01*
X012932Y016578D01*
X012959Y016559D01*
X012983Y016537D01*
X013004Y016512D01*
X013023Y016485D01*
X013038Y016456D01*
X013049Y016426D01*
X013057Y016394D01*
X013061Y016361D01*
X013061Y016329D01*
X013057Y016296D01*
X013049Y016264D01*
X013038Y016234D01*
X013023Y016205D01*
X013004Y016178D01*
X012983Y016153D01*
X012959Y016131D01*
X012932Y016112D01*
X012904Y016096D01*
X012873Y016084D01*
X012842Y016075D01*
X012810Y016070D01*
X012777Y016069D01*
X012744Y016072D01*
X012712Y016079D01*
X012681Y016089D01*
X012652Y016103D01*
X012624Y016121D01*
X012599Y016141D01*
X012576Y016165D01*
X012556Y016191D01*
X012539Y016219D01*
X012526Y016249D01*
X012517Y016280D01*
X012511Y016312D01*
X012509Y016345D01*
X005738Y010046D02*
X005738Y009338D01*
X004478Y009338D01*
X004478Y010046D01*
X005738Y010046D01*
X005522Y011719D02*
X004695Y011719D01*
X004695Y012546D01*
X005522Y012546D01*
X005522Y011719D01*
X005384Y012645D02*
X005384Y013905D01*
X004675Y013905D01*
X004675Y012645D01*
X005384Y012645D01*
X004242Y011070D02*
X004242Y010361D01*
X002982Y010361D01*
X002982Y011070D01*
X004242Y011070D01*
X004203Y008708D02*
X003967Y008708D01*
X004203Y008708D02*
X004203Y008471D01*
X004203Y007369D02*
X004203Y007133D01*
X003967Y007133D01*
X003868Y006109D02*
X003691Y006109D01*
X003691Y005932D01*
X003691Y004712D02*
X003691Y004534D01*
X003868Y004534D01*
X005085Y004534D02*
X005266Y004716D01*
X005541Y003786D02*
X005541Y002527D01*
X006250Y002527D01*
X006250Y003786D01*
X005541Y003786D01*
X005266Y005932D02*
X005266Y006109D01*
X005089Y006109D01*
X002884Y007133D02*
X002628Y007389D01*
X002628Y008471D02*
X002628Y008708D01*
X002864Y008708D01*
X002982Y014101D02*
X001722Y014101D01*
X001722Y014810D01*
X002982Y014810D01*
X002982Y014101D01*
X002864Y015479D02*
X002628Y015479D01*
X002628Y015716D01*
X002628Y016818D02*
X002628Y017054D01*
X002864Y017054D01*
X003947Y017054D02*
X004203Y016798D01*
X004203Y015716D02*
X004203Y015479D01*
X003967Y015479D01*
D12*
X002543Y002615D02*
X002398Y002615D01*
X002362Y002651D01*
X002362Y002724D01*
X002398Y002760D01*
X002470Y002833D02*
X002398Y002905D01*
X002362Y002977D01*
X002398Y003050D02*
X002362Y003086D01*
X002362Y003159D01*
X002398Y003195D01*
X002543Y003050D01*
X002579Y003086D01*
X002579Y003159D01*
X002543Y003195D01*
X002398Y003195D01*
X002398Y003050D02*
X002543Y003050D01*
X002543Y002977D02*
X002506Y002977D01*
X002470Y002941D01*
X002470Y002833D01*
X002543Y002833D01*
X002579Y002869D01*
X002579Y002941D01*
X002543Y002977D01*
X002543Y002760D02*
X002579Y002724D01*
X002579Y002651D01*
X002543Y002615D01*
X002452Y003678D02*
X002380Y003678D01*
X002344Y003714D01*
X002344Y003787D01*
X002452Y003787D01*
X002488Y003750D01*
X002488Y003714D01*
X002452Y003678D01*
X002344Y003787D02*
X002416Y003859D01*
X002488Y003895D01*
X002270Y003859D02*
X002234Y003895D01*
X002162Y003895D01*
X002126Y003859D01*
X002126Y003714D01*
X002162Y003678D01*
X002234Y003678D01*
X002270Y003714D01*
X002301Y004466D02*
X002265Y004502D01*
X002301Y004466D02*
X002373Y004466D01*
X002409Y004502D01*
X002409Y004574D01*
X002373Y004610D01*
X002337Y004610D01*
X002265Y004574D01*
X002265Y004682D01*
X002409Y004682D01*
X002482Y004646D02*
X002482Y004610D01*
X002518Y004574D01*
X002627Y004574D01*
X002627Y004646D02*
X002591Y004682D01*
X002518Y004682D01*
X002482Y004646D01*
X002482Y004502D02*
X002518Y004466D01*
X002591Y004466D01*
X002627Y004502D01*
X002627Y004646D01*
X002192Y004646D02*
X002156Y004682D01*
X002083Y004682D01*
X002047Y004646D01*
X002047Y004502D01*
X002083Y004466D01*
X002156Y004466D01*
X002192Y004502D01*
X003228Y004699D02*
X003264Y004663D01*
X003409Y004663D01*
X003445Y004699D01*
X003445Y004771D01*
X003409Y004807D01*
X003445Y004880D02*
X003300Y005024D01*
X003264Y005024D01*
X003228Y004988D01*
X003228Y004916D01*
X003264Y004880D01*
X003264Y004807D02*
X003228Y004771D01*
X003228Y004699D01*
X003445Y004880D02*
X003445Y005024D01*
X003445Y005440D02*
X003445Y005512D01*
X003445Y005476D02*
X003228Y005476D01*
X003228Y005440D02*
X003228Y005512D01*
X003264Y005585D02*
X003409Y005585D01*
X003445Y005621D01*
X003445Y005693D01*
X003409Y005729D01*
X003445Y005802D02*
X003445Y005947D01*
X003445Y005874D02*
X003228Y005874D01*
X003300Y005802D01*
X003264Y005729D02*
X003228Y005693D01*
X003228Y005621D01*
X003264Y005585D01*
X003264Y006020D02*
X003228Y006056D01*
X003228Y006128D01*
X003264Y006164D01*
X003300Y006164D01*
X003337Y006128D01*
X003373Y006164D01*
X003409Y006164D01*
X003445Y006128D01*
X003445Y006056D01*
X003409Y006020D01*
X003337Y006092D02*
X003337Y006128D01*
X003971Y006749D02*
X003935Y006785D01*
X003935Y006930D01*
X003971Y006966D01*
X004043Y006966D01*
X004080Y006930D01*
X004153Y006930D02*
X004189Y006966D01*
X004261Y006966D01*
X004297Y006930D01*
X004297Y006893D01*
X004261Y006857D01*
X004297Y006821D01*
X004297Y006785D01*
X004261Y006749D01*
X004189Y006749D01*
X004153Y006785D01*
X004080Y006785D02*
X004043Y006749D01*
X003971Y006749D01*
X004225Y006857D02*
X004261Y006857D01*
X004723Y008127D02*
X004723Y008344D01*
X004831Y008344D01*
X004867Y008307D01*
X004867Y008235D01*
X004831Y008199D01*
X004723Y008199D01*
X004795Y008199D02*
X004867Y008127D01*
X004940Y008163D02*
X004976Y008127D01*
X005048Y008127D01*
X005084Y008163D01*
X005084Y008199D01*
X005048Y008235D01*
X005012Y008235D01*
X005048Y008235D02*
X005084Y008271D01*
X005084Y008307D01*
X005048Y008344D01*
X004976Y008344D01*
X004940Y008307D01*
X005233Y007792D02*
X005197Y007756D01*
X005197Y007612D01*
X005233Y007576D01*
X005305Y007576D01*
X005341Y007612D01*
X005415Y007576D02*
X005559Y007576D01*
X005487Y007576D02*
X005487Y007792D01*
X005415Y007720D01*
X005341Y007756D02*
X005305Y007792D01*
X005233Y007792D01*
X005355Y007927D02*
X005355Y008071D01*
X005391Y008107D01*
X005463Y008107D01*
X005499Y008071D01*
X005572Y008071D02*
X005572Y008035D01*
X005608Y007999D01*
X005716Y007999D01*
X005716Y007927D02*
X005716Y008071D01*
X005680Y008107D01*
X005608Y008107D01*
X005572Y008071D01*
X005572Y007927D02*
X005608Y007891D01*
X005680Y007891D01*
X005716Y007927D01*
X005740Y007792D02*
X005776Y007756D01*
X005632Y007612D01*
X005668Y007576D01*
X005740Y007576D01*
X005776Y007612D01*
X005776Y007756D01*
X005740Y007792D02*
X005668Y007792D01*
X005632Y007756D01*
X005632Y007612D01*
X005463Y007891D02*
X005499Y007927D01*
X005463Y007891D02*
X005391Y007891D01*
X005355Y007927D01*
X005430Y007320D02*
X005394Y007284D01*
X005394Y007140D01*
X005430Y007104D01*
X005502Y007104D01*
X005538Y007140D01*
X005611Y007104D02*
X005756Y007104D01*
X005684Y007104D02*
X005684Y007320D01*
X005611Y007248D01*
X005538Y007284D02*
X005502Y007320D01*
X005430Y007320D01*
X005529Y007005D02*
X005601Y007005D01*
X005638Y006969D01*
X005638Y006933D01*
X005601Y006897D01*
X005638Y006861D01*
X005638Y006825D01*
X005601Y006789D01*
X005529Y006789D01*
X005493Y006825D01*
X005420Y006789D02*
X005276Y006789D01*
X005276Y007005D01*
X005493Y006969D02*
X005529Y007005D01*
X005565Y006897D02*
X005601Y006897D01*
X005788Y006969D02*
X005788Y006825D01*
X005824Y006789D01*
X005896Y006789D01*
X005932Y006825D01*
X006005Y006897D02*
X006149Y006897D01*
X006113Y006789D02*
X006113Y007005D01*
X006005Y006897D01*
X005932Y006969D02*
X005896Y007005D01*
X005824Y007005D01*
X005788Y006969D01*
X005829Y007104D02*
X005973Y007104D01*
X005901Y007104D02*
X005901Y007320D01*
X005829Y007248D01*
X006339Y007320D02*
X006339Y007104D01*
X006339Y007176D02*
X006447Y007176D01*
X006483Y007212D01*
X006483Y007284D01*
X006447Y007320D01*
X006339Y007320D01*
X006417Y007415D02*
X006454Y007379D01*
X006526Y007379D01*
X006562Y007415D01*
X006635Y007415D02*
X006671Y007379D01*
X006743Y007379D01*
X006779Y007415D01*
X006779Y007487D01*
X006743Y007523D01*
X006707Y007523D01*
X006635Y007487D01*
X006635Y007595D01*
X006779Y007595D01*
X006562Y007559D02*
X006526Y007595D01*
X006454Y007595D01*
X006417Y007559D01*
X006417Y007415D01*
X006556Y007284D02*
X006592Y007320D01*
X006664Y007320D01*
X006701Y007284D01*
X006701Y007248D01*
X006556Y007104D01*
X006701Y007104D01*
X006774Y007212D02*
X006918Y007212D01*
X006882Y007320D02*
X006774Y007212D01*
X006882Y007104D02*
X006882Y007320D01*
X006882Y006926D02*
X006810Y006926D01*
X006774Y006890D01*
X006774Y006854D01*
X006810Y006818D01*
X006918Y006818D01*
X006918Y006746D02*
X006918Y006890D01*
X006882Y006926D01*
X006918Y006746D02*
X006882Y006710D01*
X006810Y006710D01*
X006774Y006746D01*
X006701Y006710D02*
X006556Y006710D01*
X006701Y006854D01*
X006701Y006890D01*
X006664Y006926D01*
X006592Y006926D01*
X006556Y006890D01*
X006483Y006890D02*
X006483Y006818D01*
X006447Y006782D01*
X006339Y006782D01*
X006411Y006782D02*
X006483Y006710D01*
X006447Y006651D02*
X006375Y006651D01*
X006339Y006615D01*
X006339Y006470D01*
X006375Y006434D01*
X006447Y006434D01*
X006483Y006470D01*
X006556Y006470D02*
X006592Y006434D01*
X006664Y006434D01*
X006701Y006470D01*
X006701Y006506D01*
X006664Y006542D01*
X006556Y006542D01*
X006556Y006470D01*
X006556Y006542D02*
X006628Y006615D01*
X006701Y006651D01*
X006774Y006578D02*
X006846Y006651D01*
X006846Y006434D01*
X006774Y006434D02*
X006918Y006434D01*
X006883Y006029D02*
X006847Y006029D01*
X006811Y005993D01*
X006811Y005921D01*
X006847Y005885D01*
X006919Y005812D02*
X006919Y005667D01*
X006811Y005776D01*
X007027Y005776D01*
X007027Y005885D02*
X006883Y006029D01*
X007027Y006029D02*
X007027Y005885D01*
X006991Y005594D02*
X007027Y005558D01*
X007027Y005486D01*
X006991Y005450D01*
X006847Y005450D01*
X006811Y005486D01*
X006811Y005558D01*
X006847Y005594D01*
X006890Y005259D02*
X006890Y005114D01*
X006998Y005114D01*
X006962Y005186D01*
X006962Y005223D01*
X006998Y005259D01*
X007070Y005259D01*
X007106Y005223D01*
X007106Y005150D01*
X007070Y005114D01*
X007070Y005041D02*
X007106Y005005D01*
X007106Y004933D01*
X007070Y004897D01*
X006998Y004897D02*
X006962Y004969D01*
X006962Y005005D01*
X006998Y005041D01*
X007070Y005041D01*
X006998Y004897D02*
X006890Y004897D01*
X006890Y005041D01*
X006794Y004904D02*
X006831Y004868D01*
X006831Y004796D01*
X006794Y004760D01*
X006831Y004687D02*
X006831Y004543D01*
X006686Y004687D01*
X006650Y004687D01*
X006614Y004651D01*
X006614Y004579D01*
X006650Y004543D01*
X006650Y004469D02*
X006614Y004433D01*
X006614Y004361D01*
X006650Y004325D01*
X006794Y004325D01*
X006831Y004361D01*
X006831Y004433D01*
X006794Y004469D01*
X006946Y004423D02*
X006946Y004567D01*
X006982Y004603D01*
X007054Y004603D01*
X007090Y004567D01*
X007164Y004495D02*
X007308Y004495D01*
X007381Y004531D02*
X007453Y004603D01*
X007453Y004387D01*
X007381Y004387D02*
X007525Y004387D01*
X007773Y004423D02*
X007773Y004567D01*
X007809Y004603D01*
X007881Y004603D01*
X007917Y004567D01*
X007990Y004603D02*
X007990Y004495D01*
X008062Y004531D01*
X008099Y004531D01*
X008135Y004495D01*
X008135Y004423D01*
X008099Y004387D01*
X008026Y004387D01*
X007990Y004423D01*
X007917Y004423D02*
X007881Y004387D01*
X007809Y004387D01*
X007773Y004423D01*
X007990Y004603D02*
X008135Y004603D01*
X008208Y004603D02*
X008352Y004603D01*
X008352Y004567D01*
X008208Y004423D01*
X008208Y004387D01*
X007272Y004387D02*
X007272Y004603D01*
X007164Y004495D01*
X007090Y004423D02*
X007054Y004387D01*
X006982Y004387D01*
X006946Y004423D01*
X006843Y004249D02*
X006770Y004249D01*
X006734Y004213D01*
X006661Y004249D02*
X006589Y004213D01*
X006517Y004141D01*
X006625Y004141D01*
X006661Y004105D01*
X006661Y004069D01*
X006625Y004033D01*
X006553Y004033D01*
X006517Y004069D01*
X006517Y004141D01*
X006444Y004213D02*
X006408Y004249D01*
X006335Y004249D01*
X006299Y004213D01*
X006299Y004069D01*
X006335Y004033D01*
X006408Y004033D01*
X006444Y004069D01*
X006734Y004033D02*
X006879Y004177D01*
X006879Y004213D01*
X006843Y004249D01*
X006879Y004033D02*
X006734Y004033D01*
X006926Y004679D02*
X007070Y004679D01*
X007106Y004715D01*
X007106Y004788D01*
X007070Y004824D01*
X006926Y004824D02*
X006890Y004788D01*
X006890Y004715D01*
X006926Y004679D01*
X006722Y004832D02*
X006722Y004868D01*
X006758Y004904D01*
X006794Y004904D01*
X006722Y004868D02*
X006686Y004904D01*
X006650Y004904D01*
X006614Y004868D01*
X006614Y004796D01*
X006650Y004760D01*
X006086Y005844D02*
X005942Y005844D01*
X005905Y005880D01*
X005905Y005952D01*
X005942Y005988D01*
X005978Y006061D02*
X005905Y006133D01*
X006122Y006133D01*
X006122Y006061D02*
X006122Y006205D01*
X006086Y005988D02*
X006122Y005952D01*
X006122Y005880D01*
X006086Y005844D01*
X006483Y006615D02*
X006447Y006651D01*
X006339Y006710D02*
X006339Y006926D01*
X006447Y006926D01*
X006483Y006890D01*
X006483Y007104D02*
X006411Y007176D01*
X006437Y007810D02*
X006220Y007810D01*
X006220Y007918D01*
X006257Y007954D01*
X006329Y007954D01*
X006365Y007918D01*
X006365Y007810D01*
X006365Y007882D02*
X006437Y007954D01*
X006437Y008028D02*
X006437Y008172D01*
X006437Y008100D02*
X006220Y008100D01*
X006293Y008028D01*
X006339Y008560D02*
X006483Y008560D01*
X006556Y008560D02*
X006701Y008560D01*
X006774Y008560D02*
X006774Y008777D01*
X006882Y008777D01*
X006918Y008741D01*
X006918Y008596D01*
X006882Y008560D01*
X006774Y008560D01*
X006628Y008668D02*
X006556Y008668D01*
X006556Y008560D02*
X006556Y008777D01*
X006701Y008777D01*
X006701Y008993D02*
X006556Y008993D01*
X006556Y009210D01*
X006701Y009210D01*
X006774Y009210D02*
X006774Y008993D01*
X006882Y008993D01*
X006918Y009029D01*
X006918Y009174D01*
X006882Y009210D01*
X006774Y009210D01*
X006628Y009101D02*
X006556Y009101D01*
X006483Y008993D02*
X006339Y008993D01*
X006339Y009210D01*
X006339Y008777D02*
X006339Y008560D01*
X006991Y008560D02*
X007136Y008704D01*
X007136Y008741D01*
X007099Y008777D01*
X007027Y008777D01*
X006991Y008741D01*
X006991Y008560D02*
X007136Y008560D01*
X007136Y008993D02*
X006991Y008993D01*
X007063Y008993D02*
X007063Y009210D01*
X006991Y009138D01*
X006693Y009816D02*
X006693Y009960D01*
X006693Y009888D02*
X006909Y009888D01*
X006873Y010034D02*
X006729Y010034D01*
X006693Y010070D01*
X006693Y010142D01*
X006729Y010178D01*
X006693Y010251D02*
X006909Y010395D01*
X006873Y010469D02*
X006909Y010505D01*
X006909Y010577D01*
X006873Y010613D01*
X006729Y010613D01*
X006693Y010577D01*
X006693Y010505D01*
X006729Y010469D01*
X006873Y010469D01*
X006693Y010395D02*
X006909Y010251D01*
X006873Y010178D02*
X006909Y010142D01*
X006909Y010070D01*
X006873Y010034D01*
X006437Y010028D02*
X006437Y009956D01*
X006401Y009919D01*
X006329Y009919D02*
X006293Y009992D01*
X006293Y010028D01*
X006329Y010064D01*
X006401Y010064D01*
X006437Y010028D01*
X006401Y010137D02*
X006257Y010281D01*
X006401Y010281D01*
X006437Y010245D01*
X006437Y010173D01*
X006401Y010137D01*
X006257Y010137D01*
X006220Y010173D01*
X006220Y010245D01*
X006257Y010281D01*
X006331Y010430D02*
X006331Y010647D01*
X006223Y010538D01*
X006367Y010538D01*
X006149Y010430D02*
X006005Y010430D01*
X006077Y010430D02*
X006077Y010647D01*
X006005Y010575D01*
X005932Y010430D02*
X005788Y010430D01*
X005788Y010647D01*
X006220Y010064D02*
X006220Y009919D01*
X006329Y009919D01*
X006401Y009846D02*
X006437Y009810D01*
X006437Y009738D01*
X006401Y009702D01*
X006257Y009702D01*
X006220Y009738D01*
X006220Y009810D01*
X006257Y009846D01*
X006532Y011670D02*
X006604Y011670D01*
X006641Y011706D01*
X006714Y011779D02*
X006858Y011779D01*
X006931Y011815D02*
X006931Y011851D01*
X006967Y011887D01*
X007039Y011887D01*
X007076Y011851D01*
X007076Y011815D01*
X007039Y011779D01*
X006967Y011779D01*
X006931Y011815D01*
X006967Y011779D02*
X006931Y011743D01*
X006931Y011706D01*
X006967Y011670D01*
X007039Y011670D01*
X007076Y011706D01*
X007076Y011743D01*
X007039Y011779D01*
X006869Y012104D02*
X006869Y012140D01*
X007014Y012284D01*
X007014Y012320D01*
X006869Y012320D01*
X006724Y012320D02*
X006724Y012104D01*
X006652Y012104D02*
X006796Y012104D01*
X006652Y012248D02*
X006724Y012320D01*
X006579Y012284D02*
X006579Y012212D01*
X006542Y012176D01*
X006434Y012176D01*
X006506Y012176D02*
X006579Y012104D01*
X006434Y012104D02*
X006434Y012320D01*
X006542Y012320D01*
X006579Y012284D01*
X006604Y011887D02*
X006532Y011887D01*
X006496Y011851D01*
X006496Y011706D01*
X006532Y011670D01*
X006641Y011851D02*
X006604Y011887D01*
X006714Y011779D02*
X006822Y011887D01*
X006822Y011670D01*
X007795Y012812D02*
X007795Y013029D01*
X007904Y013029D01*
X007940Y012993D01*
X007940Y012920D01*
X007904Y012884D01*
X007795Y012884D01*
X007868Y012884D02*
X007940Y012812D01*
X008013Y012812D02*
X008157Y012812D01*
X008085Y012812D02*
X008085Y013029D01*
X008013Y012956D01*
X008230Y012920D02*
X008339Y012920D01*
X008375Y012884D01*
X008375Y012848D01*
X008339Y012812D01*
X008267Y012812D01*
X008230Y012848D01*
X008230Y012920D01*
X008303Y012993D01*
X008375Y013029D01*
X007736Y013875D02*
X007736Y013947D01*
X007736Y013911D02*
X007520Y013911D01*
X007520Y013875D02*
X007520Y013947D01*
X007556Y014020D02*
X007700Y014020D01*
X007736Y014056D01*
X007736Y014128D01*
X007700Y014164D01*
X007736Y014238D02*
X007736Y014382D01*
X007736Y014310D02*
X007520Y014310D01*
X007592Y014238D01*
X007556Y014164D02*
X007520Y014128D01*
X007520Y014056D01*
X007556Y014020D01*
X007520Y014455D02*
X007628Y014455D01*
X007592Y014527D01*
X007592Y014563D01*
X007628Y014599D01*
X007700Y014599D01*
X007736Y014563D01*
X007736Y014491D01*
X007700Y014455D01*
X007520Y014455D02*
X007520Y014599D01*
X007546Y015529D02*
X007546Y015637D01*
X007510Y015673D01*
X007438Y015673D01*
X007402Y015637D01*
X007402Y015529D01*
X007618Y015529D01*
X007546Y015601D02*
X007618Y015673D01*
X007618Y015746D02*
X007582Y015746D01*
X007438Y015890D01*
X007402Y015890D01*
X007402Y015746D01*
X006939Y016195D02*
X006939Y016231D01*
X006903Y016267D01*
X006867Y016267D01*
X006903Y016267D02*
X006939Y016303D01*
X006939Y016339D01*
X006903Y016375D01*
X006830Y016375D01*
X006794Y016339D01*
X006721Y016339D02*
X006685Y016375D01*
X006577Y016375D01*
X006577Y016159D01*
X006685Y016159D01*
X006721Y016195D01*
X006721Y016339D01*
X006794Y016195D02*
X006830Y016159D01*
X006903Y016159D01*
X006939Y016195D01*
X006504Y016159D02*
X006359Y016159D01*
X006359Y016375D01*
X006504Y016375D01*
X006432Y016267D02*
X006359Y016267D01*
X006286Y016159D02*
X006142Y016159D01*
X006142Y016375D01*
X006142Y016710D02*
X006286Y016710D01*
X006359Y016710D02*
X006504Y016710D01*
X006577Y016710D02*
X006577Y016926D01*
X006685Y016926D01*
X006721Y016890D01*
X006721Y016746D01*
X006685Y016710D01*
X006577Y016710D01*
X006432Y016818D02*
X006359Y016818D01*
X006359Y016926D02*
X006359Y016710D01*
X006359Y016926D02*
X006504Y016926D01*
X006794Y016818D02*
X006939Y016818D01*
X006903Y016710D02*
X006903Y016926D01*
X006794Y016818D01*
X006142Y016926D02*
X006142Y016710D01*
X005898Y017261D02*
X005826Y017261D01*
X005790Y017297D01*
X005790Y017333D01*
X005826Y017369D01*
X005898Y017369D01*
X005934Y017333D01*
X005934Y017297D01*
X005898Y017261D01*
X005898Y017369D02*
X005934Y017405D01*
X005934Y017441D01*
X005898Y017477D01*
X005826Y017477D01*
X005790Y017441D01*
X005790Y017405D01*
X005826Y017369D01*
X005716Y017261D02*
X005572Y017261D01*
X005644Y017261D02*
X005644Y017477D01*
X005572Y017405D01*
X005499Y017441D02*
X005463Y017477D01*
X005391Y017477D01*
X005355Y017441D01*
X005355Y017297D01*
X005391Y017261D01*
X005463Y017261D01*
X005499Y017297D01*
X005433Y017537D02*
X005433Y017753D01*
X005541Y017753D01*
X005578Y017717D01*
X005578Y017645D01*
X005541Y017609D01*
X005433Y017609D01*
X005505Y017609D02*
X005578Y017537D01*
X005651Y017573D02*
X005687Y017537D01*
X005759Y017537D01*
X005795Y017573D01*
X005795Y017645D01*
X005759Y017681D01*
X005723Y017681D01*
X005651Y017645D01*
X005651Y017753D01*
X005795Y017753D01*
X005759Y017812D02*
X005795Y017848D01*
X005795Y017884D01*
X005759Y017920D01*
X005651Y017920D01*
X005651Y017848D01*
X005687Y017812D01*
X005759Y017812D01*
X005651Y017920D02*
X005723Y017993D01*
X005795Y018029D01*
X005759Y018088D02*
X005759Y018304D01*
X005651Y018196D01*
X005795Y018196D01*
X005578Y018196D02*
X005541Y018160D01*
X005433Y018160D01*
X005433Y018088D02*
X005433Y018304D01*
X005541Y018304D01*
X005578Y018268D01*
X005578Y018196D01*
X005505Y018160D02*
X005578Y018088D01*
X005541Y018029D02*
X005578Y017993D01*
X005578Y017920D01*
X005541Y017884D01*
X005433Y017884D01*
X005433Y017812D02*
X005433Y018029D01*
X005541Y018029D01*
X005505Y017884D02*
X005578Y017812D01*
X005126Y017756D02*
X005126Y017720D01*
X005090Y017684D01*
X005018Y017684D01*
X004981Y017720D01*
X004981Y017756D01*
X005018Y017792D01*
X005090Y017792D01*
X005126Y017756D01*
X005090Y017684D02*
X005126Y017648D01*
X005126Y017612D01*
X005090Y017576D01*
X005018Y017576D01*
X004981Y017612D01*
X004981Y017648D01*
X005018Y017684D01*
X005023Y017829D02*
X004879Y017829D01*
X004843Y017865D01*
X004843Y017937D01*
X004879Y017973D01*
X004915Y018046D02*
X004843Y018119D01*
X005059Y018119D01*
X005059Y018191D02*
X005059Y018046D01*
X005023Y017973D02*
X005059Y017937D01*
X005059Y017865D01*
X005023Y017829D01*
X004764Y017792D02*
X004764Y017576D01*
X004908Y017576D01*
X004879Y018264D02*
X004843Y018300D01*
X004843Y018372D01*
X004879Y018408D01*
X004915Y018408D01*
X005059Y018264D01*
X005059Y018408D01*
X005394Y018636D02*
X005430Y018600D01*
X005574Y018600D01*
X005610Y018636D01*
X005610Y018708D01*
X005574Y018744D01*
X005610Y018817D02*
X005610Y018961D01*
X005610Y018889D02*
X005394Y018889D01*
X005466Y018817D01*
X005430Y018744D02*
X005394Y018708D01*
X005394Y018636D01*
X005502Y019035D02*
X005502Y019179D01*
X005610Y019143D02*
X005394Y019143D01*
X005502Y019035D01*
X005709Y019071D02*
X005709Y019143D01*
X005745Y019179D01*
X005781Y019179D01*
X005817Y019143D01*
X005853Y019179D01*
X005889Y019179D01*
X005925Y019143D01*
X005925Y019071D01*
X005889Y019035D01*
X005925Y018961D02*
X005925Y018817D01*
X005925Y018889D02*
X005709Y018889D01*
X005781Y018817D01*
X005745Y018744D02*
X005709Y018708D01*
X005709Y018636D01*
X005745Y018600D01*
X005889Y018600D01*
X005925Y018636D01*
X005925Y018708D01*
X005889Y018744D01*
X005745Y019035D02*
X005709Y019071D01*
X005817Y019107D02*
X005817Y019143D01*
X004848Y019226D02*
X004848Y019262D01*
X004812Y019298D01*
X004704Y019298D01*
X004704Y019226D01*
X004740Y019190D01*
X004812Y019190D01*
X004848Y019226D01*
X004776Y019370D02*
X004704Y019298D01*
X004776Y019370D02*
X004848Y019407D01*
X004631Y019190D02*
X004486Y019190D01*
X004559Y019190D02*
X004559Y019407D01*
X004486Y019334D01*
X004413Y019370D02*
X004377Y019407D01*
X004305Y019407D01*
X004269Y019370D01*
X004269Y019226D01*
X004305Y019190D01*
X004377Y019190D01*
X004413Y019226D01*
X004417Y019092D02*
X004417Y019055D01*
X004273Y018911D01*
X004273Y018875D01*
X004200Y018875D02*
X004055Y018875D01*
X004055Y019092D01*
X004273Y019092D02*
X004417Y019092D01*
X004381Y018737D02*
X004309Y018737D01*
X004273Y018701D01*
X004273Y018665D01*
X004309Y018629D01*
X004417Y018629D01*
X004417Y018557D02*
X004417Y018701D01*
X004381Y018737D01*
X004417Y018557D02*
X004381Y018521D01*
X004309Y018521D01*
X004273Y018557D01*
X004200Y018521D02*
X004055Y018521D01*
X004055Y018737D01*
X003602Y019663D02*
X003386Y019663D01*
X003602Y019663D02*
X003602Y019807D01*
X003602Y019880D02*
X003602Y020024D01*
X003602Y019952D02*
X003386Y019952D01*
X003458Y019880D01*
X003422Y020098D02*
X003386Y020134D01*
X003386Y020206D01*
X003422Y020242D01*
X003566Y020098D01*
X003602Y020134D01*
X003602Y020206D01*
X003566Y020242D01*
X003422Y020242D01*
X003422Y020098D02*
X003566Y020098D01*
X003133Y019158D02*
X003097Y019158D01*
X003061Y019122D01*
X003061Y019014D01*
X003133Y019014D01*
X003169Y019050D01*
X003169Y019122D01*
X003133Y019158D01*
X002989Y019086D02*
X003061Y019014D01*
X002989Y019086D02*
X002953Y019158D01*
X003169Y018941D02*
X003169Y018796D01*
X002953Y018796D01*
X002582Y019663D02*
X002438Y019663D01*
X002402Y019699D01*
X002402Y019771D01*
X002438Y019807D01*
X002474Y019880D02*
X002402Y019952D01*
X002618Y019952D01*
X002618Y019880D02*
X002618Y020024D01*
X002618Y020098D02*
X002582Y020098D01*
X002438Y020242D01*
X002402Y020242D01*
X002402Y020098D01*
X002582Y019807D02*
X002618Y019771D01*
X002618Y019699D01*
X002582Y019663D01*
X001988Y019261D02*
X001988Y019189D01*
X001952Y019153D01*
X001880Y019153D02*
X001844Y019225D01*
X001844Y019261D01*
X001880Y019297D01*
X001952Y019297D01*
X001988Y019261D01*
X001880Y019153D02*
X001772Y019153D01*
X001772Y019297D01*
X001772Y019007D02*
X001988Y019007D01*
X001988Y018935D02*
X001988Y019079D01*
X001844Y018935D02*
X001772Y019007D01*
X001808Y018862D02*
X001772Y018826D01*
X001772Y018754D01*
X001808Y018718D01*
X001952Y018718D01*
X001988Y018754D01*
X001988Y018826D01*
X001952Y018862D01*
X001919Y018211D02*
X001919Y018067D01*
X001811Y018175D01*
X002027Y018175D01*
X002027Y017994D02*
X002027Y017850D01*
X001883Y017994D01*
X001847Y017994D01*
X001811Y017958D01*
X001811Y017886D01*
X001847Y017850D01*
X001847Y017776D02*
X001811Y017740D01*
X001811Y017668D01*
X001847Y017632D01*
X001991Y017632D01*
X002027Y017668D01*
X002027Y017740D01*
X001991Y017776D01*
X002025Y015784D02*
X001989Y015748D01*
X002025Y015784D02*
X002098Y015784D01*
X002134Y015748D01*
X002134Y015712D01*
X001989Y015568D01*
X002134Y015568D01*
X002098Y015509D02*
X002025Y015509D01*
X001989Y015473D01*
X001916Y015473D02*
X001880Y015509D01*
X001808Y015509D01*
X001772Y015473D01*
X001772Y015329D01*
X001808Y015292D01*
X001880Y015292D01*
X001916Y015329D01*
X001989Y015292D02*
X002134Y015437D01*
X002134Y015473D01*
X002098Y015509D01*
X002207Y015473D02*
X002207Y015329D01*
X002351Y015473D01*
X002351Y015329D01*
X002315Y015292D01*
X002243Y015292D01*
X002207Y015329D01*
X002134Y015292D02*
X001989Y015292D01*
X002025Y015233D02*
X001989Y015197D01*
X002025Y015233D02*
X002098Y015233D01*
X002134Y015197D01*
X002134Y015161D01*
X001989Y015017D01*
X002134Y015017D01*
X002207Y015017D02*
X002351Y015017D01*
X002279Y015017D02*
X002279Y015233D01*
X002207Y015161D01*
X002207Y015473D02*
X002243Y015509D01*
X002315Y015509D01*
X002351Y015473D01*
X002351Y015568D02*
X002207Y015568D01*
X002351Y015712D01*
X002351Y015748D01*
X002315Y015784D01*
X002243Y015784D01*
X002207Y015748D01*
X001916Y015748D02*
X001880Y015784D01*
X001808Y015784D01*
X001772Y015748D01*
X001772Y015604D01*
X001808Y015568D01*
X001880Y015568D01*
X001916Y015604D01*
X001880Y015233D02*
X001808Y015233D01*
X001772Y015197D01*
X001772Y015053D01*
X001808Y015017D01*
X001880Y015017D01*
X001916Y015053D01*
X001916Y015197D02*
X001880Y015233D01*
X003071Y014809D02*
X003107Y014737D01*
X003179Y014665D01*
X003179Y014773D01*
X003215Y014809D01*
X003251Y014809D01*
X003287Y014773D01*
X003287Y014701D01*
X003251Y014665D01*
X003179Y014665D01*
X003179Y014591D02*
X003179Y014447D01*
X003071Y014555D01*
X003287Y014555D01*
X003251Y014374D02*
X003287Y014338D01*
X003287Y014266D01*
X003251Y014229D01*
X003107Y014229D01*
X003071Y014266D01*
X003071Y014338D01*
X003107Y014374D01*
X003465Y014387D02*
X003465Y014170D01*
X003609Y014170D01*
X003682Y014170D02*
X003827Y014170D01*
X003754Y014170D02*
X003754Y014387D01*
X003682Y014315D01*
X003900Y014351D02*
X003936Y014387D01*
X004008Y014387D01*
X004044Y014351D01*
X004044Y014315D01*
X004008Y014279D01*
X004044Y014243D01*
X004044Y014206D01*
X004008Y014170D01*
X003936Y014170D01*
X003900Y014206D01*
X003972Y014279D02*
X004008Y014279D01*
X004134Y014253D02*
X004134Y014325D01*
X004170Y014361D01*
X004206Y014435D02*
X004134Y014507D01*
X004350Y014507D01*
X004350Y014435D02*
X004350Y014579D01*
X004314Y014652D02*
X004350Y014688D01*
X004350Y014760D01*
X004314Y014796D01*
X004278Y014796D01*
X004242Y014760D01*
X004242Y014652D01*
X004314Y014652D01*
X004242Y014652D02*
X004170Y014724D01*
X004134Y014796D01*
X004075Y014788D02*
X003858Y014788D01*
X003858Y014752D02*
X003858Y014824D01*
X003894Y014897D02*
X004039Y014897D01*
X004075Y014933D01*
X004075Y015005D01*
X004039Y015041D01*
X004075Y015114D02*
X003930Y015259D01*
X003894Y015259D01*
X003858Y015223D01*
X003858Y015150D01*
X003894Y015114D01*
X003894Y015041D02*
X003858Y015005D01*
X003858Y014933D01*
X003894Y014897D01*
X004075Y014824D02*
X004075Y014752D01*
X004075Y015114D02*
X004075Y015259D01*
X004524Y014826D02*
X004560Y014826D01*
X004596Y014789D01*
X004632Y014826D01*
X004669Y014826D01*
X004705Y014789D01*
X004705Y014717D01*
X004669Y014681D01*
X004669Y014608D02*
X004705Y014572D01*
X004705Y014500D01*
X004669Y014464D01*
X004524Y014464D01*
X004488Y014500D01*
X004488Y014572D01*
X004524Y014608D01*
X004524Y014681D02*
X004488Y014717D01*
X004488Y014789D01*
X004524Y014826D01*
X004596Y014789D02*
X004596Y014753D01*
X004488Y014391D02*
X004488Y014319D01*
X004488Y014355D02*
X004705Y014355D01*
X004705Y014319D02*
X004705Y014391D01*
X004961Y014174D02*
X004961Y014029D01*
X004997Y013993D01*
X005069Y013993D01*
X005105Y014029D01*
X005178Y014029D02*
X005214Y013993D01*
X005287Y013993D01*
X005323Y014029D01*
X005323Y014101D01*
X005287Y014138D01*
X005250Y014138D01*
X005178Y014101D01*
X005178Y014210D01*
X005323Y014210D01*
X005396Y014174D02*
X005432Y014210D01*
X005504Y014210D01*
X005540Y014174D01*
X005540Y014138D01*
X005396Y013993D01*
X005540Y013993D01*
X005748Y014031D02*
X005748Y014103D01*
X005784Y014139D01*
X005820Y014139D01*
X005856Y014103D01*
X005856Y014031D01*
X005820Y013995D01*
X005784Y013995D01*
X005748Y014031D01*
X005856Y014031D02*
X005892Y013995D01*
X005928Y013995D01*
X005964Y014031D01*
X005964Y014103D01*
X005928Y014139D01*
X005892Y014139D01*
X005856Y014103D01*
X005964Y013922D02*
X005964Y013778D01*
X005964Y013850D02*
X005748Y013850D01*
X005820Y013778D01*
X005784Y013704D02*
X005856Y013704D01*
X005892Y013668D01*
X005892Y013560D01*
X005892Y013632D02*
X005964Y013704D01*
X005964Y013560D02*
X005748Y013560D01*
X005748Y013668D01*
X005784Y013704D01*
X006221Y013462D02*
X006221Y013245D01*
X006221Y013317D02*
X006329Y013317D01*
X006365Y013353D01*
X006365Y013426D01*
X006329Y013462D01*
X006221Y013462D01*
X006293Y013317D02*
X006365Y013245D01*
X006438Y013245D02*
X006582Y013245D01*
X006510Y013245D02*
X006510Y013462D01*
X006438Y013390D01*
X006656Y013390D02*
X006656Y013426D01*
X006692Y013462D01*
X006764Y013462D01*
X006800Y013426D01*
X006800Y013281D01*
X006764Y013245D01*
X006692Y013245D01*
X006656Y013281D01*
X006692Y013353D02*
X006800Y013353D01*
X006692Y013353D02*
X006656Y013390D01*
X007008Y013396D02*
X007116Y013396D01*
X007152Y013432D01*
X007152Y013504D01*
X007116Y013540D01*
X007008Y013540D01*
X007008Y013324D01*
X007080Y013396D02*
X007152Y013324D01*
X007226Y013324D02*
X007370Y013324D01*
X007298Y013324D02*
X007298Y013540D01*
X007226Y013468D01*
X007443Y013432D02*
X007515Y013468D01*
X007551Y013468D01*
X007587Y013432D01*
X007587Y013360D01*
X007551Y013324D01*
X007479Y013324D01*
X007443Y013360D01*
X007443Y013432D02*
X007443Y013540D01*
X007587Y013540D01*
X006755Y014505D02*
X006791Y014541D01*
X006791Y014613D01*
X006755Y014649D01*
X006791Y014723D02*
X006647Y014867D01*
X006611Y014867D01*
X006575Y014831D01*
X006575Y014759D01*
X006611Y014723D01*
X006611Y014649D02*
X006575Y014613D01*
X006575Y014541D01*
X006611Y014505D01*
X006755Y014505D01*
X006791Y014723D02*
X006791Y014867D01*
X006755Y014940D02*
X006791Y014976D01*
X006791Y015048D01*
X006755Y015084D01*
X006683Y015084D01*
X006647Y015048D01*
X006647Y015012D01*
X006683Y014940D01*
X006575Y014940D01*
X006575Y015084D01*
X006516Y015529D02*
X006299Y015529D01*
X006299Y015637D01*
X006335Y015673D01*
X006407Y015673D01*
X006443Y015637D01*
X006443Y015529D01*
X006443Y015601D02*
X006516Y015673D01*
X006480Y015746D02*
X006443Y015746D01*
X006407Y015782D01*
X006407Y015854D01*
X006443Y015890D01*
X006480Y015890D01*
X006516Y015854D01*
X006516Y015782D01*
X006480Y015746D01*
X006407Y015782D02*
X006371Y015746D01*
X006335Y015746D01*
X006299Y015782D01*
X006299Y015854D01*
X006335Y015890D01*
X006371Y015890D01*
X006407Y015854D01*
X005698Y015748D02*
X005661Y015784D01*
X005589Y015784D01*
X005553Y015748D01*
X005553Y015712D01*
X005589Y015676D01*
X005698Y015676D01*
X005698Y015604D02*
X005698Y015748D01*
X005698Y015604D02*
X005661Y015568D01*
X005589Y015568D01*
X005553Y015604D01*
X005480Y015568D02*
X005336Y015568D01*
X005408Y015568D02*
X005408Y015784D01*
X005336Y015712D01*
X005263Y015748D02*
X005226Y015784D01*
X005154Y015784D01*
X005118Y015748D01*
X005118Y015604D01*
X005154Y015568D01*
X005226Y015568D01*
X005263Y015604D01*
X004314Y014361D02*
X004350Y014325D01*
X004350Y014253D01*
X004314Y014217D01*
X004170Y014217D01*
X004134Y014253D01*
X004134Y014144D02*
X004134Y014072D01*
X004134Y014108D02*
X004350Y014108D01*
X004350Y014072D02*
X004350Y014144D01*
X004961Y014174D02*
X004997Y014210D01*
X005069Y014210D01*
X005105Y014174D01*
X004247Y012477D02*
X004247Y012261D01*
X004175Y012261D02*
X004320Y012261D01*
X004288Y012188D02*
X004252Y012152D01*
X004252Y012080D01*
X004288Y012043D01*
X004324Y012043D01*
X004360Y012080D01*
X004360Y012188D01*
X004432Y012188D02*
X004288Y012188D01*
X004432Y012188D02*
X004468Y012152D01*
X004468Y012080D01*
X004432Y012043D01*
X004432Y011970D02*
X004468Y011934D01*
X004468Y011862D01*
X004432Y011826D01*
X004288Y011826D01*
X004252Y011862D01*
X004252Y011934D01*
X004288Y011970D01*
X004252Y011753D02*
X004252Y011681D01*
X004252Y011717D02*
X004468Y011717D01*
X004468Y011681D02*
X004468Y011753D01*
X004102Y012261D02*
X003958Y012261D01*
X004102Y012405D01*
X004102Y012441D01*
X004066Y012477D01*
X003994Y012477D01*
X003958Y012441D01*
X003885Y012441D02*
X003885Y012369D01*
X003849Y012333D01*
X003740Y012333D01*
X003740Y012261D02*
X003740Y012477D01*
X003849Y012477D01*
X003885Y012441D01*
X003812Y012333D02*
X003885Y012261D01*
X004175Y012405D02*
X004247Y012477D01*
X003414Y012441D02*
X003414Y012297D01*
X003378Y012261D01*
X003306Y012261D01*
X003270Y012297D01*
X003414Y012441D01*
X003378Y012477D01*
X003306Y012477D01*
X003270Y012441D01*
X003270Y012297D01*
X003197Y012261D02*
X003052Y012261D01*
X003197Y012405D01*
X003197Y012441D01*
X003161Y012477D01*
X003088Y012477D01*
X003052Y012441D01*
X002979Y012441D02*
X002979Y012369D01*
X002943Y012333D01*
X002835Y012333D01*
X002907Y012333D02*
X002979Y012261D01*
X002835Y012261D02*
X002835Y012477D01*
X002943Y012477D01*
X002979Y012441D01*
X002989Y010273D02*
X002989Y010056D01*
X002953Y010056D02*
X003025Y010056D01*
X003098Y010092D02*
X003098Y010237D01*
X003134Y010273D01*
X003206Y010273D01*
X003242Y010237D01*
X003315Y010273D02*
X003460Y010273D01*
X003460Y010237D01*
X003315Y010092D01*
X003315Y010056D01*
X003242Y010092D02*
X003206Y010056D01*
X003134Y010056D01*
X003098Y010092D01*
X003025Y010273D02*
X002953Y010273D01*
X002982Y009721D02*
X002874Y009721D01*
X002874Y009505D01*
X002874Y009446D02*
X002982Y009446D01*
X003018Y009410D01*
X003018Y009338D01*
X002982Y009302D01*
X002874Y009302D01*
X002946Y009302D02*
X003018Y009229D01*
X003039Y009170D02*
X002966Y009170D01*
X002930Y009134D01*
X002930Y008990D01*
X002966Y008954D01*
X003039Y008954D01*
X003075Y008990D01*
X003148Y009062D02*
X003292Y009062D01*
X003365Y009062D02*
X003437Y009098D01*
X003474Y009098D01*
X003510Y009062D01*
X003510Y008990D01*
X003474Y008954D01*
X003401Y008954D01*
X003365Y008990D01*
X003365Y009062D02*
X003365Y009170D01*
X003510Y009170D01*
X003417Y009229D02*
X003417Y009446D01*
X003309Y009338D01*
X003453Y009338D01*
X003417Y009505D02*
X003345Y009505D01*
X003309Y009541D01*
X003236Y009505D02*
X003092Y009505D01*
X003164Y009505D02*
X003164Y009721D01*
X003092Y009649D01*
X003018Y009613D02*
X002982Y009577D01*
X002874Y009577D01*
X002946Y009577D02*
X003018Y009505D01*
X003018Y009613D02*
X003018Y009685D01*
X002982Y009721D01*
X002874Y009446D02*
X002874Y009229D01*
X003039Y009170D02*
X003075Y009134D01*
X003092Y009229D02*
X003236Y009229D01*
X003256Y009170D02*
X003148Y009062D01*
X003256Y008954D02*
X003256Y009170D01*
X003164Y009229D02*
X003164Y009446D01*
X003092Y009374D01*
X003309Y009685D02*
X003345Y009721D01*
X003417Y009721D01*
X003453Y009685D01*
X003453Y009649D01*
X003417Y009613D01*
X003453Y009577D01*
X003453Y009541D01*
X003417Y009505D01*
X003417Y009613D02*
X003381Y009613D01*
X003557Y010056D02*
X003629Y010056D01*
X003665Y010092D01*
X003738Y010164D02*
X003883Y010164D01*
X003956Y010092D02*
X003956Y010056D01*
X003956Y010092D02*
X004100Y010237D01*
X004100Y010273D01*
X003956Y010273D01*
X003847Y010273D02*
X003738Y010164D01*
X003665Y010237D02*
X003629Y010273D01*
X003557Y010273D01*
X003521Y010237D01*
X003521Y010092D01*
X003557Y010056D01*
X003847Y010056D02*
X003847Y010273D01*
X004173Y010048D02*
X004173Y009976D01*
X004209Y009940D01*
X004245Y009940D01*
X004281Y009976D01*
X004281Y010084D01*
X004209Y010084D02*
X004354Y010084D01*
X004390Y010048D01*
X004390Y009976D01*
X004354Y009940D01*
X004281Y009867D02*
X004281Y009723D01*
X004173Y009831D01*
X004390Y009831D01*
X004354Y009649D02*
X004390Y009613D01*
X004390Y009541D01*
X004354Y009505D01*
X004209Y009505D01*
X004173Y009541D01*
X004173Y009613D01*
X004209Y009649D01*
X003996Y009421D02*
X003996Y009277D01*
X003996Y009349D02*
X003780Y009349D01*
X003852Y009277D01*
X003816Y009204D02*
X003780Y009168D01*
X003780Y009096D01*
X003816Y009060D01*
X003960Y009060D01*
X003996Y009096D01*
X003996Y009168D01*
X003960Y009204D01*
X003996Y008987D02*
X003996Y008915D01*
X003996Y008951D02*
X003780Y008951D01*
X003780Y008915D02*
X003780Y008987D01*
X004134Y008942D02*
X004134Y008834D01*
X004350Y008834D01*
X004278Y008834D02*
X004278Y008942D01*
X004242Y008978D01*
X004170Y008978D01*
X004134Y008942D01*
X004170Y009051D02*
X004134Y009087D01*
X004134Y009160D01*
X004170Y009196D01*
X004206Y009196D01*
X004350Y009051D01*
X004350Y009196D01*
X004350Y008978D02*
X004278Y008906D01*
X004173Y010048D02*
X004209Y010084D01*
X002373Y007359D02*
X002409Y007323D01*
X002409Y007287D01*
X002373Y007251D01*
X002301Y007251D01*
X002265Y007287D01*
X002265Y007323D01*
X002301Y007359D01*
X002373Y007359D01*
X002373Y007251D02*
X002409Y007215D01*
X002409Y007179D01*
X002373Y007143D01*
X002301Y007143D01*
X002265Y007179D01*
X002265Y007215D01*
X002301Y007251D01*
X002192Y007179D02*
X002156Y007143D01*
X002083Y007143D01*
X002047Y007179D01*
X002047Y007323D01*
X002083Y007359D01*
X002156Y007359D01*
X002192Y007323D01*
X001949Y007253D02*
X001949Y007181D01*
X001913Y007145D01*
X001877Y007145D01*
X001840Y007181D01*
X001840Y007253D01*
X001877Y007289D01*
X001913Y007289D01*
X001949Y007253D01*
X001840Y007253D02*
X001804Y007289D01*
X001768Y007289D01*
X001732Y007253D01*
X001732Y007181D01*
X001768Y007145D01*
X001804Y007145D01*
X001840Y007181D01*
X001877Y007072D02*
X001840Y007036D01*
X001840Y006927D01*
X001913Y006927D01*
X001949Y006963D01*
X001949Y007036D01*
X001913Y007072D01*
X001877Y007072D01*
X001768Y006999D02*
X001840Y006927D01*
X001768Y006999D02*
X001732Y007072D01*
X001768Y006854D02*
X001732Y006818D01*
X001732Y006746D01*
X001768Y006710D01*
X001913Y006710D01*
X001949Y006746D01*
X001949Y006818D01*
X001913Y006854D01*
X001913Y006541D02*
X001768Y006541D01*
X001732Y006505D01*
X001732Y006433D01*
X001768Y006397D01*
X001804Y006397D01*
X001840Y006433D01*
X001840Y006541D01*
X001913Y006541D02*
X001949Y006505D01*
X001949Y006433D01*
X001913Y006397D01*
X001913Y006324D02*
X001877Y006324D01*
X001840Y006287D01*
X001840Y006179D01*
X001913Y006179D01*
X001949Y006215D01*
X001949Y006287D01*
X001913Y006324D01*
X001768Y006251D02*
X001840Y006179D01*
X001768Y006251D02*
X001732Y006324D01*
X001768Y006106D02*
X001732Y006070D01*
X001732Y005998D01*
X001768Y005962D01*
X001913Y005962D01*
X001949Y005998D01*
X001949Y006070D01*
X001913Y006106D01*
X001950Y007418D02*
X001950Y007455D01*
X002094Y007599D01*
X002094Y007635D01*
X001950Y007635D01*
X001877Y007599D02*
X001841Y007635D01*
X001769Y007635D01*
X001732Y007599D01*
X001732Y007455D01*
X001769Y007418D01*
X001841Y007418D01*
X001877Y007455D01*
X003465Y004494D02*
X003501Y004422D01*
X003573Y004350D01*
X003573Y004458D01*
X003609Y004494D01*
X003645Y004494D01*
X003681Y004458D01*
X003681Y004386D01*
X003645Y004350D01*
X003573Y004350D01*
X003609Y004276D02*
X003573Y004240D01*
X003573Y004132D01*
X003645Y004132D01*
X003681Y004168D01*
X003681Y004240D01*
X003645Y004276D01*
X003609Y004276D01*
X003501Y004204D02*
X003573Y004132D01*
X003501Y004204D02*
X003465Y004276D01*
X003501Y004059D02*
X003465Y004023D01*
X003465Y003951D01*
X003501Y003915D01*
X003645Y003915D01*
X003681Y003951D01*
X003681Y004023D01*
X003645Y004059D01*
X003645Y003825D02*
X003681Y003788D01*
X003681Y003716D01*
X003645Y003680D01*
X003609Y003680D01*
X003573Y003716D01*
X003573Y003788D01*
X003609Y003825D01*
X003645Y003825D01*
X003573Y003788D02*
X003537Y003825D01*
X003501Y003825D01*
X003465Y003788D01*
X003465Y003716D01*
X003501Y003680D01*
X003537Y003680D01*
X003573Y003716D01*
X003537Y003607D02*
X003501Y003607D01*
X003465Y003571D01*
X003465Y003499D01*
X003501Y003463D01*
X003501Y003390D02*
X003573Y003390D01*
X003609Y003353D01*
X003609Y003245D01*
X003681Y003245D02*
X003465Y003245D01*
X003465Y003353D01*
X003501Y003390D01*
X003609Y003317D02*
X003681Y003390D01*
X003681Y003463D02*
X003537Y003607D01*
X003681Y003607D02*
X003681Y003463D01*
X006378Y002556D02*
X006378Y002340D01*
X006378Y002412D02*
X006486Y002412D01*
X006522Y002448D01*
X006522Y002520D01*
X006486Y002556D01*
X006378Y002556D01*
X006450Y002412D02*
X006522Y002340D01*
X006526Y002241D02*
X006562Y002205D01*
X006562Y002133D01*
X006526Y002097D01*
X006417Y002097D01*
X006417Y002025D02*
X006417Y002241D01*
X006526Y002241D01*
X006635Y002205D02*
X006671Y002241D01*
X006743Y002241D01*
X006779Y002205D01*
X006779Y002169D01*
X006743Y002133D01*
X006779Y002097D01*
X006779Y002061D01*
X006743Y002025D01*
X006671Y002025D01*
X006635Y002061D01*
X006562Y002025D02*
X006490Y002097D01*
X006707Y002133D02*
X006743Y002133D01*
X006853Y002169D02*
X006889Y002133D01*
X006997Y002133D01*
X006997Y002061D02*
X006997Y002205D01*
X006961Y002241D01*
X006889Y002241D01*
X006853Y002205D01*
X006853Y002169D01*
X006853Y002061D02*
X006889Y002025D01*
X006961Y002025D01*
X006997Y002061D01*
X006921Y002340D02*
X006849Y002340D01*
X006813Y002376D01*
X006957Y002520D01*
X006957Y002376D01*
X006921Y002340D01*
X006813Y002376D02*
X006813Y002520D01*
X006849Y002556D01*
X006921Y002556D01*
X006957Y002520D01*
X006740Y002448D02*
X006596Y002448D01*
X006704Y002556D01*
X006704Y002340D01*
X009252Y004348D02*
X009252Y004564D01*
X009360Y004564D01*
X009396Y004528D01*
X009396Y004456D01*
X009360Y004420D01*
X009252Y004420D01*
X009324Y004420D02*
X009396Y004348D01*
X009470Y004348D02*
X009614Y004492D01*
X009614Y004528D01*
X009578Y004564D01*
X009506Y004564D01*
X009470Y004528D01*
X009470Y004348D02*
X009614Y004348D01*
X009687Y004384D02*
X009723Y004348D01*
X009795Y004348D01*
X009831Y004384D01*
X009831Y004456D01*
X009795Y004492D01*
X009759Y004492D01*
X009687Y004456D01*
X009687Y004564D01*
X009831Y004564D01*
X010197Y004659D02*
X010233Y004623D01*
X010305Y004623D01*
X010341Y004659D01*
X010415Y004731D02*
X010523Y004840D01*
X010523Y004623D01*
X010559Y004731D02*
X010415Y004731D01*
X010341Y004804D02*
X010305Y004840D01*
X010233Y004840D01*
X010197Y004804D01*
X010197Y004659D01*
X010233Y004938D02*
X010197Y004974D01*
X010197Y005118D01*
X010233Y005155D01*
X010305Y005155D01*
X010341Y005118D01*
X010415Y005155D02*
X010415Y005046D01*
X010487Y005082D01*
X010523Y005082D01*
X010559Y005046D01*
X010559Y004974D01*
X010523Y004938D01*
X010451Y004938D01*
X010415Y004974D01*
X010341Y004974D02*
X010305Y004938D01*
X010233Y004938D01*
X010415Y005155D02*
X010559Y005155D01*
X010632Y005046D02*
X010776Y005046D01*
X010740Y004938D02*
X010740Y005155D01*
X010632Y005046D01*
X010668Y004840D02*
X010740Y004840D01*
X010776Y004804D01*
X010776Y004767D01*
X010740Y004731D01*
X010776Y004695D01*
X010776Y004659D01*
X010740Y004623D01*
X010668Y004623D01*
X010632Y004659D01*
X010704Y004731D02*
X010740Y004731D01*
X010632Y004804D02*
X010668Y004840D01*
X010902Y004918D02*
X010902Y004702D01*
X011046Y004702D01*
X011119Y004702D02*
X011264Y004702D01*
X011337Y004702D02*
X011337Y004918D01*
X011445Y004918D01*
X011481Y004882D01*
X011481Y004738D01*
X011445Y004702D01*
X011337Y004702D01*
X011191Y004810D02*
X011119Y004810D01*
X011119Y004918D02*
X011119Y004702D01*
X011119Y004918D02*
X011264Y004918D01*
X011554Y004882D02*
X011554Y004846D01*
X011590Y004810D01*
X011699Y004810D01*
X011699Y004738D02*
X011699Y004882D01*
X011663Y004918D01*
X011590Y004918D01*
X011554Y004882D01*
X011554Y004738D02*
X011590Y004702D01*
X011663Y004702D01*
X011699Y004738D01*
X011348Y005332D02*
X011275Y005332D01*
X011239Y005368D01*
X011239Y005404D01*
X011275Y005440D01*
X011348Y005440D01*
X011384Y005404D01*
X011384Y005368D01*
X011348Y005332D01*
X011348Y005440D02*
X011384Y005476D01*
X011384Y005512D01*
X011348Y005548D01*
X011275Y005548D01*
X011239Y005512D01*
X011239Y005476D01*
X011275Y005440D01*
X011166Y005368D02*
X011166Y005512D01*
X011130Y005548D01*
X011022Y005548D01*
X011022Y005332D01*
X011130Y005332D01*
X011166Y005368D01*
X010949Y005332D02*
X010804Y005332D01*
X010804Y005548D01*
X010949Y005548D01*
X011007Y005647D02*
X010862Y005647D01*
X010862Y005863D01*
X011080Y005863D02*
X011080Y005647D01*
X011224Y005647D01*
X011297Y005647D02*
X011297Y005863D01*
X011406Y005863D01*
X011442Y005827D01*
X011442Y005683D01*
X011406Y005647D01*
X011297Y005647D01*
X011152Y005755D02*
X011080Y005755D01*
X011080Y005863D02*
X011224Y005863D01*
X011217Y006041D02*
X011181Y006077D01*
X011181Y006149D01*
X011217Y006185D01*
X011361Y006185D01*
X011397Y006149D01*
X011397Y006077D01*
X011361Y006041D01*
X011217Y006041D01*
X011325Y006113D02*
X011397Y006185D01*
X011397Y006258D02*
X011253Y006402D01*
X011217Y006402D01*
X011181Y006366D01*
X011181Y006294D01*
X011217Y006258D01*
X011397Y006258D02*
X011397Y006402D01*
X011515Y005863D02*
X011659Y005863D01*
X011659Y005827D01*
X011515Y005683D01*
X011515Y005647D01*
X010876Y005440D02*
X010804Y005440D01*
X010731Y005332D02*
X010587Y005332D01*
X010587Y005548D01*
X009547Y005442D02*
X009547Y005370D01*
X009511Y005334D01*
X009367Y005478D01*
X009511Y005478D01*
X009547Y005442D01*
X009511Y005334D02*
X009367Y005334D01*
X009331Y005370D01*
X009331Y005442D01*
X009367Y005478D01*
X009439Y005261D02*
X009439Y005116D01*
X009331Y005224D01*
X009547Y005224D01*
X009511Y005043D02*
X009547Y005007D01*
X009547Y004935D01*
X009511Y004899D01*
X009367Y004899D01*
X009331Y004935D01*
X009331Y005007D01*
X009367Y005043D01*
X009396Y006159D02*
X009360Y006195D01*
X009504Y006339D01*
X009504Y006195D01*
X009468Y006159D01*
X009396Y006159D01*
X009360Y006195D02*
X009360Y006339D01*
X009396Y006375D01*
X009468Y006375D01*
X009504Y006339D01*
X009286Y006159D02*
X009142Y006159D01*
X009214Y006159D02*
X009214Y006375D01*
X009142Y006303D01*
X009069Y006339D02*
X009033Y006375D01*
X008961Y006375D01*
X008925Y006339D01*
X008925Y006195D01*
X008961Y006159D01*
X009033Y006159D01*
X009069Y006195D01*
X008852Y006159D02*
X008780Y006159D01*
X008816Y006159D02*
X008816Y006375D01*
X008780Y006375D02*
X008852Y006375D01*
X008205Y006159D02*
X008061Y006159D01*
X008133Y006159D02*
X008133Y006375D01*
X008061Y006303D01*
X007987Y006159D02*
X007843Y006159D01*
X007915Y006159D02*
X007915Y006375D01*
X007843Y006303D01*
X007770Y006339D02*
X007734Y006375D01*
X007662Y006375D01*
X007625Y006339D01*
X007625Y006195D01*
X007662Y006159D01*
X007734Y006159D01*
X007770Y006195D01*
X007553Y006159D02*
X007480Y006159D01*
X007517Y006159D02*
X007517Y006375D01*
X007553Y006375D02*
X007480Y006375D01*
X007713Y007655D02*
X007786Y007655D01*
X007822Y007691D01*
X007895Y007691D02*
X007931Y007655D01*
X008003Y007655D01*
X008039Y007691D01*
X008039Y007763D01*
X008003Y007799D01*
X007967Y007799D01*
X007895Y007763D01*
X007895Y007871D01*
X008039Y007871D01*
X008112Y007763D02*
X008221Y007763D01*
X008257Y007727D01*
X008257Y007691D01*
X008221Y007655D01*
X008148Y007655D01*
X008112Y007691D01*
X008112Y007763D01*
X008184Y007835D01*
X008257Y007871D01*
X007822Y007835D02*
X007786Y007871D01*
X007713Y007871D01*
X007677Y007835D01*
X007677Y007691D01*
X007713Y007655D01*
X008996Y007930D02*
X008996Y008147D01*
X009104Y008147D01*
X009141Y008111D01*
X009141Y008038D01*
X009104Y008002D01*
X008996Y008002D01*
X009068Y008002D02*
X009141Y007930D01*
X009214Y007930D02*
X009358Y007930D01*
X009286Y007930D02*
X009286Y008147D01*
X009214Y008075D01*
X009431Y008111D02*
X009467Y008147D01*
X009539Y008147D01*
X009576Y008111D01*
X009576Y008075D01*
X009431Y007930D01*
X009576Y007930D01*
X009662Y007399D02*
X009626Y007363D01*
X009626Y007218D01*
X009662Y007182D01*
X009734Y007182D01*
X009770Y007218D01*
X009844Y007218D02*
X009880Y007182D01*
X009952Y007182D01*
X009988Y007218D01*
X009988Y007290D01*
X009952Y007327D01*
X009916Y007327D01*
X009844Y007290D01*
X009844Y007399D01*
X009988Y007399D01*
X010061Y007363D02*
X010097Y007399D01*
X010169Y007399D01*
X010205Y007363D01*
X010205Y007327D01*
X010169Y007290D01*
X010205Y007254D01*
X010205Y007218D01*
X010169Y007182D01*
X010097Y007182D01*
X010061Y007218D01*
X010133Y007290D02*
X010169Y007290D01*
X009770Y007363D02*
X009734Y007399D01*
X009662Y007399D01*
X010726Y007241D02*
X010726Y007025D01*
X010726Y007097D02*
X010834Y007097D01*
X010870Y007133D01*
X010870Y007205D01*
X010834Y007241D01*
X010726Y007241D01*
X010798Y007097D02*
X010870Y007025D01*
X010943Y007025D02*
X011087Y007169D01*
X011087Y007205D01*
X011051Y007241D01*
X010979Y007241D01*
X010943Y007205D01*
X010943Y007025D02*
X011087Y007025D01*
X011161Y007025D02*
X011305Y007169D01*
X011305Y007205D01*
X011269Y007241D01*
X011197Y007241D01*
X011161Y007205D01*
X011161Y007025D02*
X011305Y007025D01*
X011851Y006966D02*
X011851Y006749D01*
X011995Y006749D01*
X012068Y006749D02*
X012068Y006966D01*
X012212Y006966D01*
X012286Y006966D02*
X012394Y006966D01*
X012430Y006930D01*
X012430Y006785D01*
X012394Y006749D01*
X012286Y006749D01*
X012286Y006966D01*
X012140Y006857D02*
X012068Y006857D01*
X012068Y006749D02*
X012212Y006749D01*
X012503Y006785D02*
X012539Y006749D01*
X012611Y006749D01*
X012647Y006785D01*
X012647Y006821D01*
X012611Y006857D01*
X012503Y006857D01*
X012503Y006785D01*
X012503Y006857D02*
X012575Y006930D01*
X012647Y006966D01*
X012795Y006966D02*
X012795Y006749D01*
X012795Y006821D02*
X012904Y006821D01*
X012940Y006857D01*
X012940Y006930D01*
X012904Y006966D01*
X012795Y006966D01*
X012868Y006821D02*
X012940Y006749D01*
X013013Y006785D02*
X013049Y006749D01*
X013121Y006749D01*
X013157Y006785D01*
X013157Y006821D01*
X013121Y006857D01*
X013085Y006857D01*
X013121Y006857D02*
X013157Y006893D01*
X013157Y006930D01*
X013121Y006966D01*
X013049Y006966D01*
X013013Y006930D01*
X013230Y006893D02*
X013303Y006966D01*
X013303Y006749D01*
X013375Y006749D02*
X013230Y006749D01*
X013543Y006721D02*
X013543Y006648D01*
X013579Y006612D01*
X013579Y006539D02*
X013651Y006539D01*
X013688Y006503D01*
X013688Y006395D01*
X013760Y006395D02*
X013543Y006395D01*
X013543Y006503D01*
X013579Y006539D01*
X013688Y006467D02*
X013760Y006539D01*
X013724Y006612D02*
X013760Y006648D01*
X013760Y006721D01*
X013724Y006757D01*
X013688Y006757D01*
X013651Y006721D01*
X013651Y006684D01*
X013651Y006721D02*
X013615Y006757D01*
X013579Y006757D01*
X013543Y006721D01*
X013579Y006830D02*
X013543Y006866D01*
X013543Y006938D01*
X013579Y006974D01*
X013615Y006974D01*
X013760Y006830D01*
X013760Y006974D01*
X013760Y006029D02*
X013760Y005885D01*
X013615Y006029D01*
X013579Y006029D01*
X013543Y005993D01*
X013543Y005921D01*
X013579Y005885D01*
X013651Y005812D02*
X013651Y005667D01*
X013543Y005776D01*
X013760Y005776D01*
X013760Y005594D02*
X013688Y005522D01*
X013688Y005558D02*
X013688Y005450D01*
X013760Y005450D02*
X013543Y005450D01*
X013543Y005558D01*
X013579Y005594D01*
X013651Y005594D01*
X013688Y005558D01*
X013688Y004865D02*
X013724Y004865D01*
X013760Y004829D01*
X013760Y004757D01*
X013724Y004721D01*
X013724Y004647D02*
X013760Y004611D01*
X013760Y004539D01*
X013724Y004503D01*
X013760Y004430D02*
X013688Y004358D01*
X013688Y004394D02*
X013688Y004286D01*
X013760Y004286D02*
X013543Y004286D01*
X013543Y004394D01*
X013579Y004430D01*
X013651Y004430D01*
X013688Y004394D01*
X013579Y004503D02*
X013543Y004539D01*
X013543Y004611D01*
X013579Y004647D01*
X013615Y004647D01*
X013651Y004611D01*
X013688Y004647D01*
X013724Y004647D01*
X013651Y004611D02*
X013651Y004575D01*
X013579Y004721D02*
X013543Y004757D01*
X013543Y004829D01*
X013579Y004865D01*
X013615Y004865D01*
X013651Y004829D01*
X013688Y004865D01*
X013651Y004829D02*
X013651Y004793D01*
X013339Y004485D02*
X013230Y004377D01*
X013375Y004377D01*
X013339Y004269D02*
X013339Y004485D01*
X013157Y004449D02*
X013157Y004413D01*
X013121Y004377D01*
X013157Y004341D01*
X013157Y004305D01*
X013121Y004269D01*
X013049Y004269D01*
X013013Y004305D01*
X012940Y004269D02*
X012868Y004341D01*
X012904Y004341D02*
X012795Y004341D01*
X012795Y004269D02*
X012795Y004485D01*
X012904Y004485D01*
X012940Y004449D01*
X012940Y004377D01*
X012904Y004341D01*
X013013Y004449D02*
X013049Y004485D01*
X013121Y004485D01*
X013157Y004449D01*
X013121Y004377D02*
X013085Y004377D01*
X011429Y007950D02*
X011344Y007950D01*
X011302Y007993D01*
X011218Y007993D02*
X011176Y007950D01*
X011090Y007950D01*
X011048Y007993D01*
X011048Y008163D01*
X011090Y008206D01*
X011176Y008206D01*
X011218Y008163D01*
X011302Y008206D02*
X011302Y008078D01*
X011387Y008120D01*
X011429Y008120D01*
X011472Y008078D01*
X011472Y007993D01*
X011429Y007950D01*
X011472Y008206D02*
X011302Y008206D01*
X010964Y008206D02*
X010879Y008206D01*
X010921Y008206D02*
X010921Y007950D01*
X010879Y007950D02*
X010964Y007950D01*
X012284Y008990D02*
X012320Y008954D01*
X012392Y008954D01*
X012428Y008990D01*
X012501Y008990D02*
X012537Y008954D01*
X012609Y008954D01*
X012645Y008990D01*
X012645Y009062D01*
X012609Y009098D01*
X012573Y009098D01*
X012501Y009062D01*
X012501Y009170D01*
X012645Y009170D01*
X012719Y009098D02*
X012791Y009170D01*
X012791Y008954D01*
X012719Y008954D02*
X012863Y008954D01*
X012428Y009134D02*
X012392Y009170D01*
X012320Y009170D01*
X012284Y009134D01*
X012284Y008990D01*
X012294Y011119D02*
X012222Y011119D01*
X012186Y011155D01*
X012113Y011155D02*
X012077Y011119D01*
X012005Y011119D01*
X011969Y011155D01*
X011969Y011300D01*
X012005Y011336D01*
X012077Y011336D01*
X012113Y011300D01*
X012186Y011300D02*
X012222Y011336D01*
X012294Y011336D01*
X012330Y011300D01*
X012330Y011264D01*
X012294Y011227D01*
X012330Y011191D01*
X012330Y011155D01*
X012294Y011119D01*
X012294Y011227D02*
X012258Y011227D01*
X012404Y011264D02*
X012440Y011227D01*
X012548Y011227D01*
X012548Y011155D02*
X012548Y011300D01*
X012512Y011336D01*
X012440Y011336D01*
X012404Y011300D01*
X012404Y011264D01*
X012404Y011155D02*
X012440Y011119D01*
X012512Y011119D01*
X012548Y011155D01*
X012717Y011155D02*
X012717Y011300D01*
X012753Y011336D01*
X012825Y011336D01*
X012861Y011300D01*
X012934Y011227D02*
X013078Y011227D01*
X013152Y011227D02*
X013260Y011336D01*
X013260Y011119D01*
X013296Y011227D02*
X013152Y011227D01*
X013042Y011119D02*
X013042Y011336D01*
X012934Y011227D01*
X012861Y011155D02*
X012825Y011119D01*
X012753Y011119D01*
X012717Y011155D01*
X012950Y011907D02*
X013022Y011907D01*
X013058Y011943D01*
X013131Y011943D02*
X013167Y011907D01*
X013239Y011907D01*
X013275Y011943D01*
X013275Y011979D01*
X013239Y012015D01*
X013203Y012015D01*
X013239Y012015D02*
X013275Y012051D01*
X013275Y012087D01*
X013239Y012123D01*
X013167Y012123D01*
X013131Y012087D01*
X013058Y012087D02*
X013022Y012123D01*
X012950Y012123D01*
X012914Y012087D01*
X012914Y011943D01*
X012950Y011907D01*
X013032Y012340D02*
X013104Y012340D01*
X013068Y012340D02*
X013068Y012556D01*
X013032Y012556D02*
X013104Y012556D01*
X013177Y012520D02*
X013177Y012376D01*
X013213Y012340D01*
X013285Y012340D01*
X013321Y012376D01*
X013394Y012340D02*
X013538Y012340D01*
X013466Y012340D02*
X013466Y012556D01*
X013394Y012484D01*
X013321Y012520D02*
X013285Y012556D01*
X013213Y012556D01*
X013177Y012520D01*
X013349Y012123D02*
X013493Y012123D01*
X013493Y012087D01*
X013349Y011943D01*
X013349Y011907D01*
X013612Y012340D02*
X013756Y012484D01*
X013756Y012520D01*
X013720Y012556D01*
X013648Y012556D01*
X013612Y012520D01*
X013612Y012340D02*
X013756Y012340D01*
X013354Y013718D02*
X013210Y013718D01*
X013282Y013718D02*
X013282Y013934D01*
X013210Y013862D01*
X013137Y013898D02*
X013137Y013754D01*
X013100Y013718D01*
X013028Y013718D01*
X012992Y013754D01*
X012992Y013898D01*
X013028Y013934D01*
X013100Y013934D01*
X013137Y013898D01*
X013064Y013790D02*
X013137Y013718D01*
X013148Y014978D02*
X013292Y014978D01*
X013220Y014978D02*
X013220Y015194D01*
X013148Y015122D01*
X013075Y015158D02*
X013075Y015086D01*
X013039Y015050D01*
X012930Y015050D01*
X013002Y015050D02*
X013075Y014978D01*
X012930Y014978D02*
X012930Y015194D01*
X013039Y015194D01*
X013075Y015158D01*
X013365Y015158D02*
X013365Y015014D01*
X013510Y015158D01*
X013510Y015014D01*
X013474Y014978D01*
X013401Y014978D01*
X013365Y015014D01*
X013365Y015158D02*
X013401Y015194D01*
X013474Y015194D01*
X013510Y015158D01*
X014173Y015647D02*
X014318Y015647D01*
X014391Y015647D02*
X014391Y015863D01*
X014535Y015863D01*
X014608Y015863D02*
X014717Y015863D01*
X014753Y015827D01*
X014753Y015683D01*
X014717Y015647D01*
X014608Y015647D01*
X014608Y015863D01*
X014463Y015755D02*
X014391Y015755D01*
X014391Y015647D02*
X014535Y015647D01*
X014826Y015683D02*
X014862Y015647D01*
X014934Y015647D01*
X014970Y015683D01*
X014970Y015755D01*
X014934Y015791D01*
X014898Y015791D01*
X014826Y015755D01*
X014826Y015863D01*
X014970Y015863D01*
X014862Y016884D02*
X014646Y016884D01*
X014646Y016992D01*
X014682Y017028D01*
X014754Y017028D01*
X014790Y016992D01*
X014790Y016884D01*
X014790Y016956D02*
X014862Y017028D01*
X014862Y017102D02*
X014862Y017246D01*
X014862Y017174D02*
X014646Y017174D01*
X014718Y017102D01*
X014718Y017319D02*
X014646Y017391D01*
X014862Y017391D01*
X014862Y017319D02*
X014862Y017463D01*
X014839Y018774D02*
X014983Y018774D01*
X015020Y018810D01*
X015020Y018882D01*
X014983Y018918D01*
X015020Y018991D02*
X014875Y019136D01*
X014839Y019136D01*
X014803Y019100D01*
X014803Y019027D01*
X014839Y018991D01*
X014839Y018918D02*
X014803Y018882D01*
X014803Y018810D01*
X014839Y018774D01*
X015020Y018991D02*
X015020Y019136D01*
X014983Y019209D02*
X015020Y019245D01*
X015020Y019317D01*
X014983Y019353D01*
X014947Y019353D01*
X014911Y019317D01*
X014911Y019209D01*
X014983Y019209D01*
X014911Y019209D02*
X014839Y019281D01*
X014803Y019353D01*
X014803Y019543D02*
X014803Y019651D01*
X014839Y019687D01*
X014911Y019687D01*
X014947Y019651D01*
X014947Y019543D01*
X014947Y019615D02*
X015020Y019687D01*
X014983Y019760D02*
X015020Y019796D01*
X015020Y019868D01*
X014983Y019904D01*
X014839Y019904D01*
X014803Y019868D01*
X014803Y019796D01*
X014839Y019760D01*
X014875Y019760D01*
X014911Y019796D01*
X014911Y019904D01*
X014803Y019543D02*
X015020Y019543D01*
X014173Y015863D02*
X014173Y015647D01*
X011446Y015118D02*
X011446Y015082D01*
X011410Y015046D01*
X011337Y015046D01*
X011301Y015082D01*
X011301Y015118D01*
X011337Y015155D01*
X011410Y015155D01*
X011446Y015118D01*
X011410Y015046D02*
X011446Y015010D01*
X011446Y014974D01*
X011410Y014938D01*
X011337Y014938D01*
X011301Y014974D01*
X011301Y015010D01*
X011337Y015046D01*
X011228Y015046D02*
X011228Y014974D01*
X011192Y014938D01*
X011120Y014938D01*
X011084Y014974D01*
X011084Y015046D02*
X011156Y015082D01*
X011192Y015082D01*
X011228Y015046D01*
X011228Y015155D02*
X011084Y015155D01*
X011084Y015046D01*
X011011Y014974D02*
X010975Y014938D01*
X010902Y014938D01*
X010866Y014974D01*
X010866Y015118D01*
X010902Y015155D01*
X010975Y015155D01*
X011011Y015118D01*
X010975Y014840D02*
X010902Y014840D01*
X010866Y014804D01*
X010866Y014659D01*
X010902Y014623D01*
X010975Y014623D01*
X011011Y014659D01*
X011084Y014659D02*
X011120Y014623D01*
X011192Y014623D01*
X011228Y014659D01*
X011228Y014695D01*
X011192Y014731D01*
X011156Y014731D01*
X011192Y014731D02*
X011228Y014767D01*
X011228Y014804D01*
X011192Y014840D01*
X011120Y014840D01*
X011084Y014804D01*
X011011Y014804D02*
X010975Y014840D01*
X010975Y014534D02*
X010902Y014534D01*
X010866Y014498D01*
X010866Y014354D01*
X010902Y014318D01*
X010975Y014318D01*
X011011Y014354D01*
X011084Y014354D02*
X011120Y014318D01*
X011192Y014318D01*
X011228Y014354D01*
X011228Y014390D01*
X011192Y014426D01*
X011156Y014426D01*
X011192Y014426D02*
X011228Y014462D01*
X011228Y014498D01*
X011192Y014534D01*
X011120Y014534D01*
X011084Y014498D01*
X011011Y014498D02*
X010975Y014534D01*
X010531Y014503D02*
X010495Y014503D01*
X010351Y014647D01*
X010315Y014647D01*
X010315Y014503D01*
X010351Y014430D02*
X010315Y014394D01*
X010315Y014322D01*
X010351Y014286D01*
X010495Y014286D01*
X010531Y014322D01*
X010531Y014394D01*
X010495Y014430D01*
X010508Y014139D02*
X010545Y014139D01*
X010581Y014103D01*
X010617Y014139D01*
X010653Y014139D01*
X010689Y014103D01*
X010689Y014031D01*
X010653Y013995D01*
X010581Y014067D02*
X010581Y014103D01*
X010508Y014139D02*
X010472Y014103D01*
X010472Y014031D01*
X010508Y013995D01*
X010508Y013922D02*
X010653Y013778D01*
X010689Y013778D01*
X010653Y013704D02*
X010689Y013668D01*
X010689Y013596D01*
X010653Y013560D01*
X010508Y013560D01*
X010472Y013596D01*
X010472Y013668D01*
X010508Y013704D01*
X010472Y013778D02*
X010472Y013922D01*
X010508Y013922D01*
X010374Y013995D02*
X010230Y014139D01*
X010194Y014139D01*
X010157Y014103D01*
X010157Y014031D01*
X010194Y013995D01*
X010194Y013922D02*
X010338Y013778D01*
X010374Y013778D01*
X010338Y013704D02*
X010374Y013668D01*
X010374Y013596D01*
X010338Y013560D01*
X010194Y013560D01*
X010157Y013596D01*
X010157Y013668D01*
X010194Y013704D01*
X010157Y013778D02*
X010157Y013922D01*
X010194Y013922D01*
X010374Y013995D02*
X010374Y014139D01*
X010315Y014721D02*
X010315Y014865D01*
X010351Y014865D01*
X010495Y014721D01*
X010531Y014721D01*
X011301Y014695D02*
X011337Y014731D01*
X011410Y014731D01*
X011446Y014695D01*
X011446Y014659D01*
X011410Y014623D01*
X011337Y014623D01*
X011301Y014659D01*
X011301Y014695D01*
X011337Y014731D02*
X011301Y014767D01*
X011301Y014804D01*
X011337Y014840D01*
X011410Y014840D01*
X011446Y014804D01*
X011446Y014767D01*
X011410Y014731D01*
X011446Y014534D02*
X011373Y014498D01*
X011301Y014426D01*
X011410Y014426D01*
X011446Y014390D01*
X011446Y014354D01*
X011410Y014318D01*
X011337Y014318D01*
X011301Y014354D01*
X011301Y014426D01*
X009635Y013307D02*
X009635Y013271D01*
X009599Y013235D01*
X009526Y013235D01*
X009490Y013271D01*
X009490Y013307D01*
X009526Y013344D01*
X009599Y013344D01*
X009635Y013307D01*
X009599Y013235D02*
X009635Y013199D01*
X009635Y013163D01*
X009599Y013127D01*
X009526Y013127D01*
X009490Y013163D01*
X009490Y013199D01*
X009526Y013235D01*
X009417Y013307D02*
X009273Y013163D01*
X009273Y013127D01*
X009200Y013163D02*
X009163Y013127D01*
X009091Y013127D01*
X009055Y013163D01*
X009055Y013307D01*
X009091Y013344D01*
X009163Y013344D01*
X009200Y013307D01*
X009273Y013344D02*
X009417Y013344D01*
X009417Y013307D01*
X009126Y015922D02*
X009162Y015958D01*
X009162Y015995D01*
X009126Y016031D01*
X009018Y016031D01*
X009018Y015958D01*
X009054Y015922D01*
X009126Y015922D01*
X009018Y016031D02*
X009090Y016103D01*
X009162Y016139D01*
X008945Y016139D02*
X008945Y016103D01*
X008800Y015958D01*
X008800Y015922D01*
X008727Y015958D02*
X008691Y015922D01*
X008619Y015922D01*
X008583Y015958D01*
X008583Y016103D01*
X008619Y016139D01*
X008691Y016139D01*
X008727Y016103D01*
X008800Y016139D02*
X008945Y016139D01*
X008936Y016985D02*
X008900Y017021D01*
X008936Y016985D02*
X009008Y016985D01*
X009044Y017021D01*
X009044Y017094D01*
X009008Y017130D01*
X008972Y017130D01*
X008900Y017094D01*
X008900Y017202D01*
X009044Y017202D01*
X008827Y017166D02*
X008827Y017130D01*
X008790Y017094D01*
X008827Y017058D01*
X008827Y017021D01*
X008790Y016985D01*
X008718Y016985D01*
X008682Y017021D01*
X008609Y016985D02*
X008537Y017058D01*
X008573Y017058D02*
X008465Y017058D01*
X008465Y016985D02*
X008465Y017202D01*
X008573Y017202D01*
X008609Y017166D01*
X008609Y017094D01*
X008573Y017058D01*
X008682Y017166D02*
X008718Y017202D01*
X008790Y017202D01*
X008827Y017166D01*
X008790Y017094D02*
X008754Y017094D01*
X007833Y018206D02*
X007869Y018242D01*
X007869Y018278D01*
X007833Y018314D01*
X007725Y018314D01*
X007725Y018242D01*
X007761Y018206D01*
X007833Y018206D01*
X007725Y018314D02*
X007797Y018386D01*
X007869Y018422D01*
X007872Y018560D02*
X008017Y018560D01*
X008090Y018560D02*
X008234Y018704D01*
X008234Y018741D01*
X008198Y018777D01*
X008126Y018777D01*
X008090Y018741D01*
X008090Y018560D02*
X008234Y018560D01*
X007872Y018560D02*
X007872Y018777D01*
X007850Y019151D02*
X007814Y019187D01*
X007850Y019151D02*
X007922Y019151D01*
X007958Y019187D01*
X007958Y019259D01*
X007922Y019295D01*
X007886Y019295D01*
X007814Y019259D01*
X007814Y019367D01*
X007958Y019367D01*
X007922Y019544D02*
X007922Y019761D01*
X007814Y019653D01*
X007958Y019653D01*
X007741Y019725D02*
X007597Y019581D01*
X007597Y019544D01*
X007523Y019581D02*
X007487Y019544D01*
X007415Y019544D01*
X007379Y019581D01*
X007379Y019725D01*
X007415Y019761D01*
X007487Y019761D01*
X007523Y019725D01*
X007597Y019761D02*
X007741Y019761D01*
X007741Y019725D01*
X007741Y019367D02*
X007597Y019367D01*
X007523Y019331D02*
X007487Y019367D01*
X007415Y019367D01*
X007379Y019331D01*
X007379Y019187D01*
X007415Y019151D01*
X007487Y019151D01*
X007523Y019187D01*
X007597Y019187D02*
X007597Y019151D01*
X007597Y019187D02*
X007741Y019331D01*
X007741Y019367D01*
X007616Y018422D02*
X007543Y018422D01*
X007507Y018386D01*
X007507Y018242D01*
X007543Y018206D01*
X007616Y018206D01*
X007652Y018242D01*
X007652Y018386D02*
X007616Y018422D01*
X007435Y018422D02*
X007362Y018422D01*
X007398Y018422D02*
X007398Y018206D01*
X007362Y018206D02*
X007435Y018206D01*
X008110Y020529D02*
X008110Y020745D01*
X008219Y020745D01*
X008255Y020709D01*
X008255Y020637D01*
X008219Y020601D01*
X008110Y020601D01*
X008183Y020601D02*
X008255Y020529D01*
X008328Y020565D02*
X008364Y020529D01*
X008436Y020529D01*
X008472Y020565D01*
X008472Y020601D01*
X008436Y020637D01*
X008400Y020637D01*
X008436Y020637D02*
X008472Y020673D01*
X008472Y020709D01*
X008436Y020745D01*
X008364Y020745D01*
X008328Y020709D01*
X008545Y020637D02*
X008654Y020637D01*
X008690Y020601D01*
X008690Y020565D01*
X008654Y020529D01*
X008581Y020529D01*
X008545Y020565D01*
X008545Y020637D01*
X008618Y020709D01*
X008690Y020745D01*
X008858Y020745D02*
X008858Y020529D01*
X009003Y020529D01*
X009076Y020529D02*
X009220Y020529D01*
X009148Y020529D02*
X009148Y020745D01*
X009076Y020673D01*
X009293Y020637D02*
X009366Y020673D01*
X009402Y020673D01*
X009438Y020637D01*
X009438Y020565D01*
X009402Y020529D01*
X009330Y020529D01*
X009293Y020565D01*
X009293Y020637D02*
X009293Y020745D01*
X009438Y020745D01*
D13*
X010900Y020808D02*
X010900Y020308D01*
X011150Y020058D01*
X011650Y020058D01*
X011900Y020308D01*
X012150Y020058D01*
X012650Y020058D01*
X012900Y020308D01*
X013150Y020058D01*
X013650Y020058D01*
X013900Y020308D01*
X014150Y020058D01*
X014650Y020058D01*
X014900Y020308D01*
X014900Y020808D01*
X014650Y021058D01*
X014150Y021058D01*
X013900Y020808D01*
X013650Y021058D01*
X013150Y021058D01*
X012900Y020808D01*
X012650Y021058D01*
X012150Y021058D01*
X011900Y020808D01*
X011650Y021058D01*
X011150Y021058D01*
X010900Y020808D01*
X014219Y016452D02*
X014400Y016452D01*
X014492Y016330D01*
X014581Y016452D02*
X014400Y016452D01*
X014390Y016446D02*
X014314Y016330D01*
X014150Y013790D02*
X014650Y013790D01*
X014900Y013540D01*
X014900Y013040D01*
X014650Y012790D01*
X014900Y012540D01*
X014900Y012040D01*
X014650Y011790D01*
X014900Y011540D01*
X014900Y011040D01*
X014650Y010790D01*
X014900Y010540D01*
X014900Y010040D01*
X014650Y009790D01*
X014900Y009540D01*
X014900Y009040D01*
X014650Y008790D01*
X014900Y008540D01*
X014900Y008040D01*
X014650Y007790D01*
X014900Y007540D01*
X014900Y007040D01*
X014650Y006790D01*
X014900Y006540D01*
X014900Y006040D01*
X014650Y005790D01*
X014900Y005540D01*
X014900Y005040D01*
X014650Y004790D01*
X014900Y004540D01*
X014900Y004040D01*
X014650Y003790D01*
X014900Y003540D01*
X014900Y003040D01*
X014650Y002790D01*
X014900Y002540D01*
X014900Y002040D01*
X014650Y001790D01*
X014150Y001790D01*
X013900Y002040D01*
X013900Y002540D01*
X014150Y002790D01*
X013900Y003040D01*
X013900Y003540D01*
X014150Y003790D01*
X013900Y004040D01*
X013900Y004540D01*
X014150Y004790D01*
X013900Y005040D01*
X013900Y005540D01*
X014150Y005790D01*
X013900Y006040D01*
X013900Y006540D01*
X014150Y006790D01*
X013900Y007040D01*
X013900Y007540D01*
X014150Y007790D01*
X013900Y008040D01*
X013900Y008540D01*
X014150Y008790D01*
X013900Y009040D01*
X013900Y009540D01*
X014150Y009790D01*
X013900Y010040D01*
X013900Y010540D01*
X014150Y010790D01*
X013900Y011040D01*
X013900Y011540D01*
X014150Y011790D01*
X013900Y012040D01*
X013900Y012540D01*
X014150Y012790D01*
X013900Y013040D01*
X013900Y013540D01*
X014150Y013790D01*
X009557Y013826D02*
X009557Y015401D01*
X008119Y015401D01*
X008120Y015401D02*
X007982Y015263D01*
X007982Y015264D02*
X007982Y013826D01*
X009557Y013826D01*
X005911Y009193D02*
X005789Y009101D01*
X005789Y009282D01*
X005789Y009101D02*
X005789Y008920D01*
X005789Y008810D02*
X005789Y008629D01*
X005911Y008721D01*
X005789Y008629D02*
X005789Y008448D01*
X005911Y008543D02*
X005795Y008619D01*
X005911Y009015D02*
X005795Y009091D01*
X002864Y010342D02*
X002864Y012034D01*
X001762Y012034D01*
X001762Y010342D01*
X002864Y010342D01*
X005593Y016204D02*
X005593Y016385D01*
X005715Y016477D01*
X005593Y016566D02*
X005593Y016385D01*
X005599Y016375D02*
X005715Y016299D01*
X005593Y016676D02*
X005593Y016857D01*
X005715Y016949D01*
X005593Y017038D02*
X005593Y016857D01*
X005599Y016847D02*
X005715Y016771D01*
X005004Y020058D02*
X004504Y020058D01*
X004254Y020308D01*
X004254Y020808D01*
X004504Y021058D01*
X005004Y021058D01*
X005254Y020808D01*
X005254Y020308D01*
X005004Y020058D01*
X012167Y006605D02*
X012167Y006424D01*
X012289Y006516D01*
X012167Y006424D02*
X012167Y006243D01*
X012167Y006172D02*
X012167Y005991D01*
X012289Y006083D01*
X012167Y005991D02*
X012167Y005810D01*
X012289Y005905D02*
X012173Y005981D01*
X012289Y006338D02*
X012173Y006414D01*
X012167Y005464D02*
X012167Y005282D01*
X012289Y005375D01*
X012167Y005282D02*
X012167Y005101D01*
X012167Y005031D02*
X012167Y004849D01*
X012289Y004941D01*
X012167Y004849D02*
X012167Y004668D01*
X012289Y004763D02*
X012173Y004839D01*
X012289Y005196D02*
X012173Y005272D01*
X013159Y003905D02*
X013159Y002605D01*
X006821Y002605D01*
X006821Y003905D01*
X013159Y003905D01*
X012608Y003550D02*
X012608Y002664D01*
X012549Y002664D02*
X012549Y003550D01*
X012550Y003559D01*
X012555Y003568D01*
X012561Y003574D01*
X012570Y003579D01*
X012579Y003580D01*
X012588Y003579D01*
X012597Y003574D01*
X012603Y003568D01*
X012608Y003559D01*
X012609Y003550D01*
X012943Y002566D02*
X012943Y002015D01*
X013514Y001975D02*
X013514Y001779D01*
X013474Y001739D01*
X006506Y001739D01*
X006467Y001779D01*
X006467Y001975D01*
X013514Y001975D01*
X007431Y002664D02*
X007431Y003550D01*
X007432Y003550D02*
X007431Y003559D01*
X007426Y003568D01*
X007420Y003574D01*
X007411Y003579D01*
X007402Y003580D01*
X007393Y003579D01*
X007384Y003574D01*
X007378Y003568D01*
X007373Y003559D01*
X007372Y003550D01*
X007372Y002664D01*
X007037Y002566D02*
X007037Y002015D01*
D14*
X007156Y005927D02*
X008336Y005927D01*
X008336Y006607D01*
X007156Y006607D01*
X007156Y005927D01*
X007156Y006167D02*
X007156Y006367D01*
X007616Y005927D02*
X007876Y005927D01*
X008336Y006167D02*
X008336Y006367D01*
X008495Y006367D02*
X008495Y006167D01*
X008495Y005927D02*
X009675Y005927D01*
X009675Y006607D01*
X008495Y006607D01*
X008495Y005927D01*
X008955Y005927D02*
X009215Y005927D01*
X009675Y006167D02*
X009675Y006367D01*
X004517Y012685D02*
X003337Y012685D01*
X003337Y013865D01*
X004517Y013865D01*
X004517Y012685D01*
X003547Y012475D02*
X003530Y012473D01*
X003514Y012468D01*
X003500Y012460D01*
X003488Y012449D01*
X003478Y012435D01*
X003471Y012420D01*
X003467Y012403D01*
X003467Y012387D01*
X003471Y012370D01*
X003478Y012355D01*
X003488Y012341D01*
X003500Y012330D01*
X003514Y012322D01*
X003530Y012317D01*
X003547Y012315D01*
X003564Y012317D01*
X003580Y012322D01*
X003594Y012330D01*
X003606Y012341D01*
X003616Y012355D01*
X003623Y012370D01*
X003627Y012387D01*
X003627Y012403D01*
X003623Y012420D01*
X003616Y012435D01*
X003606Y012449D01*
X003594Y012460D01*
X003580Y012468D01*
X003564Y012473D01*
X003547Y012475D01*
X002785Y017723D02*
X002785Y017960D01*
X002313Y017960D02*
X002313Y017723D01*
X014128Y018465D02*
X014128Y018715D01*
X014130Y018732D01*
X014134Y018749D01*
X014141Y018765D01*
X014151Y018779D01*
X014164Y018792D01*
X014178Y018802D01*
X014194Y018809D01*
X014211Y018813D01*
X014228Y018815D01*
X014728Y018815D01*
X014745Y018813D01*
X014762Y018809D01*
X014778Y018802D01*
X014792Y018792D01*
X014805Y018779D01*
X014815Y018765D01*
X014822Y018749D01*
X014826Y018732D01*
X014828Y018715D01*
X014828Y018465D01*
X014826Y018448D01*
X014822Y018431D01*
X014815Y018415D01*
X014805Y018401D01*
X014792Y018388D01*
X014778Y018378D01*
X014762Y018371D01*
X014745Y018367D01*
X014728Y018365D01*
X014228Y018365D01*
X014211Y018367D01*
X014194Y018371D01*
X014178Y018378D01*
X014164Y018388D01*
X014151Y018401D01*
X014141Y018415D01*
X014134Y018431D01*
X014130Y018448D01*
X014128Y018465D01*
D15*
X003827Y006970D02*
X003781Y006970D01*
X003781Y006936D01*
X003804Y006948D01*
X003815Y006948D01*
X003827Y006936D01*
X003827Y006913D01*
X003815Y006902D01*
X003792Y006902D01*
X003781Y006913D01*
X003754Y006902D02*
X003708Y006902D01*
X003708Y006970D01*
X003095Y006222D02*
X003095Y006154D01*
X003072Y006154D02*
X003118Y006154D01*
X003072Y006199D02*
X003095Y006222D01*
X003023Y006222D02*
X003023Y006154D01*
X003000Y006154D02*
X003046Y006154D01*
X003000Y006199D02*
X003023Y006222D01*
X002973Y006154D02*
X002927Y006154D01*
X002927Y006222D01*
X002623Y004985D02*
X002623Y004939D01*
X002623Y004962D02*
X002554Y004962D01*
X002577Y004939D01*
X002623Y004913D02*
X002623Y004867D01*
X002554Y004867D01*
X002589Y004040D02*
X002589Y003995D01*
X002554Y004029D01*
X002623Y004029D01*
X002623Y003968D02*
X002623Y003922D01*
X002554Y003922D01*
X002570Y017778D02*
X002570Y017928D01*
X002520Y017878D01*
X002520Y017778D02*
X002620Y017778D01*
X002667Y017778D02*
X002767Y017878D01*
X002767Y017903D01*
X002742Y017928D01*
X002692Y017928D01*
X002667Y017903D01*
X002667Y017778D02*
X002767Y017778D01*
X002472Y017778D02*
X002372Y017778D01*
X002372Y017928D01*
D16*
X005080Y014466D02*
X005082Y014476D01*
X005087Y014485D01*
X005096Y014491D01*
X005105Y014494D01*
X005116Y014493D01*
X005125Y014488D01*
X005132Y014481D01*
X005136Y014471D01*
X005136Y014461D01*
X005132Y014451D01*
X005125Y014444D01*
X005116Y014439D01*
X005105Y014438D01*
X005096Y014441D01*
X005087Y014447D01*
X005082Y014456D01*
X005080Y014466D01*
X007608Y012251D02*
X011545Y012251D01*
X011545Y008314D01*
X007608Y008314D01*
X007608Y012251D01*
X009942Y006527D02*
X011062Y006527D01*
X011062Y006007D01*
X009942Y006007D01*
X009942Y006527D01*
X012348Y012281D02*
X012348Y013481D01*
X012908Y013481D01*
X012908Y012281D01*
X012348Y012281D01*
X012368Y013659D02*
X012368Y014779D01*
X012888Y014779D01*
X012888Y013659D01*
X012368Y013659D01*
D17*
X013030Y016203D02*
X012969Y016264D01*
X012848Y016264D01*
X012908Y016324D01*
X012908Y016385D01*
X012848Y016446D01*
X012726Y016446D01*
X012726Y016264D02*
X012848Y016264D01*
X012908Y016928D02*
X012544Y016928D01*
X012666Y016928D02*
X012666Y017110D01*
X012726Y017171D01*
X012848Y017171D01*
X012908Y017110D01*
X012908Y016928D01*
X012908Y017291D02*
X012908Y017412D01*
X012908Y017351D02*
X012544Y017351D01*
X012544Y017291D01*
X012726Y017532D02*
X012848Y017532D01*
X012908Y017593D01*
X012908Y017714D01*
X012848Y017775D01*
X012726Y017775D01*
X012666Y017714D01*
X012666Y017593D01*
X012726Y017532D01*
X012666Y017895D02*
X012908Y018137D01*
X012908Y017895D02*
X012666Y018137D01*
X011904Y018263D02*
X011844Y018263D01*
X011601Y018506D01*
X011540Y018506D01*
X011540Y018263D01*
X011722Y018143D02*
X011722Y017901D01*
X011540Y017781D02*
X011904Y017538D01*
X011904Y017418D02*
X011662Y017418D01*
X011540Y017297D01*
X011662Y017176D01*
X011904Y017176D01*
X011904Y017056D02*
X011540Y017056D01*
X011662Y016935D01*
X011540Y016813D01*
X011904Y016813D01*
X011722Y017176D02*
X011722Y017418D01*
X011540Y017538D02*
X011904Y017781D01*
X011904Y018626D02*
X011540Y018868D01*
X011601Y018988D02*
X011540Y019049D01*
X011540Y019170D01*
X011601Y019231D01*
X011662Y019231D01*
X011722Y019170D01*
X011722Y019049D01*
X011662Y018988D01*
X011601Y018988D01*
X011722Y019049D02*
X011783Y018988D01*
X011844Y018988D01*
X011904Y019049D01*
X011904Y019170D01*
X011844Y019231D01*
X011783Y019231D01*
X011722Y019170D01*
D18*
X006577Y018781D03*
D19*
X011743Y008471D02*
X011745Y008483D01*
X011750Y008494D01*
X011759Y008503D01*
X011770Y008508D01*
X011782Y008510D01*
X011794Y008508D01*
X011805Y008503D01*
X011814Y008494D01*
X011819Y008483D01*
X011821Y008471D01*
X011819Y008459D01*
X011814Y008448D01*
X011805Y008439D01*
X011794Y008434D01*
X011782Y008432D01*
X011770Y008434D01*
X011759Y008439D01*
X011750Y008448D01*
X011745Y008459D01*
X011743Y008471D01*
D20*
X002569Y011828D03*
D21*
X007628Y002822D02*
X007726Y002684D01*
X007726Y002664D01*
X007530Y002664D01*
X007530Y002684D01*
X007628Y002822D01*
X007622Y002814D02*
X007634Y002814D01*
X007661Y002775D02*
X007595Y002775D01*
X007567Y002737D02*
X007689Y002737D01*
X007716Y002698D02*
X007540Y002698D01*
X007608Y001936D02*
X007608Y001779D01*
X007707Y001877D01*
X007707Y001936D01*
X012274Y001936D02*
X012274Y001877D01*
X012372Y001779D01*
X012372Y001936D01*
M02*
