G75*
%MOIN*%
%OFA0B0*%
%FSLAX24Y24*%
%IPPOS*%
%LPD*%
%AMOC8*
5,1,8,0,0,1.08239X$1,22.5*
%
%ADD10R,0.0640X0.1640*%
%ADD11R,0.0197X0.0276*%
%ADD12R,0.0276X0.0197*%
%ADD13R,0.0780X0.0780*%
%ADD14C,0.0780*%
%ADD15R,0.2009X0.2796*%
%ADD16R,0.0631X0.0571*%
%ADD17R,0.0591X0.0434*%
%ADD18R,0.0434X0.0552*%
%ADD19R,0.0335X0.0631*%
%ADD20R,0.0355X0.0270*%
%ADD21C,0.0246*%
%ADD22R,0.0316X0.0552*%
%ADD23R,0.0060X0.0720*%
%ADD24R,0.0270X0.0355*%
D10*
X001978Y002428D03*
X003978Y002428D03*
X003986Y020420D03*
X001986Y020420D03*
D11*
X009065Y010322D03*
X009419Y010322D03*
X009419Y009889D03*
X009734Y009889D03*
X009419Y009456D03*
X009065Y009456D03*
X009065Y009889D03*
X010089Y009889D03*
X010640Y009771D03*
X010640Y010164D03*
X010640Y010597D03*
X010640Y011031D03*
X010994Y011031D03*
X010994Y010597D03*
X010994Y010164D03*
X010994Y009771D03*
X010994Y009377D03*
X010640Y009377D03*
X007018Y009534D03*
X006663Y009534D03*
D12*
X008809Y011321D03*
X008809Y011675D03*
X009257Y011675D03*
X009257Y011321D03*
D13*
X014400Y020558D03*
D14*
X013400Y020558D03*
X012400Y020558D03*
X011400Y020558D03*
X014400Y013290D03*
X014400Y012290D03*
X014400Y011290D03*
X014400Y010290D03*
X014400Y009290D03*
X014400Y008290D03*
X014400Y007290D03*
X014400Y006290D03*
X014400Y005290D03*
X014400Y004290D03*
X014400Y003290D03*
X014400Y002290D03*
X004754Y020558D03*
D15*
X004242Y018550D03*
X012510Y018550D03*
D16*
X013169Y002832D03*
X007795Y002438D03*
D17*
X013228Y004023D03*
D18*
X013002Y008845D03*
D19*
X012470Y008865D03*
X012037Y008865D03*
X011604Y008865D03*
X011171Y008865D03*
X010738Y008865D03*
X010305Y008865D03*
X009872Y008865D03*
X009439Y008865D03*
D20*
X009282Y016070D03*
X009282Y016385D03*
X009282Y016700D03*
D21*
X010310Y016833D02*
X011638Y016833D01*
X011638Y016095D01*
X010310Y016095D01*
X010310Y016833D01*
X010310Y016340D02*
X011638Y016340D01*
X011638Y016585D02*
X010310Y016585D01*
X010310Y016830D02*
X011638Y016830D01*
X013263Y016833D02*
X014591Y016833D01*
X014591Y016095D01*
X013263Y016095D01*
X013263Y016833D01*
X013263Y016340D02*
X014591Y016340D01*
X014591Y016585D02*
X013263Y016585D01*
X013263Y016830D02*
X014591Y016830D01*
X004001Y016833D02*
X002673Y016833D01*
X004001Y016833D02*
X004001Y016095D01*
X002673Y016095D01*
X002673Y016833D01*
X002673Y016340D02*
X004001Y016340D01*
X004001Y016585D02*
X002673Y016585D01*
X002673Y016830D02*
X004001Y016830D01*
X001865Y014017D02*
X001865Y012689D01*
X001865Y014017D02*
X002603Y014017D01*
X002603Y012689D01*
X001865Y012689D01*
X001865Y012934D02*
X002603Y012934D01*
X002603Y013179D02*
X001865Y013179D01*
X001865Y013424D02*
X002603Y013424D01*
X002603Y013669D02*
X001865Y013669D01*
X001865Y013914D02*
X002603Y013914D01*
D22*
X002569Y010086D03*
X001900Y010086D03*
D23*
X010699Y017881D03*
D24*
X010869Y017881D03*
X010529Y017881D03*
M02*
