G75*
%MOIN*%
%OFA0B0*%
%FSLAX24Y24*%
%IPPOS*%
%LPD*%
%AMOC8*
5,1,8,0,0,1.08239X$1,22.5*
%
%ADD10R,0.0157X0.0236*%
%ADD11R,0.0236X0.0157*%
%ADD12R,0.0591X0.0531*%
%ADD13R,0.0551X0.0394*%
%ADD14R,0.0394X0.0512*%
%ADD15R,0.0295X0.0591*%
%ADD16R,0.0315X0.0230*%
%ADD17R,0.0276X0.0512*%
%ADD18R,0.0230X0.0315*%
D10*
X006663Y012081D03*
X007018Y012081D03*
X009065Y012436D03*
X009419Y012436D03*
X009734Y012436D03*
X009419Y012869D03*
X009065Y012869D03*
X010089Y012436D03*
X010640Y012318D03*
X010640Y011924D03*
X010994Y011924D03*
X010994Y012318D03*
X010994Y012711D03*
X010994Y013144D03*
X010994Y013578D03*
X010640Y013578D03*
X010640Y013144D03*
X010640Y012711D03*
D11*
X009257Y013868D03*
X009257Y014222D03*
X008809Y014222D03*
X008809Y013868D03*
D12*
X013169Y005379D03*
X007795Y004985D03*
D13*
X013228Y006570D03*
D14*
X013002Y011393D03*
D15*
X012470Y011412D03*
X012037Y011412D03*
X011604Y011412D03*
X011171Y011412D03*
X010738Y011412D03*
X010305Y011412D03*
X009872Y011412D03*
X009439Y011412D03*
D16*
X009282Y018617D03*
X009282Y018932D03*
X009282Y019247D03*
D17*
X002569Y012633D03*
X001900Y012633D03*
D18*
X010529Y020428D03*
X010869Y020428D03*
M02*
