G75*
%MOIN*%
%OFA0B0*%
%FSLAX24Y24*%
%IPPOS*%
%LPD*%
%AMOC8*
5,1,8,0,0,1.08239X$1,22.5*
%
%ADD10R,0.0079X0.0157*%
%ADD11C,0.0320*%
%ADD12R,0.0600X0.1600*%
%ADD13R,0.1969X0.2756*%
%ADD14C,0.0318*%
%ADD15C,0.0740*%
%ADD16C,0.0236*%
%ADD17R,0.0230X0.0315*%
%ADD18C,0.0157*%
%ADD19C,0.0295*%
%ADD20C,0.0276*%
%ADD21C,0.0256*%
%ADD22R,0.0315X0.0230*%
%ADD23R,0.0600X0.1000*%
%ADD24C,0.0238*%
%ADD25C,0.0079*%
%ADD26C,0.0317*%
%ADD27C,0.0315*%
%ADD28C,0.0118*%
D10*
X009348Y006009D03*
D11*
X003029Y007170D03*
X003029Y007682D03*
X002517Y007682D03*
X002517Y007170D03*
X002517Y010438D03*
X002517Y010950D03*
X003029Y010950D03*
X003029Y010438D03*
D12*
X003257Y019217D03*
X001257Y019217D03*
X001237Y001206D03*
X003237Y001206D03*
D13*
X003521Y017367D03*
X011789Y017367D03*
D14*
X006828Y013725D03*
X006434Y013725D03*
X006040Y013725D03*
X003180Y014932D03*
X002891Y015221D03*
X002601Y014932D03*
X002601Y015511D03*
X003180Y015511D03*
D15*
X013678Y012087D03*
X013678Y011087D03*
X013678Y010087D03*
X013678Y009087D03*
X013678Y008087D03*
X013678Y007087D03*
X013678Y006087D03*
X013678Y005087D03*
X013678Y004087D03*
X013678Y003087D03*
X013678Y002087D03*
X013678Y001087D03*
D16*
X014130Y014907D02*
X012832Y014907D01*
X012832Y015615D01*
X014130Y015615D01*
X014130Y014907D01*
X014130Y015142D02*
X012832Y015142D01*
X012832Y015377D02*
X014130Y015377D01*
X014130Y015612D02*
X012832Y015612D01*
X007182Y018843D02*
X007182Y019513D01*
X007556Y019159D02*
X006258Y019159D01*
X006258Y019867D01*
X007556Y019867D01*
X007556Y019159D01*
X007556Y019394D02*
X006258Y019394D01*
X006258Y019629D02*
X007556Y019629D01*
X007556Y019864D02*
X006258Y019864D01*
X006592Y019513D02*
X005922Y018843D01*
X002477Y015615D02*
X001179Y015615D01*
X002477Y015615D02*
X002477Y014907D01*
X001179Y014907D01*
X001179Y015615D01*
X001179Y015142D02*
X002477Y015142D01*
X002477Y015377D02*
X001179Y015377D01*
X001179Y015612D02*
X002477Y015612D01*
D17*
X009847Y018056D03*
X010187Y018056D03*
D18*
X009847Y018056D02*
X009847Y018555D01*
X010017Y018725D01*
X010489Y018725D01*
X010017Y018725D01*
X010489Y018725D02*
X010989Y019225D01*
X010989Y019470D01*
X011989Y019470D02*
X011989Y017702D01*
X011789Y017702D01*
X011789Y017367D01*
X011789Y017702D02*
X011789Y018056D01*
X012733Y012859D02*
X012497Y012623D01*
X012497Y011757D01*
X011080Y010339D02*
X009702Y010339D01*
X009269Y010772D01*
X008285Y010772D01*
X008088Y010969D01*
X008088Y012367D01*
X008009Y012446D01*
X007851Y010339D02*
X007733Y010221D01*
X007064Y010221D01*
X006907Y010379D01*
X006434Y010379D01*
X006080Y010024D01*
X005411Y009434D02*
X005411Y007269D01*
X006513Y007269D02*
X006533Y007288D01*
X008088Y007288D01*
X008855Y006520D02*
X008855Y005320D01*
X008993Y005182D01*
X011040Y005182D01*
X012694Y005182D01*
X012694Y007269D02*
X011789Y007269D01*
X011198Y006678D01*
X011080Y006678D01*
X010027Y007672D02*
X010607Y008253D01*
X012103Y008253D01*
X012261Y008410D01*
X011080Y010024D02*
X011001Y010024D01*
X010922Y010103D01*
X009623Y010103D01*
X009111Y010103D01*
X008875Y010339D01*
X007851Y010339D01*
X007812Y009284D02*
X007970Y009284D01*
X007970Y008772D01*
X007812Y008772D01*
X007812Y009284D01*
X007812Y008928D02*
X007970Y008928D01*
X007970Y009084D02*
X007812Y009084D01*
X007812Y009240D02*
X007970Y009240D01*
X008245Y009284D02*
X008403Y009284D01*
X008403Y008772D01*
X008245Y008772D01*
X008245Y009284D01*
X008245Y008928D02*
X008403Y008928D01*
X008403Y009084D02*
X008245Y009084D01*
X008245Y009240D02*
X008403Y009240D01*
X008678Y009284D02*
X008836Y009284D01*
X008836Y008772D01*
X008678Y008772D01*
X008678Y009284D01*
X008678Y008928D02*
X008836Y008928D01*
X008836Y009084D02*
X008678Y009084D01*
X008678Y009240D02*
X008836Y009240D01*
X009111Y009284D02*
X009269Y009284D01*
X009269Y008772D01*
X009111Y008772D01*
X009111Y009284D01*
X009111Y008928D02*
X009269Y008928D01*
X009269Y009084D02*
X009111Y009084D01*
X009111Y009240D02*
X009269Y009240D01*
X009544Y009284D02*
X009702Y009284D01*
X009702Y008772D01*
X009544Y008772D01*
X009544Y009284D01*
X009544Y008928D02*
X009702Y008928D01*
X009702Y009084D02*
X009544Y009084D01*
X009544Y009240D02*
X009702Y009240D01*
X009977Y009284D02*
X010135Y009284D01*
X010135Y008772D01*
X009977Y008772D01*
X009977Y009284D01*
X009977Y008928D02*
X010135Y008928D01*
X010135Y009084D02*
X009977Y009084D01*
X009977Y009240D02*
X010135Y009240D01*
X010410Y009284D02*
X010568Y009284D01*
X010568Y008772D01*
X010410Y008772D01*
X010410Y009284D01*
X010410Y008928D02*
X010568Y008928D01*
X010568Y009084D02*
X010410Y009084D01*
X010410Y009240D02*
X010568Y009240D01*
X010843Y008772D02*
X011001Y008772D01*
X010843Y008772D02*
X010843Y009284D01*
X011001Y009284D01*
X011001Y008772D01*
X011001Y008928D02*
X010843Y008928D01*
X010843Y009084D02*
X011001Y009084D01*
X011001Y009240D02*
X010843Y009240D01*
X010027Y007672D02*
X009623Y007672D01*
X009111Y010103D02*
X009072Y010103D01*
X005411Y009434D02*
X005371Y009473D01*
X003442Y009709D02*
X003245Y009906D01*
X002340Y009906D01*
X001946Y010300D01*
X001513Y010300D01*
X002103Y014394D02*
X002300Y014591D01*
X004840Y014591D01*
D19*
X007168Y009228D02*
X007504Y009228D01*
X007504Y008932D01*
X007168Y008932D01*
X007168Y009228D01*
X007168Y009226D02*
X007504Y009226D01*
X007192Y003420D02*
X006896Y003420D01*
X007192Y003420D02*
X007192Y003046D01*
X006896Y003046D01*
X006896Y003420D01*
X006896Y003340D02*
X007192Y003340D01*
X012211Y003420D02*
X012507Y003420D01*
X012507Y003046D01*
X012211Y003046D01*
X012211Y003420D01*
X012211Y003340D02*
X012507Y003340D01*
X012507Y009228D02*
X012133Y009228D01*
X012507Y009228D02*
X012507Y008932D01*
X012133Y008932D01*
X012133Y009228D01*
X012133Y009226D02*
X012507Y009226D01*
D20*
X007119Y005654D02*
X006805Y005654D01*
X007119Y005654D02*
X007119Y005380D01*
X006805Y005380D01*
X006805Y005654D01*
D21*
X006795Y008558D02*
X007129Y008558D01*
X007129Y008302D01*
X006795Y008302D01*
X006795Y008558D01*
X006795Y008557D02*
X007129Y008557D01*
D22*
X009348Y006179D03*
X009348Y005839D03*
D23*
X008989Y019470D03*
X009989Y019470D03*
X010989Y019470D03*
X011989Y019470D03*
D24*
X012812Y019513D03*
X012812Y019119D03*
X013166Y016520D03*
X013166Y015418D03*
X013324Y014788D03*
X013914Y014552D03*
X014151Y015891D03*
X012733Y013489D03*
X012733Y012859D03*
X012851Y012308D03*
X012497Y011757D03*
X012025Y011678D03*
X011592Y011678D03*
X011237Y011087D03*
X010922Y011087D03*
X011080Y010339D03*
X011080Y010024D03*
X010489Y009591D03*
X010096Y009670D03*
X009269Y010379D03*
X009111Y010103D03*
X008678Y011245D03*
X008009Y010064D03*
X007655Y009906D03*
X008009Y009591D03*
X007615Y010497D03*
X007300Y010497D03*
X006907Y010851D03*
X006513Y011127D03*
X006198Y011127D03*
X005883Y011127D03*
X005804Y010654D03*
X005765Y010024D03*
X006080Y010024D03*
X006670Y009946D03*
X006474Y009316D03*
X006749Y009158D03*
X007182Y009591D03*
X008088Y008056D03*
X008472Y008056D03*
X008088Y007288D03*
X008088Y006904D03*
X008088Y006520D03*
X008472Y006520D03*
X008855Y006520D03*
X009367Y006520D03*
X009623Y006904D03*
X009623Y007288D03*
X009623Y007672D03*
X009495Y008056D03*
X009111Y008056D03*
X011080Y007780D03*
X011080Y007308D03*
X011080Y006993D03*
X011080Y006678D03*
X011080Y006363D03*
X011040Y005182D03*
X010332Y004276D03*
X009899Y004080D03*
X009781Y003765D03*
X010135Y003765D03*
X010174Y003450D03*
X010214Y002544D03*
X009899Y002544D03*
X009899Y002072D03*
X009426Y001284D03*
X008796Y002347D03*
X009033Y002544D03*
X009348Y002544D03*
X008560Y002544D03*
X008088Y002544D03*
X007851Y002269D03*
X007300Y002269D03*
X007222Y001835D03*
X007222Y001481D03*
X008009Y001284D03*
X007970Y003489D03*
X008600Y004040D03*
X009348Y003922D03*
X008639Y005064D03*
X008993Y005182D03*
X007851Y005064D03*
X007537Y005064D03*
X007300Y004552D03*
X007300Y004198D03*
X007300Y003843D03*
X006946Y005024D03*
X006474Y005221D03*
X006316Y004946D03*
X006316Y004001D03*
X006001Y002977D03*
X005647Y002977D03*
X005174Y002623D03*
X004899Y001914D03*
X004702Y001442D03*
X003914Y002780D03*
X003166Y002977D03*
X002773Y002977D03*
X002773Y003489D03*
X002812Y003961D03*
X001985Y004316D03*
X001670Y003922D03*
X001237Y003410D03*
X001237Y002780D03*
X001237Y002229D03*
X001513Y006087D03*
X001513Y006717D03*
X001474Y007032D03*
X001237Y007269D03*
X002025Y006717D03*
X002103Y008213D03*
X002103Y008528D03*
X001907Y008961D03*
X002340Y009040D03*
X002537Y008765D03*
X003009Y008568D03*
X003009Y009040D03*
X003481Y008922D03*
X003403Y008450D03*
X003600Y008213D03*
X003875Y008056D03*
X004111Y007426D03*
X004584Y006678D03*
X004348Y006127D03*
X004623Y005182D03*
X004151Y005143D03*
X005056Y005536D03*
X005489Y006481D03*
X005804Y006599D03*
X005411Y006954D03*
X005411Y007269D03*
X004820Y008213D03*
X005371Y009473D03*
X005214Y009985D03*
X004820Y009946D03*
X003678Y009946D03*
X003442Y009709D03*
X003560Y011363D03*
X003796Y012032D03*
X003796Y012387D03*
X003796Y012741D03*
X004111Y012741D03*
X004269Y012465D03*
X004269Y012150D03*
X004269Y011835D03*
X005371Y011639D03*
X005962Y012741D03*
X006513Y012741D03*
X007064Y012741D03*
X007340Y011875D03*
X007340Y011560D03*
X008048Y013607D03*
X007222Y014513D03*
X007615Y014828D03*
X007379Y015064D03*
X007458Y016127D03*
X007458Y016442D03*
X008009Y017623D03*
X007576Y017741D03*
X007103Y018253D03*
X006670Y018410D03*
X006434Y018725D03*
X006159Y018410D03*
X005883Y018095D03*
X005568Y017780D03*
X004938Y017190D03*
X004466Y017032D03*
X004348Y018056D03*
X003442Y018095D03*
X002970Y017013D03*
X002103Y016048D03*
X001237Y016639D03*
X001237Y017032D03*
X001237Y017426D03*
X002103Y014394D03*
X001710Y014237D03*
X001198Y014237D03*
X002300Y012308D03*
X002025Y011442D03*
X001592Y011835D03*
X001277Y011835D03*
X001513Y010300D03*
X001237Y010064D03*
X001237Y009355D03*
X001237Y008646D03*
X002064Y009434D03*
X002064Y009749D03*
X003560Y006639D03*
X004033Y003843D03*
X004899Y003843D03*
X005883Y001284D03*
X006513Y007269D03*
X005844Y008371D03*
X004702Y013607D03*
X004840Y014591D03*
X005174Y014591D03*
X005056Y015772D03*
X003836Y014237D03*
X003836Y013804D03*
X002812Y013843D03*
X002812Y014158D03*
X005922Y018843D03*
X004938Y019158D03*
X006474Y016481D03*
X006474Y016087D03*
X007182Y018843D03*
X008481Y019434D03*
X008521Y018607D03*
X009466Y018607D03*
X010135Y018450D03*
X010607Y018450D03*
X010489Y017662D03*
X010489Y017347D03*
X010214Y017190D03*
X010371Y016639D03*
X010292Y016009D03*
X010332Y015064D03*
X010922Y015064D03*
X011316Y015576D03*
X011749Y015654D03*
X011985Y015418D03*
X011985Y014749D03*
X010883Y014119D03*
X010214Y013804D03*
X009899Y013961D03*
X008836Y013883D03*
X009426Y016028D03*
X009466Y016402D03*
X009426Y016875D03*
X010489Y019237D03*
X010489Y019670D03*
X011670Y013253D03*
X011985Y013253D03*
X010726Y012426D03*
X012537Y010556D03*
X012891Y010103D03*
X012261Y009906D03*
X012261Y009591D03*
X011789Y009394D03*
X011710Y008765D03*
X011355Y008765D03*
X012261Y008410D03*
X013009Y008686D03*
X013009Y009316D03*
X013166Y007741D03*
X012694Y007269D03*
X012064Y005457D03*
X012694Y005182D03*
X012970Y004394D03*
X012537Y003765D03*
X012064Y004394D03*
X011828Y003410D03*
X011080Y003765D03*
X011080Y002544D03*
X010765Y002544D03*
X010922Y001757D03*
X010568Y001284D03*
X010411Y001599D03*
X011552Y001914D03*
X011631Y001284D03*
X011434Y002544D03*
X012733Y001284D03*
X013009Y011048D03*
X013009Y011599D03*
X014111Y012820D03*
D25*
X001022Y019964D02*
X001022Y000478D01*
X003481Y000478D01*
X003481Y002269D01*
X005607Y002269D01*
X005607Y000478D01*
X014288Y000478D01*
X014288Y016599D01*
X013009Y016599D01*
X013009Y019964D01*
X012368Y019964D01*
X012368Y018937D01*
X012322Y018891D01*
X012147Y018891D01*
X012147Y018824D01*
X012805Y018824D01*
X012851Y018777D01*
X012851Y015956D01*
X012805Y015910D01*
X010772Y015910D01*
X010726Y015956D01*
X010726Y017820D01*
X010641Y017820D01*
X010708Y017753D01*
X010708Y017572D01*
X010641Y017505D01*
X010708Y017438D01*
X010708Y017257D01*
X010580Y017129D01*
X010399Y017129D01*
X010271Y017257D01*
X010271Y017308D01*
X008727Y017308D01*
X007812Y016393D01*
X007812Y016275D01*
X007743Y016206D01*
X007676Y016139D01*
X007676Y016036D01*
X007548Y015908D01*
X007367Y015908D01*
X007239Y016036D01*
X007239Y016217D01*
X007306Y016284D01*
X007239Y016351D01*
X007239Y016532D01*
X007367Y016660D01*
X007509Y016660D01*
X008551Y017702D01*
X010271Y017702D01*
X010271Y017753D01*
X010338Y017820D01*
X010334Y017820D01*
X010334Y017820D01*
X010039Y017820D01*
X010017Y017842D01*
X009994Y017820D01*
X009699Y017820D01*
X009699Y017820D01*
X008540Y017820D01*
X008107Y017387D01*
X007615Y016895D01*
X007477Y016757D01*
X005475Y016757D01*
X005422Y016735D01*
X005320Y016735D01*
X005225Y016774D01*
X005153Y016847D01*
X005113Y016942D01*
X005113Y017044D01*
X005122Y017065D01*
X005029Y016971D01*
X004848Y016971D01*
X004720Y017099D01*
X004720Y017280D01*
X004820Y017381D01*
X004820Y018967D01*
X004720Y019068D01*
X004720Y019249D01*
X004848Y019377D01*
X005029Y019377D01*
X005157Y019249D01*
X005157Y019068D01*
X005056Y018967D01*
X005056Y017381D01*
X005157Y017280D01*
X005157Y017143D01*
X005225Y017211D01*
X005320Y017251D01*
X005422Y017251D01*
X005475Y017229D01*
X007281Y017229D01*
X007773Y017721D01*
X008206Y018154D01*
X008344Y018292D01*
X009689Y018292D01*
X009689Y018620D01*
X009782Y018713D01*
X009859Y018790D01*
X009900Y018831D01*
X009671Y018831D01*
X009635Y018840D01*
X009604Y018859D01*
X009578Y018885D01*
X009559Y018916D01*
X009550Y018952D01*
X009550Y019431D01*
X009950Y019431D01*
X009950Y019509D01*
X009550Y019509D01*
X009550Y019964D01*
X009368Y019964D01*
X009368Y018937D01*
X009322Y018891D01*
X008657Y018891D01*
X008611Y018937D01*
X008611Y019552D01*
X007753Y019552D01*
X007753Y019077D01*
X007638Y018961D01*
X007379Y018961D01*
X007379Y018955D01*
X007401Y018934D01*
X007401Y018753D01*
X007273Y018625D01*
X007092Y018625D01*
X006964Y018753D01*
X006964Y018934D01*
X006985Y018955D01*
X006985Y018961D01*
X006319Y018961D01*
X006141Y018783D01*
X006141Y018753D01*
X006013Y018625D01*
X005832Y018625D01*
X005704Y018753D01*
X005704Y018934D01*
X005832Y019062D01*
X005862Y019062D01*
X006060Y019259D01*
X006060Y019948D01*
X006076Y019964D01*
X001022Y019964D01*
X001022Y019921D02*
X006060Y019921D01*
X006060Y019843D02*
X001022Y019843D01*
X001022Y019766D02*
X006060Y019766D01*
X006060Y019689D02*
X001022Y019689D01*
X001022Y019612D02*
X006060Y019612D01*
X006060Y019534D02*
X001022Y019534D01*
X001022Y019457D02*
X006060Y019457D01*
X006060Y019380D02*
X001022Y019380D01*
X001022Y019303D02*
X004774Y019303D01*
X004720Y019225D02*
X001022Y019225D01*
X001022Y019148D02*
X004720Y019148D01*
X004720Y019071D02*
X001022Y019071D01*
X001022Y018994D02*
X004794Y018994D01*
X004820Y018916D02*
X001022Y018916D01*
X001022Y018839D02*
X004820Y018839D01*
X004820Y018762D02*
X001022Y018762D01*
X001022Y018685D02*
X004820Y018685D01*
X004820Y018607D02*
X001022Y018607D01*
X001022Y018530D02*
X004820Y018530D01*
X004820Y018453D02*
X001022Y018453D01*
X001022Y018376D02*
X004820Y018376D01*
X004820Y018299D02*
X001022Y018299D01*
X001022Y018221D02*
X004820Y018221D01*
X004820Y018144D02*
X001022Y018144D01*
X001022Y018067D02*
X004820Y018067D01*
X004820Y017990D02*
X001022Y017990D01*
X001022Y017912D02*
X004820Y017912D01*
X004820Y017835D02*
X001022Y017835D01*
X001022Y017758D02*
X004820Y017758D01*
X004820Y017681D02*
X001022Y017681D01*
X001022Y017603D02*
X004820Y017603D01*
X004820Y017526D02*
X001022Y017526D01*
X001022Y017449D02*
X004820Y017449D01*
X004811Y017372D02*
X001022Y017372D01*
X001022Y017294D02*
X004734Y017294D01*
X004720Y017217D02*
X001022Y017217D01*
X001022Y017140D02*
X004720Y017140D01*
X004756Y017063D02*
X001022Y017063D01*
X001022Y016985D02*
X004834Y016985D01*
X004938Y017190D02*
X004938Y019158D01*
X005082Y018994D02*
X005764Y018994D01*
X005704Y018916D02*
X005056Y018916D01*
X005056Y018839D02*
X005704Y018839D01*
X005704Y018762D02*
X005056Y018762D01*
X005056Y018685D02*
X005772Y018685D01*
X005793Y018314D02*
X005665Y018186D01*
X005665Y018005D01*
X005793Y017877D01*
X005973Y017877D01*
X006054Y017957D01*
X007003Y017957D01*
X007080Y018034D01*
X007194Y018034D01*
X007322Y018162D01*
X007322Y018343D01*
X007194Y018471D01*
X007013Y018471D01*
X006885Y018343D01*
X006885Y018233D01*
X006054Y018233D01*
X005973Y018314D01*
X005793Y018314D01*
X005777Y018299D02*
X005056Y018299D01*
X005056Y018376D02*
X006918Y018376D01*
X006885Y018299D02*
X005989Y018299D01*
X006073Y018685D02*
X007032Y018685D01*
X006964Y018762D02*
X006141Y018762D01*
X006197Y018839D02*
X006964Y018839D01*
X006964Y018916D02*
X006274Y018916D01*
X006026Y019225D02*
X005157Y019225D01*
X005157Y019148D02*
X005949Y019148D01*
X005872Y019071D02*
X005157Y019071D01*
X005103Y019303D02*
X006060Y019303D01*
X005700Y018221D02*
X005056Y018221D01*
X005056Y018144D02*
X005665Y018144D01*
X005665Y018067D02*
X005056Y018067D01*
X005056Y017990D02*
X005680Y017990D01*
X005757Y017912D02*
X005056Y017912D01*
X005056Y017835D02*
X007887Y017835D01*
X007810Y017758D02*
X005056Y017758D01*
X005056Y017681D02*
X007733Y017681D01*
X007655Y017603D02*
X005056Y017603D01*
X005056Y017526D02*
X007578Y017526D01*
X007501Y017449D02*
X005056Y017449D01*
X005065Y017372D02*
X007424Y017372D01*
X007346Y017294D02*
X005142Y017294D01*
X005157Y017217D02*
X005239Y017217D01*
X005120Y017063D02*
X005121Y017063D01*
X005113Y016985D02*
X005043Y016985D01*
X005127Y016908D02*
X001022Y016908D01*
X001022Y016831D02*
X005169Y016831D01*
X005275Y016754D02*
X001022Y016754D01*
X001022Y016676D02*
X007525Y016676D01*
X007603Y016754D02*
X005467Y016754D01*
X005462Y016030D02*
X005359Y016030D01*
X005265Y015991D01*
X005206Y015932D01*
X005147Y015991D01*
X004966Y015991D01*
X004838Y015863D01*
X004838Y015682D01*
X004966Y015554D01*
X005068Y015554D01*
X005371Y015251D01*
X005440Y015182D01*
X007188Y015182D01*
X007161Y015154D01*
X007161Y014973D01*
X007261Y014873D01*
X007261Y014731D01*
X007131Y014731D01*
X007003Y014603D01*
X007003Y014422D01*
X007131Y014294D01*
X007182Y014294D01*
X007182Y013026D01*
X007115Y012959D01*
X006974Y012959D01*
X006846Y012831D01*
X006846Y012650D01*
X006974Y012523D01*
X007155Y012523D01*
X007283Y012650D01*
X007283Y012792D01*
X007300Y012810D01*
X007300Y012101D01*
X007370Y012032D01*
X007458Y011944D01*
X007458Y010861D01*
X007312Y010715D01*
X007210Y010715D01*
X007082Y010587D01*
X007082Y010426D01*
X006972Y010536D01*
X006369Y010536D01*
X006277Y010444D01*
X006076Y010243D01*
X005989Y010243D01*
X005922Y010176D01*
X005855Y010243D01*
X005674Y010243D01*
X005546Y010115D01*
X005546Y009934D01*
X005674Y009806D01*
X005804Y009806D01*
X005804Y008589D01*
X005753Y008589D01*
X005625Y008461D01*
X005625Y008280D01*
X005753Y008152D01*
X005934Y008152D01*
X005962Y008180D01*
X005962Y008180D01*
X005962Y007239D01*
X005423Y006700D01*
X005399Y006700D01*
X005271Y006572D01*
X005271Y006391D01*
X005399Y006263D01*
X005580Y006263D01*
X005706Y006389D01*
X005714Y006381D01*
X005895Y006381D01*
X006023Y006509D01*
X006023Y006651D01*
X006286Y006914D01*
X006286Y006914D01*
X006355Y006983D01*
X006355Y007117D01*
X006422Y007050D01*
X006603Y007050D01*
X006684Y007131D01*
X007936Y007131D01*
X007997Y007070D01*
X008178Y007070D01*
X008306Y007198D01*
X008306Y007379D01*
X008178Y007507D01*
X007997Y007507D01*
X007936Y007446D01*
X006645Y007446D01*
X006603Y007487D01*
X006422Y007487D01*
X006355Y007420D01*
X006355Y009125D01*
X006383Y009097D01*
X006531Y009097D01*
X006531Y009068D01*
X006610Y008989D01*
X006434Y008813D01*
X006434Y008086D01*
X006976Y007544D01*
X008570Y007544D01*
X008885Y007859D01*
X008954Y007928D01*
X008954Y008125D01*
X009278Y008450D01*
X009948Y008450D01*
X010017Y008519D01*
X010105Y008607D01*
X010113Y008615D01*
X010200Y008615D01*
X010273Y008688D01*
X010345Y008615D01*
X010633Y008615D01*
X010665Y008646D01*
X010669Y008639D01*
X010710Y008598D01*
X010759Y008569D01*
X010815Y008554D01*
X010883Y008554D01*
X010883Y008989D01*
X010962Y008989D01*
X010962Y009068D01*
X010883Y009068D01*
X010883Y009502D01*
X010815Y009502D01*
X010759Y009487D01*
X010710Y009459D01*
X010669Y009418D01*
X010665Y009410D01*
X010641Y009434D01*
X010708Y009501D01*
X010708Y009682D01*
X010580Y009810D01*
X010399Y009810D01*
X010271Y009682D01*
X010271Y009501D01*
X010338Y009434D01*
X010273Y009369D01*
X010200Y009442D01*
X009912Y009442D01*
X009840Y009369D01*
X009767Y009442D01*
X009741Y009442D01*
X009741Y009946D01*
X010857Y009946D01*
X010861Y009941D01*
X010861Y009934D01*
X010989Y009806D01*
X011170Y009806D01*
X011298Y009934D01*
X011298Y010115D01*
X011231Y010182D01*
X011298Y010249D01*
X011298Y010430D01*
X011170Y010558D01*
X010989Y010558D01*
X010928Y010497D01*
X009767Y010497D01*
X009426Y010838D01*
X009334Y010930D01*
X008350Y010930D01*
X008245Y011035D01*
X008245Y012342D01*
X008249Y012352D01*
X008285Y012387D01*
X008285Y014415D01*
X008363Y014493D01*
X008363Y015162D01*
X008225Y015300D01*
X007713Y015812D01*
X005705Y015812D01*
X005651Y015866D01*
X005629Y015918D01*
X005557Y015991D01*
X005462Y016030D01*
X005566Y015981D02*
X007294Y015981D01*
X007239Y016059D02*
X001022Y016059D01*
X001022Y016136D02*
X007239Y016136D01*
X007239Y016213D02*
X001022Y016213D01*
X001022Y016290D02*
X007300Y016290D01*
X007239Y016368D02*
X001022Y016368D01*
X001022Y016445D02*
X007239Y016445D01*
X007239Y016522D02*
X001022Y016522D01*
X001022Y016599D02*
X007306Y016599D01*
X007458Y016442D02*
X008600Y017583D01*
X010411Y017583D01*
X010489Y017662D01*
X010662Y017526D02*
X010726Y017526D01*
X010726Y017449D02*
X010697Y017449D01*
X010708Y017372D02*
X010726Y017372D01*
X010726Y017294D02*
X010708Y017294D01*
X010726Y017217D02*
X010668Y017217D01*
X010726Y017140D02*
X010591Y017140D01*
X010726Y017063D02*
X009547Y017063D01*
X009517Y017093D02*
X009645Y016965D01*
X009645Y016823D01*
X009948Y016520D01*
X010017Y016451D01*
X010017Y014152D01*
X010117Y014052D01*
X010117Y014016D01*
X010123Y014022D01*
X010304Y014022D01*
X010432Y013894D01*
X010432Y013713D01*
X010304Y013586D01*
X010123Y013586D01*
X010102Y013607D01*
X009732Y013607D01*
X009614Y013725D01*
X009544Y013794D01*
X009544Y014207D01*
X009614Y014276D01*
X009623Y014286D01*
X009623Y015664D01*
X009478Y015810D01*
X009336Y015810D01*
X009208Y015938D01*
X009208Y016119D01*
X009336Y016247D01*
X009517Y016247D01*
X009645Y016119D01*
X009645Y015977D01*
X009781Y015841D01*
X009781Y016353D01*
X009478Y016656D01*
X009336Y016656D01*
X009208Y016784D01*
X009208Y016965D01*
X009336Y017093D01*
X009517Y017093D01*
X009625Y016985D02*
X010726Y016985D01*
X010726Y016908D02*
X009645Y016908D01*
X009645Y016831D02*
X010726Y016831D01*
X010726Y016754D02*
X009714Y016754D01*
X009792Y016676D02*
X010726Y016676D01*
X010726Y016599D02*
X009869Y016599D01*
X009946Y016522D02*
X010726Y016522D01*
X010726Y016445D02*
X010017Y016445D01*
X010017Y016368D02*
X010726Y016368D01*
X010726Y016290D02*
X010017Y016290D01*
X010017Y016213D02*
X010726Y016213D01*
X010726Y016136D02*
X010017Y016136D01*
X010017Y016059D02*
X010726Y016059D01*
X010726Y015981D02*
X010017Y015981D01*
X010017Y015904D02*
X014288Y015904D01*
X014288Y015827D02*
X011886Y015827D01*
X011840Y015873D02*
X011968Y015745D01*
X011968Y015564D01*
X011867Y015464D01*
X011867Y013577D01*
X011973Y013471D01*
X012076Y013471D01*
X012204Y013343D01*
X012204Y013162D01*
X012176Y013135D01*
X012212Y013135D01*
X012515Y013438D01*
X012515Y013579D01*
X012643Y013707D01*
X012824Y013707D01*
X012952Y013579D01*
X012952Y013399D01*
X012824Y013271D01*
X012682Y013271D01*
X012379Y012968D01*
X012310Y012898D01*
X011818Y012898D01*
X011682Y013034D01*
X011580Y013034D01*
X011452Y013162D01*
X011452Y013343D01*
X011580Y013471D01*
X011639Y013471D01*
X011631Y013479D01*
X011631Y015464D01*
X011531Y015564D01*
X011531Y015745D01*
X011659Y015873D01*
X011840Y015873D01*
X011963Y015750D02*
X014288Y015750D01*
X014288Y015672D02*
X011968Y015672D01*
X011968Y015595D02*
X014288Y015595D01*
X014288Y015518D02*
X011922Y015518D01*
X011867Y015441D02*
X014288Y015441D01*
X014288Y015363D02*
X011867Y015363D01*
X011867Y015286D02*
X014288Y015286D01*
X014288Y015209D02*
X011867Y015209D01*
X011867Y015132D02*
X014288Y015132D01*
X014288Y015054D02*
X011867Y015054D01*
X011867Y014977D02*
X014288Y014977D01*
X014288Y014900D02*
X011867Y014900D01*
X011867Y014823D02*
X014288Y014823D01*
X014288Y014745D02*
X011867Y014745D01*
X011867Y014668D02*
X014288Y014668D01*
X014288Y014591D02*
X011867Y014591D01*
X011867Y014514D02*
X014288Y014514D01*
X014288Y014436D02*
X011867Y014436D01*
X011867Y014359D02*
X014288Y014359D01*
X014288Y014282D02*
X011867Y014282D01*
X011867Y014205D02*
X014288Y014205D01*
X014288Y014128D02*
X011867Y014128D01*
X011867Y014050D02*
X014288Y014050D01*
X014288Y013973D02*
X011867Y013973D01*
X011867Y013896D02*
X014288Y013896D01*
X014288Y013819D02*
X011867Y013819D01*
X011867Y013741D02*
X014288Y013741D01*
X014288Y013664D02*
X012867Y013664D01*
X012944Y013587D02*
X014288Y013587D01*
X014288Y013510D02*
X012952Y013510D01*
X012952Y013432D02*
X014288Y013432D01*
X014288Y013355D02*
X012908Y013355D01*
X012831Y013278D02*
X014288Y013278D01*
X014288Y013201D02*
X012612Y013201D01*
X012535Y013123D02*
X014288Y013123D01*
X014288Y013046D02*
X012855Y013046D01*
X012824Y013077D02*
X012643Y013077D01*
X012515Y012950D01*
X012515Y012863D01*
X012432Y012780D01*
X012340Y012688D01*
X012340Y011908D01*
X012279Y011847D01*
X012279Y011666D01*
X012407Y011538D01*
X012588Y011538D01*
X012716Y011666D01*
X012716Y011847D01*
X012655Y011908D01*
X012655Y012558D01*
X012738Y012641D01*
X012824Y012641D01*
X012952Y012769D01*
X012952Y012950D01*
X012824Y013077D01*
X012932Y012969D02*
X014288Y012969D01*
X014288Y012892D02*
X012952Y012892D01*
X012952Y012814D02*
X014288Y012814D01*
X014288Y012737D02*
X012920Y012737D01*
X012843Y012660D02*
X014288Y012660D01*
X014288Y012583D02*
X013802Y012583D01*
X013798Y012584D02*
X013718Y012597D01*
X013718Y012597D01*
X013718Y012127D01*
X014188Y012127D01*
X014188Y012127D01*
X014175Y012207D01*
X014150Y012283D01*
X014114Y012354D01*
X014067Y012419D01*
X014010Y012476D01*
X013945Y012523D01*
X013874Y012559D01*
X013798Y012584D01*
X013718Y012583D02*
X013639Y012583D01*
X013639Y012597D02*
X013638Y012597D01*
X013559Y012584D01*
X013483Y012559D01*
X013411Y012523D01*
X013346Y012476D01*
X013290Y012419D01*
X013243Y012354D01*
X013206Y012283D01*
X013181Y012207D01*
X013169Y012127D01*
X013639Y012127D01*
X013639Y012597D01*
X013554Y012583D02*
X012680Y012583D01*
X012655Y012505D02*
X013387Y012505D01*
X013299Y012428D02*
X012655Y012428D01*
X012655Y012351D02*
X013241Y012351D01*
X013203Y012274D02*
X012655Y012274D01*
X012655Y012197D02*
X013180Y012197D01*
X013169Y012127D02*
X013169Y012127D01*
X013169Y012048D02*
X013169Y012047D01*
X013181Y011968D01*
X013206Y011892D01*
X013243Y011820D01*
X013290Y011756D01*
X013346Y011699D01*
X013411Y011652D01*
X013483Y011615D01*
X013559Y011591D01*
X013638Y011578D01*
X013639Y011578D01*
X013639Y012048D01*
X013718Y012048D01*
X013718Y012127D01*
X013639Y012127D01*
X013639Y012048D01*
X013169Y012048D01*
X013170Y012042D02*
X012655Y012042D01*
X012655Y011965D02*
X013183Y011965D01*
X013208Y011888D02*
X012675Y011888D01*
X012716Y011810D02*
X013250Y011810D01*
X013312Y011733D02*
X012716Y011733D01*
X012705Y011656D02*
X013406Y011656D01*
X013505Y011501D02*
X008245Y011501D01*
X008245Y011424D02*
X013380Y011424D01*
X013424Y011468D02*
X013298Y011342D01*
X013230Y011177D01*
X013230Y010998D01*
X013286Y010862D01*
X013048Y010625D01*
X013048Y010255D01*
X012981Y010322D01*
X012938Y010322D01*
X012755Y010505D01*
X012755Y010646D01*
X012627Y010774D01*
X012446Y010774D01*
X012318Y010646D01*
X012318Y010465D01*
X012446Y010337D01*
X012588Y010337D01*
X012702Y010223D01*
X012672Y010194D01*
X012672Y010013D01*
X012700Y009985D01*
X012479Y009985D01*
X012479Y009997D01*
X012351Y010125D01*
X012170Y010125D01*
X012043Y009997D01*
X012043Y009816D01*
X012110Y009749D01*
X012043Y009682D01*
X012043Y009501D01*
X012090Y009454D01*
X012039Y009454D01*
X011907Y009321D01*
X011907Y008838D01*
X012039Y008706D01*
X012601Y008706D01*
X012733Y008838D01*
X012733Y009321D01*
X012601Y009454D01*
X012432Y009454D01*
X012479Y009501D01*
X012479Y009591D01*
X013349Y009591D01*
X013453Y009695D01*
X013589Y009639D01*
X013768Y009639D01*
X013932Y009707D01*
X014059Y009833D01*
X014127Y009998D01*
X014127Y010177D01*
X014059Y010342D01*
X013932Y010468D01*
X013768Y010536D01*
X013589Y010536D01*
X013424Y010468D01*
X013298Y010342D01*
X013285Y010310D01*
X013285Y010527D01*
X013453Y010695D01*
X013589Y010639D01*
X013768Y010639D01*
X013932Y010707D01*
X014059Y010833D01*
X014127Y010998D01*
X014127Y011177D01*
X014059Y011342D01*
X013932Y011468D01*
X013768Y011536D01*
X013589Y011536D01*
X013424Y011468D01*
X013303Y011347D02*
X008245Y011347D01*
X008245Y011270D02*
X013268Y011270D01*
X013236Y011192D02*
X008245Y011192D01*
X008245Y011115D02*
X013230Y011115D01*
X013230Y011038D02*
X008245Y011038D01*
X008319Y010961D02*
X013245Y010961D01*
X013277Y010883D02*
X009381Y010883D01*
X009426Y010838D02*
X009426Y010838D01*
X009458Y010806D02*
X013230Y010806D01*
X013153Y010729D02*
X012672Y010729D01*
X012750Y010652D02*
X013076Y010652D01*
X013048Y010574D02*
X012755Y010574D01*
X012762Y010497D02*
X013048Y010497D01*
X013048Y010420D02*
X012839Y010420D01*
X012917Y010343D02*
X013048Y010343D01*
X013037Y010266D02*
X013048Y010266D01*
X013166Y010048D02*
X013166Y010576D01*
X013678Y011087D01*
X013852Y011501D02*
X014288Y011501D01*
X014288Y011424D02*
X013976Y011424D01*
X014053Y011347D02*
X014288Y011347D01*
X014288Y011270D02*
X014088Y011270D01*
X014120Y011192D02*
X014288Y011192D01*
X014288Y011115D02*
X014127Y011115D01*
X014127Y011038D02*
X014288Y011038D01*
X014288Y010961D02*
X014111Y010961D01*
X014079Y010883D02*
X014288Y010883D01*
X014288Y010806D02*
X014032Y010806D01*
X013954Y010729D02*
X014288Y010729D01*
X014288Y010652D02*
X013799Y010652D01*
X013861Y010497D02*
X014288Y010497D01*
X014288Y010420D02*
X013980Y010420D01*
X014058Y010343D02*
X014288Y010343D01*
X014288Y010266D02*
X014090Y010266D01*
X014122Y010188D02*
X014288Y010188D01*
X014288Y010111D02*
X014127Y010111D01*
X014127Y010034D02*
X014288Y010034D01*
X014288Y009957D02*
X014110Y009957D01*
X014078Y009879D02*
X014288Y009879D01*
X014288Y009802D02*
X014028Y009802D01*
X013950Y009725D02*
X014288Y009725D01*
X014288Y009648D02*
X013789Y009648D01*
X013798Y009584D02*
X013718Y009597D01*
X013718Y009597D01*
X013718Y009127D01*
X014188Y009127D01*
X014188Y009127D01*
X014175Y009207D01*
X014150Y009283D01*
X014114Y009354D01*
X014067Y009419D01*
X014010Y009476D01*
X013945Y009523D01*
X013874Y009559D01*
X013798Y009584D01*
X013840Y009570D02*
X014288Y009570D01*
X014288Y009493D02*
X013986Y009493D01*
X014069Y009416D02*
X014288Y009416D01*
X014288Y009339D02*
X014122Y009339D01*
X014157Y009261D02*
X014288Y009261D01*
X014288Y009184D02*
X014179Y009184D01*
X014288Y009107D02*
X013718Y009107D01*
X013718Y009127D02*
X013718Y009048D01*
X014188Y009048D01*
X014188Y009047D01*
X014175Y008968D01*
X014150Y008892D01*
X014114Y008820D01*
X014067Y008756D01*
X014010Y008699D01*
X013945Y008652D01*
X013874Y008615D01*
X013798Y008591D01*
X013718Y008578D01*
X013718Y008578D01*
X013718Y009048D01*
X013639Y009048D01*
X013639Y008578D01*
X013638Y008578D01*
X013559Y008591D01*
X013483Y008615D01*
X013411Y008652D01*
X013346Y008699D01*
X013290Y008756D01*
X013243Y008820D01*
X013206Y008892D01*
X013181Y008968D01*
X013169Y009047D01*
X013169Y009048D01*
X013639Y009048D01*
X013639Y009127D01*
X013639Y009597D01*
X013638Y009597D01*
X013559Y009584D01*
X013483Y009559D01*
X013411Y009523D01*
X013346Y009476D01*
X013290Y009419D01*
X013243Y009354D01*
X013206Y009283D01*
X013181Y009207D01*
X013169Y009127D01*
X013639Y009127D01*
X013718Y009127D01*
X013718Y009184D02*
X013639Y009184D01*
X013639Y009107D02*
X012733Y009107D01*
X012733Y009184D02*
X013178Y009184D01*
X013169Y009127D02*
X013169Y009127D01*
X013172Y009030D02*
X012733Y009030D01*
X012733Y008952D02*
X013187Y008952D01*
X013215Y008875D02*
X012733Y008875D01*
X012693Y008798D02*
X013259Y008798D01*
X013325Y008721D02*
X012616Y008721D01*
X012414Y008566D02*
X014288Y008566D01*
X014288Y008489D02*
X013881Y008489D01*
X013932Y008468D02*
X013768Y008536D01*
X013589Y008536D01*
X013424Y008468D01*
X013298Y008342D01*
X013230Y008177D01*
X013230Y007998D01*
X013246Y007959D01*
X013076Y007959D01*
X012948Y007831D01*
X012948Y007780D01*
X011298Y007780D01*
X011298Y007871D01*
X012988Y007871D01*
X012948Y007794D02*
X011298Y007794D01*
X011298Y007871D02*
X011170Y007999D01*
X010989Y007999D01*
X010861Y007871D01*
X010861Y007690D01*
X010989Y007562D01*
X010139Y007562D01*
X010184Y007607D02*
X010673Y008095D01*
X012169Y008095D01*
X012261Y008188D01*
X012265Y008192D01*
X012351Y008192D01*
X012479Y008320D01*
X012479Y008501D01*
X012351Y008629D01*
X012170Y008629D01*
X012043Y008501D01*
X012043Y008415D01*
X012038Y008410D01*
X010542Y008410D01*
X009961Y007830D01*
X009775Y007830D01*
X009714Y007890D01*
X009533Y007890D01*
X009405Y007763D01*
X009405Y007582D01*
X009533Y007454D01*
X009714Y007454D01*
X009775Y007515D01*
X010092Y007515D01*
X010184Y007607D01*
X010217Y007639D02*
X010912Y007639D01*
X010861Y007717D02*
X010294Y007717D01*
X010371Y007794D02*
X010861Y007794D01*
X010862Y007871D02*
X010448Y007871D01*
X010526Y007948D02*
X010939Y007948D01*
X011080Y007780D02*
X011198Y007662D01*
X013088Y007662D01*
X013166Y007741D01*
X013065Y007948D02*
X011221Y007948D01*
X011131Y007562D02*
X010989Y007562D01*
X010989Y007526D02*
X010861Y007398D01*
X010861Y007217D01*
X010989Y007089D01*
X011170Y007089D01*
X011298Y007217D01*
X011298Y007281D01*
X011404Y007387D01*
X011684Y007387D01*
X011631Y007334D01*
X011182Y006885D01*
X011170Y006896D01*
X010989Y006896D01*
X010861Y006768D01*
X010861Y006587D01*
X010928Y006520D01*
X010861Y006453D01*
X010861Y006273D01*
X010989Y006145D01*
X011170Y006145D01*
X011271Y006245D01*
X012727Y006245D01*
X013307Y006824D01*
X013424Y006707D01*
X013589Y006639D01*
X013768Y006639D01*
X013932Y006707D01*
X014059Y006833D01*
X014127Y006998D01*
X014127Y007177D01*
X014059Y007342D01*
X013932Y007468D01*
X013768Y007536D01*
X013589Y007536D01*
X013424Y007468D01*
X013298Y007342D01*
X013230Y007177D01*
X013230Y007081D01*
X012629Y006481D01*
X011271Y006481D01*
X011231Y006520D01*
X011231Y006520D01*
X011263Y006520D01*
X011854Y007111D01*
X012543Y007111D01*
X012604Y007050D01*
X012784Y007050D01*
X012912Y007178D01*
X012912Y007359D01*
X012885Y007387D01*
X013333Y007387D01*
X013587Y007640D01*
X013589Y007639D01*
X013768Y007639D01*
X013932Y007707D01*
X014059Y007833D01*
X014127Y007998D01*
X014127Y008177D01*
X014059Y008342D01*
X013932Y008468D01*
X013989Y008412D02*
X014288Y008412D01*
X014288Y008335D02*
X014062Y008335D01*
X014094Y008257D02*
X014288Y008257D01*
X014288Y008180D02*
X014126Y008180D01*
X014127Y008103D02*
X014288Y008103D01*
X014288Y008026D02*
X014127Y008026D01*
X014106Y007948D02*
X014288Y007948D01*
X014288Y007871D02*
X014074Y007871D01*
X014019Y007794D02*
X014288Y007794D01*
X014288Y007717D02*
X013942Y007717D01*
X013891Y007485D02*
X014288Y007485D01*
X014288Y007562D02*
X013509Y007562D01*
X013465Y007485D02*
X013432Y007485D01*
X013364Y007408D02*
X013354Y007408D01*
X013293Y007330D02*
X012912Y007330D01*
X012912Y007253D02*
X013261Y007253D01*
X013230Y007176D02*
X012910Y007176D01*
X012833Y007099D02*
X013230Y007099D01*
X013170Y007021D02*
X011764Y007021D01*
X011687Y006944D02*
X013092Y006944D01*
X013015Y006867D02*
X011610Y006867D01*
X011532Y006790D02*
X012938Y006790D01*
X012861Y006712D02*
X011455Y006712D01*
X011378Y006635D02*
X012783Y006635D01*
X012706Y006558D02*
X011301Y006558D01*
X011198Y006172D02*
X013230Y006172D01*
X013230Y006177D02*
X013230Y005998D01*
X013286Y005862D01*
X013048Y005625D01*
X013048Y005152D01*
X012881Y004985D01*
X012806Y004985D01*
X012912Y005091D01*
X012912Y005272D01*
X012784Y005400D01*
X012604Y005400D01*
X012543Y005339D01*
X011192Y005339D01*
X011131Y005400D01*
X010950Y005400D01*
X010889Y005339D01*
X009145Y005339D01*
X009084Y005400D01*
X009013Y005400D01*
X009013Y006369D01*
X009074Y006430D01*
X009074Y006611D01*
X008946Y006739D01*
X008765Y006739D01*
X008637Y006611D01*
X008637Y006430D01*
X008698Y006369D01*
X008698Y005282D01*
X008548Y005282D01*
X008481Y005215D01*
X008481Y005231D01*
X008412Y005300D01*
X008137Y005576D01*
X007566Y005576D01*
X007497Y005506D01*
X007336Y005345D01*
X007336Y005744D01*
X007209Y005871D01*
X006715Y005871D01*
X006588Y005744D01*
X006588Y005289D01*
X006715Y005162D01*
X007182Y005162D01*
X007182Y004743D01*
X007082Y004642D01*
X007082Y004461D01*
X007210Y004334D01*
X007391Y004334D01*
X007519Y004461D01*
X007519Y004642D01*
X007418Y004743D01*
X007418Y004873D01*
X007446Y004845D01*
X007627Y004845D01*
X007694Y004912D01*
X007761Y004845D01*
X007864Y004845D01*
X008275Y004434D01*
X007999Y004434D01*
X007527Y003961D01*
X007491Y003961D01*
X007391Y004062D01*
X007210Y004062D01*
X007082Y003934D01*
X007082Y003753D01*
X007188Y003646D01*
X006803Y003646D01*
X006670Y003514D01*
X006670Y002952D01*
X006803Y002820D01*
X007286Y002820D01*
X007418Y002952D01*
X007418Y003514D01*
X007307Y003625D01*
X007391Y003625D01*
X007491Y003725D01*
X007625Y003725D01*
X008097Y004198D01*
X009062Y004198D01*
X008954Y004089D01*
X008954Y003420D01*
X008237Y002703D01*
X008178Y002763D01*
X007997Y002763D01*
X007869Y002635D01*
X007869Y002454D01*
X007997Y002326D01*
X008178Y002326D01*
X008279Y002426D01*
X008294Y002426D01*
X008342Y002474D01*
X008342Y002454D01*
X008470Y002326D01*
X008651Y002326D01*
X008779Y002454D01*
X008779Y002635D01*
X008759Y002654D01*
X009278Y003174D01*
X009348Y003243D01*
X009348Y003704D01*
X009438Y003704D01*
X009562Y003828D01*
X009562Y003713D01*
X009505Y003656D01*
X009505Y002869D01*
X009399Y002763D01*
X009257Y002763D01*
X009190Y002696D01*
X009191Y002696D01*
X009190Y002696D02*
X009123Y002763D01*
X008942Y002763D01*
X008814Y002635D01*
X008814Y002454D01*
X008942Y002326D01*
X009045Y002326D01*
X009181Y002190D01*
X009515Y002190D01*
X009584Y002259D01*
X009633Y002308D01*
X009702Y002377D01*
X009702Y002432D01*
X009781Y002353D01*
X009781Y002262D01*
X009680Y002162D01*
X009680Y001981D01*
X009808Y001853D01*
X009989Y001853D01*
X010117Y001981D01*
X010117Y002162D01*
X010017Y002262D01*
X010017Y002353D01*
X010117Y002454D01*
X010117Y002635D01*
X009989Y002763D01*
X009899Y002763D01*
X009899Y003361D01*
X010084Y003546D01*
X010225Y003546D01*
X010353Y003674D01*
X010353Y003855D01*
X010225Y003983D01*
X010111Y003983D01*
X010117Y003989D01*
X010117Y004170D01*
X010090Y004198D01*
X010113Y004198D01*
X010113Y004186D01*
X010241Y004058D01*
X010422Y004058D01*
X010550Y004186D01*
X010550Y004245D01*
X010844Y003952D01*
X010913Y003883D01*
X012346Y003883D01*
X012318Y003855D01*
X012318Y003674D01*
X012346Y003646D01*
X012118Y003646D01*
X011985Y003514D01*
X011985Y002952D01*
X012118Y002820D01*
X012601Y002820D01*
X012655Y002874D01*
X012655Y002829D01*
X011858Y002032D01*
X011743Y002032D01*
X011643Y002133D01*
X011462Y002133D01*
X011334Y002005D01*
X011334Y001824D01*
X011462Y001696D01*
X011643Y001696D01*
X011743Y001796D01*
X011956Y001796D01*
X012025Y001865D01*
X012879Y002720D01*
X013286Y002313D01*
X013230Y002177D01*
X013230Y001998D01*
X013298Y001833D01*
X013424Y001707D01*
X013589Y001639D01*
X013768Y001639D01*
X013932Y001707D01*
X014059Y001833D01*
X014127Y001998D01*
X014127Y002177D01*
X014059Y002342D01*
X013932Y002468D01*
X013768Y002536D01*
X013589Y002536D01*
X013453Y002480D01*
X013048Y002884D01*
X013048Y003774D01*
X012979Y003843D01*
X012782Y004040D01*
X013230Y004040D01*
X013230Y003998D01*
X013298Y003833D01*
X013424Y003707D01*
X013589Y003639D01*
X013768Y003639D01*
X013932Y003707D01*
X014059Y003833D01*
X014127Y003998D01*
X014127Y004177D01*
X014059Y004342D01*
X013932Y004468D01*
X013768Y004536D01*
X013589Y004536D01*
X013424Y004468D01*
X013298Y004342D01*
X013271Y004276D01*
X013160Y004276D01*
X013188Y004304D01*
X013188Y004485D01*
X013060Y004613D01*
X012879Y004613D01*
X012779Y004513D01*
X012255Y004513D01*
X012155Y004613D01*
X011974Y004613D01*
X011873Y004513D01*
X011089Y004513D01*
X010853Y004749D01*
X012979Y004749D01*
X013048Y004818D01*
X013215Y004985D01*
X013230Y004999D01*
X013230Y004998D01*
X013298Y004833D01*
X013424Y004707D01*
X013589Y004639D01*
X013768Y004639D01*
X013932Y004707D01*
X014059Y004833D01*
X014127Y004998D01*
X014127Y005177D01*
X014059Y005342D01*
X013932Y005468D01*
X013768Y005536D01*
X013589Y005536D01*
X013424Y005468D01*
X013298Y005342D01*
X013285Y005310D01*
X013285Y005527D01*
X013453Y005695D01*
X013589Y005639D01*
X013768Y005639D01*
X013932Y005707D01*
X014059Y005833D01*
X014127Y005998D01*
X014127Y006177D01*
X014059Y006342D01*
X013932Y006468D01*
X013768Y006536D01*
X013589Y006536D01*
X013424Y006468D01*
X013298Y006342D01*
X013230Y006177D01*
X013259Y006249D02*
X012731Y006249D01*
X012809Y006326D02*
X013291Y006326D01*
X013360Y006403D02*
X012886Y006403D01*
X012963Y006481D02*
X013455Y006481D01*
X013419Y006712D02*
X013195Y006712D01*
X013118Y006635D02*
X014288Y006635D01*
X014288Y006558D02*
X013040Y006558D01*
X013272Y006790D02*
X013341Y006790D01*
X013403Y007087D02*
X013678Y007087D01*
X013403Y007087D02*
X012678Y006363D01*
X011080Y006363D01*
X010861Y006326D02*
X009584Y006326D01*
X009538Y006372D01*
X009528Y006372D01*
X009586Y006430D01*
X009586Y006611D01*
X009458Y006739D01*
X009277Y006739D01*
X009149Y006611D01*
X009149Y006430D01*
X009206Y006372D01*
X009157Y006372D01*
X009111Y006326D01*
X009013Y006326D01*
X009013Y006249D02*
X009111Y006249D01*
X009111Y006172D02*
X009013Y006172D01*
X009013Y006095D02*
X009111Y006095D01*
X009111Y006069D02*
X009104Y006065D01*
X009079Y006039D01*
X009060Y006007D01*
X009051Y005972D01*
X009051Y005857D01*
X009270Y005857D01*
X009276Y005851D01*
X009329Y005851D01*
X009329Y005821D01*
X009051Y005821D01*
X009051Y005705D01*
X009060Y005670D01*
X009079Y005638D01*
X009104Y005612D01*
X009136Y005594D01*
X009172Y005584D01*
X009329Y005584D01*
X009329Y005821D01*
X009366Y005821D01*
X009366Y005851D01*
X009420Y005851D01*
X009425Y005857D01*
X009644Y005857D01*
X009644Y005972D01*
X009635Y006007D01*
X009617Y006039D01*
X009591Y006065D01*
X009584Y006069D01*
X009584Y006326D01*
X009584Y006249D02*
X010885Y006249D01*
X010962Y006172D02*
X009584Y006172D01*
X009584Y006095D02*
X013230Y006095D01*
X013230Y006017D02*
X009629Y006017D01*
X009644Y005940D02*
X013254Y005940D01*
X013286Y005863D02*
X009644Y005863D01*
X009644Y005821D02*
X009644Y005705D01*
X009635Y005670D01*
X009617Y005638D01*
X009591Y005612D01*
X009559Y005594D01*
X009523Y005584D01*
X009366Y005584D01*
X009366Y005821D01*
X009644Y005821D01*
X009644Y005786D02*
X013209Y005786D01*
X013132Y005708D02*
X009644Y005708D01*
X009610Y005631D02*
X013055Y005631D01*
X013048Y005554D02*
X009013Y005554D01*
X009013Y005631D02*
X009086Y005631D01*
X009051Y005708D02*
X009013Y005708D01*
X009013Y005786D02*
X009051Y005786D01*
X009051Y005863D02*
X009013Y005863D01*
X009013Y005940D02*
X009051Y005940D01*
X009066Y006017D02*
X009013Y006017D01*
X009111Y006069D02*
X009111Y006326D01*
X009047Y006403D02*
X009175Y006403D01*
X009149Y006481D02*
X009074Y006481D01*
X009074Y006558D02*
X009149Y006558D01*
X009173Y006635D02*
X009050Y006635D01*
X008972Y006712D02*
X009250Y006712D01*
X009367Y006520D02*
X009348Y006501D01*
X009348Y006179D01*
X009559Y006403D02*
X010861Y006403D01*
X010889Y006481D02*
X009586Y006481D01*
X009586Y006558D02*
X010891Y006558D01*
X010861Y006635D02*
X009561Y006635D01*
X009484Y006712D02*
X010861Y006712D01*
X010883Y006790D02*
X006162Y006790D01*
X006239Y006867D02*
X010960Y006867D01*
X010980Y007099D02*
X008207Y007099D01*
X008284Y007176D02*
X010903Y007176D01*
X010861Y007253D02*
X008306Y007253D01*
X008306Y007330D02*
X010861Y007330D01*
X010871Y007408D02*
X008277Y007408D01*
X008200Y007485D02*
X009501Y007485D01*
X009424Y007562D02*
X008588Y007562D01*
X008665Y007639D02*
X009405Y007639D01*
X009405Y007717D02*
X008742Y007717D01*
X008819Y007794D02*
X009436Y007794D01*
X009513Y007871D02*
X008897Y007871D01*
X008885Y007859D02*
X008885Y007859D01*
X008954Y007948D02*
X010080Y007948D01*
X010003Y007871D02*
X009733Y007871D01*
X009745Y007485D02*
X010948Y007485D01*
X010989Y007526D02*
X011170Y007526D01*
X011190Y007506D01*
X011228Y007544D01*
X011149Y007544D01*
X011131Y007562D01*
X011355Y007505D02*
X011159Y007308D01*
X011080Y007308D01*
X011257Y007176D02*
X011473Y007176D01*
X011396Y007099D02*
X011180Y007099D01*
X011319Y007021D02*
X006355Y007021D01*
X006355Y007099D02*
X006374Y007099D01*
X006237Y007032D02*
X005804Y006599D01*
X005995Y006481D02*
X008637Y006481D01*
X008637Y006558D02*
X006023Y006558D01*
X006023Y006635D02*
X008661Y006635D01*
X008739Y006712D02*
X006085Y006712D01*
X005917Y006403D02*
X008664Y006403D01*
X008698Y006326D02*
X005643Y006326D01*
X005489Y006481D02*
X005489Y006599D01*
X006080Y007190D01*
X006080Y009631D01*
X006355Y009906D01*
X006355Y009985D01*
X006552Y010182D01*
X006789Y010182D01*
X006985Y009985D01*
X007576Y009985D01*
X007655Y009906D01*
X007802Y010068D02*
X007917Y010182D01*
X008810Y010182D01*
X008893Y010099D01*
X008893Y010013D01*
X009021Y009885D01*
X009202Y009885D01*
X009263Y009946D01*
X009505Y009946D01*
X009505Y009442D01*
X009479Y009442D01*
X009407Y009369D01*
X009334Y009442D01*
X009046Y009442D01*
X009015Y009410D01*
X009010Y009418D01*
X008970Y009459D01*
X008920Y009487D01*
X008864Y009502D01*
X008796Y009502D01*
X008796Y009068D01*
X008718Y009068D01*
X008718Y009502D01*
X008650Y009502D01*
X008594Y009487D01*
X008544Y009459D01*
X008504Y009418D01*
X008499Y009410D01*
X008468Y009442D01*
X008442Y009442D01*
X008442Y009680D01*
X008373Y009749D01*
X008245Y009876D01*
X008176Y009946D01*
X007881Y009946D01*
X007873Y009937D01*
X007873Y009997D01*
X007802Y010068D01*
X007836Y010034D02*
X008893Y010034D01*
X008881Y010111D02*
X007846Y010111D01*
X007873Y009957D02*
X008949Y009957D01*
X008899Y009493D02*
X009505Y009493D01*
X009505Y009570D02*
X008442Y009570D01*
X008442Y009493D02*
X008615Y009493D01*
X008718Y009493D02*
X008796Y009493D01*
X008796Y009416D02*
X008718Y009416D01*
X008718Y009339D02*
X008796Y009339D01*
X008796Y009261D02*
X008718Y009261D01*
X008718Y009184D02*
X008796Y009184D01*
X008796Y009107D02*
X008718Y009107D01*
X008718Y008989D02*
X008796Y008989D01*
X008796Y008577D01*
X008629Y008410D01*
X008275Y008410D01*
X008206Y008341D01*
X008139Y008274D01*
X007997Y008274D01*
X007869Y008146D01*
X007869Y007965D01*
X007997Y007837D01*
X008178Y007837D01*
X008306Y007965D01*
X008306Y008107D01*
X008373Y008174D01*
X008718Y008174D01*
X008718Y008026D01*
X008472Y007780D01*
X007074Y007780D01*
X006759Y008095D01*
X007215Y008095D01*
X007336Y008216D01*
X007336Y008643D01*
X007718Y008643D01*
X007747Y008615D02*
X008035Y008615D01*
X008107Y008688D01*
X008180Y008615D01*
X008468Y008615D01*
X008499Y008646D01*
X008504Y008639D01*
X008544Y008598D01*
X008594Y008569D01*
X008650Y008554D01*
X008718Y008554D01*
X008718Y008989D01*
X008718Y008952D02*
X008796Y008952D01*
X008796Y008875D02*
X008718Y008875D01*
X008718Y008798D02*
X008796Y008798D01*
X008796Y008721D02*
X008718Y008721D01*
X008718Y008643D02*
X008796Y008643D01*
X008785Y008566D02*
X008718Y008566D01*
X008708Y008489D02*
X007336Y008489D01*
X007336Y008566D02*
X008605Y008566D01*
X008501Y008643D02*
X008496Y008643D01*
X008631Y008412D02*
X007336Y008412D01*
X007336Y008335D02*
X008199Y008335D01*
X008324Y008292D02*
X008678Y008292D01*
X009190Y008804D01*
X009190Y009028D01*
X009020Y009416D02*
X009012Y009416D01*
X009360Y009416D02*
X009453Y009416D01*
X009505Y009648D02*
X008442Y009648D01*
X008397Y009725D02*
X009505Y009725D01*
X009505Y009802D02*
X008320Y009802D01*
X008242Y009879D02*
X009505Y009879D01*
X009623Y010103D02*
X009623Y009028D01*
X009793Y009416D02*
X009886Y009416D01*
X009741Y009493D02*
X010279Y009493D01*
X010271Y009570D02*
X009741Y009570D01*
X009741Y009648D02*
X010271Y009648D01*
X010314Y009725D02*
X009741Y009725D01*
X009741Y009802D02*
X010391Y009802D01*
X010489Y009591D02*
X010489Y009028D01*
X010317Y008643D02*
X010229Y008643D01*
X010064Y008566D02*
X010771Y008566D01*
X010883Y008566D02*
X010962Y008566D01*
X010962Y008554D02*
X011030Y008554D01*
X011085Y008569D01*
X011135Y008598D01*
X011176Y008639D01*
X011204Y008688D01*
X011219Y008744D01*
X011219Y008989D01*
X010962Y008989D01*
X010962Y008554D01*
X010962Y008643D02*
X010883Y008643D01*
X010883Y008721D02*
X010962Y008721D01*
X010962Y008798D02*
X010883Y008798D01*
X010883Y008875D02*
X010962Y008875D01*
X010962Y008952D02*
X010883Y008952D01*
X010962Y009030D02*
X011907Y009030D01*
X011907Y009107D02*
X011219Y009107D01*
X011219Y009068D02*
X011219Y009313D01*
X011204Y009368D01*
X011176Y009418D01*
X011135Y009459D01*
X011085Y009487D01*
X011030Y009502D01*
X010962Y009502D01*
X010962Y009068D01*
X011219Y009068D01*
X011219Y008952D02*
X011907Y008952D01*
X011907Y008875D02*
X011219Y008875D01*
X011219Y008798D02*
X011947Y008798D01*
X012024Y008721D02*
X011213Y008721D01*
X011178Y008643D02*
X013428Y008643D01*
X013475Y008489D02*
X012479Y008489D01*
X012479Y008412D02*
X013368Y008412D01*
X013295Y008335D02*
X012479Y008335D01*
X012417Y008257D02*
X013263Y008257D01*
X013231Y008180D02*
X012253Y008180D01*
X012176Y008103D02*
X013230Y008103D01*
X013230Y008026D02*
X010603Y008026D01*
X010389Y008257D02*
X009086Y008257D01*
X009009Y008180D02*
X010312Y008180D01*
X010235Y008103D02*
X008954Y008103D01*
X008954Y008026D02*
X010157Y008026D01*
X010466Y008335D02*
X009163Y008335D01*
X009241Y008412D02*
X012040Y008412D01*
X012043Y008489D02*
X009987Y008489D01*
X009899Y008568D02*
X009229Y008568D01*
X008836Y008174D01*
X008836Y007977D01*
X008521Y007662D01*
X007025Y007662D01*
X006552Y008135D01*
X006552Y008765D01*
X006749Y008961D01*
X006749Y009158D01*
X006569Y009030D02*
X006355Y009030D01*
X006355Y009107D02*
X006373Y009107D01*
X006355Y008952D02*
X006573Y008952D01*
X006496Y008875D02*
X006355Y008875D01*
X006355Y008798D02*
X006434Y008798D01*
X006434Y008721D02*
X006355Y008721D01*
X006355Y008643D02*
X006434Y008643D01*
X006434Y008566D02*
X006355Y008566D01*
X006355Y008489D02*
X006434Y008489D01*
X006434Y008412D02*
X006355Y008412D01*
X006355Y008335D02*
X006434Y008335D01*
X006434Y008257D02*
X006355Y008257D01*
X006355Y008180D02*
X006434Y008180D01*
X006434Y008103D02*
X006355Y008103D01*
X006355Y008026D02*
X006494Y008026D01*
X006572Y007948D02*
X006355Y007948D01*
X006355Y007871D02*
X006649Y007871D01*
X006726Y007794D02*
X006355Y007794D01*
X006355Y007717D02*
X006803Y007717D01*
X006881Y007639D02*
X006355Y007639D01*
X006355Y007562D02*
X006958Y007562D01*
X007060Y007794D02*
X008485Y007794D01*
X008563Y007871D02*
X008212Y007871D01*
X008289Y007948D02*
X008640Y007948D01*
X008717Y008026D02*
X008306Y008026D01*
X008306Y008103D02*
X008718Y008103D01*
X008324Y008292D02*
X008088Y008056D01*
X007964Y007871D02*
X006983Y007871D01*
X006906Y007948D02*
X007886Y007948D01*
X007869Y008026D02*
X006828Y008026D01*
X006605Y007485D02*
X007975Y007485D01*
X007968Y007099D02*
X006652Y007099D01*
X006316Y006944D02*
X011241Y006944D01*
X011298Y007253D02*
X011550Y007253D01*
X011628Y007330D02*
X011348Y007330D01*
X011355Y007505D02*
X013285Y007505D01*
X013678Y007898D01*
X013678Y008087D01*
X013639Y008643D02*
X013718Y008643D01*
X013718Y008721D02*
X013639Y008721D01*
X013639Y008798D02*
X013718Y008798D01*
X013718Y008875D02*
X013639Y008875D01*
X013639Y008952D02*
X013718Y008952D01*
X013718Y009030D02*
X013639Y009030D01*
X013639Y009261D02*
X013718Y009261D01*
X013718Y009339D02*
X013639Y009339D01*
X013639Y009416D02*
X013718Y009416D01*
X013718Y009493D02*
X013639Y009493D01*
X013639Y009570D02*
X013718Y009570D01*
X013567Y009648D02*
X013405Y009648D01*
X013300Y009709D02*
X013678Y010087D01*
X013495Y010497D02*
X013285Y010497D01*
X013285Y010420D02*
X013376Y010420D01*
X013299Y010343D02*
X013285Y010343D01*
X013332Y010574D02*
X014288Y010574D01*
X013557Y010652D02*
X013410Y010652D01*
X013166Y010048D02*
X012985Y009867D01*
X012300Y009867D01*
X012261Y009906D01*
X012043Y009879D02*
X011244Y009879D01*
X011298Y009957D02*
X012043Y009957D01*
X012080Y010034D02*
X011298Y010034D01*
X011298Y010111D02*
X012157Y010111D01*
X012056Y009802D02*
X010587Y009802D01*
X010665Y009725D02*
X012086Y009725D01*
X012043Y009648D02*
X010708Y009648D01*
X010708Y009570D02*
X012043Y009570D01*
X012050Y009493D02*
X011064Y009493D01*
X010962Y009493D02*
X010883Y009493D01*
X010883Y009416D02*
X010962Y009416D01*
X010962Y009339D02*
X010883Y009339D01*
X010883Y009261D02*
X010962Y009261D01*
X010962Y009184D02*
X010883Y009184D01*
X010883Y009107D02*
X010962Y009107D01*
X011219Y009184D02*
X011907Y009184D01*
X011907Y009261D02*
X011219Y009261D01*
X011212Y009339D02*
X011924Y009339D01*
X012002Y009416D02*
X011177Y009416D01*
X010916Y009879D02*
X009741Y009879D01*
X009767Y010497D02*
X010929Y010497D01*
X011231Y010497D02*
X012318Y010497D01*
X012318Y010574D02*
X009689Y010574D01*
X009612Y010652D02*
X012323Y010652D01*
X012401Y010729D02*
X009535Y010729D01*
X009269Y010379D02*
X009111Y010536D01*
X008206Y010536D01*
X007891Y010851D01*
X007891Y012150D01*
X007733Y012308D01*
X007733Y012702D01*
X007773Y012741D01*
X007773Y014631D01*
X007851Y014709D01*
X007851Y014946D01*
X007497Y015300D01*
X005489Y015300D01*
X005056Y015733D01*
X005056Y015772D01*
X004838Y015750D02*
X001022Y015750D01*
X001022Y015827D02*
X004838Y015827D01*
X004879Y015904D02*
X001022Y015904D01*
X001022Y015981D02*
X004956Y015981D01*
X005156Y015981D02*
X005255Y015981D01*
X004925Y015595D02*
X001022Y015595D01*
X001022Y015518D02*
X005104Y015518D01*
X005182Y015441D02*
X001022Y015441D01*
X001022Y015363D02*
X005259Y015363D01*
X005336Y015286D02*
X001022Y015286D01*
X001022Y015209D02*
X005413Y015209D01*
X004994Y014745D02*
X007261Y014745D01*
X007261Y014823D02*
X001022Y014823D01*
X001022Y014900D02*
X007234Y014900D01*
X007161Y014977D02*
X001022Y014977D01*
X001022Y015054D02*
X007161Y015054D01*
X007161Y015132D02*
X001022Y015132D01*
X001022Y014745D02*
X002232Y014745D01*
X002235Y014749D02*
X002143Y014657D01*
X002099Y014613D01*
X002013Y014613D01*
X001885Y014485D01*
X001885Y014371D01*
X001800Y014455D01*
X001619Y014455D01*
X001491Y014327D01*
X001491Y014147D01*
X001619Y014019D01*
X001800Y014019D01*
X001822Y014040D01*
X002621Y014040D01*
X002722Y013940D01*
X002903Y013940D01*
X003031Y014068D01*
X003031Y014249D01*
X002903Y014377D01*
X002722Y014377D01*
X002621Y014276D01*
X002294Y014276D01*
X002322Y014304D01*
X002322Y014390D01*
X002366Y014434D01*
X004688Y014434D01*
X004749Y014373D01*
X004930Y014373D01*
X005058Y014501D01*
X005058Y014682D01*
X004930Y014810D01*
X004749Y014810D01*
X004688Y014749D01*
X002235Y014749D01*
X002154Y014668D02*
X001022Y014668D01*
X001022Y014591D02*
X001991Y014591D01*
X001914Y014514D02*
X001022Y014514D01*
X001022Y014436D02*
X001600Y014436D01*
X001523Y014359D02*
X001022Y014359D01*
X001022Y014282D02*
X001491Y014282D01*
X001491Y014205D02*
X001022Y014205D01*
X001022Y014128D02*
X001510Y014128D01*
X001588Y014050D02*
X001022Y014050D01*
X001022Y013973D02*
X002688Y013973D01*
X002812Y014158D02*
X001789Y014158D01*
X001710Y014237D01*
X001819Y014436D02*
X001885Y014436D01*
X002300Y014282D02*
X002627Y014282D01*
X002704Y014359D02*
X002322Y014359D01*
X002920Y014359D02*
X007066Y014359D01*
X007003Y014436D02*
X004994Y014436D01*
X005058Y014514D02*
X007003Y014514D01*
X007003Y014591D02*
X005058Y014591D01*
X005058Y014668D02*
X007068Y014668D01*
X007222Y014513D02*
X007300Y014434D01*
X007300Y012977D01*
X007064Y012741D01*
X006906Y012892D02*
X006671Y012892D01*
X006731Y012831D02*
X006603Y012959D01*
X006422Y012959D01*
X006322Y012859D01*
X006153Y012859D01*
X006052Y012959D01*
X005871Y012959D01*
X005743Y012831D01*
X005743Y012650D01*
X005871Y012523D01*
X006052Y012523D01*
X006153Y012623D01*
X006322Y012623D01*
X006422Y012523D01*
X006603Y012523D01*
X006731Y012650D01*
X006731Y012831D01*
X006731Y012814D02*
X006846Y012814D01*
X006846Y012737D02*
X006731Y012737D01*
X006731Y012660D02*
X006846Y012660D01*
X006913Y012583D02*
X006664Y012583D01*
X006513Y012741D02*
X005962Y012741D01*
X006120Y012892D02*
X006355Y012892D01*
X006362Y012583D02*
X006112Y012583D01*
X005811Y012583D02*
X004262Y012583D01*
X004202Y012523D02*
X004330Y012650D01*
X004330Y012831D01*
X004202Y012959D01*
X004021Y012959D01*
X003893Y012831D01*
X003893Y012650D01*
X003914Y012629D01*
X003914Y011884D01*
X003612Y011581D01*
X003470Y011581D01*
X003342Y011453D01*
X003342Y011273D01*
X003470Y011145D01*
X003651Y011145D01*
X003779Y011273D01*
X003779Y011414D01*
X004151Y011787D01*
X004151Y012523D01*
X004202Y012523D01*
X004151Y012505D02*
X007300Y012505D01*
X007300Y012428D02*
X004151Y012428D01*
X004151Y012351D02*
X007300Y012351D01*
X007300Y012274D02*
X004151Y012274D01*
X004151Y012197D02*
X007300Y012197D01*
X007300Y012119D02*
X004151Y012119D01*
X004151Y012042D02*
X007360Y012042D01*
X007437Y011965D02*
X004151Y011965D01*
X004151Y011888D02*
X007458Y011888D01*
X007458Y011810D02*
X004151Y011810D01*
X004097Y011733D02*
X007458Y011733D01*
X007458Y011656D02*
X004020Y011656D01*
X003943Y011579D02*
X007458Y011579D01*
X007458Y011501D02*
X003866Y011501D01*
X003788Y011424D02*
X007458Y011424D01*
X007458Y011347D02*
X003779Y011347D01*
X003776Y011270D02*
X007458Y011270D01*
X007458Y011192D02*
X003698Y011192D01*
X003560Y011363D02*
X004033Y011835D01*
X004033Y012662D01*
X004111Y012741D01*
X004269Y012892D02*
X005804Y012892D01*
X005743Y012814D02*
X004330Y012814D01*
X004330Y012737D02*
X005743Y012737D01*
X005743Y012660D02*
X004330Y012660D01*
X003914Y012583D02*
X001022Y012583D01*
X001022Y012660D02*
X003893Y012660D01*
X003893Y012737D02*
X001022Y012737D01*
X001022Y012814D02*
X003893Y012814D01*
X003953Y012892D02*
X001022Y012892D01*
X001022Y012969D02*
X007125Y012969D01*
X007182Y013046D02*
X001022Y013046D01*
X001022Y013123D02*
X007182Y013123D01*
X007182Y013201D02*
X001022Y013201D01*
X001022Y013278D02*
X007182Y013278D01*
X007182Y013355D02*
X001022Y013355D01*
X001022Y013432D02*
X007182Y013432D01*
X007182Y013510D02*
X001022Y013510D01*
X001022Y013587D02*
X007182Y013587D01*
X007182Y013664D02*
X001022Y013664D01*
X001022Y013741D02*
X007182Y013741D01*
X007182Y013819D02*
X001022Y013819D01*
X001022Y013896D02*
X007182Y013896D01*
X007182Y013973D02*
X002936Y013973D01*
X003013Y014050D02*
X007182Y014050D01*
X007182Y014128D02*
X003031Y014128D01*
X003031Y014205D02*
X007182Y014205D01*
X007182Y014282D02*
X002997Y014282D01*
X003914Y012505D02*
X001022Y012505D01*
X001022Y012428D02*
X003914Y012428D01*
X003914Y012351D02*
X001022Y012351D01*
X001022Y012274D02*
X003914Y012274D01*
X003914Y012197D02*
X001022Y012197D01*
X001022Y012119D02*
X003914Y012119D01*
X003914Y012042D02*
X001694Y012042D01*
X001682Y012054D02*
X001501Y012054D01*
X001373Y011926D01*
X001373Y011745D01*
X001474Y011645D01*
X001474Y010881D01*
X001543Y010812D01*
X001897Y010457D01*
X001664Y010457D01*
X001603Y010518D01*
X001422Y010518D01*
X001294Y010390D01*
X001294Y010210D01*
X001422Y010082D01*
X001603Y010082D01*
X001664Y010143D01*
X001881Y010143D01*
X002056Y009967D01*
X001974Y009967D01*
X001846Y009839D01*
X001846Y009658D01*
X001913Y009591D01*
X001846Y009524D01*
X001846Y009343D01*
X001974Y009215D01*
X002115Y009215D01*
X002161Y009170D01*
X002121Y009131D01*
X002121Y008950D01*
X002249Y008822D01*
X002318Y008822D01*
X002318Y008674D01*
X002346Y008646D01*
X002294Y008646D01*
X002194Y008747D01*
X002013Y008747D01*
X001885Y008619D01*
X001885Y008438D01*
X001952Y008371D01*
X001885Y008304D01*
X001885Y008123D01*
X002013Y007995D01*
X002194Y007995D01*
X002322Y008123D01*
X002322Y008225D01*
X002349Y008253D01*
X002606Y008253D01*
X002921Y007938D01*
X003354Y007938D01*
X003432Y007859D01*
X003763Y007859D01*
X003785Y007837D01*
X003966Y007837D01*
X004094Y007965D01*
X004094Y008146D01*
X003966Y008274D01*
X003818Y008274D01*
X003818Y008304D01*
X003690Y008432D01*
X003621Y008432D01*
X003621Y008540D01*
X003493Y008668D01*
X003363Y008668D01*
X003363Y008731D01*
X003391Y008704D01*
X003572Y008704D01*
X003700Y008832D01*
X003700Y009013D01*
X003572Y009140D01*
X003521Y009140D01*
X003521Y009286D01*
X003452Y009355D01*
X003255Y009552D01*
X002467Y009552D01*
X002283Y009737D01*
X002283Y009749D01*
X003180Y009749D01*
X003224Y009705D01*
X003224Y009619D01*
X003352Y009491D01*
X003533Y009491D01*
X003660Y009619D01*
X003660Y009727D01*
X003769Y009727D01*
X003897Y009855D01*
X003897Y010036D01*
X003769Y010164D01*
X003627Y010164D01*
X003570Y010221D01*
X002467Y010221D01*
X001710Y010979D01*
X001710Y011645D01*
X001810Y011745D01*
X001810Y011926D01*
X001682Y012054D01*
X001771Y011965D02*
X003914Y011965D01*
X003914Y011888D02*
X001810Y011888D01*
X001810Y011810D02*
X003840Y011810D01*
X003763Y011733D02*
X001798Y011733D01*
X001721Y011656D02*
X003686Y011656D01*
X003467Y011579D02*
X001710Y011579D01*
X001710Y011501D02*
X003390Y011501D01*
X003342Y011424D02*
X001710Y011424D01*
X001710Y011347D02*
X003342Y011347D01*
X003345Y011270D02*
X001710Y011270D01*
X001710Y011192D02*
X003422Y011192D01*
X003603Y010188D02*
X005620Y010188D01*
X005546Y010111D02*
X004964Y010111D01*
X004910Y010164D02*
X004730Y010164D01*
X004602Y010036D01*
X004602Y009855D01*
X004702Y009755D01*
X004702Y008404D01*
X004602Y008304D01*
X004602Y008123D01*
X004702Y008023D01*
X004702Y005428D01*
X004675Y005400D01*
X004533Y005400D01*
X004405Y005272D01*
X004405Y005091D01*
X004533Y004963D01*
X004714Y004963D01*
X004842Y005091D01*
X004842Y005233D01*
X004869Y005261D01*
X004938Y005330D01*
X004938Y008023D01*
X005038Y008123D01*
X005038Y008304D01*
X004938Y008404D01*
X004938Y009755D01*
X005038Y009855D01*
X005038Y010036D01*
X004910Y010164D01*
X005038Y010034D02*
X005546Y010034D01*
X005546Y009957D02*
X005038Y009957D01*
X005038Y009879D02*
X005601Y009879D01*
X005804Y009802D02*
X004985Y009802D01*
X004938Y009725D02*
X005804Y009725D01*
X005804Y009648D02*
X005506Y009648D01*
X005462Y009692D02*
X005281Y009692D01*
X005153Y009564D01*
X005153Y009383D01*
X005253Y009282D01*
X005253Y007420D01*
X005192Y007359D01*
X005192Y007178D01*
X005320Y007050D01*
X005501Y007050D01*
X005629Y007178D01*
X005629Y007359D01*
X005568Y007420D01*
X005568Y009361D01*
X005590Y009383D01*
X005590Y009564D01*
X005462Y009692D01*
X005583Y009570D02*
X005804Y009570D01*
X005804Y009493D02*
X005590Y009493D01*
X005590Y009416D02*
X005804Y009416D01*
X005804Y009339D02*
X005568Y009339D01*
X005568Y009261D02*
X005804Y009261D01*
X005804Y009184D02*
X005568Y009184D01*
X005568Y009107D02*
X005804Y009107D01*
X005804Y009030D02*
X005568Y009030D01*
X005568Y008952D02*
X005804Y008952D01*
X005804Y008875D02*
X005568Y008875D01*
X005568Y008798D02*
X005804Y008798D01*
X005804Y008721D02*
X005568Y008721D01*
X005568Y008643D02*
X005804Y008643D01*
X005730Y008566D02*
X005568Y008566D01*
X005568Y008489D02*
X005653Y008489D01*
X005625Y008412D02*
X005568Y008412D01*
X005568Y008335D02*
X005625Y008335D01*
X005648Y008257D02*
X005568Y008257D01*
X005568Y008180D02*
X005726Y008180D01*
X005568Y008103D02*
X005962Y008103D01*
X005962Y008026D02*
X005568Y008026D01*
X005568Y007948D02*
X005962Y007948D01*
X005962Y007871D02*
X005568Y007871D01*
X005568Y007794D02*
X005962Y007794D01*
X005962Y007717D02*
X005568Y007717D01*
X005568Y007639D02*
X005962Y007639D01*
X005962Y007562D02*
X005568Y007562D01*
X005568Y007485D02*
X005962Y007485D01*
X005962Y007408D02*
X005580Y007408D01*
X005629Y007330D02*
X005962Y007330D01*
X005962Y007253D02*
X005629Y007253D01*
X005627Y007176D02*
X005899Y007176D01*
X005822Y007099D02*
X005550Y007099D01*
X005667Y006944D02*
X004938Y006944D01*
X004938Y006867D02*
X005590Y006867D01*
X005513Y006790D02*
X004938Y006790D01*
X004938Y006712D02*
X005436Y006712D01*
X005335Y006635D02*
X004938Y006635D01*
X004938Y006558D02*
X005271Y006558D01*
X005271Y006481D02*
X004938Y006481D01*
X004938Y006403D02*
X005271Y006403D01*
X005335Y006326D02*
X004938Y006326D01*
X004938Y006249D02*
X008698Y006249D01*
X008698Y006172D02*
X004938Y006172D01*
X004938Y006095D02*
X008698Y006095D01*
X008698Y006017D02*
X004938Y006017D01*
X004938Y005940D02*
X008698Y005940D01*
X008698Y005863D02*
X007217Y005863D01*
X007294Y005786D02*
X008698Y005786D01*
X008698Y005708D02*
X007336Y005708D01*
X007336Y005631D02*
X008698Y005631D01*
X008698Y005554D02*
X008158Y005554D01*
X008236Y005477D02*
X008698Y005477D01*
X008698Y005399D02*
X008313Y005399D01*
X008390Y005322D02*
X008698Y005322D01*
X008511Y005245D02*
X008467Y005245D01*
X008363Y005182D02*
X008363Y004985D01*
X008560Y004788D01*
X009977Y004788D01*
X010017Y004828D01*
X010607Y004828D01*
X011040Y004394D01*
X012064Y004394D01*
X012970Y004394D01*
X013188Y004395D02*
X013351Y004395D01*
X013288Y004318D02*
X013188Y004318D01*
X013188Y004472D02*
X013435Y004472D01*
X013431Y004704D02*
X010898Y004704D01*
X010975Y004627D02*
X014288Y004627D01*
X014288Y004704D02*
X013926Y004704D01*
X014007Y004781D02*
X014288Y004781D01*
X014288Y004859D02*
X014069Y004859D01*
X014101Y004936D02*
X014288Y004936D01*
X014288Y005013D02*
X014127Y005013D01*
X014127Y005090D02*
X014288Y005090D01*
X014288Y005168D02*
X014127Y005168D01*
X014099Y005245D02*
X014288Y005245D01*
X014288Y005322D02*
X014067Y005322D01*
X014001Y005399D02*
X014288Y005399D01*
X014288Y005477D02*
X013911Y005477D01*
X013934Y005708D02*
X014288Y005708D01*
X014288Y005631D02*
X013389Y005631D01*
X013312Y005554D02*
X014288Y005554D01*
X014288Y005786D02*
X014011Y005786D01*
X014071Y005863D02*
X014288Y005863D01*
X014288Y005940D02*
X014103Y005940D01*
X014127Y006017D02*
X014288Y006017D01*
X014288Y006095D02*
X014127Y006095D01*
X014127Y006172D02*
X014288Y006172D01*
X014288Y006249D02*
X014097Y006249D01*
X014065Y006326D02*
X014288Y006326D01*
X014288Y006403D02*
X013997Y006403D01*
X013901Y006481D02*
X014288Y006481D01*
X014288Y006712D02*
X013938Y006712D01*
X014015Y006790D02*
X014288Y006790D01*
X014288Y006867D02*
X014073Y006867D01*
X014105Y006944D02*
X014288Y006944D01*
X014288Y007021D02*
X014127Y007021D01*
X014127Y007099D02*
X014288Y007099D01*
X014288Y007176D02*
X014127Y007176D01*
X014095Y007253D02*
X014288Y007253D01*
X014288Y007330D02*
X014063Y007330D01*
X013993Y007408D02*
X014288Y007408D01*
X014288Y007639D02*
X013769Y007639D01*
X013587Y007639D02*
X013586Y007639D01*
X013929Y008643D02*
X014288Y008643D01*
X014288Y008721D02*
X014032Y008721D01*
X014098Y008798D02*
X014288Y008798D01*
X014288Y008875D02*
X014142Y008875D01*
X014170Y008952D02*
X014288Y008952D01*
X014288Y009030D02*
X014185Y009030D01*
X013516Y009570D02*
X012479Y009570D01*
X012472Y009493D02*
X013370Y009493D01*
X013287Y009416D02*
X012638Y009416D01*
X012716Y009339D02*
X013235Y009339D01*
X013199Y009261D02*
X012733Y009261D01*
X012379Y009709D02*
X013300Y009709D01*
X012891Y010103D02*
X012891Y010202D01*
X012537Y010556D01*
X012364Y010420D02*
X011298Y010420D01*
X011298Y010343D02*
X012441Y010343D01*
X012365Y010111D02*
X012672Y010111D01*
X012672Y010034D02*
X012442Y010034D01*
X012672Y010188D02*
X011238Y010188D01*
X011298Y010266D02*
X012660Y010266D01*
X012379Y009709D02*
X012261Y009591D01*
X012108Y008566D02*
X011074Y008566D01*
X010666Y008643D02*
X010662Y008643D01*
X010056Y008725D02*
X010056Y009028D01*
X010056Y008725D02*
X009899Y008568D01*
X010226Y009416D02*
X010319Y009416D01*
X010659Y009416D02*
X010668Y009416D01*
X010700Y009493D02*
X010780Y009493D01*
X012289Y011656D02*
X008245Y011656D01*
X008245Y011733D02*
X012279Y011733D01*
X012279Y011810D02*
X008245Y011810D01*
X008245Y011888D02*
X012319Y011888D01*
X012340Y011965D02*
X008245Y011965D01*
X008245Y012042D02*
X012340Y012042D01*
X012340Y012119D02*
X008245Y012119D01*
X008245Y012197D02*
X012340Y012197D01*
X012340Y012274D02*
X008245Y012274D01*
X008249Y012351D02*
X012340Y012351D01*
X012340Y012428D02*
X008285Y012428D01*
X008285Y012505D02*
X012340Y012505D01*
X012340Y012583D02*
X008285Y012583D01*
X008285Y012660D02*
X012340Y012660D01*
X012389Y012737D02*
X008285Y012737D01*
X008285Y012814D02*
X012466Y012814D01*
X012515Y012892D02*
X008285Y012892D01*
X008285Y012969D02*
X011748Y012969D01*
X011867Y013017D02*
X011670Y013213D01*
X011670Y013253D01*
X011452Y013278D02*
X008285Y013278D01*
X008285Y013355D02*
X011464Y013355D01*
X011541Y013432D02*
X008285Y013432D01*
X008285Y013510D02*
X011631Y013510D01*
X011631Y013587D02*
X010306Y013587D01*
X010383Y013664D02*
X011631Y013664D01*
X011631Y013741D02*
X010432Y013741D01*
X010432Y013819D02*
X011631Y013819D01*
X011631Y013896D02*
X010431Y013896D01*
X010353Y013973D02*
X011631Y013973D01*
X011631Y014050D02*
X010117Y014050D01*
X010042Y014128D02*
X011631Y014128D01*
X011631Y014205D02*
X010017Y014205D01*
X010017Y014282D02*
X011631Y014282D01*
X011631Y014359D02*
X010017Y014359D01*
X010017Y014436D02*
X011631Y014436D01*
X011631Y014514D02*
X010017Y014514D01*
X010017Y014591D02*
X011631Y014591D01*
X011631Y014668D02*
X010017Y014668D01*
X010017Y014745D02*
X011631Y014745D01*
X011631Y014823D02*
X010017Y014823D01*
X010017Y014900D02*
X011631Y014900D01*
X011631Y014977D02*
X010017Y014977D01*
X010017Y015054D02*
X011631Y015054D01*
X011631Y015132D02*
X010017Y015132D01*
X010017Y015209D02*
X011631Y015209D01*
X011631Y015286D02*
X010017Y015286D01*
X010017Y015363D02*
X011631Y015363D01*
X011631Y015441D02*
X010017Y015441D01*
X010017Y015518D02*
X011577Y015518D01*
X011531Y015595D02*
X010017Y015595D01*
X010017Y015672D02*
X011531Y015672D01*
X011535Y015750D02*
X010017Y015750D01*
X010017Y015827D02*
X011613Y015827D01*
X011749Y015654D02*
X011749Y013528D01*
X011985Y013292D01*
X011985Y013253D01*
X012115Y013432D02*
X012510Y013432D01*
X012515Y013510D02*
X011935Y013510D01*
X011867Y013587D02*
X012522Y013587D01*
X012600Y013664D02*
X011867Y013664D01*
X011452Y013201D02*
X008285Y013201D01*
X008285Y013123D02*
X011491Y013123D01*
X011568Y013046D02*
X008285Y013046D01*
X008285Y013587D02*
X010122Y013587D01*
X010135Y013725D02*
X010214Y013804D01*
X010135Y013725D02*
X009781Y013725D01*
X009663Y013843D01*
X009663Y014158D01*
X009741Y014237D01*
X009741Y015713D01*
X009426Y016028D01*
X009645Y016059D02*
X009781Y016059D01*
X009781Y016136D02*
X009628Y016136D01*
X009551Y016213D02*
X009781Y016213D01*
X009781Y016290D02*
X007812Y016290D01*
X007812Y016368D02*
X009767Y016368D01*
X009689Y016445D02*
X007864Y016445D01*
X007941Y016522D02*
X009612Y016522D01*
X009535Y016599D02*
X008019Y016599D01*
X008096Y016676D02*
X009316Y016676D01*
X009238Y016754D02*
X008173Y016754D01*
X008250Y016831D02*
X009208Y016831D01*
X009208Y016908D02*
X008328Y016908D01*
X008405Y016985D02*
X009228Y016985D01*
X009305Y017063D02*
X008482Y017063D01*
X008559Y017140D02*
X010388Y017140D01*
X010310Y017217D02*
X008636Y017217D01*
X008714Y017294D02*
X010271Y017294D01*
X010411Y017426D02*
X010489Y017347D01*
X010411Y017426D02*
X008678Y017426D01*
X007694Y016442D01*
X007694Y016324D01*
X007497Y016127D01*
X007458Y016127D01*
X007676Y016136D02*
X009225Y016136D01*
X009208Y016059D02*
X007676Y016059D01*
X007621Y015981D02*
X009208Y015981D01*
X009242Y015904D02*
X005635Y015904D01*
X005690Y015827D02*
X009319Y015827D01*
X009538Y015750D02*
X007775Y015750D01*
X007853Y015672D02*
X009615Y015672D01*
X009623Y015595D02*
X007930Y015595D01*
X008007Y015518D02*
X009623Y015518D01*
X009623Y015441D02*
X008084Y015441D01*
X008162Y015363D02*
X009623Y015363D01*
X009623Y015286D02*
X008239Y015286D01*
X008316Y015209D02*
X009623Y015209D01*
X009623Y015132D02*
X008363Y015132D01*
X008363Y015054D02*
X009623Y015054D01*
X009623Y014977D02*
X008363Y014977D01*
X008363Y014900D02*
X009623Y014900D01*
X009623Y014823D02*
X008363Y014823D01*
X008363Y014745D02*
X009623Y014745D01*
X009623Y014668D02*
X008363Y014668D01*
X008363Y014591D02*
X009623Y014591D01*
X009623Y014514D02*
X008363Y014514D01*
X008306Y014436D02*
X009623Y014436D01*
X009623Y014359D02*
X008285Y014359D01*
X008285Y014282D02*
X009619Y014282D01*
X009544Y014205D02*
X008285Y014205D01*
X008285Y014128D02*
X009544Y014128D01*
X009544Y014050D02*
X008285Y014050D01*
X008285Y013973D02*
X009544Y013973D01*
X009544Y013896D02*
X008285Y013896D01*
X008285Y013819D02*
X009544Y013819D01*
X009597Y013741D02*
X008285Y013741D01*
X008285Y013664D02*
X009675Y013664D01*
X009899Y013961D02*
X009899Y016402D01*
X009426Y016875D01*
X009302Y016213D02*
X007750Y016213D01*
X007680Y016831D02*
X007551Y016831D01*
X007628Y016908D02*
X007757Y016908D01*
X007706Y016985D02*
X007834Y016985D01*
X007783Y017063D02*
X007912Y017063D01*
X007860Y017140D02*
X007989Y017140D01*
X007937Y017217D02*
X008066Y017217D01*
X008015Y017294D02*
X008143Y017294D01*
X008092Y017372D02*
X008221Y017372D01*
X008169Y017449D02*
X008298Y017449D01*
X008246Y017526D02*
X008375Y017526D01*
X008324Y017603D02*
X008452Y017603D01*
X008401Y017681D02*
X008530Y017681D01*
X008478Y017758D02*
X010276Y017758D01*
X010253Y018056D02*
X010187Y018056D01*
X010024Y017835D02*
X010010Y017835D01*
X009847Y018056D02*
X009781Y018056D01*
X009689Y018299D02*
X007322Y018299D01*
X007322Y018221D02*
X008273Y018221D01*
X008196Y018144D02*
X007304Y018144D01*
X007226Y018067D02*
X008119Y018067D01*
X008042Y017990D02*
X007035Y017990D01*
X007289Y018376D02*
X009689Y018376D01*
X009689Y018453D02*
X007212Y018453D01*
X007333Y018685D02*
X009754Y018685D01*
X009689Y018607D02*
X005056Y018607D01*
X005056Y018530D02*
X009689Y018530D01*
X009831Y018762D02*
X007401Y018762D01*
X007401Y018839D02*
X009639Y018839D01*
X009559Y018916D02*
X009347Y018916D01*
X009368Y018994D02*
X009550Y018994D01*
X009550Y019071D02*
X009368Y019071D01*
X009368Y019148D02*
X009550Y019148D01*
X009550Y019225D02*
X009368Y019225D01*
X009368Y019303D02*
X009550Y019303D01*
X009550Y019380D02*
X009368Y019380D01*
X009368Y019457D02*
X009950Y019457D01*
X010029Y019457D02*
X010611Y019457D01*
X010611Y019380D02*
X010429Y019380D01*
X010429Y019431D02*
X010029Y019431D01*
X010029Y019509D01*
X010429Y019509D01*
X010429Y019964D01*
X010611Y019964D01*
X010611Y019069D01*
X010424Y018883D01*
X010399Y018883D01*
X010401Y018885D01*
X010419Y018916D01*
X010429Y018952D01*
X010429Y019431D01*
X010429Y019534D02*
X010611Y019534D01*
X010611Y019612D02*
X010429Y019612D01*
X010429Y019689D02*
X010611Y019689D01*
X010611Y019766D02*
X010429Y019766D01*
X010429Y019843D02*
X010611Y019843D01*
X010611Y019921D02*
X010429Y019921D01*
X010429Y019303D02*
X010611Y019303D01*
X010611Y019225D02*
X010429Y019225D01*
X010429Y019148D02*
X010611Y019148D01*
X010611Y019071D02*
X010429Y019071D01*
X010429Y018994D02*
X010535Y018994D01*
X010458Y018916D02*
X010419Y018916D01*
X010607Y018450D02*
X010135Y018450D01*
X010703Y017758D02*
X010726Y017758D01*
X010726Y017681D02*
X010708Y017681D01*
X010708Y017603D02*
X010726Y017603D01*
X009781Y015981D02*
X009645Y015981D01*
X009718Y015904D02*
X009781Y015904D01*
X007964Y017912D02*
X006009Y017912D01*
X005056Y018453D02*
X006995Y018453D01*
X007401Y018916D02*
X008632Y018916D01*
X008611Y018994D02*
X007670Y018994D01*
X007747Y019071D02*
X008611Y019071D01*
X008611Y019148D02*
X007753Y019148D01*
X007753Y019225D02*
X008611Y019225D01*
X008611Y019303D02*
X007753Y019303D01*
X007753Y019380D02*
X008611Y019380D01*
X008611Y019457D02*
X007753Y019457D01*
X007753Y019534D02*
X008611Y019534D01*
X009368Y019534D02*
X009550Y019534D01*
X009550Y019612D02*
X009368Y019612D01*
X009368Y019689D02*
X009550Y019689D01*
X009550Y019766D02*
X009368Y019766D01*
X009368Y019843D02*
X009550Y019843D01*
X009550Y019921D02*
X009368Y019921D01*
X012147Y018839D02*
X013009Y018839D01*
X013009Y018762D02*
X012851Y018762D01*
X012851Y018685D02*
X013009Y018685D01*
X013009Y018607D02*
X012851Y018607D01*
X012851Y018530D02*
X013009Y018530D01*
X013009Y018453D02*
X012851Y018453D01*
X012851Y018376D02*
X013009Y018376D01*
X013009Y018299D02*
X012851Y018299D01*
X012851Y018221D02*
X013009Y018221D01*
X013009Y018144D02*
X012851Y018144D01*
X012851Y018067D02*
X013009Y018067D01*
X013009Y017990D02*
X012851Y017990D01*
X012851Y017912D02*
X013009Y017912D01*
X013009Y017835D02*
X012851Y017835D01*
X012851Y017758D02*
X013009Y017758D01*
X013009Y017681D02*
X012851Y017681D01*
X012851Y017603D02*
X013009Y017603D01*
X013009Y017526D02*
X012851Y017526D01*
X012851Y017449D02*
X013009Y017449D01*
X013009Y017372D02*
X012851Y017372D01*
X012851Y017294D02*
X013009Y017294D01*
X013009Y017217D02*
X012851Y017217D01*
X012851Y017140D02*
X013009Y017140D01*
X013009Y017063D02*
X012851Y017063D01*
X012851Y016985D02*
X013009Y016985D01*
X013009Y016908D02*
X012851Y016908D01*
X012851Y016831D02*
X013009Y016831D01*
X013009Y016754D02*
X012851Y016754D01*
X012851Y016676D02*
X013009Y016676D01*
X013009Y016599D02*
X012851Y016599D01*
X012851Y016522D02*
X014288Y016522D01*
X014288Y016445D02*
X012851Y016445D01*
X012851Y016368D02*
X014288Y016368D01*
X014288Y016290D02*
X012851Y016290D01*
X012851Y016213D02*
X014288Y016213D01*
X014288Y016136D02*
X012851Y016136D01*
X012851Y016059D02*
X014288Y016059D01*
X014288Y015981D02*
X012851Y015981D01*
X012733Y013489D02*
X012261Y013017D01*
X011867Y013017D01*
X012204Y013201D02*
X012278Y013201D01*
X012204Y013278D02*
X012355Y013278D01*
X012433Y013355D02*
X012192Y013355D01*
X012458Y013046D02*
X012612Y013046D01*
X012534Y012969D02*
X012380Y012969D01*
X012655Y012119D02*
X013639Y012119D01*
X013639Y012042D02*
X013718Y012042D01*
X013718Y012048D02*
X013718Y011578D01*
X013798Y011591D01*
X013874Y011615D01*
X013945Y011652D01*
X014010Y011699D01*
X014067Y011756D01*
X014114Y011820D01*
X014150Y011892D01*
X014175Y011968D01*
X014188Y012047D01*
X014188Y012048D01*
X013718Y012048D01*
X013718Y012119D02*
X014288Y012119D01*
X014288Y012042D02*
X014187Y012042D01*
X014174Y011965D02*
X014288Y011965D01*
X014288Y011888D02*
X014148Y011888D01*
X014107Y011810D02*
X014288Y011810D01*
X014288Y011733D02*
X014044Y011733D01*
X013951Y011656D02*
X014288Y011656D01*
X014288Y011579D02*
X013722Y011579D01*
X013718Y011578D02*
X013718Y011578D01*
X013718Y011579D02*
X013639Y011579D01*
X013635Y011579D02*
X012628Y011579D01*
X012366Y011579D02*
X008245Y011579D01*
X007733Y012072D02*
X007733Y010615D01*
X007615Y010497D01*
X007300Y010536D02*
X007576Y010812D01*
X007576Y011993D01*
X007418Y012150D01*
X007418Y012859D01*
X007458Y012898D01*
X007458Y014631D01*
X007379Y014709D01*
X007379Y015064D01*
X007615Y014828D02*
X007615Y012820D01*
X007576Y012780D01*
X007576Y012229D01*
X007733Y012072D01*
X007300Y012583D02*
X007215Y012583D01*
X007283Y012660D02*
X007300Y012660D01*
X007300Y012737D02*
X007283Y012737D01*
X007458Y011115D02*
X001710Y011115D01*
X001710Y011038D02*
X007458Y011038D01*
X007458Y010961D02*
X001728Y010961D01*
X001805Y010883D02*
X007458Y010883D01*
X007403Y010806D02*
X001882Y010806D01*
X001960Y010729D02*
X007326Y010729D01*
X007300Y010536D02*
X007300Y010497D01*
X007146Y010652D02*
X002037Y010652D01*
X002114Y010574D02*
X007082Y010574D01*
X007082Y010497D02*
X007011Y010497D01*
X006670Y009946D02*
X006237Y009513D01*
X006237Y007032D01*
X006355Y007485D02*
X006420Y007485D01*
X005744Y007021D02*
X004938Y007021D01*
X004938Y007099D02*
X005272Y007099D01*
X005194Y007176D02*
X004938Y007176D01*
X004938Y007253D02*
X005192Y007253D01*
X005192Y007330D02*
X004938Y007330D01*
X004938Y007408D02*
X005241Y007408D01*
X005253Y007485D02*
X004938Y007485D01*
X004938Y007562D02*
X005253Y007562D01*
X005253Y007639D02*
X004938Y007639D01*
X004938Y007717D02*
X005253Y007717D01*
X005253Y007794D02*
X004938Y007794D01*
X004938Y007871D02*
X005253Y007871D01*
X005253Y007948D02*
X004938Y007948D01*
X004941Y008026D02*
X005253Y008026D01*
X005253Y008103D02*
X005018Y008103D01*
X005038Y008180D02*
X005253Y008180D01*
X005253Y008257D02*
X005038Y008257D01*
X005008Y008335D02*
X005253Y008335D01*
X005253Y008412D02*
X004938Y008412D01*
X004938Y008489D02*
X005253Y008489D01*
X005253Y008566D02*
X004938Y008566D01*
X004938Y008643D02*
X005253Y008643D01*
X005253Y008721D02*
X004938Y008721D01*
X004938Y008798D02*
X005253Y008798D01*
X005253Y008875D02*
X004938Y008875D01*
X004938Y008952D02*
X005253Y008952D01*
X005253Y009030D02*
X004938Y009030D01*
X004938Y009107D02*
X005253Y009107D01*
X005253Y009184D02*
X004938Y009184D01*
X004938Y009261D02*
X005253Y009261D01*
X005197Y009339D02*
X004938Y009339D01*
X004938Y009416D02*
X005153Y009416D01*
X005153Y009493D02*
X004938Y009493D01*
X004938Y009570D02*
X005159Y009570D01*
X005237Y009648D02*
X004938Y009648D01*
X004702Y009648D02*
X003660Y009648D01*
X003660Y009725D02*
X004702Y009725D01*
X004655Y009802D02*
X003844Y009802D01*
X003897Y009879D02*
X004602Y009879D01*
X004602Y009957D02*
X003897Y009957D01*
X003897Y010034D02*
X004602Y010034D01*
X004676Y010111D02*
X003822Y010111D01*
X003678Y009946D02*
X003521Y010103D01*
X002418Y010103D01*
X001592Y010930D01*
X001592Y011835D01*
X001373Y011810D02*
X001022Y011810D01*
X001022Y011733D02*
X001385Y011733D01*
X001462Y011656D02*
X001022Y011656D01*
X001022Y011579D02*
X001474Y011579D01*
X001474Y011501D02*
X001022Y011501D01*
X001022Y011424D02*
X001474Y011424D01*
X001474Y011347D02*
X001022Y011347D01*
X001022Y011270D02*
X001474Y011270D01*
X001474Y011192D02*
X001022Y011192D01*
X001022Y011115D02*
X001474Y011115D01*
X001474Y011038D02*
X001022Y011038D01*
X001022Y010961D02*
X001474Y010961D01*
X001474Y010883D02*
X001022Y010883D01*
X001022Y010806D02*
X001548Y010806D01*
X001543Y010812D02*
X001543Y010812D01*
X001626Y010729D02*
X001022Y010729D01*
X001022Y010652D02*
X001703Y010652D01*
X001780Y010574D02*
X001022Y010574D01*
X001022Y010497D02*
X001401Y010497D01*
X001324Y010420D02*
X001022Y010420D01*
X001022Y010343D02*
X001294Y010343D01*
X001294Y010266D02*
X001022Y010266D01*
X001022Y010188D02*
X001316Y010188D01*
X001393Y010111D02*
X001022Y010111D01*
X001022Y010034D02*
X001989Y010034D01*
X001963Y009957D02*
X001022Y009957D01*
X001022Y009879D02*
X001886Y009879D01*
X001846Y009802D02*
X001022Y009802D01*
X001022Y009725D02*
X001846Y009725D01*
X001856Y009648D02*
X001022Y009648D01*
X001022Y009570D02*
X001892Y009570D01*
X001846Y009493D02*
X001022Y009493D01*
X001022Y009416D02*
X001846Y009416D01*
X001850Y009339D02*
X001022Y009339D01*
X001022Y009261D02*
X001928Y009261D01*
X002064Y009434D02*
X002222Y009276D01*
X003127Y009276D01*
X003245Y009158D01*
X003245Y008607D01*
X003403Y008450D01*
X003621Y008489D02*
X004702Y008489D01*
X004702Y008566D02*
X003595Y008566D01*
X003518Y008643D02*
X004702Y008643D01*
X004702Y008721D02*
X003589Y008721D01*
X003666Y008798D02*
X004702Y008798D01*
X004702Y008875D02*
X003700Y008875D01*
X003700Y008952D02*
X004702Y008952D01*
X004702Y009030D02*
X003683Y009030D01*
X003605Y009107D02*
X004702Y009107D01*
X004702Y009184D02*
X003521Y009184D01*
X003521Y009261D02*
X004702Y009261D01*
X004702Y009339D02*
X003468Y009339D01*
X003391Y009416D02*
X004702Y009416D01*
X004702Y009493D02*
X003535Y009493D01*
X003612Y009570D02*
X004702Y009570D01*
X004820Y009946D02*
X004820Y008213D01*
X004820Y005379D01*
X004623Y005182D01*
X004405Y005168D02*
X001552Y005168D01*
X001552Y005152D02*
X001552Y005869D01*
X001603Y005869D01*
X001731Y005997D01*
X001731Y006178D01*
X001603Y006306D01*
X001552Y006306D01*
X001552Y006499D01*
X001603Y006499D01*
X001731Y006627D01*
X001731Y006808D01*
X001645Y006894D01*
X001692Y006942D01*
X001692Y007123D01*
X001564Y007251D01*
X001383Y007251D01*
X001255Y007123D01*
X001255Y007020D01*
X001159Y006924D01*
X001159Y004975D01*
X001228Y004906D01*
X001767Y004367D01*
X001767Y004225D01*
X001895Y004097D01*
X002076Y004097D01*
X002204Y004225D01*
X002204Y004406D01*
X002076Y004534D01*
X001934Y004534D01*
X001916Y004552D01*
X002606Y004552D01*
X002694Y004464D01*
X002694Y004152D01*
X002594Y004052D01*
X002594Y003871D01*
X002722Y003743D01*
X002903Y003743D01*
X003031Y003871D01*
X003031Y004052D01*
X002930Y004152D01*
X002930Y004562D01*
X002861Y004631D01*
X002704Y004788D01*
X001916Y004788D01*
X001552Y005152D01*
X001614Y005090D02*
X004406Y005090D01*
X004483Y005013D02*
X001691Y005013D01*
X001768Y004936D02*
X006098Y004936D01*
X006098Y004894D02*
X005165Y003961D01*
X005090Y003961D01*
X004989Y004062D01*
X004808Y004062D01*
X004680Y003934D01*
X004680Y003753D01*
X004808Y003625D01*
X004989Y003625D01*
X005090Y003725D01*
X005263Y003725D01*
X005332Y003794D01*
X006265Y004727D01*
X006407Y004727D01*
X006534Y004855D01*
X006534Y005036D01*
X006407Y005164D01*
X006226Y005164D01*
X006098Y005036D01*
X006098Y004894D01*
X006062Y004859D02*
X001846Y004859D01*
X001867Y004670D02*
X002655Y004670D01*
X002812Y004513D01*
X002812Y003961D01*
X003031Y003932D02*
X004680Y003932D01*
X004680Y003855D02*
X003014Y003855D01*
X002937Y003777D02*
X004680Y003777D01*
X004733Y003700D02*
X001022Y003700D01*
X001022Y003623D02*
X006779Y003623D01*
X006702Y003546D02*
X001022Y003546D01*
X001022Y003468D02*
X006670Y003468D01*
X006670Y003391D02*
X001022Y003391D01*
X001022Y003314D02*
X006670Y003314D01*
X006670Y003237D02*
X001022Y003237D01*
X001022Y003159D02*
X005520Y003159D01*
X005556Y003196D02*
X005428Y003068D01*
X005428Y002887D01*
X005556Y002759D01*
X005698Y002759D01*
X007003Y001454D01*
X007003Y001391D01*
X007131Y001263D01*
X007312Y001263D01*
X007440Y001391D01*
X007440Y001572D01*
X007353Y001658D01*
X007440Y001745D01*
X007440Y001926D01*
X007312Y002054D01*
X007131Y002054D01*
X007052Y001975D01*
X006180Y002847D01*
X006220Y002887D01*
X006220Y003068D01*
X006092Y003196D01*
X005911Y003196D01*
X005824Y003109D01*
X005737Y003196D01*
X005556Y003196D01*
X005443Y003082D02*
X001022Y003082D01*
X001022Y003005D02*
X005428Y003005D01*
X005428Y002928D02*
X001022Y002928D01*
X001022Y002850D02*
X005465Y002850D01*
X005542Y002773D02*
X001022Y002773D01*
X001022Y002696D02*
X005761Y002696D01*
X005838Y002619D02*
X001022Y002619D01*
X001022Y002541D02*
X005915Y002541D01*
X005993Y002464D02*
X001022Y002464D01*
X001022Y002387D02*
X006070Y002387D01*
X006147Y002310D02*
X001022Y002310D01*
X001022Y002233D02*
X003481Y002233D01*
X003481Y002155D02*
X001022Y002155D01*
X001022Y002078D02*
X003481Y002078D01*
X003481Y002001D02*
X001022Y002001D01*
X001022Y001924D02*
X003481Y001924D01*
X003481Y001846D02*
X001022Y001846D01*
X001022Y001769D02*
X003481Y001769D01*
X003481Y001692D02*
X001022Y001692D01*
X001022Y001615D02*
X003481Y001615D01*
X003481Y001537D02*
X001022Y001537D01*
X001022Y001460D02*
X003481Y001460D01*
X003481Y001383D02*
X001022Y001383D01*
X001022Y001306D02*
X003481Y001306D01*
X003481Y001228D02*
X001022Y001228D01*
X001022Y001151D02*
X003481Y001151D01*
X003481Y001074D02*
X001022Y001074D01*
X001022Y000997D02*
X003481Y000997D01*
X003481Y000919D02*
X001022Y000919D01*
X001022Y000842D02*
X003481Y000842D01*
X003481Y000765D02*
X001022Y000765D01*
X001022Y000688D02*
X003481Y000688D01*
X003481Y000610D02*
X001022Y000610D01*
X001022Y000533D02*
X003481Y000533D01*
X004702Y001442D02*
X004899Y001639D01*
X004899Y001914D01*
X005607Y001924D02*
X006533Y001924D01*
X006456Y002001D02*
X005607Y002001D01*
X005607Y002078D02*
X006379Y002078D01*
X006302Y002155D02*
X005607Y002155D01*
X005607Y002233D02*
X006224Y002233D01*
X006486Y002541D02*
X007869Y002541D01*
X007869Y002464D02*
X006563Y002464D01*
X006640Y002387D02*
X007936Y002387D01*
X008088Y002544D02*
X008245Y002544D01*
X009072Y003371D01*
X009072Y004040D01*
X009190Y004158D01*
X009820Y004158D01*
X009899Y004080D01*
X010117Y004086D02*
X010213Y004086D01*
X010136Y004164D02*
X010117Y004164D01*
X010117Y004009D02*
X010786Y004009D01*
X010709Y004086D02*
X010451Y004086D01*
X010528Y004164D02*
X010632Y004164D01*
X010555Y004241D02*
X010550Y004241D01*
X010332Y004276D02*
X010292Y004316D01*
X008048Y004316D01*
X007576Y003843D01*
X007300Y003843D01*
X007082Y003855D02*
X005392Y003855D01*
X005469Y003932D02*
X007082Y003932D01*
X007157Y004009D02*
X005546Y004009D01*
X005624Y004086D02*
X007652Y004086D01*
X007575Y004009D02*
X007443Y004009D01*
X007466Y003700D02*
X008954Y003700D01*
X008954Y003623D02*
X007309Y003623D01*
X007387Y003546D02*
X008954Y003546D01*
X008954Y003468D02*
X007418Y003468D01*
X007418Y003391D02*
X008925Y003391D01*
X008848Y003314D02*
X007418Y003314D01*
X007418Y003237D02*
X008771Y003237D01*
X008693Y003159D02*
X007418Y003159D01*
X007418Y003082D02*
X008616Y003082D01*
X008539Y003005D02*
X007418Y003005D01*
X007394Y002928D02*
X008462Y002928D01*
X008385Y002850D02*
X007317Y002850D01*
X006772Y002850D02*
X006183Y002850D01*
X006220Y002928D02*
X006695Y002928D01*
X006670Y003005D02*
X006220Y003005D01*
X006205Y003082D02*
X006670Y003082D01*
X006670Y003159D02*
X006128Y003159D01*
X006001Y002977D02*
X006001Y002859D01*
X007025Y001835D01*
X007222Y001835D01*
X007440Y001846D02*
X010491Y001846D01*
X010462Y001818D02*
X010320Y001818D01*
X010192Y001690D01*
X010192Y001509D01*
X010320Y001381D01*
X010501Y001381D01*
X010629Y001509D01*
X010629Y001651D01*
X010704Y001726D01*
X010704Y001666D01*
X010832Y001538D01*
X011013Y001538D01*
X011141Y001666D01*
X011141Y001847D01*
X011040Y001947D01*
X011040Y002298D01*
X011068Y002326D01*
X011170Y002326D01*
X011298Y002454D01*
X011298Y002635D01*
X011170Y002763D01*
X010989Y002763D01*
X010922Y002696D01*
X010923Y002696D01*
X010922Y002696D02*
X010855Y002763D01*
X010674Y002763D01*
X010546Y002635D01*
X010546Y002454D01*
X010647Y002353D01*
X010647Y002002D01*
X010462Y001818D01*
X010568Y001924D02*
X010060Y001924D01*
X010117Y002001D02*
X010645Y002001D01*
X010647Y002078D02*
X010117Y002078D01*
X010117Y002155D02*
X010647Y002155D01*
X010647Y002233D02*
X010047Y002233D01*
X010017Y002310D02*
X010647Y002310D01*
X010613Y002387D02*
X010051Y002387D01*
X010117Y002464D02*
X010546Y002464D01*
X010546Y002541D02*
X010117Y002541D01*
X010117Y002619D02*
X010546Y002619D01*
X010608Y002696D02*
X010056Y002696D01*
X009899Y002773D02*
X012599Y002773D01*
X012632Y002850D02*
X012655Y002850D01*
X012773Y002780D02*
X011907Y001914D01*
X011552Y001914D01*
X011334Y001924D02*
X011064Y001924D01*
X011040Y002001D02*
X011334Y002001D01*
X011407Y002078D02*
X011040Y002078D01*
X011040Y002155D02*
X011981Y002155D01*
X012058Y002233D02*
X011040Y002233D01*
X011052Y002310D02*
X012135Y002310D01*
X012212Y002387D02*
X011232Y002387D01*
X011298Y002464D02*
X012290Y002464D01*
X012367Y002541D02*
X011298Y002541D01*
X011298Y002619D02*
X012444Y002619D01*
X012521Y002696D02*
X011237Y002696D01*
X011080Y002544D02*
X011080Y002505D01*
X010922Y002347D01*
X010922Y001757D01*
X010756Y001615D02*
X010629Y001615D01*
X010629Y001537D02*
X014288Y001537D01*
X014288Y001460D02*
X013940Y001460D01*
X013932Y001468D02*
X013768Y001536D01*
X013589Y001536D01*
X013424Y001468D01*
X013298Y001342D01*
X013230Y001177D01*
X013230Y000998D01*
X013298Y000833D01*
X013424Y000707D01*
X013589Y000639D01*
X013768Y000639D01*
X013932Y000707D01*
X014059Y000833D01*
X014127Y000998D01*
X014127Y001177D01*
X014059Y001342D01*
X013932Y001468D01*
X014017Y001383D02*
X014288Y001383D01*
X014288Y001306D02*
X014074Y001306D01*
X014106Y001228D02*
X014288Y001228D01*
X014288Y001151D02*
X014127Y001151D01*
X014127Y001074D02*
X014288Y001074D01*
X014288Y000997D02*
X014126Y000997D01*
X014094Y000919D02*
X014288Y000919D01*
X014288Y000842D02*
X014062Y000842D01*
X013990Y000765D02*
X014288Y000765D01*
X014288Y000688D02*
X013886Y000688D01*
X014288Y000610D02*
X005607Y000610D01*
X005607Y000533D02*
X014288Y000533D01*
X014288Y001615D02*
X011089Y001615D01*
X011141Y001692D02*
X013461Y001692D01*
X013362Y001769D02*
X011716Y001769D01*
X011697Y002078D02*
X011903Y002078D01*
X012083Y001924D02*
X013260Y001924D01*
X013230Y002001D02*
X012160Y002001D01*
X012238Y002078D02*
X013230Y002078D01*
X013230Y002155D02*
X012315Y002155D01*
X012392Y002233D02*
X013253Y002233D01*
X013285Y002310D02*
X012469Y002310D01*
X012546Y002387D02*
X013212Y002387D01*
X013134Y002464D02*
X012624Y002464D01*
X012701Y002541D02*
X013057Y002541D01*
X012980Y002619D02*
X012778Y002619D01*
X012855Y002696D02*
X012903Y002696D01*
X012930Y002835D02*
X013678Y002087D01*
X013995Y001769D02*
X014288Y001769D01*
X014288Y001692D02*
X013896Y001692D01*
X014064Y001846D02*
X014288Y001846D01*
X014288Y001924D02*
X014096Y001924D01*
X014127Y002001D02*
X014288Y002001D01*
X014288Y002078D02*
X014127Y002078D01*
X014127Y002155D02*
X014288Y002155D01*
X014288Y002233D02*
X014104Y002233D01*
X014072Y002310D02*
X014288Y002310D01*
X014288Y002387D02*
X014013Y002387D01*
X013936Y002464D02*
X014288Y002464D01*
X014288Y002541D02*
X013391Y002541D01*
X013314Y002619D02*
X013476Y002619D01*
X013483Y002615D02*
X013559Y002591D01*
X013638Y002578D01*
X013639Y002578D01*
X013639Y003048D01*
X013718Y003048D01*
X013718Y003127D01*
X014188Y003127D01*
X014188Y003127D01*
X014175Y003207D01*
X014150Y003283D01*
X014114Y003354D01*
X014067Y003419D01*
X014010Y003476D01*
X013945Y003523D01*
X013874Y003559D01*
X013798Y003584D01*
X013718Y003597D01*
X013718Y003597D01*
X013718Y003127D01*
X013639Y003127D01*
X013639Y003597D01*
X013638Y003597D01*
X013559Y003584D01*
X013483Y003559D01*
X013411Y003523D01*
X013346Y003476D01*
X013290Y003419D01*
X013243Y003354D01*
X013206Y003283D01*
X013181Y003207D01*
X013169Y003127D01*
X013639Y003127D01*
X013639Y003048D01*
X013169Y003048D01*
X013169Y003047D01*
X013181Y002968D01*
X013206Y002892D01*
X013243Y002820D01*
X013290Y002756D01*
X013346Y002699D01*
X013411Y002652D01*
X013483Y002615D01*
X013350Y002696D02*
X013237Y002696D01*
X013277Y002773D02*
X013160Y002773D01*
X013227Y002850D02*
X013082Y002850D01*
X013048Y002928D02*
X013195Y002928D01*
X013176Y003005D02*
X013048Y003005D01*
X013048Y003082D02*
X013639Y003082D01*
X013639Y003005D02*
X013718Y003005D01*
X013718Y003048D02*
X013718Y002578D01*
X013798Y002591D01*
X013874Y002615D01*
X013945Y002652D01*
X014010Y002699D01*
X014067Y002756D01*
X014114Y002820D01*
X014150Y002892D01*
X014175Y002968D01*
X014188Y003047D01*
X014188Y003048D01*
X013718Y003048D01*
X013718Y003082D02*
X014288Y003082D01*
X014288Y003005D02*
X014181Y003005D01*
X014162Y002928D02*
X014288Y002928D01*
X014288Y002850D02*
X014129Y002850D01*
X014080Y002773D02*
X014288Y002773D01*
X014288Y002696D02*
X014006Y002696D01*
X013880Y002619D02*
X014288Y002619D01*
X014288Y003159D02*
X014183Y003159D01*
X014165Y003237D02*
X014288Y003237D01*
X014288Y003314D02*
X014135Y003314D01*
X014087Y003391D02*
X014288Y003391D01*
X014288Y003468D02*
X014018Y003468D01*
X013901Y003546D02*
X014288Y003546D01*
X014288Y003623D02*
X013048Y003623D01*
X013048Y003700D02*
X013441Y003700D01*
X013354Y003777D02*
X013045Y003777D01*
X012968Y003855D02*
X013289Y003855D01*
X013257Y003932D02*
X012891Y003932D01*
X012813Y004009D02*
X013230Y004009D01*
X013607Y004158D02*
X013678Y004087D01*
X013607Y004158D02*
X011040Y004158D01*
X010529Y004670D01*
X010096Y004670D01*
X010056Y004631D01*
X008481Y004631D01*
X008206Y004906D01*
X008206Y005064D01*
X007970Y005300D01*
X007733Y005300D01*
X007537Y005103D01*
X007537Y005064D01*
X007640Y004859D02*
X007748Y004859D01*
X007851Y005024D02*
X008403Y004473D01*
X010135Y004473D01*
X010174Y004513D01*
X010450Y004513D01*
X010962Y004001D01*
X012655Y004001D01*
X012930Y003725D01*
X012930Y002835D01*
X012773Y002780D02*
X012773Y003568D01*
X012576Y003765D01*
X012537Y003765D01*
X012318Y003777D02*
X010353Y003777D01*
X010353Y003700D02*
X012318Y003700D01*
X012318Y003855D02*
X010353Y003855D01*
X010277Y003932D02*
X010864Y003932D01*
X011052Y004550D02*
X011910Y004550D01*
X012218Y004550D02*
X012816Y004550D01*
X013012Y004781D02*
X013350Y004781D01*
X013287Y004859D02*
X013089Y004859D01*
X013048Y004818D02*
X013048Y004818D01*
X012930Y004867D02*
X013166Y005103D01*
X013166Y005576D01*
X013678Y006087D01*
X013445Y005477D02*
X013285Y005477D01*
X013285Y005399D02*
X013356Y005399D01*
X013290Y005322D02*
X013285Y005322D01*
X013048Y005322D02*
X012863Y005322D01*
X012912Y005245D02*
X013048Y005245D01*
X013048Y005168D02*
X012912Y005168D01*
X012911Y005090D02*
X012987Y005090D01*
X012909Y005013D02*
X012834Y005013D01*
X012930Y004867D02*
X010883Y004867D01*
X010765Y004985D01*
X009938Y004985D01*
X009899Y004946D01*
X008757Y004946D01*
X008639Y005064D01*
X008363Y005182D02*
X008088Y005457D01*
X007615Y005457D01*
X007300Y005143D01*
X007300Y004552D01*
X007082Y004550D02*
X006087Y004550D01*
X006164Y004627D02*
X007082Y004627D01*
X007144Y004704D02*
X006242Y004704D01*
X006316Y004946D02*
X005214Y003843D01*
X004899Y003843D01*
X005064Y003700D02*
X007135Y003700D01*
X007082Y003777D02*
X005315Y003777D01*
X005212Y004009D02*
X005042Y004009D01*
X005290Y004086D02*
X002996Y004086D01*
X003031Y004009D02*
X004756Y004009D01*
X005367Y004164D02*
X002930Y004164D01*
X002930Y004241D02*
X005444Y004241D01*
X005521Y004318D02*
X002930Y004318D01*
X002930Y004395D02*
X005599Y004395D01*
X005676Y004472D02*
X002930Y004472D01*
X002930Y004550D02*
X005753Y004550D01*
X005830Y004627D02*
X002865Y004627D01*
X002788Y004704D02*
X005908Y004704D01*
X005985Y004781D02*
X002710Y004781D01*
X002608Y004550D02*
X001918Y004550D01*
X001867Y004670D02*
X001434Y005103D01*
X001434Y006087D01*
X001513Y006087D01*
X001434Y006087D02*
X001434Y006639D01*
X001513Y006717D01*
X001662Y006558D02*
X001875Y006558D01*
X001934Y006499D02*
X001806Y006627D01*
X001806Y006808D01*
X001907Y006908D01*
X001907Y007199D01*
X001976Y007269D01*
X002251Y007544D01*
X003921Y007544D01*
X004021Y007644D01*
X004202Y007644D01*
X004330Y007516D01*
X004330Y007336D01*
X004202Y007208D01*
X004021Y007208D01*
X003921Y007308D01*
X002349Y007308D01*
X002143Y007101D01*
X002143Y006908D01*
X002243Y006808D01*
X002243Y006627D01*
X002115Y006499D01*
X001934Y006499D01*
X001806Y006635D02*
X001731Y006635D01*
X001731Y006712D02*
X001806Y006712D01*
X001806Y006790D02*
X001731Y006790D01*
X001672Y006867D02*
X001865Y006867D01*
X001907Y006944D02*
X001692Y006944D01*
X001692Y007021D02*
X001907Y007021D01*
X001907Y007099D02*
X001692Y007099D01*
X001639Y007176D02*
X001907Y007176D01*
X001960Y007253D02*
X001022Y007253D01*
X001022Y007176D02*
X001308Y007176D01*
X001255Y007099D02*
X001022Y007099D01*
X001022Y007021D02*
X001255Y007021D01*
X001179Y006944D02*
X001022Y006944D01*
X001022Y006867D02*
X001159Y006867D01*
X001159Y006790D02*
X001022Y006790D01*
X001022Y006712D02*
X001159Y006712D01*
X001159Y006635D02*
X001022Y006635D01*
X001022Y006558D02*
X001159Y006558D01*
X001159Y006481D02*
X001022Y006481D01*
X001022Y006403D02*
X001159Y006403D01*
X001159Y006326D02*
X001022Y006326D01*
X001022Y006249D02*
X001159Y006249D01*
X001159Y006172D02*
X001022Y006172D01*
X001022Y006095D02*
X001159Y006095D01*
X001159Y006017D02*
X001022Y006017D01*
X001022Y005940D02*
X001159Y005940D01*
X001159Y005863D02*
X001022Y005863D01*
X001022Y005786D02*
X001159Y005786D01*
X001159Y005708D02*
X001022Y005708D01*
X001022Y005631D02*
X001159Y005631D01*
X001159Y005554D02*
X001022Y005554D01*
X001022Y005477D02*
X001159Y005477D01*
X001159Y005399D02*
X001022Y005399D01*
X001022Y005322D02*
X001159Y005322D01*
X001159Y005245D02*
X001022Y005245D01*
X001022Y005168D02*
X001159Y005168D01*
X001159Y005090D02*
X001022Y005090D01*
X001022Y005013D02*
X001159Y005013D01*
X001198Y004936D02*
X001022Y004936D01*
X001022Y004859D02*
X001275Y004859D01*
X001353Y004781D02*
X001022Y004781D01*
X001022Y004704D02*
X001430Y004704D01*
X001507Y004627D02*
X001022Y004627D01*
X001022Y004550D02*
X001584Y004550D01*
X001662Y004472D02*
X001022Y004472D01*
X001022Y004395D02*
X001739Y004395D01*
X001767Y004318D02*
X001022Y004318D01*
X001022Y004241D02*
X001767Y004241D01*
X001829Y004164D02*
X001022Y004164D01*
X001022Y004086D02*
X002628Y004086D01*
X002594Y004009D02*
X001022Y004009D01*
X001022Y003932D02*
X002594Y003932D01*
X002610Y003855D02*
X001022Y003855D01*
X001022Y003777D02*
X002687Y003777D01*
X002694Y004164D02*
X002142Y004164D01*
X002204Y004241D02*
X002694Y004241D01*
X002694Y004318D02*
X002204Y004318D01*
X002204Y004395D02*
X002694Y004395D01*
X002685Y004472D02*
X002138Y004472D01*
X001985Y004316D02*
X001277Y005024D01*
X001277Y006875D01*
X001434Y007032D01*
X001474Y007032D01*
X001022Y007330D02*
X002038Y007330D01*
X002115Y007408D02*
X001022Y007408D01*
X001022Y007485D02*
X002192Y007485D01*
X002300Y007426D02*
X002025Y007150D01*
X002025Y006717D01*
X002174Y006558D02*
X004702Y006558D01*
X004702Y006635D02*
X002243Y006635D01*
X002243Y006712D02*
X004702Y006712D01*
X004702Y006790D02*
X002243Y006790D01*
X002184Y006867D02*
X004702Y006867D01*
X004702Y006944D02*
X002143Y006944D01*
X002143Y007021D02*
X004702Y007021D01*
X004702Y007099D02*
X002143Y007099D01*
X002217Y007176D02*
X004702Y007176D01*
X004702Y007253D02*
X004247Y007253D01*
X004325Y007330D02*
X004702Y007330D01*
X004702Y007408D02*
X004330Y007408D01*
X004330Y007485D02*
X004702Y007485D01*
X004702Y007562D02*
X004284Y007562D01*
X004207Y007639D02*
X004702Y007639D01*
X004702Y007717D02*
X001022Y007717D01*
X001022Y007794D02*
X004702Y007794D01*
X004702Y007871D02*
X003999Y007871D01*
X004076Y007948D02*
X004702Y007948D01*
X004699Y008026D02*
X004094Y008026D01*
X004094Y008103D02*
X004622Y008103D01*
X004602Y008180D02*
X004060Y008180D01*
X003983Y008257D02*
X004602Y008257D01*
X004632Y008335D02*
X003787Y008335D01*
X003710Y008412D02*
X004702Y008412D01*
X004016Y007639D02*
X001022Y007639D01*
X001022Y007562D02*
X003939Y007562D01*
X003975Y007253D02*
X002295Y007253D01*
X002300Y007426D02*
X004111Y007426D01*
X003796Y007977D02*
X003481Y007977D01*
X003403Y008056D01*
X002970Y008056D01*
X002655Y008371D01*
X002300Y008371D01*
X002143Y008213D01*
X002103Y008213D01*
X002322Y008180D02*
X002678Y008180D01*
X002756Y008103D02*
X002302Y008103D01*
X002225Y008026D02*
X002833Y008026D01*
X002910Y007948D02*
X001022Y007948D01*
X001022Y007871D02*
X003420Y007871D01*
X003600Y008213D02*
X003048Y008213D01*
X002733Y008528D01*
X002103Y008528D01*
X001911Y008412D02*
X001022Y008412D01*
X001022Y008489D02*
X001885Y008489D01*
X001885Y008566D02*
X001022Y008566D01*
X001022Y008643D02*
X001910Y008643D01*
X001987Y008721D02*
X001022Y008721D01*
X001022Y008798D02*
X002318Y008798D01*
X002318Y008721D02*
X002220Y008721D01*
X002196Y008875D02*
X001022Y008875D01*
X001022Y008952D02*
X002121Y008952D01*
X002121Y009030D02*
X001022Y009030D01*
X001022Y009107D02*
X002121Y009107D01*
X002147Y009184D02*
X001022Y009184D01*
X001022Y008335D02*
X001916Y008335D01*
X001885Y008257D02*
X001022Y008257D01*
X001022Y008180D02*
X001885Y008180D01*
X001905Y008103D02*
X001022Y008103D01*
X001022Y008026D02*
X001982Y008026D01*
X002537Y008765D02*
X002812Y008765D01*
X003009Y008568D01*
X003363Y008721D02*
X003374Y008721D01*
X003481Y008922D02*
X003403Y009001D01*
X003403Y009237D01*
X003206Y009434D01*
X002418Y009434D01*
X002103Y009749D01*
X002064Y009749D01*
X002294Y009725D02*
X003204Y009725D01*
X003224Y009648D02*
X002372Y009648D01*
X002449Y009570D02*
X003272Y009570D01*
X003314Y009493D02*
X003349Y009493D01*
X003009Y009040D02*
X002340Y009040D01*
X001912Y010111D02*
X001633Y010111D01*
X001625Y010497D02*
X001857Y010497D01*
X002191Y010497D02*
X006330Y010497D01*
X006277Y010444D02*
X006277Y010444D01*
X006253Y010420D02*
X002269Y010420D01*
X002346Y010343D02*
X006175Y010343D01*
X006098Y010266D02*
X002423Y010266D01*
X001373Y011888D02*
X001022Y011888D01*
X001022Y011965D02*
X001412Y011965D01*
X001489Y012042D02*
X001022Y012042D01*
X001022Y015672D02*
X004847Y015672D01*
X005910Y010188D02*
X005935Y010188D01*
X005765Y010024D02*
X005922Y009867D01*
X005922Y008450D01*
X005844Y008371D01*
X006474Y009316D02*
X006985Y009828D01*
X007340Y009828D01*
X007497Y009670D01*
X007773Y009670D01*
X007930Y009828D01*
X008127Y009828D01*
X008324Y009631D01*
X008324Y009028D01*
X008151Y008643D02*
X008063Y008643D01*
X007980Y008257D02*
X007336Y008257D01*
X007299Y008180D02*
X007903Y008180D01*
X007869Y008103D02*
X007222Y008103D01*
X007336Y008643D02*
X007274Y008706D01*
X007597Y008706D01*
X007655Y008763D01*
X007655Y008707D01*
X007747Y008615D01*
X007655Y008721D02*
X007612Y008721D01*
X007930Y009513D02*
X007261Y009513D01*
X007182Y009591D01*
X007930Y009513D02*
X008009Y009591D01*
X008494Y009416D02*
X008502Y009416D01*
X009329Y005786D02*
X009366Y005786D01*
X009366Y005708D02*
X009329Y005708D01*
X009329Y005631D02*
X009366Y005631D01*
X009085Y005399D02*
X010949Y005399D01*
X011132Y005399D02*
X012603Y005399D01*
X012785Y005399D02*
X013048Y005399D01*
X013048Y005477D02*
X009013Y005477D01*
X008236Y004472D02*
X007519Y004472D01*
X007519Y004550D02*
X008159Y004550D01*
X008082Y004627D02*
X007519Y004627D01*
X007457Y004704D02*
X008005Y004704D01*
X007927Y004781D02*
X007418Y004781D01*
X007418Y004859D02*
X007433Y004859D01*
X007182Y004859D02*
X006534Y004859D01*
X006534Y004936D02*
X007182Y004936D01*
X007182Y005013D02*
X006534Y005013D01*
X006480Y005090D02*
X007182Y005090D01*
X007182Y004781D02*
X006461Y004781D01*
X006709Y005168D02*
X004842Y005168D01*
X004841Y005090D02*
X006152Y005090D01*
X006098Y005013D02*
X004763Y005013D01*
X004853Y005245D02*
X006632Y005245D01*
X006588Y005322D02*
X004930Y005322D01*
X004938Y005399D02*
X006588Y005399D01*
X006588Y005477D02*
X004938Y005477D01*
X004938Y005554D02*
X006588Y005554D01*
X006588Y005631D02*
X004938Y005631D01*
X004938Y005708D02*
X006588Y005708D01*
X006629Y005786D02*
X004938Y005786D01*
X004938Y005863D02*
X006707Y005863D01*
X007336Y005554D02*
X007545Y005554D01*
X007497Y005506D02*
X007497Y005506D01*
X007467Y005477D02*
X007336Y005477D01*
X007336Y005399D02*
X007390Y005399D01*
X007851Y005064D02*
X007851Y005024D01*
X007961Y004395D02*
X007452Y004395D01*
X007148Y004395D02*
X005933Y004395D01*
X006010Y004472D02*
X007082Y004472D01*
X007729Y004164D02*
X005701Y004164D01*
X005778Y004241D02*
X007806Y004241D01*
X007884Y004318D02*
X005855Y004318D01*
X005874Y003159D02*
X005773Y003159D01*
X005647Y002977D02*
X007143Y001481D01*
X007222Y001481D01*
X007440Y001460D02*
X010241Y001460D01*
X010192Y001537D02*
X007440Y001537D01*
X007397Y001615D02*
X010192Y001615D01*
X010194Y001692D02*
X007387Y001692D01*
X007440Y001769D02*
X010272Y001769D01*
X010411Y001599D02*
X010765Y001954D01*
X010765Y002544D01*
X011141Y001846D02*
X011334Y001846D01*
X011388Y001769D02*
X011141Y001769D01*
X010704Y001692D02*
X010670Y001692D01*
X010580Y001460D02*
X013416Y001460D01*
X013339Y001383D02*
X010503Y001383D01*
X010318Y001383D02*
X007432Y001383D01*
X007355Y001306D02*
X013283Y001306D01*
X013251Y001228D02*
X005607Y001228D01*
X005607Y001151D02*
X013230Y001151D01*
X013230Y001074D02*
X005607Y001074D01*
X005607Y000997D02*
X013230Y000997D01*
X013262Y000919D02*
X005607Y000919D01*
X005607Y000842D02*
X013294Y000842D01*
X013366Y000765D02*
X005607Y000765D01*
X005607Y000688D02*
X013471Y000688D01*
X013292Y001846D02*
X012006Y001846D01*
X012087Y002850D02*
X009899Y002850D01*
X009899Y002928D02*
X012010Y002928D01*
X011985Y003005D02*
X009899Y003005D01*
X009899Y003082D02*
X011985Y003082D01*
X011985Y003159D02*
X009899Y003159D01*
X009899Y003237D02*
X011985Y003237D01*
X011985Y003314D02*
X009899Y003314D01*
X009929Y003391D02*
X011985Y003391D01*
X011985Y003468D02*
X010006Y003468D01*
X010083Y003546D02*
X012017Y003546D01*
X012094Y003623D02*
X010302Y003623D01*
X010135Y003765D02*
X009781Y003410D01*
X009781Y002741D01*
X009584Y002544D01*
X009584Y002426D01*
X009466Y002308D01*
X009229Y002308D01*
X009033Y002505D01*
X009033Y002544D01*
X008881Y002387D02*
X008712Y002387D01*
X008779Y002464D02*
X008814Y002464D01*
X008814Y002541D02*
X008779Y002541D01*
X008779Y002619D02*
X008814Y002619D01*
X008800Y002696D02*
X008876Y002696D01*
X008878Y002773D02*
X009410Y002773D01*
X009487Y002850D02*
X008955Y002850D01*
X009032Y002928D02*
X009505Y002928D01*
X009505Y003005D02*
X009109Y003005D01*
X009187Y003082D02*
X009505Y003082D01*
X009505Y003159D02*
X009264Y003159D01*
X009341Y003237D02*
X009505Y003237D01*
X009505Y003314D02*
X009348Y003314D01*
X009348Y003391D02*
X009505Y003391D01*
X009505Y003468D02*
X009348Y003468D01*
X009348Y003546D02*
X009505Y003546D01*
X009505Y003623D02*
X009348Y003623D01*
X009348Y003700D02*
X009549Y003700D01*
X009562Y003777D02*
X009512Y003777D01*
X009623Y003607D02*
X009781Y003765D01*
X009623Y003607D02*
X009623Y002820D01*
X009348Y002544D01*
X009138Y002233D02*
X006795Y002233D01*
X006717Y002310D02*
X009061Y002310D01*
X008560Y002544D02*
X008560Y002623D01*
X009229Y003292D01*
X009229Y003804D01*
X009348Y003922D01*
X008954Y003932D02*
X007831Y003932D01*
X007754Y003855D02*
X008954Y003855D01*
X008954Y003777D02*
X007677Y003777D01*
X007909Y004009D02*
X008954Y004009D01*
X008954Y004086D02*
X007986Y004086D01*
X008063Y004164D02*
X009028Y004164D01*
X008307Y002773D02*
X006254Y002773D01*
X006331Y002696D02*
X007931Y002696D01*
X007869Y002619D02*
X006408Y002619D01*
X006872Y002155D02*
X009680Y002155D01*
X009680Y002078D02*
X006949Y002078D01*
X007026Y002001D02*
X007078Y002001D01*
X007365Y002001D02*
X009680Y002001D01*
X009738Y001924D02*
X007440Y001924D01*
X006997Y001460D02*
X005607Y001460D01*
X005607Y001383D02*
X007011Y001383D01*
X007088Y001306D02*
X005607Y001306D01*
X005607Y001537D02*
X006920Y001537D01*
X006842Y001615D02*
X005607Y001615D01*
X005607Y001692D02*
X006765Y001692D01*
X006688Y001769D02*
X005607Y001769D01*
X005607Y001846D02*
X006611Y001846D01*
X008240Y002387D02*
X008408Y002387D01*
X008342Y002464D02*
X008332Y002464D01*
X009557Y002233D02*
X009751Y002233D01*
X009781Y002310D02*
X009635Y002310D01*
X009702Y002387D02*
X009747Y002387D01*
X009899Y002544D02*
X009899Y002072D01*
X013048Y003159D02*
X013174Y003159D01*
X013169Y003127D02*
X013169Y003127D01*
X013191Y003237D02*
X013048Y003237D01*
X013048Y003314D02*
X013222Y003314D01*
X013269Y003391D02*
X013048Y003391D01*
X013048Y003468D02*
X013339Y003468D01*
X013456Y003546D02*
X013048Y003546D01*
X013639Y003546D02*
X013718Y003546D01*
X013718Y003468D02*
X013639Y003468D01*
X013639Y003391D02*
X013718Y003391D01*
X013718Y003314D02*
X013639Y003314D01*
X013639Y003237D02*
X013718Y003237D01*
X013718Y003159D02*
X013639Y003159D01*
X013639Y002928D02*
X013718Y002928D01*
X013718Y002850D02*
X013639Y002850D01*
X013639Y002773D02*
X013718Y002773D01*
X013718Y002696D02*
X013639Y002696D01*
X013639Y002619D02*
X013718Y002619D01*
X013718Y002578D02*
X013718Y002578D01*
X013916Y003700D02*
X014288Y003700D01*
X014288Y003777D02*
X014003Y003777D01*
X014068Y003855D02*
X014288Y003855D01*
X014288Y003932D02*
X014100Y003932D01*
X014127Y004009D02*
X014288Y004009D01*
X014288Y004086D02*
X014127Y004086D01*
X014127Y004164D02*
X014288Y004164D01*
X014288Y004241D02*
X014100Y004241D01*
X014068Y004318D02*
X014288Y004318D01*
X014288Y004395D02*
X014005Y004395D01*
X013921Y004472D02*
X014288Y004472D01*
X014288Y004550D02*
X013123Y004550D01*
X013166Y004936D02*
X013255Y004936D01*
X012555Y007099D02*
X011841Y007099D01*
X013639Y011656D02*
X013718Y011656D01*
X013718Y011733D02*
X013639Y011733D01*
X013639Y011810D02*
X013718Y011810D01*
X013718Y011888D02*
X013639Y011888D01*
X013639Y011965D02*
X013718Y011965D01*
X013718Y012197D02*
X013639Y012197D01*
X013639Y012274D02*
X013718Y012274D01*
X013718Y012351D02*
X013639Y012351D01*
X013639Y012428D02*
X013718Y012428D01*
X013718Y012505D02*
X013639Y012505D01*
X013969Y012505D02*
X014288Y012505D01*
X014288Y012428D02*
X014058Y012428D01*
X014116Y012351D02*
X014288Y012351D01*
X014288Y012274D02*
X014153Y012274D01*
X014177Y012197D02*
X014288Y012197D01*
X013009Y018916D02*
X012347Y018916D01*
X012368Y018994D02*
X013009Y018994D01*
X013009Y019071D02*
X012368Y019071D01*
X012368Y019148D02*
X013009Y019148D01*
X013009Y019225D02*
X012368Y019225D01*
X012368Y019303D02*
X013009Y019303D01*
X013009Y019380D02*
X012368Y019380D01*
X012368Y019457D02*
X013009Y019457D01*
X013009Y019534D02*
X012368Y019534D01*
X012368Y019612D02*
X013009Y019612D01*
X013009Y019689D02*
X012368Y019689D01*
X012368Y019766D02*
X013009Y019766D01*
X013009Y019843D02*
X012368Y019843D01*
X012368Y019921D02*
X013009Y019921D01*
X003875Y008056D02*
X003796Y007977D01*
X004702Y006481D02*
X001552Y006481D01*
X001552Y006403D02*
X004702Y006403D01*
X004702Y006326D02*
X001552Y006326D01*
X001660Y006249D02*
X004702Y006249D01*
X004702Y006172D02*
X001731Y006172D01*
X001731Y006095D02*
X004702Y006095D01*
X004702Y006017D02*
X001731Y006017D01*
X001674Y005940D02*
X004702Y005940D01*
X004702Y005863D02*
X001552Y005863D01*
X001552Y005786D02*
X004702Y005786D01*
X004702Y005708D02*
X001552Y005708D01*
X001552Y005631D02*
X004702Y005631D01*
X004702Y005554D02*
X001552Y005554D01*
X001552Y005477D02*
X004702Y005477D01*
X004869Y005261D02*
X004869Y005261D01*
X004532Y005399D02*
X001552Y005399D01*
X001552Y005322D02*
X004454Y005322D01*
X004405Y005245D02*
X001552Y005245D01*
D26*
X008009Y012446D03*
X005411Y015772D03*
X005371Y016993D03*
D27*
X007379Y016993D01*
X008009Y017623D01*
X008442Y018056D01*
X009781Y018056D01*
X010253Y018056D02*
X011789Y018056D01*
X008989Y019470D02*
X008989Y019788D01*
X007103Y019788D01*
X007103Y019513D01*
X005411Y015772D02*
X005607Y015576D01*
X007615Y015576D01*
X008127Y015064D01*
X008127Y014591D01*
X008048Y014513D01*
X008048Y013607D01*
X008048Y012485D01*
X008009Y012446D01*
D28*
X006946Y018095D02*
X005883Y018095D01*
X006592Y019513D02*
X006907Y019513D01*
X007103Y019513D01*
X007182Y019513D01*
X006907Y019513D02*
X006907Y019709D01*
X007103Y018253D02*
X006946Y018095D01*
M02*
