G75*
%MOIN*%
%OFA0B0*%
%FSLAX24Y24*%
%IPPOS*%
%LPD*%
%AMOC8*
5,1,8,0,0,1.08239X$1,22.5*
%
%ADD10R,0.0138X0.0316*%
%ADD11R,0.0316X0.0138*%
%ADD12R,0.1064X0.1064*%
%ADD13R,0.0197X0.0276*%
%ADD14R,0.0640X0.1640*%
%ADD15R,0.0237X0.0394*%
%ADD16R,0.0276X0.0197*%
%ADD17R,0.0512X0.0355*%
%ADD18R,0.0237X0.0178*%
%ADD19R,0.0749X0.0316*%
%ADD20R,0.0749X0.0355*%
%ADD21R,0.0394X0.0355*%
%ADD22R,0.0827X0.0434*%
%ADD23R,0.0394X0.0237*%
%ADD24C,0.0158*%
%ADD25R,0.0780X0.0780*%
%ADD26C,0.0780*%
%ADD27R,0.0340X0.1040*%
%ADD28R,0.0390X0.0140*%
%ADD29R,0.0190X0.0215*%
%ADD30R,0.0181X0.0181*%
%ADD31R,0.0252X0.0252*%
%ADD32R,0.0178X0.0512*%
%ADD33R,0.0473X0.0631*%
%ADD34R,0.0213X0.0351*%
%ADD35R,0.0280X0.0180*%
%ADD36R,0.0430X0.0670*%
%ADD37R,0.0158X0.0340*%
%ADD38R,0.0985X0.0670*%
%ADD39R,0.0631X0.0473*%
%ADD40R,0.0260X0.0560*%
%ADD41R,0.0248X0.0142*%
%ADD42R,0.0142X0.0248*%
%ADD43R,0.1103X0.1103*%
%ADD44R,0.0316X0.0552*%
%ADD45R,0.0158X0.0158*%
%ADD46R,0.0434X0.0257*%
%ADD47R,0.0355X0.0257*%
%ADD48R,0.0355X0.0158*%
%ADD49R,0.0158X0.0355*%
%ADD50R,0.0669X0.0669*%
%ADD51R,0.0060X0.0720*%
%ADD52R,0.0270X0.0355*%
%ADD53R,0.0453X0.0866*%
%ADD54R,0.0512X0.1201*%
%ADD55R,0.0985X0.0906*%
%ADD56R,0.0552X0.0375*%
D10*
X003022Y009680D03*
X003219Y009680D03*
X003415Y009680D03*
X003612Y009680D03*
X003809Y009680D03*
X003809Y011255D03*
X003612Y011255D03*
X003415Y011255D03*
X003219Y011255D03*
X003022Y011255D03*
X003022Y018026D03*
X003219Y018026D03*
X003415Y018026D03*
X003612Y018026D03*
X003809Y018026D03*
X003809Y019601D03*
X003612Y019601D03*
X003415Y019601D03*
X003219Y019601D03*
X003022Y019601D03*
D11*
X002628Y019207D03*
X002628Y019011D03*
X002628Y018814D03*
X002628Y018617D03*
X002628Y018420D03*
X004203Y018420D03*
X004203Y018617D03*
X004203Y018814D03*
X004203Y019011D03*
X004203Y019207D03*
X004203Y010861D03*
X004203Y010664D03*
X004203Y010467D03*
X004203Y010270D03*
X004203Y010074D03*
X002628Y010074D03*
X002628Y010270D03*
X002628Y010467D03*
X002628Y010664D03*
X002628Y010861D03*
D12*
X003415Y010467D03*
X003415Y018814D03*
D13*
X003907Y020113D03*
X004262Y020113D03*
X004577Y019798D03*
X004577Y019404D03*
X004931Y019404D03*
X004931Y019798D03*
X004931Y019011D03*
X004577Y019011D03*
X004577Y018617D03*
X004577Y018223D03*
X004931Y018223D03*
X004931Y018617D03*
X006033Y017318D03*
X006388Y017318D03*
X007018Y015625D03*
X007372Y015625D03*
X007490Y015231D03*
X007136Y015231D03*
X006309Y015192D03*
X006309Y014759D03*
X005955Y014759D03*
X005955Y015192D03*
X005955Y014326D03*
X006309Y014326D03*
X005207Y011530D03*
X005207Y011137D03*
X004852Y011137D03*
X004852Y011530D03*
X004931Y010428D03*
X004577Y010428D03*
X004577Y010034D03*
X004931Y010034D03*
X004931Y009641D03*
X004577Y009641D03*
X004459Y009089D03*
X004813Y009089D03*
X005167Y009089D03*
X005600Y009089D03*
X005955Y009089D03*
X005994Y008026D03*
X005994Y007633D03*
X005994Y007239D03*
X005994Y006845D03*
X005640Y006845D03*
X005640Y007239D03*
X005640Y007633D03*
X005640Y008026D03*
X005364Y006452D03*
X005364Y006058D03*
X005364Y005664D03*
X005364Y005192D03*
X005010Y005192D03*
X005010Y005664D03*
X005010Y006058D03*
X005010Y006452D03*
X004616Y006393D03*
X004262Y006393D03*
X004222Y005979D03*
X003868Y005979D03*
X003238Y007830D03*
X002884Y007830D03*
X002490Y007475D03*
X002136Y007475D03*
X002136Y006688D03*
X002490Y006688D03*
X002490Y005979D03*
X002136Y005979D03*
X004104Y009089D03*
X002254Y010428D03*
X002254Y010822D03*
X001900Y010822D03*
X001900Y010428D03*
X001900Y011294D03*
X002254Y011294D03*
X002254Y011688D03*
X002254Y012081D03*
X001900Y012081D03*
X001900Y011688D03*
X001900Y018814D03*
X002254Y018814D03*
X002254Y019207D03*
X001900Y019207D03*
X001900Y019601D03*
X002254Y019601D03*
X002372Y021885D03*
X002726Y021885D03*
X003081Y021885D03*
X003435Y021885D03*
X003789Y021885D03*
X004144Y021885D03*
X008199Y021806D03*
X008199Y022200D03*
X008553Y022200D03*
X008553Y021806D03*
X008632Y019326D03*
X008632Y018932D03*
X008278Y018932D03*
X008278Y019326D03*
X008514Y015782D03*
X008868Y015782D03*
X011427Y015851D03*
X011427Y015418D03*
X011782Y015418D03*
X011782Y015851D03*
X012096Y014562D03*
X012451Y014562D03*
X012451Y014129D03*
X012766Y014129D03*
X013120Y014129D03*
X012096Y014129D03*
X012215Y011333D03*
X011860Y011333D03*
X010876Y008617D03*
X010522Y008617D03*
X009931Y007318D03*
X009577Y007318D03*
X008986Y007593D03*
X008632Y007593D03*
X008278Y007593D03*
X008278Y007160D03*
X007923Y007160D03*
X007923Y007593D03*
X012057Y007593D03*
X012411Y007593D03*
X012451Y017633D03*
X012805Y017633D03*
X014301Y021688D03*
X014656Y021688D03*
X014656Y022318D03*
X014301Y022318D03*
D14*
X001978Y004975D03*
X002978Y004975D03*
X003978Y004975D03*
X003986Y022967D03*
X002986Y022967D03*
X001986Y022967D03*
D15*
X005364Y019404D03*
X005364Y018932D03*
X005955Y018932D03*
X005955Y019404D03*
X003868Y014522D03*
X003868Y013971D03*
X003278Y013971D03*
X003278Y014522D03*
X005561Y011648D03*
X005561Y011176D03*
X006152Y011176D03*
X006152Y011648D03*
X012766Y009247D03*
X012766Y008696D03*
X012766Y008144D03*
X012766Y007593D03*
X013356Y007593D03*
X013356Y008144D03*
X013356Y008696D03*
X013356Y009247D03*
D16*
X013337Y009700D03*
X013337Y010054D03*
X012825Y010054D03*
X012825Y009700D03*
X012392Y009700D03*
X012392Y010054D03*
X011762Y010054D03*
X011762Y009700D03*
X010581Y009345D03*
X010581Y008991D03*
X010148Y008991D03*
X010148Y009345D03*
X009400Y009916D03*
X009400Y010270D03*
X009124Y009483D03*
X009124Y009129D03*
X007549Y007534D03*
X007549Y007180D03*
X007392Y008204D03*
X007392Y008558D03*
X006368Y007416D03*
X006368Y007062D03*
X005659Y008400D03*
X005659Y008755D03*
X005974Y010408D03*
X005974Y010763D03*
X005974Y012377D03*
X005974Y012731D03*
X005856Y015566D03*
X005856Y015920D03*
X006762Y018164D03*
X006762Y018519D03*
X007156Y018519D03*
X007156Y018164D03*
X008494Y021117D03*
X008494Y021471D03*
X008573Y022534D03*
X008573Y022889D03*
X008967Y022889D03*
X008967Y022534D03*
X010030Y017337D03*
X010030Y016983D03*
X010423Y015881D03*
X010423Y015526D03*
X010817Y015526D03*
X010817Y015881D03*
X012037Y012062D03*
X012037Y011707D03*
X014400Y019621D03*
X014400Y019975D03*
X005345Y004818D03*
X005345Y004463D03*
X004951Y004463D03*
X004951Y004818D03*
X004557Y005015D03*
X004557Y005369D03*
X004557Y005684D03*
X004557Y006038D03*
X003927Y006353D03*
X003927Y006707D03*
X002589Y008833D03*
X002589Y009188D03*
X002195Y009188D03*
X002195Y008833D03*
X003061Y020054D03*
X003061Y020408D03*
X003061Y020723D03*
X003061Y021078D03*
X003455Y021117D03*
X003455Y021471D03*
X003888Y020841D03*
X003888Y020487D03*
X004282Y020487D03*
X004282Y020841D03*
X003455Y020408D03*
X003455Y020054D03*
X002667Y021078D03*
X002667Y021432D03*
X002234Y021432D03*
X002234Y021078D03*
D17*
X002549Y020743D03*
X002549Y020034D03*
D18*
X004902Y017780D03*
X004902Y017524D03*
X004902Y017269D03*
X004902Y017013D03*
X005709Y017013D03*
X005709Y017269D03*
X005709Y017524D03*
X005709Y017780D03*
D19*
X009931Y018696D03*
X009931Y022121D03*
X013671Y022121D03*
X013671Y018696D03*
D20*
X013671Y019109D03*
X013671Y019542D03*
X013671Y019975D03*
X013671Y020408D03*
X013671Y020841D03*
X013671Y021274D03*
X013671Y021707D03*
X009931Y021707D03*
X009931Y021274D03*
X009931Y020841D03*
X009931Y020408D03*
X009931Y019975D03*
X009931Y019542D03*
X009931Y019109D03*
D21*
X012234Y017141D03*
X012234Y016393D03*
X013061Y016767D03*
X009990Y008597D03*
X009990Y007849D03*
X009163Y008223D03*
D22*
X006565Y020595D03*
X006565Y023391D03*
D23*
X014400Y019227D03*
X014400Y018637D03*
X002904Y007456D03*
X002904Y006865D03*
X002904Y006511D03*
X002904Y005920D03*
D24*
X007785Y011038D03*
X007785Y011294D03*
X007785Y011550D03*
X007785Y011806D03*
X007785Y012062D03*
X007785Y012318D03*
X007785Y012574D03*
X008041Y012574D03*
X008041Y012318D03*
X008041Y012062D03*
X008041Y011806D03*
X008041Y011550D03*
X008041Y011294D03*
X008041Y011038D03*
X008297Y011038D03*
X008297Y011294D03*
X008297Y011550D03*
X008297Y011806D03*
X008297Y012062D03*
X008297Y012318D03*
X008297Y012574D03*
X008297Y012830D03*
X008297Y013085D03*
X008297Y013341D03*
X008297Y013597D03*
X008297Y013853D03*
X008297Y014109D03*
X008297Y014365D03*
X008297Y014621D03*
X008041Y014621D03*
X007785Y014621D03*
X007785Y014365D03*
X007785Y014109D03*
X007785Y013853D03*
X007785Y013597D03*
X007785Y013341D03*
X007785Y013085D03*
X007785Y012830D03*
X008041Y012830D03*
X008041Y013085D03*
X008041Y013341D03*
X008041Y013597D03*
X008041Y013853D03*
X008041Y014109D03*
X008041Y014365D03*
X008553Y014365D03*
X008553Y014621D03*
X008809Y014621D03*
X008809Y014365D03*
X008809Y014109D03*
X008553Y014109D03*
X008553Y013853D03*
X008553Y013597D03*
X008553Y013341D03*
X008553Y013085D03*
X008553Y012830D03*
X008553Y012574D03*
X008553Y012318D03*
X008553Y012062D03*
X008553Y011806D03*
X008553Y011550D03*
X008553Y011294D03*
X008553Y011038D03*
X008809Y011038D03*
X008809Y011294D03*
X008809Y011550D03*
X008809Y011806D03*
X009065Y011806D03*
X009065Y011550D03*
X009065Y011294D03*
X009065Y011038D03*
X009321Y011038D03*
X009577Y011038D03*
X009577Y011294D03*
X009577Y011550D03*
X009577Y011806D03*
X009321Y011806D03*
X009321Y011550D03*
X009321Y011294D03*
X009833Y011294D03*
X009833Y011038D03*
X010089Y011038D03*
X010345Y011038D03*
X010345Y011294D03*
X010345Y011550D03*
X010345Y011806D03*
X010089Y011806D03*
X010089Y011550D03*
X010089Y011294D03*
X009833Y011550D03*
X009833Y011806D03*
X009833Y012318D03*
X009833Y012574D03*
X009833Y012830D03*
X009833Y013085D03*
X009833Y013341D03*
X010089Y013341D03*
X010089Y013085D03*
X010089Y012830D03*
X010089Y012574D03*
X010089Y012318D03*
X010600Y012318D03*
X010600Y012574D03*
X010600Y012830D03*
X010600Y013085D03*
X010600Y013341D03*
X010600Y013597D03*
X010600Y013853D03*
X010600Y014109D03*
X010600Y014365D03*
X010600Y014621D03*
X010345Y014621D03*
X010345Y014365D03*
X010345Y014109D03*
X010345Y013853D03*
X010089Y013853D03*
X010089Y014109D03*
X010089Y014365D03*
X010089Y014621D03*
X009833Y014621D03*
X009833Y014365D03*
X009833Y014109D03*
X009833Y013853D03*
X009577Y013853D03*
X009577Y014109D03*
X009577Y014365D03*
X009577Y014621D03*
X009321Y014621D03*
X009321Y014365D03*
X009321Y014109D03*
X009321Y013853D03*
X009065Y013853D03*
X009065Y014109D03*
X009065Y014365D03*
X009065Y014621D03*
X008809Y013853D03*
X009065Y013341D03*
X009065Y013085D03*
X009065Y012830D03*
X009321Y012830D03*
X009321Y013085D03*
X009577Y013085D03*
X009577Y012830D03*
X009577Y012574D03*
X009321Y012574D03*
X009321Y012318D03*
X009577Y012318D03*
X009065Y012318D03*
X009065Y012574D03*
X009321Y013341D03*
X009577Y013341D03*
X010600Y012062D03*
X010600Y011806D03*
X010600Y011550D03*
X010600Y011294D03*
X010600Y011038D03*
X010856Y011038D03*
X010856Y011294D03*
X010856Y011550D03*
X010856Y011806D03*
X010856Y012062D03*
X010856Y012318D03*
X010856Y012574D03*
X011112Y012574D03*
X011112Y012318D03*
X011112Y012062D03*
X011112Y011806D03*
X011112Y011550D03*
X011112Y011294D03*
X011112Y011038D03*
X011368Y011038D03*
X011368Y011294D03*
X011368Y011550D03*
X011368Y011806D03*
X011368Y012062D03*
X011368Y012318D03*
X011368Y012574D03*
X011368Y012830D03*
X011368Y013085D03*
X011368Y013341D03*
X011368Y013597D03*
X011368Y013853D03*
X011368Y014109D03*
X011368Y014365D03*
X011368Y014621D03*
X011112Y014621D03*
X010856Y014621D03*
X010856Y014365D03*
X010856Y014109D03*
X010856Y013853D03*
X010856Y013597D03*
X010856Y013341D03*
X010856Y013085D03*
X010856Y012830D03*
X011112Y012830D03*
X011112Y013085D03*
X011112Y013341D03*
X011112Y013597D03*
X011112Y013853D03*
X011112Y014109D03*
X011112Y014365D03*
D25*
X014400Y023105D03*
D26*
X013400Y023105D03*
X012400Y023105D03*
X011400Y023105D03*
X014400Y015837D03*
X014400Y014837D03*
X014400Y013837D03*
X014400Y012837D03*
X014400Y011837D03*
X014400Y010837D03*
X014400Y009837D03*
X014400Y008837D03*
X014400Y007837D03*
X014400Y006837D03*
X014400Y005837D03*
X014400Y004837D03*
X004754Y023105D03*
D27*
X002970Y015900D03*
X001970Y015900D03*
X004530Y013538D03*
X005530Y013538D03*
D28*
X005405Y012988D03*
X004655Y012988D03*
X004655Y014088D03*
X005405Y014088D03*
X002845Y015350D03*
X002095Y015350D03*
X002095Y016450D03*
X002845Y016450D03*
D29*
X002745Y016313D03*
X002195Y016313D03*
X002195Y015488D03*
X002745Y015488D03*
X004755Y013951D03*
X005305Y013951D03*
X005305Y013126D03*
X004755Y013126D03*
D30*
G36*
X004606Y013038D02*
X004479Y012911D01*
X004352Y013038D01*
X004479Y013165D01*
X004606Y013038D01*
G37*
G36*
X004606Y014038D02*
X004479Y013911D01*
X004352Y014038D01*
X004479Y014165D01*
X004606Y014038D01*
G37*
G36*
X005453Y014038D02*
X005580Y014165D01*
X005707Y014038D01*
X005580Y013911D01*
X005453Y014038D01*
G37*
G36*
X005453Y013038D02*
X005580Y013165D01*
X005707Y013038D01*
X005580Y012911D01*
X005453Y013038D01*
G37*
G36*
X002894Y015400D02*
X003021Y015527D01*
X003148Y015400D01*
X003021Y015273D01*
X002894Y015400D01*
G37*
G36*
X002894Y016401D02*
X003021Y016528D01*
X003148Y016401D01*
X003021Y016274D01*
X002894Y016401D01*
G37*
G36*
X002047Y016401D02*
X001920Y016274D01*
X001793Y016401D01*
X001920Y016528D01*
X002047Y016401D01*
G37*
G36*
X002047Y015400D02*
X001920Y015273D01*
X001793Y015400D01*
X001920Y015527D01*
X002047Y015400D01*
G37*
D31*
G36*
X002298Y015576D02*
X002120Y015398D01*
X001942Y015576D01*
X002120Y015754D01*
X002298Y015576D01*
G37*
G36*
X002642Y015576D02*
X002820Y015754D01*
X002998Y015576D01*
X002820Y015398D01*
X002642Y015576D01*
G37*
G36*
X002642Y016224D02*
X002820Y016402D01*
X002998Y016224D01*
X002820Y016046D01*
X002642Y016224D01*
G37*
G36*
X002298Y016224D02*
X002120Y016046D01*
X001942Y016224D01*
X002120Y016402D01*
X002298Y016224D01*
G37*
G36*
X004858Y013862D02*
X004680Y013684D01*
X004502Y013862D01*
X004680Y014040D01*
X004858Y013862D01*
G37*
G36*
X004858Y013214D02*
X004680Y013036D01*
X004502Y013214D01*
X004680Y013392D01*
X004858Y013214D01*
G37*
G36*
X005202Y013214D02*
X005380Y013392D01*
X005558Y013214D01*
X005380Y013036D01*
X005202Y013214D01*
G37*
G36*
X005202Y013862D02*
X005380Y014040D01*
X005558Y013862D01*
X005380Y013684D01*
X005202Y013862D01*
G37*
D32*
X002697Y014887D03*
X002441Y014887D03*
X002185Y014887D03*
X001929Y014887D03*
X001929Y012583D03*
X002185Y012583D03*
X002441Y012583D03*
X002697Y012583D03*
D33*
X003278Y013263D03*
X003947Y013263D03*
X004774Y012239D03*
X005443Y012239D03*
X002687Y017003D03*
X002018Y017003D03*
D34*
X006026Y013891D03*
X006026Y013422D03*
X006789Y013422D03*
X006789Y013891D03*
D35*
X005518Y014420D03*
X005518Y014680D03*
X005518Y014940D03*
X004698Y014940D03*
X004698Y014680D03*
X004698Y014420D03*
D36*
X005108Y014680D03*
D37*
X004321Y015262D03*
X004124Y015262D03*
X003927Y015262D03*
X003730Y015262D03*
X003533Y015262D03*
X003533Y016382D03*
X003730Y016382D03*
X003927Y016382D03*
X004124Y016382D03*
X004321Y016382D03*
D38*
X003927Y015822D03*
D39*
X005030Y016156D03*
X005030Y015487D03*
X005896Y006038D03*
X005896Y005369D03*
D40*
X007888Y008186D03*
X007888Y009126D03*
X008258Y009126D03*
X008628Y009126D03*
X008628Y008186D03*
D41*
X005212Y008164D03*
X005212Y007967D03*
X005212Y007770D03*
X005212Y007574D03*
X005212Y007377D03*
X005212Y008361D03*
X003745Y008361D03*
X003745Y008164D03*
X003745Y007967D03*
X003745Y007770D03*
X003745Y007574D03*
X003745Y007377D03*
D42*
X003986Y007135D03*
X004183Y007135D03*
X004380Y007135D03*
X004577Y007135D03*
X004774Y007135D03*
X004970Y007135D03*
X004970Y008603D03*
X004774Y008603D03*
X004577Y008603D03*
X004380Y008603D03*
X004183Y008603D03*
X003986Y008603D03*
D43*
X004478Y007869D03*
D44*
X003711Y009089D03*
X003041Y009089D03*
X003002Y008341D03*
X002333Y008341D03*
D45*
X007500Y019975D03*
X007709Y019975D03*
X008209Y019975D03*
X008386Y019975D03*
X008386Y020270D03*
X008386Y020566D03*
X008209Y020566D03*
X007709Y020566D03*
X007500Y020566D03*
D46*
X007638Y020270D03*
D47*
X008110Y020270D03*
D48*
X007982Y017652D03*
X007982Y017456D03*
X007982Y017259D03*
X007982Y017062D03*
X007982Y016865D03*
X007982Y016668D03*
X009557Y016668D03*
X009557Y016865D03*
X009557Y017062D03*
X009557Y017259D03*
X009557Y017456D03*
X009557Y017652D03*
D49*
X009262Y017948D03*
X009065Y017948D03*
X008868Y017948D03*
X008671Y017948D03*
X008474Y017948D03*
X008278Y017948D03*
X008278Y016373D03*
X008474Y016373D03*
X008671Y016373D03*
X008868Y016373D03*
X009065Y016373D03*
X009262Y016373D03*
X009301Y006688D03*
X009104Y006688D03*
X008907Y006688D03*
X008711Y006688D03*
X008514Y006688D03*
X008317Y006688D03*
X008120Y006688D03*
X007923Y006688D03*
X007726Y006688D03*
X009498Y006688D03*
X009695Y006688D03*
X009892Y006688D03*
X010089Y006688D03*
X010285Y006688D03*
X010482Y006688D03*
X010679Y006688D03*
X010876Y006688D03*
X011073Y006688D03*
X011270Y006688D03*
X011467Y006688D03*
X011663Y006688D03*
X011860Y006688D03*
X012057Y006688D03*
X012254Y006688D03*
D50*
X008770Y017160D03*
D51*
X014478Y021137D03*
D52*
X014308Y021137D03*
X014648Y021137D03*
D53*
X013465Y006058D03*
X006516Y006058D03*
D54*
X006978Y005891D03*
X013002Y005891D03*
D55*
X013219Y006058D03*
X006762Y006058D03*
D56*
X006978Y005457D03*
X013002Y005457D03*
M02*
