G75*
%MOIN*%
%OFA0B0*%
%FSLAX24Y24*%
%IPPOS*%
%LPD*%
%AMOC8*
5,1,8,0,0,1.08239X$1,22.5*
%
%ADD10C,0.0157*%
%ADD11C,0.0295*%
%ADD12C,0.0276*%
%ADD13C,0.0256*%
D10*
X007812Y009284D02*
X007970Y009284D01*
X007970Y008772D01*
X007812Y008772D01*
X007812Y009284D01*
X007812Y008928D02*
X007970Y008928D01*
X007970Y009084D02*
X007812Y009084D01*
X007812Y009240D02*
X007970Y009240D01*
X008245Y009284D02*
X008403Y009284D01*
X008403Y008772D01*
X008245Y008772D01*
X008245Y009284D01*
X008245Y008928D02*
X008403Y008928D01*
X008403Y009084D02*
X008245Y009084D01*
X008245Y009240D02*
X008403Y009240D01*
X008678Y009284D02*
X008836Y009284D01*
X008836Y008772D01*
X008678Y008772D01*
X008678Y009284D01*
X008678Y008928D02*
X008836Y008928D01*
X008836Y009084D02*
X008678Y009084D01*
X008678Y009240D02*
X008836Y009240D01*
X009111Y009284D02*
X009269Y009284D01*
X009269Y008772D01*
X009111Y008772D01*
X009111Y009284D01*
X009111Y008928D02*
X009269Y008928D01*
X009269Y009084D02*
X009111Y009084D01*
X009111Y009240D02*
X009269Y009240D01*
X009544Y009284D02*
X009702Y009284D01*
X009702Y008772D01*
X009544Y008772D01*
X009544Y009284D01*
X009544Y008928D02*
X009702Y008928D01*
X009702Y009084D02*
X009544Y009084D01*
X009544Y009240D02*
X009702Y009240D01*
X009977Y009284D02*
X010135Y009284D01*
X010135Y008772D01*
X009977Y008772D01*
X009977Y009284D01*
X009977Y008928D02*
X010135Y008928D01*
X010135Y009084D02*
X009977Y009084D01*
X009977Y009240D02*
X010135Y009240D01*
X010410Y009284D02*
X010568Y009284D01*
X010568Y008772D01*
X010410Y008772D01*
X010410Y009284D01*
X010410Y008928D02*
X010568Y008928D01*
X010568Y009084D02*
X010410Y009084D01*
X010410Y009240D02*
X010568Y009240D01*
X010843Y008772D02*
X011001Y008772D01*
X010843Y008772D02*
X010843Y009284D01*
X011001Y009284D01*
X011001Y008772D01*
X011001Y008928D02*
X010843Y008928D01*
X010843Y009084D02*
X011001Y009084D01*
X011001Y009240D02*
X010843Y009240D01*
D11*
X012133Y009228D02*
X012507Y009228D01*
X012507Y008932D01*
X012133Y008932D01*
X012133Y009228D01*
X012133Y009226D02*
X012507Y009226D01*
X012507Y003420D02*
X012211Y003420D01*
X012507Y003420D02*
X012507Y003046D01*
X012211Y003046D01*
X012211Y003420D01*
X012211Y003340D02*
X012507Y003340D01*
X007504Y009228D02*
X007168Y009228D01*
X007504Y009228D02*
X007504Y008932D01*
X007168Y008932D01*
X007168Y009228D01*
X007168Y009226D02*
X007504Y009226D01*
X007192Y003420D02*
X006896Y003420D01*
X007192Y003420D02*
X007192Y003046D01*
X006896Y003046D01*
X006896Y003420D01*
X006896Y003340D02*
X007192Y003340D01*
D12*
X007119Y005654D02*
X006805Y005654D01*
X007119Y005654D02*
X007119Y005380D01*
X006805Y005380D01*
X006805Y005654D01*
D13*
X006795Y008558D02*
X007129Y008558D01*
X007129Y008302D01*
X006795Y008302D01*
X006795Y008558D01*
X006795Y008557D02*
X007129Y008557D01*
M02*
