G75*
%MOIN*%
%OFA0B0*%
%FSLAX24Y24*%
%IPPOS*%
%LPD*%
%AMOC8*
5,1,8,0,0,1.08239X$1,22.5*
%
%ADD10R,0.0138X0.0316*%
%ADD11R,0.0316X0.0138*%
%ADD12R,0.1064X0.1064*%
%ADD13R,0.0276X0.0197*%
%ADD14R,0.0197X0.0276*%
%ADD15R,0.0640X0.1640*%
%ADD16R,0.0237X0.0394*%
%ADD17R,0.0237X0.0178*%
%ADD18R,0.0749X0.0316*%
%ADD19R,0.0749X0.0355*%
%ADD20R,0.0827X0.0434*%
%ADD21C,0.0158*%
%ADD22R,0.0780X0.0780*%
%ADD23C,0.0780*%
%ADD24R,0.0340X0.1040*%
%ADD25R,0.0390X0.0140*%
%ADD26R,0.0190X0.0215*%
%ADD27R,0.0181X0.0181*%
%ADD28R,0.0252X0.0252*%
%ADD29R,0.0512X0.0178*%
%ADD30R,0.0473X0.0631*%
%ADD31R,0.0351X0.0213*%
%ADD32R,0.1040X0.0340*%
%ADD33R,0.0140X0.0390*%
%ADD34R,0.0215X0.0190*%
%ADD35R,0.0355X0.0138*%
%ADD36R,0.0670X0.0946*%
%ADD37R,0.0142X0.0248*%
%ADD38R,0.0248X0.0142*%
%ADD39R,0.1103X0.1103*%
%ADD40R,0.0631X0.0473*%
%ADD41R,0.0394X0.0237*%
%ADD42R,0.0316X0.0552*%
%ADD43R,0.0158X0.0158*%
%ADD44R,0.0257X0.0434*%
%ADD45R,0.0257X0.0355*%
%ADD46R,0.0355X0.0270*%
%ADD47R,0.0158X0.0355*%
%ADD48R,0.0453X0.0866*%
%ADD49R,0.0512X0.1201*%
%ADD50R,0.0985X0.0906*%
%ADD51R,0.0552X0.0375*%
%ADD52R,0.0180X0.0280*%
%ADD53R,0.0670X0.0430*%
%ADD54R,0.0280X0.0180*%
%ADD55R,0.0430X0.0670*%
%ADD56R,0.0560X0.0260*%
%ADD57R,0.0552X0.0316*%
%ADD58R,0.0197X0.0355*%
%ADD59R,0.0150X0.0363*%
%ADD60R,0.0424X0.0138*%
%ADD61R,0.1162X0.0682*%
%ADD62R,0.0260X0.0560*%
D10*
X002384Y006639D03*
X002581Y006639D03*
X002778Y006639D03*
X002974Y006639D03*
X003171Y006639D03*
X003171Y008213D03*
X002974Y008213D03*
X002778Y008213D03*
X002581Y008213D03*
X002384Y008213D03*
X002384Y009906D03*
X002581Y009906D03*
X002778Y009906D03*
X002974Y009906D03*
X003171Y009906D03*
X003171Y011481D03*
X002974Y011481D03*
X002778Y011481D03*
X002581Y011481D03*
X002384Y011481D03*
D11*
X001990Y011087D03*
X001990Y010891D03*
X001990Y010694D03*
X001990Y010497D03*
X001990Y010300D03*
X003565Y010300D03*
X003565Y010497D03*
X003565Y010694D03*
X003565Y010891D03*
X003565Y011087D03*
X003565Y007820D03*
X003565Y007623D03*
X003565Y007426D03*
X003565Y007229D03*
X003565Y007032D03*
X001990Y007032D03*
X001990Y007229D03*
X001990Y007426D03*
X001990Y007623D03*
X001990Y007820D03*
D12*
X002778Y007426D03*
X002778Y010694D03*
D13*
X003014Y012406D03*
X003014Y012761D03*
X003014Y013076D03*
X003014Y013430D03*
X003408Y013430D03*
X003408Y013745D03*
X003408Y014099D03*
X003801Y013430D03*
X003801Y013076D03*
X003408Y013076D03*
X003408Y012761D03*
X003408Y012406D03*
X004234Y010595D03*
X004234Y010241D03*
X004195Y008469D03*
X004195Y008115D03*
X004589Y008115D03*
X004589Y008469D03*
X005770Y007288D03*
X005770Y006934D03*
X006163Y006934D03*
X006163Y007288D03*
X006478Y005871D03*
X006478Y005517D03*
X006478Y005202D03*
X006478Y004847D03*
X003762Y004729D03*
X003762Y005083D03*
X003171Y005202D03*
X003171Y005556D03*
X003171Y005871D03*
X003171Y006225D03*
X001990Y006284D03*
X001990Y005930D03*
X001242Y005831D03*
X001242Y006186D03*
X002266Y003902D03*
X002266Y003548D03*
X002266Y003233D03*
X002266Y002879D03*
X002266Y002564D03*
X002266Y002209D03*
X002778Y002209D03*
X002778Y002564D03*
X003171Y002564D03*
X003171Y002209D03*
X008408Y009611D03*
X008408Y009965D03*
X008801Y009965D03*
X008801Y009611D03*
X011754Y013863D03*
X011754Y014217D03*
X012148Y014217D03*
X012148Y013863D03*
X012541Y013863D03*
X012541Y014217D03*
X012935Y014217D03*
X012935Y013863D03*
X013329Y013863D03*
X013329Y014217D03*
X013722Y014217D03*
X013722Y013863D03*
X014116Y013863D03*
X014116Y014217D03*
X008250Y015162D03*
X008250Y015517D03*
X008014Y016934D03*
X008014Y017288D03*
X007620Y017288D03*
X007620Y016934D03*
X007581Y019296D03*
X007581Y019650D03*
X007187Y019650D03*
X007187Y019296D03*
X006715Y019296D03*
X006715Y019650D03*
X008093Y019650D03*
X008093Y019296D03*
X004746Y016698D03*
X004746Y016343D03*
X004352Y016343D03*
X004352Y016698D03*
X003959Y016698D03*
X003959Y016343D03*
X003565Y016343D03*
X003565Y016698D03*
X001872Y016658D03*
X001872Y017013D03*
X001872Y017800D03*
X001872Y018154D03*
X001478Y018154D03*
X001478Y017800D03*
X012069Y005083D03*
X012069Y004729D03*
D14*
X011734Y005182D03*
X011734Y005576D03*
X011734Y005969D03*
X011734Y006363D03*
X011380Y006363D03*
X011380Y005969D03*
X011380Y005576D03*
X011380Y005182D03*
X011380Y006914D03*
X011380Y007308D03*
X011380Y007702D03*
X011734Y007702D03*
X011734Y007308D03*
X011734Y006914D03*
X011537Y009237D03*
X011183Y009237D03*
X011183Y009631D03*
X011537Y009631D03*
X010396Y010143D03*
X010041Y010143D03*
X010041Y010694D03*
X010396Y010694D03*
X010396Y011087D03*
X010396Y011481D03*
X010041Y011481D03*
X010041Y011087D03*
X010041Y013489D03*
X010396Y013489D03*
X007915Y014119D03*
X007561Y014119D03*
X007561Y014513D03*
X007915Y014513D03*
X007089Y014906D03*
X007089Y015300D03*
X006734Y015300D03*
X006734Y014906D03*
X007404Y012741D03*
X007758Y012741D03*
X006360Y009946D03*
X006006Y009946D03*
X004293Y011087D03*
X003939Y011087D03*
X003388Y012032D03*
X003033Y012032D03*
X001616Y012229D03*
X001616Y012623D03*
X001616Y013095D03*
X001616Y013489D03*
X001616Y013883D03*
X001262Y013883D03*
X001262Y013489D03*
X001262Y013095D03*
X001262Y012623D03*
X001262Y012229D03*
X001262Y011402D03*
X001262Y011009D03*
X001262Y010615D03*
X001616Y010615D03*
X001616Y011009D03*
X001616Y011402D03*
X001636Y009749D03*
X001282Y009749D03*
X001262Y008135D03*
X001616Y008135D03*
X002404Y005930D03*
X002404Y005536D03*
X002758Y005536D03*
X002758Y005930D03*
X003939Y006678D03*
X003939Y007072D03*
X004293Y007072D03*
X004608Y007072D03*
X004963Y007072D03*
X005081Y006363D03*
X005081Y005969D03*
X004726Y005969D03*
X004726Y006363D03*
X004293Y006678D03*
X001892Y003410D03*
X001537Y003410D03*
X001537Y002780D03*
X001892Y002780D03*
X001892Y002229D03*
X001537Y002229D03*
X001577Y004316D03*
X001222Y004316D03*
X004215Y001914D03*
X004569Y001914D03*
X008230Y003607D03*
X008585Y003607D03*
X008585Y004394D03*
X008900Y004394D03*
X008900Y004788D03*
X009254Y004788D03*
X009254Y004394D03*
X008230Y004394D03*
X010514Y003410D03*
X010868Y003410D03*
X011183Y003410D03*
X011537Y003410D03*
X012522Y003331D03*
X012876Y003331D03*
X004530Y014513D03*
X004175Y014513D03*
X003152Y016560D03*
X002797Y016560D03*
X002797Y017308D03*
X003152Y017308D03*
X003152Y017702D03*
X002797Y017702D03*
X002797Y018095D03*
X003152Y018095D03*
X001892Y017387D03*
X001537Y017387D03*
X001419Y016284D03*
X001262Y015812D03*
X001262Y015379D03*
X001262Y014985D03*
X001262Y014591D03*
X001616Y014591D03*
X001616Y014985D03*
X001616Y015379D03*
X001616Y015812D03*
X001774Y016284D03*
X002089Y014001D03*
X002443Y014001D03*
D15*
X001242Y001206D03*
X002242Y001206D03*
X003242Y001206D03*
X003262Y019217D03*
X002262Y019217D03*
X001262Y019217D03*
D16*
X003545Y017111D03*
X004136Y017111D03*
X005278Y017387D03*
X005868Y017387D03*
X005238Y010694D03*
X005238Y010182D03*
X004648Y010182D03*
X004648Y010694D03*
X001813Y005339D03*
X001813Y004828D03*
X001222Y004828D03*
X001222Y005339D03*
X010711Y013489D03*
X011301Y013489D03*
X012089Y007662D03*
X012679Y007662D03*
X012679Y006875D03*
X012679Y006363D03*
X012679Y005851D03*
X012089Y005851D03*
X012089Y006363D03*
X012089Y006875D03*
D17*
X005032Y001471D03*
X005032Y001215D03*
X005032Y000959D03*
X005032Y000704D03*
X004224Y000704D03*
X004224Y000959D03*
X004224Y001215D03*
X004224Y001471D03*
D18*
X008860Y014749D03*
X008860Y018174D03*
X012600Y018174D03*
X012600Y014749D03*
D19*
X012600Y015162D03*
X012600Y015595D03*
X012600Y016028D03*
X012600Y016461D03*
X012600Y016894D03*
X012600Y017328D03*
X012600Y017761D03*
X008860Y017761D03*
X008860Y017328D03*
X008860Y016894D03*
X008860Y016461D03*
X008860Y016028D03*
X008860Y015595D03*
X008860Y015162D03*
D20*
X013880Y016963D03*
X013880Y019759D03*
D21*
X010652Y009080D03*
X010652Y008824D03*
X010652Y008568D03*
X010652Y008312D03*
X010652Y008056D03*
X010652Y007800D03*
X010652Y007544D03*
X010652Y007288D03*
X010652Y007032D03*
X010652Y006776D03*
X010652Y006520D03*
X010652Y006265D03*
X010652Y006009D03*
X010652Y005753D03*
X010652Y005497D03*
X010396Y005497D03*
X010140Y005497D03*
X010140Y005753D03*
X010140Y006009D03*
X010140Y006265D03*
X010140Y006520D03*
X010396Y006520D03*
X010396Y006265D03*
X010396Y006009D03*
X010396Y005753D03*
X009884Y005753D03*
X009884Y006009D03*
X009884Y006265D03*
X009884Y006520D03*
X009884Y006776D03*
X010140Y006776D03*
X010396Y006776D03*
X010396Y007032D03*
X010396Y007288D03*
X010396Y007544D03*
X010396Y007800D03*
X010396Y008056D03*
X010140Y008056D03*
X010140Y007800D03*
X010140Y007544D03*
X010140Y007288D03*
X010140Y007032D03*
X009884Y007032D03*
X009884Y007288D03*
X009884Y007544D03*
X009884Y007800D03*
X009884Y008056D03*
X009884Y008312D03*
X009884Y008568D03*
X009884Y008824D03*
X009884Y009080D03*
X010140Y009080D03*
X010396Y009080D03*
X010396Y008824D03*
X010140Y008824D03*
X010140Y008568D03*
X010396Y008568D03*
X010396Y008312D03*
X010140Y008312D03*
X009628Y008312D03*
X009628Y008568D03*
X009628Y008824D03*
X009628Y009080D03*
X009372Y009080D03*
X009116Y009080D03*
X009116Y008824D03*
X009372Y008824D03*
X009372Y008568D03*
X009116Y008568D03*
X009116Y008312D03*
X009372Y008312D03*
X008860Y008312D03*
X008860Y008568D03*
X008860Y008824D03*
X008860Y009080D03*
X008604Y009080D03*
X008604Y008824D03*
X008604Y008568D03*
X008604Y008312D03*
X008348Y008312D03*
X008093Y008312D03*
X008093Y008568D03*
X008348Y008568D03*
X008348Y008824D03*
X008093Y008824D03*
X008093Y009080D03*
X008348Y009080D03*
X007837Y009080D03*
X007837Y008824D03*
X007837Y008568D03*
X007837Y008312D03*
X007837Y008056D03*
X007837Y007800D03*
X007837Y007544D03*
X007837Y007288D03*
X007837Y007032D03*
X007837Y006776D03*
X007837Y006520D03*
X007837Y006265D03*
X007837Y006009D03*
X007837Y005753D03*
X008093Y005753D03*
X008348Y005753D03*
X008348Y006009D03*
X008093Y006009D03*
X008093Y006265D03*
X008348Y006265D03*
X008604Y006265D03*
X008604Y006009D03*
X008604Y005753D03*
X008604Y005497D03*
X008348Y005497D03*
X008093Y005497D03*
X007837Y005497D03*
X007581Y005497D03*
X007581Y005753D03*
X007581Y006009D03*
X007581Y006265D03*
X007581Y006520D03*
X007581Y006776D03*
X007325Y006776D03*
X007325Y006520D03*
X007325Y006265D03*
X007069Y006265D03*
X007069Y006520D03*
X007069Y006776D03*
X007069Y007032D03*
X007325Y007032D03*
X007325Y007288D03*
X007069Y007288D03*
X007069Y007544D03*
X007325Y007544D03*
X007325Y007800D03*
X007325Y008056D03*
X007069Y008056D03*
X007069Y007800D03*
X007581Y007800D03*
X007581Y007544D03*
X007581Y007288D03*
X007581Y007032D03*
X007581Y008056D03*
X007581Y008312D03*
X007581Y008568D03*
X007581Y008824D03*
X007581Y009080D03*
X007325Y009080D03*
X007069Y009080D03*
X007069Y008824D03*
X007325Y008824D03*
X007325Y008568D03*
X007069Y008568D03*
X007069Y008312D03*
X007325Y008312D03*
X008348Y007800D03*
X008348Y007544D03*
X008348Y007288D03*
X008348Y007032D03*
X008348Y006776D03*
X008604Y006776D03*
X008860Y006776D03*
X009116Y006776D03*
X009372Y006776D03*
X009372Y007032D03*
X009116Y007032D03*
X009116Y007288D03*
X009372Y007288D03*
X009372Y007544D03*
X009116Y007544D03*
X009116Y007800D03*
X009372Y007800D03*
X008860Y007800D03*
X008860Y007544D03*
X008860Y007288D03*
X008860Y007032D03*
X008604Y007032D03*
X008604Y007288D03*
X008604Y007544D03*
X008604Y007800D03*
X008860Y006265D03*
X008860Y006009D03*
X008860Y005753D03*
X008860Y005497D03*
X009116Y005497D03*
X009372Y005497D03*
X009372Y005753D03*
X009372Y006009D03*
X009372Y006265D03*
X009116Y006265D03*
X009116Y006009D03*
X009116Y005753D03*
X009628Y005753D03*
X009628Y006009D03*
X009628Y006265D03*
X009628Y005497D03*
X009884Y005497D03*
X007325Y005497D03*
X007069Y005497D03*
X007069Y005753D03*
X007069Y006009D03*
X007325Y006009D03*
X007325Y005753D03*
D22*
X009037Y019355D03*
D23*
X010037Y019355D03*
X011037Y019355D03*
X012037Y019355D03*
X013683Y012087D03*
X013683Y011087D03*
X013683Y010087D03*
X013683Y009087D03*
X013683Y008087D03*
X013683Y007087D03*
X013683Y006087D03*
X013683Y005087D03*
X013683Y004087D03*
X013683Y003087D03*
X013683Y002087D03*
X013683Y001087D03*
X004313Y019355D03*
D24*
X003852Y018056D03*
X004852Y018056D03*
X008183Y011245D03*
X009183Y011245D03*
D25*
X009058Y010695D03*
X008308Y010695D03*
X008308Y011795D03*
X009058Y011795D03*
X004727Y017506D03*
X003977Y017506D03*
X003977Y018606D03*
X004727Y018606D03*
D26*
X004627Y018468D03*
X004077Y018468D03*
X004077Y017643D03*
X004627Y017643D03*
X008408Y011657D03*
X008958Y011657D03*
X008958Y010832D03*
X008408Y010832D03*
D27*
G36*
X008260Y010745D02*
X008133Y010618D01*
X008006Y010745D01*
X008133Y010872D01*
X008260Y010745D01*
G37*
G36*
X008260Y011745D02*
X008133Y011618D01*
X008006Y011745D01*
X008133Y011872D01*
X008260Y011745D01*
G37*
G36*
X009106Y011745D02*
X009233Y011872D01*
X009360Y011745D01*
X009233Y011618D01*
X009106Y011745D01*
G37*
G36*
X009106Y010745D02*
X009233Y010872D01*
X009360Y010745D01*
X009233Y010618D01*
X009106Y010745D01*
G37*
G36*
X010230Y012003D02*
X010357Y011876D01*
X010230Y011749D01*
X010103Y011876D01*
X010230Y012003D01*
G37*
G36*
X010230Y012849D02*
X010103Y012976D01*
X010230Y013103D01*
X010357Y012976D01*
X010230Y012849D01*
G37*
G36*
X011231Y012849D02*
X011104Y012976D01*
X011231Y013103D01*
X011358Y012976D01*
X011231Y012849D01*
G37*
G36*
X011231Y012003D02*
X011358Y011876D01*
X011231Y011749D01*
X011104Y011876D01*
X011231Y012003D01*
G37*
G36*
X005207Y013184D02*
X005334Y013057D01*
X005207Y012930D01*
X005080Y013057D01*
X005207Y013184D01*
G37*
G36*
X005207Y014030D02*
X005080Y014157D01*
X005207Y014284D01*
X005334Y014157D01*
X005207Y014030D01*
G37*
G36*
X004206Y014030D02*
X004079Y014157D01*
X004206Y014284D01*
X004333Y014157D01*
X004206Y014030D01*
G37*
G36*
X004206Y013184D02*
X004333Y013057D01*
X004206Y012930D01*
X004079Y013057D01*
X004206Y013184D01*
G37*
G36*
X003929Y017556D02*
X003802Y017429D01*
X003675Y017556D01*
X003802Y017683D01*
X003929Y017556D01*
G37*
G36*
X003929Y018556D02*
X003802Y018429D01*
X003675Y018556D01*
X003802Y018683D01*
X003929Y018556D01*
G37*
G36*
X004776Y018556D02*
X004903Y018683D01*
X005030Y018556D01*
X004903Y018429D01*
X004776Y018556D01*
G37*
G36*
X004776Y017556D02*
X004903Y017683D01*
X005030Y017556D01*
X004903Y017429D01*
X004776Y017556D01*
G37*
D28*
G36*
X004524Y017732D02*
X004702Y017910D01*
X004880Y017732D01*
X004702Y017554D01*
X004524Y017732D01*
G37*
G36*
X004180Y017732D02*
X004002Y017554D01*
X003824Y017732D01*
X004002Y017910D01*
X004180Y017732D01*
G37*
G36*
X004180Y018380D02*
X004002Y018202D01*
X003824Y018380D01*
X004002Y018558D01*
X004180Y018380D01*
G37*
G36*
X004524Y018380D02*
X004702Y018558D01*
X004880Y018380D01*
X004702Y018202D01*
X004524Y018380D01*
G37*
G36*
X004383Y013779D02*
X004205Y013957D01*
X004383Y014135D01*
X004561Y013957D01*
X004383Y013779D01*
G37*
G36*
X004383Y013435D02*
X004561Y013257D01*
X004383Y013079D01*
X004205Y013257D01*
X004383Y013435D01*
G37*
G36*
X005031Y013435D02*
X005209Y013257D01*
X005031Y013079D01*
X004853Y013257D01*
X005031Y013435D01*
G37*
G36*
X005031Y013779D02*
X004853Y013957D01*
X005031Y014135D01*
X005209Y013957D01*
X005031Y013779D01*
G37*
G36*
X008511Y011569D02*
X008333Y011391D01*
X008155Y011569D01*
X008333Y011747D01*
X008511Y011569D01*
G37*
G36*
X008855Y011569D02*
X009033Y011747D01*
X009211Y011569D01*
X009033Y011391D01*
X008855Y011569D01*
G37*
G36*
X008855Y010921D02*
X009033Y011099D01*
X009211Y010921D01*
X009033Y010743D01*
X008855Y010921D01*
G37*
G36*
X008511Y010921D02*
X008333Y010743D01*
X008155Y010921D01*
X008333Y011099D01*
X008511Y010921D01*
G37*
G36*
X010406Y012254D02*
X010584Y012076D01*
X010406Y011898D01*
X010228Y012076D01*
X010406Y012254D01*
G37*
G36*
X010406Y012598D02*
X010228Y012776D01*
X010406Y012954D01*
X010584Y012776D01*
X010406Y012598D01*
G37*
G36*
X011054Y012598D02*
X010876Y012776D01*
X011054Y012954D01*
X011232Y012776D01*
X011054Y012598D01*
G37*
G36*
X011054Y012254D02*
X011232Y012076D01*
X011054Y011898D01*
X010876Y012076D01*
X011054Y012254D01*
G37*
D29*
X007709Y018066D03*
X007709Y018322D03*
X007709Y018578D03*
X007709Y018833D03*
X005406Y018833D03*
X005406Y018578D03*
X005406Y018322D03*
X005406Y018066D03*
D30*
X006380Y017387D03*
X007049Y017387D03*
X006065Y019513D03*
X005396Y019513D03*
X005514Y015103D03*
X004845Y015103D03*
X004175Y015103D03*
X006183Y015103D03*
X008467Y012426D03*
X009136Y012426D03*
D31*
X001791Y009343D03*
X001323Y009343D03*
X001323Y008580D03*
X001791Y008580D03*
D32*
X004707Y013107D03*
X004707Y014107D03*
X010730Y012926D03*
X010730Y011926D03*
D33*
X011280Y012051D03*
X011280Y012801D03*
X010180Y012801D03*
X010180Y012051D03*
X005257Y013232D03*
X005257Y013982D03*
X004157Y013982D03*
X004157Y013232D03*
D34*
X004294Y013332D03*
X004294Y013882D03*
X005119Y013882D03*
X005119Y013332D03*
X010318Y012701D03*
X010318Y012151D03*
X011143Y012151D03*
X011143Y012701D03*
D35*
X007069Y015891D03*
X007069Y016087D03*
X007069Y016284D03*
X007069Y016481D03*
X007069Y016678D03*
X005888Y016678D03*
X005888Y016481D03*
X005888Y016284D03*
X005888Y016087D03*
X005888Y015891D03*
D36*
X006478Y016284D03*
D37*
X003388Y015955D03*
X003191Y015955D03*
X002994Y015955D03*
X002797Y015955D03*
X002600Y015955D03*
X002404Y015955D03*
X002404Y014487D03*
X002600Y014487D03*
X002797Y014487D03*
X002994Y014487D03*
X003191Y014487D03*
X003388Y014487D03*
D38*
X003630Y014729D03*
X003630Y014926D03*
X003630Y015123D03*
X003630Y015320D03*
X003630Y015517D03*
X003630Y015713D03*
X002162Y015713D03*
X002162Y015517D03*
X002162Y015320D03*
X002162Y015123D03*
X002162Y014926D03*
X002162Y014729D03*
D39*
X002896Y015221D03*
D40*
X002266Y013430D03*
X002266Y012761D03*
X005376Y012288D03*
X005376Y011619D03*
X006203Y011619D03*
X006203Y012288D03*
X011872Y012131D03*
X011872Y012800D03*
X012030Y011225D03*
X012030Y010556D03*
D41*
X005376Y016068D03*
X005376Y016658D03*
X002345Y016580D03*
X002345Y017170D03*
X002345Y017564D03*
X002345Y018154D03*
D42*
X004057Y015851D03*
X004726Y015851D03*
X002640Y012032D03*
X001970Y012032D03*
D43*
X013427Y015487D03*
X013427Y015664D03*
X013722Y015487D03*
X014018Y015487D03*
X014018Y015664D03*
X014018Y016164D03*
X014018Y016373D03*
X013427Y016373D03*
X013427Y016164D03*
D44*
X013722Y016235D03*
D45*
X013722Y015763D03*
D46*
X013722Y013489D03*
X013722Y013174D03*
X013722Y012859D03*
X013171Y012859D03*
X013171Y013174D03*
X013171Y013489D03*
D47*
X011537Y002938D03*
X011341Y002938D03*
X011144Y002938D03*
X010947Y002938D03*
X010750Y002938D03*
X010553Y002938D03*
X010356Y002938D03*
X010159Y002938D03*
X009963Y002938D03*
X009766Y002938D03*
X009569Y002938D03*
X009372Y002938D03*
X009175Y002938D03*
X008978Y002938D03*
X008782Y002938D03*
X008585Y002938D03*
X008388Y002938D03*
X008191Y002938D03*
X007994Y002938D03*
X007797Y002938D03*
X007600Y002938D03*
X007404Y002938D03*
X007207Y002938D03*
X007010Y002938D03*
D48*
X005799Y002308D03*
X012748Y002308D03*
D49*
X012285Y002141D03*
X006262Y002141D03*
D50*
X006045Y002308D03*
X012502Y002308D03*
D51*
X012285Y001707D03*
X006262Y001707D03*
D52*
X010825Y010677D03*
X011085Y010677D03*
X011345Y010677D03*
X011345Y011497D03*
X011085Y011497D03*
X010825Y011497D03*
D53*
X011085Y011087D03*
D54*
X007755Y011457D03*
X007755Y011717D03*
X007755Y011977D03*
X006935Y011977D03*
X006935Y011717D03*
X006935Y011457D03*
D55*
X007345Y011717D03*
D56*
X010615Y004686D03*
X010615Y003946D03*
X011555Y003946D03*
X011555Y004316D03*
X011555Y004686D03*
X007775Y004568D03*
X007775Y003828D03*
X006835Y003828D03*
X006835Y004198D03*
X006835Y004568D03*
D57*
X003762Y005477D03*
X003762Y006146D03*
D58*
X002797Y005024D03*
X002541Y005024D03*
X002285Y005024D03*
X002285Y004316D03*
X002541Y004316D03*
X002797Y004316D03*
D59*
X005848Y013131D03*
X006045Y013131D03*
X006242Y013131D03*
X006439Y013131D03*
X006636Y013131D03*
X006833Y013131D03*
X007030Y013131D03*
X007030Y014320D03*
X006833Y014320D03*
X006636Y014320D03*
X006439Y014320D03*
X006242Y014320D03*
X006045Y014320D03*
X005848Y014320D03*
D60*
X005686Y013997D03*
X005686Y013816D03*
X005686Y013635D03*
X005686Y013454D03*
X007192Y013454D03*
X007192Y013635D03*
X007192Y013816D03*
X007192Y013997D03*
D61*
X006439Y013725D03*
D62*
X008471Y014077D03*
X009211Y014077D03*
X009211Y013137D03*
X008841Y013137D03*
X008471Y013137D03*
M02*
