%
M48
M72
T01C0.0118
T02C0.0120
T03C0.0197
T04C0.0400
%
T01
X1237Y2229
X1237Y2780
X1237Y3410
X1670Y3922
X1985Y4316
X2773Y3489
X2812Y3961
X2773Y2977
X3166Y2977
X3914Y2780
X4033Y3843
X4899Y3843
X5647Y2977
X6001Y2977
X5174Y2623
X4899Y1914
X4702Y1442
X5883Y1284
X7222Y1481
X7222Y1835
X7300Y2269
X7851Y2269
X8088Y2544
X8560Y2544
X8796Y2347
X9033Y2544
X9348Y2544
X9899Y2544
X10214Y2544
X9899Y2072
X9426Y1284
X10411Y1599
X10568Y1284
X10922Y1757
X10765Y2544
X11080Y2544
X11434Y2544
X11552Y1914
X11631Y1284
X12733Y1284
X11828Y3410
X12064Y4394
X12537Y3765
X12970Y4394
X12694Y5182
X12064Y5457
X11040Y5182
X10332Y4276
X9899Y4080
X9781Y3765
X10135Y3765
X10174Y3450
X9348Y3922
X8600Y4040
X7970Y3489
X7300Y3843
X7300Y4198
X7300Y4552
X7537Y5064
X7851Y5064
X8639Y5064
X8993Y5182
X8855Y6520
X8472Y6520
X8088Y6520
X8088Y6904
X8088Y7288
X8088Y8056
X8472Y8056
X9111Y8056
X9495Y8056
X9623Y7672
X9623Y7288
X9623Y6904
X9367Y6520
X11080Y6363
X11080Y6678
X11080Y6993
X11080Y7308
X11080Y7780
X11355Y8765
X11710Y8765
X11789Y9394
X12261Y9591
X12261Y9906
X12537Y10556
X12891Y10103
X13009Y9316
X13009Y8686
X13166Y7741
X12694Y7269
X12261Y8410
X11080Y10024
X11080Y10339
X11237Y11087
X10922Y11087
X11592Y11678
X12025Y11678
X12497Y11757
X12851Y12308
X12733Y12859
X12733Y13489
X11985Y13253
X11670Y13253
X10883Y14119
X10922Y15064
X11316Y15576
X11749Y15654
X11985Y15418
X11985Y14749
X13166Y15418
X13324Y14788
X13914Y14552
X14151Y15891
X13166Y16520
X12812Y19119
X12812Y19513
X10607Y18450
X10135Y18450
X10489Y17662
X10489Y17347
X10214Y17190
X10371Y16639
X10292Y16009
X10332Y15064
X9899Y13961
X10214Y13804
X10726Y12426
X9269Y10379
X9111Y10103
X8678Y11245
X8009Y10064
X7655Y9906
X8009Y9591
X7615Y10497
X7300Y10497
X6907Y10851
X6513Y11127
X6198Y11127
X5883Y11127
X5804Y10654
X5765Y10024
X6080Y10024
X6670Y9946
X6474Y9316
X6749Y9158
X7182Y9591
X7340Y11560
X7340Y11875
X7064Y12741
X6513Y12741
X5962Y12741
X6040Y13725
X6434Y13725
X6828Y13725
X7222Y14513
X7615Y14828
X7379Y15064
X7458Y16127
X7458Y16442
X8009Y17623
X7576Y17741
X7103Y18253
X6670Y18410
X6434Y18725
X6159Y18410
X5883Y18095
X5568Y17780
X4938Y17190
X4466Y17032
X4348Y18056
X3442Y18095
X2970Y17013
X2103Y16048
X2601Y15511
X2891Y15221
X3180Y14932
X3180Y15511
X2601Y14932
X2103Y14394
X1710Y14237
X1198Y14237
X2300Y12308
X2025Y11442
X1592Y11835
X1277Y11835
X1513Y10300
X1237Y10064
X1237Y9355
X1237Y8646
X1907Y8961
X2340Y9040
X2537Y8765
X2103Y8528
X2103Y8213
X1474Y7032
X1513Y6717
X2025Y6717
X1513Y6087
X1237Y7269
X2064Y9434
X2064Y9749
X3009Y9040
X3009Y8568
X3403Y8450
X3600Y8213
X3875Y8056
X4111Y7426
X4584Y6678
X4348Y6127
X4623Y5182
X4151Y5143
X5056Y5536
X5489Y6481
X5804Y6599
X5411Y6954
X5411Y7269
X4820Y8213
X5371Y9473
X5214Y9985
X4820Y9946
X3678Y9946
X3442Y9709
X3481Y8922
X3560Y6639
X5844Y8371
X6513Y7269
X6474Y5221
X6316Y4946
X6946Y5024
X6316Y4001
X8009Y1284
X11080Y3765
X10489Y9591
X10096Y9670
X8048Y13607
X8836Y13883
X9426Y16028
X9466Y16402
X9426Y16875
X9466Y18607
X8521Y18607
X8481Y19434
X7182Y18843
X5922Y18843
X4938Y19158
X6474Y16481
X6474Y16087
X5174Y14591
X4840Y14591
X4702Y13607
X4111Y12741
X4269Y12465
X4269Y12150
X4269Y11835
X3796Y12032
X3796Y12387
X3796Y12741
X3836Y13804
X3836Y14237
X2812Y14158
X2812Y13843
X3560Y11363
X5371Y11639
X5056Y15772
X1237Y16639
X1237Y17032
X1237Y17426
X10489Y19237
X10489Y19670
X14111Y12820
X13009Y11599
X13009Y11048
T02
X3029Y10950
X3029Y10438
X2517Y10438
X2517Y10950
X2517Y7682
X3029Y7682
X3029Y7170
X2517Y7170
T03
X8009Y12446
X5411Y15772
X5371Y16993
T04
X13678Y12087
X13678Y11087
X13678Y10087
X13678Y9087
X13678Y8087
X13678Y7087
X13678Y6087
X13678Y5087
X13678Y4087
X13678Y3087
X13678Y2087
X13678Y1087
M30
