G75*
%MOIN*%
%OFA0B0*%
%FSLAX24Y24*%
%IPPOS*%
%LPD*%
%AMOC8*
5,1,8,0,0,1.08239X$1,22.5*
%
%ADD10R,0.0098X0.0276*%
%ADD11R,0.0276X0.0098*%
%ADD12R,0.1024X0.1024*%
%ADD13R,0.0157X0.0236*%
%ADD14R,0.0197X0.0354*%
%ADD15R,0.0236X0.0157*%
%ADD16R,0.0472X0.0315*%
%ADD17R,0.0197X0.0138*%
%ADD18R,0.0709X0.0276*%
%ADD19R,0.0709X0.0315*%
%ADD20R,0.0354X0.0315*%
%ADD21R,0.0787X0.0394*%
%ADD22R,0.0354X0.0197*%
%ADD23C,0.0118*%
%ADD24R,0.0300X0.1000*%
%ADD25R,0.0350X0.0100*%
%ADD26R,0.0150X0.0175*%
%ADD27R,0.0141X0.0141*%
%ADD28R,0.0212X0.0212*%
%ADD29R,0.0138X0.0472*%
%ADD30R,0.0433X0.0591*%
%ADD31R,0.0173X0.0311*%
%ADD32R,0.0240X0.0140*%
%ADD33R,0.0390X0.0630*%
%ADD34R,0.0118X0.0300*%
%ADD35R,0.0945X0.0630*%
%ADD36R,0.0591X0.0433*%
%ADD37R,0.0220X0.0520*%
%ADD38R,0.0520X0.0220*%
%ADD39R,0.0208X0.0102*%
%ADD40R,0.0102X0.0208*%
%ADD41R,0.1063X0.1063*%
%ADD42R,0.0315X0.0354*%
%ADD43R,0.0276X0.0512*%
%ADD44R,0.0106X0.0106*%
%ADD45R,0.0126X0.0195*%
%ADD46R,0.0252X0.0195*%
%ADD47R,0.0315X0.0118*%
%ADD48R,0.0118X0.0315*%
%ADD49R,0.0230X0.0315*%
%ADD50R,0.0787X0.0748*%
%ADD51R,0.0945X0.0866*%
%ADD52R,0.0512X0.0335*%
D10*
X003022Y007133D03*
X003219Y007133D03*
X003415Y007133D03*
X003612Y007133D03*
X003809Y007133D03*
X003809Y008708D03*
X003612Y008708D03*
X003415Y008708D03*
X003219Y008708D03*
X003022Y008708D03*
X003022Y015479D03*
X003219Y015479D03*
X003415Y015479D03*
X003612Y015479D03*
X003809Y015479D03*
X003809Y017054D03*
X003612Y017054D03*
X003415Y017054D03*
X003219Y017054D03*
X003022Y017054D03*
D11*
X002628Y016660D03*
X002628Y016464D03*
X002628Y016267D03*
X002628Y016070D03*
X002628Y015873D03*
X004203Y015873D03*
X004203Y016070D03*
X004203Y016267D03*
X004203Y016464D03*
X004203Y016660D03*
X004203Y008314D03*
X004203Y008117D03*
X004203Y007920D03*
X004203Y007723D03*
X004203Y007527D03*
X002628Y007527D03*
X002628Y007723D03*
X002628Y007920D03*
X002628Y008117D03*
X002628Y008314D03*
D12*
X003415Y007920D03*
X003415Y016267D03*
D13*
X002136Y003432D03*
X002490Y003432D03*
X002490Y004141D03*
X002136Y004141D03*
X002136Y004928D03*
X002490Y004928D03*
X002884Y005282D03*
X003238Y005282D03*
X004104Y006542D03*
X004459Y006542D03*
X004813Y006542D03*
X005167Y006542D03*
X004931Y007094D03*
X004577Y007094D03*
X004577Y007487D03*
X004931Y007487D03*
X004931Y007881D03*
X004577Y007881D03*
X004852Y008590D03*
X004852Y008983D03*
X005207Y008983D03*
X005207Y008590D03*
X005600Y006542D03*
X005955Y006542D03*
X005994Y005479D03*
X005994Y005086D03*
X005994Y004692D03*
X005994Y004298D03*
X005640Y004298D03*
X005364Y003905D03*
X005364Y003511D03*
X005364Y003117D03*
X005364Y002645D03*
X005679Y002290D03*
X006033Y002290D03*
X006033Y001897D03*
X005679Y001897D03*
X005010Y002645D03*
X005010Y003117D03*
X005010Y003511D03*
X005010Y003905D03*
X004616Y003845D03*
X004262Y003845D03*
X004222Y003432D03*
X003868Y003432D03*
X005640Y004692D03*
X005640Y005086D03*
X005640Y005479D03*
X007372Y005282D03*
X007726Y005282D03*
X008081Y005282D03*
X008081Y004849D03*
X007726Y004849D03*
X007372Y004849D03*
X008435Y004849D03*
X008789Y004849D03*
X009144Y004849D03*
X009144Y005282D03*
X008789Y005282D03*
X008435Y005282D03*
X009577Y004731D03*
X009931Y004731D03*
X009439Y007290D03*
X009085Y007290D03*
X009085Y007684D03*
X009439Y007684D03*
X008474Y007290D03*
X008120Y007290D03*
X010679Y007487D03*
X011033Y007487D03*
X012884Y006503D03*
X013238Y006503D03*
X013238Y006070D03*
X012884Y006070D03*
X012884Y005637D03*
X013238Y005637D03*
X013238Y005204D03*
X012884Y005204D03*
X012884Y004731D03*
X013238Y004731D03*
X013120Y011582D03*
X012766Y011582D03*
X012451Y011582D03*
X012096Y011582D03*
X012096Y012015D03*
X012451Y012015D03*
X011782Y012871D03*
X011782Y013304D03*
X011782Y013708D03*
X011427Y013708D03*
X011427Y013304D03*
X011427Y012871D03*
X012451Y015086D03*
X012805Y015086D03*
X014301Y019141D03*
X014656Y019141D03*
X014656Y019771D03*
X014301Y019771D03*
X008868Y013235D03*
X008514Y013235D03*
X007490Y012684D03*
X007372Y013078D03*
X007018Y013078D03*
X007136Y012684D03*
X006309Y012645D03*
X005955Y012645D03*
X005955Y012212D03*
X006309Y012212D03*
X006309Y011779D03*
X005955Y011779D03*
X006033Y014771D03*
X006388Y014771D03*
X004931Y015676D03*
X004577Y015676D03*
X004577Y016070D03*
X004931Y016070D03*
X004931Y016464D03*
X004931Y016857D03*
X004577Y016857D03*
X004577Y016464D03*
X004577Y017251D03*
X004931Y017251D03*
X004262Y017566D03*
X003907Y017566D03*
X003789Y019338D03*
X003435Y019338D03*
X003081Y019338D03*
X002726Y019338D03*
X002372Y019338D03*
X002254Y017054D03*
X001900Y017054D03*
X001900Y016660D03*
X001900Y016267D03*
X002254Y016267D03*
X002254Y016660D03*
X004144Y019338D03*
X008199Y019259D03*
X008199Y019653D03*
X008553Y019653D03*
X008553Y019259D03*
X008632Y016779D03*
X008278Y016779D03*
X008278Y016385D03*
X008632Y016385D03*
X002254Y009534D03*
X001900Y009534D03*
X001900Y009141D03*
X002254Y009141D03*
X002254Y008747D03*
X001900Y008747D03*
X001900Y008275D03*
X002254Y008275D03*
X002254Y007881D03*
X001900Y007881D03*
D14*
X003278Y011424D03*
X003278Y011975D03*
X003868Y011975D03*
X003868Y011424D03*
X005561Y009101D03*
X005561Y008629D03*
X006152Y008629D03*
X006152Y009101D03*
X005955Y016385D03*
X005955Y016857D03*
X005364Y016857D03*
X005364Y016385D03*
X011939Y006424D03*
X011939Y005991D03*
X011939Y005282D03*
X011939Y004849D03*
X012530Y004849D03*
X012530Y005282D03*
X012530Y005991D03*
X012530Y006424D03*
D15*
X012037Y009160D03*
X012037Y009515D03*
X010817Y012979D03*
X010817Y013334D03*
X010423Y013334D03*
X010423Y012979D03*
X010069Y014357D03*
X010069Y014712D03*
X008494Y018570D03*
X008494Y018924D03*
X008573Y019987D03*
X008573Y020342D03*
X008967Y020342D03*
X008967Y019987D03*
X007156Y015971D03*
X007156Y015617D03*
X006762Y015617D03*
X006762Y015971D03*
X005856Y013373D03*
X005856Y013019D03*
X005974Y010184D03*
X005974Y009830D03*
X005974Y008216D03*
X005974Y007861D03*
X005659Y006208D03*
X005659Y005853D03*
X006368Y004869D03*
X006368Y004515D03*
X005345Y002271D03*
X005345Y001916D03*
X004951Y001916D03*
X004951Y002271D03*
X004557Y002468D03*
X004557Y002822D03*
X004557Y003137D03*
X004557Y003491D03*
X003927Y003806D03*
X003927Y004160D03*
X002589Y006286D03*
X002589Y006641D03*
X002195Y006641D03*
X002195Y006286D03*
X009872Y005617D03*
X009872Y005263D03*
X014400Y017074D03*
X014400Y017428D03*
X004282Y017940D03*
X004282Y018294D03*
X003888Y018294D03*
X003888Y017940D03*
X003455Y017861D03*
X003455Y017507D03*
X003061Y017507D03*
X003061Y017861D03*
X003061Y018176D03*
X003061Y018531D03*
X003455Y018570D03*
X003455Y018924D03*
X002667Y018885D03*
X002667Y018531D03*
X002234Y018531D03*
X002234Y018885D03*
D16*
X002549Y018196D03*
X002549Y017487D03*
D17*
X004902Y015233D03*
X004902Y014977D03*
X004902Y014721D03*
X004902Y014466D03*
X005709Y014466D03*
X005709Y014721D03*
X005709Y014977D03*
X005709Y015233D03*
D18*
X009931Y016149D03*
X009931Y019574D03*
X013671Y019574D03*
X013671Y016149D03*
D19*
X013671Y016562D03*
X013671Y016995D03*
X013671Y017428D03*
X013671Y017861D03*
X013671Y018294D03*
X013671Y018727D03*
X013671Y019160D03*
X009931Y019160D03*
X009931Y018727D03*
X009931Y018294D03*
X009931Y017861D03*
X009931Y017428D03*
X009931Y016995D03*
X009931Y016562D03*
D20*
X012234Y014594D03*
X012234Y013845D03*
X013061Y014219D03*
D21*
X006565Y018048D03*
X006565Y020844D03*
D22*
X014400Y016680D03*
X014400Y016090D03*
X002904Y004908D03*
X002904Y004318D03*
X002904Y003964D03*
X002904Y003373D03*
D23*
X007785Y008491D03*
X007785Y008747D03*
X007785Y009003D03*
X007785Y009259D03*
X007785Y009515D03*
X008041Y009515D03*
X008041Y009259D03*
X008041Y009003D03*
X008041Y008747D03*
X008041Y008491D03*
X008297Y008491D03*
X008297Y008747D03*
X008297Y009003D03*
X008297Y009259D03*
X008297Y009515D03*
X008297Y009771D03*
X008297Y010027D03*
X008297Y010282D03*
X008297Y010538D03*
X008297Y010794D03*
X008041Y010794D03*
X007785Y010794D03*
X007785Y010538D03*
X007785Y010282D03*
X007785Y010027D03*
X007785Y009771D03*
X008041Y009771D03*
X008041Y010027D03*
X008041Y010282D03*
X008041Y010538D03*
X008041Y011050D03*
X007785Y011050D03*
X007785Y011306D03*
X007785Y011562D03*
X007785Y011818D03*
X007785Y012074D03*
X008041Y012074D03*
X008041Y011818D03*
X008041Y011562D03*
X008041Y011306D03*
X008297Y011306D03*
X008297Y011050D03*
X008553Y011050D03*
X008553Y011306D03*
X008553Y011562D03*
X008553Y011818D03*
X008553Y012074D03*
X008809Y012074D03*
X008809Y011818D03*
X008809Y011562D03*
X008809Y011306D03*
X009065Y011306D03*
X009065Y011562D03*
X009065Y011818D03*
X009065Y012074D03*
X009321Y012074D03*
X009577Y012074D03*
X009577Y011818D03*
X009577Y011562D03*
X009577Y011306D03*
X009321Y011306D03*
X009321Y011562D03*
X009321Y011818D03*
X009833Y011818D03*
X009833Y012074D03*
X010089Y012074D03*
X010345Y012074D03*
X010345Y011818D03*
X010345Y011562D03*
X010345Y011306D03*
X010089Y011306D03*
X010089Y011562D03*
X010089Y011818D03*
X009833Y011562D03*
X009833Y011306D03*
X009833Y010794D03*
X009833Y010538D03*
X009833Y010282D03*
X009833Y010027D03*
X009833Y009771D03*
X010089Y009771D03*
X010089Y010027D03*
X010089Y010282D03*
X010089Y010538D03*
X010089Y010794D03*
X010600Y010794D03*
X010600Y010538D03*
X010600Y010282D03*
X010600Y010027D03*
X010600Y009771D03*
X010600Y009515D03*
X010600Y009259D03*
X010600Y009003D03*
X010600Y008747D03*
X010600Y008491D03*
X010345Y008491D03*
X010345Y008747D03*
X010345Y009003D03*
X010345Y009259D03*
X010089Y009259D03*
X010089Y009003D03*
X010089Y008747D03*
X010089Y008491D03*
X009833Y008491D03*
X009833Y008747D03*
X009833Y009003D03*
X009833Y009259D03*
X009577Y009259D03*
X009577Y009003D03*
X009577Y008747D03*
X009577Y008491D03*
X009321Y008491D03*
X009321Y008747D03*
X009321Y009003D03*
X009321Y009259D03*
X009065Y009259D03*
X009065Y009003D03*
X009065Y008747D03*
X009065Y008491D03*
X008809Y008491D03*
X008553Y008491D03*
X008553Y008747D03*
X008553Y009003D03*
X008553Y009259D03*
X008553Y009515D03*
X008809Y009259D03*
X008809Y009003D03*
X008809Y008747D03*
X008553Y009771D03*
X008553Y010027D03*
X008553Y010282D03*
X008553Y010538D03*
X008553Y010794D03*
X009065Y010794D03*
X009065Y010538D03*
X009065Y010282D03*
X009065Y010027D03*
X009065Y009771D03*
X009321Y009771D03*
X009321Y010027D03*
X009321Y010282D03*
X009577Y010282D03*
X009577Y010027D03*
X009577Y009771D03*
X009577Y010538D03*
X009321Y010538D03*
X009321Y010794D03*
X009577Y010794D03*
X010600Y011050D03*
X010600Y011306D03*
X010600Y011562D03*
X010600Y011818D03*
X010600Y012074D03*
X010856Y012074D03*
X010856Y011818D03*
X010856Y011562D03*
X010856Y011306D03*
X010856Y011050D03*
X011112Y011050D03*
X011112Y011306D03*
X011112Y011562D03*
X011112Y011818D03*
X011112Y012074D03*
X011368Y012074D03*
X011368Y011818D03*
X011368Y011562D03*
X011368Y011306D03*
X011368Y011050D03*
X011368Y010794D03*
X011368Y010538D03*
X011368Y010282D03*
X011368Y010027D03*
X011368Y009771D03*
X011112Y009771D03*
X011112Y010027D03*
X011112Y010282D03*
X010856Y010282D03*
X010856Y010027D03*
X010856Y009771D03*
X010856Y009515D03*
X010856Y009259D03*
X010856Y009003D03*
X010856Y008747D03*
X010856Y008491D03*
X011112Y008491D03*
X011112Y008747D03*
X011112Y009003D03*
X011112Y009259D03*
X011112Y009515D03*
X011368Y009515D03*
X011368Y009259D03*
X011368Y009003D03*
X011368Y008747D03*
X011368Y008491D03*
X011112Y010538D03*
X010856Y010538D03*
X010856Y010794D03*
X011112Y010794D03*
X008297Y011562D03*
X008297Y011818D03*
X008297Y012074D03*
D24*
X005530Y010991D03*
X004530Y010991D03*
X002970Y013353D03*
X001970Y013353D03*
D25*
X002095Y012803D03*
X002845Y012803D03*
X002845Y013903D03*
X002095Y013903D03*
X004655Y011541D03*
X005405Y011541D03*
X005405Y010441D03*
X004655Y010441D03*
D26*
X004755Y010579D03*
X005305Y010579D03*
X005305Y011404D03*
X004755Y011404D03*
X002745Y012941D03*
X002195Y012941D03*
X002195Y013766D03*
X002745Y013766D03*
D27*
G36*
X002923Y013854D02*
X003021Y013952D01*
X003119Y013854D01*
X003021Y013756D01*
X002923Y013854D01*
G37*
G36*
X002923Y012853D02*
X003021Y012951D01*
X003119Y012853D01*
X003021Y012755D01*
X002923Y012853D01*
G37*
G36*
X002018Y012853D02*
X001920Y012755D01*
X001822Y012853D01*
X001920Y012951D01*
X002018Y012853D01*
G37*
G36*
X002018Y013854D02*
X001920Y013756D01*
X001822Y013854D01*
X001920Y013952D01*
X002018Y013854D01*
G37*
G36*
X004577Y011491D02*
X004479Y011393D01*
X004381Y011491D01*
X004479Y011589D01*
X004577Y011491D01*
G37*
G36*
X004577Y010491D02*
X004479Y010393D01*
X004381Y010491D01*
X004479Y010589D01*
X004577Y010491D01*
G37*
G36*
X005482Y010491D02*
X005580Y010589D01*
X005678Y010491D01*
X005580Y010393D01*
X005482Y010491D01*
G37*
G36*
X005482Y011491D02*
X005580Y011589D01*
X005678Y011491D01*
X005580Y011393D01*
X005482Y011491D01*
G37*
D28*
G36*
X005231Y011315D02*
X005380Y011464D01*
X005529Y011315D01*
X005380Y011166D01*
X005231Y011315D01*
G37*
G36*
X005231Y010667D02*
X005380Y010816D01*
X005529Y010667D01*
X005380Y010518D01*
X005231Y010667D01*
G37*
G36*
X004829Y010667D02*
X004680Y010518D01*
X004531Y010667D01*
X004680Y010816D01*
X004829Y010667D01*
G37*
G36*
X004829Y011315D02*
X004680Y011166D01*
X004531Y011315D01*
X004680Y011464D01*
X004829Y011315D01*
G37*
G36*
X002671Y013029D02*
X002820Y013178D01*
X002969Y013029D01*
X002820Y012880D01*
X002671Y013029D01*
G37*
G36*
X002671Y013677D02*
X002820Y013826D01*
X002969Y013677D01*
X002820Y013528D01*
X002671Y013677D01*
G37*
G36*
X002269Y013677D02*
X002120Y013528D01*
X001971Y013677D01*
X002120Y013826D01*
X002269Y013677D01*
G37*
G36*
X002269Y013029D02*
X002120Y012880D01*
X001971Y013029D01*
X002120Y013178D01*
X002269Y013029D01*
G37*
D29*
X002185Y012340D03*
X001929Y012340D03*
X002441Y012340D03*
X002697Y012340D03*
X002697Y010036D03*
X002441Y010036D03*
X002185Y010036D03*
X001929Y010036D03*
D30*
X003278Y010716D03*
X003947Y010716D03*
X004774Y009692D03*
X005443Y009692D03*
X002687Y014456D03*
X002018Y014456D03*
D31*
X006026Y011344D03*
X006026Y010875D03*
X006789Y010875D03*
X006789Y011344D03*
D32*
X005518Y011873D03*
X005518Y012133D03*
X005518Y012393D03*
X004698Y012393D03*
X004698Y012133D03*
X004698Y011873D03*
D33*
X005108Y012133D03*
D34*
X004321Y012715D03*
X004124Y012715D03*
X003927Y012715D03*
X003730Y012715D03*
X003533Y012715D03*
X003533Y013835D03*
X003730Y013835D03*
X003927Y013835D03*
X004124Y013835D03*
X004321Y013835D03*
D35*
X003927Y013275D03*
D36*
X005030Y013609D03*
X005030Y012940D03*
X005896Y003491D03*
X005896Y002822D03*
D37*
X007376Y005797D03*
X008116Y005797D03*
X008715Y005797D03*
X009455Y005797D03*
X009455Y006737D03*
X009085Y006737D03*
X008715Y006737D03*
X008116Y006737D03*
X007746Y006737D03*
X007376Y006737D03*
D38*
X012228Y012511D03*
X012228Y013251D03*
X013028Y012881D03*
D39*
X005212Y005814D03*
X005212Y005617D03*
X005212Y005420D03*
X005212Y005223D03*
X005212Y005027D03*
X005212Y004830D03*
X003745Y004830D03*
X003745Y005027D03*
X003745Y005223D03*
X003745Y005420D03*
X003745Y005617D03*
X003745Y005814D03*
D40*
X003986Y006056D03*
X004183Y006056D03*
X004380Y006056D03*
X004577Y006056D03*
X004774Y006056D03*
X004970Y006056D03*
X004970Y004588D03*
X004774Y004588D03*
X004577Y004588D03*
X004380Y004588D03*
X004183Y004588D03*
X003986Y004588D03*
D41*
X004478Y005322D03*
D42*
X010128Y006660D03*
X010502Y005834D03*
X010876Y006660D03*
D43*
X003711Y006542D03*
X003041Y006542D03*
X003002Y005794D03*
X002333Y005794D03*
D44*
X007500Y017428D03*
X007709Y017428D03*
X008209Y017428D03*
X008386Y017428D03*
X008386Y017723D03*
X008386Y018019D03*
X008209Y018019D03*
X007709Y018019D03*
X007500Y018019D03*
D45*
X007535Y017723D03*
X007740Y017723D03*
D46*
X008110Y017723D03*
D47*
X007982Y015105D03*
X007982Y014908D03*
X007982Y014712D03*
X007982Y014515D03*
X007982Y014318D03*
X007982Y014121D03*
X009557Y014121D03*
X009557Y014318D03*
X009557Y014515D03*
X009557Y014712D03*
X009557Y014908D03*
X009557Y015105D03*
D48*
X009262Y015401D03*
X009065Y015401D03*
X008868Y015401D03*
X008671Y015401D03*
X008474Y015401D03*
X008278Y015401D03*
X008278Y013826D03*
X008474Y013826D03*
X008671Y013826D03*
X008868Y013826D03*
X009065Y013826D03*
X009262Y013826D03*
X009301Y004141D03*
X009104Y004141D03*
X008907Y004141D03*
X008711Y004141D03*
X008514Y004141D03*
X008317Y004141D03*
X008120Y004141D03*
X007923Y004141D03*
X007726Y004141D03*
X009498Y004141D03*
X009695Y004141D03*
X009892Y004141D03*
X010089Y004141D03*
X010285Y004141D03*
X010482Y004141D03*
X010679Y004141D03*
X010876Y004141D03*
X011073Y004141D03*
X011270Y004141D03*
X011467Y004141D03*
X011663Y004141D03*
X011860Y004141D03*
X012057Y004141D03*
X012254Y004141D03*
D49*
X014308Y018590D03*
X014648Y018590D03*
D50*
X013219Y003511D03*
X006762Y003511D03*
D51*
X006762Y003511D03*
X013219Y003511D03*
D52*
X013002Y002910D03*
X006978Y002910D03*
M02*
